<?xml version="1.0" encoding="UTF-8"?><svg id="CIRCLE_OUTLINE_BLACK" xmlns="http://www.w3.org/2000/svg" viewBox="0 0 512 512"><circle cx="256" cy="256" r="256"/><path d="m85.33333,230.70347l101.47734-101.5472h138.37813l101.47734,101.5472-170.66667,170.59625L85.33333,230.70347Zm249.08053-36.9728c-43.11733-43.30614-113.71147-43.30614-156.8288.00053l-36.9008,36.90133,36.9008,36.9008c43.11733,43.30613,113.71147,43.30613,156.8288,0l36.9008-36.9008-36.9008-36.90186Z" fill="#0ce466" fill-rule="evenodd"/><path d="m202.9552,230.62828c0,29.30772,23.76107,53.0448,53.0448,53.0448s53.0448-23.73708,53.0448-53.0448-23.76107-53.0448-53.0448-53.0448-53.0448,23.73706-53.0448,53.0448Zm29.98187,0c0,12.74239,10.33067,23.06293,23.06293,23.06293s23.06293-10.32054,23.06293-23.06293-10.3312-23.06295-23.06293-23.06295-23.06293,10.32054-23.06293,23.06295Z" fill="#fff" fill-rule="evenodd"/></svg>