<?xml version="1.0" encoding="UTF-8"?><svg id="Layer_1" xmlns="http://www.w3.org/2000/svg" xmlns:xlink="http://www.w3.org/1999/xlink" viewBox="0 0 128 128"><defs><style>.cls-1{fill:url(#linear-gradient);}.cls-1,.cls-2{stroke-width:0px;}.cls-2{fill:#fff;}</style><linearGradient id="linear-gradient" x1=".5" y1="64" x2="127.5" y2="64" gradientUnits="userSpaceOnUse"><stop offset="0" stop-color="#005eb7"/><stop offset="1" stop-color="#0089d4"/></linearGradient></defs><circle class="cls-1" cx="64" cy="64" r="63.5"/><path id="XEC" class="cls-2" d="m104.27,66.46c0,.54,0,.91,0,1.28,0,4.78-.04,9.57.02,14.35.04,3.41-1.46,5.95-4.31,7.62-7.23,4.26-14.52,8.42-21.79,12.63-2.89,1.68-5.83,3.29-8.66,5.06-3.63,2.28-7.14,2.32-10.86.13-9.3-5.45-18.68-10.78-28.01-16.19-2.03-1.17-4.19-2.18-5.52-4.28-.9-1.42-1.44-2.9-1.43-4.61.02-12.13.04-24.26-.01-36.38-.01-3.41,1.42-5.97,4.23-7.68,4.11-2.5,8.31-4.84,12.49-7.24,6.13-3.52,12.24-7.05,18.4-10.51,1.2-.68,2.52-1.22,3.85-1.58,2.06-.57,3.98.13,5.76,1.15,6.2,3.53,12.38,7.09,18.56,10.63,4.26,2.44,8.55,4.84,12.78,7.35,2.94,1.75,4.38,4.4,4.53,7.87.14,3.19-.62,5.99-3.07,8.1-1.12.97-2.49,1.67-3.79,2.42-5.73,3.31-11.49,6.58-17.23,9.88-5.06,2.91-10.11,5.83-15.13,8.79-.79.47-1.41.43-2.16-.02-2.61-1.55-5.23-3.08-7.89-4.56-.92-.51-1.33-1.24-1.34-2.23-.02-2.9-.04-5.81,0-8.71.01-1.01.53-1.8,1.44-2.32,5.72-3.27,11.43-6.55,17.14-9.82.71-.41,1.4-.85,2.11-1.26,1.13-.64,1.15-1.15.04-1.8-1.68-.98-3.37-1.95-5.06-2.91-.92-.52-1.84-1.04-2.78-1.53-1.8-.96-3.61-.95-5.37.05-5.42,3.1-10.81,6.25-16.23,9.36-2.1,1.21-3.17,2.87-3.12,5.41.12,6.18.12,12.37.01,18.55-.04,2.5,1.12,4.07,3.1,5.22,5.09,2.98,10.24,5.87,15.31,8.9,2.41,1.44,4.62,1.56,7.08.1,7.85-4.63,15.75-9.16,23.64-13.73,4.16-2.41,8.33-4.82,12.5-7.22.17-.1.37-.13.77-.27Z"/></svg>