<?xml version="1.0" encoding="UTF-8"?><svg id="Layer_1" xmlns="http://www.w3.org/2000/svg" xmlns:xlink="http://www.w3.org/1999/xlink" viewBox="0 0 128 128"><defs><style>.cls-1{clip-path:url(#clippath);}.cls-2{fill:none;}.cls-2,.cls-3,.cls-4,.cls-5,.cls-6,.cls-7{stroke-width:0px;}.cls-3{fill:url(#linear-gradient);}.cls-4{fill:url(#linear-gradient-2);}.cls-5{fill:#0a0e11;}.cls-6{fill:#fdfcfa;}.cls-7{fill:#fe8a01;}</style><linearGradient id="linear-gradient" x1="17.16" y1="96.46" x2="115.33" y2="28.43" gradientUnits="userSpaceOnUse"><stop offset="0" stop-color="#656668"/><stop offset=".17" stop-color="#4d4f51"/><stop offset=".47" stop-color="#282b2e"/><stop offset=".71" stop-color="#121518"/><stop offset=".87" stop-color="#0a0e11"/></linearGradient><clipPath id="clippath"><circle class="cls-2" cx="64" cy="64" r="52.84"/></clipPath><linearGradient id="linear-gradient-2" x1="28.46" y1="27.14" x2="101.81" y2="103.22" gradientUnits="userSpaceOnUse"><stop offset="0" stop-color="#fff" stop-opacity=".5"/><stop offset=".14" stop-color="#d0d1d1" stop-opacity=".41"/><stop offset=".48" stop-color="#65686a" stop-opacity=".19"/><stop offset=".73" stop-color="#232629" stop-opacity=".05"/><stop offset=".87" stop-color="#0a0e11" stop-opacity="0"/></linearGradient></defs><circle class="cls-5" cx="64" cy="64" r="63.5"/><g id="_1000SATS"><circle class="cls-3" cx="64" cy="64" r="59.71"/><circle class="cls-5" cx="64" cy="64" r="56.51"/><g id="SATS"><g class="cls-1"><g id="RVnXVX"><path class="cls-7" d="m63.03,9.23c32.42,4.19,53.61,23.04,53.65,54.73.04,32.43-22.79,54.67-54.8,53.95-32.29-.73-53.42-22.64-53.03-54.49.39-31.59,21.56-50.36,54.18-54.19ZM30.18,82.35c3.39,5.18,10.2,5.25,14.59,9.79,1.27,3.39-5.96,9.86,2.92,11.2,5.07-1.01,2.19-9.54,8.7-8.81,4.75,3.08-2.33,9.2,3.41,12.01,7.72,1.15,4-8.19,10.05-10.16,1.11-.12,3.58-.25,6-.7,6.55-1.24,11.92-4.35,13.44-11.25,1.42-6.47-2.31-11.36-7.06-14.91-5.28-3.94-11.23-7-16.83-10.52-4.42-2.78-9.95-4.67-10.09-12.54,12.43-6.69,22.49,2.16,33.33,5.54,2.75-1.05,5.14-2.49,5.67-6.46-3.54-2.3-7.26-4.72-10.69-6.95-2.29-3.88,2.97-7.26.05-10.92-9.15-5.17-5.44,8.86-11.44,7.98-7.28-1.61,4.34-14.04-7.62-12.71-2.89,2.7-1.44,7.49-5.6,10.2-1.33.12-3.37.33-5.41.5-6.76.57-12.05,3.37-14.08,10.23-1.96,6.61,1.83,11.44,6.45,15.01,5.2,4.02,11.25,6.91,16.81,10.5,4.37,2.82,10.03,4.56,10.61,12.6-14.37,9.42-25.85-2.21-38.01-6.17-2.98,1.46-5.18,3.12-5.19,6.54Z"/><path class="cls-6" d="m30.18,82.35c0-3.42,2.21-5.07,5.19-6.54,12.16,3.96,23.64,15.58,38.01,6.17-.57-8.04-6.24-9.78-10.61-12.6-5.56-3.58-11.61-6.47-16.81-10.5-4.62-3.58-8.4-8.4-6.45-15.01,2.03-6.86,7.32-9.66,14.08-10.23,2.04-.17,4.07-.38,5.41-.5,4.16-2.71,2.7-7.51,5.6-10.2,11.96-1.33.34,11.1,7.62,12.71,6,.88,2.29-13.15,11.44-7.98,2.92,3.65-2.33,7.03-.05,10.92,3.43,2.23,7.15,4.65,10.69,6.95-.53,3.97-2.92,5.4-5.67,6.46-10.84-3.38-20.9-12.23-33.33-5.54.13,7.87,5.66,9.75,10.09,12.54,5.6,3.53,11.55,6.58,16.83,10.52,4.76,3.55,8.49,8.44,7.06,14.91-1.52,6.91-6.89,10.01-13.44,11.25-2.41.46-4.89.58-6,.7-6.06,1.97-2.33,11.31-10.05,10.16-5.73-2.81,1.34-8.93-3.41-12.01-6.51-.74-3.62,7.8-8.7,8.81-8.88-1.34-1.65-7.81-2.92-11.2-4.39-4.53-11.2-4.61-14.59-9.79Z"/></g></g></g><circle class="cls-4" cx="64" cy="64" r="52.84"/></g></svg>