<?xml version="1.0" encoding="UTF-8"?><svg id="Layer_1" xmlns="http://www.w3.org/2000/svg" viewBox="0 0 128 128"><defs><style>.cls-1{fill:#ff8201;}.cls-1,.cls-2{stroke-width:0px;}.cls-2{fill:#fff;}</style></defs><circle class="cls-1" cx="64" cy="64" r="63.5"/><g id="_1000RATS"><path class="cls-2" d="m25.11,49.39c-.11.2-.08.72-.08.89,0,.72.16,1.45.48,2.1.13.28.29.55.31.85.02.31-.32.92-.71.75-.46-.21-.7-.99-.78-1.45-.16-.83-.19-1.74-.18-2.58,0-.29.14-.89.02-1.15-.1-.21-.41-.42-.6-.56-.28-.21-.63-.19-.83.15-.1.17-.13.37-.15.56-.12,1.03-.13,2.08-.03,3.11.01.13.03.27,0,.39-.08.3-.41.35-.64.19-.22-.15-.47-.34-.55-.59-.11-.38-.12-.83-.12-1.23,0-.7.13-1.41.37-2.07.1-.28.22-.49.19-.79-.03-.32-.17-.64-.3-.93-.26-.23-.68-.28-1-.36-.41-.09-.81-.19-1.22-.28.39-.21.78-.47,1.18-.65.31-.13.66-.13.98-.26.19-.07.57-.16.68-.33.09-.13.1-.3.11-.46.03,0,.16-2.22.17-2.42.03-.47.05-1.36.45-1.7.16-.14.69-.3.89-.17.2.14.25.43.19.68s-.2.45-.31.67c-.26.48-.4,1.03-.41,1.57-.01.33-.02,1.26.28,1.49.73.55,1.28-1.96,1.38-2.37.19-.77.56-1.49,1.08-2.08.09-.1.19-.2.31-.27.27-.14.66-.03.91.11.02.01-.7,1.11-.76,1.21-.42.72-.72,1.52-.61,2.37.01.08,11.98-1.41,13.1-1.31.35.03.71.05,1.06-.13.59-.31.07-4.06.15-4.71.33-2.71,1.57-6.07,4.4-6.96,2.03-.64,5.33-.64,6.88,1.07.54.6.77,1.43.78,2.23,0,1.41-.75,2.61-.35,4.04.01.04,2.67-1.22,2.95-1.29,2.47-.61,5.45-.83,7.68.65,1.52,1.01,3.09,3.68,1.7,5.37-.77.94-1.86,1.5-2.95,1.99-.88.4-1.92.52-2.91,1.11.48.32.87.74,1.34.86,2.19.53,4.21,2.08,6.04,3.32,4.94,3.32,9.51,7.31,13,12.15s6.32,10.78,6.02,16.74c-.15,2.92-1,5.93-2.64,8.38-.51.77-2.44,2.32-2.29,3.31q-.9.46-1.15,1.23c.53.69,1.25.95,2.13.96,4.15.04,8.62-1.13,11.87-3.86,4.18-3.51,4.51-8.45,4.11-13.56-.29-3.68-.84-7.33-1.55-10.95-1.03-5.28-2.61-10.04-1.62-15.47.51-2.78,1.72-4.59,3.32-6.83.39-.12.7-.55,1.12-.8,1.11-.67,2.3-1.21,3.42-1.86.49-.29,1.05-.44,1.59-.6s1.1-.4,1.67-.52c1.34-.28,2.68-.56,4.01-.84-.85.18-1.55.66-2.37.88-.9.24-1.79.54-2.66.89-.98.4-1.84.99-2.75,1.53-2.34,1.4-3.96,3.28-4.7,5.95-.88,3.18-.23,6.37.4,9.53.82,4.1,1.89,8.14,2.92,12.18,1.94,7.63,2.47,15.88-2.93,22.28-2.75,3.26-6.73,4.42-10.65,5.67-1.56.5-3.14.45-4.75.57s-3.04.32-4.59.31c-2.06-.02-4.13-.15-6.18-.35-1.72-.17-3.71-.18-5.35-.76-1.99-.7-3.97-.53-5.96-.54-7.29-.04-14.58-.01-21.88-.01-.43,0-.85,0-1.32,0-.16-.8-.07-1.37.39-1.96.96-1.25,2.08-2.19,3.51-2.95,2.38-1.26,4.86-1.25,7.32-.91,1.1.15,2.17.15,3.2.63.52.24,3.07,1.01,2.96-.16-.06-.6-.45-1.31-.62-1.9-.19-.64-.36-1.29-.54-1.93-.43-1.58-1.02-3.13-1.06-4.8-.03-1.31-.12-2.61.01-3.92.23-2.27,1.11-4.19,3.12-5.43.89-.55,1.91-.86,2.96-.95.75-.06,1.5-.03,2.26-.05.34,0,.73.05.83-.44-1.23-.56-2.46-.92-3.83-.89-2.8.06-4.52,1.65-5.92,3.84-.53.84-.48,1.8-.77,2.66-.57,1.67-.62,3.4-.34,5.02.33,1.91.21,3.91.96,5.75.2.49.24,1.07-.05,1.67-.58-.26-.92-.72-1.34-1.09-1.21-1.06-2.29-2.25-3.37-3.43-1.46-1.61-2.66-3.44-3.61-5.38-.83-1.68-1.42-3.48-1.99-5.28-.51-1.58-.39-3.27-1.19-4.74-.41-.75-1.35-.81-1.91-1.48-.55,0-1.11.03-1.66,0-2-.11-3.68.78-5.39,1.63-.63.31-1.2.8-2,.89-.26-1.2.33-2.02,1.02-2.73,1.01-1.04,2.2-1.77,3.62-2.29,1.44-.53,2.9-.84,4.44-1.11.46-1.01-.45-1.65-.78-2.4-1.72-3.94-4.7-7.01-7.8-9.9-.73-.68-1.53-1.75-2.45-2.12-.16-.06-.55-.3-.72-.2-.02.01-.04.04-.06.07Zm14.92-3.03c-.47-.74-1.59-.97-2.39-.76-2.47.64-.73,3.81,1.45,2.91.83-.34,1.5-1.29.95-2.15Z"/></g></svg>