<?xml version="1.0" encoding="UTF-8"?><svg id="CIRCLE_OUTLINE_BLACK" xmlns="http://www.w3.org/2000/svg" viewBox="0 0 512 512"><circle cx="256" cy="256" r="256" fill="#1c324f"/><path d="m253.90944,502.99527c129.22289,0,233.97908-106.56814,233.97908-238.02917S383.13233,26.93458,253.90944,26.93458,19.93036,133.50462,19.93036,264.9661s104.75618,238.02917,233.97908,238.02917Z" fill="#ecf3ff"/><path d="m191.35108,120.33311l-83.80415-33.52166v11.97202l71.83213,64.64892-4.78881,67.04332-21.54964,90.98736-28.73285,40.70487,7.18321,57.4657,35.91607,4.78881,28.73285-4.78881,28.73285,4.78881,50.28249-31.12726,9.57762-50.28249,59.86011-57.4657,26.33845,19.15523,26.33845,38.31047v76.62094l35.91607-9.57762,35.91607-79.01534,9.57762-100.56498L349.38177,41.31777l-21.54964-4.78881-136.48105,83.80415Z" fill="#fff"/><path d="m64.44765,258.71292c.95777-8.14098,1.43664-16.28196,3.83104-23.94404,6.70434-31.60613,19.63412-61.77564,38.78936-86.19856,3.35215-4.30994,6.22545-8.14098,10.05649-11.97202l-21.54964-20.113c-3.83104,5.74657-7.6621,11.49315-11.01426,17.23972-17.7186,30.64836-27.29621,65.12779-29.69062,99.12832-.95777,8.61987-.47888,17.23972-.47888,25.3807,0,8.61983.95777,16.76083,2.3944,25.38066,2.3944,16.76083,6.70433,33.04279,12.4509,48.367-3.83104-16.28196-5.74657-32.56391-6.22545-49.32474,0-7.66209,0-15.80308,1.43664-23.94404Z" fill="#94a6c4"/><path d="m162.61823,103.57228c-11.97202-5.74657-28.73285-13.40866-40.70487-19.15523,11.01426-10.53538,31.12726-21.54964,47.88809-28.73285-11.97202,9.57762-11.97202,29.69062-7.18321,47.88809Z" fill="#94a6c4"/><path d="m114.25127,184.96526c-6.70434,16.76083-11.01427,34.47943-12.45091,51.71915-.47887,4.30992-.95776,8.61985-.47887,12.92977,0,4.30994,0,8.61987.47887,12.92979l.47888,6.70432c0,1.91553.47888,4.30994.95776,6.22547l1.91553,12.92977.47887-12.92977c0-1.91553,0-4.30994.47889-6.22547l.95777-6.22543c.47887-4.30994,1.43664-8.61987,1.91551-12.45091.47889-4.30992,1.91553-8.14098,2.8733-11.97202,4.30992-16.28194,11.49313-31.12726,20.11298-45.01479,5.74657-9.09874,12.45091-17.23972,19.63413-24.90181l-18.67636-17.7186c-8.14098,11.01426-13.88753,22.02851-18.67634,34.00053Z" fill="#94a6c4"/><path d="m391.5233,103.07664c-25.3807-9.09873-35.43719-6.22545-35.43719-6.22545,0,0-15.80308,42.62039-76.14207,45.49368.47887.47887,54.59243,32.08502,111.57926-39.26823Z" fill="#94a6c4"/><path d="m408.763,187.83856c-2.3944,52.6769-43.09928,72.311-74.70541,68.47996-17.23974-2.3944-42.6204,5.74657-42.6204,5.74657l-32.08504,55.55019-10.53536,3.83103,18.19749-33.52166s-43.0993,15.80308-46.45147,17.2397c-3.35215,1.43666-16.76083,21.07077-27.77509,41.66266-2.3944-14.36643-11.49313-24.42292-11.49313-24.90183,0,2.3944,4.78881,45.49368-.47889,57.4657-5.26768,12.45093-28.73285,20.59189-28.73285,20.59189l34.47943,12.92977,2.3944.95778,25.85957-24.42292,9.57762-36.39498,11.97202-8.61983s29.6906-3.35219,25.38066,23.46517c-1.91549,12.92977-16.28194,11.97202-32.56388,22.02851-9.57762,5.74656-22.02853,14.8453-28.25398,21.07077l17.2397,12.4509s20.59189-3.35219,49.80362-26.33845c29.6906-23.94404,14.8453-49.80362,14.8453-49.80362l48.36696-57.94458,31.60617,2.3944s54.59239,13.88755,72.311,65.60666c35.43719-99.12832-21.54964-164.73501-26.33845-169.52382Z" fill="#94a6c4"/><path d="m464.31318,146.67156c8.61987,3.83104,15.32417,9.56085,21.54964,14.82855C442.76354,12.08927,302.93034,28.8501,300.05703,29.80787c3.35219-5.26769,15.80308-13.40867,27.29623-17.7186,0,0-59.38123-21.0708-113.49477,16.28195.95777-8.61986,11.49313-21.54964,11.49313-21.54964-74.70541,32.10178-79.49422,70.41225-65.12779,93.38176-11.97202-5.74656-23.94404-11.01426-35.91607-16.76083-36.87383-17.71859-68.47996-32.5639-70.39549-33.04278-3.35216-.95776-4.78881.47888-4.78881.47888,0,0-1.43664,1.43664,1.43665,4.30993,43.57816,43.57816,71.35325,69.93337,117.8047,112.537-7.6621,17.2397-8.61985,25.85957-4.78881,34.9583,5.26768,12.45091,4.78881,18.67636,2.87328,26.81734-2.3944,8.14096-21.54964,80.45196-24.90181,88.59296-3.35215,8.61983-28.73285,37.35269-29.21173,46.9303-.47887,9.57762,7.18321,51.71915,17.7186,57.94461,8.14098,4.3099,27.77509,13.40864,42.14151,15.32417,4.78881.95537,9.57762.47887,11.97202-1.43666,9.57762-6.22543,11.97202-7.18321,18.19747-6.7043l1.43664.47887c2.3944.47887,5.2677,1.43662,9.09874,1.91553,8.14098.95775,18.67636.95775,27.29621-4.78881,12.4509-9.57762,33.52164-21.54964,40.70486-27.7751,8.61987-8.61987,14.36643-20.59189,14.36643-34.00053,0-11.97202,8.141-21.54964,17.23974-31.12726,8.61983-8.61987,30.16947-29.69064,38.78934-38.78934,22.02851,7.66209,30.16947,39.26822,30.16947,56.50792,0,47.88809-38.78934,117.80231-127.86118,123.06999-3.35217,0-6.70434.47887-10.53538.47887-115.88917,0-210.70758-102.4781-210.70758-222.67719,0-94.81843,56.9715-159.02628,57.45039-159.50517-45.97257,43.57816-73.25345,104.43387-73.25345,172.43494,0,132.17111,107.26932,239.4572,239.44043,239.4572s239.44043-107.28609,239.44043-239.4572c0-43.09928-11.01427-84.74515-31.12726-119.70345Zm-327.07563-30.66513c-6.70434-5.74657-13.40866-11.49314-20.113-17.23971,9.09874,4.78881,18.19747,9.57762,26.33845,13.88754,24.90181,12.92979,45.49368,24.42292,49.32473,27.29621,0,0,.47889.47887.95777.95777,2.3944,2.87328,4.78881,7.66209.47887,13.88753-2.3944,3.35217-5.26768,2.3944-9.57762-.47887-3.83104-2.3944-24.42292-18.67636-47.40919-38.31047Zm139.35434,249.01803c0,8.141-3.83106,15.32421-8.61987,20.59189-2.3944,2.3944-11.97202,8.61987-18.67636,12.92977-6.70432,4.78881-13.88753,9.09874-19.63411,13.40868-2.3944,1.43666-6.22545,2.3944-12.4509,1.43666l-14.84532-1.91553c9.09874-9.09874,34.00055-28.73285,42.14151-32.56391,9.57762-4.78881,15.32421-10.05649,11.01427-21.07077-3.83106-11.49311-18.67636-11.01424-18.67636-11.01424,0,0,9.09874-2.3944,16.28196-1.43666-9.09874-3.83103-21.54964-2.87328-27.7751,1.43666-6.70432,4.78881-8.61985,24.42292-12.92977,36.39494-4.30994,12.4509-13.88755,17.71858-28.25398,27.7751-8.14098,5.26768-13.40866,6.7043-17.2397,6.22543-8.14098-2.3944-17.7186-6.70434-24.42294-10.05649-3.83104-7.18321-8.61985-29.6906-9.09873-38.78934,1.91551-4.78881,9.57762-14.36643,13.40866-20.11302,7.66209-10.53536,11.97202-16.76083,13.88753-22.50739,3.35217-8.14096,17.23972-59.38123,22.5074-80.93087,5.2677,9.09874,12.45091,24.42292,9.09874,33.04279,17.2397-18.19747,9.57762-39.74711,5.74657-48.36696-3.35217-8.61987-7.18321-25.3807.47887-41.66264,7.18321-16.28196,32.08502-60.339,32.08502-60.339,0,0,4.30992,11.49315,13.40866,10.53538,8.61985-.95777,91.46624-93.86064,91.46624-93.86064,0,0,12.92981,43.09928-11.01424,69.43773-23.94404,26.33845-44.05706,29.21173-44.05706,29.21173,0,0,26.81732,8.61985,54.59243-5.74657,7.18321,25.85957,13.40868,52.6769,13.40868,56.02907-1.91553,3.35217-28.73285,48.36698-31.12726,51.24026-.95778.95777-8.61987,1.91553-13.40868,1.91553-8.61987,1.43664-13.88755,1.91551-16.28196,3.35215-3.83103,2.3944-25.85957,44.05706-36.39494,64.17004-9.57762,1.43666-19.15523,4.78881-26.81732,13.88755,3.83104-1.91553,14.8453-1.91553,22.98628-1.91553,7.18321.47887,26.81734,14.8453,29.21174,37.35272v1.91549Zm-56.02908,20.11302c5.2677-5.74659,6.22547-16.76083,7.18321-20.11302.95777-3.35215,2.8733-9.57762,7.18321-10.05649,4.30994-.47887,13.40868,2.3944,12.45091,9.57762-.95777,6.70434-8.14098,7.18321-13.88755,10.5354-3.83104,2.3944-11.97202,9.09871-12.92979,10.05649Zm208.31318,6.22543c-5.74656-61.29673-47.88809-90.02958-66.56445-99.6072,21.54964-2.3944,77.09985-19.15523,46.45147-103.91715.95775,3.83104,9.57762,45.97256-14.8453,68.00109-24.90183,22.50739-61.29677,12.92977-65.6067,12.92977-3.83103-.47887-22.02851,17.2397-46.9303,51.24027-2.3944-1.43666-12.45093-5.26772-24.90183-4.78881,12.4509-23.46517,31.12726-56.98683,34.00053-59.86013.95778-.95777,9.09874-1.91551,13.88755-2.3944,9.57762-.95777,14.36643-1.91551,16.28196-3.83104.95775-1.43664,7.66209-11.97202,14.36643-23.46517,4.30994.47889,15.80308,1.43666,17.2397.95777.95778-.95777,13.88755-23.94404,14.36643-26.81732.47887-1.91553-8.61983-37.8316-14.36643-60.81787,118.2836,56.02907,136.95992,179.58033,76.62094,252.3702Z" fill="#1c324f"/><path d="m314.90236,106.42881c13.40864-11.97202,11.49311-32.5639,11.49311-32.5639l-40.22596,44.53593c-.47891,0,11.97202,2.3944,28.73285-11.97202Z" fill="#1c324f"/><path d="m164.53376,359.75678l6.70432-19.15523s-20.59187,26.33845-22.5074,30.16951c-1.91551,4.30994-.95775,12.4509,5.74657,12.92977,6.70434.47887,15.80306-8.14096,16.76083-14.8453,1.43664-9.09874-6.70432-9.09874-6.70432-9.09874Z" fill="#1c324f"/><path d="m227.74602,243.86762c14.36643-1.43666,40.226-12.92979,51.24027-22.02853,11.01424-9.57762,9.09871-30.64836-8.141-36.87383,5.74659-9.57762,15.32421-29.6906,15.32421-29.6906,0,0-61.77564,72.311-66.56445,73.26877s-6.70434-17.23972-6.70434-17.23972c-14.36643,34.95832,10.05649,43.57817,14.8453,32.56391Z" fill="#1c324f"/><path d="m233.01372,234.76888l32.08502-40.70487s13.88755,9.57762,4.78881,20.59187c-11.49315,12.92979-36.87383,20.113-36.87383,20.113Z" fill="#ffd925"/><path d="m318.25451,53.27303l-22.02851,23.94404c-17.71861,5.26769-34.95832,14.84531-51.24026,30.64837,0-9.09873,26.33843-48.84584,73.26877-54.59242Z" fill="#d82423"/><path d="m346.02962,73.8649c.47887-6.22545,0-13.40866-.95778-20.11299,28.73285,3.83104,62.73339,20.59187,101.52277,58.42346-32.08504-17.71859-66.08557-34.00053-100.56498-38.31047Z" fill="#d82423"/><path d="m354.64945,104.99216s106.79045,46.93033,126.42456,178.62255c2.87328-171.43934-118.76247-180.05919-126.42456-178.62255Z" fill="#d82423"/><path d="m199.01317,29.32899c-1.43664,3.83105-61.77562,68.47996,13.40868,93.86065-41.18377-36.87383-13.88755-93.38177-13.40868-93.86065Z" fill="#d82423"/><path d="m231.09819,113.13314s6.22545-73.26877,50.28251-92.90289c-3.35219.95776-92.9029,28.25397-50.28251,92.90289Z" fill="#d82423"/></svg>