<?xml version="1.0" encoding="UTF-8"?><svg id="CIRCLE_OUTLINE_BLACK" xmlns="http://www.w3.org/2000/svg" xmlns:xlink="http://www.w3.org/1999/xlink" viewBox="0 0 512 512"><defs><linearGradient id="Degradado_sin_nombre_60" x1="-2019.68014" y1="-4364.83887" x2="-2015.9745" y2="-4364.83887" gradientTransform="translate(-754944.05293 191165.66259) rotate(-128.99469) scale(161.99323 -161.99323)" gradientUnits="userSpaceOnUse"><stop offset="0" stop-color="#5a81ff"/><stop offset=".52" stop-color="#e40c5b"/><stop offset="1" stop-color="#ff4c3b"/></linearGradient></defs><circle cx="256" cy="256" r="256" fill="#fff"/><path d="m256,512c141.38514,0,256-114.61486,256-256S397.38514,0,256,0,0,114.61486,0,256s114.61486,256,256,256Zm1.0449-24.03265c128.1118,0,231.96735-103.85555,231.96735-231.96735S385.1567,24.03265,257.0449,24.03265c-128.1118,0-231.96735,103.85554-231.96735,231.96735s103.85554,231.96735,231.96735,231.96735Zm-1.0449-17.76327c118.30128,0,214.20408-95.90281,214.20408-214.20408S374.30128,41.79592,256,41.79592,41.79592,137.69874,41.79592,256s95.90282,214.20408,214.20408,214.20408Zm.52245-26.12245c104.16276,0,188.60408-84.44133,188.60408-188.60408s-84.44133-188.60408-188.60408-188.60408S67.91837,151.31481,67.91837,255.47755s84.44134,188.60408,188.60408,188.60408Zm-10.64437-340.98782l136.54204,236.87417,14.6411-25.40147-121.89987-211.47272-29.28327.00002Zm-130.9393,211.04534l116.86349-202.73737.24137.41796.22988-.39915,138.49077,240.25549h-29.28326l-34.98737-60.69605c-15.89812-5.02596-32.82443-7.73642-50.38498-7.73642-9.05195,0-17.88552.63217-26.47353,1.89337l16.86465-29.21116c3.1838-.15569,6.38747-.23406,9.60888-.23406,10.72797,0,21.25217.8683,31.50784,2.53909l-55.58335-96.42736-102.45225,177.7361-14.64214-25.40045Zm79.44882-3.08141l52.51239-91.10048-14.6411-25.40043-90.56759,157.11816h29.28326l.27795-.48275c25.11621-15.12178,53.93659-22.76518,85.40682-22.76518,20.09549,0,39.3613,3.54952,57.20502,10.05714l-19.61795-33.98007c-12.3831-2.41894-24.96993-3.63415-37.58707-3.62787-21.77776,0-42.72065,3.57876-62.27173,10.18147Z" fill="url(#Degradado_sin_nombre_60)" fill-rule="evenodd"/></svg>