<?xml version="1.0" encoding="UTF-8"?>
<svg id="Layer_1" xmlns="http://www.w3.org/2000/svg" version="1.1" viewBox="0 0 500 500">
  <!-- Generator: Adobe Illustrator 29.0.1, SVG Export Plug-In . SVG Version: 2.1.0 Build 192)  -->
  <defs>
    <style>
      .st0 {
        fill: #fff;
      }

      .st1 {
        fill: #020041;
      }
    </style>
  </defs>
  <circle id="bg" class="st0" cx="250" cy="250" r="248.5"/>
  <g>
    <path class="st1" d="M250.5,55c16.9,28.6,33.2,57.5,50,86.2,2.4,3.7,3.1,8.2,3.1,12.6v103.3c-23-8.1-48.6-9.6-71.9-1.9-12.5,3.8-23.7,10.6-34.4,18,0-40.5,0-81,0-121.5,0-3,0-6,1.9-8.5,17.2-29.3,34.3-58.7,51.3-88.1Z"/>
    <path class="st1" d="M63.8,376.3c31.4-54.1,62.8-108.1,94.4-162.1.6,54.1.2,108.2.2,162.3-31.5-.3-63,0-94.6-.2"/>
    <path class="st1" d="M342.1,214.4c31.9,53.8,62.6,108.4,94.1,162.5-31.4.1-62.8-.2-94.1,0-.1-54.2-.3-108.4,0-162.5"/>
    <path class="st1" d="M251.6,286.4c17.6-3,36,.9,51.3,10,.4,26.8-.3,53.6.7,80.4-34.2.1-68.3-.1-102.5-.2-3.6-14.1-5.2-29.2-1.2-43.5,6.3-23.8,27.4-42.8,51.7-46.6"/>
  </g>
</svg>