<?xml version="1.0" encoding="UTF-8"?>
<svg id="Layer_1" xmlns="http://www.w3.org/2000/svg" version="1.1" viewBox="0 0 500 500">
  <!-- Generator: Adobe Illustrator 29.0.1, SVG Export Plug-In . SVG Version: 2.1.0 Build 192)  -->
  <defs>
    <style>
      .st0 {
        fill: #cd90e6;
      }

      .st1 {
        fill: #b75bd7;
      }

      .st2 {
        fill: #bfdcf9;
      }

      .st3 {
        fill: #201124;
      }

      .st4 {
        fill: #4f43a5;
      }

      .st5 {
        fill: #fae7fb;
      }

      .st6 {
        fill: #e4a7f2;
      }

      .st7 {
        fill: #bc83f4;
      }

      .st8 {
        fill: #5f2f9e;
      }

      .st9 {
        fill: #6e48a8;
      }

      .st10 {
        fill: #7b42d5;
      }

      .st11 {
        fill: #bb88b3;
      }

      .st12 {
        fill: #f8c7fb;
      }

      .st13 {
        fill: #8185c3;
      }

      .st14 {
        fill: #f8d5f9;
      }

      .st15 {
        fill: #261e33;
      }

      .st16 {
        fill: #2f257a;
      }

      .st17 {
        fill: #803dbb;
      }

      .st18 {
        fill: #9985c7;
      }

      .st19 {
        fill: #2a0d6b;
      }

      .st20 {
        fill: #de94f7;
      }

      .st21 {
        fill: #d8acb6;
      }

      .st22 {
        fill: #f7dffe;
      }

      .st23 {
        fill: #aaaeef;
      }

      .st24 {
        fill: #de9bf9;
      }

      .st25 {
        fill: #e17bf3;
      }

      .st26 {
        fill: #bb8c9e;
      }

      .st27 {
        fill: #675972;
      }

      .st28 {
        fill: #2c1e5e;
      }

      .st29 {
        fill: #b384bc;
      }

      .st30 {
        fill: #4f324f;
      }

      .st31 {
        fill: #f6ced5;
      }

      .st32 {
        fill: #b885ce;
      }

      .st33 {
        fill: #14183c;
      }

      .st34 {
        fill: #986b8f;
      }

      .st35 {
        fill: #e7aae3;
      }

      .st36 {
        fill: #544a86;
      }

      .st37 {
        fill: #32247d;
      }

      .st38 {
        fill: #070315;
      }

      .st39 {
        fill: #cf8ef5;
      }

      .st40 {
        fill: #c081f7;
      }

      .st41 {
        fill: #976b8d;
      }

      .st42 {
        fill: #3c314d;
      }

      .st43 {
        fill: #747cb6;
      }

      .st44 {
        fill: #7937a6;
      }

      .st45 {
        fill: #ad83a3;
      }

      .st46 {
        fill: #f0a0f8;
      }

      .st47 {
        fill: #5e3893;
      }

      .st48 {
        fill: #a171ab;
      }

      .st49 {
        fill: #2d2640;
      }

      .st50 {
        fill: #865bf0;
      }

      .st51 {
        fill: #69566c;
      }

      .st52 {
        fill: #f9d0fc;
      }

      .st53 {
        fill: #f9c3ed;
      }

      .st54 {
        fill: #68536b;
      }

      .st55 {
        fill: #6e5486;
      }

      .st56 {
        fill: #deb8f9;
      }

      .st57 {
        fill: #736788;
      }

      .st58 {
        fill: #fbcef8;
      }

      .st59 {
        fill: #8d61e2;
      }

      .st60 {
        fill: #996e95;
      }

      .st61 {
        fill: #fcfbfb;
      }

      .st62 {
        fill: #e9bad0;
      }

      .st63 {
        fill: #4f3c56;
      }

      .st64 {
        fill: #e79ef2;
      }

      .st65 {
        fill: #6335a3;
      }

      .st66 {
        fill: #7e6a92;
      }

      .st67 {
        fill: #8778ae;
      }

      .st68 {
        fill: #f3a3f2;
      }

      .st69 {
        fill: #604663;
      }

      .st70 {
        fill: #2b1f2e;
      }

      .st71 {
        fill: #aa7896;
      }

      .st72 {
        fill: #fdcef3;
      }

      .st73 {
        fill: #5d3f6f;
      }

      .st74 {
        fill: #8e6d8e;
      }

      .st75 {
        fill: #0b0626;
      }

      .st76 {
        fill: #232970;
      }

      .st77 {
        fill: #fac4da;
      }

      .st78 {
        fill: #724cc4;
      }

      .st79 {
        fill: #d190f2;
      }

      .st80 {
        fill: #b370f1;
      }

      .st81 {
        fill: #210f52;
      }

      .st82 {
        fill: #af8ee2;
      }

      .st83 {
        fill: #9a5dce;
      }

      .st84 {
        fill: #c974ea;
      }

      .st85 {
        fill: #f6d2d8;
      }

      .st86 {
        fill: #faf2fb;
      }

      .st87 {
        fill: #7648b3;
      }

      .st88 {
        fill: #524061;
      }

      .st89 {
        fill: #a376ad;
      }

      .st90 {
        fill: #120b19;
      }

      .st91 {
        fill: #da9ee8;
      }

      .st92 {
        fill: #5134b5;
      }

      .st93 {
        fill: #fbd2fb;
      }

      .st94 {
        fill: #2b2035;
      }

      .st95 {
        fill: #7647b1;
      }

      .st96 {
        fill: #c851dc;
      }

      .st97 {
        fill: #fbf7fc;
      }

      .st98 {
        fill: #1e111a;
      }

      .st99 {
        fill: #63549e;
      }

      .st100 {
        fill: #fdd2fd;
      }

      .st101 {
        fill: #bd70de;
      }

      .st102 {
        fill: #7954e5;
      }

      .st103 {
        fill: #d186d1;
      }

      .st104 {
        fill: #3d2238;
      }

      .st105 {
        fill: #fcf2fa;
      }

      .st106 {
        fill: #6d44bd;
      }

      .st107 {
        fill: #fbd2d9;
      }

      .st108 {
        fill: #312c88;
      }

      .st109 {
        fill: #a575a3;
      }

      .st110 {
        fill: #db93f7;
      }

      .st111 {
        fill: #fdedeb;
      }

      .st112 {
        fill: #4742bc;
      }

      .st113 {
        fill: #7841a5;
      }

      .st114 {
        fill: #47318d;
      }

      .st115 {
        fill: #9983a5;
      }

      .st116 {
        fill: #b87184;
      }

      .st117 {
        fill: #6f4e69;
      }

      .st118 {
        fill: #d192de;
      }

      .st119 {
        fill: #843f80;
      }

      .st120 {
        fill: #e4a6f8;
      }

      .st121 {
        fill: #9584bb;
      }

      .st122 {
        fill: #b179e2;
      }

      .st123 {
        fill: #9853d1;
      }

      .st124 {
        fill: #9a8abe;
      }

      .st125 {
        fill: #6750cf;
      }

      .st126 {
        fill: #a777b1;
      }

      .st127 {
        fill: #7f5478;
      }

      .st128 {
        fill: #8f6788;
      }

      .st129 {
        fill: #5a5086;
      }

      .st130 {
        fill: #f9f2f9;
      }

      .st131 {
        fill: #b176b7;
      }

      .st132 {
        fill: #ebabf3;
      }

      .st133 {
        fill: #b769ee;
      }

      .st134 {
        fill: #644286;
      }

      .st135 {
        fill: #6858b3;
      }

      .st136 {
        fill: #a839bc;
      }

      .st137 {
        fill: #313859;
      }

      .st138 {
        fill: #c180d8;
      }

      .st139 {
        fill: #df95f9;
      }

      .st140 {
        fill: #c6adb8;
      }

      .st141 {
        fill: #8d52b1;
      }

      .st142 {
        fill: #20172e;
      }

      .st143 {
        fill: #c497ac;
      }

      .st144 {
        fill: #f8e7fa;
      }

      .st145 {
        fill: #fcedfd;
      }

      .st146 {
        fill: #49418e;
      }

      .st147 {
        fill: #4537ac;
      }

      .st148 {
        fill: #a07aa7;
      }

      .st149 {
        fill: #451c8c;
      }

      .st150 {
        fill: #772e9c;
      }

      .st151 {
        fill: #9b7289;
      }

      .st152 {
        fill: #a491bf;
      }

      .st153 {
        fill: #f4c7d1;
      }

      .st154 {
        fill: #8f60c2;
      }

      .st155 {
        fill: #7e50de;
      }

      .st156 {
        fill: #45334b;
      }

      .st157 {
        fill: #594387;
      }

      .st158 {
        fill: #fdceeb;
      }

      .st159 {
        fill: #c695af;
      }

      .st160 {
        fill: #984cd3;
      }

      .st161 {
        fill: #351d35;
      }

      .st162 {
        fill: #a078a7;
      }

      .st163 {
        fill: #e2bdd4;
      }

      .st164 {
        fill: #413049;
      }

      .st165 {
        fill: #f4e0f4;
      }

      .st166 {
        fill: #b47bae;
      }

      .st167 {
        fill: #f0bef7;
      }

      .st168 {
        fill: #2a2052;
      }

      .st169 {
        fill: #3b2736;
      }

      .st170 {
        fill: #f3bfe0;
      }

      .st171 {
        fill: #281769;
      }

      .st172 {
        fill: #a882aa;
      }

      .st173 {
        fill: #c6b1f3;
      }

      .st174 {
        fill: #fdebfd;
      }

      .st175 {
        fill: #d88ff5;
      }

      .st176 {
        fill: #c787f2;
      }

      .st177 {
        fill: #050307;
      }

      .st178 {
        fill: #df8cf0;
      }

      .st179 {
        fill: #9a52d9;
      }

      .st180 {
        fill: #9c5ad4;
      }

      .st181 {
        fill: #b5aaf2;
      }

      .st182 {
        fill: #7b63c6;
      }

      .st183 {
        fill: #643f9f;
      }

      .st184 {
        fill: #302939;
      }

      .st185 {
        fill: #d99fdf;
      }

      .st186 {
        fill: #c57eda;
      }

      .st187 {
        fill: #af86d0;
      }

      .st188 {
        fill: #a3579f;
      }

      .st189 {
        fill: #a979c8;
      }

      .st190 {
        fill: #596695;
      }

      .st191 {
        fill: #563cc5;
      }

      .st192 {
        fill: #80338b;
      }

      .st193 {
        fill: #ab93f2;
      }

      .st194 {
        fill: #da81f0;
      }

      .st195 {
        fill: #cd92e9;
      }

      .st196 {
        fill: #fce8f5;
      }

      .st197 {
        fill: #453781;
      }

      .st198 {
        fill: #3f2b41;
      }

      .st199 {
        fill: #fcdffb;
      }

      .st200 {
        fill: #9d6f91;
      }

      .st201 {
        fill: #f8d4f9;
      }

      .st202 {
        fill: #a788db;
      }

      .st203 {
        fill: #3d2d43;
      }

      .st204 {
        fill: #785776;
      }

      .st205 {
        fill: #9b55ea;
      }

      .st206 {
        fill: #9b6fd0;
      }

      .st207 {
        fill: #ebdbfb;
      }

      .st208 {
        fill: #614761;
      }

      .st209 {
        fill: #4f345e;
      }

      .st210 {
        fill: #64486a;
      }

      .st211 {
        fill: #b179e3;
      }

      .st212 {
        fill: #fcc5fc;
      }

      .st213 {
        fill: #4d2290;
      }

      .st214 {
        fill: #f1c6f8;
      }

      .st215 {
        fill: #9a6d96;
      }

      .st216 {
        fill: #fdf4fd;
      }

      .st217 {
        fill: #8878da;
      }

      .st218 {
        fill: #4a277e;
      }

      .st219 {
        fill: #ae70ea;
      }

      .st220 {
        fill: #af76e0;
      }

      .st221 {
        fill: #f9a1fb;
      }

      .st222 {
        fill: #47405f;
      }

      .st223 {
        fill: #53309b;
      }

      .st224 {
        fill: #0b0810;
      }

      .st225 {
        fill: #cb8dcc;
      }

      .st226 {
        fill: #f6c6f0;
      }

      .st227 {
        fill: #f4aaf7;
      }

      .st228 {
        fill: #fdb8fb;
      }

      .st229 {
        fill: #210e6c;
      }

      .st230 {
        fill: #c587c6;
      }

      .st231 {
        fill: #7934b9;
      }

      .st232 {
        fill: #5a547b;
      }

      .st233 {
        fill: #382b73;
      }

      .st234 {
        fill: #3e206a;
      }

      .st235 {
        fill: #e9a1f6;
      }

      .st236 {
        fill: #dea2e9;
      }

      .st237 {
        fill: #3c2692;
      }

      .st238 {
        fill: #be9edc;
      }

      .st239 {
        fill: #fbd0e3;
      }

      .st240 {
        fill: #f3dcf9;
      }

      .st241 {
        fill: #e8a2f0;
      }

      .st242 {
        fill: #bf91f1;
      }

      .st243 {
        fill: #f7ccfd;
      }

      .st244 {
        fill: #6c475d;
      }

      .st245 {
        fill: #4330a2;
      }

      .st246 {
        fill: #7e5c90;
      }

      .st247 {
        fill: #361f55;
      }

      .st248 {
        fill: #9762db;
      }

      .st249 {
        fill: #b16e94;
      }

      .st250 {
        fill: #5f4350;
      }

      .st251 {
        fill: #8847bf;
      }

      .st252 {
        fill: #b283ed;
      }

      .st253 {
        fill: #372a40;
      }

      .st254 {
        fill: #ba75e3;
      }

      .st255 {
        fill: #9267ca;
      }

      .st256 {
        fill: #8382cc;
      }

      .st257 {
        fill: #7f607e;
      }

      .st258 {
        fill: #f2abfb;
      }

      .st259 {
        fill: #7987e4;
      }

      .st260 {
        fill: #fdf2fd;
      }

      .st261 {
        fill: #252155;
      }

      .st262 {
        fill: #2e2c93;
      }

      .st263 {
        fill: #6b318f;
      }

      .st264 {
        fill: #4c409c;
      }

      .st265 {
        fill: #433a65;
      }

      .st266 {
        fill: #b17ad5;
      }

      .st267 {
        fill: #4a3667;
      }

      .st268 {
        fill: #302434;
      }

      .st269 {
        fill: #a980f0;
      }

      .st270 {
        fill: #7e61d3;
      }

      .st271 {
        fill: #7444c8;
      }

      .st272 {
        fill: #22125a;
      }

      .st273 {
        fill: #f8c6fb;
      }

      .st274 {
        fill: #642d7c;
      }

      .st275 {
        fill: #b996f1;
      }

      .st276 {
        fill: #c189dd;
      }

      .st277 {
        fill: #f5bffb;
      }

      .st278 {
        fill: #9c83c5;
      }

      .st279 {
        fill: #b46dab;
      }

      .st280 {
        fill: #390f39;
      }

      .st281 {
        fill: #5a3473;
      }

      .st282 {
        fill: #ba98dd;
      }

      .st283 {
        fill: #1a0b3c;
      }

      .st284 {
        fill: #bd83b5;
      }

      .st285 {
        fill: #9d8aba;
      }

      .st286 {
        fill: #8d4dda;
      }

      .st287 {
        fill: #6a489c;
      }

      .st288 {
        fill: #302338;
      }

      .st289 {
        fill: #bc97dc;
      }

      .st290 {
        fill: #3e318a;
      }

      .st291 {
        fill: #6d5168;
      }

      .st292 {
        fill: #c7b4df;
      }

      .st293 {
        fill: #f7bdf3;
      }

      .st294 {
        fill: #3b2c43;
      }

      .st295 {
        fill: #6745e6;
      }

      .st296 {
        fill: #c179a9;
      }

      .st297 {
        fill: #f2c9f7;
      }

      .st298 {
        fill: #2c233d;
      }

      .st299 {
        fill: #896e75;
      }

      .st300 {
        fill: #dfbdcf;
      }

      .st301 {
        fill: #0d042e;
      }

      .st302 {
        fill: #b278e3;
      }

      .st303 {
        fill: #d66da7;
      }

      .st304 {
        fill: #e6f7fc;
      }

      .st305 {
        fill: #f9cfdc;
      }

      .st306 {
        fill: #9951b1;
      }

      .st307 {
        fill: #c2a2f1;
      }

      .st308 {
        fill: #d1a5bc;
      }

      .st309 {
        fill: #a476a9;
      }

      .st310 {
        fill: #bb76f2;
      }

      .st311 {
        fill: #e5bae4;
      }

      .st312 {
        fill: #ecb5f9;
      }

      .st313 {
        fill: #271629;
      }

      .st314 {
        fill: #8c5bcd;
      }

      .st315 {
        fill: #9468a6;
      }

      .st316 {
        fill: #e7c4e6;
      }

      .st317 {
        fill: #221426;
      }

      .st318 {
        fill: #f6beee;
      }

      .st319 {
        fill: #c3cdee;
      }

      .st320 {
        fill: #ca82ba;
      }

      .st321 {
        fill: #1c1b4c;
      }

      .st322 {
        fill: #d176ed;
      }

      .st323 {
        fill: #fbe2fb;
      }

      .st324 {
        fill: #6c40ba;
      }

      .st325 {
        fill: #1f162a;
      }

      .st326 {
        fill: #a87cc7;
      }

      .st327 {
        fill: #c170e8;
      }

      .st328 {
        fill: #563b57;
      }

      .st329 {
        fill: #5d546f;
      }

      .st330 {
        fill: #b47586;
      }

      .st331 {
        fill: #9f64e4;
      }

      .st332 {
        fill: #4f3452;
      }

      .st333 {
        fill: #f0c2d7;
      }

      .st334 {
        fill: #42228b;
      }

      .st335 {
        fill: #0e0439;
      }

      .st336 {
        fill: #9f88d1;
      }

      .st337 {
        fill: #9653cd;
      }

      .st338 {
        fill: #976c8e;
      }

      .st339 {
        fill: #753db7;
      }
    </style>
  </defs>
  <path class="st34" d="M290.7,29.1c1.9,7-10.7,16.9-17.4,17.3-10,7.2-14,20.8-3.6,29.9-.2,1.8-.3,2.7-.6,4.5-4.5-.2-8.9-.2-13.3.3,6.4.8,12.7,1.3,19.1,1.8-7.1,3.2-10.6,21.6,1.8,19.7,1.2,1.3,1.8,2,2.9,3.3,1.6,4.9-4.4,9.7-9.6,7.4-.5,1.7-1.2,1.7-2,0-5.9,1.5-11.2,3.4-16,5.7-.7,4.4-4.9,5.1-12.2,2-7.1,5.2-18.1,8-26.8,8-16.7,6.9-26.8,1.7-14-14.6-2.3,3.6-4.4,6-8.6,4.8-.6,4.7-7.7,10-12.4,10.6-5.7,7.6-16.1,15.2-26.1,13.9-1.6-.3-2.4-.5-3.9-.8-16.1,9.7-12.7-6.5-9.1-15-2.7-4.5-2.3-10.4.8-17.8-32.1,17.8-58.4,47-79.2,76.8,20.5-15.5,43.3-27.9,66.8-38.2,2.8.3,4.2.4,7,.7,6.4-1.5,9.5-.6,9.1,2.8.5,2.3-.9,3-4,2.3.6,3.9-3,4.4-5.9,2.5-12.1,12.5-28.8,22.9-45.6,27.1-.4,4.9-9.6,14.3-13.8,10.5-18.6,13.8-37.9,26.8-58.9,37,.6.8.9,1.2,1.5,2,1.8,0,2.8.6,2.1,1.9-5.9,10.8-9.4,22.3-7,34.9-3.6,3.4-8.9,3.2-9.9-2.6-.3-4.4-.4-6.7-.5-11.1,2.5-2.7,2.5-5.5,0-8,.8-26.6,4.8-51.2,12.6-76.6,1.4-.9,2.1-1.4,3.5-2.4,5.4,1.5,10-1.3,16.4-7.7,7-6.3,15-12.2,23.1-16.9.6-1.2,1.2-2.5,2-3.4,10.3-12.4,29.4-22.2,44.6-30.8,2.4-.3,3.6-.4,6.1-.7,2.1-6.2,14.4-13.1,18.6-10.8,3.1-2.7,6.1-5.3,9.3-7.7,3.2-2.4,6.3-4.8,9.5-6.7,39.6-22.7,80.6-42.8,124.5-54.9,3-.8,6.2-1,9.3-1.1,3.2-.1,6.4,0,9.6.4Z"/>
  <path class="st34" d="M179.6,364.7c4.2,3,8.1,3.3,11.8.8,3.5-3.9,5.2-3.1,4.1,2.2,4.7,3,10.8,4.1,18.3,3,.7.8,1.1,1.1,1.8,1.9,4.8-1.9,6.9-1.2,6.1,2.2,3.6,4.2,9.6,6.4,18.2,6.3.8-1.3,1.2-1.9,2-3.2,10.2-.2,15.4-.4,25.6-.9-3,.4-4.2-.7-5.3-3.8-1.7-6,17.4-9,18.2-2.4,3.7,3.3,6.3,4.5,11.3,3.6,1,1.5,1.4,2.2,2.4,3.6,5.3-1,5.8,0,1.8,3.8,1,2.2.2,3.1-2.1,2.1-2.8,15.8-7.1,30-13.4,44.7.6.9.9,1.3,1.5,2.2-7.5,22.1-14.9,44.3-21.8,66.6-1.5.4-2.2.7-3.6,1.1-.6,0-1,0-1.6,0-3.5-2.6-6.6-4.8-11.5-6.4-13.8-10-28.6-17.1-46-16.5-10.9-.8-33.3-21.1-14.1-28.1-2.5-2.7-4.5-5.7-5.9-8.9,3.4-18.6-13.5-23.6-28.7-22.9-1.3-1.9-1.9-2.9-3.2-4.8,3.7-13.5,8.6-26.7,14.3-39.4-3.2-1.5-4.7-4-3.1-6.9-1.7-.7-1.8-1.3-.2-1.9.4-1.6,1-1.5,1.9.2,6.8-1.3,13.9-.9,21.3,1.9Z"/>
  <path class="st100" d="M454.1,330c-4.4,25.9-12.7,48.6-25.1,71.6-3.4,1.6-3.6-.9-.7-7.8-4.5,7.6-10,12.5-16.6,14.5-8,8.4-16.2,16.6-25.8,23.2-5.6,11.3-15.2,19-25.5,26-7.9,5.1-15.8,10.2-23.8,15-10.1,8.3-21.3,15.3-33.5,20.2-4.2.9-6.4,1.3-10.7,2.1-3-2.1-.5-5.1,2.7-8.2,8.3-6.2,14-14.9,17.3-24.7,1.5-.7,2.3-1.1,3.8-1.8,4-5.5,8-11.2,12.1-17.2,18.3-8,42.1-22.5,45.7-44.1,12.6-12.1,1.3-10.4-8.4-8.5-2.8,3.6-21.9,20.1-18.7,8.8,1.8-6.4,11.8-21.6,20.6-23.2,1.3.3,2,.4,3.2.7,5.8-6,8.7-9,14.5-15,1.6,0,2.3.1,3.9.2,2.9-2.8,3.7-2,1.5,1.5.3,2.9-1.5,6.7-5.4,11.4,6.5-5.9,12.3-9.8,17.5-11.9-1.4-2.1.2-4.4,4.9-6.9,2.4-13.2,20.1-10.7,14.8-.4-5.5,4.9,2.2,20.8,3.9,20.2,4.8-1.7-3.1-15.8-5.5-16,.7-1.7,1-2.5,1.7-4.2,2.9-4.4,6.9-8.9,12.2-13.3,5.7-7.1,11.8-17.6,20.6-20.9.8,2.9.4,5.8-1.2,8.6Z"/>
  <path class="st60" d="M156.6,364.5c.4.2,6.2,5.4,6.3,5.7,3,8.7-3.7,9.5-5.5,14.3-1.2,3.1-.4,7.3-1.4,9.8-2.3,6.1-8.8,11-6.8,19.3,11.3-2.4,29.4,1.6,31.4,14.9.6,3.6-1,6.9-.1,10,1,3.4,5.8,6.9,6.2,9.9.8,5.5-15.2,3.1-3.7,17.4,9,11.2,27.4,4.7,39.2,9.8,3.8,1.6,5.6,5.2,8.9,7.1,3.9,2.2,10.5,6,13.5,7.5,4.6,2.2,10-.9,10.1,8.3-1.9,0-2.9,0-4.8,0-10.6-4.2-20-10.2-29.5-16.3-18.5-1.6-35.8-4.9-53.6-10.2-12.6-4.7-51.4-22.4-36.9-40.9-2.8-6.5-5.6-12.9-10.1-19.5-2.8,1.4-3.4-.6-4.2-4.2-2.4,1.3-4.6-1.3-6.7-8-18.6-23.7-9.2-34.5,18.8-25.8,10.5,1.3,18.7,0,25.1-7.7-1.5-5.2-.6-5.5,3.6-1.5Z"/>
  <path class="st215" d="M25.5,229.6c.6,1.3.8,2,1.4,3.3-6.9,10.1-10.5,22.3-10.2,34.6,1.8-2.3,3.4-3.5,6.8-2.1.9-.4,1.3-.6,2.3-1,4.2-7.7,12.1-15.7,20-19.7,4.5-5.5,6.2-3.8,5.3,5.4,2.9,5.5,2.4,8.5-1.7,9.1-.3,3.9.7,7.8,2.8,11.6-1.2,21.8,13.2,40,31.1,50.6,1,2.1,1.5,3.2,2.5,5.3,9.7,5.1,2.9,21.4-5.7,18.1-6.8,5.1-10.7,6.8-18.5-4.3-3.2-9.3-10.9-23.5-22.8-16.9-2.1,4-9.3,5.6-12-1.9-3.4-2.4,4-6.7,3.7-6.4-5.2,6.3-10.7,10.1-16.8,11.7-6.4-19.3-9.6-39.1-11.5-59.3,13.1,6.1,5.7-14.4,6.2-19.7.2-2.5,8.9-9.2,8.5-14.5-.4-4,6.1-6.8,8.6-3.8Z"/>
  <path class="st199" d="M303.1,492.8c5.6-8.3,16.1-10,23.9-15,3.6-2.3,6.2-5.9,9.6-8.1,13.4-8.6,28.1-16.3,39.8-27.3,4.7-4.4,3.8-7.1,7.4-11.4,2.6-3.2,9.3-6.9,12.9-10.2,3.9-3.6,12.1-12.8,14.8-14.7,3.6-2.5,8.1-3.4,9.2-4.5,1-.9,2.9-7,7.7-10.2,10.6-7.2-1.1,7.4.7,10.1,2.7-3.1,2.8-2.1,2.1,0,1.1-.4.8.1-.7,1.4-1.6,2.6-2.4,3.4-2.3,2.4-5.2,12.7-12.8,24.3-21.2,35.1-.6,0-.9.1-1.5.1,5.9-9.7,4.9-10.8-1.9-2.2-12.9,10.1-25.8,19.2-40.2,27.2-4.7,3.9-9.4,7.9-13.8,12-14.9,6.6-30.5,11.5-46.4,15Z"/>
  <path class="st41" d="M234,2c.8.3,1.2.4,2.1.7.4,4.4,0,9.1-1.1,14.1,0,2.4-2.2,3.1-6.7,2.1-2,2.1-4.1,4.4-6.9,5.6-16.7,7.2-33.5,14.5-50.1,21.9-3.1.4-4.7.6-7.8,1.1-1.3,3.7-3.3,4.7-5.2,2.9-11.2,9.3-22.7,18.6-36.9,22.9-1.3,4.2-9.2,9.4-10.4,6.3-2.8,2.2-3.3,2-1-1,15.7-19.1,31.3-38.3,46.7-57.7,1.4-1,2.2-1.6,3.6-2.6,24.3-8.7,48-13.9,73.7-16.2Z"/>
  <path class="st266" d="M111.9,436.4c3.6,1.9,5.6,1.9,6.2,0,2.8.2,5.3,3.6,7.7,10.2,11.9,18,36.2,27.7,56.4,32.6,10.5,2.4,15.8,3.3,26.7,4.7.9.8,1.3,1.2,2.2,2,1.4.7,1.5,1.2.2,1.6-1.2.9-1.7,1.3-2.9,2.1-35.9-.7-64.4-19.1-93.1-39.2,4.7,6.4,7,10.7,7.2,12.8-11.5-6.9-22.5-14.8-32.8-23.5-1.1-1.2-2.2-2.3-3.1-3.4-6.7-7.7-12.3-17.6-14.1-27.9-3.1-4.4,4.3-3.3,7.6-1.8,12.3,5.7,23.6,18.3,31.8,29.6Z"/>
  <path class="st93" d="M495.6,212.2c6.1,47.8.4,92.8-17.9,137.4-1.4.7-2.1,1-3.5,1.7-2.6-15.8,2.1-35.5,3-51.7,1.4-3.4,2.1-5,3.5-8.4-1.3-1.3-2-1.9-3.3-3.2,0-21.3-.3-42.6-2.2-63.7-.3-3.7-.3-6.3,3.2-7.7.1-2.8.2-4.2.2-7-4.6-11.6,14.3-3.8,17,2.5Z"/>
  <path class="st338" d="M153.3,21c1.5,1.8-1.2,5.7-4.9,7.1-20.6,26.3-43,51-67.9,73.3-1.1,1.9-1.6,2.9-2.7,4.8-14.6,13.9-31.2,28.2-49.1,37.6-1.3-.1-2-.2-3.3-.2,2.8-6,4.4-8.9,7.6-14.7,1.3-1.4,1.9-2.1,3.2-3.5,37.5-29.6,71.7-62.4,104.1-97.5,1.4-1,2.1-1.5,3.4-2.5,3.8-1.8,5.7-2.7,9.6-4.3Z"/>
  <path class="st323" d="M465,367c3-.6,3,2.2-.1,8-2.4,4.1-3.7,6.2-6.3,10.2-16.2,16.1-30.9,33.4-45.1,51.2-1.7,1.8-2.6,2.6-4.3,4.4-.5.4-.7.6-1.1,1-.6-.5,5.3-8.9,9.4-13.7,2.7-8.6,7.8-17.6,12.9-24.9.2-.5.5-.9.7-1.4,5.7-16,12.4-31.6,19.3-47.1.6-1.8,1.4-3,2.6-3.5,6.9-9.6,13.2-4.3,11.2,2.8.6,5.6.8,8.2.7,13.1Z"/>
  <path class="st142" d="M138.2,28c-14.1,19.2-31.8,35.8-49.1,52-16.1,15.1-32.6,30.2-50.4,43.3-1.3.9-2.4,1.4-3.6,1.7,2.7-4.7,4.1-7,7.1-11.5,2.3-2.6,3.4-3.9,5.7-6.4,22.6-21,44.9-42.4,66.7-64.2,3.1-2.5,4.6-3.7,7.7-6.2,6.2-3.7,9.3-5.4,15.8-8.7Z"/>
  <path class="st158" d="M304.2,440.2c8.4,0,17.9,12.3,12.2,20-.2,1.1-6.6,14.9-7.7,16.5-4.4,6.9-13.2,11.2-16.2,18.1-8.6,1.5-12.9,2-21.8,2.8-.1-10.8,7-20.3,15.7-26,3.3-6.8,5-10.2,8.5-17.2-8.1-4.1-8.5-12.9.9-18.6,3.8-3.5,10-.5,8.4,4.4Z"/>
  <path class="st135" d="M406.4,57.8c0-.3,0-.5.3-.3,11.4,9.4,22.6,21,33.2,32.1.8.9,1.2,1.4,1.9,2.3.2.8,1,2.3,2.6,4.5-.8-.4-1.2-.6-2-.9,3.1,2.9,3.5,4.1.5,1.6.4,2.8.5,5.8.1,9.1-1.6-1.2-2.5-1.8-4.1-3-2.7-3-4.9-6.5-6.9-10.3-7.8-6-15.2-12.9-20.3-21.4-4.5-5.4-8.7-11.2-11.5-17.7,2.6-.2,4.7,1.1,6.1,4.1Z"/>
  <path class="st216" d="M458.5,385.2c-9.9,14.6-20.6,27.8-32.8,40.5-6.3,6.3-9.6,9.3-16.5,15.1,6.6-8.5,13.3-17,20.1-25.2,8.8-10.6,18-22.2,29.3-30.4Z"/>
  <path class="st40" d="M211.2,487.6c4.4-.8,6.4,7.2,2.5,8.3-32.7-5.6-62.4-16.2-91.3-32.6-6.2-8.7-17.6-22.1-3-12.6,3.5,2.3,6.5,5.5,9.2,7.3,25.8,16.8,51,27.7,82.5,29.6Z"/>
  <path class="st290" d="M111.1,43.9c-4.7,8.7-14.2,16.2-22.3,21.7-11.7,11.3-23.5,22.6-35.2,33.9-.7.2-1.1.3-1.8.6,7.2-9.1,14.5-17.4,22.5-25.8,11.3-11.2,23.5-21.5,36.8-30.3Z"/>
  <path class="st174" d="M406.9,440.6c0,.6-1.6,2.8-3.5,4.9-17.1,12.8-34.6,23.3-53.9,32.3,7.2-11.6,19.1-17.1,30.4-23.6,7.7-4.5,4.9-2.9,12.3-8.5,3.2-2.4,6.2-3.5,9.8-6.9,2.8-2.6,13.4-16.3,9.8-6.8-.8,1.9-3.3,6.3-4.8,8.7Z"/>
  <path class="st269" d="M477.8,349.5c-3.7,8.7-8.1,17.3-13,25.5-.3-2.1.4-5.3.1-8-.6-7.2-.5-16.4-.5-26.8,0-10.6,1-21.9,5.4-31.7.4-1.9.5-2.9.9-4.9,1.8-8.2,5.1-12.4,10.1-12.4-.4,15.3-.9,30.7-2.7,45.9-.5,4.3-2.1,10.3-.3,12.4Z"/>
  <path class="st77" d="M297.8,381.7c7.2,10.8,1.8,25.5-3.4,35.9,4.5,8,4.8,13.9,1.4,18.2-.3,4.6-3.9,8.7-3.9,10.2,0,3.3,7,4.9,7.4,5.5.6,1.2-8.8,19.6-10.3,21.8-1.7,2.5-7.9,5.8-10.7,9.8-3,4.2-4.4,10.3-7.4,14.5-1.3.1-1.9.2-3.2.2-1.1-.9-1.6-1.3-2.7-2.2,5.6-19.2,11.6-38.3,17.5-57.4,1.6-3.1.7-5.4-2.8-7.1,6.4-15.6,11-30.8,14.2-47.3.7-.6,1.3-1.7,2.1-2.1.7-1.7,1.4-1.8,2-.1Z"/>
  <path class="st48" d="M80.1,344.7c4.9,6.3-6.7,12.8-11.4,11.7-3.6-.9-18.2-7.7-16.3-12.7-2.5-3.6-1.7-5.1,2.1-4.1-.5-3.6-.8-7.3-.9-11.2-2.1-2.5-11.7-2.6-11.1,4.2,5.1,11.8-.3,13.4-9.5,11.8-4.3-.7-14.6-3.9-16.4-8.9-.8-2.3-1.2-3.4-2-5.7,2.2-3.3,6.8-8.1,12.2-8.2,9.7,6.3,8.6-5,18.5-2.1,13.2,3.9,18.9,32.9,34.8,25.2Z"/>
  <path class="st128" d="M71.6,117.8c.1,1,.2,1.6.4,2.6-7.3,8.2-10.9,12.3-18.1,20.4,1.2,1.5,1.9,2.3,3.2,3.9-6.3,4.8-15.1,13.4-21.2,18.2-8.4,6.7-16.1,12.2-21.9,8.8,1.2-3.5,1.8-5.2,3-8.6,1.2-.7,1.6-1.6,1.1-2.8,1.1-2.8,1.7-4.2,2.8-7,4.6-5.6,10.5-10.8,17.7-12.1,1.8,2.9,1.3,5.7-1.6,8.6,1,0,1.4,0,2.4-.1,1.5.3,1.8-.7,1-3-3.7-1.6,4.6-11.1,9-15.4,4.6-4.5,17.6-15.5,20.9-14.5,2.9-2.8,3.4-2.2,1,1Z"/>
  <path class="st116" d="M293.8,383.9c-.5,12.4-1.6,22.4-5.7,33.6-1.2,3.4-5.4,7.3-6.2,9.6-1.6,4.9,5.1,1.7,5.3,2.3,5.4,13.1-14.6,46.5-19.7,68.5-4.4.3-6.7.4-11.1.5,11.7-38.4,24.6-76.5,37.4-114.6Z"/>
  <path class="st317" d="M100.1,87.5c-8.9,10.6-18.7,20.6-29.5,29.3-10.9,9.6-23.2,16.5-29.9,29.9,2,.6,2.1,1.5-1,3-.2.3-1.8,1.5-2.3,2.8-2.4,5.6,3.4,7-8,6.9.2-2.4,3.3-1.5,3.9-3.2,1.2-3.3.9-8.3,5-13.9-7,4.4-10.4,6.6-17.2,11,1.7-3.9,2.5-5.8,4.3-9.6,20.3-11.3,37.6-27,55.1-42.2,6.4-5.8,9.6-8.8,16-14.6,1.1-.1,1.6-.2,2.7-.3,2.9-2.8,3.4-2.3,1,1Z"/>
  <path class="st189" d="M16.6,335.4c7,3.7,16.5,7.5,22,6,6-1.7.4-5.9.5-10.9.1-6.9,6-7.9,13.8-5.4.5,1.1.2,2.4.7,3.3.4,4.1.7,7.8.9,11.2-.7,1.4-1.4,2.8-2.1,4.1,0,4.1,3.1,7.1,9.1,9.2,6.9,1.2,14,8.3,5.5,5-8.1,7.2-19.1,1.2-27-4-6.3-1.4-9.3-2.1-15.3-3.7-1.5-1.4-2.2-2.1-3.7-3.4-1.9-4.5-2.8-6.7-4.4-11.3Z"/>
  <path class="st221" d="M41.7,382.9c3.3-4.4,16.6,12.6,16.5,16.9,1.8,1.8,2.6,2.7,4.4,4.5,4.4,6.3,15.9,25.4,11.9,21.6-1-1-2-2-3.4-3.3-11.7-12.2-22.4-25.5-31.3-39.9-.8-1.9-1.1-2.8,1.9.2Z"/>
  <path class="st109" d="M250,498.5c-3.2,0-4.8,0-8-.1-5.7-1.7-10.3-4.3-14.8-9-2,2.2-3,1.1-1.7-1.8-.9-.8-1.4-1.2-2.3-2-21.7-2-41.7-6.4-62.3-13.4-14.9-6.5-41.7-20.1-38.6-40.2-5.5-7.6-6.1-8.9-1.6-12.1-2-4.1-2.3-6.9-.7-8.4,5,6.1,12.5,14.7,13.4,21.2.5,4-10.9,5.5-.2,16.7,22.1,23.3,57.1,29,87.7,31.2,9.7,6.1,19.4,12.1,29.2,17.9Z"/>
  <path class="st204" d="M143.6,25.4c-33.4,38.1-70.2,73-110.7,103.6.9-1.6,1.3-2.4,2.2-3.9,37-29.5,71-62.1,103-97,2.2-1.1,3.2-1.6,5.4-2.6Z"/>
  <path class="st168" d="M122.4,36.7c-26.2,26.2-52.9,51.8-80.1,76.8,2-3,3-4.5,5.1-7.4,1.6-1.8,2.4-2.7,4-4.5,12.5-12,25-24,37.4-36,7.5-7.1,15.4-13.9,22.3-21.7,4.5-3,6.7-4.5,11.4-7.2Z"/>
  <path class="st222" d="M396.3,49.1c.9,1.2,1.3,1.9,2.2,3.1-2,.7.5,6.2,8.3,15.8-.4.4-.6.6-1,1,9.1,7.8,8.9,14.6,0,6.3-.4,2.4-2.3.7-3.5-2.8-1.4-1-1.6-1.5-.7-1.4-1.5-3.3-2.3-5-3.9-8.2-11.4-9-22-18.9-31.8-29.5-.6-1.6-.9-2.4-1.4-3.9,11.1,5.8,21.7,12.4,31.8,19.7Z"/>
  <path class="st288" d="M364.5,29.4c10.3,12.1,22.3,22.6,34.4,32.8,2.5,3.7,8,12.1,2.8,8.8-.5.5-1.7,0-3.1-.9-12.9-12.6-25.8-25.3-38.5-38.1-3.9-1.9-5.9-2.8-9.8-4.5.7,3.8-1.7,2.6-4.3-1.7-7.5-1.5-11.4-2.1-19.4-2.8-.4-1.2-.6-1.7-.9-2.9,3.1-2,6.9-3,11.3-3,9.4,3.4,18.8,7.6,27.6,12.3Z"/>
  <path class="st305" d="M488.6,180.5c2.8,10.6,5.1,20.9,7,31.7-6.7-2.6-10.1-4-17-6.8,2.3,4.3-.2,8.9-.2,11.2-5.9-2.9-5.4-13.6-3.2-17.5-1.1-7.6-.5-13.3,2-16.9-3.1-2.6-2.1-2.8.8-2.7-1.9-4.3.5-3.5,3.9-2,.1-4.3,5.1-1.8,6.7,3Z"/>
  <path class="st42" d="M336.9,17.1c1.1,3.3-.6,3.4-2.6,3.9-2.1.6-6.6-1-6.5,1.4,7.5,1,11.2,1.7,18.2,3.4-.2,1.1-.3,1.6-.5,2.8-7.5-1-11.3-1.2-19.4-1.4-1.5-1.3-2.2-2-3.7-3.3-2.2-2-5.3-2.9-9.5-2.5-10.9-1.8-16.4-2.5-27.8-3.2-2.6-.6-8.1-6.1-6-8.6.3-1.6,1-2.7,2.4-3.2,10.1,0,15.1.4,24.6,1.5,10.4,2.7,20.7,5.4,30.7,9.2Z"/>
  <path class="st178" d="M61.2,398.8c-.3-1,.2-.7,1.4.7,4.8,3.8,6.4,6.8,3.8,6.7,1.6,1.8,2.5,2.7,4.1,4.4,2.5,5,4.9,9.6,7.2,13.8,2,3.6,5.6,9.6,4.1,8.5-3.1-2.8-4.6-4.3-7.5-7.2-1.3-1.3-1.9-1.9-3.1-3.2,3.2,3.1,1,.8.4,0-2.8-4.1-6.9-12.3-13.4-22.7-2.3-4.1-3.3-7.2,3.1-1Z"/>
  <path class="st138" d="M89.6,439.8c-3.2-2.7-4.8-4.1-7.8-6.9-4.3-4.9-4.4-6.4-6.9-10.8-2.5-4.3-5.9-10.5-8.5-15.9-1.2-3,2.3-1.5,6,2.4,2.9,3.1,2.9,4.4,3.6,6.3,3.3,8.4,7.9,17.7,13.6,25Z"/>
  <path class="st31" d="M306.1,7.9c-7.5,1.8-17.7,1-27,1.7-.4,1.4-.9,1.3-1.6-.2-7.5,3.7-16.7,6.8-25.9,3.6-13.4,4.1-13.8-6.6-4.9-11.5,20.1.2,39.7,1.8,59.3,6.3Z"/>
  <path class="st4" d="M405.8,56.4c8.4,6.7,12.4,10.3,20,17.9,5.9,5.9,8.7,9,14.1,15.4-11.2-10.5-22.4-21.1-33.5-31.8-3-2.9-2.4-2.7-.6-1.5Z"/>
  <path class="st122" d="M66.9,357.8c4.9,3.3,4.9,6.5-.3,4.4,4.1,4.8.2,5.8-3.9,1.8-3.4.6-6.1,1.9-8.2,3.8-.9-.6-1.4-.9-2.3-1.5-1.2.1-1.8.2-2.9.3-7.9-5.8-15.2-7.9-21.5-9.6-1.5-1.4-2.2-2.1-3.7-3.4-1.3-2.7-1.9-4.1-3-6.9,5.7,1.4,13,2.1,19.1,4.5,7.3,2.9,18.7,12.7,26.8,6.6Z"/>
  <path class="st85" d="M473.3,140.9c4.8,9.7,6.9,14.8,10.6,25.1-3.2.9-14-6.8-13.2-10.5-7.1-2.6-13.2-18.5-9-19.3-4.1-9.7,6.2-2.8,11.6,4.7Z"/>
  <path class="st36" d="M405.8,56.4c0,.2.8,1.6.6,1.5-1.2-.5-4.7-4.1-3-.4,1.5,3.2,7.1,8.7,8.3,14,1.4,2.3,1.8,3.4.9,3.3-1.1.7-3.4-1.2-6.9-5.7-8-11.5-14.1-19.8-9.5-19.9,3.9,2.8,5.8,4.3,9.5,7.3Z"/>
  <path class="st184" d="M470.7,155.5c2.6,2.7,10,7.2,13.2,10.5,2.1,5.7,3,8.6,4.7,14.5-1.8-1.7-5.9-2.4-6.7-3-3.5-1.4-8.5-2.9-3.9,2-.4.4-.4,2-.8,2.7-1.7,2.2-2.8,2-3.2-.7-6.6-6-8.9-18.4-10.2-27-.2-5.2,1.7-5.3,6.8.9Z"/>
  <path class="st7" d="M52.2,366.3c2.2,2.8-.3,7.2-3.2,5.2,0,1.6-.7,3-3.2,1.1-3.5.7-15.2-6.9-18.5-12.2-1.3-2.7-2-4.1-3.3-6.8,10.8,2.2,18.9,6.8,28.1,12.7Z"/>
  <path class="st161" d="M160.3,18.2c-16.1,20.7-32.5,41-50.3,60.3-1.1,2.6-7,7.7-9.9,9-.4-.4-.6-.6-1-1,.5-1.4.7-2.1,1.2-3.5,16.9-17.6,32.9-35.8,48-54.9,1.5-2.5,2.6-4.6,4.9-7.1,2.8-1.2,4.2-1.7,7-2.8Z"/>
  <path class="st233" d="M88.8,65.6c-13.7,13.6-26.7,28.1-41.4,40.5,1.7-2.4,2.6-3.6,4.4-6,12.7-11.1,23.9-23.9,37-34.5Z"/>
  <path class="st71" d="M460.7,122.9c.5-1.3,2.4.3,5.6,4.7,3,5.2,4.4,7.9,7,13.3-4.5-3.2-6.8-4.8-11.3-8,0,1.3-.2,2-.3,3.4-7.3-5.1-12.8-23.6-1-13.3Z"/>
  <path class="st110" d="M45.8,372.6c.7,4-4,8.4-9.9,3.7-3.7-6.2-5.4-9.4-8.6-15.8,7.3,4.8,11,7.3,18.5,12.2Z"/>
  <path class="st238" d="M430.4,403.1c-3.9,8.4-8,17-12.9,24.9-3.8,4.9-7.3,9.8-10.8,14.6-.9.8-1.3,1.2-2.1,2-.5.4-.7.6-1.2.9,1-1.4,2.7-3.6,3.5-4.9,6.9-10.3,12.5-20.5,18.2-31.4,1.4-2.7,1.4-4.9,5.3-6.2Z"/>
  <path class="st226" d="M225.4,487.6c.3.2,1.3,1.3,1.7,1.8,4.7,1.8,8.1,5.4,3.7,8.4-6.9-.5-10.4-.9-17.2-1.9-1-3.3-1.5-5-2.5-8.3,0-.7-.1-1-.2-1.6,1.5-3,11-2.1,14.4,1.7Z"/>
  <path class="st330" d="M246.8,1.5c-1.3,4.6-2,6.9-3.4,11.6,3.3,0,5,0,8.3,0-4.6,3.1-11.9,7.6-16.7,3.7-5-4.5-1.3-9-.9-14.7,5.1-.3,7.6-.4,12.7-.5Z"/>
  <path class="st49" d="M449.8,109c-5.5-10.2,0-5.8,6.3,3.9,1.6,1.5,3,2.8,4.1,4.5,2.6,4,3.8,6.1,6.2,10.3-2-1.2-3.8-3.2-5.6-4.7-6.6-2.7-10.2-6.1-10-10.7-4.5-3-4.9-5.5-1-3.2Z"/>
  <path class="st243" d="M46.3,378.4c2.1,4.2.4,5.8-4.6,4.5-.7-.2-1.2,0-1.9-.2-1.6-2.5-2.4-3.8-3.9-6.4,4.5.7,6.7-1.5,9.9-3.7,1-.7,2.5-.7,3.2-1.1,6.3,5,3.1,11.2-2.8,6.9Z"/>
  <path class="st265" d="M442.4,95.5c.4-1.6,3.7,1.8,9.4,10.4,1.4,1.6,2.1,2.4,3.4,4,2,3,3,4.5,4.9,7.5-6.4-4.3-6.6-6.7-9.6-11.1-3.8-2.8-1,.9-.7,2.8-6.3-5.1-7.9-10.9-6.9-11.9-.2-.3,0-.8-.5-1.6Z"/>
  <path class="st129" d="M441.8,91.9c5.7,6.9,8.4,10.5,13.5,17.9-7.1-5.6-7.9-11.5-12.8-14.3-1.3-2.4-5.1-7-.6-3.6Z"/>
  <path class="st115" d="M417.5,428c-3,4.8-5.4,8.8-9.4,13.7-1.4,1.1-2.1,1.7-3.5,2.8,4.7-6.3,6.9-9.5,11.2-16.1.7-.2,1-.2,1.7-.4Z"/>
  <path class="st284" d="M13.6,326.8c4.5-1.1,11.2-11.1,15.4-12.3.6-.2,2.6,0,2.6,1.2-2.4,1.3-3.3,4.3-4.9,5.8-3.6,3.6-8.4,5.8-12.2,8.2-.4-1.2-.6-1.7-1-2.9Z"/>
  <path class="st89" d="M242,498.4c-4.5-.1-6.7-.3-11.1-.6-.7-2.5-2-6.4-3.7-8.4,4.7-.9,11.8,5.4,14.8,9Z"/>
  <path class="st104" d="M18.2,160.3c4.5.5,6.8.9,11.7,1.7-5.3,10.5-8.8,1.8-12.8,1.1.4-1.1.6-1.7,1.1-2.8Z"/>
  <path class="st215" d="M1.5,248.4c7,.8,7,7,0,8,0-3.2,0-4.8,0-8Z"/>
  <path class="st94" d="M279.1,9.6c2.5,2.2,3.8,3.4,6.4,5.6,10.2.5,21.1,1.3,30.9,4.1,3,.9,5.8,0,6,4.5-8.7,6.7-21.4,8-31.7,5.1-58.3,11.4-111.6,40-162.2,70-.2-3,1.7-6.6,5.6-11,7.3-14.3,17.5-30.8,30.3-40.1.1,0,0,1.8-.8-.5,21-11.3,42.1-21.1,64.8-28.6,6.3,1.4,12.1.5,17.1-2.8,11.1-.9,21.9-2,32.2-6.6.5,0,1.1.2,1.6.2Z"/>
  <path class="st239" d="M350.2,27.5c1.8.3,4.6,1,6.3,2.5,10.4,8.6,20.5,21.6,30.3,32.8.4,1.3.6,1.9,1,3.2,2.2,1.9,3.1,3.1,2.7,3.6-10.4,1.8-22.3-4.7-28.4-12.9-1.6,6.6-9.2,7.7-22.3,3.3-6.5,2.7-9.9,4.2-17,7.5-1.7-.9-2.6-1.3-4.3-2.2-1.9,3.8-4,5.9-6.2,6.1.8,2.8-1.1,8.1-4.6,6.6-6.1,2.6-19.8,2.6-25.2-2.9-3.3-.7-4.9-1-8.2-1.6-3.5,4-7.3.2-9.8-4.1-5-8.6,2.2-18.4,8.5-23.1,4.9-7.2,12.5-11.6,17.4-17.3,10.3-2.3,21.2-5,31.7-5.1,6.2,0,18.1.6,23.6,1.9,1.1.3,3,1.1,4.3,1.7Z"/>
  <path class="st162" d="M134.4,149.2c-18.3,8.1-36.8,16.6-53.2,26.8-7.9,4.9-20.5,17-23.6,16.6-2.8-.4,8.5-18.8,12.5-23.7,20-24.2,44.2-50.6,73.3-64.4,3.4-.7-4.3,17.8-3.7,18.3,2.2-.3,3.3-.5,5.5-.8-2.3,3.5-7.8,19.3-6.3,21,1.2,1.3,12.2-6.8,13.1.5-3.5,4.9-9.4,6.7-17.5,5.6Z"/>
  <path class="st38" d="M252,118.8c1.2-2.9,4.7-3.3,6.1,0,3.2-.8,4.8-1.2,8-1.9,3.9,14.3-9,17.5-20.2,17.8,7.8,6.1,7.3,7-2.5,7.5-.7,1-1,1.5-1.7,2.5.6.7,1,1.5.9,2.1-4.9,19.2-70.9,20.4-90.9,21.8,2.5,2.6,1.2,3.8-2.1,2.1-2.4,4-4.7,5.4-8,2.5.1,2-.2,2.9-2.1,2.1-5.1,6.3-7.5,8.4-11.6.9,0,5.3-.3,5.4-4,2.3-.7,5.8-4.8,8-12,6.7,1.9,5.3-6.8,8.7-9.8,4.6-5.9,3-5-1.9-1.6-6.1,6.9-8.4,25.3-19.1,37.9-18,3.2-3.1,4.9-8,.7-8.7.2-1.1.2-1.7.4-2.8,1.4-.7,2.7-1.6,4-2.3.2-1.2.3-1.7.5-2.9,11.5-4.8,22.6-9.9,33.7-15.5,2.3-4.7,9.9-11.5,8.1-4.5,1.3,5.1-.9,9.7-3.7,14.5,8.6-1.5,19.9-3.7,25.7-10.4,11.6-2.5,22.9-4.4,34.7-5.9-2.8-1.5-3.8-3-2.7-6.4,4.1-.5,8-1.7,12.2-2Z"/>
  <path class="st15" d="M121.4,73.2c11.6-5.9,2.5,5.8-5,11-2.1,4.7,4.1,2.9,7.5,1,1,.5,1.5.8,2.6,1.4,1.4,5.6-8.5,14.2-14.5,18.9-.9,1.7-1.3,2.6-2.2,4.3-17.9,11.1-35.9,22.1-52.7,34.9-2.7,1-4,1.5-6.7,2.5,1-2.3,1.5-3.4,2.5-5.6-3.1,4.3-4.7,6.4-7.7,10.7-2.1-8.6,19.5-27.2,26.4-34.5,12.2-13.4,24.8-27.3,39.4-38.3,2.4-1.9,7.6-4.4,10.4-6.3Z"/>
  <path class="st294" d="M190.5,119.1c6.9-8.6,13-18.3,20.8-26.2.3,14-12.6,24.4-15.7,37.4,14.7-5,28.9-7.6,44.3-9.5,4,2.3,6,3.5,10.1,5.9.5.5-1.2,2.7-2,3-12.2,4.7-27.7,2.9-40.8,7.9,3.9,2.2,5.9,3.3,9.9,5.6-15.6-1.8-27.3,2.6-42.3,6.1,3.6-6.8,7.4-13.7,11.2-20.3.6-3.2,2.2-6.5,4.6-10Z"/>
  <path class="st224" d="M88,183.9c9.7-4.9,6.4,4.1,1.3,10.1,2.7.2,4.6.6,4.7,4.1-1.4,10.9-10.3,20.2-17.6,27.7-4.8,6.7-9.4,9.2-14.1,7.5.4-3-1.3-4.1-5.3-3.5-6.1,1.9-6-3.4,1-16.2-.1-4.3,3.2-8.1,10-11.5-1.4-2.2.7-4.7,6.2-7.8,4.9-3,9.2-7.6,13.8-10.5Z"/>
  <path class="st325" d="M163.5,47.4c5.8-1.7,2.2.3,0,3.1-4.6,6-11.8,13.6-15.6,19.1-6.7,9.6-10.8,21.1-19.6,29.4-6.2,3.7-13,7.3-18.6,10.8-4.3-4.9,4.5-8.6,7.7-12.2,3.1-3.5,5.9-7.4,9-10.9,6.9-14.5,19.6-26.2,31.8-36.3,1.7-1,3.5-1.9,5.2-2.9Z"/>
  <path class="st88" d="M133.6,156.8c7.3,0,14.3,1.1,4.8,9.1-10.4,5.3-21.1,10.3-30.6,16.4-.9.6-9.3,6.5-5.7,7.7,3,4.2-3.9,10.8-8.2,8.2-4.5,0-6.7,0-11.1,0-1-1.9,14-16,5.1-14.1,14.9-9.4,29.7-19.3,45.6-27.1Z"/>
  <path class="st249" d="M273.3,46.4c-6.2,8.2-11.3,21.5,1.3,27.1,8.4,3.1,16.9,5.1,25.4,6.1,1.2,1.3,1.8,2,3,3.3,2.8,5.2.7,9.3-5,6.9-5.4-.8-37.4,1.6-15.3,7.5.3,1.9.5,2.8.8,4.7,3.3,4.5,1.3,6.3-3.7,3.7-16.9,6.4-18.8-18-4.8-23,2.2-.3.2-1-5.8-2.1-11.4-10.1-12.9-28.8,4.1-34.3Z"/>
  <path class="st69" d="M74.2,194.3c-1.9,2.7-4.2,5.1-6.2,7.8-6,4.2-11.1,8.1-15.3,11.9-.1,5.4-4.8,7.1-9.5,7.8-5,2.4-7.5,3.5-12.4,5.8,0,4.7-2.2,5.1-5.2,2-3.4,1.1-6.8,3.2-8.6,3.8-2.5.8-12.6,3.9-13.2.7,22.3-9.9,42.4-23.4,63-36.3,2.6-1.7,5.8-2.2,7.6-3.3Z"/>
  <path class="st234" d="M300.9,105.1c5.6,3,2.4,9.2-3.3,9.3,3.5,4.3-3.6,24.9-9.1,15.1-1.4-1.2-2.1-1.8-3.5-3,1.6-10.9-.8-14.6-8-4.6-1.9-.4-2.9-.5-4.8-.9.4,13.4-16.2.9-.3-6.9.2-.1-2.3,4-1.9-1,5.1-1.4,6.9-5.4,9.6-7.4,1.2-.9,3-3.4,3.7-3.7.5-1.7,1.2-1.6,1.9,0,10.4-10,15.3-8.9,15.5,2.9Z"/>
  <path class="st127" d="M269.1,80.7c3.7.2,7.6.2,11.3.5,0,.7,0,1.1,0,1.8-1.9,0-3.8-.2-5.7-.3-11.8-.2-23.7-.6-35.6-.5-26.9,2.7-53.2,6.9-79.5,12.5,5.7-2.2,8.5-3.3,14.2-5.4,31.8-7,62.9-10.2,95.1-8.7Z"/>
  <path class="st283" d="M270,113.2c1.6.4,2.4.6,4,1.1-3.1,3.4-4.6,5.1-7.8,8.6,2.8,1.1,4.8-1.8,6-1.8,11.1-6,11,16.2-1.7,15.8-2.1,2.9-4.2,3.9-5.1.3-4.5-1-6.8-1.5-11.4-2.5-.7,1.8-2.8,1.8-6.2,0-.7,1.7-1.4,1.7-2.1,0,12-2.4,15.4-3.8,18.3-15.7-2-.2-4,0-6,0-1-2.6,2.4-4.5,9.9-5.7.6-.2,1.4.2,2,0Z"/>
  <path class="st257" d="M177.8,133.6c-10.2,9-22.2,12.8-34.3,18.4-3.7-1.2-5.5-1.7-9.1-2.8,5-2.1,12.5-3.7,17.5-5.6,9.3-3.6,18.2-7.4,26.1-13.9,2.8-.8,2.7.5-.3,3.9Z"/>
  <path class="st253" d="M139.5,154.3c2.9,1.2,4.4,1.9,7.3,3.2-2.1,6.1-4.3,6.1-8.4,8.4,1-2.4,1.5-3.6,2.5-5.9-3.1.4-6.7.2-7.3-3.1,2.1-1,4.2-1.6,5.9-2.5Z"/>
  <path class="st3" d="M185.9,129.1c-.3-.7-.5-1.1-.8-1.8-2.1,2.6-4.8,4.3-7.3,6.3.1-1.6.2-2.3.3-3.9,3.6-2.8,9.4-7.5,12.4-10.6.7.3,1.1.5,1.8.8-1.3,3.3-4.9,6.5-6.4,9.2Z"/>
  <path class="st234" d="M268,113.2c-3.9,2.2-5.9,3.4-9.9,5.7-1.9-.2-4.2-.2-6.1,0-1.8-6.4,10.9-4.4,16-5.7Z"/>
  <path class="st285" d="M315.6,347.3c-4.8,10.4-21.2,15.8-31.4,18-1.4.3-2.6-1.2-3.5-2.5-.3,1.1-.8,2.6-1.4,3.1-9.9,7-43.5,10.6-55.6,5.6-.8-.3-1.6-1.6-2.2-2.7-8.4,2.5-18.3,3.7-26-1.2-.4,0-2.3-2-4.1-2.2-3.4,4-8.1,4.4-11.8-.8-7-2.2-14.2-2.8-21.3-1.9-.8,0-1.2-.1-1.9-.2-4.8-1.3-10.8-7.8-9.4-10.1,3.2-4.9,31.1,1.9,41.9,5,2.1-1.3,3.1-2,5.2-3.3,39,5.6,75.5,1.3,113-10.2,4-.7,7.8-1.2,8.4,3.4Z"/>
  <path class="st32" d="M160.9,349.6c8.9-.8,23.4-1.7,28,7.9-11.3-1.5-22.8-3.9-33.9-4.1-1.4,0-5.8.5-5,2.9,3.6.6,6.3,2.6,6.3,6.4,0,.8.1,1.1.2,1.9-.7-.3-2.6,1.4-3.6,1.5.2.9.2,1.9,0,2.1-7.8,6.1-31.1,2.1-43.9-1-1.3-1.7-2-2.6-3.3-4.3-3,2.9-4.3,2.3-3.9-2.4.7-1.3,1-2,1.7-3.4,10.6,1.5,27.1,4.7,37-.3-4.5-2-6.5-4.6-6.2-7.8,5-4.6,18.5-1.9,26.7.7Z"/>
  <path class="st225" d="M331.4,348.3c2.5,4.6-1.1,8.5-10.7,11.7-2.9,10.5,24.3-4.8,29.2-7.9,1.7.8,2.5,1.2,4.2,2,1.6.4,1.5,1-.2,1.9,2.6,4.4-4.8,10.3-8.2,6.5-1.7,4.7-5.4,7.8-11.2,9.2-11,5.5-23.8,11.5-36.5,10.1-.6.3-1.4-.1-2,.1-.7-1.5-1.1-2.3-1.8-3.8.7-1.8,1-2.7,1.7-4.4,6.6-1.3,7.6-2.7,10.8-8-4.6-4.4-1.8-8.7,5-9.2,2.5-6.1,16.2-13.5,19.8-8.1Z"/>
  <path class="st313" d="M280.7,362.8c7.7-2.3,6.5,4.2-.2,6,1.7.6,1.7,1.3,0,2-5-1.3-14.2-.5-18.2,2.4-1,1.6-2.3,3.5-3.9,4-8.9,3-22.9,1.2-32.7-2.3-.5,5.3-2.2,4.9-4-.1-1.6-.3-4-2.2-6.1-2.2-.4-2.1,1.5-3.4,5.9-3.7,19.7.3,40.2-1,59.2-6Z"/>
  <path class="st62" d="M262.2,373.2c2.1,0,6.6-.7,7.8,0,1,.6,3,6.4-1.2,7.5-9.1,2.2-19.4.5-29,.4-2.5-.5-3.8-.7-6.3-1.2-11.2,1.7-13.8,0-7.9-5,12.3,0,24.6-1.4,36.6-1.7Z"/>
  <path class="st318" d="M304.7,363.7c2-2.6,2.6-2,1.9,1.9.8,1.8,1.9,6,.6,7.8-.5.7-11.6,4.4-13.1,4.6-4.4.7-9.4.1-13.9.6.1-2.6,0-5.3.3-7.9,0-.7,0-1.3,0-2,1.9-4.5,4.4-4.6,6-.2,6.1-2.8,12.1-4.4,18.2-4.8Z"/>
  <path class="st45" d="M225.7,374.9c-1.6,8,9.9.9,14.2,6.2-4.7.1-9.5-1.1-14,.7-4.5,1.8-10.5,14.4-14.2,13.8-11.5-1.6,13.8-16.8,10-20.9,1.3.2,2.7,0,4,.1Z"/>
  <path class="st328" d="M221.5,368.8c-1.6.8-4.5,3.5-5.9,3.7-7.2,1.1-13.4-1.7-19.5,4.8-.2-3.9-.4-5.8-.6-9.8,8.5.7,17.3,1.1,26,1.2Z"/>
  <path class="st332" d="M179.6,364.7c-3.5,0-6.6-.6-10.2-.4-4,.2-7.3,6.3-11.1-1.4.9-2.2,1.4-3.3,2.4-5.6,4.4,2.3,16.3,4.6,18.9,7.4Z"/>
  <path class="st30" d="M191.4,365.5c.8,5.8-7.9,6.4-11,8.9-.8-.9,2.6-6.2-.8-9.7,3.8.1,7.9.5,11.8.8Z"/>
  <path class="st107" d="M464.5,198.8c5.1,7.4,8.2,20.1,3.9,28.6.1,6.9.1,10.4,0,17.4-1.3,13.2-1.8,25.9-1.7,39.2-1,3-1.5,4.5-2.5,7.4-2.2,12.1-4.3,24.2-6.4,36.3-.8.8-1.2,1.2-2,2.1-.8,1.5-1.3,1.6-1.7.3.5-2.4,2.2-6.6.9-8-9.9,11.6-18.7,26.2-32.5,33.6-2.7-2.7-3.7-6.6-10.6-4.5,0,8.3-5.2,8.2-9.1,11.8-3.9,3.1-11.1,4.8-12,.5-.6-.6-.9-.9-1.5-1.5-1.3-2.7.1-5.9,4.3-9.5-5.5,6.9-11.2,11.3-17.2,13.4-5.4,3.6-26.7-.5-20.9-8.2,2.3-3.1,4.4-4.6,6.1-4.4,6.1-.9,8.5-2.9,7.4-5.8,4.2-7.5,14.8-15.6,24-12.7,2.6-3.1,3.8-6.8,3.5-11.3-6.9-1.1-13.4-5-15.8-11.8-7.1-2.3.9-13.2,6.7-14-.2-5.4,5-10.1,10.1-8.3,4.1-5.4,6.2-8,10.2-13.3,9.2-3,19.6-4.8,29.3-5.3.3-.8.4-1.2.7-2-8.1,1.5-13-.2-14.6-5.2-.8-.4-1.9-1-2-1.4-2.4-10.6,16.9-39.7,27-54.5,2.7-4,14.5-18.5,16.3-8.7Z"/>
  <path class="st212" d="M355.5,357.6c1.5,5.2,17.9,4.3,20.9,8.2,0,5.9-2.6,8.9-8.7,10.2-6.4,8.1-18.8,21.7-18.2,25.8.2,1.5,11.5-12.6,15.8-14.6,5.6-2.5,20-3.1,18.4,3.6-.8,3.2-5.1,5.5-6.5,8.3-2,4.2-1.3,8.1-4.1,12.6-6.7,10.7-19.4,21.1-30.3,27.7-5.2,3.2-9.9,1.5-15.4,8.8-3.3,4.4-3.4,11.5-10.9,11.9.7-3.3-9.4-17.6-12.2-20,.5-2,.7-3,1.2-4.9,12.2-10.3,25.5-23,30.5-38.7,9.1-3.9,9.6-7.3,1.1-10.8,1.3-7.6,4.1-15.4,8.5-23.4,2.2-1.2,5.8-4.8,8.2-6.5.7-1.7,1.4-1.8,1.9-.2,1.5.4,1.5,1-.2,1.9Z"/>
  <path class="st196" d="M376.3,365.8c8.3-9.2,17.5-18.1,26.4-27,4.6-1.4,2.4,2.8,1,5.2-2.3,4.2-10.8,13.7-14.5,17.9-2.5,2.9-16.5,17.6-18.3,18.5-5.6,2.9-4.2-.8-3.4-4.4,2.8-3.4,5.8-7,8.7-10.2Z"/>
  <path class="st289" d="M450.4,354.6c-5.3,16.3-12,31.6-19.3,47.1-.4-.2-1.9.3-2.1,0,10.6-23.3,19.3-46.6,25.1-71.6.7-.1,1-.2,1.7-.3,1.6,6.6-1.8,16.7-5.3,24.9Z"/>
  <path class="st260" d="M422.6,355.6c3.5,3.5,10.8,11.6,8.2,17.7-6.7,15.6-15.7-11.8-13.3-16.6.2-.4,3.7-.5,5.1-1.1Z"/>
  <path class="st212" d="M402.8,362.9c-4.7,4.4-13.5,15.8-18.9,15.4-6.9-.5,5.1-14,6.8-14.8,2.1-1,11.3-2.7,12-.5Z"/>
  <path class="st145" d="M404.4,370.8c-.9,4.1-1.4,6.1-2.4,10.2-4.7,1.1-7.1,1.7-11.9,2.8-1.6-4.7,13-14.4,14.3-12.9Z"/>
  <path class="st89" d="M115.7,407.4c.8.9,2.5,2.2,4.2,4.2,4.5,9.9,6.1,11.5-.3,13.9,11.2,8.5,2.3,19.7,14.6,28.9,24.1,18,53.5,25,83.6,29,3,.4,6.2.5,7.5,4.2-5.9-3.6-9.5-1-14.4-1.7-24.8-3.3-49.6-10.3-70.6-23.3-10.4-6.4-15.4-16.3-22.4-26.1-8.1-5-13.7-13.9-17.4-22.5-7.2-7.5-10.1-14.8-3.7-16.1,8.1,8.9,14.2,12.3,18.7,9.4Z"/>
  <path class="st309" d="M153,366c1.8,11.9-15.2,12.7-23,11.5-8.3-1.3-23.2-9.1-29.6-1.9-4.6,5.1,3.4,12.4,6.8,18.3,1.2,2.1,1.3,4.7,1.8,5.5,0,1.3-.6,1.1-1.7-.5-3,2.3-10.2-5.1-8.4-8.4-3.6-4.7-6.9-10.1-6.9-14.7,0-3.4,8.2-16.8,13.6-13,14.7,4,32.1,4.3,47.3,3.2Z"/>
  <path class="st278" d="M95.4,394c.7-.2,1-.2,1.7-.4,7.5,8.2,10.9,10,10.2,5.3.7.2,1,.3,1.7.5,1.9,2.9,4.5,5.3,6.7,8,0,3-.1,4.5-.1,7.4-6.9-5.6-10.4-8.5-17.4-14.1-2.7,2.7-1.4,7.8,2.4,13.3-1.4.9-6.8-5.6-8.4-8.4-15.7-12.9-3.9-31.5,3.2-11.6Z"/>
  <path class="st336" d="M52.9,244.5c5.9-7.9,11.8-10,17.5-5.6,6.8-10.8,19.3.7,12.9,10.1-7.7,2.6-3.2,14.7,3,14.5,5.7,11.7,9,24.4,11.4,37.1-5.6,6.9-9.3,17.4-10.1,26.2-.3,1.5-.9,1.4-1.8-.2-26.1-15.1-40.1-37.2-36.4-67.5,4.3,2.4,9.3,8.4,7.6,12.9,2.8-.8,5.5,1.1,8,5.8-3.6-4.3-4.5-8-2.8-11.1-6.3.9-10.9-10.7-11.1-16.7-1.5-4.5-.8-6.3,1.8-5.5Z"/>
  <path class="st148" d="M30.7,227.6c6.3-3,9.5-4.5,15.9-7.6,4.5,1.2,3.2,4.5,1.5,8.5,1.5.5,1.5,1.1,0,1.8-.1,2.3-.2,3.4-.3,5.7-7,10.6-15,20.6-24.2,29.4-2.2,2.7-5,5.2-7,7.9-2.5-1.7-2.8-3.3-3-5.8-1-12.1,3.5-28.2,12.1-37.8,1.6-.5,3.3-1.4,5.2-2Z"/>
  <path class="st126" d="M97.2,331.6c3.3-3.6,7.7,2.8,8.2,6.8.2,1.7-9.2,11-12.6,10.2,3,5.4-4.8,11-10.2,8.1,0,1.5.1,2.3.2,3.8,11.6,10.4,2.5,13.2-8.2,8.3-2.4,2.8-7.9-2.5-7.9-6.6.7-1,0-3.2.3-4.4,0,0,3,0,.4-1.4-5.1-.3-19.2-5.4-17-11.7.3-.8,1.9-.7,2.1-1,9.9,7.5,18.8,12.9,27.7,1,3.6-4.9,8.5-7.9,5.7-18.1.5.3,1.3,0,1.8.2,4.4-2.9,7.7-1.1,9.6,4.8Z"/>
  <path class="st210" d="M51.3,237.3c2.2,4.2-1.1,8-5.5,7.3-5.8,6.6-11.6,12.6-17.3,18.3-.8.8-4.1,5.8-5,2.4,8.8-11.3,15.2-24.1,24.5-35.1,5.5.1,5.7,2.2,3.3,7.1Z"/>
  <path class="st66" d="M56.9,229.9c2.2-2.5,17.2-19.3,19.2-17.5-5.4,6.6-9.4,14.4-13.9,20.9,2.2,3.7,1.4,5.3-2.3,4.9-2.9,2.5-4.3,3.8-7.1,6.3-1,1.9-1.2,3.6-1.8,5.5-2.1-2.6-1-6.6-5.3-5.4,1.9-2.2,3.5-5.1,5.5-7.3-1.5-4.9.2-9,5.7-7.4Z"/>
  <path class="st181" d="M62.2,266.7c-.4,3.5-1.8,5-5.2,5.3-3-3.8-8.4-6.8-7.6-12.9.4-3.7.4-5.2,1.7-9.1,5.6,6.7,6.6,8.5,11.1,16.7Z"/>
  <path class="st159" d="M28.5,298.7c-3.7,3.1-6.6,8.8-13,7.3-3.9-3.4,10.1-10.1,10.9-10.8,4.1-1.3,5.1,1,2.2,3.5Z"/>
  <path class="st172" d="M28.5,298.7c-.9-1.4-1.3-2.1-2.2-3.5,3.5-3.1.8-6.6.2-11.4,2.7-.4,3.6,1.1,5.3,3,8.7,8.8.7,8.4-3.4,11.9Z"/>
  <path class="st298" d="M158.3,50.3c-10.2,12.4-21,24.3-31.8,36.3-7.1,5.1-17.8,6.3-12.5-2.9,1.3-2.2,16.3-13,7.4-10.5,11.9-8.3,24.3-15.7,36.9-22.9Z"/>
  <path class="st164" d="M277.5,9.4c-5.1,5.8-11.5,7.8-20.1,8.5-2.6.2-5.4-1.4-9.2-.9-5.3.6-5.6,5.6-9.6,6.1-5.3.6-5.4-4.2-10.3-4.3,2.2-.7,4.4-1.4,6.7-2.1,5.4-1.5,11.2-2.6,16.7-3.7,8.8-1.8,17.5-2.8,25.9-3.6Z"/>
  <path class="st51" d="M111,79.5c-13.8,12-26.6,25.2-39.4,38.3-.4-.4-.6-.6-1-1,10.3-9.3,19.8-19.4,29.5-29.3,2.7-2.7,7.4-6.3,9.9-9,.4.4.6.6,1,1Z"/>
  <path class="st282" d="M77.6,403.5c-1.1-3,2.7.7,5,3.4,0-1.1.4-.9,1.5.6,2-2.6,17.3,11.4,17.7,16,3.6-1.2,15.2,12.7,10.1,12.9-4.6-4.5-9.6-10.9-14.9-15.6-7.5-6.7-15-11.7-24.6-12.3-1.7,0-3.2-.5-6-2.4-.9-1.9-2.8-4.6-3.8-6.7-.8-2-.5-2.6,1.2-2.2,2.4.5,10.2,4.4,13.8,6.2Z"/>
  <path class="st316" d="M100.7,414c6,7.3,11.8,14.8,17.4,22.5,1.7,3.3,2.6,4.9,4.3,8.1-3.3-.9-7.1-4.9-10.5-8.2-1.9-5.6-5.5-8.1-10.1-12.9-2.3-5.3-6.6-10.4-11.3-15.8.1-1,.2-1.6.3-2.6,0-.9.6-.7,1.5.6,3.1,4.1,7,6.7,8.4,8.4Z"/>
  <path class="st57" d="M477.3,182.2c-3.6,10.9,0,23.3,1.2,34.4.5,24.9,2.7,49.7,2.3,74.6-3.9,4.9-6,7.4-10.1,12.4-4.1-2.9-2.6-11.1.7-16.3-.6-.3-1-.4-1.6-.7,1.4-5.6,1.2-9.8-.6-12.5,0-9.6.9-19.7,2.6-29.2-1.4.6-2.1.9-3.5,1.6-.8-.5-.7-1,0-1.7-.4-15.5-1.6-30.7-3.8-46-3.6-1.6-4.6-4.5-3-8.5-.7-1.6-.3-2.1,1.4-1.4,1.5.7,2.3,1.1,3.8,1.8,3.6,11.6,5.5,8.3,4.2-8.3,1.3-.3,1.9-.4,3.2-.7,1.3.3,1.9.4,3.2.7Z"/>
  <path class="st117" d="M99.1,86.5c-6.1,5.7-14,10.9-18.7,14.9,23-24.1,45.7-48.5,67.9-73.3-13.7,21.2-30.9,41.2-49.2,58.4Z"/>
  <path class="st52" d="M461.2,319.3c1.6-7,3.2-13.4,6.7-19.4,1.8,2.5,2.4,5.3,1.9,8.5.6,10-1.3,20.5-2.1,30.2-.7,9.1-1,19.1-2.8,28.3-.3-3.5-2.1-6.8-3.2-10.7-1.2-4,3.2-10.1-8.7-5.2-.3-.4-.5-.8-.4-1.3,2.4-9.5,3-21.4,6.5-28.6.3-.6,1.3-1.3,2.1-1.8Z"/>
  <path class="st29" d="M462.2,314.4c.9.8.6,2.5-1,4.9-2.4,10.5-4.1,21.8-8.2,31.7-.4.9-1.9,2.5-2.6,3.5,2.2-7.6,3.6-16.3,5.3-24.9,2.6-12.7,4.2-25.9,8.3-38.3.3,7.2-.3,14.8-1.9,23.1Z"/>
  <path class="st228" d="M345.5,362.4c5.2,5.2-6.6,20.4-6.1,21.2.2.3,4.6,0,6.7,4,3.9,7.7-5.7,8.2-7.6,10.6-1.8,2.2-1.7,6.4-3.5,9-8.5,12.3-18.7,23.6-30.9,33-1-.8-6.9-1.9-8.4-4.4.4-5.9-5-13.2-5.1-16.8-.2-4.7,4.6-10.7,5.7-15.4,1.6-7.5-.6-14.7,1.5-21.9,15.9-6.4,32.6-11.2,47.7-19.3Z"/>
  <path class="st264" d="M411.7,71.4c7.7,11.4,23.9,17.7,27.1,31.7,3,4.3,2.1,4.3-2.1,0-4-1.3-16.7-11.6-19-16.7-1.4-1-1.7-1.5-.7-1.4-.8-.8-1.2-1.2-2-2.1.7-1.8,0-4.6-2.4-8.3-1.8-2.4-.8-2.5-.9-3.3Z"/>
  <path class="st99" d="M449.8,109c.2,1.1,1,3.1,1,3.2,2.1,4,1.8,6.4-1,7.3.6,2.7-.4,3.6-2.7,2.7-5.8-6.7-7.3-10.1-4.6-9.9-4.8-4.8-6.6-7.9-5.6-9,1.3.7,1.5,0,2.1,0,5.5.3,0-3.5.6-5.7.2-.6,3,.2,3.4-.4,1.7,3,5,8.2,6.9,11.9Z"/>
  <path class="st300" d="M471.3,287.3c-.2,5.6,0,10.9-.7,16.3-.2,1.6-.6,3.3-.9,4.9-.2-2-.1-7.7-3.9-5.8-1,4.1-.9,8.4-2.1,12.4-.6,2.1-2.5,4.2-2.5,4.2,0,0,1-3.6,1-4.9.3-9.2,2.1-18.3,5.7-26.8,1-4.5,2.6-4.4,3.4-.3Z"/>
  <path class="st126" d="M54.5,339.6c-2.6-4.5-4.7-9.1-.9-11.2,1,2.1,3.4,7.7,3.4,9.2,0,1.9-2.3,1.7-2.5,2.1Z"/>
  <path class="st34" d="M40.7,146.7c9.8-1.4-2.9,11.3-1,3,.5-1,.5-2.1,1-3Z"/>
  <path class="st120" d="M61.2,398.8c-2.3-.5-3-.7-3.1,1-2.6-4.1-7.4-10-10.5-14.6-1.1-1-4.9-2-6-2.3-.3-2.7,3-2.9,4.6-4.5,4.5,1.7,16.9,19.5,15,20.4Z"/>
  <path class="st200" d="M401.7,71c.3.6.4.9.7,1.4,1.9,6.5-8.1.9-14.4-6.5-13.3-11.3-22.5-29.5-37.6-38.4,1.7-.9,7.5.4,10.3,2.6,13.6,13.7,27.3,27.3,41.1,40.8Z"/>
  <path class="st166" d="M402.3,72.4c.3.1,3.2,2.4,3.5,2.8,4,1.8,5.4,3.9,3.4,5,4.5,4.6,11.2,11.8,8.8,14.4-9.7-5-20.1-14.1-26.5-21.7-.4-.4-.5-1-.7-1.5-.2-.7-.2-1.3-.3-1.9-.8-.8-1.8-2.6-2.7-3.6,11.6,9.4,9.1,4.1,14.4,6.5Z"/>
  <path class="st197" d="M412.7,74.7c9.5,9.6,4.6,7.8,4.4,10.3.6,5.2-3,2-7.8-4.8-.8-1.2-3.2-4.7-3.4-5,6,1.8,3.7-.8,0-6.3,2.1,1.3,4.8,3.7,6.9,5.7Z"/>
  <path class="st98" d="M478.1,179.5c-9-.6-7-9.5,2-5.2,1.8.8,1.7,3.1,1.9,3.3.5,2.7-3.5,1.5-3.9,2Z"/>
  <path class="st173" d="M62.7,364.1c2.7,5.4,1.1,6.8-4.3,4.3.7,1.5,1.1,2.2,1.9,3.7-3.9.8-4.8,3.2-2.8,7.6.6,4.3,2.4,8.6,5.2,13.1,7.5,3.5,12.5,7,14.9,10.8-5.6-1.9-10.6-2.9-14.9-4-.3,0-1-.6-1.4-.7-6.1-8.1-9.1-12.2-15-20.4,1.1-1.1,4.7-4.3,2.8-6.9,1.1-.7,1.9-4.3,3.2-5.2,1.3-.9,9-5.6,10.5-2.2Z"/>
  <path class="st202" d="M74.6,368.8c2.8.8,4.2,1.2,7,1.9,3.7-.3,4.9-.4,5.5,4.4.9,4.4-4.4,3.1-8.1,1.2-5.2.9-17.2.7-20.6-8,1.5-1.3,2.8-2.8,4.3-4.3.8-.8,3.3-1,3.9-1.8,2.8,1.8,5.2,4.8,7.9,6.6Z"/>
  <path class="st329" d="M450.7,112.2c2.1,5,4.4,6,10,10.7-7.7-5.1-.8,8.4,1,13.3,1.8,5,4.2,14.4,9,19.3-4.9-4.5-3.7,0-3.2,2.5,1.6,7,5.7,18,6.5,23.6.3,2,.4,17.3,0,18.1-.4,1-5.7,2-6.3,4.4-1.8-6.1-2.8-9.1-4.9-15.2-.5-2.2.2-4.2,2.1-6-1.7-5-3.8-9.7-6.3-14.2,1-.7,1.5-1.1,2.5-1.8-3.4-1.8-4.3-3-2.5-3.5-3.2-1-4.4-3.3-3.8-6.7-10.1-1.8-13.6-10.8-2.5-5.1-2.2-4.8-1.9-7.1.7-6.8,0-2.5-1.8-6.8-5.6-11,.3-1,.5-1.5.7-2.5.7-2,.3-5.1-1.2-9.1-2.7-8.8,3.5-5.6,3.7-9.9Z"/>
  <path class="st72" d="M318.6,65.3c4.4-2.4,15.7-8.7,19.8-8.8,5.6-.1,13.9,3.9,17.5,3,2.3-.6,2.3-6.8,4.7-6.5,3.3.4,6.2,7.3,8.3,8.4,5.8,3.3,15.3,4.6,21.6,8.1,9,8.5,18.8,16.1,27.5,25.1,1.1-1.2,2.3,0,2.1,2.1,6,5.3,10.3,11.4,12.7,18.7,7.9,5.4-1.3,9.7-5.5,3.4-.9,1.8-4.4,2.9-7.2-.8-11.4-4.8-22.8-9.7-34.2-14.3-1.5-.6-2.5-2-2.9-3.6-6.1-4.3-7.9-6.2-9.2-11.8-1.3,3.9-3.7,5.5-6.9,4.8-.2,1.4-.7,1.3-1.7-.4-13.8,3.3-37.7-2.3-47.1-10.3-4.4-3.7-3.9-14.7.4-17.1Z"/>
  <path class="st103" d="M318.6,65.3c-2.8,2.3-2.2,14,.5,15.6,10.9,6.5,30.8,8.8,46.1,11.8,1.9,6.5-5.4,11.2-12,7.8-3.7-2.6-.2-1.6-.2-1.5-1,1.5-27.8-1.7-33.3-10.6-4.7.6-6.9-3.3-6.7-11.6-.7-1.7-.9-3.5-.6-5.4,3.2-4.1.8-3.2,6.2-6.1Z"/>
  <path class="st274" d="M313.1,76.8c2.8,9.7-2.1,20.2-7.6,28.1-1.8,0-2.7.1-4.6.2-2.9-3.2-4.3-4.8-7.2-8-1,0-4.4,5.3-6.4,6.2-1.1.5-1.9-1.1-1.9-1.1-5.8-5.3,6.9-15.6,12.6-12.4,1.4-1.5,3-4.6,5-6.9-2.2-3.2-.5-4.9,5-4.9,1-1.2,2.9-4.4,4.6-6.6.8.5,1.1.7,1.9,1.2.4,1.8-1.1,3-1.3,4.2Z"/>
  <path class="st296" d="M307.9,78c-1.8,2.1-3.8,3.5-5,4.9-5.3-1.3-12.7,0-17.6-1.3-2.1-.5-.6-4.7-1.5-5.5-.4-.3-5.4-.6-9.3-2.6,11.2,1.3,22.2,2.7,33.3,4.5Z"/>
  <path class="st18" d="M111.9,185.3c14.2-6.8,5,13.7,2.4,18.5-2.4,9.5-5,21.3.8,30.1,4.9,9.6,8.1,21.5,5.9,32.3-3.9-4.3-6.3-10.3-7.1-18,.1-7.4-2-10.7-6.7-10.1-.1,1.7-.2,2.6-.3,4.3-7.7,3.1-11.5,4.7-18.9,7.7-.6,4.8-1.2,9.3-1.7,13.5-1.1,3-1.6,4.6-2.6,7.6-3.5-2.5-8.4-14.3-8.4-18,0-7.4,14.3-5.9.6-16.4-4.5,12.1-11.2,1.9-14.4,2.5-2.1.4-5.6,4.9-8.6,5.4,3.3-6.2,5.7-5.9,9.3-11.2,13.3-9.2,21.2-23.5,31.7-35.2.9-1,7.7-7.8,8.2-8.2,1.1-.9,6.9-2.8,9.8-4.6Z"/>
  <path class="st301" d="M241.7,144.8c1.2-.7,1.9.6,2.1,4,5.4,2.5,5.5,5.7,0,8.1,1.8,3.6,1.4,4.8-1.8,7.2-1,.8-22.9,2.5-25.5,1.3-6.7.2-11.5,1.8-14.6,4.5-1.6-1.6-2.4-2.4-3.9-3.9-7,6.3-18,6.6-24.3,1.1-7.7,5.6-15.1,6.4-21.9,1.4,10.4-5.1,22.4-2,33-4.1,10.4-2,11.6-2.7,24.3-5.4,10.3-2.2,22.9-8.7,32.7-14.4Z"/>
  <path class="st33" d="M149.6,170.8c2.4,3.6,1.7,9.8-2,18.6,4.8-2.1,9.7-1.9,14.8.6.5-1.4,1.2-1.4,2,0,.3,6.3-8.8,13.6-12.4,6.6-1.8,4.9-3.4,6.3-5,1.6-15,1-20.5,17.8-21.5,30.2-1.1.6-1.6.9-2.6,1.5.9,5.4-.4,5.9-4,2.1-5.4-9.2-4.8-25.9,5.2-32,2.6-4.5,4.5-5.2,6-2.3,5.6-4.9,9.4-13.1,11.4-24.3,3-2.3,4.4-2.8,8-2.5Z"/>
  <path class="st43" d="M173.6,167.2c.5,1.8.7,2.6,1.2,4.4-7.6,5.7-11.7,11.1-12.3,16.3,1.7.5,1.7,1.2,0,2-7.3.2-13.3,3.4-20.2,5-1.1-1.2,5.8-21.6,7.4-24.2.5-.7,1.5-1.4,2.1-2.1,7.2-.6,14.5-.9,21.9-1.4Z"/>
  <path class="st67" d="M123.9,178.6c4.6,2.7,6.8,7.5-.4,11.5.3,2.4.4,3.6.7,6-7.4,10.7-9.8,23.5-7.2,36.2-.8.6-1.1,1-1.9,1.6-4.7,1.2-4.3-2.4-4.8-5.7-1.4-10.1,1-22,3.5-31.6,1-4,8.4-10.9-1.9-11.3,4.9-3.1,6.8-4.1,12-6.7Z"/>
  <path class="st137" d="M127.9,176.3c4.5-2.1,8-5.3,3.7,1.6,3.2-1,4.8-1.5,7.9-2.5,0,6.1-2.6,19.4-9.3,22.2-1.7.5-3.9,2.2-6,2.3-1.7-8.2-.4-11.4,4-16.9-3.6-.4-3.6-4.4-.3-6.7Z"/>
  <path class="st232" d="M127.9,176.3c-3.4,5.8,5.3,5.2,3.2,8.4-1.5,2.3-5.4,2.9-5.8,3.5-.4.5,2.6,5.1-1,11.6-5.7,10.2-7.1,20.3-5.2,32,4.4,6.3,7.1,14.6,8.1,24.5,4,8.4,5.4,15.8,4,22.2,6,0,6.5,5,2.3,8.1-6.6-.3-14.1-14.7-12.5-20.5-.7-10.9-3.8-21.7-5.9-32.3-1.8-9.3-1.8-21.5,1.5-30.4,1.1-2.9,5.6-2.9,6-4.8.9-4.3-6-10.7,4.6-12.7,0-.8,0-1.1.1-1.9-6.7,1.4-1.3-3.2-3.4-5.5,1.2-.6,2.4-1.5,4-2.3Z"/>
  <path class="st190" d="M141.7,173.3c2.7,2.7-3.8,20.7-5.2,22.8-1.6,2.5-4.3,1-6.2,1.5,3.7-5.9,5.7-16.9,9.3-22.2.3-.4,1.6-1.7,2.1-2.1Z"/>
  <path class="st280" d="M260.4,142.8c-.5,6.2-5,7.3-8.3,2-2.5.8-5.3,1.5-8.3,2,0,.8,0,1.2,0,2-.8-1.6-1.2-2.4-2.1-4,.2-.1-.5-2.5.6-3.5,1.6-1.3,5.1-.2,5.6-.6.7-.5-2.8-4.6-2.1-6,0-.2,1.4,0,2.1,0,7.4,1.1,11.5,3.8,12.4,8.1Z"/>
  <path class="st198" d="M56.9,229.9c-1.4,1.7-3,4.4-5.7,7.4-1.3-2.1-2.6-4.8-3.3-7.1-.2-.5.3-1.3,0-1.8-1.5-6.1,3.5-13.4,9.9-14.8,1,4.3-5.8,12.7-1,16.2Z"/>
  <path class="st70" d="M68,202.1c-3.9,5.4-7.2,7.9-10,11.5-2.4,1.3-4.2,1.4-5.4.4-2,.1-2.2,0-.8-1.7,2.7-3.3,11.8-10.2,16.1-10.2Z"/>
  <path class="st170" d="M283.4,102.1c-23.2-9.2-9.2-18.2,7.7-16.5,3.5.4,7.4-1.3,6.8,4.2-3.7,3.8-9.9,6.8-12.6,12.4-.4.2-1.4-.3-1.9,0Z"/>
  <path class="st74" d="M58,213.6c-4.1,5.2-5.8,10.2-9.9,14.8-.5-1.4-1.2-5.2-2.5-5.3-1,0-12.1,3.6-14.8,4.5,6.6-4.1,14.9-9.8,21.9-13.6,1.5-.8,2.7-2.4,4.6-2.1,1.2.2.6,1.1.8,1.7Z"/>
  <path class="st237" d="M301.5,114.7c2.8,1.8,6.5,4.7,6.3,8.1,9,6.5.6,12.2-6.7,14.6,7.3,8.3,5.5,12.3-5.5,11.8-3.6,6.5-11.4,9.9-18.4,12.2-3,2.5-4.1,1.3-2.1-2.1-5.5-.7-5.3-2.6,0-4.1,0-6.8.8-18.2,9.4-18.8-9.8-6.2-.8-17.1,4.1-6.8,7-.2,2.3-2.1,4.7-7.4,1.2-2.6,3.1-4.9,4.4-7.7,1.9-2.7,3.1-3.6,3.9.3Z"/>
  <path class="st272" d="M288.5,129.5c-1.8,0-5.5-1.2-6,.7,18.7,12.7.8,9-1.4,11.1-1,1,.5,12.6-6.1,13.7-9.4-.3-11.4-15-4.5-18.2.3-.9,13.1-15.8,1.7-15.8,4.3-4.6,6.4-6.8,10.5-11.3,7.7,6,7.8,11.5,5.8,19.7Z"/>
  <path class="st279" d="M313.1,76.8c2.7,4.6,4,6.9,6.7,11.6-1.3,5.9-2,8.9-3.5,15-1.7.3-2.5.5-4.2.8.2,3.7,1.8,7.6,4.8,11.7-1,6.2-12.7,4.2-15.4-1.2-1.6-.1-2.3-.2-3.9-.3,1.2-2.6,2.5-7.8,3.3-9.3,4.4-9.3,10.5-17.8,12.2-28.3Z"/>
  <path class="st281" d="M270.5,136.9c-2.6,7.9,2.6,12.9,4.5,18.2.4,1-.2,2.8,0,4.1-.5,5.8-4.8,7.3-8.3,1.9-.9,6.2-12.7,1.9-16.8-.1.9,4.7-.8,5.4-4.2,2.1-3.8,1-4.5-1.1-2.1-6.1-.4-2.3,0-5.6,0-8.1,0-.7,0-1.4,0-2,2.5-2,5.3-2.6,8.3-2,2.2-.7,4.3-.4,8.3-2-1.5-2.8-3.6-5.5-6.2-8.1,5.5-.1,11.4-.7,16.4,2.2Z"/>
  <path class="st188" d="M254.1,134.7c4.9,2,7.4,3,12.3,5.1-1.5,2.9-4.1,2.2-6.1,2.9-5-3.3-7.5-4.9-12.4-8.1,2-.2,4.1,0,6.2,0Z"/>
  <path class="st130" d="M379.2,194.2c7-1.3,12.7-.2,17.4,3.1,2.7-4.1,9.3-3.4,9.6,2.6,3.7-4.2,11.3-1.5,13.4,3.2,8.1,17.8-17.8,62.5-31.5,78.6-1.7,4.8-2.6,7.2-4.3,12-6.5,2.7-12.3,7.6-17.3,14.6-6.3,5.8-9.5,8.7-15.9,14.5-12,7.6-23.7,15.7-35,24.4-.4.4-7.7.2-10.6,1-40.2,11.9-74.3,14.1-116,9.1-9.1-3.1-18.5-6.4-28-7.9-5.7-.8-9.7-2.4-12-4.9-9.5-2-19-4.5-28.2-7.4-.9-.9-7.7-19.5-8.4-22.4-.2-.6.4-1.3,1.3-2,5.4-4.2,10.4,1.4,15.4,16.8,13.7,5.7,67.2,25.9,29.3-2-3.8-3.6-5.6-6.6-1.5-9.9.8-3.4,4.3-1.3,10.3,6.6,2.7-2.4,3.9-1.2,2.1,2.1,15.6,11.5,31.1,17.3,49.6,22.2,20.3,2.8,44.8,2.1,61.5-11.4,2,.5,3,.7,5.1,1.1.5-4.3.7-6.5,1.1-10.8,3.9-6.2,18.6-20.1,19.9-4.2,8.1-4.8,16.5-13,20.8-21.4,1.8,0,2.7,0,4.5,0-1.4-6.7-.4-8.3,6.4-8.4,4-8.9,8.4-17.8,13.1-26.3,2.2-8.2,4.8-15.4,7.9-21.5.8-2.5,1.2-3.7,2-6.2,2.7-15.7.3-29.3-5.5-43.9.4-6.8,6.7-9.3,10.5-3.3,4.6-.3,9,.4,13.1,1.8Z"/>
  <path class="st73" d="M334,338.2c2.3,0,2.9,2,1.6,5.8,2.6,4.5.6,6.1-4.2,4.2-3.5,1.6-11.8,3.8-14.2,5.9-4.5,3.9,1.2,9.3-8.2,5.4-.9,2.4-1.4,3.6-2.3,6,0-.1-1.6-1.7-1.9-1.9-6,.4-12.1,2-18.2,4.8-2,.1-4,.1-6,.2.2-1.5,1.5-3.3,1.6-5-.6-.4-.8-.6-1.4-.9,12.2-3.8,23.6-9.7,34.9-15.5,2.5-5.3,13.8-11.9,18.4-9.1Z"/>
  <path class="st46" d="M149,344.7c3.1.4,9.3,2.5,12,4.9-5.9-.7-19.8-.4-26.7-.7-6.1,12-27.8,12.8-35.8,2.3-1.6-.8-1.8-1.4-.3-1.8-.5-.7-.8-1-1.3-1.7,7.3-4.2,8.8-10.4,4.2-18.1-.3-5.8.3-19.4,6.8-19.1,3.9.5,6.6,7.6,8.1,11.6-.5,15.4,12.9,21.3,26.7,20.2,2.5,1,3.8,1.4,6.3,2.4Z"/>
  <path class="st195" d="M134.2,348.9c5.6,3.2,8.4,4.9,14,8.1-12.5,9.8-32.2,4.7-46.4,3.4-3,3.1-5.9.4-6-4.5-2.9-4-1.8-6.2,2.6-4.7,8.1,3.9,20.2,3.6,28.4,1.1,2.9-.9-.8-3.7,7.4-3.4Z"/>
  <path class="st152" d="M101.8,360.4c1.2.7,1.5,1.6,3.9,2.4-6.6,8.3-15.2,16.8-6.7,27.7-1.6,1.7-2.9.4-2.1-2.1-4.7,0-11.6-9.9-9.8-13.3-3.8-3.5-7-2.8-12.5-6.3,4.2-.6,10.8,3.1,9.5-3.2-.7-3.8-4.1-5.8-1.5-9,3.3,2.6,6.2,2,9.1-2.1,1.7.5,2.5.8,4.2,1.4,2,1.3,3.9,3.2,6,4.5Z"/>
  <path class="st293" d="M354,354c-10.8,5.2-23.6,15.3-34.5,14.8-2,0-3.6-9.6-2.2-11.4.5-.6,8.1-3.2,10.7-5.2,1.7-1.3,3-3.5,3.4-3.9,1.4-1,2.9-3.5,4.2-4.2.7-1.8,1.4-1.8,2-.1,8.6-8,17.3,2.3,16.4,10.1Z"/>
  <path class="st26" d="M337.6,343.9c-.6-12.9,15.7-9.2,18.3-2.3,1.3-.6,2-.8,3.3-1.4,11.1-5.3,16.6,16.6,2.7,11.1-.9,0-1.3,0-2.2,0,.3,2.7-1.2,5-3.9,4.3-.8,0-1.1.1-1.9.2,0-.8.1-1.1.2-1.9-6.6-6.5-4.6-14.3-16.4-10.1Z"/>
  <path class="st225" d="M304.7,363.7c-6.5,2-11.1,4.4-18.2,4.8,4.8-3,13.6-8.3,18.2-4.8Z"/>
  <path class="st153" d="M370.6,318c6.1,2.6,11.5,2.8,16.3.8,2.8,2.4,6,3.9,9.6,4.5,10.4,10.3,1.1,5-2.1,16.7-4.2,1.2-4.6-3.9-9.3-2.3-7.3,2.7-14.4,11-16.6,18.3-2.8-1.1-4.2-1.7-7-2.9-1.5-.3-1.4-.9.2-1.9,12.6-.5,1.8-6.2-2.7-11.1-5.7,2.4-10-4.7-5-9.2,2.4-4.3,12.1-12,16.5-12.9Z"/>
  <path class="st21" d="M464.5,198.8c-7.1-5.4-8.2,6.8-14.4,7.6-8.2,19.4-17.4,38.2-26.9,57-1.8,5.1-3.5,4.8-5.6.1,1.6-13.5,6.5-32.7,14.6-41.9,1-1.1,3.3-1.1,5-1,4-12.4,11.1-25.8,24.3-30.3,2.9,1.8,2.6,5.9,3,8.5Z"/>
  <path class="st156" d="M406.3,259.8c2.5.5,5.7.4,9.5-.1,1.1.7,1.7,2,1.8,3.8.1,3.4-1.9,6-5.9,7.8-4.2,5.7-8.9,11.6-14.1,17.9-3.7,4.6-9.4,7.5-10.1,8.3-8.6-8.8,9.7-34.3,15.9-37.8.6-.3,1.9,0,2.9,0Z"/>
  <path class="st111" d="M436,309.8c-.2.2-5,2-5.5,1.6-6.6-4-14.7-17.4-13.8-27.1,3.9-.9,4.9.2,7.3,2.3,2.8,2.6,14.9,19.8,12,23.2Z"/>
  <path class="st63" d="M387.5,297.5c-1.9,2.2-6.7,11.1-6.7,14,10.5,9.2-3.2,15.5-6.1,4.3-4.9.8-17.1,9.4-21,13.2-.2.2,0,1.3.5,1.9.3.3,2.4,6.3,5,9.2,1,5.9-4.6,3.2-6.8,2.4-6.6-2.3-7.8-8.6-14.8,1.3-.7.2-1.5-.1-2,.1-6.5,1.1-2.8-.9-1.6-5.8-.2-1.1-.3-1.6-.5-2.6,16.1-11.9,30.7-24.2,44-39.1,2.2-1.7,4.3-2.9,6.2-.7,1.3-.8,2.6-.3,3.7,1.7Z"/>
  <path class="st151" d="M437.7,268.5c2,.8,5,0,5.3,3.4-7.9.4-12,.5-20.1.9,3.6,2.9,5.3,4.3,8.8,7-5.4,1.1-16.7-5.5-20.9-4.3-2.5.7-8.2,12.4-13.2,13.7,3.9-4.8,7.7-16.8,14.1-17.9.3-3.3,3.3-3.9,6.1-4.1,8.1.6,12.1.9,20,1.4Z"/>
  <path class="st299" d="M468.3,246.5c1.2,1.1,1.9,1.7,3.1,2.8-1.8,9.1-2.6,18.9-2.5,28.2,2.7,1.7,1.9,7.8-1,10.1-1.4,9.1-4.4,18-5.7,26.8-.4-8.3,1-14,1.9-23.1,1.2-12.3,2-24.7,2.4-37,0-2.9-1.1-7.8,1.8-9.6,0,.6,0,1.2,0,1.7Z"/>
  <path class="st291" d="M396.6,323.3c-3.3,4.7-9.6-3.3-13-.6-.9.7,3.1,4.5.4,5.6-5.2-4-7.9-6-13.3-10.3-1.2-3.9,1.6-5.3,4-2.2,11.4,7.6,6,2.1,6.1-4.3,5.7,1.6,11.8,7.8,15.8,11.8Z"/>
  <path class="st208" d="M423.2,263.3c3,.4,11.3,3.8,14.6,5.2-7.1,4.5-17.7,1.3-26,2.8-1.4-4.2,2.2-7.1,5.9-7.8,1.4-.3,4.2-.3,5.6-.1Z"/>
  <path class="st225" d="M355.7,355.7c0-.2,1.9-1.3,1.8-2.7-.1-3.1-3.7-4.8-2.6-8.6,3.7,2.3,7.2,1.9,6.9,6.9,0,.6,0,1.4-.2,1.9-.9,2.1-3.8,5-6.1,4.4-.1-.4.2-1.2.2-1.9Z"/>
  <path class="st319" d="M96.8,388.4c.6.7,1.6,1.4,2.1,2.1,2.9,3.6,7.5,7.2,8.4,8.4,1,1.3,6.3,10.1,1.5,8-4.6-2.1-9.7-9.1-13.4-12.9-7.3-7.5-6.8-13.5,1.4-5.6Z"/>
  <path class="st23" d="M87.1,375.1c2.8,2.5,6.6,9.5,9.8,13.3-5.3-1.2-4.3,1.1-1.4,5.6-2.6-2.7-5.3-5.1-7.6-8.1-5.7,3.9-2.5,10.7,4.4,19.7-.6-.2-.9-.3-1.5-.6-2.9,1.1-5.4-1.3-4.2-4.2-8.2-7.2-11.1-14.2-7.4-18.5-3.5,1-8.3,0-14.3-2.8-2.6,1-4.9,1-7.3.2-9.3-8.1-1.9-8.7.9-11.3,10.7,5.2,16.9,5.9,28.6,6.8Z"/>
  <path class="st82" d="M94.5,283c8.5,16.6,12.1,31.3,2.7,48.6-3-1.6-5.5-2.4-9.6-4.8-6.8-11.8,6.9-22.9,7.6-31.3.7-8.4-6.9-21.4-9-32-1.3-6.5-1.5-7,1.7-13.5,3.5,2.7,5.1,7.2,5.1,13.4,3.6,8.3,4.1,14.9,1.4,19.6Z"/>
  <path class="st207" d="M62.2,266.7c2.7,4.9,7.2,8.9,8,15.1-9.8,1.3-9.7-5.3-13.2-9.8-.3-3.6,1.5-5.5,5.2-5.3Z"/>
  <path class="st195" d="M105.3,302.8c1.9,3.3,2.7,5.9,2.5,7.8-1.4,6.1-4,15.3-2.8,21.5.6,3,4.2,5.4,4.1,7.2,0,.8-8.7,6.7-10.9,10.1-1.3,3.3-3.4,4.1-5.4-.9,3.5-3.5,15.4-11,4.4-16.9-3.9-9.2,4.6-19.9,4.5-26.4,0-3.9-5.6-16.3-7.1-22.2,6.4-2.3,14.5,15.7,10.7,19.7Z"/>
  <path class="st165" d="M98.1,349.4c-.2.3.5,1.5.3,1.8-1.1,1.4-1.6,3.3-2.6,4.7-3.1,4.2-12.6,11.5-13.2.7,2.1-2.6,7.4-5.4,10.2-8.1,2.1.4,3.2.5,5.4.9Z"/>
  <path class="st2" d="M86.5,400.9c.7,3.8-.2,3.2-3.1-1.1-3.5-1.2-6.9-4.9-10.2-10.9-3.1-6.2-13.4-4.8-6.4.4,9.5,7,14.7,13,15.8,17.7-.7-.5-4.6-3.1-5-3.4-.3-.2-1.4-1.5-2.8-2.4-4.3-2.5-9.9-3.3-14.3-8.8-5.5-6.8-5-10-2.9-12.7,4-5.3,8.6-.3,16.5.2,2,.1,8.5-5.3,8.7,3.1.2,7.8-7.9,2.4,3.9,17.9Z"/>
  <path class="st304" d="M83.5,399.7c3.3,3.8,3.6,8.2.6,7.8-.5-.3-1-.3-1.5-.6-4.2-5.9-23.8-22.2-19.5-24.8,5.5-3.3,15.3,11.1,20.3,17.6Z"/>
  <path class="st144" d="M86.5,400.9c1.6,2.1,3.6,3.5,4.2,4.2,4.7,5.8,16.6,18.9,11,18.4-4.8-5-12.6-12.5-17.7-16-1.7-2.9-2.2-7-.6-7.8.3-.1,2.3,1,3.1,1.1Z"/>
  <path class="st250" d="M464.9,182.9c.2,1.5.9,2.7.5,4.4-.2.7-2,.9-2.5,1.6-.4.5-1,.9-1.4,1.4-8.4,9.7-17.6,19.1-24.3,30.3-6-4.2-.2-19.9,5-22.7.3-4.1,3.1-7.3,8.2-9.2,3.8-5,8-6.9,12.9-6,.2-1.3.7-1.2,1.7.3Z"/>
  <path class="st27" d="M469.2,274.1c2.4.6,2.2,2.1-.3,3.4-2.2-10-1-20.9-.6-31,.6-9.1.8-13.5.8-22.3,3.3-.3,4.9,1.8,5.4,4.5,2.5,14.8-2.2,29.7-5.3,45.4Z"/>
  <path class="st140" d="M469.2,274.1c6-1.9,2.3,8.1,2.2,13.2-1.4.1-2,.2-3.4.3.5-3.4.5-6.8,1-10.1.2-1.1.1-2.3.3-3.4Z"/>
  <path class="st326" d="M436.8,103.2c3.3,3.7,4,5.9,5.6,9-.3.2-.7.4-1.2.3-.9-.1-12.4-9.9-14.5-11.8-1.5.9-2.7-.2-2.1-2.1-5.7-4.2-12.3-14-6.8-12.1,4.7,4.6,15.3,12.4,19,16.7Z"/>
  <path class="st134" d="M409.3,80.2c3.8,5.1,4.7,4.1,7.8,4.8,0,.2.6,1,.7,1.4.8,4.8,2.5,5.6,6.8,12.1.3,1.8-1.2,1.2-4.4-1.9-.4-.5-1.4-1.4-2.1-2.1-2.6-4.3-5.9-10.4-8.8-14.4Z"/>
  <path class="st11" d="M442.4,112.2c1.8,3.3,3,6.6,4.6,9.9,1.2,4,7.1,12.3,1.2,9.1-1.6-1-1.8-1.5-.6-1.5-2.4-5.5-5.2-9-8.1-10.6-3.3.3-6-3.2-4.8-5.6-3.9-1.4-10.5-12.4-8-12.9,5.9,1.4,9.8,6.3,15.7,11.5Z"/>
  <path class="st143" d="M452.4,151.6c-1.8-.4-5.6-2.5-4.4.3,14.4,2.7,9,6.3,10.7,11.5-5,.4-14.5-.7-19-7.3-4-1.5-6-2.2-10.1-3.7-15.1-2.2-4.6-15.8,5-9.7,3.8-.7,16.6,3.7,17.6,9Z"/>
  <path class="st268" d="M432.4,159.3c1.4-2,4-1.5,8,1.5,7.4-.2,14.3,2,20.8,6.2,1.5,4.9,3.2,11.2,3.7,16-.7-.1-1-.2-1.7-.3-3-.6-4.6-3-4.7-7.1-4.5-.9-6.8-1.3-11.4-2.1,3,10.5-11.8,4.4-15.9-2.7-1.6-.7-1.6-1.3-.3-1.7-.8-2.1-1.1-3.2-1.9-5.4-8.3-6.2-4.5-8.6,3.4-4.3Z"/>
  <path class="st203" d="M434.7,113.6c1.7,2.4,3.8,4.2,4.8,5.6,3.2,1.3,6.1,4.8,8.1,10.6.2.4.3,1,.6,1.5,1.8,3.1,4.9,4.7,6.9,10.9,1.7,5.5-1.9,2.3-2,2.7-.7,1.9-1.4,1.2-2.1-2-4.5-.9-9.6-8-7.9-10.6-1.4-.6-2.2-.9-3.6-1.5-.4-2.2-2.7-3.8-6.9-4.6-1.1-.6-1.6-.9-2.7-1.5,1.3,2.9-2.6,3.1-5.3-.9-2.5-3-1.5-4.7,2.7-4.8,2.1.5,3.6,1.3,5.1.5,1.4-.8.5-2.4.4-3.9-4.7-6.4-4-8.7,1.8-1.8Z"/>
  <path class="st308" d="M443.1,132.1c-5.3,4.9,1.6,8.9,7.9,10.6.3.5,1.5,1.3,2.1,2-.9,2.3,6,8.2-.7,6.8-5.5-4.6-12.1-3.1-17.6-9-3.2-5.5-4.1-10.3-2.6-13.9-5-2.4-4-5,.6-2.6,1.3-1.4,2.7-2.5,3.3-4.3,4,3.2,5,7.3,7.2,10.4Z"/>
  <path class="st244" d="M439.7,156.1c6.5,2.1,12.7,4.9,19,7.3.3.9,2.2,2.7,2.5,3.5-6.7-3-15.1-1.6-20.5-3-2-.5-5.4-3.3-8.3-4.6-5.8-.2-8.4-1.8-7.6-4.7-3.5-4-2.2-6.9,1.7-3.2,5.4,1.9,8,2.8,13.3,4.7Z"/>
  <path class="st320" d="M383.1,100.1c14.5,6.2,28.8,14.9,44.3,18.7,2.3,4-2.3,2.2-2.7,4.8,1,4.2-.5,3.6-3.2-.9-3.1-2.9-2.6-4.3-1.3-2.3.2.4,0,.7-.3.7-11.9-1.4-26.7-8.6-39.7-13.5-1.8-1.7-2.6-2.6-4.4-4.4-1.5,1.9-2.7,1.6-3.5-.7-.2-2.3-.2-4.5.2-6.5,3.4-2.7,6.4-1.3,10.6,4.1Z"/>
  <path class="st271" d="M367,93.1c4.9-4.4,8.4,8.7,1.8,8.7,4,4.3-2,13-6.6,10.8,1.9,6.3,1.3,9.7-5.9,8-5.4.3-4.9-2-2.6-5.8-1.1-3.3-2.8-6.5-5-9.7-2.6-5.2-.7-7.9,4.5-4.5,3.9-2.5,8.5-4.9,12-7.8.6,0,1.4.5,1.7.4Z"/>
  <path class="st209" d="M424.5,98.6c.9,1.4,2,2,2.1,2.1,2.6,3.9,5,8.7,8,12.9-4.9-2.5-1.9.2-1.8,1.8-5.4-5.5-8.6-13.6-12.7-18.7.1-.4.2-.6.3-1,1.7,1.1,2.5,1.7,4.1,2.9Z"/>
  <path class="st141" d="M373.9,88.3c4.2,4.5,3.6,8.8-1.4,7.7.4,2.1,5.6,5.3-.2,6.5.4,4.5-1.3,4-3.5-.7,1.3-3,4.4-8.5-1.8-8.7,1-.3,2.1-3.7,6.9-4.8Z"/>
  <path class="st35" d="M373.9,88.3c0,0-.7-2,1.2-1.3.5,4.8,6.3,7.6,8,13-3.5-1.4-7-2.9-10.6-4.1-.6-3.2,1.9-4.6,1.4-7.7Z"/>
  <path class="st58" d="M319.8,88.4c9.9,3.6,20.5,4.7,30.3,8,4,1.3,5.7-.7,3.2,4.1-1.5.9-2.6,3.3-4.5,4.5,2,5.4-5.5,7-10,5.8-.3,1.6-1,1.5-1.9-.2-4,1.3-23.9,3.8-26.2-.6.6-2.3.9-3.5,1.5-5.8,1.4-5.3.9-16.9,7.6-15.7Z"/>
  <path class="st61" d="M107.2,238c2.1-.4,3.1-.6,5.2-.9,1.9,24.2,12.4,46.8,29.5,63.9,7.9.3,15.8-1.2,23.8-4.8.1,2.8-1.5,7.7-2.8,11.6-1.3,3.8-3,7.9-6.3,10,3.6,11.1,20.3,16.3,20.5,25,.3,11.2-39.7-7.5-49.3-9.7-7.5-5-4.2-18.2-14.4-20.1-3.6.7-7-6.5-8.4-10.2-4.2-6.5-6-14-10.7-19.7-3.2-11.4-5.7-21.2-6.6-33,.4-.7-.8-2.3,1.3-4,2.5-2.1,14.1-6.6,18-7.9Z"/>
  <path class="st292" d="M107.2,238c2.1-.7,4.2-3.5,7.8-2.1-1.4,9.7,2.4,21.6,5.9,30.3,4.9,11.8,4.6,10.7,12.5,20.5,5.5,1.6,7.6,4.4,6.3,8.3,2.9-2.2,4-1,2.1,2.1,1.8.6,1.8,1.3,0,2,1.8.7,1.8,1.3,0,2-19.5-10.9-26.5-36.4-30.3-56.8-.7-3.6.9-7.4-4.4-6.2Z"/>
  <path class="st13" d="M197.9,166.1c4.4.3,6.1,1.4,2.2,3.6.9,7.4-.7,11-4.8,10.8-8,8.2-22.2,9.3-32.9,7.4-1.8,0-7.9,1.7-5.9-2.7,1.4-3.1,13.9-14,17-18,8-.6,16.2-.6,24.3-1.1Z"/>
  <path class="st171" d="M216.5,165.6c1.8.5,1.8,1.2,0,2-3.3,3-6.8,5-10.5,5.9,7.2-2.4,12-1.7,14.5,2.2,4.3,5.1-10.3,13.6-17.6,12.7-5.7,6-17.5-4.7-7.4-8,.4-3.1,4.3-9.2,2.5-14.4,6.1-.4,12.4,0,18.5-.6Z"/>
  <path class="st81" d="M245.8,163.1c5,2.5,3.1,4.7-2.1,4.1-7.7,3.1-19.8,5.4-27.2.4,0-.8,0-1.2,0-2,9.8-.8,9.9-1.4,18.4-3.9,5.3-1.6,8.8-4.7,8.8-4.7,0,0,3.1,3.6,2.1,6.1Z"/>
  <path class="st334" d="M243.6,169.3c2.6-2,4,.8,4.2,8.3,1.9.6,1.8,1.3,0,2.1-1.1,1.6-1.6,2.4-2.7,4-6.5-.4-13-.5-19.3,1.1,7.3,10.2,7.1,11.4-1.6,20.2,4.6,1,1.5,5.7-2.2,6.4-1,.7-1.5,1.1-2.5,1.8-.5,6.8-2.7,13.1-6,4.6-9.6,4.2-10.9-7.6-8.7-15.5,1-6.4-1.7-8.2-7.8-5.3-3,2.9-5.4,1.5-7.1-4-8.3,1-12.4,1.5-20.5,2.6-1.2-1.5-1.8-2.3-3-3.8-3.4,1.9-4,1.2-1.9-1.9-.7,0-1.3,0-2,0,0-.8,0-1.2,0-2,11.1-1,22.1-4.8,32.9-7.4-.5,3.7-.4,5.9,2.9,8.1,5-5,12.4-5.1,17.8-7.8,2.8-1.4,3.6-4.7,4.3-5.1-.7-1.9-.4-4.5,1.2-4.8,6.8-1.4,15.1-1.9,22-1.7Z"/>
  <path class="st261" d="M123,229.7c3,1.1,4.6,1.6,7.7,2.7,6-3.3,7.2,1.1,4,13.4,3.5.2,6.1,2.2,8,6.2,8.2,7.6,1.8,32.3-11.6,26.4-7.1-14.7-10.5-30.6-12.1-46.7,1.6-.8,2.4-1.3,4-2.1Z"/>
  <path class="st76" d="M152.1,196.5c7.9.6,4.2,16.2-2.7,18.4-1.7-.6-2.5-.9-4.2-1.5,1.1-3.3.5-6.1-1.7-8.3-6.2,3.7-11,13-10.8,20.2,14.2-13,13.6,13.9,2,20.6-1.6-5.3-1.3-5.9.1-12.3-4,1.7-6,2.5-10,4.2,0-2.7-1.7-5.4-1.8-8-.3-6.5,3.2-21.5,7.7-26.4,6.1-6.7,14.4-5,21.3-6.8Z"/>
  <path class="st262" d="M166.4,191.8c2,5.9,1.9,21.8-2.9,26.8-.7,8.3-9.5,12.2-16.5,10.7-5.3-3.4-4-12.5,2.4-14.4,1.2-6.1,3.8-11.7,2.7-18.4,3.7-1,11.2-3.2,12.4-6.6,2.6-.1,1.8,2,1.9,1.9Z"/>
  <path class="st119" d="M252.1,144.8c-.9.3-3,7-8.3,2,.4-5.9,2.5-6.1,8.3-2Z"/>
  <path class="st92" d="M320.3,133.4c3.2,4.9.3,9.1-9,13.1,3.8,3.9,3.3,4.4-1.8,3.9-.7,4.5-4.6,6.9-11.8,7.5-2.6,7-13,12.1-20.4,7.6-5.3-1.4-5-2.2,0-4.1.9-7.2,6.8-6.4,11.2-9.8,4.6-3.5,1.9-8.9,14.8-5.5-17.5-13.2,7.2-10.9,4.6-23.2,4.2-5.5,18.6,4.4,12.4,10.6Z"/>
  <path class="st106" d="M338.8,110.8c8.4,10-9.6,22.7-18.5,22.6-.5-6.2-7.7-7.6-12.4-10.6-4.1-2.6-7.3-1.4-6.3-8.1,5,.3,10.7,1.3,15.4,1.2.7-1.4,1-2.2,1.7-3.6,7.4-.8,11.1-1.2,18.3-1.7.7,0,1.1.1,1.9.2Z"/>
  <path class="st150" d="M275.1,159.2c.1,0,2.1,1.9,2.1,2.1.2.4.3,3.5,0,4.1,2.9,3.3,1.7,4.4-2,2,3,5.1-1.4,7.5-6.2,6.1,1.1,5.8-5.3,6.8-8.4,2-5.6-.7-5.4-2.6,0-4.1-1.8-.6-1.8-1.3,0-2.1,1.7-2.9,3.8-5.6,6.2-8.2,2.3.2,6.2-2.3,8.3-1.9Z"/>
  <path class="st91" d="M312.2,104.2c.3,1.1,0,3.5.3,3.8,1.6,1.3,20.2,1.3,24.5,2.6-5.9,4.2-11.8,5.2-20,5.3-3.1-1-4.7-1.6-7.9-2.6-1.1-4,2.4-6.6,3.1-9.2Z"/>
  <path class="st303" d="M266.8,161.1c5.1,5.6-.1,8.3-6.2,8.2-1.6,1.6-6.9,1-6.3-2.1-7.6,2.6-9.6-1.2-4.2-6.2,9.7-4.1,10.4-.3,16.8.1Z"/>
  <path class="st192" d="M254.2,167.2c-2.7,2.6-4.9,6.1-6.4,10.3-.7-2.1-4-6.8-4.2-8.3-1.9-.5-.6-1.2,0-2.1,0,0,2-4,2.1-4.1.6-.6,3.1-1.6,4.2-2.1-.1,3.7,1.3,4.6,4.2,6.2Z"/>
  <path class="st121" d="M418.1,175.7c2.9-2.3,7.2-.2,5.9,4.3,4.4,9,4.2,22,1.8,31.5,1.3,6.9-.9,13.3-6.6,19.4-.4,10-3.3,24-13,28.9-6.1,10.1-15.5,19.6-19.5,29.9-1,2.7,1.2,7.3.7,7.8-2.6,2.6-3.5-1.7-3.7-1.7-1.5-.3-1.6-1.1.1-2-2.5-13.4,10.5-24.8,16.1-35.5,7.1-13.4,21.6-39.9,15.5-55.6-3.1-.8-6.2-1.8-9.3-2.8-2.8-.7-4.4-2.4-3.5-4.8,6.1-6.4,10.7-11.6,11.8-20,0-4.7,1.2-4.2,3.6.5Z"/>
  <path class="st227" d="M336.3,165.9c3.5-24.2,28.6-7.3,31.3,7.4.5,7.1,2.3,13.4,5.7,18.7,1.9-5,3.4-5.1,5.8.4,1.7.7,1.8,1.3.1,1.9-6.4-.7-13-.6-19.6-1.2.1,14.3,8.9,33.1,1.6,46.6-.3-.3-.5-.4-.8-.7,2.3-22.9-9.1-56.9-28-21.5-3.4,2.4-18.5,7.5-20.7,2.8-1.7-5.9,1.8-9.3,10.4-10.1,4.8-4.1,7.1-6.2,11.8-10.2-.6-1-.8-1.6-1.4-2.6,8.3-10,13.9-18.5,19.4-30.2-7.1,4.6-12.4,4.3-15.7-1.3Z"/>
  <path class="st176" d="M173.9,290c2.1-5.7,6.3-3.7,6.2,2.2,1.6.6,3.4,1.1,5.1,1.3,3.9.5,36.5,12.5,18.2,15.9,0-.8,0-1.2,0-2.1-2.7,2.1-5.5,2.7-8.3,1.9-7.6,1.2-17.3,2-24.2-.8-.9,5.4-2.2,10.8-3.7,16-4.1-2.6-6.2-3.9-10.3-6.6-1.7-10.3,5-11.5,7.1-19.9-9.6,1.2-11.4,8.7-21.9,3.1,0-.8,0-1.2,0-2,8.8-2.2,18.2-6.4,25.8-11.3,2.2-6.1,4.2-2.9,6.2,2.2Z"/>
  <path class="st84" d="M361.2,239.7c0,2.2.6,5.2-2,6.2-.8-.8-1.2-1.2-2-2.1,1-8.3,1.5-16.5,1.5-24.6-2.4-13.2-15.9-8.6-19.5.7-1.9.3-2.9.5-4.8.8-4,3.8-16.4,10-24.8,10-.7,0-1.3-.8-2-1.9-6-3.7-2.7-9.8,4.1-8.4,5.2-.8,16.9-4.4,20.6-7,1.8-1.3.2-4.7,2.5-7.1,1.4-1.5,12.8-11.6,13.6-11.4,14.9,3.3,13.1,32,12.7,45Z"/>
  <path class="st311" d="M303.2,294.6c9.1-5.2,12.8,6.6,3.9,10.3,4.5,2.6,2,6.7-2.3,8.3,6.1.2,6.8,1.9,1.9,6.1,5.5.6,5.2,2.3-.1,4.1-3.1-1-.9-6.8-2.9-6.1-2.6,4-8.8,5-11.5,7.6-4.6,4.4-3.1,9.9-6.6,13.4-6.4,1.4-6.3-9.9-1.8-12.3-2.9-6.6-3.5-12.8-1.8-18.7-2.6-2-1.9-2.7,2.1-2.1.1-6.4,3.4-8,8.5-4.3,1.1-6.1,4.9-9,10.6-6.5Z"/>
  <path class="st219" d="M195.1,309.2c4.2,5.3-1.2,7.4-6.5,7.7,5,3.1,9.4,7.8,3,10.7,4.1,3.9,3.6,4.7-1.9,4-.7.8-1.1,1.2-1.8,2-4.5-2.6-8.7-4.8-12.6-6.7.7,3-1.3,2.9-6-.3-.7-.7-1.5-1.4-2.1-2.1-11.6-14.1-2.3-5-.7-11.3.6-2.4-3-9.1-.3-13,6.9,7.3,19.7,8.3,29,9.1Z"/>
  <path class="st124" d="M383.9,293.8c0,.8,0,1.2-.1,2-9.7,6.7-17.5,17.5-26,25.1-7.1,6.3-15.5,12.2-23.7,17.4-4.2,2.7-13.2,6.4-18.4,9.1.3-.3-.6-4.2.7-5.5,7.6-7.5,21.8-13,31.6-20.4,5.6-4.2,13.5-11.8,18.8-16.9,6.1-5.8,7.6-15.4,17.1-10.8Z"/>
  <path class="st12" d="M113.7,312.9c1.6,2.5,5.3,7.5,6.1,9.5,1.4,3.9.3,10.9,3.5,13.2,4,2.9,20.6,1.6,25.7,9-12-.7-30,1.4-34.9-12.4-3.3-9.4.1-10.6-6.3-21.8-1.6-2.7-3.2-4.1-2.5-7.8,2,3.1,6,6.5,8.4,10.2Z"/>
  <path class="st0" d="M281.6,326.3c.4-1.9,1.1-1.8,2.1,0,.7,4.9,1.1,7.4,1.8,12.3-16,12.2-47.6,16.9-66.6,10.3.6-1.3,1.3-1.3,2.1,0,5.2.1,10.2-.7,14.8-2.3.7,1.1,1,1.6,1.7,2.6,7.5-6.8,19.6-9,29.3-6.2,4.1-3.9,6.3-8.4,6.6-13.3,1.7-1.3,2.5-2,4.1-3.3,0-1.5,1.5-1.5,4.2,0Z"/>
  <path class="st118" d="M410.6,172.9c6.8,10.1-4.5,21.7-14,24.4-5.7-1.3-11.5-2.5-17.4-3.1,0-.8,0-1.2-.1-1.9.3-1,.4-1.5.6-2.5,5.8.3,11.2-.4,16.1-1.9-1.9-3.8.4-7.5,6.6-10.8,1.7-2.6,2.6-3.9,4.3-6.4.7,0,1.1.1,1.8.2,1.7-1.4,2.4-.3,2.1,2Z"/>
  <path class="st131" d="M331.8,302.1c-5.8,8-13.9,22.3-25.3,21.4-.1-1.3.3-2.8.1-4.1,0-1.2,0-1.7,0-2.9,7.8-4.3,14.5-14.1,16.7-22.6,1.9,0,2.8,0,4.7,0,5.4-1.7,6.9,3.4,3.8,8.1Z"/>
  <path class="st55" d="M359.3,245.9c-2.1,17.2-11.7,33.7-21,47.9-7,7.8-10-4.5-1.9-4.1,7.1-14.7,11.9-28.4,14.6-44.5,1.7-1.4,2.6-2.1,4.3-3.5,1.2-4.6,2.5-11.7-.8-15,1-.6,1.5-.9,2.6-1.5-.9-2.4-.9-4.5-.2-6.1.5-1.8,1.2-1.7,2,0,.9,6.6,1.2,20.2.5,26.7Z"/>
  <path class="st187" d="M414.5,175.2c5.5,9.7-9.7,15-8.3,24.7-2.9-.9-6.7-1.9-9.6-2.6,1.8-8.3,10.6-6.1,13.6-14.5,1.2-3.4,1.5-6,.4-10,.3-1.5.9-1.4,1.8.2,2.2-1.5,3.2-.4,2.1,2Z"/>
  <path class="st211" d="M175.3,326.8c7.7,5,17,8.8,25.5,11.7,1.4.5,1.7,2,1.5,3.6,4.5-2.1,17.5-1.2,18.6,4.6,1.8.6,1.8,1.3,0,2-.7,0-1.4,0-2.1,0-18.4-1.7-36.8-8.3-49.6-22.2,1.9-.1,4.2.5,6,.3Z"/>
  <path class="st315" d="M336.3,289.7c.2,1.6-5.7,5.2,1.9,4.1-2.7,4-3.7,5-6.4,8.4-1.5-3.2-2.3-4.8-3.8-8.1-7-3.2,1.7-13.1,6.4-8.4,3.8-.8,4.1.9,1.9,4.1Z"/>
  <path class="st169" d="M374.7,315.8c-1.8,0-2.7,1.3-4,2.2-5.7,4.3-9.8,10.1-16.5,12.9-.2-.2-4.3,3.2-5.8-.6,6.8-5.2,18.5-9.1,20.8-18.1,4.3-1.7,4.1,2.6,5.5,3.5Z"/>
  <path class="st54" d="M424,180c7.3-1.5,8.9,10.5,8.9,16.1,4.2-2,7.2-1.3,9.3,1.8-1.7,8.8-2.7,13.4-5,22.7-8,13.5-14.5,28.2-19.6,43-2.4.2-1.9-1.7-1.8-3.8-1.4-1-2.1-1.6-3.5-2.6,2.6-9.7,6.9-19.5,10.8-28.4.1-.2-1.3,5-3.8,2.2,1.6-10.4,6.1-20.4,6.7-30.7.4-6.7-2-14.3-2-20.2Z"/>
  <path class="st90" d="M415.7,259.7c-2.3,5.4-11.1,6.6-9.5.1,4.7-9.5,7.7-19.9,13-28.9.4-.6,6-8.9,5.3-2.8-1.3,10.7-7.4,20.6-8.8,31.6Z"/>
  <path class="st177" d="M431.2,170.7c3.4-.8,10.4,6,14.5,5.7-3.2-3.1-4.9-4.7-8.2-7.9,9.6,1.7,14.4,2.6,23.6,4.5.9,3.8,1.3,5.8,2.1,9.7-6.7,6.1-11.2,10.8-21.1,15.2-2.2,1-4.9.2-7.7,2.7-3.7,3.3-3,9.6-7,12.1.9-11.1,4.7-23.1-3.5-32.6-3.7-3.9-1.1-7.1,7.2-9.3Z"/>
  <path class="st163" d="M447.6,129.7c-4.1-3.3-5.6-7.3-8.1-10.6,1.4-1,2.1-1.4,3.3-2.3,4.8,5.5,3.8,10.1,4.8,12.8Z"/>
  <path class="st246" d="M432.1,128.7c-.3,7.5,7.8,9.2,2.6,13.9-3.7,3.4-10.2.3-9.3,7.2,5.8,2.5,8.6,3.7,14.3,6.2-4.7-1.5-14.7-5.8-15-1.5.3,4.6-3,3.7-5.2-1-5.8,0-8.4-1.5-7.7-4.8-1.6-.8-1.7-1.4-.3-1.7.9-4.6,3.7-8.1,8.4-10.4,3.1-5.9,7-8.4,12.2-8Z"/>
  <path class="st267" d="M419.6,153.6c1.4.1,3.9.5,5.2,1,1.7.6,5.5,3.7,7.6,4.7-2.1-.4-3.1-.6-5.2-1-.4.3,7.8,8.9,3.7,10.6-.2,1.4-.8,1.3-1.7-.3-4.3-4.7-5.2-3.8-2.9,2.9.3,3-2.4,4.3-8.1,4.1-.8-.5-2.8,0-3.6-.5-1.2-.7-1.4-.5-2.1-2-4.8-3.8-8.4-8.9-5.5-13.1,2.9-7.7,7-9.7,12.6-6.4Z"/>
  <path class="st321" d="M418.1,175.7c-2.2-5.2-3.2-7.8-5.5-13,6.6,1.3,8.7,3.7,8.6,9.9,3.3,1.4,3.6-.2,5-1-2.1-4.6-1.6-5,2.9-2.9.7.1,1.1.2,1.7.3.1.7.2,1,.3,1.7-1,.3-7.2,6.8-7.2,9.3-.8-.9-4.6-3.5-5.9-4.3Z"/>
  <path class="st28" d="M432.6,126c-1,1.1-.5,2.5-.6,2.6-5.1,6.3-10.3,14.4-20.5,18.4-11.6-2.5-2.3-14,1-17.7-1.9-3-.1-4.7,4.9-4.9-3.6-4.8-.4-5.9,4-1.9.6-.1,2.4,1,3.2.9,4-.1,7.7-2.2,8,2.4Z"/>
  <path class="st333" d="M443.1,132.1c2.7,3.7,4.8,6,7.9,10.6,3.2,7.4-10.3-3.6-12.8-3.7-1.5-1.8-.7-12.1,4.9-6.9Z"/>
  <path class="st53" d="M375.8,103.2c14.6,3.6,28.8,9.1,42.4,15.4,4,1.8,4.8.5,3.2,4.1-1.3.2-2.7,1.3-4,1.9-4.8,3.4-10.2,3.8-15.5.9-9.8,2-24.5-2.3-33.3-6.8.3-1.9.5-2.9.8-4.8-3-5.4,1.6-10.4,6.3-10.5Z"/>
  <path class="st186" d="M372.3,102.5c1.2.2,2.3.5,3.5.7-1.5,3.8-4,7-6.3,10.5,3.2,5.9,2.3,7.5-2.7,4.8-5.3,2.2-7.2-1.1-4.5-6,2.2-3.4,5.1-7.4,6.6-10.8,1.4.3,2.1.4,3.5.7Z"/>
  <path class="st295" d="M353.8,114.7c.5,2,1.6,3.9,2.6,5.8,5.1.8,3.5,3.2,2.6,1.8-1.4-2.4,8.9-.7,8.9,3.5,10.6-1.3,16.6,6.9,6.9,10,9,7.6,8,18.3-.8,21.8-1.5,1.2-3.5-.3-4-2.3-1.6,3.6-4.1,4-7.4,1.1-3.5,2.2-16.9-3.3-16.1-9.2-5.2-.4-8.5-1.9-10-4.7-7.3-1.9-10.4-6.9-7.1-12.1,4-6.2,15.4-16.6,24.4-15.7Z"/>
  <path class="st155" d="M348.8,105c7.8,2.6,10.2,3.9,5,9.7-2.4,2.7-9.2,7.5-13.4,11.8-.9.9-3.8.2-5.3,1.8-2.3,2.6-5.3,11.9,1.4,14.1-.9,1.4-2.1,2.6-3.6,3.6.7,4.7-3.1,5.2-11.2,1.5-4.4,1.8-7.9,1.5-10.4-1,3.7-3.8,6.9-10.9,9-13.1,6.7-7.1,17.8-11.3,18.5-22.6.3-4.3,7.9-4.5,10-5.8Z"/>
  <path class="st248" d="M362.3,112.5c-.4,3.2,3.1,4.3,4.5,6,2.1-.5,4.2,2.7,3.6,2.4-5.4-2.5,12.5-.6,9.9,5.2.6,4.8-4.1,5.2-6.9.2-2.2-.2-3.3-.3-5.5-.5-2.2-.2-10-1-10.9-1.8-.8-.6-.2-2.7-.6-3.5,2.1-2.5,4.2-5.3,5.9-8Z"/>
  <path class="st16" d="M142.7,252.1c-3.8-8.2,5.5-6.2,6.1,2.1,3.9,1.9,3.9,4.4,0,6.2.7,5,.3,11.5-3.8,14.4,3.1,3.8-5.2,12.4-9.6,11.9-.6,1.4-1.2,1.2-2,0-.9-1.5-1.2-5.9-2.3-8.1,12.2-4.3,17.5-14.2,11.6-26.4Z"/>
  <path class="st331" d="M165.4,275.2c4.6,1.8,5.3,9.5,2.3,12.5-.2.2.8,2.9-.2,3.7-4.2,3.7-19.5,11.5-25.6,7.6,0-.8,0-1.2,0-2,6.2-5.3,11.4-11.9,15.4-19.9-.1-6.7,1.7-14.5,8-10.3,5.5,2.4,5.2,5.9.1,8.4Z"/>
  <path class="st324" d="M165.2,254.2c4,1.9,4,4.4,0,6.3,4,1.9,4,4.4,0,6.3-5.5,1.1-2.9,7.4-4.1,10.3,0,.2-2-1.2-3.9,0-2.6,7.3-10.2,17.8-17.5,17.8-6.1-3.8-6.3-8.3-6.3-8.3,0,0,1.5-.2,2,0,4.3.4,12.4-9.3,16.8-16.6,1.4-5.6,4.1-11.3,8.1-17.1,1.9-.3,2.9-.5,4.8-.9,1.6.4,1.5,1.1,0,2.1Z"/>
  <path class="st102" d="M157.2,277.1c1.6,9.5-5.4,21-15.4,19.9-.8,0-1.5-1.8-2.1-2.1,3.4-6.7,11-13.4,17.5-17.8Z"/>
  <path class="st256" d="M216.4,167.6c9-.5,18.1-.2,27.2-.4,0,.6,0,1.4,0,2.1-6.7,3.2-17.6,2.9-23.2,6.5-7.5,1-11.3,1.5-18.8,2.5.1-4.1.2-6.2.3-10.3,4.8-.3,9.6-.2,14.5-.4Z"/>
  <path class="st112" d="M166.4,191.8c6.3-.4,23.7-3.6,27.7-3.1,2.3.3-.5,7.3,2.9,8.3,3.4,2.3,2.2,4.3-2.2,4.2-3.4,2.9-8.6,5.5-15.4,7.6-4.8,12.2-10.1,16.9-16.1,14-2.4.5-2.4-.9,0-4.2,0-9.3-3.5-16.8,2.9-26.8Z"/>
  <path class="st229" d="M247.9,179.6c1.2-2.1,2.6-1.4,4.3,2.1.7-1.8,1.4-1.8,2.1,0,.9.8,1.3,1.3,2.1,2.1.1,4.9-2,9.4-6.5,13.4,0,2.2,0,3.3,0,5.5,3.1,2.8,1.8,4-2.2,2.1-3.4.6-7.4-.3-11.9-2.8-4.3,1.7-8.2,2.7-11.7,2.9.9-2.8,3.8-6.7,3.3-8.4-1.1-4.1-6.6-11.8-11.5-11.4,9-6.7,21.1-6.6,31.8-5.5Z"/>
  <path class="st123" d="M197,197c8.3-15.1,14,5.9,10.2,14.5,2.5,2.5,3.7,3.8,6.3,6.3,4.8,6,10.7,15,2,19.2,0,5-5,2.3-8.5,0-2.8,1.6-4.2-2-4.2-10.7-1.5.2-2.3.3-3.8.5-1.1,7.9-5.8,23-11.1,10.3-1-1.4-1-2.9,0-4.3,3.1-5.3,3.8-8.8,2.2-10.6-1.8-1.5-2.4-5.1-1.9-10.5-6.2-4.7-1.1-7.9,6.2-7.6.1-1.2.2-1.8.3-3,.8-1.4,1.5-2.9,2.2-4.2Z"/>
  <path class="st335" d="M247.8,204.9c4.3,4.4-3.4,11.1-8.6,8.5-4.4-4.2-9.2-2.4-14.5,5.7-1.9-.5-2.9-.8-4.8-1.3-1.9-1.8-.7-6,2.2-6.4.3-1.2,1.6-4.4,2.2-6.4,7.3-7.7,17-9.8,23.6-.1Z"/>
  <path class="st19" d="M222.1,211.3c-.5,2-1.9,3.6-2.2,6.4,3.4,1.2,5.3,4.7,5.7,10.5,3.7,4.5,6.1,8.9,7.1,13.1,3.1,3.1,2.4,4.5-2.2,4.3-.6,1.9-1.3,1.9-2.2,0-4.5,5.1-8.8,2.2-12.8-8.6,3.1-9.4,4.3-11.6-6.3-12.8-.6-.8,3-5.2,4.3-6.4.3-.3,2.9.8,3.9-.5,1.6-2-1.7-7.6,4.7-6Z"/>
  <path class="st136" d="M260.6,169.3c0,.8,0,1.2,0,2.1-3.7,2.7-6.5,6.2-8.5,10.3-1.9-.4-4-2.1-4.3-2.1,0-.8,0-1.2,0-2.1-1.1-7.6-.1-7.7,6.4-10.3.4.2,6,2.1,6.3,2.1Z"/>
  <path class="st95" d="M222.1,209.2c-7.8,1.8-7.5-10.4-3.1-10.5,2.9,0,3.8,7.5,3.1,10.5Z"/>
  <path class="st108" d="M134.7,245.9c-.6-5.5,8.9-13.6,8.2-17.5-1.6-9.3-12.9,7.4-14,.2-1.7-11.4,6.6-26.6,19-29.8.5,6.4.8,9.6,1.4,16.2-1.1,5.2-1.5,9.5-2.4,14.4,1.3,1.3,2,2,3.3,3.3-2.2,4.9-2.7,10-1.5,15.3,5.3,2.2,5.1,3.6,0,6.3-3.5-7.7-4.6-2.3-6.1-2.1-6.3.7-6.3-.4-8-6.2Z"/>
  <path class="st147" d="M163.4,222.7c6.9,2.3,4.2,6.2-.2,10.4-3.7,5.3-7,10.9-10.1,16.8-1.7-.8-2.6-1.2-4.3-2.1-9.2-5.7-2.9-12.5-1.8-18.6,3.5-6,11.5-4.3,16.5-10.7,0,1.4-.2,2.8,0,4.2Z"/>
  <path class="st50" d="M332.9,146c9.8-3.1-1.3,14.1-6.2,16.3-4.8,2.1-15.6,1.8-12.9-5.7-5.4.7-5.1-2.1-4.3-6.2.2,0,.3-2.4,1.8-3.9,8.4-4.2,11.7-4,20.7,1.3.4-.7.6-1.1.9-1.8Z"/>
  <path class="st79" d="M309.5,150.4c3.8.6,3.5,5.3,4.3,6.2,1.6,5.1-3.3,7.3-7.8,5.7,4.1,3.9,3.6,4.6-1.9,4-2.3,2.6-3.7,1.2-4.2-4.2-.4,1.7-1.1,1.6-2,0-2.5.8-2.6-.6-.1-4.1,7.2-11.2,4.1-4.4,11.8-7.5Z"/>
  <path class="st10" d="M297.8,161.9c-.7,8.3-10,20.9-16.2,9.8-3.6,5.2-8.9,1.7-6.3-4.2.5-.5,1.7-.6,2-2,7.5-5.1,16.2-1,20.4-7.6,0,1.6,0,2.4.1,4.1Z"/>
  <path class="st286" d="M269,173.5c3.9-3.4,8.2,1,10.6,4.3,1.6,4.1,4.5,7.6,8.6,10.5,9.5,7.6,2.1,20.2-6,25.2-3.9,4.8-12.8,2.2-12.8-4.3-2.5-5.4-6.6-10.3-12.2-14.7,3.2-5.4,3.3-10.6-2.9-12.7-1.1-4.4,1.9-7.1,6.3-6.2.7-.4,7.9-2.2,8.4-2Z"/>
  <path class="st310" d="M281.6,171.7c9.7,1.9,5.1,11.4-2,6.2-5.6,2.7-9.9-4.1-10.6-4.3.7-3.4,4.9-4.5,6.2-6.1,1.1,2.5,5.2,3.1,6.3,4.2Z"/>
  <path class="st96" d="M260.6,171.4c0,1.7,0,2.5,0,4.1-.4.3-.5,5.2-6.3,6.2-.7,0-1.5.1-2.1,0-2.5-8.8-1.9-11.3,8.5-10.3Z"/>
  <path class="st97" d="M334,200c-3,3.5-24.6,21.8-20.4,3.5-1-7.1,2.4-15.6,7.6-20.4-6.4-6.4.3-12.6,7.4-13.8-.7-2.9,5.5-7.1,7.7-3.5,1.7-.5,5.5,1,8.4.2,2.5-.7,10.3-9.9,11.1.1,1,12.7-13.5,25.6-21.8,33.8Z"/>
  <path class="st86" d="M334,200c-2.6,2.6-4.8,6.1-7.9,9.1-4.6,4.4-9.9,5.5-14.3,11.2-2.1,2.7-3.5,4.9-4.1,8.4,5.5.9,5.2,2.4,0,4.3,5.5,10.1,4.8,22.8-2.1,32.1,2.4,1.5,2.7,2.7,0,4.3-11.9,1.3-12-18.5-8.4-25.7-2.8-.3-4.2-.5-7.1-.9-1.8-8.7-2.1-23.4,2.6-31.2,1.5-5.9,7.1-6.1,8.4.1,4.9,2.4,9-.3,12.3-8.1,4.5,16.1,12.1-2.5,20.4-3.5Z"/>
  <path class="st24" d="M346.5,147.2c4.9,2.5,11.4,6.3,16.1,9.2,1.6.4,2.3,1.1,2.1,2.1,6.9,6.2,21.1,26.6,8.6,33.4-2.6-.3-5.2-.2-7.8-.5,1-16.5-9.5-50.3-29.2-25.5-1.8.5-6.3,2.5-7.7,3.5-2.2,1.5-3.6,1.4-4-.2-1.8-2.2-.5-3.5,3.8-3.8,1.6-5.4,4.3-10.9,8.1-16.4-3-4.6.4-5.2,10.1-1.7Z"/>
  <path class="st39" d="M376.7,165.4c1.3-.7,2-1,3.3-1.7,5.1,5.3,7.9,7.8,14.3,9.2,1.4,1.3,2.1,1.9,3.4,3.2-2.4,5-3,9-1.9,11.8-.5.5.7,4.4-2.6,5.2-3.4.8-9.9-.5-14.2-.8-1.9-.1-3.9-.2-5.8-.4,3.1-11.4-4.2-23.5-8.6-33.4,2.4-2.3,10.1,3.4,12,6.9Z"/>
  <path class="st201" d="M188,252.1c6.7-5.5,14.5,4.8,8.4,10.7.2,1.9.3,2.8.6,4.7-8.6,5-11.2,11.5-12.8,20.6,3.1,0,5.2.7,6.3,2.2,1.2,5.5-2.3,6-10.3,1.9-1.3-.7-4.5-1.7-6.2-2.2-5.1-3-7.6-13.8-2.4-16.7-3.6-5.1,2.5-13.8,8.2-10.5,2-1.5,3.8-3.1,5.3-5-3.7-2.5-1.3-5.3,3-5.6Z"/>
  <path class="st167" d="M190.5,290.3c8-16.1,20.4,3.2,14.8,6.9-2.6,1.7,5.6-11.5,10.5-4.4,6.1,3.9,7.9,21.1-1.8,20.9-2.8,6-13,2.1-10.5-4.4,6.8-8.7-4.2-6.5-7.8-8-6.7-2.7-10.8-6.9-15.5-9.2,4.7,1.1,6.5,0,10.3-1.9Z"/>
  <path class="st270" d="M203.4,307.3c2.1,5.8,4.9,14-1.6,18.5,2.8,2.8,1.6,4-2,2-.5,5.1-6.4,3.9-8.2-.3.4-6.5-7.8-7.8-9.6-10.5-6.4-9.8,4.2-4.2,7.9-4.4,3-.1,3.8-2.6,5.2-3.5,3.6-2,5.3-6.4,8.3-1.9Z"/>
  <path class="st183" d="M203.4,309.4c1.6,1.9,8.1,4,10.5,4.4,3.1-5.5,9.5-5.6,12.6.2-4.5,7.7-15.8,15.4-24.8,11.9.6-5.8-2.7-14.4,1.6-18.5.3.5-.3,1.7,0,2.1Z"/>
  <path class="st258" d="M173.9,290c-1.1-.4-6-2.4-6.2-2.2-2.6-3.9-2.1-8.2-2.3-12.5.6-5.6,2.3-6.1,6.1-2,.9,6.7,1.4,10.1,2.4,16.7Z"/>
  <path class="st251" d="M358.8,219.2c-.8,0-1.2,0-2,0-3.6-2.3-6.9-1.1-10,3.9,3.3,1.5,2.7,4.9-1.8,10.3-4.7,1.5-8.5-1.8-7.5-7.1-1.1-.6-1.7-.9-2.8-1.4-5.6-.5-5-1.9,0-4.2.6-1.5,3.8-9.5,4.2-9.8.5-.4,12-4.1,12.7-4.1,5.6,0,6.8,8.3,7.4,12.5Z"/>
  <path class="st180" d="M334.5,220.6c-.4.9.3,2.9,0,4.2,4,4.9,1.3,9.1-4,10.4,4.6,3.8,3.9,6.6-2,6.3-2,1.9-2.7.4-2.1-4.2-.9-.9-1.3-1.4-2.2-2.3-5,3.6-13.8,4.2-16.6-2.1,0-1.4-.2-3,0-4.3,8.9-2.7,17.9-5.4,26.8-8Z"/>
  <path class="st185" d="M317.9,288.1c3.8-11.5,25.8-14,16.6-4.5,1.7.6,1.7,1.3,0,2.1-5,1.3-4.8,6-6.4,8.4-5.7,9.1-10.9,20.5-21.3,25.4-.3-2-1.9-5.4-1.9-6.1,4-3.3,4.8-6.1,2.3-8.3.4-4.6,2.2-11.9-3.9-10.3-1.8-.6-1.8-1.3,0-2.1,1.1-3.9,3.6-5.7,5.3-2.2,3.7-.9,5.6-1.3,9.3-2.3Z"/>
  <path class="st254" d="M284.5,256.5c3.6,2.7,4,6.8,1,12.4,7.7,1.1,13.7,3.3,17.9,6.7.5,1.7.8,2.6,1.3,4.4-3.8,3.5-4.3,7.7-1.5,12.5,0,.8,0,1.3,0,2.1-2.7,3.4-7,4.5-10.6,6.5-3.7-.8-7.3-6.8-8.3-10.4-4.3-3.6-6.4-9.2-6.3-17-4,4.1-4.5,3.5-4.3-2.1-6.3-3,7.2-14.2,10.7-15.1Z"/>
  <path class="st87" d="M278,273.7c3.1,3.2,2.5,6.1,4.2,9.2,1.2,2.2,7.6.3,2.1,7.8-.1,2-.2,2.9-.3,4.9-4.4.5-4.3,3.8.1,9.9-.8.4-1.4,1.7-2.1,2.1.4,6.6-7.7,10.4-12.8,6.4-7.7,2.3-6.9-6.1-6.2-12-9-1.2-8.3-3.9-4.3-11.1-3.4-5.2-1.7-7.8,4.3-6.4,8.3,3.4,9.1,0,10.9-8.3,1.7-1,2.5-1.5,4.2-2.4Z"/>
  <path class="st297" d="M283.7,326.2c-.7.1-1.4,0-2.1,0-8-2.8-11.9-2.2-18.9,2.3-9.9,10.9-23.1-8-6.3-8.3-2.2-4.6.7-6,8.5-4.2-.7-4.1,1.1-5,4.3-2.1,4.3-2.4,8.6-4.1,12.8-6.4,5.9,4.3.3,11.6,8,15.4-1.8,2.9-3.6,2.6-6.3,3.2Z"/>
  <path class="st206" d="M284.3,290.7c.4-.1,5.3,2.4,8.5,0,0,4.2,0,6.3-.2,10.5-2.8,1.5-5.7,2.8-8.5,4.3-5.9-2-8.8-3-14.7-5.1,0-.9,13.4-9.2,14.9-9.7Z"/>
  <path class="st230" d="M307.1,305c4.2-.5,6.2-.8,10.3-1.4-4.1,4.1-5.3,10.8-12.6,9.7.2-3.8,2.2-6.7,2.3-8.3Z"/>
  <path class="st154" d="M189.7,331.5c3.4-2.9,12.4-.5,14.5,4.6,3.4-4.3,5.3-3.3,4.2,2.2.8,3.3-3.1,3.8-6,3.8-10.2-2.6-21.3-5.6-27-15.3.6,0,1.6-2.6,4.4-1.6,1.5.5,6.4,4.5,9.9,6.3Z"/>
  <path class="st242" d="M199.8,327.8c6.3-3.8,10.6,5,4.4,8.3-7.2-1.9-6.3-.4-14.5-4.6.7-.9,1.4-3.8,1.9-4,.8-.2,7.4,0,8.2.3Z"/>
  <path class="st211" d="M256.4,320.3c-2.1,1.3-5.6,3.9-6.4,6.2,4.4,0,8.4,2,12.7,2,2.4-2.7,3.8-2.7,4.2,0,6.4.7,5.7,12.8-.2,14.4-8.8,3.8-19.7,5.8-29.3,6.2-3.1.6-3.5-1-1.3-4.6-5-4.1-5.4-7.3-1-9.7.6-1.8,1.3-1.8,2.1,0q4,2.4,0,0c-9.5-9.4-10.3-12.9-2.2-10.3,2.1-6.3,5-9.1,8.4-8.3,5.3-.2,9.6,1.2,12.8,4.2Z"/>
  <path class="st154" d="M235.2,334.8c1.4,3.3,1.7,10.5,2.2,14.3-5.2.3-11.4,0-16.5-.3,0-.8,0-1.2,0-2,1.9-2.4,1.8-5.1-.2-8.1-11-8.6,7.4-20.6,11.7-9.3,4.2.8,5.8,2,2.9,5.5Z"/>
  <path class="st1" d="M277.4,326.4c.2,6.1,0,12.8-5.9,16.1-1.4.8-3.8,0-4.8.5,0-5.7.1-8.6.2-14.4-.3-5,8-6,10.5-2.2Z"/>
  <path class="st311" d="M281.6,326.3c-1.4.2-2.9-.1-4.2,0-2.7.5-9.5,2.2-10.5,2.2-1.4,0-2.8,0-4.2,0,6.1-10.8,10.3-8.6,18.9-2.3Z"/>
  <path class="st252" d="M374,157.6c2.6-4.2,10.9-2.9,11.5,3.2,2.2-3.8,6.1-2.1,11.6,5.1,1.8-4.9,12.2-.5,11.5,5.1-.6-.2-1.2-.2-1.8-.2-.1,4.1-9,5.9-12.5,2.2-1.8.7-3.6,3.6-5.9,2.9-1.7-.5-8.6-8.3-11.7-10.4-9.1-7.3-11.3-10.7-6.7-10.1,1.3.6,2.7,1.8,4,2.3Z"/>
  <path class="st114" d="M402.2,152.3c1.9,3.1,2.9,4.6,4.8,7.7,3.4,4.3,3.9,9.6,5.5,13.1-.7,0-1.1-.1-1.8-.2-.7-.5-1.6-1.9-2.1-2-3.5-2.3-7.8-3.6-11.5-5.1-11.9-3.4-6.9-19.2.9-17.6,2.8-3.3,6.1.3,4.2,4.2Z"/>
  <path class="st5" d="M406.7,170.7c5.5,7.5-7.1,13.3-10.9,17.2-8.4.4-1.9-9.8-1.6-15,5.7-2.2,4.7-3,12.5-2.2Z"/>
  <path class="st218" d="M346.8,223c5.7-8.5,9.2-9.3,10.1,2.3.4,4.9,1.6,13.2-1.8,16.5-1.6-1.7-2.4-2.5-4-4.2-.2,13.2-3.5,26.3-10.4,37.6-4.9-.6-9-4-12.2-10.3-4.4,2.5-5.1.4-2-6.3-4.8-3.2-1.6-13.6,2.1-17,.4-1.6,1.4-4.3,2-6.3,3.4-8.6,9.6-4.9,14.3-1.9.8-1.8,1-7.3,1.8-10.3Z"/>
  <path class="st247" d="M340.8,275.1c3.1-15.9,5.4-32,8.2-48,2.4,0,3.6,0,6,.1,0,4.8.4,9.7.2,14.5-.5,17.2-7.5,35.1-18.9,48,0-.5-2-2.2-1.9-4.1,0-.7,0-1.4,0-2.1,1.4-1.4,2.1-2,3.5-3.4-3.8-2.5-1.4-4.9,2.8-5Z"/>
  <path class="st47" d="M346.8,223c2.4-8.7,7.5-16.6,10-3.9.4,1.8,0,4.1.2,6.1-.9-2.5-1.3-3.7-2.2-6.2-3.2,1.5-4.8,2.3-8,3.9Z"/>
  <path class="st9" d="M208.3,338.3c1.7-5.2,10.2-5.2,12.4.3,5.5.4,9.7,3.4,14.7,5.4,1.1,5.1-11.7,3-14.5,2.8-7.7-.7-11.7-2.6-18.6-4.6.8-2.9,3-3.9,6-3.8Z"/>
  <path class="st37" d="M412.5,129.4c3.2,7.4-7.2,10.6-1,17.7.1.7.2,1,.3,1.7,2.9,4.7-5.9,8.1-9.7,3.5-1.7-1.7-2.5-2.5-4.2-4.2-4.8-4.2-.2-12.2,2.4-14.9-2.4-5.2,8.1-7.4,12.2-3.8Z"/>
  <path class="st157" d="M419.6,153.6c-12.6-1,1.3,10-12.6,6.4-7.4-1.9-10.6-4.4-4.8-7.7,1-.5,9.1-3.6,9.7-3.5.4,0,6.4,3.8,7.7,4.8Z"/>
  <path class="st146" d="M426.2,171.6c-12.3-9.1,2-14.3,2.9-2.9-.4,1.6-1.6,2.2-2.9,2.9Z"/>
  <path class="st287" d="M417.5,124.5c-1.8.9-4.3,4.7-4.9,4.9-2.4.9-8.8,2.7-12.2,3.8.4,5.4-5.2,6.2-9.9,1.5-5.6-4.4-2.3-6.1,2.2-6.4-1-3,2.2-4,9.3-3,5.1-.7,10.2-1.4,15.5-.9Z"/>
  <path class="st236" d="M369.4,113.8c0,5.6,3.4,3.5,6.8,4.6,8.9,2.9,17.3,5.8,25.7,7-2.5.3-7.8,3-9.3,3-2.5,4.2-8.3,3.7-12.4-2.3-2.6-4.3-10.3-2.1-12.8-4.1-.9-.7-.4-3-.7-3.4,1.1-1.5,1.7-3.3,2.7-4.8Z"/>
  <path class="st191" d="M389,136.3c5.6,4.7,2.7,24-3.5,24.5-4.1-1.6-8.3-2-11.5-3.2-2.4-5.2,4-7.6,4.1-9.9,0-.6-3.1-5.9-3.3-11.9,3.2-2.3,10.1-3.8,14.2.5Z"/>
  <path class="st80" d="M336.5,142.5c4.7,1.5,6.2,2.8,10,4.7-3.8,0-5.6,0-9.4,0,3.9,7.9-3.4,13.8-8.8,18.1-13.8,6.3-21.5,5.5-22.3-3.1,2.1-3.4,4.1-4.6,7.8-5.7,9.3,10.1,13.4,0,18.3-6,1-1.3,6.1.6.8-4.5-2-2-5.1-2.1-4.3-6.2,2.8,2,5.3,1.8,7.9,2.6Z"/>
  <path class="st78" d="M380.2,126.1c3.8.3,9.1,2.3,12.4,2.3-.8,2.5-1.3,3.8-2.2,6.4,2.9,2.9,2,3.8-1.5,1.5-4.6.9-8.7,3-14.2-.5,0-2.9,1.4-5.5.4-8.8-2.9-.5-4.3-.7-7.3-1.2,2.8.2,8.3,0,12.3.3Z"/>
  <path class="st59" d="M370,155.3c-.7.3-1.1.4-1.8.7,1.8,2.6,12.6,7.5,8.5,9.3-3.7-2.6-8.2-4.4-12-6.9-.8-.5-1.4-1.7-2.1-2.1,5.2.9,3.9.6,1.5-3.6,3.1-.9,4.6,1.9,5.9,2.5Z"/>
  <path class="st223" d="M163.2,233.2c.8,3.3,1.2,5,2,8.4,4.3,2.3,4.4,8.3,0,10.6-2.5,5.9-3.7,8.8-6.1,14.6-1.6-1.7-2.5-2.5-4.1-4.2,1.4,10.1-8,20.9-15.7,25.4-3.3,2-3.2-.8-3.9-1.2,4.4-3.3,6.4-7.9,9.6-11.9,4-3.7,4.4-8.9,3.8-14.4,0-2.1,0-4.2,0-6.2,0-1.9-.4-4.9,0-6.3.2-.6,2.8-1.4,3.4-2.7,2.7-6.3,0-9.8,11-12Z"/>
  <path class="st108" d="M148.9,260.4c0,.6,1.8,2.6,1.8,5.1,0,10.8-5,8.6-5.6,9.3,1.5-5.7,2.2-8.6,3.8-14.4Z"/>
  <path class="st194" d="M179.7,260.6c1.8.6,1.8,1.3,0,2.1-1.8,1.2-6.1,8.8-8.2,10.5-1.6,1.3-4.1,1.7-6.1,2-.1-2.8,0-5.6-.1-8.4,0-2.1,0-4.2,0-6.3,1.9-8.4,11.4-7.1,14.5,0Z"/>
  <path class="st101" d="M179.7,243.6c-1.2,1.8-.7,4.7,1.6,9,6.2,2.5,4.4,9.1-1.6,8.1-5.1-.4-10-3.6-14.5,0,0-2.1,0-4.2,0-6.3,2.5-5,3.5-7.5,2.1-12.7,3.1-7,6.6-10.5,10.4-10.6,6.8-.9,8,11.2,2,12.7Z"/>
  <path class="st337" d="M167.2,241.5c7.3,3.1,4.3,9.6-2.1,12.7,0-.7,0-1.4,0-2.1,0-3.5-.1-7.1,0-10.6.6-1.8,1.3-1.8,2.1,0Z"/>
  <path class="st125" d="M194.8,201.2c7.5,3.4,4.1,9.2-2.3,12.6-.8-3.3-1.2-5-1.9-8.3,0,2.3-1.4,4.2-2.2,6.3,1.5,5.2,0,15.9-6.5,12.7,1,5.7-.3,6.3-4.2,2.2-4.5,5.2-8.7,10.2-12.5,14.9-3.4-1.6-1.8-5.1-2-8.4-.2-3.5.4-7,.2-10.4,7.7-2.1,10-14.1,13.6-17.1,3.5-2.9,13.7-6.3,17.9-4.4Z"/>
  <path class="st259" d="M258.6,204.9c21.6,7.8,2.8,23.7-8.6,27.8-2.8,3-15.1,3-17.5.8-4.8-4.5-1.2-21.9,6.7-20.1.8-1.3,6.9-7.3,8.6-8.5.8-.6,1.8-2,2.2-2.1.7-1.9,1.4-1.9,2.2,0,1.7-6.5,7.9-4.4,6.5,2.1Z"/>
  <path class="st339" d="M254.3,181.7c11.7,1.4,3.7,1.1,6.8,11.1,1.9,6.1,15.5,6.2,8.3,16.3-2,2.7-5.6,1.3-10.7-4.3-1.9-.6-2.2-2.1-6.5-2.1-4.7-2.6-3.7-6.7,3.1-12.1.5-2.7.7-4.1,1.1-6.8-.2-.5-2.7-.4-2.1-2.1Z"/>
  <path class="st149" d="M256.4,183.8c6.2,13.8-9.5,7.1-4.3,18.9-.7,0-1.6-.2-2.2,0-1.7-2.1-2.6-3.2-4.3-5.3,6.9-3,6.9-8.2,10.7-13.6Z"/>
  <path class="st241" d="M188.1,232.9c0,1.4,0,2.9,0,4.3,6.5,2.8,5.3,7.5,2.1,12.8-.8.9-1.3,1.3-2.1,2.1-2.3,15.3-4.8,8.4-8.3,10.6,0-.8,0-1.3,0-2.1,1.7-1.7,2.5-2.5,4.2-4.2-6.9,2.5-7.9-5.9-8.4-11.7-.2-2.3,3.7-.5,4.2-1.1,3.2-3.9,4.2-6.2,2.6-11.8,1.5-1.2,2.3-1.8,3.8-3.1.6-1.9,1.3-1.8,2.1,0,2.1-.2,2,1.2,0,4.2Z"/>
  <path class="st17" d="M202.8,226.4c3.1,3.9,2.5,8.7-2.2,10.7,5.5,2.1,3.9,7.1-2.1,6.4-2.8,8.6-5.6,10.8-8.4,6.5-1.5-4.2-1.9-8.4-2.1-12.8,5.7,3.9,3.2,1.8,5.1-2.2,2.2-4.5,4.1-10.1,5.5-14.9,3.4-.3,3.8,6.1,4.1,6.3Z"/>
  <path class="st175" d="M202.8,226.4c1.9,1,10.4-1.9,12.7,3.1.7,1.5-9.2,2.5-10.3,6.4-.1.5,1.7,1.1,1.7,1.1.5.6,1.8,1.2,0,2.1-2.3,6-7.2,4.2-6.3-2.1.7-2.9-1.7-8.9,2.2-10.7Z"/>
  <path class="st302" d="M190.3,222.3c3,1.6.9,5.4-2.2,6.4-.8,0-1.3,0-2.1,0-4.9,3.4-6.3,1.2-4.1-4.2,6.2-4.7,4.1-6.7,6.5-12.7,3.3,1.7,1.8,7.1,1.9,10.5Z"/>
  <path class="st231" d="M188.1,232.9c0-1.4-.2-3,0-4.2.4-2.3.8-4.4,2.2-6.4.7-1,4.4-2.4,5.3-4.3,1.8,3.2-3.9,12.3-7.5,14.9Z"/>
  <path class="st75" d="M239.2,213.4c-1.7,2.9-6.5,14.9-4.4,17.1,1.1,1.2,12.9-2.4,15.2,2.1,5.7-1.1,5.8-.1,2.2,4.3.6,4.3-1.2,5.3-4.3,2.2-1.6,4.3-3,5-4.3,2.2-2.1,7.2-10.1,8.4-10.8,0-9.5-3.6-13.6-14-12.8-23.6,4.7-4.5,18.8-21.6,19.3-4.4Z"/>
  <path class="st314" d="M243.5,241.3c1.2,7.5,3.1,13.7,6.1,20.4,2.1,13.4-13.9-.2-16.9-5.2-2.7,1.9-3.4.5-2.2-4.3-3.8.6-1.6-3.7,0-6.5.2-1.8,0-3.7,2.2-4.3,5.4,1.8,5.1,1.6,10.8,0Z"/>
  <path class="st235" d="M207,239.2c3.6-1.2,9.6-.7,11.2,3.4.7,6.6,5.5,5.3,10.2,3.1.9,0,1.3,0,2.2,0-.2,2.1.4,4.8,0,6.5.8,4.7-.4,10.2-4.3,13-11,.7-24.7-15.3-19.2-25.9Z"/>
  <path class="st220" d="M215.5,237c2-.3,6.9-4.8,7.9,1.1.6,3.3-5.4,4.7,4.9,7.5.3,7.2-6.7,7.4-11.3,4.3-3.8-2.5.5-7.2-10.1-10.8-.2-.6,0-1.4,0-2.1,2.7-.3,5.8.4,8.5,0Z"/>
  <path class="st25" d="M328.3,165.4c-1.4,1.1-2.6,2.5-3.8,3.8-8.6,8.3-12.8,19.7-16.4,30.7-3.2,3.4-6.9,3.7-9.2-.9-5.7,5.3-10.1-12.3-9.5-13.1,8.6-1.8,12.6-8.1,12.1-18.9,1.1-.3,1.6-.5,2.7-.9.1-.5,1.5-3.4,1.9-4,6.9,7.5,13.9,1.3,22.3,3.1Z"/>
  <path class="st133" d="M304.1,166.2c-2,9.7-.3,20.3-13.9,20.1,3.5,5,5.2,7.6,8.6,12.7,4.2,5.3-2.5,11.4-8.2,12.5-.5,1.8-1.3,1.8-2.1,0,0,12.5-11.2,12.8-6.3,2.1,2.7-8,9.7-17.2,6-25.2-7.8-.6-3-8.3,3.3-8.1,1.2-7.5,4-13.6,8.4-18.3,1.5.4,3,3,4.2,4.2Z"/>
  <path class="st205" d="M299.9,162c-.8,4.7-3,18-5.4,21.1-1.3,1.6-3.9.8-5.7,1.8-1.1.7-.5,3.4-.6,3.5-.7.4-7.6,0-9.2-.4-4.8-1.5-1.6-5.9.6-10.1.8-1.4,6.6-1.5,2-6.2,9.3,3.5,11.2-8.3,16.2-9.8.4-.1,1.6,0,2,0Z"/>
  <path class="st193" d="M269.4,209.2c3.6,1.5,9.8,2.7,12.8,4.3,2.1,1.2,1.4,5.2,4.3,4.3,0-2.5-.3-4.7,2.1-6.3,2.4,2.6,6.9,9.7.1,10.6-1.2,14.2-4,17.1-8.5,8.5-.5,8.5-17.7,12.7-17.2,2.1-2.3,3.4-7.3,8.9-10.8,4.3-.4-1.2-2.3-3.6-2.2-4.3,2.5-11.2,25-13,8.6-27.8,4.3,1.3,6.9,2.7,10.7,4.3Z"/>
  <path class="st68" d="M324.5,169.1c1.2,0,2.7.3,4,.2-5.5,4.1-5.5,9.1-7.4,13.8-5.7,8.4-10.3,19-12.8,28.8-2,1.4-4.4,1.3-7.1-.3-2.6-.3-5.7-.2-8.4-.1-.5,1.8-1.2,1.8-2.1,0,1.7-3.6,5.4-10.2,8.2-12.5,1.3-1.1,6.1,0,8.4-3.4,5.2-7.7,3.3-25.8,17.3-26.5Z"/>
  <path class="st14" d="M313.5,203.5c-1.1,2.5-2.8,8.7-3.8,9.5-4,3.2-8.5-1.4-8.5-1.4,0,0,5.3,0,7.2-4,3.7-7.7,2.5-21.1,12.7-24.5-2.7,6.5-4.5,13.7-7.6,20.4Z"/>
  <path class="st113" d="M307.7,232.9c4.2-.2,9.2.9,13.2-.3,6-1.8,3.1-9.3,9.6-7.9-.6,4.3-2.6,8.2-4,12.5.2,1.6.3,2.4.4,4.1-5.4,16.6-5.7,22.4-.4,17.1-1.1,2.4,2,5.8,2,6.3,6.1,7.6-7.2,20.8-12.9,21.2-2.7.2-3.2-9.4-2.5-12.8-4.1-.5-6.6-3.2-7.5-8.2.7-10.7,1.4-21.4,2.1-32.1Z"/>
  <path class="st132" d="M288.7,222.1c-1.5,13.9,1.4,21.1,8.6,21.5,3.4,5.1,1.2,20.9,8.4,25.7,5.7,1.5,5.2,4.1,0,6.4-.6,1.9-1.3,1.8-2.1,0-8.7,1.4-15.3-1.2-23.3-4.1,1.7-5.2,3.2-9.5,4.3-15-3.8-.3-3.2-3.1,0-4.3-2.2-3.9-1.2-5.8,2.1-8.7-8.2,2.5-16.2-8.5-6.4-12.9,1.5-.5,5.5.8,6.2,0,1.1-1.3-1.1-7.3,2.2-8.4Z"/>
  <path class="st263" d="M305.7,265c6.7,1.5,3.3,6.6,12.5,2-.9,6.8-1.3,10.2-2.3,16.9,3.4-2.9,12.8-16,12.7-19.1,8,.4,8.7,3.9,12.2,10.3-.9,4.3-1.2,9.6-6.3,8.4.2-1.3,2.3-2.6,2.1-4.2-1.7-1.2-15.1,7-18.7,8.7-11.4,3.8-13.5,3.7-13.6-7.6,0-1.7.3-3.3,1.3-4.8-.4-1.1,0-4.6,0-6.4,0-1.4,0-2.9,0-4.3Z"/>
  <path class="st14" d="M292.8,211.5c-3.1,12,8.1.2,6.4,7.4-1.8,7.4-7.9,4.3-8.5,6.5-.4,1.3-.3,13.2,0,14.6.6,2,5,1.2,6.5,3.5-3.4.9-5.1,1.3-8.5,2.1,0-7.9,0-15.8-.1-23.6,0-4.3,0-6.4-.1-10.6.4-.3,1.4.2,2.1,0,.6-.1,1.4,0,2.1,0Z"/>
  <path class="st240" d="M213.5,275.8c5.6-3.8,11.5-.6,10.7,6.5.6,4.5-2.2,8-8.4,10.5-5.1,2.5-7.6,3.7-12.5,6.1-1-6.7-1.5-10.1-2.4-16.9-4.1,1.9-6.2,6.2-10.3,8.3-3.1.4-4.1,0-6.3-2.2,4.6-7.5,13.5-15.2,22.9-14.5,2.7-5.1,6.3-3.7,6.4,2.2Z"/>
  <path class="st105" d="M196.4,262.9c.9-1.3,10.9,5.3,11.3,5.9-.3,1.9-.4,2.9-.7,4.8-6.2,5.1-15.1,13.6-22.9,14.5-7.7-10,4.3-20.5,12.2-25.2Z"/>
  <path class="st276" d="M198.5,243.5c1.4,1.4,2.1,2.1,3.6,3.5,7.9,5.1,9.4,9.6,4.6,13.3,7.9,0,19,3.5,11,11.2,4.2,5.3,1.9,7-4.2,4.3-1.2-.8-4.3-.8-6.4-2.2-3-2-8.6-7.9-10.6-10.8-2.3-3.2-2.3-12.1-8.4-10.7,0-.1-2.5-.6-2.1-2.1,1.3-.3,3.2.3,4.2,0,7.5-2.5,2.2-2.5,4.8-5.8.9-1.2,3.5-.4,3.7-.6Z"/>
  <path class="st6" d="M230.7,297.2q-4.2,6.1,0,0c-.1-5.9,1.3-8.7,4.2-8.5,4.3,1.5,5.8,6.1,4.5,13.8,4.1-3.5,7.6-3.9,10.6-1.1,5.6,2.9,4.2,6.3-2.1,6.3,2.8,3.2,1.5,4.4-2.1,2.1-4,7.1-7.5,8.4-10.6,4.1-2.3,5.9-5.9,5.7-8.5,0-3.8,0-9.1.4-12.6-.2,4.9-7.2,1.1-13.1,1.8-20.9.9-9.7,4.1-6.5,8.4-10.5,9.6-2.5,8.6,8,6.5,14.9Z"/>
  <path class="st255" d="M235.1,314c6.1,1.1,4.3,7.4,0,10.4,0,.2-3,1.5-2.1,4.1,16.5-.3,5.4,3.8,4.3,6.2-.8,0-1.3,0-2.1,0-4-9.1-16.6-8.7-14.5,3.9-3.3-.3-5.8.9-12.4-.3-.2,0-2.2-1.6-4.2-2.2-.5-2.7-1.4-7.2-4.4-8.3.5-.7,1.2-1.7,2-2,8.3-3.3,14.8-9.3,24.8-11.9,2.7,0,6,.5,8.5,0Z"/>
  <path class="st8" d="M345,233.3c-1.8,4.3-9.4-1.5-14.3,1.9,1.2-4.2.9-6.6,4-10.4.6-.7,5.7-4.3,6-4,1.6,4.6-1.1,10.8,4.3,12.5Z"/>
  <path class="st307" d="M328.6,241.5c-1.2,4.5-.8,12.7-2.1,17-2,6.6-3.5,7.4-10.4,6.4,3.8-9.1,7.4-18.3,10.4-27.6.8,1.7,1.3,2.5,2.1,4.2Z"/>
  <path class="st306" d="M305.6,275.6c.9,2.6,7.4,1.7,1.9,12.6,4.2,0,6.3-.1,10.4-.2-5,2.4-7.8,5.5-14.7,4.5-10.2-1.6-6.1-12.1.2-16.9.8,0,1.3,0,2.1,0Z"/>
  <path class="st65" d="M278,273.7c.2,7.6-10.3,26.6-15.1,10.8-3.1-1.1-2.4-3.3,2.2-6.4-1.4-3,.8-5.1,6.5-6.5.4-1.9,1.1-1.8,2.1,0,.7.2,3.9,1.7,4.3,2.1Z"/>
  <path class="st213" d="M284.5,252.2c-.2,1.4.3,3.1,0,4.3-4.3,6.1-6.4,9.1-10.7,15.1-.7-.1-1.4,0-2.1,0-3.3,2.6-6.7,4.8-8.6,0-4.2-4-3.6-5.3,2.2-4.3-3.4-6.5,6.1-11.3,10.8-6.5,0-7,9.5-19.8,8.6-8.7Z"/>
  <path class="st312" d="M265.1,278.1c-.3,2.3-1,4.4-2.2,6.4-1,1.8-3,4.4-4.3,6.4.3,9.1-2.6,12.6-8.6,10.6-6,3.4-9,5-15,8.4,0-8.4,0-12.6-.1-21.1-10.1-5.8.5-9.7,8.3-3.5,1.8-.3,2.8-.4,4.6-.7-2-5-.5-5.7,4.3-2.1,0-3.8,9.6-6.1,13-4.3Z"/>
  <path class="st217" d="M258.6,290.9c-2.6,10.7,6.8,4.6,8.6,6.3,1.2,1.2-2.5,14.8,2,16.8-1.5.9-3,1.4-4.3,2.1-7.6,3.1-14.3-1.5-17.1-8.3,1.5-1.8,1.4-5.4,2.1-6.3,2.5-3.3,6.1-6.7,8.6-10.6Z"/>
  <path class="st182" d="M247.9,307.8c7.6-.5,9.3,7.6,17.1,8.3-3,1.7-7,3.3-8.5,4.2-6.3,1.4-9.9,2.6-12.8-4.2-3.1-1-2.4-3.3,2.1-6.3.6-.4,1.6-1.4,2.1-2.1Z"/>
  <path class="st275" d="M243.6,316.2c-1.9,3.7-4.1,7.7-7.4,10.3-.4-.8-.6-1.2-1.1-2,.5-3.2-.4-7.1,0-10.4.6,0,9.9-3.7,10.6-4.1-.3,2.3-1.1,4.3-2.1,6.3Z"/>
  <path class="st56" d="M237.3,334.8c17.2-4.7,17.7,2.6,1.1,4.1-1.8.2-1.5-3.4-1.1-4.1Z"/>
  <path class="st245" d="M400.4,133.3c2.6,6.9-.8,10.4-2.4,14.9-1.6,5-8.9,14.3-.9,17.6-4.3-1.7-7.9-3.6-11.6-5.1,1.7-10.1,2.4-15,3.5-24.5.6-.1.9-1.3,1.5-1.5,2.9-.7,7.4-.7,9.9-1.5Z"/>
  <path class="st139" d="M177.7,230.9c-5.3,5.8-.8,12-10.4,10.6-.7-.1-1.6.2-2.1,0,.1-2.8-.7-8.6.4-10.2.4-.6,9.5-3.3,12.2-4.7,3.9,1.2,3.9,3.1,0,4.2Z"/>
  <path class="st277" d="M186,228.7c1.1,6.9,1.8,18-6.4,14.9,1.8-2.4-1.3-9.9-2-12.7-.3-1.2.2-2.9,0-4.2,1.3-.7,3.1-1.3,4.2-2.2.8,1.2,4,3.3,4.1,4.2Z"/>
  <path class="st214" d="M207,239.2c3,10.9,10.7,18.9,19.2,25.9,2.6,6.1-3.6,10.8-8.5,6.4.8-10-13.7-5.2-14.9-6.5-.3-5.7-1.4-7.9,4.2-9.6-1.1-3.1-11.9-.4-8.5-11.9.2-.3,1.9-5.5,2.1-6.4,1.9,1.4,4.2,1.4,6.3,2.1Z"/>
  <path class="st327" d="M247.8,239.1c5.4,1,4.2,4.7,2.1,8.6.9.9,1.4,1.3,2.3,2.2,5.2,2.3,9.7,15.9,2.2,19.5,3,2.4,1.6,5.3-4.3,8.6,2.8,2.5,1.4,3.5-2.2,2.1-5.2-3.3-5.2-1.8,0,4.3-.4.1-1.2,2-3.3,2.1-3,.2-8.7-2.9-9.6-2.2-.5.4.4,3.2,0,4.3-.9,2.2-2.8,7.8-4.2,8.5-1.1-6.6-1.5-10.4-6.5-14.9-1.4-1.2-1.9-2.7-1.6-4.4,7.7-5.8,10.8-9.9,10.1-19.2-1.8-.7-1.8-1.4,0-2.2,7.9-5,8.3,13.9,13,8.6.9-1-6.3-19.4-2.2-23.8,1.4-.4,2.9-1.6,4.3-2.2Z"/>
  <path class="st22" d="M263,232.7c8.2,5.5-2.6,17.1-10.8,17.3-1.1,0-4.1,3-6.5,2.2.9-5.2,1.3-7.8,2.2-13,1.5-.6,2.9-1.5,4.3-2.2,5.5-2.3,4.5-4.7,10.8-4.3Z"/>
  <path class="st220" d="M232.7,256.5c0,.7,0,1.5,0,2.2,3.4,7.5-1.2,13.9-6.4,6.5-.7-4.5,4.3-13,4.3-13,0,0,2.1,3.8,2.2,4.3Z"/>
  <path class="st322" d="M280.2,230.6c-4.8,5.1,5.9,11,6.4,12.9-5.7,4.9-9.3,10.7-10.7,17.3-1.3,1.2-8.1,3.1-10.8,6.5-5.2,8.4-9.3-4-7.8-11.1-3.2-1.1-4.9-3.2-5.2-6.2,1.6-3.4,11.1-10.2,10.8-17.3,1.3,0,3.1,2.4,7,1.8,2.3-.3,6.8-2.9,10.2-3.9Z"/>
  <path class="st83" d="M286.6,243.5c1.2,4.7-1.9,6.9-2.1,8.7-.4-.8-.6-1.3-1.1-2.1-4.2,2.4-4.4,7.9-7.5,10.8-2.2-8,3.6-15.7,10.7-17.3Z"/>
  <path class="st64" d="M232.7,258.7c2.5,2.3,2.3,7.1,5.7,8.4,4,1.5,11-2.8,9.5,4.6-14.7-3.5-10.2-.9-17.5,5.2-3.5,2.9-3.9,3.4-6.1,5.5-2.7-2.4-7.4-4.4-10.7-6.5,2.2-.3,3.3-3.7,4.2-4.3,4.6-3,4.4-2.9,8.5-6.4.8-.7,5.8.6,6.4-6.5Z"/>
  <path class="st273" d="M230.7,297.2c2.6,15.2-.6,16.5-8.5,3.1,1.9-4,6.5-2.3,8.5-3.1Z"/>
  <path class="st44" d="M271.6,271.6c-1.4,3.1-3.5,4.9-6.5,6.5-3.1,1.6-9.3,3-13,4.3-3.7,1.3-6.3,1.9-4.3-2.1.8-.4,1.6-2,2.2-2.1,2.1-4.3,6.3-6.9,8.7-2.2,1.7-1.7,2.6-2.6,4.3-4.3,2.8.2,5.8-.3,8.6,0Z"/>
  <path class="st160" d="M252.2,250c4.6-.1,7.2,4.2,13-2.2.4,4.1-2.7,5.1-3.6,9.3-.2,1.1-2.3,12.8,3.6,10.2-.9,1.1-1.4,3-2.2,4.3-2.1,3.5,2.9,1.8-4.3,4.3-3.1-1.6-4.8-4.1-4.3-6.4,0-.4-2.4-5.4,2.2-8.6-2.6,0-3.9,0-6.6,0,2.7-3,1.4-9.2,2.2-10.8Z"/>
  <path class="st179" d="M247.8,284.5c-4.2,2-12.9-6.9-13-9.6,15.4-3.4,10.6-1.7,13,5.4.8,2.4,2.1,2.4,4.3,2.1-1.1.4-2.4,1.6-4.3,2.1Z"/>
  <path class="st20" d="M254.3,269.5c2.6.9,3.9,1.3,6.5,2.2-.9,1.7-1.3,2.6-2.2,4.3-3.3,1.1-5.9,1.4-8.7,2.2-1-4.1,4.2-8.1,4.3-8.6Z"/>
</svg>