<?xml version="1.0" encoding="UTF-8"?>
<svg id="Layer_1" xmlns="http://www.w3.org/2000/svg" version="1.1" xmlns:xlink="http://www.w3.org/1999/xlink" viewBox="0 0 500 500">
  <!-- Generator: Adobe Illustrator 29.0.1, SVG Export Plug-In . SVG Version: 2.1.0 Build 192)  -->
  <defs>
    <style>
      .st0 {
        fill: #fff;
      }

      .st1 {
        fill: #e9f0f9;
      }

      .st2 {
        fill: #e30a7d;
      }

      .st3 {
        fill: url(#linear-gradient);
      }

      .st4 {
        fill: #259ecc;
      }
    </style>
    <linearGradient id="linear-gradient" x1="523.3" y1="1327.5" x2="925.4" y2="1115.2" gradientTransform="translate(618 1607.8) rotate(-45) scale(1 -1)" gradientUnits="userSpaceOnUse">
      <stop offset=".2" stop-color="#279ecc"/>
      <stop offset=".8" stop-color="#e4097d"/>
    </linearGradient>
  </defs>
  <circle id="bg" class="st0" cx="250" cy="250" r="248.5"/>
  <g>
    <circle class="st1" cx="250" cy="250" r="249"/>
    <circle class="st4" cx="96.8" cy="337.3" r="12.7"/>
    <circle class="st2" cx="401.5" cy="164.5" r="12.7"/>
    <path class="st3" d="M396.4,109.5h0c-6.6-6.6-17.3-6.6-23.9,0l-25.1,25.1-23.9,23.9c-6.6,6.6-17.3,6.6-23.9,0h0c-6.6-6.6-6.6-17.3,0-23.9l13.2-13.2c6.6-6.6,6.6-17.3,0-23.9h0c-6.6-6.6-17.3-6.6-23.9,0l-167.5,167.5c-6.6,6.6-6.6,17.3,0,23.9h0c6.6,6.6,17.3,6.6,23.9,0l18.5-18.3c6.6-6.6,17.3-6.6,23.9,0h0c6.6,6.6,6.6,17.3,0,23.9l-84.3,84.2c-6.6,6.6-6.6,17.3,0,23.9h0c6.6,6.6,17.3,6.6,23.9,0l28.4-28.3c6.6-6.6,17.3-6.6,23.9,0h0c6.6,6.6,17.3,6.6,23.9,0l25-25.1c6.6-6.6,17.3-6.6,23.9,0h0c6.6,6.6,17.3,6.6,23.9,0l119.1-119.1c6.6-6.6,6.6-17.3,0-23.9h0c-6.6-6.6-17.3-6.6-23.9,0l-1.3,1.2-16.7,16.8c-6.6,6.6-17.3,6.6-23.9,0h0c-6.6-6.6-6.6-17.3,0-23.9l20.8-20.8,45.9-45.9c6.7-6.5,6.8-17.2.2-23.9,0,0-.1-.1-.2-.2Z"/>
  </g>
</svg>