<?xml version="1.0" encoding="UTF-8"?>
<svg id="Layer_1" xmlns="http://www.w3.org/2000/svg" version="1.1" viewBox="0 0 500 500">
  <!-- Generator: Adobe Illustrator 29.0.1, SVG Export Plug-In . SVG Version: 2.1.0 Build 192)  -->
  <defs>
    <style>
      .st0 {
        fill: #6748fe;
      }

      .st1 {
        fill: #231f20;
      }
    </style>
  </defs>
  <circle id="bg" class="st1" cx="250" cy="250" r="248.5"/>
  <path class="st0" d="M129.7,352.1c-69-18.9-107.6-88.6-70-153.7,47.8-82.8,178.3-58.1,191.3,35.6,6.7-10.4,8.4-22.5,14.5-33.6,40-73,149.5-68.5,185,5.9,1.8,3.7,8.7,18.1,1.1,18.1h-51.7c-1.7,0-16.7-16.9-28-20.2-83.6-24.1-84.4,115.9,0,91.5,11.3-3.3,26.3-20.2,28-20.2h51.7c7.9,0-.7,16.1-2.5,19.8-15.2,30-41.6,47.4-73.5,56.8h-35.6c-35.8-.7-61-19.3-79.9-48.3l-.9,43.8-6.6,4.5h-55l-4.6-1.4c-1.9-32.6-2.6-66.2-2.2-100.9-25.5-102.5-146.4,8.2-44.6,44.1,5.2,5.9,3.6,44.2,2.4,54.1l-6,4.1h-12.9Z"/>
</svg>