<?xml version="1.0" encoding="UTF-8"?>
<svg id="Layer_1" xmlns="http://www.w3.org/2000/svg" version="1.1" viewBox="0 0 500 500">
  <!-- Generator: Adobe Illustrator 29.0.1, SVG Export Plug-In . SVG Version: 2.1.0 Build 192)  -->
  <defs>
    <style>
      .st0 {
        fill: #fff;
      }

      .st1 {
        font-family: OCRATributeW01-BdMono, OCRATributeW01-BdMono;
        font-size: 97.8px;
      }

      .st1, .st2 {
        fill: #fbb040;
      }
    </style>
  </defs>
  <circle class="st0" cx="250" cy="250" r="248.5"/>
  <g>
    <g>
      <polygon class="st2" points="221.1 253.3 244.2 226.6 244.2 180.6 255.7 180.6 255.7 226.6 278.9 253.3 255.8 279.3 244.3 279.3 221.1 253.3"/>
      <polygon class="st2" points="192 166.4 218.7 189.5 264.7 189.5 264.7 201.1 218.7 201.1 192 224.3 166 201.1 166 189.6 192 166.4"/>
      <polygon class="st2" points="278.9 137.4 255.8 164 255.8 210.1 244.3 210.1 244.3 164 221.1 137.4 244.2 111.4 255.7 111.4 278.9 137.4"/>
      <polygon class="st2" points="308 224.3 281.3 201.1 235.3 201.1 235.3 189.6 281.3 189.6 308 166.4 334 189.5 334 201.1 308 224.3"/>
    </g>
    <text class="st1" transform="translate(109.2 364.3)"><tspan x="0" y="0">AGLD</tspan></text>
  </g>
</svg>