<svg data-name="Layer 1" xmlns="http://www.w3.org/2000/svg" xmlns:xlink="http://www.w3.org/1999/xlink" viewBox="0 0 32 32"><defs><linearGradient id="a" x1="5.16" y1="16" x2="26.84" y2="16" gradientUnits="userSpaceOnUse"><stop offset="0" stop-color="#dd68fb"/><stop offset="1" stop-color="#7d04fa"/></linearGradient><linearGradient id="b" x1="8.73" x2="23.27" xlink:href="#a"/><linearGradient id="c" x1="12.4" x2="19.6" xlink:href="#a"/></defs><circle cx="16" cy="16" r="16" fill="#fff"/><path d="M25.36 9l-7.61-4.5a3.58 3.58 0 00-3.58 0L6.56 9a3.26 3.26 0 00-1.4 3.1V20a3.28 3.28 0 001.4 3.11l7.61 4.39a3.58 3.58 0 003.58 0l7.61-4.39A3.33 3.33 0 0026.84 20v-7.93A3.32 3.32 0 0025.36 9zm.41 10.64a3 3 0 01-1.34 2.79l-6.85 4a3.22 3.22 0 01-3.23 0l-6.85-4a2.94 2.94 0 01-1.27-2.79v-7.18A2.94 2.94 0 017.5 9.67l6.85-4a3.22 3.22 0 013.23 0l6.85 4a3 3 0 011.34 2.79z" fill="url(#a)"/><path d="M22.28 11.29l-5.1-3a2.41 2.41 0 00-2.41 0l-5.1 3a2.2 2.2 0 00-.94 2.08v5.31a2.21 2.21 0 00.94 2.09l5.1 2.94a2.41 2.41 0 002.41 0l5.1-2.94a2.25 2.25 0 001-2.09v-5.31a2.23 2.23 0 00-1-2.08zm.27 7.13a2 2 0 01-.9 1.87l-4.59 2.65a2.16 2.16 0 01-2.17 0l-4.59-2.65a2 2 0 01-.85-1.87v-4.79a2 2 0 01.85-1.88l4.59-2.69a2.16 2.16 0 012.17 0l4.59 2.69a2 2 0 01.9 1.88z" fill="url(#b)"/><path d="M19.11 13.67l-2.53-1.48a1.16 1.16 0 00-1.19 0l-2.52 1.48a1.08 1.08 0 00-.47 1v2.63a1.09 1.09 0 00.47 1l2.52 1.45a1.16 1.16 0 001.19 0l2.53-1.45a1.12 1.12 0 00.49-1v-2.6a1.11 1.11 0 00-.49-1.03zm.13 3.53a1 1 0 01-.44.92l-2.28 1.32a1.08 1.08 0 01-1.07 0l-2.27-1.32a1 1 0 01-.42-.92v-2.37a1 1 0 01.42-.93l2.27-1.34a1.08 1.08 0 011.07 0l2.28 1.34a1 1 0 01.44.93z" fill="url(#c)"/></svg>