<?xml version="1.0" encoding="UTF-8"?><svg id="CIRCLE_OUTLINE_BLACK" xmlns="http://www.w3.org/2000/svg" viewBox="0 0 512 512"><circle cx="255.99999" cy="256" r="256" fill="#fff"/><path d="m474.63258,368.81976c-12.81336,5.1671-24.92082,11.62441-37.02828,17.96485-13.75293,7.16318-27.15372,14.91225-40.43763,22.89665-5.17179,3.17098-11.04943,4.57963-16.69179,6.57572-1.88077.58746-3.29097.35216-3.99529-1.87922-1.99921-5.98828-6.34823-10.09735-11.9906-12.79776-2.11607-1.05649-2.46823-2.46669-2.35137-4.6965.2353-3.28787.11844-6.57575-1.05803-9.74673-1.4102-3.9922-3.99687-6.57417-7.99373-7.7491-3.76157-1.17335-7.52313-2.11295-11.40156-1.64392-2.58667.35216-3.5263-.58746-3.6447-2.93571-.11686-1.87768-.35216-3.87376-.46903-5.75298-.2353-5.04866.35216-10.21421-.58901-15.02914-1.05649-5.87142.82431-9.62829,5.17331-13.50205,14.69255-13.26836,31.38589-23.13195,49.01728-31.82065,37.73412-18.66915,76.99531-33.58143,116.49176-47.78781,4.33608-4.9154-16.45801,101.21174-33.03133,107.90436Z" fill="#31c77f"/><path d="m151.15943,430.27483c1.88078.82119,3.1741,1.29176,4.34901,1.76078,2.11608.82119,4.35059.93963,5.76079-1.1749,1.52862-2.22984.11686-3.99062-1.52863-5.51771-1.88078-1.64392-3.76157-3.28784-5.64235-5.04866-7.64001-7.04474-4.34903-19.84408,2.82195-24.30527,1.76236-1.05649,3.05569-1.52706,4.46589.2353.35372.46903.82275.82116,1.17646,1.29021,14.81099,16.67307,33.38355,28.76804,51.95609,40.62618,8.46432,5.4024,17.16238,10.56792,26.56627,14.32482,2.35137.93963,3.40943,2.11452,2.93883,4.69653-.47057,2.11452-.35216,4.22744.4706,6.34042.82273,2.23139-.35374,2.81885-2.23451,2.93571-3.05569.35219-6.11139.82273-9.28552.82273-11.75528.23373-23.51058,2.70044-35.2643,1.64398-11.9906-1.17493-23.62746-3.7585-34.56001-9.15933-3.88-1.87922-7.28785-4.34433-9.87451-7.86593-5.0549-6.57575-5.17176-13.62049-2.11607-21.60486Z" fill="#31c77f"/><path d="m280.20682,462.37056c-1.79937-.24021-4.20011,1.67687-5.88017.11932-1.1996-1.1996-1.32049-3.59713-2.04119-5.39492-.23866-.71912-.5998-1.55913-1.07867-2.15732-1.68163-2.03803-.48048-3.11668,1.19957-4.19696,10.44142-6.47356,19.68327-14.50471,29.64423-21.69742,12.12147-8.99205,22.80313-19.54165,32.88499-30.69107,3.24079-3.4762,5.63993-7.67155,5.40129-12.70692-.12092-2.03803.84001-2.87647,2.87962-2.6378,1.92029.24021,3.95987.48045,5.88017.95933,6.00106,1.43823,8.52115,6.47359,5.88174,12.10876-1.08025,2.27664-2.52006,4.43556-3.72124,6.71223-.84001,1.67844-1.19957,3.35692.48048,4.79673,1.56071,1.31731,3.24076,1.07867,4.92081.23863.11932-.11932.35956-.11932.48048-.23863,1.43981-.72069,2.27982-2.99736,3.71963-2.51848,2.1605.71912,4.20172,2.15893,6.00109,3.59716,4.32101,3.4762,5.88174,7.55224,4.32101,11.86848-1.80095,4.79515-4.68057,9.10982-8.52112,12.70695-7.56183,7.07339-16.56183,11.50896-26.04392,14.86587-15.84271,5.51424-31.68542,10.90916-48.36656,13.66627-2.52167.35959-5.16105.5998-8.04225.5998Z" fill="#31c77f"/><path d="m258.55229,465.96763c-.58746-.11686-1.6455-.11686-2.58509-.23527-4.1153-.58592-6.58353-2.58197-7.05411-5.75301-.46906-3.17098,2.11607-7.39691,5.52547-8.68867,6.34823-2.58355,12.22432-.70433,14.92785,4.6965,1.76391,3.40477,1.29333,5.1671-1.6455,7.51534-2.23293,1.64238-5.40706,2.58197-9.16863,2.46511Z" fill="#31c77f"/><path d="m504.2352,254.72325c0,136.72101-110.83484,247.55434-247.55585,247.55434S9.12442,391.44426,9.12442,254.72325,119.9588,7.16741,256.67935,7.16741s247.55585,110.83439,247.55585,247.55584Z" fill="none" stroke="#31c77f" stroke-width="17.96486"/><path d="m280.09522,249.50436c-2.70672-2.02648-3.04439-3.60291-1.91753-6.41858,1.24048-3.15334,1.01471-6.64484.78895-9.91008-.56343-6.75674-5.52338-11.14884-12.28748-11.26123-4.28486-.11337-7.89243,1.35115-10.71106,4.73026-1.01496-.56343-1.80391-1.12686-2.47948-1.46452-7.55477-4.39259-14.31887-2.02648-17.24939,6.19282-1.46624,4.05493-2.36881,8.22127-1.01496,12.50147,1.01496,3.15187.78919,5.40412-2.14305,7.65636-1.91581,1.57692-3.38205,3.94254-4.62253,6.19478-3.83186,6.75674-2.14157,14.07691,4.28486,18.46901,1.69176,1.12539,2.48071,2.36415,3.04414,4.27873,1.12686,3.82867,3.4942,6.98251,6.87625,9.12236,6.42644,4.16683,13.64182,6.08092,21.19659,4.95455,6.76386-1.12539,12.51325-4.16683,15.67101-11.03547,1.35262-3.04144,2.81887-6.30668,5.52387-8.7847,2.02943-1.91458,2.705-4.73026,2.93052-7.65784.45153-7.32017-2.36709-13.17533-7.89072-17.56792Zm-18.82778,40.09726c-8.34225.11239-18.03859-2.02795-20.06654-10.02346,8.11648-.89962,8.56801-1.12539,17.02388-9.23426,4.50891,5.85663,10.14615,9.46003,17.81282,8.8966-2.25519,6.75674-7.21539,10.13585-14.77016,10.36112Zm11.82295-14.97899c-4.28315-.33767-8.34225-2.92807-11.38639-7.32017q-4.28486-6.30668-8.23035.22576c-3.04414,4.95406-7.66667,7.43207-13.52821,7.09441-7.78029-.56343-11.50001-7.99599-7.21539-14.64034,1.57814-2.47752,3.83186-4.50449,6.20067-6.30668,3.71972-2.8142,3.94548-3.37763,2.36734-7.9955-1.01471-3.03997-1.91753-5.96755-1.69176-9.23475.56318-7.09441,6.08853-10.02198,12.17705-6.64288,1.01324.56196,1.80244,1.35115,2.705,1.91458,2.25519,1.35115,4.17125,1.46305,5.52387-1.23925,1.69176-3.26524,4.62228-3.37862,7.66667-3.04095,3.38205.33767,5.29958,2.36562,6.53981,5.40559.67558,1.68882.56343,3.26524-.11362,4.84216-.9011,2.25225-1.91581,4.3921-2.81862,6.64435-2.14157,4.61787-1.91581,5.63135,2.81862,7.65784,3.94548,1.68882,6.98987,4.16683,8.68163,8.22127,3.04414,6.98201-1.24048,14.18881-9.69634,14.41458Z" fill="#030202"/><path d="m247.99485,236.56064c.33773.22568,1.23892.33924,1.57816.78908,1.46463,1.91447,2.70503,4.05459,2.93071,6.53095.11208,1.12684-.45132,2.14012-1.69176,2.59147-1.01328.33776-1.80387-.11359-2.47939-.78911-1.80384-1.91444-3.15636-4.16664-2.8186-6.98228.11208-1.12536.78908-1.91444,2.48087-2.14012Z" fill="#0e0d0d"/><path d="m261.40495,241.39832c.33776-.90119.78911-2.58996,1.57819-4.05456.56343-1.23747,1.57819-2.13864,3.15639-1.46312,1.12684.56341,1.57816,1.57668,1.35252,2.70204-.33776,1.57668-.90119,3.15339-1.46611,4.73008-.56343,1.4646-1.57819,2.58996-3.38203,1.91444-1.57819-.44984-1.57819-1.91444-1.23895-3.82888Z" fill="#191717"/><path d="m151.91965,454.68983l-10.37179,28.37898,6.98976,3.49115s9.69629-23.53679,10.82313-25.78899c1.01477-2.36434-7.4411-6.08114-7.4411-6.08114Z" fill="#231f20"/><path d="m359.14802,436.22085l-4.28474,4.61651s17.81291,41.66653,23.1124,41.78015c5.29799,0,1.91592-8.44691,1.91592-8.44691,0,0-15.55771-32.54416-18.26423-38.28752-2.02803-4.61799-2.47936.33776-2.47936.33776Z" fill="#231f20"/><path d="m338.52849,160.65667c9.46911-19.25674,17.92497-38.73924,20.40593-60.24822.9011-5.63086,1.80366-11.71227,1.466-17.90558-.45128-8.55893-6.31429-13.17582-14.77016-11.487-3.83334.7887-7.44115,2.13986-10.70958,4.50449-8.00458,5.85614-14.77016,13.06342-21.19635,20.49599-7.5533,8.67132-15.21997,17.34265-22.5475,26.23875-2.25519,2.70279-4.28486,2.81568-7.10349,1.57692-4.39652-2.02746-9.01929-3.60389-13.86587-3.94155-16.91173-1.23876-33.82346-1.8017-50.05814,4.50449-3.38205,1.35164-5.29786.67582-7.55305-2.02697-7.21563-8.67132-14.65654-17.22976-22.20983-25.78869-6.65196-7.54495-13.41606-14.86512-21.64616-20.72077-3.94548-2.81519-8.23035-4.16683-12.96478-4.3921-5.97663-.22527-9.92211,2.70279-11.3881,8.55893-.44981,1.8017-.56343,3.71579-.56343,5.51798,0,10.24775,1.91753,20.27022,3.94695,30.29319,2.93077,14.52648,9.58272,27.70229,15.33211,41.10338,2.25519,5.2932,5.29933,10.24775,9.24481,14.41409,1.46624,1.57692,1.80391,2.92954,1.24048,4.95602-.90257,3.15334-1.69176,6.41858-2.48071,9.68432-3.15653,11.82466-4.28486,23.8746-2.48096,35.92454,1.01471,6.41908.79067,12.5.11362,18.80521-.78919,6.8706-1.01471,13.62685.56343,20.49697,1.91728,8.10789,1.466,16.21579-.56343,24.32466-2.14157,8.55746-3.26991,17.11639-2.81862,25.90109.56343,9.34665-.56343,18.58091-.90281,27.81567-.1119,5.40559,0,10.81118-1.23876,16.10339-1.57839,6.75625-1.46624,13.62636-.45153,20.4955,1.91605,13.40109.67705,6.87011,1.24048,14.97752,2.47948,0,5.41172,7.76974,8.00458,7.65784-.11362-6.30668-.78919-21.50849-1.35262-27.81567-.45128-5.40559,0-10.69731.9011-16.1029,1.91605-11.60037,3.04439-23.08737,1.69201-34.91155-1.24048-11.14737.11215-22.29621,2.36734-33.21978,1.91581-9.23426,1.69029-18.46901.22552-27.70328-.33914-2.02648-.67705-4.16683-.33914-6.08092,1.24048-6.8706,1.91728-13.85115,2.14305-21.62285,6.65048,5.85712,13.75397,6.19478,21.30702,4.50449,6.20067-1.35115,9.92186-5.40559,12.40135-10.92308.79042-1.80268,1.12833-4.05444,4.17247-3.37763,1.46477.33767,3.15653.1119,3.38205-1.91458.22576-1.91409-1.24023-2.47752-2.81862-2.81568-9.35696-2.13986-18.82754-4.3921-28.18622-6.41858-3.04267-.67582-6.20067-1.46452-9.24334-1.80268-2.70648-.33767-3.26991-1.57643-3.04414-4.05444,1.35238-11.48651,3.49395-22.74774,8.11648-33.44506,4.51038-10.36161,10.25977-20.15783,18.48987-28.15333,1.01471-1.01496,2.25519-2.14035,1.57814-3.82916-.67558-1.69029-2.02943-2.13986-3.60757-1.57643-1.69029.56196-2.36734-.33816-3.15653-1.46502-1.57814-2.47752-3.26991-4.95406-4.73443-7.54495-4.96191-8.10789-10.93682-15.42806-16.91173-22.86063-1.24048-1.57643-2.81862-2.92758-4.51038-4.16634-5.07234-3.60389-9.58272-1.57692-10.14615,4.72977-.45128,4.05395-.11215,8.22077,1.35262,12.04945,5.29933,13.4006,9.35843,27.36512,17.02363,39.75321,1.91753,3.15334-.78919,4.61639-1.80366,6.86864-1.91605-1.35115-2.93077-3.26573-3.83358-4.95455-10.48382-18.46901-19.27735-37.61287-22.99878-58.78468-1.01471-5.51798-1.01471-11.14884-.78895-16.66682.33767-6.08092,3.04414-7.65735,8.90715-6.19331,4.28315,1.12588,7.55305,3.82867,10.70934,6.75674,10.7113,9.90959,19.8425,21.05844,29.53884,31.86961,2.59286,2.92807,5.18596,5.85565,7.66667,8.78371,1.57839,1.8017,3.04291,3.49101,3.26868,6.1938.22552,3.04144,2.36856,3.94106,5.18571,2.81568.67705-.22576,1.3541-.56343,2.02967-1.01349,4.7359-3.26524,10.03401-4.3921,15.67125-5.2932,15.44573-2.81519,30.6657-1.68931,45.88567,1.46452,2.36709.56196,4.39652,1.80072,6.53981,3.03948,4.62253,2.81568,6.31257,2.14035,7.6652-3.03948.33914-1.46452,1.24048-2.70329,2.25519-3.82916,12.51496-13.96452,24.12712-28.71676,37.88109-41.55491,3.04414-2.81519,6.08853-5.51798,10.14615-6.75674,6.65196-2.13986,9.47058-.11239,9.92186,6.75674.78919,13.06342-2.36734,25.45103-6.53834,37.61287-4.17272,12.16184-9.92211,23.64835-16.01063,34.91105-1.35238,2.47654-3.04267,4.61639-4.73443,7.43207-5.52387-8.22127-5.52387-8.1074-1.35262-15.991,5.18596-9.68432,10.48382-19.14434,14.09164-29.61786,1.466-4.39161,2.70648-8.89611,2.59433-13.62587-.11337-2.92807-.6768-5.51798-3.60757-6.98251-2.81862-1.35115-5.07381-.11239-7.10349,1.57692-2.48071,2.13986-5.07381,4.3921-7.32753,6.86962-7.78029,8.44605-16.3483,16.32867-21.30849,26.91408-.90257,2.02795-4.39676,2.92905-3.04414,5.96902.90257,2.02648,3.04414,3.26524,4.39676,4.95553,8.00458,9.68432,14.43077,20.26973,18.37625,32.2063,2.48096,7.54594,4.17272,15.42954,5.18743,23.31117q.44981,4.05493-3.72119,5.18032c-10.25977,2.70329-20.40593,5.40559-30.6657,8.10887-.9011.22576-1.80366.33767-2.705.78772-2.14305,1.013-2.36881,2.92758-.33938,4.16634,1.3541.78919,2.14329,1.23925,2.5931,3.04144,1.69176,7.20631,6.31429,11.82466,13.64182,12.83766,7.329,1.12686,14.20501-.1119,18.48987-7.09441.22552-.45104.33767-.67533,1.12686-.22527-.22429,8.33317.45128,16.7802,2.02943,25.11336.33938,1.57643.11362,3.37763-.11215,4.95406-2.14157,10.5859-1.69176,21.05893.45153,31.53244,2.25372,11.5989,2.93052,23.1978,1.57814,34.91007-1.01471,8.55893-.22576,17.11786,1.35238,25.45103,1.80391,9.45904,2.25519,18.80717,1.24048,28.26572-.33767,3.15334-.56343,6.30668-.56343,9.46003,2.5931.1119,5.18596.22429,7.77882.33767.11215-1.57643.22576-3.26524.45153-4.84216,1.01324-9.01046,2.25372-17.90558.56343-27.13985-2.48096-13.51495-2.14329-27.3661-2.36734-41.10486-.11362-9.91008-.33938-19.5944-2.81862-29.27872-1.91753-7.43354-2.48096-15.09138-.78919-22.63535,1.91605-8.33366,1.69029-16.55492.56343-24.88809-.56343-3.82867-1.35385-7.76974-.33914-11.5989,1.91728-7.54544,1.69176-15.09138,1.35385-22.74922-.45128-9.0085-2.93199-17.56743-5.18571-26.12489-.67705-2.5904-.5649-4.39259,1.46452-6.41908,2.59286-2.59138,4.73615-5.74325,6.31429-9.12236Zm-149.51553,53.94252c2.5931-.11386,4.28339,1.35066,4.39676,3.82867,0,2.47801-1.01471,3.82916-3.38352,3.94106-2.59286.11337-4.39676-1.35115-4.39676-3.7153-.11215-2.47801,1.24048-4.05444,3.38352-4.05444Zm-15.81775-78.26718c-2.93077-7.99599-5.74939-15.99149-7.6652-24.32466-.45128-1.8017-.56343-3.60389-.67705-5.51847,0-1.23827-.22552-2.7023,1.24048-3.37813,1.46624-.56294,2.5931.33767,3.4942,1.23876,4.73615,4.16683,8.795,9.00899,12.06344,14.41458,3.94695,6.41908,7.89243,12.83815,12.06368,19.25674,1.57814,2.47801,1.57814,4.27873-.78919,5.96902-3.60757,2.58991-5.52362,6.64337-8.68138,10.5859-5.52387-5.40559-8.68016-11.71276-11.04897-18.24374Zm145.11582,15.3142c-2.5931-4.61639-6.53858-7.8836-10.37192-11.37314-1.91605-1.80219-1.80391-3.04095-.56343-5.1813,5.41148-8.89611,12.17558-16.77872,19.0533-24.66183,2.02967-2.36513,3.83334-5.06792,6.42644-6.86962,2.81838-1.91458,4.50867-1.12637,4.96019,2.25225.11337.9011.11337,1.91458-.11215,2.81519-1.69176,6.98251-3.158,14.18979-6.76558,20.49599-3.60782,6.08141-6.7641,12.27472-9.92039,18.58141-.67705,1.35115-1.01471,2.92807-2.70648,3.94106Zm-12.15939,71.17228c-2.02943.45153-3.94548-1.46305-3.94548-3.60291.11215-2.25225,1.46452-3.37911,3.4942-3.49101,1.80391-.11239,3.15776,1.013,3.49567,2.92758-.56343,1.80219-.90281,3.71677-3.04439,4.16634Z" fill="#231f20"/><path d="m470.52247,369.44238c-12.28955,4.95557-23.90161,11.14893-35.51367,17.22998-13.19067,6.87012-26.04321,14.30225-38.78394,21.95996-4.96021,3.04102-10.59741,4.39209-16.00903,6.30713-1.80371.56299-3.15625.3374-3.83179-1.80225-1.91748-5.74365-6.08862-9.68457-11.50024-12.2749-2.0293-1.01318-2.36719-2.36572-2.25513-4.50391.22583-3.15332.11353-6.30713-1.01489-9.34814-1.35229-3.8291-3.83325-6.30518-7.6665-7.43213-3.60791-1.12549-7.21533-2.02637-10.9353-1.57715-2.48071.33789-3.38208-.56348-3.49585-2.81543-.11182-1.80078-.33765-3.71533-.44971-5.51758-.22559-4.84229.33789-9.79688-.56494-14.41455-1.01318-5.63135.79077-9.23438,4.96167-12.94971,14.09155-12.72559,30.10229-22.18555,47.01245-30.51953,36.19067-17.90527,73.84619-32.20752,111.72705-45.83301,3.24854-1.16602,6.48315-2.36328,9.71655-3.56396.052-2.12305.08081-4.25146.08081-6.38721,0-1.49072-.03101-2.97363-.0564-4.4585-13.65308,5.17334-27.3689,10.18652-41.08496,15.19873-32.80737,12.05029-64.60107,26.35303-95.37891,42.79346-11.38647,6.08154-21.75977,13.62695-31.45459,21.96045-1.57812,1.35059-3.15625,2.92773-4.73608,4.1665-.11206-.11182-.22412-.11182-.33789-.22607-.45117,1.35156-1.46582,2.59082-2.81836,3.15381-.56348,2.25195-2.25537,4.1665-5.29785,4.1665h-.67725c-.22559,13.28906.22583,26.57715,1.69189,39.86572.56348,4.84229-.67725,8.10791-4.05908,11.71289-16.68604,17.7915-35.51392,32.76953-54.79297,47.40918-.56335.4502-1.35229.78809-1.80359,1.35156-1.80383,2.70312-3.83362,2.47803-6.53833,1.12646-4.96045-2.47803-9.92212-1.12646-14.31897,1.46338-2.47949,1.46436-4.28308,1.35107-6.53833.22559-11.27441-5.74316-22.43555-11.48682-32.80713-18.91895-13.98096-9.90967-27.96069-19.70801-40.25-31.64453-1.46448-1.35254-2.47925-2.81543-3.04272-4.28027-.22571-.11182-.56482-.22412-.78906-.3374q-.1134,0-.22559-.11182c-2.48096-1.01367,1.57812-4.50439-1.12854-4.95605-.56323.22559-1.01453.3374-1.578.56348-.67554.67529-5.74927,1.46436-9.245,4.50439-.22571.22559-.56335.45117-.901.67529-10.37207,8.22119-12.96631,20.0459-6.87781,31.7583,1.12683,2.13818.78894,3.60352-.11218,5.51758-4.73608,9.68408-4.28455,19.03223,2.5929,27.58984,1.80383,2.36572,3.49426,4.8418,5.97522,6.64453l5.63721,3.94141c3.26843,1.80176,8.00464,3.604,10.48389,4.2793,10.48523,2.81641,21.08264,4.61719,31.90576,5.06836,4.96167.22412,10.03418-.56348,14.99451-1.01318,9.58423-.90088,19.27893-1.69043,28.74963-3.0415,3.60767-.56348,6.98975.4502,10.3717.56348,3.04407.1123,6.20068.4502,8.68164-1.12695,4.84802-2.92773,10.25952-3.03955,15.44543-3.49121,11.49878-1.01318,22.77332-3.60303,33.70996-7.09424,11.16064-3.49072,22.32178-6.86865,33.03296-11.82471,10.70972-4.9541,20.06812-11.26074,25.47949-22.18408.56348-1.01318,1.12695-1.69043,2.02954-2.25244,8.23022-4.95557,21.64624-7.43359,28.97388-10.47266,11.38647-6.30762,22.66113-12.61426,34.16113-18.69531,14.18628-7.47754,28.45776-14.87012,43.56787-20.44873,2.08228-3.95361,4.06616-7.96631,5.94409-12.03857-6.08936,1.88037-12.12012,3.9624-18.05566,6.35938Zm-229.30957,96.84619c-2.93066.33789-5.86157.78906-8.90588.78906-11.27454.22412-22.54895,2.58984-33.82178,1.57666-11.50024-1.12646-22.66101-3.60449-33.14636-8.78467-3.72144-1.80225-6.98987-4.1665-9.47083-7.54443-4.84802-6.30664-4.96021-13.06348-2.02942-20.7207,1.80396.78711,3.04443,1.23877,4.17114,1.68848,2.02954.7876,4.17261.90137,5.52515-1.12695,1.46606-2.13818.11218-3.82715-1.46631-5.2915-1.80359-1.57715-3.60742-3.15381-5.41138-4.84229-7.32764-6.75684-4.17126-19.03271,2.70654-23.31104,1.69019-1.01367,2.93066-1.46484,4.28333.22559.33911.44971.78894.78711,1.1283,1.2373,14.20508,15.99072,32.01782,27.59131,49.83093,38.96436,8.11792,5.18164,16.46045,10.13574,25.47974,13.73877,2.25525.90137,3.2699,2.02783,2.8186,4.50439-.45154,2.02832-.33789,4.05469.45129,6.08105.78894,2.14062-.33936,2.7041-2.14307,2.81592Zm26.83508-2.81592c-2.1416,1.57568-5.18591,2.47656-8.79358,2.36475-.56335-.1123-1.57837-.1123-2.47949-.22607-3.9469-.56152-6.31421-2.47607-6.7655-5.51709-.44983-3.0415,2.02942-7.09473,5.29956-8.33398,6.0885-2.47754,11.72424-.67529,14.31714,4.50488,1.69177,3.26562,1.24048,4.95557-1.57812,7.20752Zm100.86804-42.78857c-1.69165,4.50439-4.39697,8.55713-8.00439,11.93652-7.10352,6.64404-15.55786,10.81104-24.46509,13.96436-14.88208,5.18018-29.7644,10.24805-45.43408,12.83789-2.3689.33789-4.84814.56348-7.55457.56348-1.69031-.22559-3.94543,1.5752-5.5238.1123-1.12695-1.12695-1.24023-3.37939-1.91736-5.06787-.22424-.67578-.56335-1.46484-1.01331-2.02686-1.57983-1.91455-.45142-2.92725,1.12695-3.94238,9.80823-6.08105,18.48962-13.62549,27.8468-20.38184,11.3866-8.44678,21.42078-18.35693,30.89124-28.83057,3.04443-3.26562,5.2981-7.20605,5.07373-11.93652-.11353-1.91455.78931-2.70166,2.70508-2.47803,1.80396.22607,3.71997.45166,5.52368.90137,5.63721,1.35107,8.00439,6.08105,5.52539,11.37451-1.01514,2.13867-2.36743,4.16699-3.49585,6.30566-.78906,1.57666-1.12671,3.15332.45142,4.50537,1.46582,1.23779,3.04443,1.01367,4.62256.22461.11206-.1123.33765-.1123.45117-.22461,1.35254-.67676,2.1416-2.81494,3.49414-2.36523,2.02954.6748,3.94702,2.02783,5.63721,3.37891,4.05908,3.26514,5.52515,7.09424,4.05908,11.14893Z" fill="#231f20"/></svg>