<?xml version="1.0" encoding="UTF-8"?>
<svg id="Layer_1" xmlns="http://www.w3.org/2000/svg" version="1.1" viewBox="0 0 500 500">
  <!-- Generator: Adobe Illustrator 29.0.1, SVG Export Plug-In . SVG Version: 2.1.0 Build 192)  -->
  <defs>
    <style>
      .st0 {
        fill: #e73024;
      }

      .st1 {
        fill: #181818;
      }

      .st2 {
        fill: #fbfcfd;
      }

      .st3 {
        fill: #cecfd0;
      }

      .st4 {
        fill: #010101;
      }

      .st5 {
        fill: #b1b2b3;
      }

      .st6 {
        fill: #86888a;
      }

      .st7 {
        fill: #b6b6b7;
      }

      .st8 {
        fill: #626262;
      }

      .st9 {
        fill: #fff;
      }

      .st10 {
        fill: #0066b2;
      }

      .st11 {
        fill: #f0f0f0;
      }

      .st12 {
        fill: #a4a5a6;
      }

      .st13 {
        fill: #85878a;
      }

      .st14 {
        fill: #007cbf;
      }

      .st15 {
        fill: #0166b2;
      }

      .st16 {
        fill: #a6a7a9;
      }

      .st17 {
        fill: #0166b3;
      }

      .st18 {
        fill: #e2e2e2;
      }

      .st19 {
        fill: #b8babb;
      }

      .st20 {
        fill: #fbfbfb;
      }

      .st21 {
        fill: #6f7072;
      }

      .st22 {
        fill: #515355;
      }

      .st23 {
        fill: #595c60;
      }

      .st24 {
        fill: #727477;
      }

      .st25 {
        fill: #d6e6f2;
      }

      .st26 {
        fill: #808283;
      }

      .st27 {
        fill: #a8a9aa;
      }

      .st28 {
        fill: #606264;
      }

      .st29 {
        fill: #c0c0c1;
      }

      .st30 {
        fill: #7c7d7f;
      }

      .st31 {
        fill: #999a9b;
      }

      .st32 {
        fill: #d6d7d8;
      }

      .st33 {
        fill: #e7e8e8;
      }

      .st34 {
        fill: #f4f5f6;
      }

      .st35 {
        fill: #eee;
      }

      .st36 {
        fill: #1b1b1b;
      }

      .st37 {
        fill: #ececed;
      }

      .st38 {
        fill: #959799;
      }

      .st39 {
        fill: #939598;
      }

      .st40 {
        fill: #c7c8c8;
      }

      .st41 {
        fill: #dfdfe0;
      }

      .st42 {
        fill: #63666a;
      }

      .st43 {
        fill: #ebebeb;
      }

      .st44 {
        fill: #d2d2d3;
      }

      .st45 {
        fill: #f5f5f5;
      }

      .st46 {
        fill: #e8e8e9;
      }

      .st47 {
        fill: #75777a;
      }

      .st48 {
        fill: #dadada;
      }

      .st49 {
        fill: #c8c9ca;
      }

      .st50 {
        fill: #ececec;
      }

      .st51 {
        fill: #f6f9fb;
      }

      .st52 {
        fill: #fefefe;
      }

      .st53 {
        fill: #fafafa;
      }

      .st54 {
        fill: #66696c;
      }

      .st55 {
        fill: #88898b;
      }

      .st56 {
        fill: #909193;
      }

      .st57 {
        fill: #fdfefe;
      }

      .st58 {
        fill: #fdfdfd;
      }

      .st59 {
        fill: #bbbcbe;
      }

      .st60 {
        fill: #a3a5a7;
      }

      .st61 {
        fill: #e8e8e8;
      }

      .st62 {
        fill: #e6e6e6;
      }

      .st63 {
        fill: #5b5d5f;
      }
    </style>
  </defs>
  <circle id="bg" class="st9" cx="250" cy="250" r="248.5"/>
  <g>
    <path class="st23" d="M409.5,440.2c-26.8,22.2-56.5,38.9-90.2,48.6l-47.9,9.6h-6.1c-4.7-1.1-9-3.1-4.5-7.4,7.7-2,14.8-4.7,21.4-7.9l5.2-3.9c31.9-5.5,62.4-18,89.6-35.4l6.4-.6c5.2-1.1,10.3-2.9,15.1-5.3,6.4-2.9,10-2.2,10.9,2.2Z"/>
    <path class="st42" d="M282.2,483.2c3.4,1.2-2.3,3.5-3,3.9-5.7,2.9-12,5.9-18.5,6.9l4.6,4.6h-41.4c-4.2-2.7-9.2-2.3-13.8-3.1-3.7-3.5-.2-7.3,10.6-11.4l3.2-.8c9-2.4,18.7-2.8,29.2-1.3,10.3-1.3,20-.8,29.1,1.3Z"/>
    <path class="st40" d="M3,227l3.9,3.5c4-1.9,6.8-1.5,8.4,1.1,4.3,5.4,4.6,19.3,0,24.5-.2,4.8-12.1,5.9-13.8,1.5v-30.7h1.5Z"/>
    <path class="st48" d="M15.3,256.1c4.6,6.6,5.2,15.9,1.5,23-.2,4.8-12.1,5.9-13.8,1.5-.3-3.4,1.4-8.6-1.5-10.7v-12.3l13.8-1.5Z"/>
    <path d="M277.6,16.8c12.7-3.7,32.8.7,42.9,9.2,10.1-2,24.7,4,30.7,12.3,8.7-1.3,21,5.8,24.5,13.8,7.2-1.4,20.4,8.1,21.5,15.3,6-2,16.8,7.8,16.9,13.8,6.2-1.2,14.9,9.7,13.8,15.3,5.3-1.4,18.2,13.5,15.3,18.4l3.5-.3c4.9,7.5,9.5,15.4,13.7,23.4l-1.9,3c3.6,7,7.9,17.1,10.7,24.5,5.6,1.9,11,19.6,11.5,25.6l-2.3,3.5c6.1,3.9,8.9,20.3,4.6,26.1,5.4,6,6,17.8,1.5,24.5,4.9,5.5,4.5,17.3,0,23,1.3,11.2,0,22.9-2.3,35l-3.9,3.4c2.3,3.8,1.9,8.8-1.1,15l-4.6,13.6-3.5.5,1.5,4.5c-2.1,8.3-11,25.3-18.4,29.3l.7,4.8c-4.4,9.4-17.5,26.9-26.7,30.5,0,1.3-.2,2.6-.6,3.8-2.6,8.9-31.5,33-42.4,34.6-29,19.8-66.3,35.1-101.2,39.9-19.3,2.6-39,2-58.3,0-1.2.7-2.4,1.3-3.6,1.7-8.4,2.6-38.6-5.3-45.5-12.4l-4.2,1.8c-10.6-3.7-21-7.9-31-12.9l-1.6-4.3c-4.2,1.5-8.7-.1-13.7-4.8-7.7-3.6-12.3-8.1-13.9-13.6l-4.2.7c-8.1-6.2-16.1-12.5-23.5-19.5v-4.2c0,0-3.5.7-3.5.7-6.7-7-13.2-14.3-19.2-21.9l1.3-3.4h-3.8c-3.6-3.3-14.4-20.3-11.6-24.5-5.5.2-14.3-15.6-10.7-19.9-4.3,2.4-11.5-19.6-11.2-20.9l2-3.7c-1.9-6-3.2-12.3-4.6-18.4-6.1-5.2-8.6-17.7-4.6-24.5-.9-7.6-1.4-15.3-1.5-23-.2-7.8-.5-16.8,0-24.5-4.9-3-2.1-19.6,3.1-21.5-4.3-4.8-1-18.6,4.6-21.5-4.2-1.7,1.6-19.3,3.4-21.8s2.8-2.2,4.2-2.7c-4.1-2.2,3.5-17.3,5.8-20.1,1.1-1.4,3.2-2.6,4.9-2.9-3.5-4.1,5.5-19.4,10.7-18.4-.8-4.7,1.3-9.4,6.4-14.2,4.1-7.1,9.1-11.6,15.1-13.5l.3-4.9c7.1-9.7,22.2-24.8,33.5-27.3.5-1.3,1.1-2.7,1.8-3.8,6-9.7,42-25.7,54.5-30.5,12.5-4.8,50-16.7,61-13.4s2.6,1,3.9,1.7l4.5-3.5c13.4-1.1,26.8-1.3,40.1,0l4.5,3.5Z"/>
    <path class="st22" d="M250,1.5c2.6,3.9-1.3,5.7-4.8,7.3-6.5,1.6-12.1,4.2-16.7,8-44.3,3.9-85.5,19.7-121.2,46l-4.6.9c-4.9,3.1-17.6,8.4-15.3-.9C134.9,22.1,186.4,2.2,250,1.5Z"/>
    <path class="st54" d="M443.3,404.9c-11.9,15.1-18.8,22.8-33.7,35.3-7.8-4-18.6,8.1-26.1,3.1,15.8-10.8,30.4-23.9,42.9-38.3,3.2-1.8,16.8-7.4,17.2-2.4s0,1.6-.3,2.4Z"/>
    <path class="st63" d="M289.9,4.6c12.7,5.1-5.1,10.7-9.6,11.2l-2.7,1c-17.9-2-31.5-1.5-49.1,0-2.2-2.6-.6-3.8,1.6-5.3,5.8-4,15.6-4,19.9-10,13-.1,27,1.1,39.9,3.1Z"/>
    <path class="st28" d="M107.3,62.9c-11.6,8.6-24.3,21.2-33.7,32.2-3.2,1.8-16.8,7.4-17.2,2.4s0-1.6.3-2.4c11.2-14.3,16.6-20.1,30.7-32.2,4.3,7.2,14.5-6,19.9,0Z"/>
    <path class="st47" d="M467.8,368.1c-8.3,15.4-13.7,23.1-24.5,36.8-4.3-4.7-12.7,4.2-16.9,0,8.9-10.2,19.3-23.7,26.1-35.3,3.4-4,12.5-6.7,15.3-1.5Z"/>
    <path class="st21" d="M331.3,15.3c9,5-5.2,10.7-10.7,10.7-13.9-4.3-28.4-7.6-42.9-9.2-.8-3.9,1.9-3.2,4.2-4.2s15.9-4.7,8.1-8.1c14.4,2.2,27.8,6,41.4,10.7Z"/>
    <path class="st6" d="M469.3,335.9c4.8-2.5,15.7-5.8,12.3,3.1-4.4,11.5-8,18.4-13.8,29.1l-15.3,1.5c5.9-10,12.7-23,16.9-33.7Z"/>
    <path class="st60" d="M484.7,268.4l3.9,3.5c4-1.9,6.8-1.5,8.4,1.1-1.2,13.4-3.2,22.5-6.1,35.3-2,5-15.3,7-12.3-1.5,3-12.4,2.9-25.9,6.1-38.3Z"/>
    <path class="st21" d="M73.6,95.1c-6.7,7.7-15.9,18.9-21.5,27.6-8.9,3.3-13.5,2.8-13.8-1.5,6.6-10.8,10.7-16.3,18.4-26.1,4.3,4.7,12.7-4.2,16.9,0Z"/>
    <path class="st46" d="M492.3,193.2c-.2,4.8-12.1,5.9-13.8,1.5-2.1-8.8-6-20.6-9.2-29.1,4.7-.6,8.7-5.5,13.1-1.5,3.1,2.8,8.7,23.9,10,29.2Z"/>
    <path class="st26" d="M360.4,27.6c6.6,4.6-4.7,9.4-9.2,10.7-9.9-4.7-20.2-9-30.7-12.3,1.3-6,14.8-4.6,10.7-10.7,10.2,3.5,19.5,7.5,29.1,12.3Z"/>
    <path class="st19" d="M498.5,243.9c.2,10.6-.6,19-1.5,29.1l-12.3,3.1c0-2.5,0-5.1,0-7.7-.3-7.6.3-15.4,0-23,.2-4.8,12.1-5.9,13.8-1.5Z"/>
    <path class="st39" d="M478.5,306.8c-1.2,6.5,7.5.1,12.3,1.5-2.8,12.2-4.7,19-9.2,30.7,1.2-7.3-8.6,1.8-12.3-3.1,2.7-7,7.4-21.9,9.2-29.1Z"/>
    <path class="st56" d="M386.5,42.9c6,5.1-5.9,9.9-10.7,9.2-8.1-5.1-15.9-9.7-24.5-13.8-.1-6.3,9.3-4.4,9.2-10.7,9.8,4.9,17,9.4,26.1,15.3Z"/>
    <path class="st33" d="M458.6,141.1c-3.5-6.8-11-19.9-15.3-26.1-1.8-4.4,7.6-9.5,10.7-6.1,3.2,4.8,16.6,20.6,13.1,26.1-1.4,2.2-7.4,2.4-8.5,6.1Z"/>
    <path class="st32" d="M492.3,193.2c1.9,8,3.7,17.9,4.6,26.1-2.5,3.1-11.9,6.3-13.8,1.5-.9-8.1-2.7-18.1-4.6-26.1l13.8-1.5Z"/>
    <path class="st44" d="M454,108.9l-10.7,6.1c-3.5-5.1-11-13.4-15.3-18.4-4.7-5.4,4.4-9.2,9.2-9.2,6.3,7.4,11.2,13.2,16.9,21.5Z"/>
    <path class="st12" d="M408,58.3c1.8,4.5-1.8,7.6-10.7,9.2-7.4-5.9-13.5-10.3-21.5-15.3,1.9-5.3,11.5-3.8,10.7-9.2,8.1,5.3,13.9,9.2,21.5,15.3Z"/>
    <path class="st55" d="M41.4,141.1c-3.1,6-8.4,16.9-10.7,23-2.8,4.8-15.1,9.6-13.8,1.5,3.7-10.1,6.1-15.1,10.7-24.5l12.1-3.3,1.8,3.3Z"/>
    <path class="st31" d="M30.6,164.1c-2.5,6.4-5.8,17.7-7.7,24.5-1.7,4.6-11,7.6-13.8,3.1,2.5-10.4,4-16,7.7-26.1,3.3,3.8,9.1-2.3,13.8-1.5Z"/>
    <path class="st49" d="M496.9,219.3c.9,8.1,1.3,16.4,1.5,24.5l-13.8,1.5c-.3-8.2-.6-16.4-1.5-24.5,4.7.3,9.5-3.7,13.8-1.5Z"/>
    <path class="st30" d="M38.3,121.2c3.6,4.6,14.6-6.6,13.8,1.5-3.2,5-8,13.2-10.7,18.4-5.1-1.5-11.8,5.8-13.8,0,3.9-7.9,6.2-12.4,10.7-19.9Z"/>
    <path class="st27" d="M23,188.6c-1.7,6.5-3.5,14.8-4.6,21.5-.8,4.7-11.9,6-13.8,1.5,1.1-7.9,2.9-12.8,4.6-19.9l13.8-3.1Z"/>
    <path class="st29" d="M437.1,87.4c-1.5,5.5-10,4.2-9.2,9.2-4.1-4.8-9.4-11.1-13.8-15.3-6.3-6.1,3.7-11.4,9.2-9.2,5.2,5.2,9.1,9.9,13.8,15.3Z"/>
    <path class="st7" d="M18.4,210.1c-1.1,6.6-2.7,15.4-3.1,21.5l-12.3,3.1c0-2.5,0-5.1,0-7.7,0-5.8.8-9.8,1.5-15.3l13.8-1.5Z"/>
    <path class="st5" d="M408,58.3c5.4,4.4,10.4,8.9,15.3,13.8-3.3,4.5-11,2.5-9.2,9.2-4.4-4.2-11.9-9.8-16.9-13.8-.7-5.4,8.8-3.9,10.7-9.2Z"/>
    <path class="st24" d="M223.9,483.2c-.4,8-13.4,4.9-13.8,12.3-16.1-2.8-30.8-6.7-46-12.3-8.4-4.3,9.1-10.9,10.3-9.3s-3.7,3.4.5-1.4c16,5.3,32.2,9,49.1,10.7Z"/>
    <path class="st13" d="M174.8,472.4l1.5,3c-3.9,1.6-12.9,3.2-12.3,7.7-12.6-4.6-25.1-10.3-36.8-16.9-6.4-6,5.5-8.4,10.7-9.2,10.5,5.7,25.4,11.5,36.8,15.3Z"/>
    <path class="st16" d="M110.4,438.7c6.1,5.1-4.5,9.2-9.2,10.7-9.7-7.3-19.1-16-27.6-24.5-1.5-4.2,1.6-7.3,9.2-9.2,7.4,7.5,19,16.6,27.6,23Z"/>
    <path class="st59" d="M82.8,415.7c.1,5.7-7.2,4.6-9.2,9.2-7.8-7.8-14.9-15.7-21.5-24.5-4.1-5.7,4.3-9.2,9.2-9.2,5.1,6.8,15.4,18.4,21.5,24.5Z"/>
    <path class="st38" d="M138,457.1c1.3,5.7-11.6,2.6-10.7,9.2-8.4-4.7-18.4-11.1-26.1-16.9,0-6.3,9.3-4.5,9.2-10.7,7.9,5.9,19,13.8,27.6,18.4Z"/>
    <path class="st3" d="M61.3,391.1c-1.5,5.5-10,4.2-9.2,9.2-6.6-8.7-11.4-16.6-16.9-26.1-2.6-3.9,7.1-10.7,10.7-7.7,4.1,7.1,10.6,18.1,15.3,24.5Z"/>
    <path class="st37" d="M35.2,346.6c1.8,4.4-7.6,9.5-10.7,6.1-2.4-5.3-11.7-19.2-6.9-24.5s6.9-2.5,8.4-6.2c2.1,6.7,6.3,18.2,9.2,24.5Z"/>
    <path class="st41" d="M46,366.6l-10.7,7.7c-4.4-7.7-7.1-13.4-10.7-21.5l10.7-6.1c2.5,5.6,7.5,14.3,10.7,19.9Z"/>
    <path class="st43" d="M16.8,279.1c1,8.2,2.8,16.5,4.6,24.5-4.9-3.5-9.8,2.8-13.9-2.2s-4.1-16.6-4.5-20.8l13.8-1.5Z"/>
    <path class="st52" d="M110.4,131.9l12.3,6.1.8-7.7c20.4,13.9,45.4,22.4,63.7,39.1l7.7,14.6v-32.2h82.8c.5,0,1.4,11.9,4.6,7.7.7-.9-1.4-6.1,2.5-7.5s23.5-.8,25.6-.3,2.3,5.8,2.6,7.7c3.1-.2,3.5-7.7,5.4-7.7h74.4v33.7c0,.6-12.3-.6-12.3,0v41.4h-35.3v-41.4c-4.4-.8-2.5,1-3.5,3.4-2.3,5.7-11.1,36.7-14.4,37.8-6.6-.7-20.2,1.9-25.7,0s-1.9-6.7-5.6-7.5c2,13.7-20.6,5.4-29.8,7.8-2-.5-2.6-14.6-7.1-15.4.2,6.7-12.3,15.3-17.7,15.3h-46.8v-27.6l-9.2,16.1c-15.1,14.9-48.6,18-64.2,2.9s-10.9-15.8-10.9-19.8v-66.7Z"/>
    <path class="st53" d="M443.3,257.7c.2.2.3,6.1,0,6.1h-35.3v7.7h35.3c.3,0,.3,6.1,0,6.1h-35.3v7.7h36.8c-1.6,1.4-1.2,6.1-1.5,6.1h-44.5v-33.7c5.7,1.2,42.9-1.6,44.5,0Z"/>
    <path class="st20" d="M246.1,257.7c13.1,2.3,8.8,21.5,1.5,21.5h-36c-1,0,3.8,16.4-9.2,12.3v-33.7c13.1,1.6,31.3-2.2,43.7,0Z"/>
    <path class="st58" d="M315.9,257.7c5.1-5,38.2,17.8,45.2,20l.8-20h7.7v33.8l-46-24.5v24.5h-7.7v-33.7Z"/>
    <path class="st53" d="M119.6,291.4c-8.1,2.8-10.1-3.6-13.8-5.3s-26.1-1.5-29.9-.8-4.8,5-9.3,6.1c-1.6.4-8.3,1.2-6.9-2.2l29.9-31.5c1.9,0,2.7,1.2,3.9,2.4,4.6,4.5,11.5,12.5,16.1,17.6,1.2,1.4,11.1,12.9,9.9,13.8Z"/>
    <path class="st45" d="M148.7,257.7v25.3c0,.2,2.1,2.3,2.3,2.3h31.4c0,1-1.2,6.1-1.5,6.1h-39.1c-.2,0-2.3-2.1-2.3-2.3v-31.4h9.2Z"/>
    <path class="st11" d="M286.8,257.7v33.7c-2.2.4-9.2,0-9.2-2.3v-31.4h9.2Z"/>
    <path class="st0" d="M263.8,368.1c13.2,0,26.7-.7,39.9.8-2.2,2.1-3.6,4.7-6.9,5.3-8.9,1.7-27.3,0-37.5,0-3-2.8-1.5-4.9,4.6-6.1Z"/>
    <path class="st14" d="M240.8,368.1c3,2.8,1.5,4.9-4.6,6.1-11.2,0-23.6.8-34.5,0s-2.3-5.4,1.6-6.1c9-1.7,27.2,0,37.5,0Z"/>
    <path class="st62" d="M320.5,319c.7.7,5.2,13.1,6.2,15.3l10.7-15.3,4.6,21.5c-4.3.7-2.6-.9-3.5-3.4s-2.1-10.4-3.4-10.5l-7.7,12.3-8.4-12.2c-1.2,3.5-.6,14.4-6.1,13.8,1.9-6.2,2.7-13,4.6-19.2.5-1.7.5-4.7,3.1-2.2Z"/>
    <path class="st18" d="M306.7,340.5c-4.2,1.9-4.5-2.8-5.6-3-2.6-.5-9.4-.5-12.1-.2s-2.8,5.9-5.2,3.2,10-21.4,11.5-21.4l11.5,21.4Z"/>
    <path class="st50" d="M260.7,319l15.4.8-12.3,1.7v6.8c14.8-1.5,15.3,4.4,0,3.1.3,1.5-.4,5.7,0,6.1s18-1.3,12.3,3.1h-15.3s0-21.5,0-21.5Z"/>
    <path class="st34" d="M263.8,368.1l-4.6,6.1c-7.6,0-15.4,0-23,0l4.6-6.1c7.6,0,15.4,0,23,0Z"/>
    <path class="st35" d="M161,319l15.4.8-12.3.8v7.7c1.3,1.3,12.5-3,10.7,3.1-2.1.4-10.2-.5-10.7,0-1.3,1.3,2.8,10.9-3.1,9.2v-21.5Z"/>
    <path class="st58" d="M250,319c0,3.2-5.1.3-7,2.9s-.1,12.2-.7,16.2c-.3,2.2-1.2,4.8-3.1,2.3-.5-3.1.7-19.2,0-19.9s-7.8,1.8-7.7-1.5h18.4Z"/>
    <path class="st61" d="M194.8,340.5c-4.3,5.7-2.7-13.1-3.1-14.3s-3.6-.5-3.1-1.8l6.1-5.4v21.5Z"/>
    <path class="st8" d="M206.4,317.6c9.2-2.9,7.8,9.3,1.3,8.7-3-.3-6-7.3-1.3-8.7Z"/>
    <path class="st10" d="M338.9,176.4c-1.8,5.4-13.4,41-15.3,42.2s-17.1,1.2-18.3.5c-2.3-1.5-4.5-24.9-9.4-27.4-.5,3.7-5.2,26.5-6.3,27.5s-15.5.5-17.2,0-2.4-2.6-3.3-4.3c-8-15.2-12-40.3-19.2-56.8,5.2.9,17.5-1.7,21.5.7s6.5,21.1,9.9,25.4c2.3,0,4.8-24.3,9.4-25.9s12.9-.7,14.5.5c2.8,2,4.4,21.7,8.4,25.4,1.9-3.3,7.3-25,8.6-25.9s20-.7,21.8-.3,1.1,2,1,3.1c-1.6,5.4-3.6,10.5-6.1,15.3Z"/>
    <path class="st15" d="M200.9,219.3v-59.1c0-.2,2.1-2.3,2.3-2.3h33.7c4.1,0,10.4,5.2,12.3,9.2,6.6,14-5.4,19.1-5.3,20.7s9.8,5.5,10.7,13.9c.6,5.7-6.3,17.5-11.5,17.5h-42.2Z"/>
    <path class="st15" d="M118.1,144.2l12.3,6.1.8-7.7c13.2,10.8,52,23.2,55.6,41,2.5,12.2-1.4,24.9-12,31.8-6.6,4.3-29.2,6.7-36.8,4.7-6.5-1.7-19.9-13.3-19.9-20v-56Z"/>
    <path class="st17" d="M346.6,161c.3-.2.5-2.5,3.8-3,10-1.7,24.1,1.2,34.5,0-.5,3.1.7,19.3,0,20s-8.7-.4-10.7,0v41.4h-23c-1.1-5.4,1.5-40,0-41.4s-8.9,1.5-10.7-1.5c.3-4.8,2.5-11.8,6.1-15.3Z"/>
    <path class="st25" d="M346.6,161l-6.1,15.3h-1.5c1.7-5,2.3-11.6,6.1-15.3.5-.1,1.2.2,1.5,0Z"/>
    <path class="st4" d="M211.6,273v-9.2h29.9c3,0,5.6,9.2,1.5,9.2h-31.4Z"/>
    <path class="st1" d="M99.7,279.1c-4.8-.2-9.8.4-14.6,0s-5.1.9-3.8-2.3,8.3-8.9,9.9-8.5,6.8,9.1,8.5,10.7Z"/>
    <path class="st36" d="M296,325.2l3.1,9.2h-9.2c-.6-.5,3.3-11.9,6.1-9.2Z"/>
    <path class="st2" d="M220.8,205.5v-7.7c16.8-2.3,16.8,10,0,7.7Z"/>
    <path class="st51" d="M228.3,173.5c5.6,3.4-4,12.4-7.4,9s.3-7.3,0-9.2c2.1.3,5.9-.7,7.4.2Z"/>
    <path class="st57" d="M122.7,151.8c.7-.8,11.4,5.3,12,7.1,3.9,11.7-8.8,47.7,14.8,43.5s8.8-9.6,6.2-15.3-6.5-4.1-6.9-5.7c-.8-3.5.6-8.9,0-12.7,33.3,4.6,26.7,53-8.3,47.4-5.8-.9-17.7-10.6-17.7-16v-48.3Z"/>
  </g>
</svg>