<?xml version="1.0" encoding="UTF-8"?><svg id="CIRCLE_OUTLINE_BLACK" xmlns="http://www.w3.org/2000/svg" viewBox="0 0 512 512"><circle cx="256" cy="256" r="256" fill="#fff" stroke-width="0"/><path d="m409.20499,242.87673l-133.31567-142.87517c-3.68652-3.95087-8.62085-5.73111-13.44336-5.37501v322.74904c4.82251.35623,9.75708-1.42414,13.4436-5.37501l133.31543-142.8749c6.76343-7.2484,6.76343-19.00054,0-26.24894Z" fill="#6667ab" stroke-width="0"/><path d="m133.54019,225.20834l-30.85449,21.19019c-6.61768,4.54468-6.61768,11.91333,0,16.45801l32.54541,22.35181,42.83691-29.41943-44.52783-30.58057Z" fill="#b2b3d5" stroke-width="0"/><rect x="246.27737" y="153.44638" width=".00012" height="61.16113" fill="#b2b3d5" stroke-width="0"/><path d="m233.12418,352.43881l-97.89307-67.23047-32.54541,22.35156c-6.61768,4.54468-6.61768,11.91309,0,16.45801l130.43848,89.58215c3.60693,2.47717,8.43481,3.59338,13.15308,3.37012l.00024-202.36267h0l-.00024,141.20142c-4.71826.22339-9.54614-.89282-13.15308-3.37012Z" fill="#b2b3d5" stroke-width="0"/><path d="m246.27725,296.97055c-4.71826.22314-9.54614-.89307-13.15308-3.37012l-55.05615-37.81152-42.83691,29.41943,97.89307,67.23047c3.60693,2.47729,8.43481,3.59351,13.15308,3.37012l.00024-141.20142h-.00024v82.36304Z" fill="#8b8dc0" stroke-width="0"/><path d="m246.2775,153.44638v-58.83862c-4.71851-.22314-9.54663.89307-13.15356,3.37012l-130.43823,89.58203c-6.61768,4.54492-6.61768,11.91333,0,16.45801l30.85449,21.19043,99.58374-68.39185c3.60693-2.47729,8.43506-3.59351,13.15356-3.37012Z" fill="#b2b3d5" stroke-width="0"/><path d="m233.12393,217.97763c3.60693-2.47705,8.43481-3.59351,13.15332-3.37012l.00024-61.16113c-4.71851-.22339-9.54663.89282-13.15356,3.37012l-99.58374,68.39185,44.52783,30.58057,55.05591-37.81128Z" fill="#8b8dc0" stroke-width="0"/><path d="m233.12393,217.97763l-55.05591,37.81128,55.05615,37.81152c3.60693,2.47705,8.43481,3.59326,13.15308,3.37012v-82.36304c-4.71851-.22339-9.54639.89307-13.15332,3.37012Z" fill="#787ab5" stroke-width="0"/></svg>