<?xml version="1.0" encoding="UTF-8"?>
<svg id="Layer_1" xmlns="http://www.w3.org/2000/svg" version="1.1" xmlns:xlink="http://www.w3.org/1999/xlink" viewBox="0 0 500 500">
  <!-- Generator: Adobe Illustrator 29.0.1, SVG Export Plug-In . SVG Version: 2.1.0 Build 192)  -->
  <defs>
    <style>
      .st0 {
        fill: #fff;
      }

      .st1 {
        fill: url(#linear-gradient);
        fill-rule: evenodd;
      }
    </style>
    <linearGradient id="linear-gradient" x1="444.1" y1="604" x2="167.9" y2="604" gradientTransform="translate(-56 854) scale(1 -1)" gradientUnits="userSpaceOnUse">
      <stop offset="0" stop-color="#3568dd"/>
      <stop offset="1" stop-color="#7da3f9"/>
    </linearGradient>
  </defs>
  <circle id="bg" class="st0" cx="250" cy="250" r="248.5"/>
  <path class="st1" d="M125.1,422.7c-2.3,1.4-5.2.7-6.7-1.4l-5.7-8.4c-1.5-2.2-1-5.1,1.1-6.8,18.7-14.6,34.1-31.1,46.2-48.8,45-65.8,45-148.7,0-214.5-12.1-17.7-27.5-34.2-46.2-48.8-2.1-1.6-2.6-4.6-1.1-6.8l5.7-8.4c1.5-2.2,4.4-2.8,6.7-1.4l252.4,153.9c14.1,8.6,14.1,29,0,37.6l-252.4,153.9Z"/>
</svg>