<?xml version="1.0" encoding="UTF-8"?><svg id="CIRCLE_OUTLINE_BLACK" xmlns="http://www.w3.org/2000/svg" viewBox="0 0 512 512"><circle cx="256" cy="256" r="256" fill="#d62d79"/><path d="m384,272H128c-8.8,0-16,7.20001-16,16s7.2,16,16,16h21.2c-3.10001,9-6,17.29999-8.60001,24.79999-3.5,10.20001-6.5,18.70001-8.5,24.70001l-3.2,9.29999c-2.9,8.39999,1.5,17.5,9.89999,20.39999s17.5-1.5,20.39999-9.89999l3.2-9.29999c2.10001-5.89999,5-14.39999,8.5-24.70001s7.7-22.29999,12.2-35.20001h145.90002c4.5,13,8.60001,25,12.20001,35.20001,3.5,10.29999,6.5,18.79999,8.5,24.70001l3.20001,9.29999c2.89999,8.39999,12,12.79999,20.29999,9.89999,8.39999-2.89999,12.79999-12,9.89999-20.39999l-3.20001-9.29999c-2.10001-5.89999-5-14.39999-8.5-24.70001-2.60001-7.39999-5.5-15.79999-8.60001-24.79999h21.20001c8.79999,0,16-7.20001,16-16s-7.20001-16-16-16Z" fill="#fff"/><path d="m384.00016,208.00002h-54.30029c-13.3999-38.90002-24.6001-71.30005-26.5-77.10004-3.3999-10.20001-9-19.29999-17.6001-25.70001-8.59961-6.5-18.8999-9.19995-29.59961-9.19995s-21,2.69995-29.6001,9.19995c-8.6001,6.40002-14.2002,15.40002-17.6001,25.70001-1.8999,5.79999-13.1001,38.20001-26.5,77.10004h-54.2998c-8.80029,0-16,7.19995-16,16s7.19971,16,16,16h256c8.7998,0,16-7.20001,16-16s-7.2002-16-16-16Zm-167.80029,0c11.80029-34.10004,21.2002-61.5,23-66.90002,1.8999-5.79999,4.30029-8.70001,6.3999-10.29999,2-1.5,5.2002-2.79999,10.40039-2.79999,5.2998,0,8.3999,1.29999,10.3999,2.79999,2.1001,1.59998,4.5,4.59998,6.3999,10.29999,1.7998,5.29999,11.2002,32.70001,23,66.90002h-79.6001Z" fill="#fff"/></svg>