<?xml version="1.0" encoding="UTF-8"?><svg id="CIRCLE_OUTLINE_BLACK" xmlns="http://www.w3.org/2000/svg" xmlns:xlink="http://www.w3.org/1999/xlink" viewBox="0 0 512 512"><defs><radialGradient id="Degradado_sin_nombre_69" cx="256" cy="256" fx="256" fy="256" r="256" gradientUnits="userSpaceOnUse"><stop offset="0" stop-color="#24356b"/><stop offset="1" stop-color="#1050e5"/></radialGradient></defs><circle cx="256" cy="256" r="256" fill="url(#Degradado_sin_nombre_69)"/><path d="m9.39672,224.52148c2.64844-3.71631,4.23633-7.9292,4.59229-12.17969,2.14355-25.60791,18.62744-52.62061,29.53564-70.49658,1.46143-2.39502,2.3291-5.11377,2.5791-8.08594.96875-11.49463,3.1709-22.61377,6.51465-33.22412-.37744.49316-.75977.98291-1.13379,1.479-3.06787,10.14893-5.10449,20.74951-6.02637,31.68896-.2417,2.87109-1.07861,5.49658-2.48682,7.80273-10.93945,17.9292-27.47168,45.02051-29.62842,70.78027-.34619,4.13672-1.89355,8.23779-4.47412,11.86084-2.8833,4.04541-5.5791,8.04639-8.10938,12.01025-.03418.44482-.05664.89307-.08887,1.33887,2.70361-4.27783,5.60889-8.60107,8.72607-12.97461Z" fill="#fdfdfb"/><path d="m458.93724,317.78027l.06836-.04541c21.61426-18.6792,40.52832-50.38477,51.93018-85.00928-.04736-.52734-.08984-1.05566-.14062-1.58252-11.30762,35.02393-30.36523,67.20459-52.18213,86.0752-15.62598,7.7417-15.42139,14.28857-15.0498,26.16748.14648,4.68604.3125,10-.42578,16.55664-6.13574,28.30908-16.71973,52.44092-31.45752,71.72949-16.88477,22.09912-39.89111,38.76514-68.36475,49.52441-17.59863,5.68359-41.3042,4.89111-50.67969,4.27832-3.92188-.25781-7.61133.24561-10.96338,1.49121-28.33203,10.54199-57.30322,11.60791-72.04932,11.32666h-.01465c-14.22754.34521-26.37012.25439-36.86963-.1499.71094.24414,1.42236.48682,2.13623.7251,5.49316.18506,11.42578.28564,17.85645.28564,5.28027,0,10.90479-.06836,16.88428-.2124,14.7998.2959,43.85352-.79004,72.28271-11.36719,3.26514-1.21289,6.86523-1.7041,10.69482-1.45068,9.41211.60742,33.21631,1.41016,50.93652-4.31396,28.60352-10.81006,51.70605-27.54688,68.66553-49.74219,14.7959-19.36475,25.41943-43.58496,31.58105-72.02051.74854-6.63525.58203-11.97217.43457-16.68115-.36328-11.61768-.56348-18.01758,14.72656-25.58496Z" fill="#fdfdfb"/><path d="m474.06615,334.69677c-7.03516,2.90625-7.0625,9.49658-7.09424,17.12402-.01465,3.60791-.03174,7.69629-.79688,11.80273-4.53467,28.52686-15.43506,53.43604-34.2959,78.38086.94336-.89209,1.87402-1.79688,2.80322-2.70361,17.5127-23.98438,27.7666-48.1084,32.13135-75.56836.77441-4.1543.7915-8.27344.80615-11.90869.03223-7.71924.05713-13.81543,6.7417-16.5498l.09131-.05566c12.71387-11.14355,24.66455-26.04102,35.01953-43.25.07715-.54639.15625-1.0918.22949-1.63916-10.48682,17.68506-22.66357,32.9873-35.63574,44.36768Z" fill="#fdfdfb"/><path d="m286.15062,510.0371c-.27637.09863-.54736.18359-.82275.28076,1.06592-.12158,2.13525-.23096,3.19727-.36572,1.31299-.33105,2.63477-.50439,3.97266-.55371,1.25781-.17969,2.51465-.3623,3.7666-.56006-3.45508-.22461-6.78516-.18359-10.11377,1.19873Z" fill="#fdfdfb"/><path d="m421.39818,314.41552c15.98584-7.9541,31.64258-21.85303,44.08594-39.13672,13.04346-18.11914,21.14551-38.30127,22.8125-56.83057.23096-2.56445.93262-5.05566,2.08447-7.40527,4.94336-10.06738,7.91064-22.31836,8.88721-34.93408-.21436-.6543-.41797-1.31396-.63818-1.96631-.79688,13.29785-3.75098,26.27051-8.83057,36.61719-1.1875,2.41992-1.91016,4.9873-2.14844,7.63281-1.65674,18.4126-9.71631,38.48096-22.69336,56.50635-12.38281,17.20264-27.95508,31.02832-43.89062,38.95996-3.2749,2.31104-2.36328,13.55713-1.48193,24.43018.58496,7.21533,1.13721,14.0332.50928,17.98779-11.16602,50.96973-39.17871,85.4585-83.24219,102.50146-11.40527,3.66113-27.92236,4.6582-49.09473,2.9624-2.83447-.21777-5.73047.23291-8.60596,1.36426-20.96533,8.23291-46.95654,12.66846-69.52393,11.85596h-.0166c-42.51025.63965-78.06348-.44775-108.04102-14.78613.81689.61914,1.6377,1.23389,2.4624,1.84326,25.61182,11.44385,55.19336,13.72266,89.59668,13.72266,5.21338,0,10.5459-.05078,15.9834-.13184,22.65234.81299,48.73486-3.64062,69.77637-11.90137,2.7832-1.09375,5.58105-1.54932,8.31738-1.31885,21.25684,1.69385,37.85791.69629,49.36182-3,44.29688-17.13184,72.44434-51.77734,83.6626-102.99316.64404-4.04785.08838-10.90381-.5-18.15918-.82617-10.19531-1.76221-21.74951,1.16748-23.8208Z" fill="#fdfdfb"/><path d="m30.10619,234.94189c-13.57422,17.86133-22.96436,34.91064-28.30078,51.4624.06152.52246.11426,1.04834.1792,1.57031,5.23096-16.90527,14.73096-34.34131,28.6377-52.64258,3.61963-4.76221,5.73291-10.55957,6.10986-16.76221,1.44238-23.72168,16.1748-47.18506,26.93164-64.31934,1.79248-2.85596,2.93213-6.104,3.38721-9.65088,5.88574-45.88135,26.34668-82.65332,57.61426-103.53955,18.38428-12.28125,39.84277-18.55469,62.50293-18.55469,11.354,0,23.01318,1.57715,34.73193,4.76221,6.41455,1.73389,13.08496.97461,18.78271-2.15234,18.4043-10.10156,43.45459-16.73584,70.94434-19.03613-.7251-.16064-1.45068-.31934-2.17773-.47412-26.75049,2.45752-51.07275,9.05859-69.07861,18.94336-5.54932,3.04541-12.04834,3.79248-18.30127,2.09131-35.28955-9.58984-70.01025-4.6582-97.76465,13.88086-31.42529,20.99268-51.98682,57.92676-57.89697,103.99805-.44336,3.45312-1.55078,6.61035-3.29297,9.3877-10.79443,17.19238-25.57715,40.73682-27.0293,64.62305-.36963,6.07568-2.43701,11.74902-5.97949,16.4126Z" fill="#fdfdfb"/><path d="m473.468,146.89843c-5.95459-20.21777-19.78076-37.32422-37.93896-46.95215-12.54834-21.6001-32.54053-36.25098-59.42432-43.55469-22.93506-6.22559-51.18652-6.92676-81.71143-2.02783-16.64209,3.26074-27.23877,9.20264-36.58789,14.4458-6.43701,3.60986-12.51709,7.02002-19.80176,9.18213-5.09277,1.51123-10.54297,1.09863-15.34473-1.17236-15.27295-7.20508-30.19434-9.91357-44.34619-8.01514-16.92627,2.25342-32.34424,11.10156-45.82471,26.29639-9.8667,10.9165-13.6958,29.83301-17.39844,48.12451-1.23291,6.08838-2.50732,12.38232-3.97559,18.17236-2.70898,11.01758-8.58105,19.62793-14.25977,27.9541-8.06445,11.82324-15.68164,22.99268-14.1626,39.96777.83057,9.2832-2.40332,18.82031-8.87207,26.16211-19.70459,22.36426-29.11865,41.59229-30.52441,62.33936-.1001,1.47852.04102,3.06104.41943,4.70898,1.58691,6.90625,2.79248,13.12158,3.9585,19.13184,4.51074,23.25537,8.07373,41.62549,29.31152,69.80273,32.44775,41.13428,75.16895,41.01025,129.27588,40.82275l3.35254-.00977c1.18408.02246,2.40918.03516,3.67432.03516,15.66602,0,37.21973-1.95166,57.20068-10.38232l2.73633-.98486q7.33496-2.64551,11.36963-2.26318c1.21387.1167,2.7251.2583,4.83838.37207,21.49463,4.3291,42.92676-.2959,61.98096-13.39502,23.70361-16.29883,41.43408-44.24072,46.26074-72.87598,1.40625-4.24072,1.10254-10.88867.75049-18.58496-.53809-11.77002-1.14795-25.10938,3.94287-34.94189,2.41064-3.82031,11.35254-8.51904,17.88135-11.95215,3.74268-1.96729,6.69922-3.51904,7.85156-4.53662,15.42041-12.43555,38.5293-49.10156,37.63672-72.33984-.07227-1.896.44385-3.8833,1.49268-5.75195,9.8374-17.5166,12.05273-38.03564,6.23828-57.77734Zm-8.37842,63.55469c.88574,23.05322-22.0752,59.45361-37.40723,71.81836-1.10547.97461-4.17725,2.58984-7.73486,4.46045-6.96143,3.6582-15.62451,8.21045-18.14209,12.20264-5.18408,10.01025-4.57031,23.44336-4.02832,35.29395.34912,7.63281.65039,14.22266-.72998,18.3999-4.81055,28.5166-22.43701,56.29395-46.00049,72.49658-18.90625,13-40.16797,17.59033-61.53174,13.28906-2.14746-.12158-3.65186-.26367-4.86035-.37744q-4.17969-.38477-11.6499,2.29883l-2.75195.98975c-21.50732,9.07373-44.84766,10.58252-60.63037,10.30371h-.00732l-3.35645.01025c-53.91748.18506-96.51318.31152-128.76074-40.56982-21.14355-28.05322-24.51807-45.45068-29.18896-69.53174-1.1665-6.01562-2.37305-12.23584-3.96289-19.15479-.36377-1.58203-.5-3.10352-.40381-4.5166,1.39453-20.59766,10.75928-39.70654,30.36328-61.95459,6.58643-7.47607,9.87793-17.18994,9.03223-26.64844-1.49854-16.74414,6.05469-27.82031,14.05176-39.54688,5.71143-8.37451,11.61719-17.03271,14.35352-28.16211,1.47168-5.80273,2.74805-12.104,3.98145-18.2002,3.68604-18.20752,7.49707-37.0332,17.24658-47.82031,31.17188-35.13428,65.82715-29.25342,89.41113-18.12695,4.94678,2.33447,10.56055,2.76221,15.80615,1.20752,7.354-2.18457,13.46484-5.6123,19.93408-9.24023,9.30664-5.21777,19.85498-11.13184,36.38477-14.37207,90.91846-14.59521,127.05713,22.14648,140.50781,45.34961l.04688.08057.08203.04346c18.0459,9.53662,31.78809,26.52393,37.70264,46.60742,5.76465,19.57227,3.56934,39.91162-6.18213,57.27393-1.10693,1.97217-1.65186,4.08105-1.57471,6.09619Z" fill="#fdfdfb"/><path d="m451.84935,145.12109c-4.85645-10.45312-15.98975-19.71631-24.47412-25.64551-4.37549-3.05859-8.12109-6.68604-11.13281-10.7876-6.49561-8.83789-13.03174-16.89893-27.28271-26.04297-25.65137-15.99756-99.00879-14.40771-128.43652,8.15674-8.0332,6.16211-17.15039,9.78516-26.36475,10.47852-2.58838.19775-4.52686.31641-5.45703.36963l.14258-.23779-.53223-.0332c-5.17871-.31641-9.20068-2.65039-13.45947-5.12402-5.00195-2.90381-10.67139-6.19482-19.14844-6.57471-10.64014-.52393-30.44531-1.53418-46.61133,17.83838-8.81543,11.27344-11.1377,25.25586-13.38281,38.77979-1.10791,6.6709-2.1543,12.96973-3.94092,18.72168-.33789,1.08838-.64111,2.18994-.90088,3.27344-3.10889,12.96973-9.39453,21.74463-14.93945,29.48633-6.91895,9.66064-12.89355,18.00244-11.13135,31.45312,1.85449,14.15186-3.5918,28.84326-14.56934,39.29639-2.58545,2.46094-4.23828,4.1167-5.20703,5.21777-14.19434,16.76709-25.85449,43.11182-17.91309,61.33691,2.7876,6.39746,4.30029,12.10938,4.625,17.46094,1.62305,26.76465,30.3667,63.21045,56.9165,72.20068,12.84766,6.30127,45.94531,6.53418,72.54004,6.72412,2.19824.01514,4.34082.03027,6.40918.04785,1.34277.0127,2.66455.11377,4.01367.22559,1.61914.13135,3.26807.19482,4.94287.19482,14.98535,0,31.98438-5.02051,47.16064-9.50146,2.96875-.87842,5.86914-1.73438,8.67041-2.5293,5.35449-1.51611,10.80127-2.10352,16.18994-1.72656,1.37256.09375,2.76367.2002,4.16406.30908,4.46924.34424,9.08057.69873,13.52344.69873.33691.00244.67188-.00244,1.00635-.00488,17.89209,0,34.29541-8.12695,47.4458-23.50928,10.56201-12.35449,18.75928-29.18506,22.48242-46.14941,1.5918-5.05566,1.03711-13.68115.39502-23.66602-1.35742-21.11426-3.04639-47.39258,16.25049-49.97998,24.65967-2.13428,47.48926-35.80029,50.67432-63.33447.7124-6.16211,2.59229-12.63037,5.91553-20.35449,6.22705-14.47852,6.82422-34.271,1.42041-47.05859l-.00439-.01025Zm-2.01123,46.81055c-3.34863,7.78711-5.24414,14.31152-5.96387,20.53662-3.15723,27.29395-25.72314,60.65625-50.10156,62.76514-19.91211,2.6709-18.20068,29.28369-16.82617,50.66602.6377,9.92139,1.18848,18.49121-.37451,23.46094-3.70801,16.88867-11.854,33.61768-22.34912,45.89355-13.02393,15.23584-29.25537,23.28125-46.95752,23.28125h-.19629c-4.66406.07373-9.55322-.3291-14.2793-.69092-1.40234-.10889-2.79492-.21533-4.16895-.31152-5.46338-.36719-10.98486.2124-16.41113,1.75195-2.8042.79492-5.70605,1.65088-8.67773,2.5293-16.81885,4.96924-35.88135,10.58984-51.8667,9.28076-1.36133-.11133-2.69678-.2124-4.06104-.2251-2.06934-.01807-4.21191-.0332-6.41113-.04834-25.12842-.17969-59.54395-.42285-72.29785-6.67334-26.38379-8.93701-54.90576-45.09131-56.51562-71.64355-.3291-5.42773-1.85938-11.2124-4.67773-17.67822-7.83057-17.97266,3.74512-44.04102,17.81006-60.65381.95117-1.0835,2.5918-2.72656,5.1626-5.17188,11.12695-10.59521,16.64648-25.49414,14.76514-39.85352-1.729-13.19482,4.17676-21.44092,11.01562-30.99023,5.57959-7.78955,11.9043-16.62012,15.04297-29.71143.25635-1.0708.55566-2.15967.88916-3.23291,1.80029-5.79248,2.8501-12.1167,3.96143-18.81006,2.23193-13.44092,4.54053-27.33936,13.24805-38.47656,12.59424-15.09619,26.6958-17.77979,39.63623-17.77979,2.18311,0,4.33594.07617,6.43994.18262,8.31982.37207,13.67529,3.48096,18.854,6.48877,4.18262,2.42773,8.1416,4.72656,13.21729,5.16943l-.23193.38965.7749-.05322c.59277-.03271,2.77832-.15918,5.91992-.39453,9.34033-.7041,18.57666-4.375,26.71045-10.61035,29.2627-22.4458,102.19824-24.02783,127.69531-8.12402,14.1543,9.08105,20.65039,17.09131,27.10693,25.87842,3.05371,4.15723,6.8501,7.83545,11.28369,10.93457,8.41846,5.8833,19.45898,15.06055,24.25586,25.38232,5.33789,12.64062,4.74072,32.21533-1.42139,46.54199Z" fill="#fdfdfb"/><path d="m22.69066,333.21337c-.69531-3.82031-1.40576-7.72168-2.16064-11.66846-.46436-24.46875,10.10742-49.49902,32.31885-76.52441,4.43799-5.39746,6.95068-12.4126,7.07568-19.75195.38428-22.5166,13.6709-46.8208,26.71045-60.9751,1.0874-1.90137,1.91602-4.81543,2.4585-8.63525.96875-4.31689,1.89941-8.76465,2.7998-13.06885,4.75879-22.75195,9.68018-46.27588,22.37695-61.00781,21.54004-24.14453,44.77539-35.98975,71.41113-35.98975,11.77295,0,24.21338,2.31641,37.45996,6.90625,6.35693,2.19971,13.45801,1.7417,19.48145-1.2583,2.67627-1.33447,5.33447-2.76709,8.14844-4.28369,10.72363-5.77441,22.87793-12.31885,39.50391-14.89355,17.64502-3.33691,42.64355-4.14941,65.24268-2.104,10.72266.96729,20.42188,2.50732,28.87793,4.53174-.65234-.37842-1.30615-.75439-1.96191-1.12744-7.97803-1.79004-16.99463-3.16016-26.85791-4.0498-22.65381-2.04834-47.72119-1.23535-65.41064,2.11133-16.7251,2.5874-28.93164,9.16211-39.70117,14.9624-2.80957,1.51367-5.46338,2.94141-8.13037,4.27051-5.86914,2.92432-12.78711,3.37207-18.98047,1.22803-43.49463-15.06592-78.31006-5.7749-109.57031,29.26855-12.80957,14.86328-17.74805,38.47119-22.52441,61.30127-.89941,4.30176-1.83008,8.74951-2.80176,13.08643-.52832,3.71143-1.35254,6.62549-2.34131,8.36963-13.08008,14.1875-26.45215,38.6582-26.83887,61.34717-.12256,7.19238-2.58301,14.06592-6.92822,19.35205-22.31396,27.14697-32.93359,52.31689-32.46094,77.00049.76074,4,1.4707,7.90137,2.16553,11.71875,3.42236,18.80176,6.44092,35.36914,13.18262,52.32617.76514,1.30029,1.53418,2.59717,2.32129,3.88232-7.94873-18.36816-11.1748-36.04346-14.86621-56.32471Z" fill="#fdfdfb"/><path d="m192.7513,134.7953c-2.74432.11013-5.61016,3.77344-8.4165,11.57095-2.80508,7.79751-8.1608,18.36212-12.24184,24.9014-4.08103,6.54054-4.5899,9.30638-3.82534,12.57728.76456,3.26964,6.63041,4.27597,8.67093,4.52661,2.04052.2519-.51013-9.80891,0-14.08488.32152-2.69622,5.65952-9.78866,9.56461-16.72794,2.28862-4.06584,3.43293-9.36714,4.038-11.44436,2.04052-7.0013,5.52661-11.45196,2.21014-11.31905Z" fill="#fdfdfb"/><path d="m292.60119,322.43932c3.69749-1.88609,11.73171-4.15065,15.81274-4.15065,4.07977,0,8.67093-.62785,12.11399-3.77217,3.44306-3.14432,2.6785-9.9355,4.08103-16.97857s3.82534-12.9545,7.52409-16.85325c3.69749-3.89875,12.87981-16.01401,11.17854-21.04441,0,0-3.91015-3.21268-9.64815-4.038-5.73927-.82532-15.30261-.07089-20.27606,5.46332-4.97344,5.53421-5.86585,11.94816-12.11525,17.23047-6.24813,5.28104-15.04691,11.06715-15.55704,12.70133-.51013,1.63545-.51013,27.29128,0,30.4356s3.18736,2.89369,6.88611,1.00633Z" fill="#fdfdfb"/><path d="m432.7475,153.9954c-3.74053-8.04814-17.52794-17.59123-23.12417-20.96087-8.16207-4.91268-11.73171-19.95453-31.83434-32.53182-14.28489-8.93676-59.4712-8.04941-75.79407-5.03041-16.32287,3.01774-31.62548,14.96717-31.62548,14.96717-4.47724,3.14559,15.64312,1.96963,22.44442,2.97596,6.8013,1.00633,21.4229,7.54561,30.09509,21.37733,8.67093,13.83172,7.31143,40.83439,7.14054,58.61043-.16962,17.77478-.67975,30.85459-.67975,30.85459,0,0,7.14181,4.86332,11.90133,6.53927,4.76205,1.67722,17.34313,6.03674,26.8647,10.06208,9.52157,4.02407,17.68364,9.72537,21.76467,12.57602,4.07977,2.85065,7.31016.83924,10.54183-2.0114,3.2304-2.85191,14.79248-16.60135,19.72289-26.83052s3.2304-23.81152,3.2304-23.81152c1.02026-9.39119,6.12155-13.41526,8.84182-19.11656,2.72027-5.70256,2.64052-23.08367.51013-27.66977Z" fill="#fdfdfb"/><path d="m359.29521,264.67067c-3.40128-2.01267-5.61142-2.5152-8.33169,0s-10.71145,16.26591-14.79248,24.90646c-4.08103,8.64055-3.06078,13.99754-4.25066,23.72291-1.18988,9.72663-9.01144,11.40386-13.26209,12.40893-4.25066,1.00633-18.53301,1.84558-27.71534,3.52154-9.18106,1.67722-14.79248,7.88232-18.53301,11.7393-3.74053,3.85572-4.08103,10.7317-4.76078,12.91146s-4.42028,3.18609-8.84182,2.85065c-4.42028-.33544-3.05445-3.01774-6.80004-2.34685-1.8709.66962-1.36077,2.68229-2.55065,5.1975-1.19115,2.5152-5.49243,5.76585-8.6722,5.1975-2.53925-.45317-4.68483-3.96078-7.48105-2.68229-1.27342.58102-2.72027,5.7013-4.76078,8.2165-2.04052,2.51647-8.67093,3.52154-11.05196.83924-2.37976-2.68356-5.27091-3.019-6.46079-1.84431-1.18988,1.17342-5.95066,6.87472-9.18233,7.71396-3.2304.83798-9.86081.33418-12.41146-1.51013s-6.8013-8.2165-10.0317-8.04941c-3.2304.16836-1.70001,4.19243-3.74053,6.37219-2.04052,2.18102-13.09247,2.18102-19.72289,1.51013-6.63168-.67089-10.54183-1.67722-12.75197-3.18609-2.2114-1.50887-3.5709-5.03041-7.14181-6.03674s-7.31143,1.84431-11.56209.16709c-2.21014-1.17342-2.55065-6.37219-6.29117-8.88739-2.88989-1.34178-8.67093,0-11.22158-.67089-2.55065-.67089-4.93041-3.01774-6.29117-4.86332-1.36077-1.84431-9.01144-4.02407-8.50131-1.00507.51013,3.01774,6.97092,22.13429,16.66211,33.53688,9.69246,11.40259,15.81274,15.76337,28.05584,20.96214,12.24184,5.1975,44.37745,4.69496,64.10034,5.03041,19.72289.33544,34.17613-.16836,47.77747-5.03041,13.6026-4.86332,20.0634-8.04941,30.26598-8.55321,10.20132-.50253,28.90521,3.18609,39.95591,0,11.05196-3.18609,23.29379-20.62542,23.29379-20.62542,9.52157-12.24184,12.75323-21.46467,14.11273-30.01661,1.36077-8.55194-.84937-41.75465,0-52.15091.85064-10.39626,2.65571-13.1545,5.61142-15.76337,6.46079-5.7013,6.8013-6.37219,5.27091-8.55194s-4.59116-3.01774-7.99118-5.03041Z" fill="#fdfdfb"/><path d="m341.44069,238.93129c-8.92536-2.01393-11.47601-3.2709-15.55578-9.30764-4.0823-6.03674-.2557-42.25845-2.55065-65.39908-2.29621-23.14063-8.41777-29.93307-19.21402-38.40653-10.79499-8.47599-32.30523-7.87472-46.33315-5.86332-14.02666,2.01267-28.60142,2.76584-28.60142,2.76584,0,0-6.76459.92279-15.09502-3.10128-6.42282-3.10128-11.90259-8.04814-20.63808-9.00005-7.00383-.76076-20.84821.61646-27.48116,9.50258-6.63041,8.88739-9.17979,24.48241-10.03043,33.20271-.85064,8.7203-4.25066,18.61402-4.25066,18.61402-2.04052,11.40259-8.33169,24.31532-12.92285,30.35206-4.59116,6.03547-9.69246,11.56968-12.58234,17.77478-2.88989,6.2051-1.53039,9.55828,1.8709,15.25957,3.40002,5.7013,4.08103,9.38992,4.42028,15.25957.34051,5.86965-5.95066,11.06715-13.77096,18.44567-7.82156,7.37852-13.43425,13.58235-17.85452,18.61402-4.42028,5.03041-1.3595,4.52787,1.53039,4.52787s3.91015.33544,6.46079,3.01774c2.55065,2.68356,8.6722,1.50887,13.43298,1.67722,4.76078.16709,1.70127,1.50887,3.91015,2.85065,2.2114,1.34178,3.5709.16709,8.84182.16709s4.5899,1.84558,5.44053,3.18609c.85064,1.34178,2.04178.83924,4.93167.16836,2.88989-.66962,6.97092-1.50887,11.73171,0s4.93167,5.03041,7.14054,7.37852c2.2114,2.34811,5.95193-1.50887,8.50258-1.00633s2.37976,2.85065,4.5899,4.19243c2.2114,1.34051,8.1608-1.34178,12.58234-.50253,4.42028.83798,4.59116,5.03041,8.33169,5.53294,3.74053.5038,3.91015-3.35445,9.86081-3.01774,2.72027-.33671,4.42154.16709,9.01144,2.34811,4.59243,2.17849,4.42028-3.02027,8.6722-2.68482,4.25066.33671,5.61142,3.68989,7.99118,3.68989,2.38103,0,2.55065-3.64685,8.28865-3.39495,5.738.25063,15.17603-2.01267,18.36339-2.89369,3.18736-.87975,7.52409.62912,8.03422,5.53421.50886,4.90509-1.14811,14.21147,1.14811,16.47477,2.29495,2.26457,6.75826-3.64685,7.52409-5.91016.7633-2.26457-.76583-35.21537,1.52912-40.49641,2.29621-5.28231,11.22158-8.80511,14.79248-12.32665,3.5709-3.52027,7.39751-11.56968,8.4165-14.58868,1.02026-3.01774,8.92663-9.80891,17.59883-12.32412,8.67093-2.5152,21.93176.50253,29.32927,3.52027,7.39498,3.019,12.75197,7.54688,17.34313,10.31271,4.59116,2.7671,4.07977,1.76203,8.41523-1.50887,4.33673-3.26964,3.8266-6.53927,1.02026-9.30638-2.80508-2.7671-25.24823-11.31905-34.17613-13.33045Zm-155.23499,25.23558c-12.2431,9.55828-26.18368,19.28491-35.70525,16.10008-9.52157-3.18736-12.24184-8.21776-12.24184-12.07475s.16962-10.39752,3.22913-17.10389c3.06078-6.70763,4.76205-9.05574,5.95066-17.77604,1.19115-8.71903,1.8709-18.10896,7.99118-19.78745,6.12155-1.67596,11.90386-1.67596,24.1457,2.01267,10.43676,3.14559,19.72289,8.71903,21.08365,15.76337,1.3595,7.04181-2.2114,23.30898-14.45324,32.866Zm30.77484-116.79428c-1.27469,11.31778-3.05951,33.70524-10.45702,41.50275-7.39498,7.79751-28.05458,8.55194-32.13435,8.04941-4.08103-.5038-17.59756-4.02534-15.81274-16.60135,1.78482-12.57728,8.1608-13.58362,12.24184-22.63936,4.07977-9.05448,6.357-17.07477,6.71523-18.27731,0,0,1.70001-7.37725,7.48232-10.06081,5.77978-2.68356,16.66338-4.61268,21.50771-2.85191,4.84686,1.76203,11.73297,9.55954,10.45702,20.87859Zm78.38269,44.68884c-6.63041,11.23424-22.27227,17.27224-26.35457,18.11022-4.07977.83798-19.38238,1.84431-31.11409-5.86965-11.73171-7.71396-8.84182-32.19637-6.97092-40.57996,1.86963-8.38359,6.66079-8.82916,9.18233-7.21143.9519.6114,2.88989,1.67722,2.37849,3.52154-.50886,1.84558-3.91015,7.04434-4.5899,15.76337-.68102,8.7203,2.72027,18.11022,5.61016,21.25074,2.89115,3.14052,4.93167-1.29494,4.25066-3.30761-.67975-2.01267-2.20887-8.88865-2.20887-15.93046,0-7.04434,5.61016-17.27224,10.20638-23.98114,4.59749-6.70636,7.3051-8.04814,9.51651-9.38992,2.20887-1.34178.84937-2.34811-.68102-2.85065s-4.93041-.83798-6.63041.33544-5.84848,5.256-9.01144,2.85191c-1.75928-1.33718-1.70127-6.2051,1.8709-8.38485,3.56964-2.18102,15.13172-7.88232,25.50393-6.2051,10.37094,1.67722,17.17224,8.04814,24.48241,19.9558,7.3127,11.90513,1.19241,30.68624-5.44053,41.92174Z" fill="#fdfdfb"/><path d="m163.59165,220.23246c-3.5709-.83798-4.76078,2.34811-6.63041,6.03801-1.8709,3.68863-2.84812,12.11525-3.35825,17.31401-.51013,5.1975-2.76331,9.6836-4.80382,13.03678-2.04052,3.35445-1.86963,7.04307-1.02026,10.06208.85064,3.01774,5.27091,4.86332,6.63168,5.03041,1.3595.16709,0-9.05574,0-11.06715,0-2.01267.93545-5.03167,3.14559-8.88739,2.21014-3.85698,2.9747-13.07982,2.80508-17.27224s1.8709-5.53421,3.2304-8.04941c1.36077-2.5152,1.52532-5.84687,0-6.2051Z" fill="#fdfdfb"/><path d="m156.99922,369.2383c12.68614,2.73039,15.43426-1.63798,15.43426-1.63798,0,0-.48228-53.12686-1.99621-52.78888-1.63292.36329-30.47991,43.68757-30.47991,43.68757,0,0,4.35445,8.0089,17.04186,10.7393Z" fill="#fdfdfb"/><path d="m185.01582,318.16335c-7.99118-.16709-7.99118,6.06712-7.65194,11.43297.34051,5.36585-.51013,27.80647,2.72027,28.31027,3.23166.50253,13.94311-28.1723,14.11273-30.52041.16962-2.34685-3.04052-9.09372-9.18106-9.22283Z" fill="#fdfdfb"/><path d="m192.83738,346.38628c-1.93292.98482-1.73545,5.02155-2.16077,7.49498-.66456,3.87091-1.07089,17.59629,6.75067,17.94313,7.32156.32405,10.60892-8.38359,11.05196-10.90006.64684-3.67723.91393-8.28992-.6481-13.04057-3.91901-1.33039-13.06209-2.48229-14.99375-1.49748Z" fill="#fdfdfb"/><path d="m210.00962,340.84955c1.08988-1.78229,1.51646-6.88864,2.55065-9.43802,2.37976-5.86965,4.77977-10.73297-3.47597-10.39752-4.00255.16329-9.30511-.50253-9.40764,7.88232-.10253,8.38359-1.45697,12.07348,1.16456,12.07348,1.48229,0,7.74941,2.20001,9.1684-.12025Z" fill="#fdfdfb"/><path d="m228.6401,338.03687c1.62912-.58481,2.79369-7.4646,3.13293-10.31524.34051-2.85065-2.8785-5.62788-6.29117-6.72409-2.59748-.83418-4.76078,2.70001-6.12029,6.89244-1.36077,4.19116-1.18988,7.21016-1.18988,8.83169,0,1.62026,8.84055,1.90001,10.46841,1.3152Z" fill="#fdfdfb"/><path d="m242.74903,335.40648c5.23041.04304,5.9418-1.5557,5.63927-7.71396-.30253-6.15826-.10886-8.28232-5.92915-7.57852-5.90383.71393-5.77978,4.73167-5.72155,10.74183.05696,6.01016.78102,4.50762,6.01142,4.55066Z" fill="#fdfdfb"/><path d="m258.35544,332.47735c4.49749.06962,5.07977-1.45064,4.70509-7.32029-.37469-5.87092-.2481-7.89371-5.238-7.25447-5.06205.64937-4.87977,4.4785-4.71901,10.20638.16203,5.72788.7557,4.30002,5.25193,4.36838Z" fill="#fdfdfb"/><path d="m215.13623,356.22937c.74304,7.37852,2.78736,8.88739,6.50383,9.05448,3.36204.1519,8.42156-4.52661,8.39245-8.88739-.02911-4.35952,3.5304-13.2469-4.19622-12.91146-7.72662.33544-6.81269.83798-8.84941,1.00633-2.03672.16709-2.59495,4.35952-1.85064,11.73804Z" fill="#fdfdfb"/><path d="m253.2744,344.81919c.54051,5.36712,2.02786,6.46459,4.7304,6.58611,2.44558.11013,6.12535-3.29242,6.10383-6.46459-.02025-3.1709,2.56837-9.63549-3.05191-9.39119-5.61902.24431-4.95446.61013-6.43674.73165-1.48102.12152-1.88609,3.1709-1.34558,8.53802Z" fill="#fdfdfb"/><path d="m234.85532,350.95973c.64431,6.84814,2.4152,8.24814,5.63547,8.40384,2.91141.14051,6.2456-3.80508,7.26966-8.24814.90887-3.94559,3.05824-12.29374-3.63546-11.98234s-5.9013.77849-7.66586.93418c-1.76457.1557-2.24685,4.04559-1.60381,10.89246Z" fill="#fdfdfb"/><path d="m89.61658,318.25829l-3.74179-1.2671c-.48481-.16329-1.00001.22152-.96963.72532.48481,8.17979,4.57344,13.02412,4.57344,13.02412l.62405-11.77221c.01772-.31772-.18101-.6076-.48608-.71013Z" fill="#fdfdfb"/><path d="m93.81787,323.82794c-1.23165.69114-1.4671,7.07978-.97849,12.89374.48988,5.81269,2.76963,7.60131,5.36459,8.2722s1.9671-15.39755,1.9671-15.39755c0,0,0-3.71901-1.9671-5.76838-1.9671-2.04811-4.3861,0-4.3861,0Z" fill="#fdfdfb"/><path d="m147.18397,335.54319c-1.08228-1.06583-12.21019.73038-17.69376-.14557-5.48484-.87595-6.64814-3.95825-8.97346-3.95825-2.32659,0-.49874,11.03297,1.49494,17.80642,1.38988,4.71901,5.31775,11.00765,8.47473,12.01399s7.68485-8.65068,9.63803-11.06715c2.12153-2.62533,8.14308-13.58362,7.05953-14.64944Z" fill="#fdfdfb"/><path d="m106.54705,327.76467c-1.78482-.29367-3.06078-.79621-3.06078,2.97596s1.02026,18.11022,2.04052,19.61909,3.06078,2.09621,7.14181,1.04811c4.07977-1.04811,4.33547-2.16204,4.33547-2.16204,0,0-1.27596-9.31018-1.53039-12.52412-.25443-3.21521-.12785-5.87978-.76456-7.12535-.63798-1.24558-6.37598-1.53798-8.16207-1.83166Z" fill="#fdfdfb"/><path d="m88.60898,311.12028s4.42028,4.02534,5.61142,5.03167c1.18988,1.00507,2.86584-1.84558,4.40762-3.35445,1.54305-1.50887,8.34435-8.88739,8.51397-11.06715.17089-2.17976-1.86963-6.37219-3.65572-6.37219-1.78482,0-5.86585.50253-8.07599,2.68229s-10.20132,11.57095-6.8013,13.07982Z" fill="#fdfdfb"/><path d="m115.0914,301.562c-2.29495.62912-11.85956,12.7026-12.36969,13.96083-.51013,1.25697-1.78609,4.02407.76456,4.40129s8.47726,0,8.47726,0c0,0,3.76458-5.03041,5.04053-7.04307,1.27469-2.01267,6.75826-7.92283,4.97344-11.31905,0,0-4.59116-.62785-6.88611,0Z" fill="#fdfdfb"/><path d="m129.24717,305.15822c-.6.90507-5.71395,6.22408-8.14181,9.93043-2.25951,3.44685-4.16205,6.06079-2.10761,7.56586,0,0,1.27342,1.49241,4.64053,1.98609,3.36711.49494,6.04307.38734,6.04307.38734,0,0,5.76459-8.78865,7.19118-11.36335,1.42532-2.5747,1.77596-6.44814-.33544-8.14688-2.1114-1.69874-6.68864-1.26456-7.28991-.3595Z" fill="#fdfdfb"/><path d="m153.47515,307.0962c-2.45444-.31899-5.9937.01392-8.54435,3.59116-2.54938,3.57723-10.32917,13.51273-9.81904,15.14818s7.56966,1.59368,12.20133,1.92912c4.63167.33418,6.16206-.54557,7.52156-1.04937,1.36077-.50253,7.31143-8.55574,6.41902-12.01525-.92279-3.57977-5.47471-7.30384-7.77852-7.60384Z" fill="#fdfdfb"/></svg>