<?xml version="1.0"?>
<svg width="1080" height="1080" xmlns="http://www.w3.org/2000/svg" xmlns:svg="http://www.w3.org/2000/svg" enable-background="new 0 0 479.3 481.2" version="1.1" xml:space="preserve">
 <g class="layer">
  <title>Layer 1</title>
  <ellipse cx="540" cy="540" fill="#000000" id="svg_6" rx="540" ry="540" stroke="#000000" stroke-opacity="0"/>
  <g id="svg_5">
   <path d="m806.5,378.9l-86,0c-10,0 -19,-4.25 -26,-11.73l-35,-39.24c-5,-5.87 -12,-9.3 -20,-9.3s-15,3.44 -21,9.3l-30,33.78c-9,10.92 -24,17.39 -38,17.39l-470,0c-13,37.82 -22,78.07 -25,119.94l443,0c8,0 15,-3.24 21,-8.9l41,-43.08c5,-5.46 12,-8.49 20,-8.49l1,0c8,0 15,3.44 21,9.3l34,39.24c7,7.48 17,11.73 27,11.73l361,0c-3,-41.66 -12,-82.12 -25,-120.14l-193,0.2l0,0z" fill="#ffffff" id="svg_1"/>
   <path d="m323.5,751.46c8,0 15,-3.24 21,-8.9l41,-43.08c5,-5.46 12,-8.49 20,-8.49l2,0c7,0 15,3.44 20,9.1l35,39.24c6,7.48 16,11.73 26,11.73l490,0c18,-38.02 32,-78.68 40,-121.35l-471,0c-10,0 -19,-4.25 -26,-11.73l-35,-38.83c-5,-5.87 -12,-9.1 -20,-9.1s-15,3.44 -20,9.1l-30,33.78c-10,11.12 -24,17.39 -39,17.39l-315,0c8,42.68 21,83.33 40,121.35l221,-0.2l0,0z" fill="#ffffff" id="svg_2"/>
   <path d="m671.5,247.64c8,0 15,-3.24 20,-8.9l42,-43.08c5,-5.46 12,-8.49 20,-8.49l1,0c8,0 15,3.44 21,9.3l34,39.44c7,7.48 17,11.73 26,11.73l94,0c-89,-118.12 -230,-194.37 -389,-194.37s-301,76.25 -389,194.37l520,0z" fill="#ffffff" id="svg_3"/>
   <path d="m484.5,871.8l-128,0c-10,0 -19,-4.25 -26,-11.73l-35,-39.24c-5,-5.87 -12,-9.1 -20,-9.1s-15,3.44 -20,9.1l-30,33.78c-10,11.12 -24,17.39 -39,17.39l-2,0c89,95.06 215,154.72 356,154.72s267,-59.66 356,-154.72l-412,-0.2l0,0z" fill="#ffffff" id="svg_4"/>
  </g>
 </g>
</svg>