<?xml version="1.0" encoding="UTF-8"?><svg id="CIRCLE_OUTLINE_BLACK" xmlns="http://www.w3.org/2000/svg" viewBox="0 0 512 512"><circle cx="256" cy="256" r="256" fill="#fff"/><path d="m256,475.99359c-121.30796,0-219.99696-98.69236-219.99696-220.00032,0-121.29449,98.689-219.98685,219.99696-219.98685s219.99696,98.69236,219.99696,219.98685c0,121.30796-98.689,220.00032-219.99696,220.00032Zm0-423.32358c-112.11754,0-203.33368,91.20876-203.33368,203.32261s91.21615,203.33738,203.33368,203.33738,203.33368-91.22353,203.33368-203.33738S368.11754,52.67001,256,52.67001Z" fill="#222326"/><path d="m300.94178,341.06422c-1.60503-1.60503-1.60503-4.81505-3.21005-8.0251,0-3.21005-1.60503-6.42008-1.60503-9.63013-3.21005,3.21005-6.42008,4.81505-9.63013,8.0251-3.21005,3.21005-8.0251,4.81505-11.23516,6.42008-4.81505,1.60503-8.0251,3.21005-14.44518,4.81505-4.81506,1.60503-11.23514,1.60503-16.05021,1.60503-9.63013,0-17.65523-1.60503-25.68034-4.81505-8.0251-3.21005-14.44518-6.42008-20.86527-11.23516-6.42008-4.81505-9.63013-11.23516-12.84017-17.65523-3.21004-6.42008-4.81506-14.44518-4.81506-22.47028,0-19.26026,8.0251-35.31045,22.47028-44.94058,14.44518-11.23514,36.91548-16.05021,65.80583-16.05021h27.28536v-11.23514c0-9.63013-3.21005-16.05021-8.0251-20.86527-6.42008-4.81506-14.44518-8.0251-25.68034-8.0251-9.63013,0-16.05021,1.60503-20.86527,6.42008-4.81506,4.81506-6.42008,9.63013-6.42008,16.05021h-48.15062c0-8.0251,1.60503-16.05021,4.81506-22.47028,3.21004-6.42008,8.0251-12.84017,16.05021-19.26024,6.42008-4.81506,14.44518-9.63013,24.07531-12.84017,9.63013-3.21004,20.86527-4.81506,33.70544-4.81506,11.23516,0,20.86526,1.60503,30.49539,4.81506,9.63013,3.21004,17.65523,6.42008,25.68034,12.84017,6.42008,4.81506,12.84015,12.84017,16.05021,20.86527,3.21005,8.0251,6.42008,17.65523,6.42008,28.89037v80.25103c0,9.63013,0,17.65523,1.60503,24.07531,1.60503,6.42008,3.21005,12.84015,4.81505,16.05021v3.21005h-49.75558Zm-46.54561-33.70544c4.81506,0,9.63011,0,12.84017-1.60503,4.81505-1.60503,8.0251-3.21005,11.23516-4.81505,3.21005-1.60503,6.42008-3.21005,8.0251-6.42008,1.60503-1.60503,4.81505-4.81505,6.42008-6.42008v-32.10041h-24.07531c-8.0251,0-14.44518,0-19.26024,1.60503-4.81506,1.60503-9.63013,3.21005-12.84017,6.42008-3.21004,3.21005-6.42008,4.81505-8.0251,9.63013-1.60503,3.21005-1.60503,8.0251-1.60503,11.23516,0,6.42008,1.60503,11.23516,6.42008,16.05021,4.81506,4.81502,12.84017,6.42005,20.86527,6.42005Z" fill="#222326"/></svg>