<?xml version="1.0" encoding="UTF-8"?>
<svg id="Layer_1" xmlns="http://www.w3.org/2000/svg" version="1.1" viewBox="0 0 500 500">
  <!-- Generator: Adobe Illustrator 29.0.1, SVG Export Plug-In . SVG Version: 2.1.0 Build 192)  -->
  <defs>
    <style>
      .st0 {
        fill: #fff;
      }

      .st1 {
        fill: #2b71ff;
      }
    </style>
  </defs>
  <circle id="bg" class="st0" cx="250" cy="250" r="248.5"/>
  <path class="st1" d="M364.2,362.8l-114.2,114.2-56.7-56.7c61.1-3.6,120.1-23.5,170.9-57.6h0ZM472.5,245.5l-14-13.9L250,23,41.4,231.6l-17.9,17.9,6.5,5.6c7.3,6.1,14.8,11.9,22.6,17.3,82.5,58.1,184.7,75.6,279.1,52.5,38.5-9.3,75.1-25.4,108.1-47.3,8.2-5.4,16.2-11.3,24-17.5,4.3-3.5,8.5-7,12.6-10.6l-4-4ZM305,297.9c-62.2-38.2-133.9-58.3-206.8-58,95.1-41.5,211.8-47.1,318.8,14.4-34.1,21.7-72.2,36.5-112,43.6h0Z"/>
</svg>