<?xml version="1.0" encoding="UTF-8"?>
<svg id="Layer_1" xmlns="http://www.w3.org/2000/svg" version="1.1" xmlns:xlink="http://www.w3.org/1999/xlink" viewBox="0 0 500 500">
  <!-- Generator: Adobe Illustrator 29.0.1, SVG Export Plug-In . SVG Version: 2.1.0 Build 192)  -->
  <defs>
    <style>
      .st0 {
        fill: url(#linear-gradient1);
      }

      .st0, .st1, .st2, .st3, .st4, .st5, .st6, .st7, .st8, .st9, .st10, .st11, .st12, .st13, .st14, .st15, .st16, .st17, .st18, .st19, .st20, .st21, .st22, .st23, .st24 {
        isolation: isolate;
      }

      .st0, .st6, .st12 {
        opacity: .6;
      }

      .st1 {
        fill: url(#linear-gradient8);
      }

      .st1, .st2, .st3, .st8, .st20, .st21 {
        opacity: .5;
      }

      .st2 {
        fill: url(#linear-gradient7);
      }

      .st3 {
        fill: url(#linear-gradient11);
      }

      .st4 {
        fill: url(#radial-gradient3);
      }

      .st4, .st10, .st13, .st14, .st24 {
        opacity: .4;
      }

      .st5 {
        fill: url(#linear-gradient18);
      }

      .st5, .st9, .st11, .st15, .st16, .st17, .st23 {
        opacity: .3;
      }

      .st25, .st22 {
        fill: #fff;
      }

      .st6 {
        fill: url(#linear-gradient10);
      }

      .st7 {
        fill: url(#radial-gradient2);
      }

      .st7, .st18, .st19 {
        opacity: .9;
      }

      .st8 {
        fill: url(#radial-gradient1);
      }

      .st9 {
        fill: url(#linear-gradient15);
      }

      .st10 {
        fill: url(#linear-gradient6);
      }

      .st11 {
        fill: url(#linear-gradient14);
      }

      .st12 {
        fill: url(#linear-gradient12);
      }

      .st13 {
        fill: url(#linear-gradient4);
      }

      .st14 {
        fill: url(#linear-gradient3);
      }

      .st15 {
        fill: url(#linear-gradient13);
      }

      .st16 {
        fill: url(#linear-gradient17);
      }

      .st17 {
        fill: url(#linear-gradient16);
      }

      .st18 {
        fill: url(#radial-gradient);
      }

      .st19 {
        fill: url(#radial-gradient4);
      }

      .st20 {
        fill: url(#linear-gradient2);
      }

      .st21 {
        fill: url(#linear-gradient9);
      }

      .st22 {
        opacity: .8;
      }

      .st26 {
        fill: url(#linear-gradient);
      }

      .st23 {
        fill: url(#radial-gradient5);
      }

      .st24 {
        fill: url(#linear-gradient5);
      }
    </style>
    <linearGradient id="linear-gradient" x1="136" y1="506.4" x2="453.7" y2="188.7" gradientTransform="translate(-56 -86.1)" gradientUnits="userSpaceOnUse">
      <stop offset="0" stop-color="#e6007a"/>
      <stop offset=".2" stop-color="#703ac2"/>
      <stop offset=".5" stop-color="#0070eb"/>
      <stop offset=".8" stop-color="#0297fb"/>
      <stop offset="1" stop-color="#0ae2ff"/>
    </linearGradient>
    <radialGradient id="radial-gradient" cx="-156.1" cy="68.2" fx="-156.1" fy="68.2" r="7.6" gradientTransform="translate(2278.1 -654.4) scale(12.5)" gradientUnits="userSpaceOnUse">
      <stop offset="0" stop-color="#fff"/>
      <stop offset="1" stop-color="#fff" stop-opacity="0"/>
    </radialGradient>
    <radialGradient id="radial-gradient1" cx="-139.1" cy="102.7" fx="-139.1" fy="102.7" r="7.6" gradientTransform="translate(1195.5 -373.8) scale(7.3)" xlink:href="#radial-gradient"/>
    <linearGradient id="linear-gradient1" x1="154.1" y1="452.3" x2="207.3" y2="451.6" gradientTransform="translate(-56 -86.1)" gradientUnits="userSpaceOnUse">
      <stop offset="0" stop-color="#fff" stop-opacity="0"/>
      <stop offset="1" stop-color="#fff"/>
    </linearGradient>
    <radialGradient id="radial-gradient2" cx="-238.6" cy="70.7" fx="-238.6" fy="70.7" r="7.6" gradientTransform="translate(-2092.7 -1932.4) rotate(-120) scale(12.5) skewX(0)" xlink:href="#radial-gradient"/>
    <radialGradient id="radial-gradient3" cx="-280.8" cy="107.1" fx="-280.8" fy="107.1" r="7.6" gradientTransform="translate(-1308.3 -1135.6) rotate(-120) scale(7.3) skewX(0)" xlink:href="#radial-gradient"/>
    <linearGradient id="linear-gradient2" x1="482.1" y1="409.7" x2="454.9" y2="364" xlink:href="#linear-gradient1"/>
    <radialGradient id="radial-gradient4" cx="-199.7" cy="-1.6" fx="-199.7" fy="-1.6" r="7.6" gradientTransform="translate(-1015.3 2489.3) rotate(120) scale(12.5) skewX(0)" xlink:href="#radial-gradient"/>
    <radialGradient id="radial-gradient5" cx="-213.7" cy="-17.8" fx="-213.7" fy="-17.8" r="7.6" gradientTransform="translate(-716.5 1412.5) rotate(120) scale(7.3) skewX(0)" xlink:href="#radial-gradient"/>
    <linearGradient id="linear-gradient3" x1="281.5" y1="147" x2="255.6" y2="193.4" xlink:href="#linear-gradient1"/>
    <linearGradient id="linear-gradient4" x1="292.8" y1="123.2" x2="211.6" y2="146.8" gradientTransform="translate(-56 -86.1)" gradientUnits="userSpaceOnUse">
      <stop offset="0" stop-color="#231f20"/>
      <stop offset="1" stop-color="#fff"/>
    </linearGradient>
    <linearGradient id="linear-gradient5" x1="139.4" y1="432.7" x2="207.3" y2="503.6" xlink:href="#linear-gradient4"/>
    <linearGradient id="linear-gradient6" x1="503.8" y1="422.1" x2="527.4" y2="350.3" xlink:href="#linear-gradient4"/>
    <linearGradient id="linear-gradient7" x1="330.1" y1="163.2" x2="438.9" y2="188.1" xlink:href="#linear-gradient4"/>
    <linearGradient id="linear-gradient8" x1="442.9" y1="442.9" x2="366.9" y2="524.7" xlink:href="#linear-gradient4"/>
    <linearGradient id="linear-gradient9" x1="144.7" y1="401.6" x2="111.9" y2="294.9" xlink:href="#linear-gradient4"/>
    <linearGradient id="linear-gradient10" x1="353.5" y1="204.4" x2="319.1" y2="238.8" xlink:href="#linear-gradient4"/>
    <linearGradient id="linear-gradient11" x1="167.9" y1="360.8" x2="214.9" y2="373.5" xlink:href="#linear-gradient4"/>
    <linearGradient id="linear-gradient12" x1="395.9" y1="443.4" x2="383.3" y2="396.4" xlink:href="#linear-gradient4"/>
    <linearGradient id="linear-gradient13" x1="324.2" y1="401.4" x2="344.9" y2="372.8" xlink:href="#linear-gradient4"/>
    <linearGradient id="linear-gradient14" x1="253.5" y1="389.4" x2="212.2" y2="409.2" xlink:href="#linear-gradient4"/>
    <linearGradient id="linear-gradient15" x1="238.8" y1="320.2" x2="251.6" y2="346.8" xlink:href="#linear-gradient4"/>
    <linearGradient id="linear-gradient16" x1="298" y1="238.4" x2="289.1" y2="207.9" xlink:href="#linear-gradient4"/>
    <linearGradient id="linear-gradient17" x1="393.5" y1="377.6" x2="419" y2="383.5" xlink:href="#linear-gradient4"/>
    <linearGradient id="linear-gradient18" x1="353.2" y1="291.5" x2="320.7" y2="285.7" xlink:href="#linear-gradient4"/>
  </defs>
  <circle id="bg" class="st25" cx="250" cy="250" r="248.5"/>
  <g>
    <path class="st26" d="M498.3,233.5C489.2,96.5,370.4-7.3,232.5,1.8,164.3,6,104.5,38.4,63,85.7h0l-.8.8C20.6,134.7-2.7,198.6,1.5,266.7c.8,6.6.8,13.3,2.5,19.1v.8c.8,4.2,1.7,8.3,2.5,12.5s1.7,7.5,2.5,11.6c28.2,114.6,135.4,196,257.6,187.7,137.9-9.1,241.8-127.9,231.8-264.9h0ZM444.3,236.8c.8,16.6,0,33.2-3.3,49h0c-18.3-44-54-76.4-85.6-93.8,6.6-74.7-19.1-106.3-48.2-111.3-22.4-4.2-44,10.8-48.2,33.2v2.5c-3.3,22.4,13.3,44,35.7,46.5h5.8v8.3c-26.6-6.6-51.5-8.3-73.9-5.8-8.3.8-16.6,1.7-25.8,3.3,2.5-24.9,12.5-54,30.7-74.7,17.4-19.9,44-31.6,73.1-28.2,5.8.8,11.6,1.7,16.6,3.3h.8c67.3,28.2,117.2,91.3,122.1,167.7h0ZM270.7,275h0c-6.6,9.1-13.3,17.4-21.6,24.9-11.6-12.5-22.4-26.6-29.9-42.4,0-.8-.8-1.7-.8-2.5h0c-5-10-8.3-20.8-10.8-30.7,17.4-4.2,34.9-5.8,51.5-5h2.5c10.8.8,21.6,2.5,32.4,5.8-5.8,17.4-13.3,34.9-23.3,49.8h0ZM185.1,66.6h0c-29.1,38.2-39.1,84.7-39.1,120.4-68.1,31.6-82.3,69.8-72.3,97.2,0,.8.8,1.7.8,2.5,9.1,21.6,33.2,31.6,54.8,22.4,21.6-9.1,31.6-33.2,22.4-54.8-.8-1.7-1.7-3.3-2.5-5,2.5-1.7,4.2-2.5,6.6-4.2,7.5,26.6,19.1,48.2,31.6,67.3,5,6.6,10,14.1,15.8,19.9-23.3,10-52.3,15.8-79.8,10.8-26.6-5-49-22.4-61.5-49-2.5-5-4.2-10.8-5-15.8-.8-5-.8-10-1.7-14.1-5.8-90.5,49-169.4,129.6-197.6ZM263.2,444.4c-53.2,3.3-102.2-14.1-140.4-46.5,47.4,6.6,93.1-8.3,123.8-26.6,61.5,43.2,101.4,36.5,120.5,14.1,15-17.4,13.3-44-4.2-59-.8-.8-1.7-.8-1.7-1.7-18.3-14.1-44-10.8-58.2,7.5h0c-.8,1.7-2.5,3.3-3.3,5-2.5-.8-5-2.5-7.5-4.2,17.4-18.3,31.6-38.2,42.4-61.5,4.2-7.5,7.5-15.8,10-23.3,20.8,14.9,40.7,37.4,49,63.9,8.3,25.7,5,54-11.6,77.2-3.3,4.2-7.5,9.1-11.6,12.5h0c-30.7,25.7-68.1,39.9-107.2,42.4h0Z"/>
    <path class="st18" d="M308.1,80.7c-5-.8-9.1-.8-14.1,0,24.1,13.3,41.5,49,32.4,120.4-3.3,23.3-10,45.7-19.9,66.4-9.1,19.1-20.8,36.5-34.1,53.1,6.6,5,13.3,9.1,20.8,13.3,17.4-18.3,31.6-38.2,42.4-61.5,10-20.8,17.4-43.2,19.9-66.4,10-84.7-16.6-119.6-47.4-125.4h0Z"/>
    <path class="st22" d="M326.3,201.1c9.1-71.4-8.3-107.1-32.4-120.4-.8,0-1.7,0-2.5.8,23.3,13.3,39.9,49.8,30.7,119.6-3.3,23.3-10,45.7-19.9,66.4-8.3,18.3-19.9,35.7-33.2,51.5.8.8,1.7.8,2.5,1.7,14.1-15.8,25.8-34,34.1-53.1,10.8-20.8,17.4-43.2,20.8-66.4h0Z"/>
    <path class="st8" d="M235.8,363.1c-2.5-1.7-4.2-3.3-6.6-5-34.9,14.9-83.9,24.1-132.1,12.5,7.5,10,16.6,19.1,26.6,27.4,47.4,6.6,93.1-8.3,123.8-26.6-4.2-3.3-8.3-5.8-11.6-8.3h0Z"/>
    <path class="st0" d="M229.1,357.2c-.8-.8-2.5-1.7-3.3-2.5-35.7,14.1-84.7,22.4-132.9,10.8.8,1.7,2.5,3.3,3.3,5,49,10.8,97.2,1.7,132.9-13.3h0Z"/>
    <path class="st7" d="M73.8,284.2c0,.8.8,1.7.8,2.5,1.7,4.2,3.3,7.5,5.8,10-.8-27.4,21.6-60.6,88.1-88,21.6-9.1,44.9-14.1,68.1-15.8,20.8-1.7,42.4-.8,63.1,3.3.8-9.1,1.7-17.4,1.7-24.9-24.1-5.8-49-8.3-73.9-5.8-23.3,1.7-46.5,6.6-68.1,15.8-78.9,33.2-95.6,73.9-85.6,103h0Z"/>
    <path class="st22" d="M169.3,208.6c-66.5,27.4-88.9,60.6-88.1,88,.8.8.8,1.7,1.7,2.5,0-26.6,22.4-59.8,88.1-87.2,21.6-9.1,44.9-14.1,68.1-15.8,19.9-1.7,40.7-.8,60.7,3.3v-2.5c-20.8-4.2-41.5-5-63.1-3.3-22.4.8-45.7,5.8-67.3,14.9h0Z"/>
    <path class="st4" d="M354.6,206.1c0,2.5-.8,5.8-1.7,8.3,29.9,23.3,62.3,60.6,77.3,108,5-11.6,8.3-24.1,10.8-36.5-18.3-44-54-75.6-85.6-93.8,0,5,0,9.1-.8,14.1h0Z"/>
    <path class="st20" d="M352.9,214.4c0,1.7-.8,2.5-.8,4.2,29.9,23.3,61.5,61.5,75.6,109.6.8-1.7,1.7-3.3,2.5-5.8-14.1-47.3-46.5-84.7-77.3-108h0Z"/>
    <path class="st19" d="M367.1,385.5c3.3-3.3,5.8-7.5,7.5-12.5-23.3,14.1-63.1,10.8-120.5-32.4-18.3-14.1-34.9-31.6-47.4-50.7-12.5-17.4-21.6-36.5-28.2-56.5-8.3,3.3-15.8,7.5-22.4,10.8,6.6,24.1,17.4,46.5,32.4,67.3,12.5,19.1,29.1,36.5,47.4,50.7,68.1,52.3,111.3,46.5,131.3,23.3h0Z"/>
    <path class="st22" d="M254.1,340.6c57.3,43.2,97.2,46.5,120.5,32.4,0-.8.8-1.7.8-2.5-23.3,13.3-63.1,10-119.6-33.2-18.3-14.1-34.9-31.6-47.4-50.7-11.6-16.6-20.8-34.9-27.4-54-.8,0-1.7.8-2.5.8,6.6,19.9,16.6,39,28.2,56.5,12.5,19.1,28.2,36.5,47.4,50.7h0Z"/>
    <path class="st23" d="M159.3,181.2c2.5-.8,5-1.7,7.5-3.3,5-37.4,21.6-84.7,54.8-121.2-12.5,1.7-24.9,5-37.4,9.1-29.1,37.4-39.1,84.7-38.2,120.4,5-.8,9.1-3.3,13.3-5h0Z"/>
    <path class="st14" d="M167.7,178.7c1.7-.8,2.5-.8,4.2-1.7,5.8-38.2,22.4-84.7,57.3-120.4-1.7,0-4.2.8-5.8.8-34.9,36.5-51.5,83-55.7,121.2h0Z"/>
    <path class="st13" d="M233.3,1.8C164.3,6,104.5,38.4,63,85.7l-.8.8c8.3,8.3,34.9,24.1,45.7,30.7,21.6-23.3,48.2-40.7,78.1-51.5,2.5-2.5,4.2-5.8,6.6-8.3,28.2-31.6,66.5-48.2,111.3-48.2s15,.8,15,.8c-28.2-7.5-57.3-10.8-85.6-8.3h0Z"/>
    <path class="st24" d="M263.2,444.4c-53.2,3.3-102.2-14.1-140.4-46.5-3.3-.8-6.6-.8-10.8-1.7-41.5-8.3-75.6-33.2-98-72.2-2.5-4.2-5-8.3-6.6-13.3,29.9,114.6,137.1,196,259.2,187.7.8-12.5-2.5-41.5-3.3-54h0Z"/>
    <path class="st10" d="M498.3,233.5c-7.5-.8-44.9,2.5-54,3.3.8,16.6,0,33.2-3.3,49,1.7,3.3,2.5,6.6,3.3,10,13.3,39.9,9.1,82.2-13.3,120.4-2.5,4.2-5,8.3-8.3,12.5h0c51.5-49,80.6-119.6,75.6-195.2h0Z"/>
    <path class="st2" d="M305.6,65.8c5.8.8,11.6,1.7,16.6,3.3h.8c21.6,9.1,40.7,20.8,58.2,36.5h0c8.3-9.1,24.1-19.9,24.1-19.9,0,0-24.1-24.9-60.7-32.4-25.8-5-83.9-10.8-120.5,52.3h0c2.5-4.2,5.8-8.3,9.1-11.6,17.4-19.9,44-31.6,72.3-28.2Z"/>
    <path class="st1" d="M382,390.5c-3.3,4.2-7.5,9.1-11.6,12.5l-.8.8c-18.3,14.1-39.1,24.9-60.7,31.6h0c4.2,11.6,5,30.7,5,30.7,0,0,33.2-8.3,58.2-36.5,17.4-19.9,51.5-67.3,15.8-130.4v.8c2.5,4.2,4.2,9.1,5.8,13.3,8.3,24.9,5,54-11.6,77.2h0Z"/>
    <path class="st21" d="M62.1,294.1c-2.5-5-4.2-10.8-5-15.8v-.8c-3.3-23.3-2.5-46.5,2.5-68.9h0c-12.5-2.5-29.1-10.8-29.1-10.8,0,0-9.1,33.2,2.5,68.9,8.3,24.9,33.2,78.1,105.5,78.9h-.8c-5,0-10-.8-15-1.7-25.8-6.6-49-23.3-60.7-49.8h0Z"/>
    <path class="st6" d="M295.6,162.9h5.8s-1.7-25.7-4.2-39c-3.3-13.3-8.3-22.4-13.3-27.4-3.3-3.3-15-8.3-24.1,19.1-3.3,23.3,12.5,44.8,35.7,47.3h0Z"/>
    <path class="st3" d="M151.9,254.3c-.8-1.7-1.7-3.3-2.5-5,0,0-21.6,14.1-31.6,23.3-10,9.1-15,18.3-16.6,24.9-.8,5,.8,17.4,29.1,11.6,20.8-9.1,30.7-33.2,21.6-54.8h0Z"/>
    <path class="st12" d="M302.3,333.2c-.8,1.7-2.5,3.3-3.3,5,0,0,23.3,11.6,36.6,15.8,13.3,4.2,23.3,4.2,29.9,2.5,5-1.7,15-9.1-4.2-30.7-18.3-14.9-44.9-10.8-59,7.5h0Z"/>
    <path class="st15" d="M293.9,225.2c-5,17.4-12.5,33.2-21.6,47.3-.8.8-.8,1.7-1.7,2.5h0c-6.6,9.1-13.3,17.4-21.6,24.9,5.8,5.8,11.6,11.6,18.3,17.4,7.5,5.8,15.8,11.6,24.1,16.6,17.4-18.3,31.6-38.2,42.4-61.5,4.2-7.5,6.6-15.8,10-23.3-9.1-6.6-17.4-11.6-25.8-14.9-7.5-3.3-15.8-6.6-24.1-9.1h0Z"/>
    <path class="st11" d="M122.8,397.9c47.4,6.6,93.1-8.3,123.8-26.6-4.2-2.5-7.5-5-11.6-8.3-11.6-9.1-22.4-19.1-32.4-30.7-23.3,10-52.3,15.8-79.8,10.8-26.6-5-49-22.4-61.5-49-2.5-5-4.2-10.8-5-15.8,7.5,47.3,31.6,89.7,66.5,119.6h0Z"/>
    <path class="st9" d="M249.1,299.9c-11.6-12.5-22.4-26.6-29.9-42.4,0-.8-.8-1.7-.8-2.5h0c-5-10-8.3-20.8-10.8-30.7-8.3,1.7-16.6,4.2-24.1,7.5-9.1,3.3-18.3,8.3-26.6,12.5,7.5,26.6,19.1,48.2,31.6,67.3,5,6.6,10,14.1,15.8,19.9,10-4.2,19.1-9.1,25.8-14.9,6.6-4.2,13.3-10,19.1-16.6h0Z"/>
    <path class="st17" d="M185.1,66.6c-29.1,37.4-39.1,84.7-38.2,120.4,4.2-1.7,8.3-4.2,12.5-5.8,13.3-5.8,28.2-10,42.4-12.5,2.5-24.9,12.5-54,30.7-74.7,17.4-19.9,44-31.6,73.1-28.2,5.8.8,11.6,1.7,16.6,3.3h.8c-27.4-10.8-57.3-15.8-86.4-14.1-18.3,1.7-34.9,5.8-51.5,11.6h0Z"/>
    <path class="st16" d="M441,285.8c-17.4-44-53.2-75.6-84.7-93.8,0,4.2-.8,9.1-1.7,14.1-1.7,14.9-5,29.1-10,43.2,20.8,14.9,40.7,37.4,49,63.9,8.3,25.7,5,54-11.6,77.2-3.3,4.2-7.5,9.1-11.6,12.5h0c36.6-28.2,62.3-69.8,70.6-117.1.8,0,0,0,0,0h0Z"/>
    <path class="st5" d="M201.7,198.6c.8,8.3,2.5,17.4,5,25.7,17.4-4.2,34.9-5.8,51.5-5h2.5c10.8.8,21.6,2.5,32.4,5.8,2.5-8.3,4.2-16.6,5.8-24.9,1.7-10.8,1.7-20.8,1.7-29.1-26.6-6.6-51.5-8.3-73.9-5.8-8.3.8-16.6,1.7-25.8,3.3,0,10.8,0,20.8.8,29.9h0Z"/>
  </g>
</svg>