<svg xmlns="http://www.w3.org/2000/svg" id="Layer_2" viewBox="0 0 210 210"><g id="Layer_1-2"><g><g><g><circle cx="105" cy="105" r="105" fill="#005596"></circle><g><circle cx="105" cy="105" r="102.34" fill="#005596"></circle><path d="M105,5.32c54.96,0,99.68,44.72,99.68,99.68s-44.72,99.68-99.68,99.68S5.32,159.96,5.32,105,50.04,5.32,105,5.32M105,0C47.01,0,0,47.01,0,105s47.01,105,105,105,105-47.01,105-105S162.99,0,105,0h0Z" fill="#005596"></path></g></g><g><circle cx="105" cy="105" r="105" fill="#fff"></circle><path d="M105,5.32c54.96,0,99.68,44.72,99.68,99.68s-44.72,99.68-99.68,99.68S5.32,159.96,5.32,105,50.04,5.32,105,5.32M105,0C47.01,0,0,47.01,0,105s47.01,105,105,105,105-47.01,105-105S162.99,0,105,0h0Z" fill="#ce3524"></path></g></g><g><g id="layer1"><path id="path260" d="M150.73,55.88c0-4.78-3.23-6.23-7.85-7.44-6.76-1.76-20.67-4.72-37.89-4.72s-31.13,2.96-37.89,4.72c-4.62,1.21-7.85,2.66-7.85,7.44V122.83c.06,5.56,2.7,10.85,7.07,14.14l35.92,27.23,2.75,2.09,2.76-2.09,35.93-27.24c4.41-3.33,7.05-8.63,7.05-14.18V55.88Z" fill="#fff"></path><path id="path260-2" d="M150.73,55.88c0-4.78-3.23-6.23-7.85-7.44-6.76-1.76-20.67-4.72-37.89-4.72s-31.13,2.96-37.89,4.72c-4.62,1.21-7.85,2.66-7.85,7.44V122.83c.06,5.56,2.7,10.85,7.07,14.14l35.92,27.23,2.75,2.09,2.76-2.09,35.93-27.24c4.41-3.33,7.05-8.63,7.05-14.18V55.88Z" fill="#fff"></path><path id="path280" d="M105,43.72c-17.21,0-31.13,2.96-37.89,4.72-4.62,1.2-7.85,2.65-7.85,7.44V122.78s0,.02,0,.02v.02c.06,5.56,2.7,10.85,7.07,14.14l35.92,27.23,2.75,2.09,2.76-2.09,35.93-27.24c4.41-3.33,7.05-8.63,7.05-14.18V55.88c0-4.78-3.23-6.23-7.85-7.44-6.76-1.76-20.67-4.72-37.89-4.72Zm-1,3.45l1.09,3.35h3.53l-2.85,2.07,1.09,3.35-2.85-2.07-2.86,2.07,1.09-3.35-2.85-2.07h3.53l1.09-3.35Zm-38.09,4.89l1.09,3.35h3.53l-2.85,2.07,1.09,3.35-2.85-2.07-2.85,2.07,1.09-3.35-2.85-2.07h3.53l1.09-3.35Zm75.36,0l1.09,3.35h3.53l-2.85,2.07,1.09,3.35-2.85-2.07-2.85,2.07,1.09-3.35-2.85-2.07h3.53l1.09-3.35Zm-16.62,5.63c.33,.05,.66,.09,.99,.14,.98,.14,1.92,.28,2.83,.43,.92,.15,1.81,.31,2.66,.46l-24.02,18.24v-12.49c3.78,2.24,6.34,2.02,7.98,.97,.94-.6,1.59-1.46,1.99-2.29,4.1,1.2,8.65-1.34,7.56-5.46Zm-44.01,.72c.03,.35,.1,.69,.2,1,0,.01,0,.03,.01,.04,0,.01,.01,.02,.01,.04,1.05,3.19,5.32,4.85,9.25,3.69,.73,1.49,2.49,2.8,4.95,3.14,1.65,.23,3.62,.01,5.8-.88v16.28l-15.04,11.42c.05-.36,.08-.75,.08-1.17v-.36s0-.11,0-.11c1.64-1.02,3.09-2.99,3.82-5.49,.32-1.11,.46-2.21,.45-3.24-.3,.13-.62,.22-.92,.28-.8,.15-1.48,.11-1.49,.11,1.32-.1,2.27-.6,2.89-1.07,.18-.15,.38-.34,.59-.56,1.3-1.33,2.16-2.87,2.67-4.66l2.47-8.65c-1.29-.12-2.54,.5-3.23,1.59l-1.19,1.88-1.17,1.85c-.26,.44-.73,.84-1.27,1.13-.82-.64-1.46-1.15-1.97-1.55-.08-.06-.15-.12-.22-.18l-.78-3.27,1.13-2.02c.33-.59,.43-1.26,.32-1.9-.07-.39-.22-.78-.45-1.13-.19-.27-.57-.34-.85-.16l-2.85,1.82c-.08-.08-.16-.14-.24-.19-.18-.11-.36-.14-.56-.11-.29,.05-.61,.24-.98,.49l-.73,.53-1.08,.79-.83-.03-.58-.02c-.56,0-.79,1.01-.27,1.76,.43,.62,.77,1.42,1,2.38,0,.01,.01,.03,.01,.04,.01,.07,.03,.14,.05,.21,.01,.06,.02,.11,.04,.17,.18,.9,.28,1.93,.28,3.07,0,2.56-1.38,8.03-3.15,11.59-.08,.15-.17,.31-.26,.47l-1.33,2.22c-.21,.32-.17,.81,.09,1.16,.18,.25,.47,.44,.85,.44,0,0,1.07,1.35,1.41,3.94,.15,1.18,.16,2.62-.16,4.31l-2.53,1.92-2.68,2.04V60.11c1.29-.31,2.76-.63,4.38-.96,1.26-.25,2.61-.51,4.05-.75Zm64.51,7.11l-1.15,.88-2.44,1.87,3.59-2.74Zm-8.83,6.76v65.47s-12.53,9.5-12.53,9.5V81.87s0,0,0,0l12.53-9.59h0Zm-19.31,1.67l1.09,3.35h3.53l-2.85,2.07,1.09,3.35-2.85-2.07-2.85,2.07,1.09-3.35-2.85-2.07h3.53l1.09-3.35Zm-51.1,6.66l1.09,3.35h3.53l-2.85,2.07,1.09,3.35-2.85-2.07-2.85,2.07,1.09-3.35-2.85-2.07h3.53l1.09-3.35Zm28.44,72.8l-25.94-19.66s0,0,0,0l5.24,3.97v-17.48l12.53-9.59,12.53-9.59,12.53-9.59v65.29s-6.25,4.74-6.25,4.74l-6.28-4.76v-55.67l-12.53,9.59v36.58m6.2-55.5l1.09,3.35h3.52l-2.85,2.07,1.09,3.35-2.85-2.07-2.85,2.07,1.09-3.35-2.86-2.07h3.53l1.09-3.35Zm-26.47,19.04l1.09,3.35h3.53l-2.85,2.07,1.09,3.35-2.85-2.07-2.85,2.07,1.09-3.35-2.85-2.07h3.53l1.09-3.35Z" fill="#262f61"></path><path id="path276" d="M146.86,115.8v-51.59l-2.85,2.18-7.69,5.88v65.47s5.29-4.01,5.29-4.01h0c.91-.69,1.72-1.49,2.41-2.38,1.81-2.31,2.84-5.2,2.84-8.19v-7.37Zm-23.07-33.93h0l-12.53,9.59v65.29l12.53-9.5V81.86Zm-37.6,28.78h0v36.58s12.53,9.5,12.53,9.5v-55.67s-12.53,9.59-12.53,9.59Zm-12.53,9.59l-4.69,3.59-4.96,3.79c.84,2.42,2.35,4.57,4.4,6.12h0l5.25,3.98v-17.48Z" fill="#ce3524"></path></g><g><g><g><path d="M64.49,23.81l.85,1.54-4.65,2.57,.73,1.33,4.13-2.28,.84,1.53-4.13,2.28,1.02,1.84-1.81,1-3.44-6.23,6.46-3.57Z" fill="#262f61"></path><path d="M76.23,26.51l-1.13-.99-4.06,1.65-.12,1.5-2.06,.84,.72-7.97,2.64-1.07,6.07,5.21-2.05,.83Zm-5.05-1.07l2.6-1.06-2.35-2.05-.25,3.11Z" fill="#262f61"></path><path d="M86.83,21.37l-1.23-4.95,1.99-.49,1.71,6.91-2.93,.73-5.3-3.94,1.23,4.95-2,.5-1.71-6.91,2.94-.73,5.3,3.94Z" fill="#262f61"></path><path d="M96.85,14.62l8.57-.35,.07,1.75-3.25,.13,.22,5.36-2.06,.08-.22-5.36-3.26,.13-.07-1.75Z" fill="#262f61"></path><path d="M107.92,17.84c.2-2.35,1.94-3.6,4.93-3.34,2.98,.26,4.49,1.79,4.29,4.13-.2,2.35-1.95,3.62-4.93,3.36-2.99-.26-4.49-1.79-4.29-4.15Zm7.07,.61c.11-1.23-.53-2.05-2.29-2.2-1.75-.15-2.52,.53-2.62,1.78-.11,1.25,.54,2.07,2.28,2.22,1.75,.15,2.53-.55,2.64-1.79Z" fill="#262f61"></path><path d="M129.41,17.57l-4.19,2.13,2.62,4.82-2.53-.57-1.82-3.36-1.99,1.01-.32,1.41-2.01-.46,1.57-6.95,2.02,.45-.7,3.12,4.34-2.29,3.02,.68Z" fill="#262f61"></path><path d="M139.29,20.99l-.55,1.52-5-1.81-.39,1.07,4.81,1.74-.55,1.52-4.81-1.74-.39,1.07,5,1.8-.55,1.52-6.94-2.51,2.42-6.7,6.94,2.51Z" fill="#262f61"></path><path d="M146.5,30.14l2.34-4.54,1.83,.94-3.27,6.33-2.69-1.39-1.39-6.47-2.34,4.54-1.84-.95,3.27-6.33,2.7,1.39,1.39,6.47Z" fill="#262f61"></path></g><g><path d="M57.53,179.5c-.31,.51,0,1.15,1.6,2.12,1.47,.88,1.97,.87,2.2,.49,.27-.44,.04-.69-1.7-1.9-2.37-1.66-3.16-2.81-2.35-4.16,.77-1.27,2.49-1.02,4.6,.25,2.35,1.41,3.27,2.94,2.51,4.33l-1.85-1.11c.32-.54-.14-1.1-1.51-1.92-1.3-.78-1.72-.74-1.92-.41-.23,.38,0,.67,1.57,1.8,2.14,1.52,3.5,2.55,2.54,4.15-.94,1.56-2.66,1.15-4.83-.16-2.47-1.49-3.6-2.93-2.72-4.59l1.85,1.12Z" fill="#262f61"></path><path d="M66.2,183.1c.94-2.17,2.98-2.79,5.74-1.6,2.75,1.19,3.69,3.12,2.76,5.28-.94,2.17-3,2.81-5.75,1.62-2.76-1.19-3.69-3.12-2.75-5.3Zm6.52,2.83c.49-1.14,.14-2.11-1.48-2.82-1.61-.7-2.56-.29-3.05,.85-.5,1.15-.14,2.13,1.46,2.83,1.61,.7,2.58,.28,3.07-.87Z" fill="#262f61"></path><path d="M82.54,185.26c2.52,.71,3.65,2.19,3.36,4.01l-2.11-.59c.04-.67-.45-1.38-1.72-1.73-1.47-.41-2.38,.11-2.72,1.31-.34,1.21,.18,2.14,1.64,2.55,1.27,.35,2.06,0,2.37-.61l2.11,.59c-.7,1.72-2.43,2.41-4.96,1.71-2.75-.77-3.9-2.47-3.25-4.82,.66-2.34,2.52-3.19,5.27-2.42Z" fill="#262f61"></path><path d="M91.13,187.38l-1.26,7-2.03-.37,1.26-7,2.03,.37Z" fill="#262f61"></path><path d="M93.28,191.41c.19-2.35,1.92-3.6,4.91-3.36,2.98,.24,4.5,1.77,4.3,4.11-.19,2.35-1.93,3.62-4.92,3.38-2.99-.24-4.5-1.77-4.3-4.13Zm7.07,.58c.1-1.23-.54-2.04-2.3-2.19-1.75-.14-2.51,.55-2.62,1.79-.1,1.25,.55,2.06,2.29,2.21,1.75,.14,2.53-.56,2.63-1.81Z" fill="#262f61"></path><path d="M107.35,193.3c.03,.6,.64,.96,2.51,.86,1.71-.09,2.12-.38,2.09-.83-.03-.52-.35-.59-2.47-.62-2.89-.05-4.2-.56-4.28-2.14-.08-1.48,1.49-2.24,3.95-2.36,2.74-.14,4.36,.6,4.5,2.18l-2.15,.11c-.03-.63-.73-.83-2.33-.75-1.51,.08-1.84,.35-1.82,.73,.02,.44,.37,.56,2.31,.62,2.62,.06,4.33,.15,4.43,2.02,.09,1.82-1.56,2.44-4.09,2.57-2.88,.15-4.63-.42-4.82-2.29l2.16-.11Z" fill="#262f61"></path><path d="M117.08,193.28l1.97-.29,.22,1.53-1.97,.29-.23-1.53Z" fill="#262f61"></path><path d="M124.91,185.93c2.55-.62,4.26,.12,4.9,1.85l-2.13,.52c-.29-.61-1.07-.98-2.35-.67-1.48,.36-2.02,1.26-1.73,2.48,.3,1.22,1.21,1.78,2.68,1.42,1.28-.31,1.8-1.01,1.77-1.7l2.13-.52c.23,1.84-.94,3.3-3.49,3.92-2.78,.68-4.62-.24-5.2-2.61-.58-2.36,.63-4.01,3.41-4.69Z" fill="#262f61"></path><path d="M132.62,187.73c-.87-2.2,.13-4.08,2.93-5.19,2.78-1.1,4.82-.4,5.68,1.79,.87,2.2-.14,4.11-2.92,5.21-2.79,1.1-4.82,.4-5.69-1.81Zm6.61-2.61c-.45-1.15-1.39-1.6-3.03-.95-1.63,.64-2.02,1.6-1.56,2.76,.46,1.17,1.41,1.61,3.03,.97,1.63-.64,2.02-1.62,1.56-2.78Z" fill="#262f61"></path><path d="M145.61,186.25l-3.58-6.16,2.78-1.62,4.52,2.84-.24-5.33,2.78-1.62,3.58,6.16-1.78,1.03-2.59-4.46,.28,5.81-1.65,.96-4.91-3.11,2.6,4.46-1.79,1.04Z" fill="#262f61"></path></g></g><path d="M48.34,171.86c-18.95-16.08-30.98-40.07-30.98-66.86S30.03,52.95,49.85,36.88" fill="none" stroke="#262f61" stroke-miterlimit="10" stroke-width="2.22"></path><path d="M160.16,36.89c19.82,16.07,32.48,40.61,32.48,68.11s-12.03,50.79-30.98,66.87" fill="none" stroke="#262f61" stroke-miterlimit="10" stroke-width="2.22"></path></g></g></g></g></svg>