<?xml version="1.0" encoding="UTF-8"?>
<svg id="Layer_1" xmlns="http://www.w3.org/2000/svg" version="1.1" viewBox="0 0 500 500">
  <!-- Generator: Adobe Illustrator 29.0.1, SVG Export Plug-In . SVG Version: 2.1.0 Build 192)  -->
  <defs>
    <style>
      .st0 {
        fill: #dedede;
      }
    </style>
  </defs>
  <circle cx="250" cy="250" r="248.5"/>
  <g>
    <path class="st0" d="M158.9,81.8c-11.6,0-21,9.4-21,21s9.4,21,21,21h70.1c11.6,0,21-9.4,21-21s-9.4-21-21-21h-70.1Z"/>
    <path class="st0" d="M348.4,150.6c10.9-4,16.5-16.1,12.5-27-4-10.9-16.1-16.5-27-12.5l-182.2,67.1c-10.9,4-16.5,16.1-12.5,27,4,10.9,16.1,16.5,27,12.5l182.2-67.1Z"/>
    <path class="st0" d="M348.4,321.7c10.9-4,16.5-16.1,12.5-27-4-10.9-16.1-16.5-27-12.5l-182.2,67.1c-10.9,4-16.5,16.1-12.5,27,4,10.9,16.1,16.5,27,12.5l182.2-67.1Z"/>
    <path class="st0" d="M271,376.2c-11.6,0-21,9.4-21,21s9.4,21,21,21h70.1c11.6,0,21-9.4,21-21s-9.4-21-21-21h-70.1Z"/>
    <path class="st0" d="M348.7,234.6c10.8-4.2,16.2-16.3,12.1-27.2-4.2-10.8-16.3-16.2-27.2-12.1l-182.2,70.1c-10.8,4.2-16.2,16.3-12.1,27.2,4.2,10.8,16.3,16.2,27.2,12.1l182.2-70.1Z"/>
  </g>
</svg>