<?xml version="1.0" encoding="UTF-8"?><svg id="CIRCLE_OUTLINE_BLACK" xmlns="http://www.w3.org/2000/svg" viewBox="0 0 512 512"><circle cx="256" cy="256" r="256" fill="#7e1bcc"/><path d="m432.22327,364.38376l-84.39686-146.43955-39.58635-68.64949-44.81733-77.74238c-2.33142-4.04006-7.4965-5.42519-11.53656-3.09379-1.28511.7416-2.35218,1.80867-3.09378,3.09379l-84.59437,146.28289-34.56654,59.77459c-2.33601,4.04175-.95323,9.21194,3.08851,11.54795,1.28487.7426,2.74262,1.13385,4.22666,1.13439l65.29842.04087c3.01762-.00006,5.8071-1.60628,7.32198-4.2161l33.93311-58.69842,5.19009-8.97708c.2048-.34617.43235-.67837.68111-.99443,2.88852-3.66729,8.20307-4.29861,11.87036-1.41008.84499.66557,1.55521,1.48629,2.09248,2.41812l35.21361,61.08231,6.51825,11.28607c.35494.62522.63391,1.29062.83096,1.98204,1.23385,4.50224-1.41571,9.15226-5.91795,10.38612-.73483.2014-1.49351.30248-2.25542.30056l-76.81606-.04768c-3.01762.00006-5.8071,1.60628-7.32198,4.2161l-32.69348,56.53248c-2.33602,4.0374-.95678,9.20406,3.08061,11.54007,1.28497.74347,2.7432,1.13512,4.22774,1.13547l67.69594.04768,84.41048.05448,84.58075.05448c4.66449.00312,8.44837-3.77566,8.45149-8.44016.00096-1.47381-.38371-2.92224-1.11587-4.20132Z" fill="#fff"/></svg>