<?xml version="1.0" encoding="UTF-8"?>
<svg id="Layer_1" xmlns="http://www.w3.org/2000/svg" version="1.1" viewBox="0 0 500 500">
  <!-- Generator: Adobe Illustrator 29.0.1, SVG Export Plug-In . SVG Version: 2.1.0 Build 192)  -->
  <defs>
    <style>
      .st0 {
        fill: #fff;
      }

      .st1 {
        fill: #231f20;
        fill-rule: evenodd;
      }
    </style>
  </defs>
  <circle id="bg" class="st0" cx="250" cy="250" r="248.5"/>
  <path class="st1" d="M250,2C112.7,2,1,113.7,1,251s111.7,249,249,249,249-111.7,249-249S387.3,2,250,2ZM463.1,203.8c-11.9,7.6-39.9,22.4-89.8,32.8,16.3-66,18-119.5,16.5-153.1,36.4,30.4,62.8,72.5,73.4,120.4ZM355.9,441.8c-25,13.9-53.1,23.1-82.9,26.3,16.4-23.2,47.8-74.3,79-161.7,12.4,74,5.6,124.9,3.9,135.5ZM148.1,306.3c31.1,87.4,62.6,138.5,79,161.7-29.8-3.1-57.9-12.3-82.9-26.3-1.7-10.5-8.5-61.5,3.9-135.5ZM143,60.8c23.7-13.4,50.1-22.5,78.2-26.2-17.4,26.2-45.4,75.3-73.1,153.2-10.4-61.7-7.3-107.4-5.1-127ZM351.9,187.8c-27.7-77.9-55.8-127-73.1-153.2,28.1,3.7,54.5,12.8,78.2,26.2,2.3,19.6,5.3,65.3-5.1,127ZM250,447.2c-16.7-24.3-48.9-78.5-79.8-171.1-.2-.5-.3-1-.5-1.5,23.8,2.6,50.5,4.2,80.4,4.2s56.7-1.6,80.4-4.3c-.2.5-.3,1-.5,1.5-30.8,92.3-63.2,146.7-79.9,171.1h0ZM162.5,242.7c2.3-8,4.8-16.2,7.6-24.6,30.8-92.3,63.2-146.7,79.9-171.1,4.7,6.9,10.7,16.2,17.5,28,15.8,27.4,39.5,74.5,62.3,143.2,2.8,8.3,5.3,16.5,7.6,24.6-25,3.3-54,5.4-87.5,5.4s-62.4-2.1-87.5-5.4h0ZM110.3,83.4c-1.5,33.7.2,87.3,16.5,153.3-47.5-9.7-76.3-23.3-90.2-31.3,10.4-48.6,36.9-91.2,73.7-122ZM31.7,251c0-4.4.1-8.7.4-13,18.8,9.4,48.8,21.2,92.2,29.7-15.3,66.9-15.6,120-13.6,151.2-48.2-40.1-79-100.5-79-167.9h0ZM389.3,418.9c2.1-31.3,1.7-84.4-13.6-151.4,44.4-8.8,74.1-21.2,92.1-30.8.3,4.7.5,9.5.5,14.3,0,67.5-30.8,127.9-79,167.9Z"/>
</svg>