<?xml version="1.0" encoding="UTF-8"?>
<svg id="Layer_1" xmlns="http://www.w3.org/2000/svg" version="1.1" viewBox="0 0 500 500">
  <!-- Generator: Adobe Illustrator 29.0.1, SVG Export Plug-In . SVG Version: 2.1.0 Build 192)  -->
  <defs>
    <style>
      .st0 {
        fill: #fff;
      }
    </style>
  </defs>
  <circle id="bg" class="st0" cx="250" cy="250" r="248.5"/>
  <g>
    <path d="M392,116.1c14.1,13.8,28.2,27.6,42.2,41.2-30.8,30.6-61.4,60.9-91.3,90.6,31.3,32,61.5,62.9,91.5,93.5-14.2,14.5-28.3,28.8-43.5,44.3-6.1-6.6-11.9-13.2-18.1-19.5-30.7-31-61.5-61.8-92.3-92.7-6.2-6.2-10-13.5-10.3-22.4-.3-9.3,3.6-16.9,10-23.4,35.7-35.8,71.4-71.6,107.1-107.4,1.3-1.3,2.9-2.5,4.8-4.3Z"/>
    <path d="M341.3,65.6c14.3,14.1,28.4,28.1,42.8,42.3-1,1.1-1.8,2.2-2.7,3.1-35.9,36-71.8,72-107.7,108-8.6,8.6-18.6,13.6-30.7,10.3-5.2-1.4-10.6-4.3-14.3-8-36.9-36.6-73.6-73.6-110.3-110.4-.8-.8-1.5-1.8-2.3-2.8,14.2-14,28.2-28,42.6-42.2,2.6,2.4,5.4,5,8.1,7.7,26.2,26.3,52.3,52.6,78.5,78.9,4.5,4.5,4.6,4.4,9.3-.2,28.2-28.3,56.3-56.5,84.5-84.8.7-.7,1.6-1.3,2.2-1.8h0Z"/>
    <path d="M107.4,385.1c-13.8-14.5-27.5-28.8-41.6-43.5,30-29.7,60.6-60,91.1-90.1-6.3-6.6-11.5-12.2-16.9-17.6-23.6-23.6-47.3-47.2-71-70.7-4.5-4.5-4.5-4.5-.2-8.9,11.2-11.4,22.5-22.7,33.7-34,1.5-1.5,3.3-2.9,5-4.4,9.5,9.4,18.7,18.6,27.9,27.8,27,26.9,54,53.9,80.9,80.8,2.5,2.5,4.9,5.1,7.1,7.9,8.4,10.9,8.6,24.3.5,35.4-2.3,3.2-5.1,6.1-7.9,8.9-35.5,35.7-71.1,71.4-106.7,107.1-.3.3-.7.5-1.9,1.3h0Z"/>
    <path d="M115.1,392.1c36.9-36.7,73.1-72.8,109.5-108.7,3.6-3.6,7.6-7.3,12.1-9.6,11.7-6.1,24.1-4.2,33.8,5.2,15.2,14.7,30.1,29.7,45.1,44.5,22.7,22.6,45.4,45.2,68.6,68.2-1.9,2.2-3.5,4.1-5.2,5.9-11.5,11.7-23.2,23.2-34.7,34.9-2.6,2.7-4.1,2.2-6.4-.1-28.4-28.7-56.8-57.4-85.1-86-.8-.8-1.7-1.5-2.7-2.4-12.1,11.9-24.2,23.6-36.1,35.5-17.8,17.8-35.4,35.7-53.2,53.4-.8.8-3.3,1.3-3.9.7-13.9-13.6-27.6-27.4-41.8-41.6h0Z"/>
  </g>
</svg>