<?xml version="1.0" encoding="UTF-8"?>
<svg id="Layer_1" xmlns="http://www.w3.org/2000/svg" version="1.1" viewBox="0 0 500 500">
  <!-- Generator: Adobe Illustrator 29.0.1, SVG Export Plug-In . SVG Version: 2.1.0 Build 192)  -->
  <defs>
    <style>
      .st0 {
        fill: #614037;
      }

      .st1 {
        fill: #fcfdfc;
      }

      .st2 {
        fill: #937955;
      }

      .st3 {
        fill: #c74f02;
      }

      .st4 {
        fill: #c6a774;
      }

      .st5 {
        fill: #9a7f59;
      }

      .st6 {
        fill: #fdfefd;
      }

      .st7 {
        fill: #31201b;
      }

      .st8 {
        fill: #e8c587;
      }

      .st9 {
        fill: #ffff96;
      }

      .st10 {
        fill: #ddd;
      }

      .st11 {
        fill: #fda524;
      }

      .st12 {
        fill: #dedede;
      }

      .st13 {
        fill: #f28b7e;
      }

      .st14 {
        fill: #dddbdb;
      }

      .st15 {
        fill: #cb6105;
      }

      .st16 {
        fill: #dededd;
      }

      .st17 {
        fill: #df6d03;
      }
    </style>
  </defs>
  <circle class="st9" cx="250" cy="250" r="248.5"/>
  <g>
    <path class="st7" d="M134.5,383.3c-40.2-21.5-60.1-58.6-55.8-104.3,1.2-13.1,3.5-26,7.8-38.4,1-2.8,1.2-5.6.5-8.6-8.4-34.3-9.2-68.5.4-102.8,1.6-5.9,3.8-11.7,6.9-17,8.1-13.7,15.4-16.2,29.7-12.9,13.7,3.1,25.1,10.8,36.4,18.7,5.6,3.9,11,8.2,16,12.9,1.5,1.3,2.6,1.6,4.5.7,24.9-10.7,50.8-15.8,78-14.5,20.8,1,40.6,6.1,59.7,14.2,2.5,1.1,4,.8,6.1-1,12.8-11,26.2-21,41.8-27.7,6.3-2.8,12.9-4.7,19.9-4.6,5.7,0,10.4,2.2,14.2,6.5,8.3,9.2,11.9,20.5,14.4,32.1,6.9,31.6,6.5,63.2-1.5,94.6-.7,2.8-.7,5.4.2,8.3,4.9,15.3,8,31.1,8.3,47.3.4,25.1-5.1,48.3-21.3,68.2-9.6,11.9-21.3,21.2-34.8,28.3-17.6,5.9-37.6,11.1-59.9,14.6-71.8,11-132.6-2.1-171.4-14.6Z"/>
    <g>
      <path class="st7" d="M93,202.9c-2.3-25.5-2-51,5.6-75.8,1.3-4.3,3.2-8.4,5.1-12.6,1.3-2.9,2.8-3.2,5.3-1.6,1.9,1.3,4,2.3,5.7,3.9,12.4,7.4,23.1,16.7,31.9,28.2,1.5,1.9,1.7,3.1-.5,4.9-13.3,11.2-25.1,24-35.8,37.6-.4.8-.6,1.7-1.4,2h0c-4.4,8-8.8,16-13.5,24.6-1.6-4.1-2-7.8-2.3-11.3Z"/>
      <path class="st7" d="M386.4,116.1h0c.3-.3.6-.5.8-.7,7.6-4.8,8-4.8,11.5,3.6,5.2,12.6,8,25.9,9.1,39.5,1,11.5,1.5,22.9.7,34.4-.5,6.7-1.5,13.3-3.5,21-3.3-6.1-6.2-11.4-9-16.8-8.4-12.7-17.4-24.8-28.4-35.4-4.6-4.4-9.4-8.6-14.3-12.6-1.3-1.1-1.6-1.9-.4-3.3,9.6-11.7,20.5-21.9,33.5-29.8Z"/>
      <path class="st7" d="M410.7,301.1c0,.8-.2,1.5-.8,2,0,0-.1.1-.2.2,0,0,.1,0,.2-.1-.2,3.7-1,7.4-2.3,10.8,0,0-.1.2-.2.3-5.1,20.9-17.7,36.7-35.1,48.9-18.8,13.1-40.1,20.2-62.4,24.5-43.8,8.2-87.4,8-130.7-2.5-21-5.1-40.8-13-57.8-26.8-17-13.8-27.2-31.4-31-53-.2-.8-.1-1.7-.1-2.5-1.8-6.5-1.6-13-1.2-19.6,1.2-25.2,7.6-49,19.5-71.2,11.6-21.9,27-40.7,46.8-55.7,7.8-5.9,7.8-7.2,2.1-15.2-4.7-6.6-11-11.6-15.6-18.3t0,0c-6.2-4.6-12.4-9.3-18.5-13.9,0,0,0-.1,0-.2,0,0-.1.1-.1.2-.7-.3-1.3-.6-2-1h0c-.6-.3-1.9-.6-.4-1.3.9-.5,2.3-.2,3.3.7h0c.6.2,1.1.4,1.6.6,0,0,.1,0,.2,0,7.9,2.2,14.6,6.6,21.5,11,9,5.9,17.4,12.6,25.3,19.9,3.1,2.8,5.9,2.9,9.3,1.3,35.5-16.9,72.3-19.7,110.2-10,8.9,2.3,17.5,5.6,25.7,9.7,3.9,1.9,7,1.6,10.3-1.3,11-9.8,22.5-18.9,35.5-25.9,4.2-2.2,8.5-4.2,13.2-5.3.8-.7,1.8-1,2.5-.3.3.4-.3.9-.9,1.1,0,0,0,0-.1,0-8.1,5.3-15.5,11.4-22.6,17.8-5.2,6.3-11.2,12-15.4,19.1-2.6,4.2-2.2,6.3,1.7,9.3,38.5,29,60.9,67.5,68.1,114.9,1.6,10.6.7,21.2.6,31.8Z"/>
      <path class="st11" d="M410.7,301.1c0,.8-.2,1.5-.8,2,0,0-.1.1-.2.2-6.8,6.7-14.8,11.3-24.4,12.2-19.6,1.9-35.8-5.7-50.2-18.3-13.4-11.7-25.3-24.8-39.1-36.1-8.5-7-17.3-13.8-28.3-16.7-18.6-4.9-36.1-2.7-52.3,8.2-8.6,5.9-16.3,13-24.1,19.9-11,9.8-20.5,21.4-32.7,29.9-7.9,5.6-16.3,10.6-26.2,11.9-14.4,1.8-28.4,1.6-40-9.1-.2-.1-.3-.3-.5-.4-.2-.2-.5-.4-.7-.6-.3-.4-.7-.8-.9-1.3-1.8-6.5-1.6-13-1.2-19.6,1.2-25.2,7.6-49,19.5-71.2,11.6-21.9,27-40.7,46.8-55.7,7.8-5.9,7.8-7.2,2.1-15.2-4.7-6.6-11-11.6-15.6-18.3,0,0,0,0,0,0,2-1.1,3.5.1,5.2.8,6.8,3.1,12.5,7.7,18,12.6,2.9,2.5,5.9,4.9,8.7,7.3,2.7,2.3,5.4,2.7,8.8,1.2,9.2-4.1,18.5-7.5,28.4-10,16.3-4,32.8-6,49.4-4.8,18.8,1.3,36.9,5.8,54.2,13.4,1.2.5,2.5,1,3.7,1.5,3.1,1.4,5.3.5,7.9-1.6,7.8-6.8,16.2-12.5,24.5-18.7,2-1.5,3.9-1.2,5.1,1.3-5.2,6.3-11.2,12-15.4,19.1-2.6,4.2-2.2,6.3,1.7,9.3,38.5,29,60.9,67.5,68.1,114.9,1.6,10.6.7,21.2.6,31.8Z"/>
      <path class="st6" d="M409.9,303.2c-.2,3.7-1,7.4-2.3,10.8,0,0-.1.2-.2.3-12.4,19.5-28.9,34.2-50,43.8-21.7,10-44.6,15.3-68.2,17.9-15.5,1.7-31.2,2.7-46.8,2.1-28.3-1-56.4-4-83.3-13.6-18.1-6.4-34.9-15.1-48.7-28.5-7.6-7.4-14.7-15.4-18.3-25.9-.5-1.6-.7-3.4-.9-5-.1-.5,0-.9.2-1,.2-.1.6,0,1,.2,3,1.9,5.7,4.3,8.9,5.7,13.8,6.5,27.8,5.5,41.7.2,14.5-5.5,24.9-16.6,35.7-27,11.1-10.7,22.2-21.4,34.7-30.5,21.3-15.5,51.8-15.7,72.9-.3,12.5,9.2,23.7,19.7,34.8,30.4,5.2,5,10.5,9.9,15.9,14.7,11.8,10.6,25.6,16.7,41.5,17.4,8.6.4,16.7-1.6,23.9-6.8,2.3-1.8,4.7-3.7,7.4-4.9,0,0,.1,0,.2-.1Z"/>
      <path class="st12" d="M407.6,313.9c0,.1,0,.3-.1.4-5.1,20.9-17.7,36.7-35.1,48.9-18.8,13.1-40.1,20.2-62.4,24.5-43.8,8.2-87.4,8-130.7-2.5-21-5.1-40.8-13-57.8-26.8-17-13.8-27.2-31.4-31-53-.2-.8-.1-1.7-.1-2.5.7.5,1.3,1,2,1.5-.1.1-.2.3-.3.4-.9,1.5,0,3,.3,4.4,2,6.6,6.6,11.6,10.6,17,12.7,16.7,30,27,49,34.6,17.3,6.8,35.2,11.4,53.7,13.5,9.6,1.1,19.2,1.6,28.8,2.3,7.9.5,15.9.7,23.8.4,25.7-.9,51.2-3.3,76-11.2,16.1-5.1,31.2-11.8,44.9-21.8,9.6-7,17.2-15.8,24-25.4,1.3-1.8,2.7-3.4,4.5-4.8Z"/>
      <path class="st3" d="M397.8,190.7c0,2.3,0,4.7-1.9,6.5-8.4-12.7-17.4-24.8-28.4-35.4-4.6-4.4-9.4-8.6-14.3-12.6-1.3-1.1-1.6-1.9-.4-3.3,9.6-11.7,20.5-21.9,33.5-29.8h0c4.7,10.2,7.4,20.9,9.1,31.9,2.2,14.2,2.6,28.4,2.3,42.7Z"/>
      <path class="st3" d="M146.1,150c-13.3,11.2-25.1,24-35.8,37.6-.6.1-.9.5-1.3.9,0,0-.1.2-.2.3-.3.3-.5.6-.9.8-.6.6-1,1.4-1.7,1.9-1.3.9-2.2.5-2.7-1-.2-.6-.2-1.2-.2-1.8.2-14.5-.9-29.1,2-43.5,2-9.8,4.5-19.5,9.4-28.3,12.4,7.4,23.1,16.7,31.9,28.2,1.5,1.9,1.7,3.1-.5,4.9Z"/>
      <path class="st8" d="M378.5,108.1s0,0-.1,0c-8.1,5.3-15.5,11.4-22.6,17.8-2-1.5-3.4-1.5-5.7.3-8.5,6.7-17.7,12.5-25.7,20-1.3,1.3-2.9.9-4.4.3-6.1-2.4-12.2-4.9-18.4-7.1-21-7.6-42.8-10.3-64.9-8.3-16.9,1.5-33.6,4.9-49,12.6-7.5,3.7-12.8,3.1-18.8-2.7-6.4-6.3-13.3-12.3-21.6-16.2-1.7-.8-3.6-1.4-5.4-2t0,0c-6.2-4.6-12.4-9.3-18.5-13.9,0,0,0-.1,0-.2.3-1.5,1.3-.9,2.2-.7,0,0,.1,0,.2,0,7.9,2.2,14.6,6.6,21.5,11,9,5.9,17.4,12.6,25.3,19.9,3.1,2.8,5.9,2.9,9.3,1.3,35.5-16.9,72.3-19.7,110.2-10,8.9,2.3,17.5,5.6,25.7,9.7,3.9,1.9,7,1.6,10.3-1.3,11-9.8,22.5-18.9,35.5-25.9,4.2-2.2,8.5-4.2,13.2-5.3t0,0c.9-.3,1.6-.6,1.5.8Z"/>
      <path class="st17" d="M105.8,148.8c-2.5,14.1-1,28.3-1.5,42.7,2.2-.5,2.9-2.5,4.5-3.2,0,0,0,0,0,0,0,0,.1.1.1.2.2.3.2.7-.1,1.1h0c-4.4,8-8.8,16-13.5,24.6-1.6-4.1-2-7.8-2.3-11.3-2.3-25.5-2-51,5.6-75.8,1.3-4.3,3.2-8.4,5.1-12.6,1.3-2.9,2.8-3.2,5.3-1.6,1.9,1.3,4,2.3,5.7,3.9.4,1.1.6,2,0,3.1-5.4,8.9-7,18.8-8.8,28.8Z"/>
      <path class="st17" d="M408.5,193c-.5,6.7-1.5,13.3-3.5,21-3.3-6.1-6.2-11.4-9-16.8,2.1-25.2.4-50.1-7.8-74.2-.7-2.2-2.6-4.3-1.8-6.9h0c.3-.3.6-.5.8-.7,7.6-4.8,8-4.8,11.5,3.6,5.2,12.6,8,25.9,9.1,39.5,1,11.5,1.5,22.9.7,34.4Z"/>
      <path class="st4" d="M125.7,108.1c-.8.2-1.7,0-2.3.7,0,0-.1.1-.1.2-.7-.3-1.3-.6-2-1h0c.7-1.6,1.7-.9,2.8-.6.6.2,1.1.4,1.6.6,0,0,0,0,0,0Z"/>
      <path class="st2" d="M124.2,107.4h0c-1,.2-2.1-.4-2.8.6,0,0,0,0,0,0-.6-.3-1.9-.5-.4-1.3.9-.5,2.3-.2,3.3.7Z"/>
      <path class="st15" d="M110.2,187.6c-.4.8-.6,1.7-1.4,2,0,0,0,0,0,0v-1.3c.3-.6.5-1.6,1.5-.7Z"/>
      <path class="st5" d="M378.5,108.1s0,0-.1,0c-.3-.7-.9-.6-1.5-.8t0,0c.8-.7,1.8-1,2.5-.3.3.4-.3.9-.9,1.1Z"/>
      <path class="st7" d="M338.8,265.6c-5.8-.2-10.5-.4-14.9-2-13-4.3-17.4-15.2-11-27.4,5.6-10.6,18.3-15.4,29.9-11.3,11.3,4,17.9,15.3,15.7,27.1-1.3,7.2-6,11.7-13.5,13-2.4.4-4.8.4-6.2.5Z"/>
      <path class="st7" d="M161.8,265.5c-2.2,0-4.9.2-7.6-.5-9.8-2.4-14.2-10.5-12.2-22.2,2.1-12.5,14.9-21.3,27.5-19,13.4,2.4,22.1,14.2,20.1,27.1-.8,4.9-3.8,8-7.9,10.5-5.1,3-10.7,4.2-19.9,4.2Z"/>
      <path class="st6" d="M186.8,182.4c10.7-1.1,18.8,12.4,14.2,22.9-1.1,2.6-3.3,4.3-5.8,5.3-7.4,2.8-14.8,2.9-22-1-7.3-3.9-9-12.2-3.8-18.7,4.4-5.5,10.1-8.8,17.5-8.5Z"/>
      <path class="st6" d="M314.6,212.5c-1.6-.2-3.1-.3-4.6-.5-12.9-2.1-14.3-13.2-9.7-22,5.2-9.8,16.7-9.4,25.2-4.1,1.1.7,2.1,1.6,3.1,2.6,3.7,3.7,6.7,7.8,4.8,13.3-1.8,5.5-6.1,8.4-11.5,9.8-2.4.6-5.1.7-7.4,1Z"/>
      <path class="st7" d="M221.9,273.4c-.2-7.7,2.7-12.5,9.8-15.5,11.8-4.9,23.8-5.1,35.7-.4,5.1,2,9.7,4.9,10.8,11,1,3.8.3,7.5-1.1,11-3.3,7.7-9.1,12.8-16.5,16.4-.8.4-1.9.4-2.5,1.5,1.1,2,3.9,2,4.8,4.2,9.4,6,15.7,4.9,22.6-3.7,2.2-2.8,3.9-5.9,5.6-9,1.6-3,4.1-3.3,6.9-2,2.5,1.3,3.9,3.1,2.5,6.2-3.4,8.1-8,15.2-15.8,19.6-2.5,1.5-3.7,3.4-4.2,6.3-2,10.8-6.4,20.6-15.3,27.6-9.7,7.8-22.1,7.5-31.6-.5-8.9-7.5-13-17.5-15.2-28.6-.4-2.2-1.4-3.6-3.3-4.8-7.2-4.7-12.2-11.1-15.4-19.1-1.3-3.4-.3-5.7,2.6-6.9,3.3-1.4,5.3-.6,7,2.8,1.5,3,3.1,5.8,5.2,8.4,6.8,8.6,13.3,9.7,22.6,3.7.9-2.2,3.5-2.5,5.1-4.4-3.5-1.8-7-3.5-10.1-5.9-3.6-2.9-6.5-6.2-8.5-10.3-1.1-2.2-1.8-4.6-1.8-7.2Z"/>
      <path class="st16" d="M263,301.5c-2.5-1.2-4.8-2.6-7.2-4.6,13.1-5.3,22.3-13.3,22.5-28.4,4,9.3.5,21.5-7.6,27.8-2.5,1.9-5.6,2.8-7.7,5.3Z"/>
      <path class="st10" d="M221.9,273.4c3,12,11.1,19,22.6,23.3-2.4,2.1-4.7,3.5-7.2,4.7-2.5-1.9-4.9-3.8-7.5-5.5-5.1-3.5-7.7-8.6-9.2-14.3-.7-2.8.7-5.5,1.3-8.2Z"/>
      <path class="st1" d="M338.9,239.1c0,4.3-3.1,7.9-7,8-4.7.1-8-3-8.1-7.9-.1-4.1,3.4-7.8,7.6-7.9,3.5-.1,7.4,3.9,7.5,7.8Z"/>
      <path class="st1" d="M176.3,239.4c0,4.8-2.9,7.5-7.8,7.5-4.6,0-7.1-2.8-7.1-7.9,0-4.1,3.1-7.4,7-7.4,4.6-.1,7.8,3,7.8,7.8Z"/>
      <path class="st0" d="M250.3,275.1c-4.6-.7-9.3-.5-13.5-2.9-2-1.1-3.9-2.6-3.8-5,0-2.5,2-4.2,4.2-5.1,8.5-3.3,17.1-3.3,25.6,0,2.2.8,4.2,2.2,4.5,4.8.2,2.8-2,4-4,5.2-4,2.5-8.5,2.5-13,3Z"/>
      <path class="st13" d="M263.8,331.8c-.4.6-.8,1.2-1.2,1.8-9.1,10.8-18,10.3-26.5-1.2.6-1.3,1.9-1.9,3.2-2.2,7.9-2.3,15.7-1.6,23.5.7.4.1.8.5,1.1.9Z"/>
      <path class="st14" d="M263.8,331.8c-7.7-1.6-15.5-3.1-23.3-1-1.5.4-3,1-4.4,1.5-2.6-3.4-2.6-3.4,1.3-4.7,8.4-2.6,16.7-2.6,25.2-.2,3,1,3.5,2.1,1.2,4.3Z"/>
    </g>
  </g>
</svg>