<?xml version="1.0" encoding="UTF-8"?>
<svg id="Layer_1" xmlns="http://www.w3.org/2000/svg" version="1.1" xmlns:xlink="http://www.w3.org/1999/xlink" viewBox="0 0 500 500">
  <!-- Generator: Adobe Illustrator 29.0.1, SVG Export Plug-In . SVG Version: 2.1.0 Build 192)  -->
  <defs>
    <style>
      .st0 {
        fill: #fbdfa8;
      }

      .st1 {
        fill: #fff;
      }

      .st2 {
        fill: #ffae54;
        fill-rule: evenodd;
      }

      .st3 {
        fill: url(#radial-gradient);
      }

      .st3, .st4 {
        stroke: #ac562a;
        stroke-width: 1.1px;
      }

      .st5, .st4 {
        fill: #ac562a;
      }
    </style>
    <radialGradient id="radial-gradient" cx="-168.3" cy="-349.3" fx="-168.3" fy="-349.3" r="13.7" gradientTransform="translate(-4722.7 2669.6) rotate(90) scale(14.4 14.2)" gradientUnits="userSpaceOnUse">
      <stop offset=".3" stop-color="#f7b450"/>
      <stop offset=".6" stop-color="#ffc977"/>
      <stop offset="1" stop-color="#f90"/>
    </radialGradient>
  </defs>
  <circle class="st0" cx="250" cy="250" r="248.5"/>
  <g>
    <path class="st1" d="M350,243.8c2.7-1.4,6.8,1.4,6.8,4.1l5.5,20.5c1.4,2.7-1.4,6.8-4.1,6.8-2.7,1.4-6.8-1.4-6.8-4.1l-5.5-20.5c-1.4-2.7,0-6.8,4.1-6.8ZM193.1,90.9c-1.4-2.7-1.4-6.8,1.4-8.2l17.7-12.3c2.7-1.4,6.8-1.4,8.2,1.4,1.4,4.1,1.4,6.8-1.4,9.6l-17.7,12.3c-2.7,0-6.8,0-8.2-2.7Z"/>
    <path class="st2" d="M284.5,163.3c-20.5-4.1-42.3-1.4-61.4,10.9,27.3-9.6,58.7-2.7,80.5,19.1,30,31.4,30,81.9,0,111.9-4.1,4.1-8.2,6.8-12.3,9.6,10.9-4.1,21.8-9.6,30-19.1,21.8-21.8,27.3-53.2,19.1-80.5-23.2-8.2-43.7-27.3-55.9-51.9Z"/>
    <path class="st3" d="M414.1,340.7h0c-49.1,91.4-163.8,125.5-253.8,75.1-91.4-49.1-124.2-165.1-75.1-256.5,32.8-60,92.8-95.5,156.9-98.3,8.2,0,15,4.1,19.1,12.3,4.1,8.2,6.8,19.1,5.5,30v12.3c0,19.1,5.5,38.2,13.6,54.6-39.6-15-84.6,1.4-105.1,39.6-23.2,42.3-6.8,94.2,34.1,117.4,40.9,23.2,94.2,6.8,116-34.1h0c12.3-23.2,13.6-50.5,4.1-73.7,16.4,8.2,34.1,12.3,53.2,12.3s20.5-1.4,31.4-4.1c5.5-1.4,12.3-1.4,16.4,1.4,4.1,2.7,6.8,5.5,6.8,9.6,1.4,34.1-6.8,69.6-23.2,102.3Z"/>
    <path class="st4" d="M365,303.8l6.8-2.7h0c5.5,13.6-1.4,25.9-5.5,35.5v1.4c-2.7,5.5-5.5,9.6-5.5,13.6-1.4,6.8-1.4,13.6,0,17.7,1.4,4.1,5.5,8.2,10.9,9.6,4.1,1.4,10.9,0,19.1-5.5,32.8-38.2,47.8-87.3,45-133.7,0-4.1-2.7-8.2-6.8-10.9s-10.9-2.7-16.4-1.4c-9.6,2.7-20.5,4.1-30,4.1-19.1,0-36.8-4.1-53.2-13.6,9.6,23.2,8.2,49.1-2.7,72.3-1.4,4.1-4.1,6.8-6.8,10.9,5.5-1.4,10.9-4.1,19.1-9.6,9.6-6.8,21.8,0,25.9,12.3ZM365,303.8c4.1,10.9-1.4,20.5-5.5,30-2.7,5.5-5.5,10.9-6.8,16.4l12.3-46.4ZM234,164.6h0c-19.1,5.5-34.1,2.7-45-2.7-10.9-6.8-20.5-16.4-24.6-27.3-5.5-12.3-6.8-24.6-4.1-35.5s8.2-19.1,16.4-23.2c23.2-9.6,47.8-15,71-15s12.3,4.1,16.4,10.9c4.1,6.8,5.5,16.4,4.1,24.6-1.4,5.5-1.4,12.3-1.4,19.1,0,19.1,5.5,38.2,13.6,54.6-15-6.8-31.4-8.2-46.4-5.5Z"/>
    <circle class="st5" cx="107.1" cy="206.9" r="9.6"/>
    <circle class="st5" cx="249" cy="377.5" r="9.6"/>
    <circle class="st5" cx="189" cy="385.7" r="16.4"/>
  </g>
</svg>