<?xml version="1.0" encoding="UTF-8"?>
<svg id="Layer_1" xmlns="http://www.w3.org/2000/svg" version="1.1" viewBox="0 0 500 500">
  <!-- Generator: Adobe Illustrator 29.0.1, SVG Export Plug-In . SVG Version: 2.1.0 Build 192)  -->
  <defs>
    <style>
      .st0 {
        fill: #a2560a;
      }

      .st1 {
        fill: #fecd4f;
      }

      .st2 {
        fill: #afcc1c;
      }

      .st3 {
        fill: #110f03;
      }

      .st4 {
        fill: #fee717;
      }

      .st5 {
        fill: #e2af14;
      }

      .st6 {
        fill: #758912;
      }

      .st7 {
        fill: #030201;
      }

      .st8 {
        fill: #493c08;
      }

      .st9 {
        fill: #171105;
      }
    </style>
  </defs>
  <circle class="st1" cx="250" cy="250" r="248.5"/>
  <g>
    <path class="st7" d="M410.9,91.7c26-1.2,26.7,55.9,10.2,66.7-13.4,8.7-26.7-4.1-44.3-3.1-19.5,1.2-62,13.8-81.6,20.6-68.7,24.2-115.5,62.4-121.1,139.6-1.6,22.1,14.4,94.9-24,92.8-38.7-2.2-78.3-80.1-81.5-115.4C54,127.8,212.5,93.2,342.5,98.1c11.4.4,36.8,8.3,44.7,6.8,5.1-1,11.9-12.7,23.7-13.2Z"/>
    <path class="st4" d="M332.9,128.5c-.4,9.1-2.9,17.9-7.5,26.5-88.6,22.8-158.9,67.9-162.5,168.1-.7,21,10.4,54-3.5,68.4-14,14.5-21.9-2.5-30.4-9.6,2.7-12.7,4.1-19,4.1-19-17.6-56-28.7-107.4,13.4-156.8,9-13.8,19.5-20.7,31.6-20.8-3.6-9,7.8-16.7,15.1-11.3-.9-15,27.1-28.6,40.7-34.6s27.5-9.7,41.8-12.9l8.1,6c-.8-8.6,6.5-10.4,11.3-3.8-.3-7,9.6-7,11.3,0,4.7-13.7,18.2-9.3,26.4,0Z"/>
    <path class="st5" d="M325.3,109.6c6.1,2.3,9.9,7.3,11.3,15.1,1.7,3.3.2,4.5-3.8,3.8-9.2-1.2-17.3-.7-26.4,0-3.9-1-7.7-3.5-11.3-7.6-3.6,3.6-7.3,7.4-11.3,11.3-44.3,9.6-55.4,15.8-90.6,41.6-7.1-4.2-23.8,4.4-15.1,11.3-38.7,34.2-57.9,62-52.4,118.6,2.1,21.6,17.6,49.3,15,68.7-1.1,8.4-7.1,4.7-11.7,9.3-13.4-11.3-31.2-26.6-34-45.4-37-112.8,73.5-202.8,173.6-226.8,18.1-1,38.3-.3,56.6,0Z"/>
    <path class="st0" d="M268.7,109.6c-65.6,32.8-147.5,69.1-168.1,147.4-5.6,21.3-8.7,57.9-5.6,79.5-8.8-8.5-13.2-24.4-14.7-36.3-14.6-120.8,78.7-184.2,188.3-190.5Z"/>
    <path class="st2" d="M325.3,155c-6.6-16.3-3.7-16.8,7.5-26.5,1.4-1.2,2.6-2.5,3.8-3.8l4.9-6.6c29.6,9.3,51.9,5.2,66.9-12.3,2-.7,4.8-3.7,5.7-3.6,8,1.3,10,41.4-1.9,47.3-5.5,2.7-17.7-6.2-28.2-6.3-13.4-.1-44.1,7.9-58.6,11.7Z"/>
    <path class="st6" d="M408.4,105.8c-.3,7.6-11.5,20.1-17.8,22-3.8,1.1-47-2.1-53.9-3.1-10.4-1.5-12-4.3-11.3-15.1,18.6.3,49.4,7.2,62.5,5.9,5.3-.6,12.8-7.2,20.6-9.6Z"/>
    <path class="st3" d="M178.1,185.2c-16.3,2.4-14.3-5.5-3.6-13,4.4-3.1,20.9-13.3,18.7,1.7-6,4.4-8.7,5.7-15.1,11.3Z"/>
    <path class="st8" d="M295.1,120.9c7.6-.1,7.6,6.2,0,7.6-2.7.4-7.3,2.9-11.3,3.8-8.8-18.9,2.2-12,11.3-11.3Z"/>
    <path class="st9" d="M306.5,128.5c-5.4.4-10.7,0-11.3,0v-7.6c1.4.1,10.2-9.8,11.3,7.6Z"/>
  </g>
</svg>