<?xml version="1.0" encoding="UTF-8"?><svg id="CIRCLE_OUTLINE_BLACK" xmlns="http://www.w3.org/2000/svg" viewBox="0 0 512 512"><circle id="Oval" cx="255.99998" cy="256" r="256" fill="#4520e6"/><path d="m366.97383,197.49663c0-22.23678-10.89765-41.96257-27.61387-54.08453l45.11409-45.27877-26.98907.15427-35.8422,35.97245c-6.63416-2.23676-13.73247-3.44944-21.1081-3.44944h-123.39424v175.41366l148.56125-149.10455c13.38022,8.43545,22.29444,23.38112,22.29444,40.3769,0,26.26763-21.28934,47.63474-47.46145,47.63474h-3.92914l-165.28702,165.89086h26.83529l32.40534-32.52302h109.97553c36.63381,0,66.43916-29.91356,66.43916-66.68123,0-24.2487-13.00401-45.45109-32.336-57.12307,19.35257-11.6693,32.336-32.93793,32.336-57.19827Zm-170.13271,61.55094v-110.25602h104.89608c1.79186,0,3.56025.09832,5.30105.29317l-110.19713,109.96285Zm148.91503,53.4585c0,26.39072-21.06524,47.85794-46.96186,47.85794h-90.03997l93.57452-95.35661c24.22207,1.87958,43.42731,22.34077,43.42731,47.49867Z" fill="#fff" fill-rule="evenodd"/></svg>