<?xml version="1.0" encoding="UTF-8"?>
<svg id="Layer_1" xmlns="http://www.w3.org/2000/svg" version="1.1" viewBox="0 0 500 500">
  <!-- Generator: Adobe Illustrator 29.0.1, SVG Export Plug-In . SVG Version: 2.1.0 Build 192)  -->
  <defs>
    <style>
      .st0 {
        fill: #fff;
      }
    </style>
  </defs>
  <circle class="st0" cx="250" cy="250" r="248.5"/>
  <g>
    <path d="M401.9,88.2c0,3.3-.1,6.6-.3,9.9-1.9,30.3-13.2,59.9-31.9,83.7-7.2,9.4-16,17.4-24.3,25.8-49.9,49.9-99.8,99.8-149.7,149.7-14.4,14.2-22.6,34.2-22.7,54.4-25,0-50,0-74.9,0,0-2.9.1-5.7.2-8.6,1.9-36,17.3-71.2,42.5-97,54.5-54.5,109-108.9,163.4-163.4,14.4-14.2,22.7-34.3,22.8-54.5,25,0,50,0,74.9,0Z"/>
    <path d="M397.8,376.6c2.7,11.5,4,23.3,4.1,35.1-25,0-50,0-74.9,0,0-15.3-4.6-30.5-13.3-43.1-10-14.9-25.5-26-42.7-31,18.9-18.8,37.7-37.7,56.6-56.5,35,20.6,61,55.9,70.2,95.5Z"/>
    <path d="M229,162.3c-18.9,18.8-37.7,37.7-56.6,56.5-30.9-18.3-54.9-47.9-66.4-81.9-5.3-15.7-7.9-32.2-8-48.7,25,0,50,0,75,0,0,17.4,6.1,34.7,17.1,48.3,9.9,12.3,23.7,21.4,38.9,25.8Z"/>
    <path d="M212.5,88.2c0,5.5,1.1,10.9,3.5,15.9,7.5,16.9,28.4,25.9,45.8,19.6,15.2-4.7,25.6-20,25.7-35.6h-75Z"/>
    <path d="M287.6,411.8c0-3.5-.5-6.9-1.5-10.3-1.3-4.7-3.6-9.1-6.6-12.9-10.9-14.5-32.9-18.7-48.4-9.2-11.6,6.4-18.5,19.4-18.6,32.4h75Z"/>
  </g>
</svg>