<?xml version="1.0" encoding="UTF-8"?><svg id="CIRCLE_OUTLINE_BLACK" xmlns="http://www.w3.org/2000/svg" viewBox="0 0 512 512"><path d="m34.83997,384.98704h442.32007c.03271-.05615.06641-.11182.09912-.16797H34.74085c.03271.05615.06641.11182.09912.16797Z" fill="none" stroke-width="0"/><path d="m0,256.00022c0,.02783.0011.05566.0011.0835h511.9978c0-.02783.0011-.05566.0011-.0835,0-.02832-.0011-.05615-.0011-.08398H.0011c0,.02783-.0011.05566-.0011.08398Z" fill="none" stroke-width="0"/><path d="m34.83997,127.01292c-.03271.05615-.06641.11182-.09912.16797h442.51831c-.03271-.05615-.06641-.11182-.09912-.16797H34.83997Z" fill="none" stroke-width="0"/><path d="m256,.00022C161.6554.00022,79.24353,51.04368,34.83997,127.01292h442.32007C432.75647,51.04368,350.34461.00022,256,.00022Z" fill="#27a4e0" stroke-width="0"/><path d="m.0011,255.91624h511.9978c-.01514-46.93896-12.67407-90.91748-34.73975-128.73535H34.74085C12.67517,164.99876.01624,208.97727.0011,255.91624Z" fill="#f81515" stroke-width="0"/><path d="m34.74085,384.81907h442.51831c22.06567-37.81787,34.72461-81.79639,34.73975-128.73535H.0011c.01514,46.93896,12.67407,90.91748,34.73975,128.73535Z" fill="#fbb92b" stroke-width="0"/><path d="m256,512.00022c94.3446,0,176.75647-51.04395,221.16003-127.01318H34.83997c44.40356,75.96924,126.81543,127.01318,221.16003,127.01318Z" fill="#54e226" stroke-width="0"/></svg>