<?xml version="1.0" encoding="UTF-8"?>
<svg id="Layer_1" xmlns="http://www.w3.org/2000/svg" version="1.1" viewBox="0 0 500 500">
  <!-- Generator: Adobe Illustrator 29.0.1, SVG Export Plug-In . SVG Version: 2.1.0 Build 192)  -->
  <defs>
    <style>
      .st0 {
        fill: #fff;
      }

      .st1 {
        fill: #00cba8;
      }

      .st2 {
        fill: #0db1f9;
      }
    </style>
  </defs>
  <circle class="st0" cx="250" cy="250" r="248.5"/>
  <g>
    <path class="st1" d="M199.6,196h101.5c11.5,0,22.9,1.8,33.8,5.5.5-57.6-46.5-104.3-104.7-104.3h-101.5c-15.8,0-28.6,12.8-28.6,28.6h0v149.6c0,15.8,12.8,28.6,28.6,28.6h42.2v-79.5c0-15.8,12.8-28.6,28.6-28.6Z"/>
    <path class="st2" d="M335,201.5c0,1.2,0,2.4,0,3.6-2.4,55.3-48,98.9-103.3,98.9h-60.5v70.2c0,15.8,12.8,28.6,28.6,28.6h102.8c55.4,0,100.9-43.6,103.3-98.9,2-47.5-28.2-88.1-70.8-102.4Z"/>
  </g>
</svg>