<?xml version="1.0" encoding="UTF-8"?>
<svg id="Layer_1" xmlns="http://www.w3.org/2000/svg" version="1.1" viewBox="0 0 500 500">
  <!-- Generator: Adobe Illustrator 29.0.1, SVG Export Plug-In . SVG Version: 2.1.0 Build 192)  -->
  <defs>
    <style>
      .st0 {
        fill: #fff;
      }

      .st1 {
        fill: #090909;
      }
    </style>
  </defs>
  <circle class="st0" cx="250" cy="250" r="248.5"/>
  <g>
    <path class="st1" d="M344.9,227.9c11.9,10.4,18.6,22,18.6,34.2,0,45.2-91.7,81.9-204.7,81.9s-73.7-4.2-104.2-11.4c32.4,28.2,103.5,47.7,186.1,47.7s204.7-36.7,204.7-81.9c0-30-40.3-56.2-100.5-70.5Z"/>
    <path class="st1" d="M313.9,119.7c10,8.6,15.5,18.3,15.5,28.4,0,37.7-76.4,68.3-170.6,68.3s-61.4-3.5-86.9-9.5c27,23.4,86.2,39.8,155.1,39.8s170.6-30.5,170.6-68.3-33.6-46.8-83.7-58.7Z"/>
  </g>
</svg>