<?xml version="1.0" encoding="UTF-8"?>
<svg id="Layer_1" xmlns="http://www.w3.org/2000/svg" version="1.1" viewBox="0 0 500 500">
  <!-- Generator: Adobe Illustrator 29.0.1, SVG Export Plug-In . SVG Version: 2.1.0 Build 192)  -->
  <defs>
    <style>
      .st0 {
        fill: #fff;
      }

      .st1 {
        fill: #ff4e17;
      }
    </style>
  </defs>
  <circle class="st1" cx="250" cy="250" r="248.5"/>
  <path class="st0" d="M116.8,115.3v305.3h180c67.2,0,106.5-56.1,106.5-106.8s-21.3-73.7-53.1-92.3h-.1c6.1-12.4,10.5-28,10.5-47.5s-10.7-50.9-30-68.3c-19.1-16.9-45.1-25.9-75-25.9l-77.1-.4h-28.4c-18.5,1.4-33.2,16.9-33.2,35.9ZM255.5,106.1c48.3,0,78.7,28.9,78.7,67.9s-39.2,76.1-78.9,76.1-68-30.7-68-78.5v-26.4c0-17.3-10.4-32.8-26.4-38v-1.1h94.6Z"/>
</svg>