<?xml version="1.0" encoding="UTF-8"?>
<svg id="Layer_1" xmlns="http://www.w3.org/2000/svg" version="1.1" viewBox="0 0 500 500">
  <!-- Generator: Adobe Illustrator 29.0.1, SVG Export Plug-In . SVG Version: 2.1.0 Build 192)  -->
  <defs>
    <style>
      .st0 {
        fill: #fff;
      }

      .st1 {
        fill: #18568b;
      }

      .st2 {
        fill: #18578c;
      }

      .st3 {
        fill: #18568c;
      }

      .st4 {
        fill: #5da9dd;
      }

      .st5 {
        fill: #fdba4d;
      }
    </style>
  </defs>
  <circle class="st0" cx="250" cy="250" r="248.5"/>
  <g>
    <path class="st5" d="M88,351.9c15.9-15.8,41.6-15.8,57.4.2,15.8,15.9,15.8,41.6-.2,57.4-15.9,15.8-41.6,15.8-57.4-.2-15.8-15.8-15.8-41.4,0-57.3h.2"/>
    <path class="st5" d="M366,87.9c15.9-15.9,41.6-15.9,57.5,0s15.9,41.6,0,57.5c-15.9,15.9-41.6,15.9-57.5,0h0c-15.9-15.8-15.9-41.5,0-57.4h0"/>
    <path class="st5" d="M140.1,320.6l42.9,42.9,39.3-39.3c-19.6-7.9-35.1-23.4-43-43l-39.2,39.4Z"/>
    <path class="st5" d="M333,215.6l39.3-39.3-42.9-42.9-39.3,39.3c9.7,3.9,18.5,9.7,25.9,17.1,7.4,7.3,13.2,16.1,17,25.8"/>
    <path class="st4" d="M364.7,407.4c-15.9-15.9-15.9-41.6,0-57.5s41.6-15.9,57.5,0,15.9,41.6,0,57.5h0c-15.8,15.9-41.6,15.9-57.4,0,0,0,0,0,0,0h0"/>
    <path class="st4" d="M92,141.8c-15.9-15.9-15.9-41.6,0-57.5s41.6-15.9,57.5,0c15.9,15.9,15.9,41.6,0,57.5h0c-15.9,15.9-41.6,15.9-57.4,0h0"/>
    <path class="st4" d="M326.2,361.8l42.9-42.9-39.3-39.3c-7.9,19.6-23.4,35.1-43,43"/>
    <path class="st4" d="M225.6,170.5l-39.3-39.3-42.9,42.9,39.3,39.3c3.9-9.7,9.7-18.5,17.1-25.9,7.3-7.4,16.1-13.2,25.8-17"/>
    <path class="st3" d="M297.4,55.7c0,22.5-18.2,40.7-40.7,40.6-22.5,0-40.7-18.2-40.6-40.7,0-22.5,18.2-40.7,40.7-40.6,22.4,0,40.6,18.2,40.6,40.6h0"/>
    <path class="st3" d="M297.4,444.4c0,22.5-18.2,40.7-40.7,40.6-22.5,0-40.7-18.2-40.6-40.7,0-22.5,18.2-40.7,40.7-40.6,22.4,0,40.6,18.2,40.6,40.6h0Z"/>
    <path class="st3" d="M271.5,117.7h-25.6v50.4c8.5-1.5,17.1-1.5,25.6,0"/>
    <path class="st3" d="M271.5,334.2c-8.5,1.5-17.1,1.5-25.6,0v50.4h25.6"/>
    <path class="st2" d="M436.8,279.6c-22.5,0-40.7-18.2-40.6-40.7s18.2-40.7,40.7-40.6c22.5,0,40.7,18.2,40.6,40.7,0,22.4-18.2,40.6-40.6,40.6h0"/>
    <path class="st2" d="M63.2,286.5c-22.5,0-40.7-18.2-40.7-40.7s18.2-40.7,40.7-40.7,40.7,18.2,40.7,40.7c0,22.5-18.2,40.7-40.7,40.7h0"/>
    <path class="st2" d="M333.3,258.6h50.4v-25.6h-50.4c1.5,8.5,1.5,17.1,0,25.6h0Z"/>
    <path class="st2" d="M176.7,258.6c-1.5-8.5-1.5-17.1,0-25.6h-50.4v25.6"/>
    <path class="st1" d="M313.2,248.8c0,31.9-25.8,57.7-57.7,57.7s-57.7-25.8-57.7-57.7c0-31.9,25.8-57.7,57.7-57.7h0c31.9,0,57.7,25.8,57.7,57.7Z"/>
  </g>
</svg>