<?xml version="1.0" encoding="UTF-8"?>
<svg id="Layer_1" xmlns="http://www.w3.org/2000/svg" version="1.1" viewBox="0 0 500 500">
  <!-- Generator: Adobe Illustrator 29.0.1, SVG Export Plug-In . SVG Version: 2.1.0 Build 192)  -->
  <defs>
    <style>
      .st0 {
        fill: #fefefd;
      }

      .st1 {
        fill: #0b0e11;
      }

      .st2 {
        fill: #efb80b;
      }

      .st3 {
        fill: #0b0d11;
      }
    </style>
  </defs>
  <circle class="st2" cx="250" cy="250" r="248.5"/>
  <g>
    <path class="st1" d="M119.1,220.3h206.3c5.5,7.1,46.5,46.8,47.3,50.2.6,2.8-3.2,7.1-4.3,7.1h-206.3c-5.5-7.1-46.5-46.8-47.3-50.2s2.3-5,4.3-7.1Z"/>
    <path class="st1" d="M372.7,134.4c7.1,6.8-41.7,44.5-44.4,54.4H114.8c.4-9,43.6-54.4,47.3-54.4h210.6Z"/>
    <path class="st3" d="M372.7,309.2c4.2,3.7-43.6,54.4-47.3,54.4H114.8c-.8-4.5.4-6.6,2.7-10.2,2.3-3.5,41.4-44.3,44.5-44.3h210.6Z"/>
  </g>
  <g>
    <path class="st0" d="M83.5,96.7c3.2-.6,15.8,12.2,15.2,15.2s-20,23.9-23.6,29.8c-40.5,66.2-39.3,148.7-.8,215.5,3.3,5.8,19.3,24.9,19.6,26.5.6,3.1-12.5,16.2-15.5,15.4C4.4,314.1,4.7,178,83.5,96.7Z"/>
    <path class="st0" d="M110.2,404.3c3.4-.7,32,21.9,38.9,25.8,65,37,143,35.6,207.3-2.4,6.7-4,29.4-22.7,32.4-23.5,5.2-1.4,16.1,9.5,15.2,13-.6,2.4-35.2,26.9-40.4,29.9-71.3,40.9-161.2,40-231.5-2.4-4.7-2.8-30.7-21.1-32.1-23.7-3.1-5.7,6.1-15.8,10.2-16.6Z"/>
    <path class="st0" d="M396.4,75c3.1,5.4-8.9,17.9-14.9,16.4s-24.9-18.2-31.6-21.9c-66-36.5-144.2-32.7-208.2,5.7-17.4,10.5-23.6,27.4-38,.8C172.2,17.6,272.7,6.4,352.9,47.1c5.6,2.8,42.1,25.5,43.5,27.9Z"/>
    <path class="st0" d="M417.3,96.5c75.9,82,79.7,216.1,4.8,300.1-2.6-3.6-13.9-11.1-13.1-15.3.3-1.9,18.5-25,22-31.4,33.2-60.4,33.4-133.2,2.5-194.6-4.1-8.2-28.9-40.9-29.2-43.6-.4-4.8,10.2-11.4,13-15.3Z"/>
  </g>
</svg>