<?xml version="1.0" encoding="UTF-8"?><svg id="CIRCLE_OUTLINE_BLACK" xmlns="http://www.w3.org/2000/svg" viewBox="0 0 512 512"><circle cx="235.55685" cy="268.08289" r="220.27922" fill="#fff"/><path d="m256.00002,0C114.61507,0,.00002,114.61523.00002,256s114.61505,256,256,256,256-114.61523,256-256S397.38491,0,256.00002,0Zm-18.43921,399.51196l-71.0896-40.87183v-81.75928l71.0896,40.87183v81.75928Zm0-110.75708l-71.0896-40.88721v-81.7749l71.0896,40.88745v81.77466Zm17.479-107.48364l-69.76166-40.88745,69.76166-40.87183,71.07422,40.87183-71.07422,40.88745Zm11.45715,25.70898l71.0896-40.88745v81.7749l-71.0896,40.88721v-81.77466Zm94.77582,138.47339l-94.76038,54.05835v-81.75928c-.00006.00024,94.76038-54.07373,94.76038-54.07373v81.77466Z" fill="#000d2b"/></svg>