<?xml version="1.0" encoding="UTF-8"?>
<svg id="Layer_1" xmlns="http://www.w3.org/2000/svg" version="1.1" xmlns:xlink="http://www.w3.org/1999/xlink" viewBox="0 0 500 500">
  <!-- Generator: Adobe Illustrator 29.0.1, SVG Export Plug-In . SVG Version: 2.1.0 Build 192)  -->
  <defs>
    <style>
      .st0 {
        fill: #fff;
      }

      .st1 {
        fill: url(#linear-gradient1);
      }

      .st2 {
        fill: url(#linear-gradient);
      }
    </style>
    <linearGradient id="linear-gradient" x1="243.7" y1="214.8" x2="344.2" y2="478.1" gradientTransform="translate(-56 -97.5)" gradientUnits="userSpaceOnUse">
      <stop offset="0" stop-color="#f15f40"/>
      <stop offset="1" stop-color="#ef2356"/>
    </linearGradient>
    <linearGradient id="linear-gradient1" x1="277.9" y1="201.7" x2="378.4" y2="465.1" xlink:href="#linear-gradient"/>
  </defs>
  <circle class="st0" cx="250" cy="250" r="248.5"/>
  <g>
    <path class="st2" d="M365,351.7l-53.8,28.7-124.5-13.4,10.8-17.9-17.9-10.8c-9-5.4-5.4-52-5.4-52-59.1-83.3-27.8-137.1-27.8-137.1-13.4,64.5,78,94.1,78,94.1-17.9-41.2,7.2-62.7,7.2-62.7,19.7,48.4,43,50.2,43,50.2l23.3,1.8,30.5-30.5c-25.1-39.4,5.4-69.9,5.4-69.9,14.3,57.3,44.8,57.3,44.8,57.3l44.8,1.8L283.4,52.4c-19.7-19.7-52-19.7-72.6,0L49.6,213.7c-19.7,19.7-19.7,52,0,72.6l161.3,161.3c19.7,19.7,52,19.7,72.6,0l88.7-88.7-7.2-7.2Z"/>
    <path class="st1" d="M273.6,279.1c7.2-2.7,15.2-7.2,22.4-17,1.8-1.8,3.6-.9,4.5,1.8,1.8,8.1,5.4,22.4-26,19.7-2.7,0-3.6-3.6-.9-4.5Z"/>
  </g>
</svg>