<?xml version="1.0" encoding="UTF-8"?><svg id="CIRCLE_OUTLINE_BLACK" xmlns="http://www.w3.org/2000/svg" viewBox="0 0 512 512"><circle cx="256" cy="256" r="256" fill="#50832b" stroke-width="0"/><path d="m259.86692,221.85045s-92.16164-57.2037-158.89921,19.06782c0,0,57.83923,75.63592,158.89921-19.06782Z" fill="#fff" stroke-width="0"/><path d="m163.29761,272.26566c-2.42486,0-4.83355-.09888-7.23328-.29718-36.72415-3.03698-56.44877-28.31311-57.27042-29.38798l-1.36042-1.77879,1.47466-1.68579c15.56828-17.79217,33.82466-29.89628,54.26203-35.97719,16.33675-4.86014,34.06251-5.8901,52.68475-3.0621,31.57472,4.79653,54.49494,18.8526,55.45515,19.44856l3.03204,1.88195-2.60391,2.43996c-34.31653,32.15825-67.3953,48.41857-98.44061,48.41857Zm-58.70086-31.30841c5.04975,5.59774,23.0954,23.21032,52.01984,25.56475,30.68465,2.50249,63.86017-12.34784,98.64719-44.13996-7.2898-3.94883-26.4941-13.32061-50.41088-16.92148-17.7923-2.67834-34.69067-1.68365-50.22448,2.95467-18.71016,5.58811-35.5321,16.53184-50.03166,32.54201Z" stroke-width="0"/><path d="m428.29963,183.07904s-41.94933-45.76291-162.71257,37.50016l66.10198,16.5255h38.13576l26.69503-8.89834,18.43228-13.34752,13.34752-31.7798Z" fill="#fff" stroke="#000" stroke-miterlimit="10" stroke-width="10"/><path d="m242.70561,230.17088c0,15.76446-19.21043,28.54407-42.90769,28.54407-23.69726,0-42.90769-12.77962-42.90769-28.54407s19.21043-28.54407,42.90769-28.54407c23.69726,0,42.90769,12.77962,42.90769,28.54407Z" stroke-width="0"/><path d="m162.78476,276.06536c-10.98181,0-21.67085-1.97548-31.74068-5.95905-16.52983-6.53898-32.66789-18.77296-47.96585-36.36203-.7694-.88458-1.93219-2.22135-2.52133-4.04023-1.73256-5.34813,1.61149-12.40128,10.52388-22.19745,7.41755-8.15314,15.94109-15.11383,16.88861-15.88083,12.28597-9.94422,26.59566-16.09943,41.38198-17.80126,23.54731-2.70934,49.85541,4.16423,78.19204,20.42935,1.30456.74882,10.43783,6.92969,18.0971,12.24682,17.67632,12.27194,17.7442,12.75191,18.03029,14.77122l.26257,1.85362-1.34198,1.41854c-16.3163,16.50458-31.99309,28.74712-47.9259,37.42727-17.17189,9.35575-34.87587,14.09402-51.88074,14.09402Zm-3.26347-95.15348c-3.15257,0-6.24968.17478-9.29401.52487-13.33838,1.53506-26.28405,7.11783-37.43716,16.1454-.90115.72905-9.00606,7.3482-16.04158,15.08123-7.95017,8.73841-9.33637,13.33878-8.9021,14.67929.10743.33139.67453.98347,1.0134,1.37311,14.48447,16.6537,29.62569,28.1827,45.00289,34.26575,23.51164,9.29909,50.90596,6.55234,77.13696-7.73838,14.33281-7.80893,28.51168-18.68905,43.2531-33.20211-7.63949-5.72441-28.36202-19.87883-30.52711-21.14344-23.14337-13.28427-44.69316-19.98573-64.20439-19.98573Z" stroke-width="0"/><ellipse cx="320.87698" cy="212.91661" rx="34.34676" ry="18.29672" transform="translate(-28.82903 51.66766) rotate(-8.81174)" stroke="#000" stroke-miterlimit="10" stroke-width="14"/><path d="m348.85641,241.38164c-8.13617,0-16.72746-.57351-25.83534-1.71839-22.60875-2.84189-44.98004-8.7785-64.17606-14.12075-.002-.00053-.00388-.00107-.00588-.0016l2.05499-7.38187c-1.41119-.39339-2.40121.20204-2.41109.20845,2.57224-1.58317,15.53541-16.13899,21.76518-23.13388,4.60746-5.17388,6.86221-7.69722,7.76323-8.52301,26.40137-24.19164,49.76295-38.69134,73.52072-45.63172,11.81815-3.45282,23.17143-4.62389,33.74302-3.48008,3.99119.43134,11.7313,1.52972,18.72633,4.03862,8.84197,3.17168,14.01866,7.70363,15.38642,13.4708,4.21768,17.78308,3.0744,34.63829-3.30637,48.74407-6.93557,15.3319-19.7142,26.32213-36.95465,31.78197-12.12028,3.83819-25.43514,5.74739-40.2705,5.74739Zm-80.95457-21.29256c40.43753,10.99985,82.44794,19.78743,118.91165,8.23973,15.10835-4.78424,26.27282-14.34042,32.28666-27.63484,5.6759-12.54667,6.65509-27.69898,2.83214-43.81766-.97558-4.11345-8.75819-9.63529-27.48091-11.65994-9.56928-1.03638-19.92132.04757-30.77044,3.21711-22.5895,6.59937-44.989,20.5571-70.49282,43.92669-.65422.59917-3.99092,4.34595-7.21778,7.96928-4.37696,4.91465-9.8241,11.03138-14.40122,15.91504-1.39355,1.48696-2.60458,2.76012-3.66728,3.8446Z" stroke-width="0"/><path d="m353.11591,272.83971c-.47359.19185-.9551.36882-1.44517.52959-4.54361,1.4905-9.4288,1.4349-14.21011,1.36433-19.08513-.28169-38.17026-.56338-57.25539-.84508-8.39106-.12385-16.87628-.23841-25.06074,1.61626-15.31675,3.4709-28.17317,13.44414-41.47105,21.79976-19.96903,12.54739-36.21547,12.9008-58.88196,11.24318-4.22345-.30886-8.51779-.63302-12.47212-2.14836-3.57071-1.36833-6.7134-3.65222-10.16978-5.28799-8.66896-4.10269-19.29832-3.77716-27.69997.84835s-14.36129,13.433-15.53075,22.95221c-2.05852,16.75598,10.52049,32.61054,25.8894,39.59635,17.36103,7.89127,36.68096,6.66409,55.2316,5.96756,4.0186-.15089,8.09854-.31232,11.9209-1.56191,2.72475-.89076,5.24096-2.31049,7.73658-3.72102,16.83655-9.51609,34.16683-18.28876,50.86911-27.97836,14.96874-8.68391,29.18038-19.81271,46.483-23.40627,11.70679-2.43137,23.82207-1.13135,35.77248-1.51617,10.39258-.33465,21.14458-1.90334,30.93717,1.59281,3.66785,1.30949,7.22274,3.33166,11.11727,3.35433,2.70571.01575,5.31334-.94686,7.81747-1.97175,9.5359-3.90286,18.61796-8.91326,27.00519-14.89824,7.58044-5.40927,14.79258-11.87447,18.69124-20.33165,3.89866-8.45717,3.81111-19.27005-2.23869-26.34983-5.5936-6.54591-15.20741-8.63235-23.63363-6.86142-8.42621,1.77092-15.80684,6.84487-22.16488,12.65113-5.39958,4.93097-10.52289,10.64222-17.23718,13.3622Z" fill="#85492d" stroke-width="0"/><path d="m151.49536,374.8256c-12.98629,0-25.9854-1.24483-38.27244-6.8292-8.4248-3.82964-15.89793-10.02279-21.04255-17.43887-5.70918-8.22904-8.15194-17.25875-7.06411-26.11261,1.31792-10.72726,8.01792-20.62872,17.48564-25.84109,9.46772-5.21183,21.41763-5.57796,31.18654-.95514,1.57461.74508,3.04834,1.58958,4.47343,2.40575,1.86217,1.06685,3.62105,2.0749,5.42843,2.7676,3.46124,1.32607,7.48703,1.62005,11.38014,1.9044,20.76435,1.51849,36.97589,1.64196,56.56462-10.66579,2.49888-1.57034,5.04133-3.23742,7.50013-4.84945,10.85767-7.11837,22.08494-14.47939,35.16249-17.44315,8.67173-1.96479,17.46279-1.83651,25.96389-1.71037l57.25559.84503c4.41343.06521,8.97733.13202,12.95969-1.17374.39927-.13095.80361-.27954,1.20034-.43989l.00027-.00053c4.77903-1.93593,8.77689-5.73189,13.00954-9.75074,1.00297-.95246,2.04002-1.93753,3.08255-2.88946,8.16984-7.46044,16.00737-11.89993,23.96048-13.57129,10.5025-2.20692,21.23176.98079,27.33432,8.12161,6.54232,7.6566,7.66983,19.89059,2.80528,30.44306-4.68843,10.17031-13.62848,17.33892-19.94524,21.84629-8.62537,6.15521-17.97163,11.31146-27.77929,15.32549-2.67206,1.09304-5.80378,2.25716-9.20542,2.25716h-.08525c-3.62038-.02138-6.84257-1.34639-9.68553-2.51532-.93723-.38537-1.82248-.74989-2.69798-1.06204-7.15511-2.55434-15.00974-2.12247-23.3267-1.66548-2.02973.11171-4.12855.22716-6.19891.29344-3.80157.1224-7.63963.0791-11.35141.03474-8.28316-.09354-16.10772-.18654-23.76539,1.40358-12.55428,2.60725-23.82538,9.66415-34.72541,16.48801-3.45709,2.16469-7.03191,4.40261-10.61408,6.48072-9.31085,5.40158-18.94854,10.59149-28.26875,15.61037-7.4571,4.01564-15.16808,8.16757-22.63774,12.38953-2.62208,1.48215-5.33343,3.01454-8.43108,4.0274-4.36186,1.42602-8.93403,1.5976-12.96798,1.74886l-2.92087.11224c-5.21998.20364-10.49342.40889-15.76725.40889Zm-32.33597-72.75666c-4.46942,0-8.93991,1.08769-12.86202,3.24704-7.35074,4.04717-12.55268,11.73477-13.57583,20.06323-1.90065,15.47087,10.46976,29.64026,23.67212,35.641,15.6232,7.10126,33.38972,6.40749,50.57056,5.73991l2.93182-.11278c3.70363-.13897,7.53326-.28275,10.87411-1.37471,2.37261-.77608,4.64073-2.05779,7.04207-3.41487,7.53794-4.26044,15.28407-8.43161,22.77511-12.46542,9.26769-4.99055,18.85087-10.15107,28.05656-15.49172,3.47072-2.01343,6.98982-4.21661,10.3932-6.34763,11.47207-7.1825,23.33485-14.60927,37.23338-17.49553,8.47237-1.75955,17.0845-1.65853,25.41229-1.56339,3.6292.04222,7.38187.08552,11.01588-.031,1.98337-.06414,4.03795-.17692,6.02493-.28649,8.70888-.47837,17.7136-.97384,26.32373,2.10002,1.04587.37361,2.05753.78944,3.03578,1.19192,2.41016.99095,4.68669,1.92738,6.81584,1.93967h.04156c2.01129,0,4.21581-.83274,6.30246-1.68632,9.26061-3.79008,18.08601-8.65931,26.2306-14.47137,5.60589-4.00014,13.51249-10.30233,17.4374-18.81679,4.1991-9.10935,2.18594-17.74193-1.67202-22.25678-4.30854-5.04293-12.13284-7.2413-19.93281-5.60094-6.57612,1.38166-13.23897,5.21878-20.36936,11.7305-.98747.90169-1.99713,1.86057-2.97365,2.78791-4.56376,4.33313-9.28373,8.81484-15.40847,11.29595h0c-.55627.22556-1.12444.43401-1.68873.61894-5.20221,1.7061-10.65296,1.62753-15.46179,1.55484l-57.25546-.84503c-8.05212-.11866-16.37777-.24106-24.15744,1.52223-11.72742,2.65749-22.36622,9.63262-32.65466,16.37791-2.48926,1.63234-5.06324,3.31973-7.62466,4.92909-21.52025,13.52318-39.68644,13.39651-61.20001,11.82029-4.23999-.30947-9.04614-.66063-13.56354-2.39185-2.36058-.90436-4.46274-2.10857-6.49568-3.27376-1.35681-.77715-2.63839-1.51154-3.94188-2.12835-3.5378-1.67403-7.44427-2.5057-11.35141-2.5057Z" stroke-width="0"/><path d="m112.84814,317.05181c.86239,10.05002,7.61893,18.48,16.66983,22.65669,9.83481,4.53844,21.01173,4.68877,31.56775,3.23865,19.76026-2.71456,37.75997-12.05211,55.31625-20.98843,17.71365-9.01642,36.11698-18.49199,56.23469-20.31754,12.51368-1.13553,25.14908-.09167,37.69545-.66384,12.62636-.57581,25.22216-2.01156,37.66069-4.25491,22.2325-4.00974,53.57354-11.7146,55.46369-39.33177.28874-4.21879-6.28032-4.2009-6.56784,0-.66125,9.66153-7.55907,17.59328-15.58821,22.36306-9.47982,5.63158-20.71438,7.87633-31.41236,9.95319-11.66511,2.26462-23.46694,3.7577-35.32808,4.47756-11.90319.72242-23.78788.10596-35.69021.51364-19.43291.66561-37.22722,7.48028-54.50679,15.92769-16.64623,8.13779-32.86526,17.64778-50.74376,22.89894-10.14744,2.98044-21.24667,4.80158-31.79327,3.0968-10.24876-1.65664-21.43077-8.1581-22.41001-19.56973-.35866-4.17969-6.92976-4.21772-6.56784,0h0Z" stroke-width="0"/><path d="m227.6749,226.86965c-.26885-.01363-.53369-.0016-.79399.02833-.97652-.05372-1.97067.14217-2.87022.61386-2.16924,1.13767-3.33737,3.60755-2.70827,5.9946.56923,2.15962,2.58427,3.61236,4.69578,3.65085,1.74244.36051,3.60355-.23758,4.82753-1.58343,1.28465-1.4124,1.55484-3.33283.96583-5.02048-.32764-1.97228-1.95918-3.57548-4.11666-3.68372Z" fill="#fff" stroke-width="0"/><path d="m223.62987,223.37674c4.22516.20177,4.21474-6.3666,0-6.56784-3.81226-.18173-7.62426-.36372-11.43626-.54572-1.85843-.08873-3.16954,1.58076-3.28392,3.28392l-.9677,14.40483c-.28355,4.21928,6.28563,4.20191,6.56784,0,.24587-3.65833.49147-7.31693.73733-10.97526,2.79406.13336,5.58838.26671,8.38271.40007Z" fill="#fff" stroke-width="0"/><path d="m337.09638,210.60398c.1248-.8477.24961-1.69568.37428-2.54338.35103-2.38624-1.19846-4.32083-3.58524-4.10383-1.85656-1.07166-4.56576-.49761-6.29712.52247-4.58835,2.70293-4.8588,8.89689-1.01527,12.35425.85171.76619,1.89638,1.39235,2.99957,1.71412.13616.03982.50336.15554.85251.23598-.68669,1.97762-.11826,4.70059,1.06698,6.34014.92507,1.27984,2.338,2.03294,3.8152,2.0586,1.3381.32497,2.92501-.0449,3.84955-1.31779,2.95-4.06214,3.06184-9.18391.92855-13.61859-.4908-1.02035-1.78721-1.65987-2.98901-1.64196Z" fill="#fff" stroke-width="0"/><path d="m338.50397,185.49675c-.56001,2.26117-1.12003,4.52234-1.68018,6.78351-1.0162,4.10276,5.31592,5.85296,6.3332,1.74592.56015-2.26117,1.12016-4.52234,1.68018-6.78324,1.01634-4.10276-5.31579-5.85322-6.3332-1.74619Z" fill="#fff" stroke-width="0"/></svg>