<?xml version="1.0" encoding="UTF-8"?><svg id="Layer_1" xmlns="http://www.w3.org/2000/svg" xmlns:xlink="http://www.w3.org/1999/xlink" viewBox="0 0 128 128"><defs><style>.cls-1{clip-path:url(#clippath);}.cls-2{fill:none;}.cls-2,.cls-3,.cls-4,.cls-5,.cls-6,.cls-7,.cls-8,.cls-9,.cls-10,.cls-11,.cls-12,.cls-13,.cls-14,.cls-15,.cls-16,.cls-17,.cls-18,.cls-19,.cls-20,.cls-21,.cls-22,.cls-23,.cls-24,.cls-25,.cls-26,.cls-27,.cls-28,.cls-29,.cls-30,.cls-31,.cls-32,.cls-33,.cls-34,.cls-35,.cls-36,.cls-37,.cls-38,.cls-39,.cls-40,.cls-41,.cls-42,.cls-43,.cls-44,.cls-45,.cls-46,.cls-47,.cls-48{stroke-width:0px;}.cls-3{fill:#f3f3f3;}.cls-4{fill:#4a3e3f;}.cls-5{fill:#4eabfd;}.cls-6{fill:#339afd;}.cls-7{fill:#378cab;}.cls-8{fill:#56ccf5;}.cls-9{fill:#197ca6;}.cls-10{fill:#0c2b38;}.cls-11{fill:#0c2f3d;}.cls-12{fill:#360c1f;}.cls-13{fill:#46002b;}.cls-14{fill:#0f3f52;}.cls-15{fill:#18759d;}.cls-16{fill:#0a2732;}.cls-17{fill:#0b2b37;}.cls-18{fill:#0b232e;}.cls-19{fill:#0a2e3b;}.cls-20{fill:#135b7a;}.cls-21{fill:#1b2d36;}.cls-22{fill:#07090a;}.cls-23{fill:#080a0c;}.cls-24{fill:#146181;}.cls-25{fill:#146182;}.cls-26{fill:#092029;}.cls-27{fill:#215163;}.cls-28{fill:#209dd2;}.cls-29{fill:#209ace;}.cls-30{fill:#11485f;}.cls-31{fill:#156687;}.cls-32{fill:#156587;}.cls-33{fill:#156485;}.cls-34{fill:#156486;}.cls-35{fill:#df5aa3;}.cls-36{fill:#cd137d;}.cls-37{fill:#ce177f;}.cls-38{fill:#d0127f;}.cls-39{fill:#690040;}.cls-40{fill:#e5e9ec;}.cls-41{fill:#fafafa;}.cls-42{fill:#fbfbfb;}.cls-43{fill:#fefefe;}.cls-44{fill:#f5f5f5;}.cls-45{fill:#030303;}.cls-46{fill:#040404;}.cls-47{fill:#0042f1;}.cls-48{fill:#060a0b;}</style><clipPath id="clippath"><circle class="cls-2" cx="64" cy="64" r="63.5"/></clipPath></defs><circle class="cls-40" cx="64" cy="64" r="63.5"/><g id="BRETT"><g class="cls-1"><g id="QMtJep"><path class="cls-43" d="m137.16,136.88H-9.16V-9.44c48.77,0,97.55,0,146.32,0v146.32Z"/><path class="cls-47" d="m125.91,78.07c.22.17.04.37,0,.52-.25,1.12-.55,2.24-.89,3.34-1.84,6.09-4.5,11.78-8.04,17.07-2.2,3.27-4.68,6.31-7.42,9.14-4.74,4.88-10.15,8.83-16.16,12.01-3.49,1.84-7.12,3.3-10.9,4.42-2.23.66-4.5,1.13-6.79,1.49-3.05.48-6.11.83-9.19,1.09-2.24.19-4.48.13-6.72,0-2.01-.12-4.01-.36-6-.68-3.42-.55-6.77-1.37-10.05-2.48-4.82-1.63-9.39-3.79-13.68-6.52-3.81-2.42-7.31-5.23-10.55-8.38-5.93-5.77-10.49-12.49-13.82-20.05-1.85-4.18-3.16-8.54-4.05-13.03-.92-4.62-1.27-9.29-1.16-14,.18-7.79,1.76-15.29,4.72-22.5,2.6-6.35,6.17-12.1,10.64-17.31,4.9-5.7,10.64-10.37,17.18-14.06,4.85-2.74,9.98-4.75,15.37-6.12,2.63-.67,5.29-1.17,7.98-1.49,2.08-.25,4.17-.41,6.27-.42,1.82,0,3.64-.03,5.46.09,2.58.17,5.14.49,7.68.95,4.03.74,7.96,1.86,11.76,3.39,6.4,2.56,12.24,6.05,17.5,10.51,3.12,2.65,6,5.53,8.55,8.72,2.52,3.15,4.73,6.51,6.65,10.07,2.41,4.47,4.18,9.18,5.44,14.08.54,2.11.95,4.24,1.3,6.39,0,.03,0,.06.01.1q.07.6-.52.6c-4.14,0-8.29,0-12.43,0-.19,0-.39.01-.58.02-.25-.15-.21-.42-.27-.64-.08-.3-.1-.61-.23-.89-.31-.84-.46-1.72-.71-2.58-.95-3.36-2.23-6.57-3.83-9.68-1.64-3.19-3.63-6.15-5.93-8.9-2.9-3.47-6.18-6.52-9.92-9.08-1.76-1.21-3.55-2.35-5.46-3.29-3-1.49-6.09-2.77-9.33-3.65-2.35-.64-4.73-1.19-7.15-1.49-1.38-.17-2.77-.39-4.17-.35-.58.02-1.16-.11-1.75-.1-2.8.01-5.57.25-8.34.64-3.84.55-7.52,1.66-11.1,3.09-4.59,1.83-8.79,4.34-12.61,7.47-1.43,1.17-2.89,2.33-4.16,3.68-2.97,3.14-5.59,6.53-7.75,10.29-1.93,3.37-3.42,6.93-4.55,10.64-.9,2.97-1.47,6.02-1.79,9.12-.29,2.81-.24,5.62-.14,8.42.09,2.38.44,4.75.99,7.08.69,2.96,1.59,5.87,2.74,8.68,1.95,4.75,4.59,9.1,7.9,13.03,1.26,1.49,2.56,2.94,3.99,4.26,2.88,2.67,6.01,5,9.42,6.97,2.83,1.63,5.79,2.94,8.87,3.99,2.04.7,4.13,1.23,6.25,1.67,2.31.48,4.64.8,6.99.9,2.01.09,4.02.1,6.04-.04,2.03-.14,4.04-.41,6.03-.79,3.56-.66,7-1.74,10.32-3.17,2.81-1.21,5.5-2.65,8.04-4.36,2.35-1.59,4.54-3.35,6.61-5.29,2.83-2.67,5.29-5.63,7.41-8.88,2.2-3.37,4-6.95,5.33-10.76.3-.86.61-1.72.84-2.6.08-.3.19-.52.57-.37.11.04.26,0,.39,0,4.11,0,8.22,0,12.33,0,.18,0,.36-.03.53.02Z"/><path class="cls-8" d="m125.91,78.07c-.15,0-.29.03-.44.03-4.19,0-8.38,0-12.57,0-.19,0-.43-.1-.56.02-.12.12-.13.36-.18.54-1.01,3.28-2.29,6.45-3.93,9.47-1.38,2.53-2.93,4.95-4.7,7.21-.94,1.2-1.95,2.34-2.99,3.47-.76.83-1.57,1.6-2.39,2.36-2.44,2.27-5.1,4.26-7.95,6-3.46,2.12-7.15,3.76-11.01,5-2.21.71-4.46,1.25-6.75,1.62-1.36.22-2.73.38-4.09.54-.63.07-1.26.1-1.89.11-1.27.02-2.53.02-3.8.02-1.32,0-2.62-.16-3.93-.27-1.23-.11-2.45-.3-3.65-.53-1.17-.23-2.35-.44-3.5-.81-.51-.17-1.06-.22-1.55-.39-.66-.23-1.33-.4-1.98-.65-1.42-.55-2.85-1.08-4.26-1.66-.77-.32-1.5-.74-2.26-1.11-1.86-.9-3.6-1.99-5.33-3.11-1.21-.79-2.35-1.68-3.48-2.58-1.76-1.4-3.39-2.93-4.93-4.56-1.07-1.13-2.07-2.33-3.04-3.55-2.33-2.96-4.28-6.15-5.89-9.55-1.17-2.47-2.06-5.04-2.85-7.65-.42-1.4-.74-2.82-1.05-4.24-.38-1.71-.52-3.46-.71-5.2-.23-2.1-.12-4.22-.12-6.33,0-1.97.25-3.91.56-5.85.21-1.36.48-2.71.81-4.05.53-2.16,1.22-4.27,2.03-6.34.62-1.58,1.3-3.15,2.09-4.66,1.62-3.09,3.49-6.01,5.7-8.7,1.26-1.53,2.53-3.06,3.99-4.39,1.65-1.51,3.36-2.96,5.16-4.28,2.39-1.76,4.9-3.3,7.56-4.6,2.53-1.23,5.13-2.27,7.83-3.04,1.53-.44,3.05-.86,4.61-1.2.95-.2,1.92-.28,2.88-.44,1.51-.24,3.03-.27,4.55-.41,1.19-.1,2.37-.09,3.55-.06,1.5.05,3.01.16,4.5.33,3.49.41,6.89,1.21,10.22,2.29,1.54.5,3.05,1.11,4.52,1.78.81.37,1.64.7,2.42,1.13,1.2.66,2.45,1.26,3.58,2.03,1.35.92,2.71,1.84,4.02,2.82,1.51,1.13,2.93,2.36,4.28,3.67,1.39,1.36,2.7,2.8,3.93,4.31,1.56,1.91,3,3.92,4.25,6.05,1.56,2.66,2.88,5.43,3.96,8.32.76,2.04,1.35,4.13,1.87,6.24.02.06.04.12.06.18.23,1,.4,2.01.59,3.01.23,1.47.39,2.95.51,4.43.16,2.02.15,4.05.05,6.07-.15,3.24-.6,6.44-1.44,9.58-.11.22-.09.48-.18.71-.04.19.04.4-.1.57-.03-.02-.05-.04-.06-.05,0,.05.01.09.04.13.06.13.17.13.29.13.26,0,.52,0,.78,0,3.94,0,7.89,0,11.83,0,.17,0,.36-.05.52.04Z"/><path class="cls-8" d="m113.66,56.45c-.13-.09-.1-.23-.13-.35-.16-.8-.31-1.61-.46-2.42-.01-.08,0-.16,0-.24.21.31.19.69.28,1.03.05.18.09.37.13.55.08.47.24.94.18,1.43Z"/><path class="cls-5" d="m112.61,77.25c-.02-.26-.05-.51.18-.71.04.26.01.5-.18.71Z"/><path class="cls-6" d="m112.48,77.9c-.1-.08-.1-.17-.06-.29.12.03.04.14.08.2,0,.03,0,.06-.02.08Z"/><path class="cls-22" d="m93.99,67.08c-.09.84-.51,1.52-1.05,2.14-.15.17-.25.33-.21.56.15.88.09,1.74-.13,2.63.72,0,1.35.29,1.91.66.73.48,1.35,1.08,1.34,2.07,0,.21.02.42.02.63,0,.25-.13.44-.27.65-.66.98-1.67,1.39-2.72,1.75-.59.21-1.16.47-1.84.43.02.25.13.39.23.53.41.65.57,1.35.61,2.12.04.98-.18,1.9-.44,2.82-.09.32-.27.62-.43.91-.64,1.19-1.56,2.1-2.72,2.77-.63.36-1.22.77-1.93.97-.14.04-.2.16-.25.28-1.1,2.57-2.82,4.68-4.9,6.51-.31.28-.58.61-.96.81-.24,0-.35.15-.41.36-.11.06-.23.17-.34.17-.46.02-.79.32-1.17.52-.77.41-1.55.81-2.39,1.07-.91.28-1.82.58-2.74.85-1.16.34-2.35.49-3.54.61-1.74.18-3.49.34-5.24.46-2.3.15-4.61.2-6.91-.08-.69-.08-1.38-.14-2.07-.25-1.08-.19-2.14-.46-3.19-.77-1.13-.34-2.25-.75-3.32-1.25-1.27-.6-2.49-1.31-3.65-2.11-1.64-1.12-3.1-2.46-4.46-3.9-.64-.67-1.2-1.4-1.78-2.13-.74-.93-1.38-1.92-2.02-2.92-.34-.54-.61-1.12-.93-1.67-.45-.79-.79-1.63-1.16-2.45-.46-1-.82-2.03-1.13-3.09-.26-.9-.47-1.82-.68-2.73-.16-.68-.18-1.38-.28-2.07-.26-1.74-.14-3.5-.06-5.24.04-.87.18-1.74.33-2.6.17-1.01.28-2.02.52-3.02.25-1.04.5-2.08.74-3.12.16-.68.31-1.36.47-2.04.24-1.06.49-2.12.71-3.18.3-1.48.58-2.96.55-4.48,0-.29-.05-.55-.26-.76-.81-.85-1.41-1.85-1.97-2.87-.82-1.49-1.38-3.07-1.77-4.71-.45-1.87-.53-3.76-.15-5.65.24-1.2.68-2.32,1.2-3.42.97-2.06,2.47-3.64,4.31-4.93.77-.54,1.64-.89,2.51-1.27.8-.34,1.63-.54,2.46-.71.93-.19,1.88-.14,2.82-.11,1.32.04,2.57.39,3.73.99.92.47,1.78,1.04,2.51,1.8.28.29.68.48.93.83.45.62.86,1.26,1.18,1.95.06.13.12.25.2.37.51.8.87,1.66,1.12,2.58.17.62.39,1.23.51,1.87.34,1.83.53,3.66.33,5.52-.07.65-.18,1.29-.32,1.92-.04.19-.11.37-.01.58.26-.04.51-.07.75-.19.19-.09.4-.13.61-.18,1.6-.35,3.21-.66,4.83-.89,1.44-.21,2.9-.36,4.35-.54.96-.12,1.93-.21,2.89-.37.84-.14,1.68-.17,2.52-.22.35-.02.35-.02.39-.38.03-.19.05-.39.11-.57.43-1.32.97-2.6,1.69-3.8.46-.78.96-1.53,1.49-2.26.2-.27.45-.51.68-.76.6-.45,1.03-1.07,1.58-1.56,1.33-1.18,2.84-2.06,4.57-2.48,1.03-.25,2.1-.35,3.18-.27,1.01.07,1.93.36,2.83.77,2.22,1.03,3.36,2.87,3.84,5.18.25,1.19.24,2.4-.02,3.58-.22.99-.58,1.94-1.15,2.81-.25.38-.44.81-.67,1.21-.32.57-.57,1.15-.82,1.75-.31.74-.43,1.53-.5,2.32-.03.28.03.56.22.78.29.35.44.79.73,1.13.1.12.16.28.18.45.05.33.26.53.56.61.29.08.52.24.73.46.14.14.29.27.44.38.89.66,1.38,1.57,1.73,2.59.16.47.17.96.14,1.44-.02.41.12.69.45.95,1.3,1,2.21,2.29,2.55,3.91.27,1.28.09,2.5-.61,3.64-.34.56-.68,1.1-1.15,1.55-.25.22-.5.45-.56.8Z"/><path class="cls-21" d="m77.3,33.53c-.37.55-.84,1.02-1.31,1.48-.08.07-.17.1-.27.08.45-.6.96-1.14,1.58-1.56Z"/><path class="cls-7" d="m93.99,67.08c-.07-.45.26-.62.56-.8-.19.27-.37.54-.56.8Z"/><path class="cls-27" d="m79.83,96.7c-.04-.08-.23-.14-.06-.25.14-.09.25-.34.47-.12,0,0,0-.01,0-.01-.05.04-.09.09-.1.15-.07.11-.17.2-.3.23Z"/><path class="cls-22" d="m80.13,96.47c.03-.06.04-.12.1-.15,0,.08-.06.11-.1.15Z"/><path class="cls-29" d="m74.39,57.63c-.3.36-.56.75-.78,1.17-.65,1.22-.7,2.47-.32,3.77.6,2.09,2.03,3.5,3.81,4.61.88.55,1.83.94,2.81,1.3,1.68.61,3.4.93,5.19.94,1.93,0,3.82-.23,5.65-.86.49-.17.95-.42,1.42-.63.31-.14.63-.23.99-.47-.02.63-.17,1.11-.6,1.44-.66.52-1.36.99-2.21,1.17-.26.05-.46.21-.71.28-1.41.39-2.85.58-4.32.6-1.28.02-2.57,0-3.84-.16-.79-.1-1.57-.25-2.34-.44-.58-.14-1.19-.18-1.76-.35-.14-.04-.28-.07-.42-.1-.05,0-.08-.05-.12-.06-.02-.02-.05-.03-.09-.03-.11-.07-.24-.03-.36-.04-.06,0-.12-.03-.18-.05-.04-.01-.08-.03-.11-.04-.04-.01-.08-.05-.12-.02.02.02.04.03.07.04.05.02.1.03.14.05.07.03.12.09.17.15.06.01.11.02.17.03.07.04.15.03.21.07,1.09.4,2.2.79,3.34,1,1.93.35,3.88.53,5.85.44,1.3-.06,2.58-.2,3.84-.54.41-.11.8-.27,1.19-.41.28-.12.46-.04.55.27.1.34.2.68.19,1.04-.02.55-.09.63-.65.69-.13.01-.26-.02-.38.04-1.02.24-2.05.49-3.07.72-.36.08-.74.13-1.11.14-1.31.04-2.62.16-3.94.13-1.44-.03-2.89,0-4.34-.03-1.82-.02-3.64-.05-5.45-.1-1.35-.04-2.69-.18-4.04-.16-1.56.03-3.11-.13-4.66-.25-1.07-.08-2.13-.17-3.21-.19-1.02-.02-2.04-.12-3.06-.2-1.1-.09-2.2-.12-3.31-.19-2-.11-3.99-.05-5.99-.08-1.23-.02-2.41.3-3.6.53-.79.15-1.53.41-2.23.78-.71.38-1.28.89-1.62,1.66-.4.92-.32,1.81-.11,2.76.22.99.69,1.85,1.19,2.69,1.23,2.08,3.14,4.24,5.54,5.65,1.21.72,2.46,1.34,3.76,1.88,1,.42,2.02.8,3.06,1.07.79.21,1.59.44,2.4.6,1.1.21,2.21.36,3.31.54,1.19.19,2.39.26,3.58.36,2.93.24,5.87.15,8.81.08,1.16-.03,2.34-.03,3.49-.19.38-.05.77-.1,1.15-.17.43-.08.87-.09,1.3-.12,1.23-.09,2.44-.34,3.65-.56.38-.06.77-.08,1.14-.2.12-.04.26-.1.35.04.07.11.02.22-.03.32-.54,1.02-1.11,2.02-1.86,2.9-1.61,1.89-3.44,3.53-5.63,4.73-.72.19-1.4.52-2.11.74-1.07.33-2.17.53-3.26.77-1.71.37-3.45.3-5.17.45-2.33.2-4.67.12-7,.06-.92-.02-1.84-.16-2.74-.33-.44-.08-.89-.16-1.34-.22-.28-.03-.54-.12-.79-.23-1.23-.71-2.29-1.64-3.37-2.55-1.22-1.02-2.41-2.08-3.47-3.27-1.16-1.29-2.28-2.61-3.3-4.03-1.5-2.09-2.59-4.37-3.65-6.7-1.56-3.44-2.43-7.05-2.98-10.76-.27-1.82-.21-3.66-.23-5.49-.05-3.25.6-6.39,1.52-9.48.48-1.62,1.06-3.21,1.68-4.78.24-.6.34-1.21.32-1.85.06-.08.16-.11.25-.13,3.08-.68,5.87-2.03,8.56-3.63.28-.17.56-.33.84-.49.16-.1.32-.18.47-.29-.02-.09-.06,0-.08-.01-.03.02-.07.03-.1.04-.05.03-.1.06-.15.09-.03.03-.06.06-.09.08-.02.01-.03.03-.05.04-.05.04-.11.08-.18.1-1.27.61-2.5,1.31-3.8,1.89-1.69.75-3.37,1.53-5.21,1.87-.74.14-1.49.18-2.2-.13-.91-.39-1.41-1.25-1.27-2.23.16-1.12.66-2.1,1.42-2.94,1.11-1.23,2.49-2.11,3.96-2.87,1.14-.59,2.35-1.01,3.53-1.52,1.17-.51,2.39-.92,3.5-1.57.68-.4.8-.76.37-1.43-.5-.78-1.05-1.52-1.78-2.11-.21-.17-.43-.35-.53-.62-.03-.17.03-.32.1-.47.63-1.4,1-2.86.92-4.41-.01-.23-.11-.54.25-.64.28.05.53.16.75.34.98.78,1.93,1.6,2.62,2.66.54.83,1.06,1.68,1.42,2.6.77,1.97,1.3,3.98,1.37,6.12.05,1.59.03,3.18-.12,4.76-.02.24-.11.38-.34.46-.41.14-.82.3-1.23.45-.09.03-.17.08-.25.13-.09.05-.25.09-.18.22.06.12.21.1.33.02h0c.06-.05.15-.04.21-.09.89-.22,1.79-.44,2.68-.68.91-.24,1.82-.47,2.74-.63.88-.15,1.76-.25,2.64-.37.32-.05.64-.12.96-.16,1.46-.18,2.91-.46,4.38-.6,1.13-.11,2.25-.27,3.38-.36,1.63-.13,3.27-.15,4.91-.12,1.55.03,3.07.23,4.56.63,1.38.37,2.72.86,3.95,1.56,1.22.7,2.39,1.49,3.33,2.57.11.13.3.13.38.29.1.32-.16.3-.33.32-.4.03-.81.01-1.22.01-1.83.02-3.56.43-5.24,1.15-1.05.45-2.05.97-3.03,1.55-.55.33-1.04.72-1.49,1.17h0s-.07.05-.11.08c-.06.03-.13.07-.19.1-.12.16-.28.27-.46.36-.06.02-.12.05-.22.09.16-.03.27-.08.37-.13.13-.08.29-.08.43-.11.35-.09.68-.22.99-.38.45-.23.91-.41,1.4-.54.25-.07.46-.23.7-.31,1.07-.38,2.14-.76,3.25-.96,1.52-.28,3.05-.33,4.58-.05,1.09.2,2.15.54,3.09,1.09,1.32.77,2.36,1.85,2.83,3.38.06.09.04.19.04.28,0,.35-.08.41-.39.24-.36-.19-.65-.48-.97-.73-.98-.78-1.98-1.53-3.16-1.99-.85-.33-1.74-.52-2.64-.67-.57-.1-1.13.05-1.69.14-2.1.33-4.01,1.16-5.82,2.26-.44.27-.93.47-1.35.77-.47.22-.92.47-1.28.84-.42.37-.76.8-1.15,1.2Z"/><path class="cls-36" d="m45.51,78.09c-.35.52-.37,1.13-.26,1.69.08.42.27.84.52,1.23.32.5.75.9,1.1,1.35.35.44.81.75,1.31,1,.34.16.63.4.95.57,1.43.75,2.91,1.36,4.46,1.79.41.11.8.28,1.21.37,1.25.29,2.5.56,3.75.83.25.05.52.05.77.09,1.55.26,3.11.38,4.67.57,1.94.24,3.89.26,5.83.25,1.33,0,2.66.04,3.99-.04,1.73-.11,3.46-.28,5.17-.56,1.25-.2,2.49-.45,3.7-.83.48-.15.96-.31,1.42-.5,1.19-.49,2.24-1.16,3.09-2.17,1.11-1.3.94-3.58-.11-4.66-.04-.04-.11-.08-.07-.19.45-.02.91-.05,1.38-.07.55-.03,1.1-.03,1.65-.07.3-.02.49.11.65.34.48.71.68,1.5.72,2.34.02.45.08.93-.09,1.35-.14.34-.27.69-.4,1.04-.57,1.5-1.63,2.6-2.93,3.47-.64.43-1.37.71-2.1.99-1.4.54-2.84.91-4.33,1.06-.45.05-.87.26-1.33.29-.86.07-1.71.17-2.56.28-1.14.16-2.3.17-3.44.32-1.05.14-2.1.1-3.15.2-.23.02-.45.04-.68.04-2,.02-4,.03-5.99-.1-.91-.06-1.81-.16-2.71-.24-1.52-.14-3.01-.45-4.51-.7-1.56-.26-3.07-.67-4.54-1.26-1.15-.46-2.36-.81-3.41-1.48-.95-.61-2.03-.99-2.87-1.78-.64-.6-1.33-1.15-1.91-1.81-.87-.99-1.6-2.08-2.19-3.26-.32-.64-.63-1.28-.78-1.99-.13-.61-.16-1.22-.03-1.83.09-.41.29-.74.63-1,.34-.27.65-.58,1.04-.79.67-.37,1.4-.49,2.12-.67,1.1-.27,2.23-.36,3.36-.45,1.49-.11,2.99-.07,4.48-.02.42.01.84.05,1.26.07.94.04,1.88.05,2.82.11,1.29.08,2.58.2,3.88.3.21.02.42.03.63.04,1.01.05,2.01.05,3.01.15,1.16.11,2.33.11,3.5.17,4.97.22,9.94.18,14.9.23,1.51.01,3.02.03,4.52-.22.85-.14,1.69-.32,2.49-.64.28-.11.56-.16.85-.16.66-.01,1.33-.07,1.99.02,1.05.14,1.87.67,2.29,1.64.32.74.09,1.29-.69,1.94-.62.52-1.39.75-2.14,1.02-1.17.42-2.4.56-3.63.57-.89.01-1.79.02-2.68,0-1.75-.06-3.5-.2-5.24-.36-.94-.09-1.88-.14-2.82-.22-1.73-.15-3.46-.33-5.19-.46-1.39-.11-2.78-.24-4.18-.3-1.07-.05-2.13-.21-3.2-.26-.89-.04-1.78-.17-2.67-.23-3.6-.25-7.2-.4-10.81-.34-1.33.02-2.66.16-3.96.43-.58.12-1.16.32-1.65.68-.39.19-.64.53-.9.86Z"/><path class="cls-24" d="m48.96,28.65c-.19.17-.11.4-.1.6.06,1.28-.17,2.51-.6,3.7-.09.26-.19.52-.32.76-.09.16-.17.31-.15.5-.23.1-.36-.09-.51-.19-.95-.68-2-1.14-3.13-1.43-2.19-.56-4.58.38-5.72,2.1-.77,1.15-1.18,2.46-1.37,3.86-.2,1.51.12,2.89.72,4.25.13.29.34.51.52.76.21.27.22.53-.03.78-.5.49-.75,1.14-1.04,1.75-.31.63-.34,1.33-.2,2,.2,1.05,1.18,1.76,2.37,1.8.3.01.62-.11.88.15.17.4.13.8-.01,1.19-.36,1.02-.76,2.03-1.11,3.06-.5,1.47-1.01,2.94-1.36,4.46-.31,1.34-.56,2.68-.76,4.05-.22,1.5-.18,3.01-.19,4.51,0,.58-.02,1.17.01,1.75.07,1.16.17,2.32.36,3.47.25,1.58.6,3.14,1.01,4.69.4,1.52.88,3.03,1.52,4.46.67,1.49,1.31,3,2.1,4.44.6,1.09,1.32,2.1,2.02,3.13.59.86,1.27,1.64,1.94,2.42.5.58.95,1.19,1.52,1.71.53.49.99,1.06,1.57,1.51.43.34.81.75,1.22,1.11,1.04.9,2.13,1.74,3.23,2.57.14.11.29.21.39.36-.45-.05-.89-.13-1.29-.35-.01-.04.16-.06.03-.09-.09-.02-.22-.27-.32,0-.48-.14-.97-.27-1.45-.41-.1-.03-.17-.1-.22-.18-.38-.25-.76-.53-1.25-.5-.14,0-.23-.07-.3-.19-.24-.36-.67-.41-1.02-.6-.47-.26-.89-.62-1.43-.75-.64-.29-1.19-.72-1.73-1.14-1.56-1.22-3-2.58-4.3-4.09-.83-.97-1.61-1.99-2.31-3.07-.53-.83-1.04-1.67-1.51-2.53-1.05-1.93-1.81-3.96-2.43-6.07-.36-1.22-.52-2.46-.74-3.7-.08-.44-.13-.9-.13-1.35,0-1.23,0-2.47,0-3.7,0-1.06.15-2.1.33-3.14.12-.65.12-1.33.31-1.96.23-.76.35-1.54.53-2.31.38-1.67.72-3.35,1.08-5.03.18-.84.38-1.67.51-2.52.17-1.16.28-2.31.26-3.48,0-.19-.03-.39.05-.64.28.27.54.53.81.77.27.24.57.43.9.57.12.05.24.11.36.05.04-.02-.04-.1-.06-.16-1.29-1.01-2.34-2.24-3.3-3.55-.17-.23-.3-.5-.43-.75-.56-1.06-1.15-2.1-1.5-3.26-.34-1.13-.71-2.25-.87-3.43-.13-.95-.26-1.9-.04-2.85.11-.46.17-.92.26-1.37.42-2.04,1.3-3.86,2.7-5.41.23-.25.41-.54.66-.78,1.18-1.16,2.55-2.05,4.06-2.7.81-.35,1.68-.57,2.58-.67.59-.07,1.19-.16,1.79-.17,1.57-.02,3.04.37,4.46,1.02.09.04.18.08.19.2Z"/><path class="cls-42" d="m85.04,68.8c-.52,0-1.04.02-1.56,0-.39-.02-.77-.05-1.14-.21-.28-.12-.59-.2-.89-.23-.89-.09-1.69-.45-2.49-.77-1.38-.56-2.62-1.34-3.63-2.46-.71-.78-1.34-1.62-1.57-2.69-.27-1.22-.21-2.39.45-3.51.76-1.29,1.8-2.22,3.13-2.87.39-.19.77-.39,1.17-.55.99-.42,2.04-.63,3.09-.8,1.62-.25,3.23-.2,4.85.03,1.11.15,2.19.43,3.24.82.88.33,1.79.64,2.55,1.21.52.38,1.01.81,1.51,1.21,1.16.93,1.79,2.12,2.03,3.53.16.94.02,1.85-.43,2.7-.45.85-1.09,1.56-1.83,2.17-1.46,1.2-3.18,1.79-5,2.17-1.15.24-2.32.3-3.49.25Z"/><path class="cls-39" d="m87.36,82.2c-.03.42-.25.79-.5,1.08-.4.46-.82.9-1.37,1.22-.86.5-1.76.89-2.69,1.21-1.05.37-2.12.7-3.25.77-.11,0-.22.03-.33.06-.57.15-1.14.27-1.73.23-.08,0-.17-.01-.24.02-.62.28-1.3.2-1.95.28-2.17.29-4.34.18-6.51.16-1.52-.01-3.04-.08-4.56-.25-.48-.05-.97-.08-1.45-.15-.49-.07-.98-.15-1.48-.19-.71-.06-1.41-.17-2.11-.29-1.16-.2-2.32-.41-3.47-.66-.58-.12-1.19-.14-1.69-.54-.05-.04-.12-.03-.19-.04-1.01-.14-1.92-.57-2.85-.94-1.08-.43-2.08-1.03-3.03-1.7-.64-.45-1.18-1.02-1.66-1.63-.05-.06-.06-.15-.1-.22.29-.62.89-.8,1.44-1.03,2.13-.9,4.17-.43,6.16.49,1.86.86,3.69,1.76,5.6,2.5,3.09,1.2,6.25,2.12,9.56,2.35,1.7.12,3.41.12,5.1-.14.26-.04.53-.11.79-.18.27-.13.56-.12.84-.2.69-.18,1.34-.42,1.89-.9.29-.25.64-.4.91-.7.35-.4.54-.86.75-1.33.13-.24.31-.4.59-.44,2.44-.38,4.83-.31,7.15.62.23.09.48.18.35.51Z"/><path class="cls-28" d="m88.62,32.67c.57.5,1.11,1.05,1.57,1.65.63.8.9,1.75,1.05,2.74.32,2.08-.16,3.99-1.24,5.77-.21.35-.41.7-.64,1.04-.82,1.24-1.32,2.59-1.48,4.08-.23.05-.33-.13-.44-.24-.44-.46-.93-.86-1.42-1.26-1.05-.85-2.22-1.5-3.45-2.06-1.34-.62-2.76-.94-4.19-1.2-.31-.15-.65-.18-.99-.24-.48-.07-.57-.19-.42-.7.55-1.88,1.29-3.67,2.57-5.2,1.82-2.17,4.04-3.74,6.83-4.4.73-.17,1.5-.27,2.25.02Z"/><path class="cls-37" d="m53.39,76.76c.12-.08.27-.04.41-.04,1.38,0,2.76,0,4.14.03,1.15.03,2.3.12,3.45.17,1.69.07,3.36.26,5.05.34,1.86.09,3.72.3,5.58.4,1.02.06,2.03.22,3.05.26.74.03,1.49.12,2.23.18.33.02.59.18.81.4.91.93,1.16,2.27.37,3.46-.41.62-.93,1.04-1.54,1.43-.97.62-2.06.75-3.15.81-.92.06-1.86.08-2.77-.06-1.26-.2-2.55-.3-3.77-.72-.27-.09-.57-.13-.85-.19-1.21-.26-2.36-.7-3.51-1.14-.83-.32-1.67-.62-2.49-.96-.79-.33-1.57-.68-2.3-1.14-.26-.16-.55-.25-.82-.4-1.35-.78-2.6-1.69-3.82-2.66-.05-.04-.1-.08-.07-.18Z"/><path class="cls-31" d="m88.62,32.67c-1.31-.14-2.57.06-3.78.58-1.12.48-2.17,1.07-3.12,1.84-1.75,1.42-3.14,3.11-3.94,5.25-.26.68-.53,1.35-.71,2.06-.09.35-.07.39.28.47.25.06.51.1.76.14.12.02.21.08.27.18-.42-.01-.82-.15-1.24-.2-1.41-.15-2.82-.18-4.23-.18-.08,0-.16,0-.24,0-.33-.01-.33-.02-.28-.33.14-.82.49-1.58.83-2.33.62-1.36,1.38-2.65,2.35-3.8.93-1.11,1.91-2.16,3.09-3.02.25-.18.51-.34.79-.47.24-.11.47-.22.65-.42.09-.09.21-.16.33-.2,1.13-.41,2.25-.86,3.49-.76.27.02.55-.01.82-.05.35-.05.7,0,1.06.08.78.18,1.51.46,2.18.88.1.06.21.08.32.08.14,0,.25.07.31.2Z"/><path class="cls-13" d="m74.87,84.62c-.44.25-.94.32-1.43.39-1.47.21-2.95.16-4.42.07-1.6-.1-3.2-.35-4.76-.78-1.06-.3-2.12-.58-3.16-.94-1.52-.54-3.02-1.15-4.49-1.81-1.15-.52-2.25-1.15-3.44-1.58-.74-.27-1.47-.63-2.27-.67-.77-.04-1.55-.18-2.3.16-.07.03-.15.07-.23.08-.84.14-1.54.55-2.17,1.1-.22-.27-.35-.59-.44-.91-.2-.7.25-1.61.99-1.98.41-.21.81-.46,1.3-.48.28-.02.56-.14.82-.27.29-.14.63-.09.95-.14.75-.11,1.51-.14,2.27-.13.33,0,.58.11.83.33.9.81,1.86,1.55,2.89,2.21.59.37,1.17.75,1.78,1.07,1.15.61,2.32,1.19,3.54,1.66.73.28,1.44.59,2.17.85,1.11.4,2.24.71,3.38,1.01.46.12.93.23,1.4.34.7.15,1.4.24,2.09.36,1.16.2,2.32.17,3.48.18.41,0,.8-.16,1.21-.1Z"/><path class="cls-13" d="m87.36,82.2c0-.15-.04-.26-.22-.32-.98-.38-1.99-.65-3.04-.77-1.07-.13-2.14-.05-3.2-.08-.44-.01-.85.2-1.28.23-.12.01-.23.17-.35.25.12-.36.08-.74.1-1.11.02-.4-.08-.76-.23-1.13-.15-.34-.45-.59-.6-.98.39,0,.74-.03,1.09,0,.83.08,1.66.21,2.5.26.82.06,1.64.17,2.47.12.36-.02.71,0,1.07,0,.46,0,.77.17,1.06.55.66.86.8,1.82.71,2.85,0,.04-.05.08-.07.12Z"/><path class="cls-32" d="m76.82,55.58c.15-.27.44-.38.68-.52.82-.46,1.61-.95,2.46-1.36,1.21-.58,2.46-.98,3.77-1.23.52-.1,1.05-.19,1.58-.2.45,0,.9.07,1.33.22.3.1.62.16.94.23,1.03.23,1.91.77,2.78,1.35.65.43,1.24.94,1.84,1.43.16.13.32.28.56.31.08-.18,0-.36.05-.53.2.37.22.77.19,1.17-.14.08-.23-.02-.31-.08-.55-.37-1.12-.71-1.74-.96-.31-.12-.54-.42-.89-.48-.29-.05-.56-.13-.84-.22-1.18-.4-2.41-.59-3.65-.71-.68-.07-1.36-.1-2.04-.08-1.77.05-3.51.3-5.17.97-.52.21-1.02.46-1.54.69Z"/><path class="cls-33" d="m76.15,52.66c-.02-.19.13-.29.23-.4.39-.43.9-.68,1.38-.98,1.34-.84,2.77-1.47,4.25-1.99.82-.28,1.68-.43,2.55-.55.83-.11,1.65-.05,2.47-.08.16,0,.38.08.42-.2.59.53,1.04,1.19,1.54,1.8.03.04.06.08.07.12.09.23,0,.35-.24.3-.25-.05-.5-.12-.75-.2-1.43-.45-2.88-.54-4.37-.4-1.9.17-3.66.77-5.37,1.57-.73.34-1.46.68-2.2,1.01Z"/><path class="cls-34" d="m76.13,97.68c.1-.18.27-.27.44-.37.91-.53,1.73-1.18,2.54-1.86.69-.57,1.31-1.2,1.93-1.85.81-.84,1.49-1.79,2.05-2.82.18-.34.41-.65.55-1.08-.52.05-.98.25-1.46.17.42-.17.88-.21,1.31-.31.67-.16,1.35-.31,2.07-.48-.06.49-.25.89-.51,1.25-1.38,1.94-2.91,3.73-4.89,5.1-.55.38-1.05.83-1.68,1.08-.1.07-.22.1-.3.18-.67.35-1.33.72-2.04.98Z"/><path class="cls-25" d="m90.66,72.53c.21-.13.46-.11.69-.18.13-.04.17-.11.19-.23.07-.52-.07-1.02-.21-1.51-.05-.19-.25-.08-.38-.12.41-.25.9-.34,1.35-.76,0,.43.02.73.02,1.03,0,.47.04.94-.08,1.4-.04.16-.09.29-.27.29-.44,0-.86.17-1.3.1Z"/><path class="cls-15" d="m46.49,95.86c.08-.14.19-.08.29-.03.28.15.56.31.84.47.39.22.79.42,1.2.6.12.05.31.11.13.3-.13,0-.26-.04-.37-.11-.69-.41-1.46-.7-2.08-1.24Z"/><path class="cls-15" d="m49.23,97.39c0-.08-.22-.3.09-.19.42.15.83.33,1.23.54.16.08.02.14-.07.16-.45-.09-.85-.31-1.25-.5Z"/><path class="cls-16" d="m74.39,57.63c-.01-.11.04-.19.11-.26.34-.32.63-.7,1.04-.94-.37.41-.61.95-1.15,1.2Z"/><path class="cls-12" d="m45.51,78.09c.14-.45.4-.78.9-.86-.28.31-.53.64-.9.86Z"/><path class="cls-11" d="m53.32,46.41c-.16.16-.35.1-.56.07.13-.32.38-.4.66-.44-.05.09-.12.14-.21.18-.06.03-.14.07-.11.13.04.08.14.04.22.05Z"/><path class="cls-9" d="m52.15,98.48c-.05-.06-.1-.12-.16-.19.29-.09.48.05.68.22-.08.08-.16.05-.23.07-.1-.02-.21-.01-.28-.09Z"/><path class="cls-10" d="m75.34,53.13c.16-.11.3-.26.5-.28,0,.09.03.17.12.21-.11.11-.26.14-.4.19-.12.04-.22.06-.22-.12Z"/><path class="cls-19" d="m38.41,52.36c.13.06.25.12.38.26-.29.14-.48-.01-.68-.15.11-.02.23.02.3-.11Z"/><path class="cls-18" d="m75.94,69.72s-.06,0-.08-.02c.03-.23.17-.11.28-.08.03,0,.06.02.09.03.04.02.08.04.11.06.13.01.28-.01.39.1-.13.03-.28-.04-.39.08-.09.02-.14-.05-.21-.08-.06-.05-.14-.03-.2-.09Z"/><path class="cls-17" d="m78.17,96.71c.03-.18.15-.2.3-.18-.06.13-.16.19-.3.18Z"/><path class="cls-11" d="m53.53,46.33c-.05.07-.12.1-.21.09.05-.08.12-.1.21-.09Z"/><path class="cls-18" d="m76.72,69.99c-.08.01-.16,0-.21-.07.09-.02.16,0,.21.07Z"/><path class="cls-18" d="m76.82,69.83c.06,0,.1.02.12.06-.06,0-.1-.02-.12-.06Z"/><path class="cls-33" d="m76.03,52.74s.05-.08.11-.08c-.01.06-.06.08-.11.08Z"/><path class="cls-48" d="m65.8,53.64c.28.34.57.67.77,1.06.27.51.45,1.05.38,1.63-.06.55.13.96.54,1.33,1.16,1.02,1.73,2.31,1.75,3.86.01.7-.13,1.36-.43,1.97-.52,1.04-1.29,1.9-2.25,2.56-.65.44-1.3.87-1.82,1.48-.39.46-.91.78-1.37,1.17-1.01.84-2.19,1.37-3.4,1.8-1.16.42-2.37.65-3.6.78-1.92.2-3.83.17-5.72-.21-1.19-.24-2.35-.6-3.42-1.22-.59-.34-1.18-.67-1.72-1.1-.29-.23-.56-.49-.78-.8-.05-.07-.1-.14-.04-.22.06-.08.15-.05.22,0,.12.08.25.16.36.24,1.63,1.24,3.48,1.96,5.48,2.38,1.98.42,3.95.35,5.95.18,1.25-.11,2.39-.55,3.56-.91.71-.22,1.37-.56,1.99-.98.37-.25.75-.51,1.16-.71.17-.08.27-.23.38-.4-.24-.05-.41.1-.6.15-2.68.74-5.38.94-8.15.53-1.61-.24-3.13-.69-4.61-1.32-1.06-.45-2.08-1.01-2.94-1.79-.71-.65-1.39-1.32-1.84-2.22-.71-1.41-.83-2.81-.25-4.26.21-.53.49-1.04.89-1.49,1.5-1.66,3.43-2.52,5.54-3.07,1.75-.46,3.55-.61,5.36-.5,1.36.08,2.7.25,4.03.6,1.13.3,2.23.66,3.25,1.23.63.35,1.3.65,1.85,1.15.05.04.11.06.2.12.1-.3,0-.56-.09-.81-.29-.84-.86-1.48-1.51-2.06-.98-.87-2.15-1.42-3.37-1.87-1.5-.57-3.07-.76-4.65-.92-1.47-.15-2.91.02-4.36.19-1.56.19-3.1.52-4.65.77-.32.05-.64.05-1.03.08.23-.32.54-.35.81-.46,1.05-.33,2.12-.59,3.2-.82,2.03-.43,4.07-.66,6.14-.57,2.53.1,4.9.72,7.09,2.02.65.39,1.18.9,1.7,1.44Z"/><path class="cls-23" d="m40.27,50.04c-.5-.05-1,.03-1.5-.1-1.24-.33-1.92-1.18-1.93-2.46,0-.65.14-1.23.45-1.81.3-.56.58-1.12,1.03-1.58.08-.08.08-.17.02-.26-.04-.05-.07-.11-.11-.16-.66-.71-.92-1.63-1.18-2.52-.28-.98-.22-1.99-.06-2.99.04-.27.09-.54.16-.81.25-1.08.68-2.11,1.36-2.98.62-.8,1.44-1.38,2.43-1.7.67-.22,1.32-.41,2.03-.36,1.44.1,2.76.56,3.96,1.35.28.19.56.38.85.57.85.73,1.64,1.52,2.25,2.48.12.19.23.38.3.61.13.4.02.7-.31.94-.2.14-.4.29-.62.37-.65.24-1.19.72-1.9.83-.08.01-.15.06-.22.1-1,.51-2.05.87-3.1,1.26-.33.12-.64.3-.96.46-.7.36-1.41.7-2.07,1.13-.94.61-1.81,1.3-2.56,2.15-.54.61-.9,1.33-1.14,2.07-.22.68-.24,1.44.23,2.1.38.53.91.76,1.52.84.77.11,1.51-.07,2.26-.24.79-.18,1.56-.46,2.31-.74.72-.28,1.41-.64,2.11-.95.84-.38,1.67-.79,2.49-1.21.46-.23.88-.54,1.39-.68.06,0,.1-.04.13-.09h0c.18-.01.16.08.1.19-.65.41-1.32.79-1.99,1.18-1.1.64-2.24,1.19-3.41,1.69-1.4.6-2.83,1.11-4.34,1.35Z"/><path class="cls-33" d="m65.8,53.64c-.4-.16-.63-.54-.98-.78-.94-.67-1.96-1.18-3.04-1.6-.82-.32-1.65-.56-2.51-.69-1.73-.27-3.48-.34-5.23-.17-1.97.2-3.89.61-5.8,1.12-.19.05-.37.1-.57.06,1.47-.78,3.01-1.36,4.6-1.82.86-.25,1.74-.45,2.64-.53.78-.07,1.55-.05,2.33-.08.8-.03,1.58.14,2.35.32,1.74.42,3.24,1.28,4.57,2.46.59.53,1.21,1.02,1.64,1.71Z"/><path class="cls-20" d="m75.34,53.13c.04.1.13.11.22.12-.21.11-.41.22-.7.23.12-.25.3-.29.48-.35Z"/><path class="cls-26" d="m50.01,45.82c0-.08-.02-.15-.1-.19,0-.06.04-.09.09-.1.04-.02.08-.05.12-.06.03-.01.06-.02.09-.02.09.02.24-.16.27.07-.14.12-.28.25-.47.31Z"/><path class="cls-30" d="m50.48,45.52c-.06-.15-.21.06-.27-.07.05-.1.16-.1.25-.13.07-.02.17-.08.2.03.03.12-.08.15-.17.18Z"/><path class="cls-14" d="m76.14,69.61c-.1.02-.21-.02-.28.08-.07,0-.14-.03-.16-.09-.02-.09.07-.09.13-.09.11,0,.23,0,.31.1Z"/><path class="cls-14" d="m75.94,69.72c.08,0,.15.01.2.09-.08,0-.15-.02-.2-.09Z"/><path class="cls-48" d="m58.52,53.58s0,.02-.01.02c-.04,0-.05-.01-.02-.03,0,0,.02,0,.04,0Z"/><path class="cls-30" d="m50.11,45.46s-.06.07-.12.06c.03-.04.06-.07.12-.06Z"/><path class="cls-26" d="m49.91,45.63c-.02.06-.06.09-.13.09.04-.03.08-.06.13-.09Z"/><path class="cls-14" d="m76.34,69.71s-.07-.04-.11-.06c.04.02.07.04.11.06Z"/><path class="cls-46" d="m79.64,58.39c.43-.41.97-.66,1.49-.89,1.67-.75,3.42-.97,5.22-.53.51.13,1.04.21,1.5.51.72.47,1.43.94,1.91,1.67.71,1.1.62,2.24.13,3.39-.34.8-.9,1.43-1.59,1.93-1.27.92-2.68,1.5-4.26,1.59-1.21.07-2.41,0-3.53-.5-.64-.28-1.24-.64-1.73-1.13-1.2-1.2-1.43-2.82-.64-4.27.13-.24.2-.52.41-.71.36-.29.67-.64.98-.98h0c.05-.01.08-.05.1-.1Z"/><path class="cls-4" d="m79.53,58.49c-.21.44-.51.8-.98.98.24-.41.57-.74.98-.98Z"/><path class="cls-4" d="m79.64,58.39c0,.06-.04.1-.1.1,0-.07.05-.09.1-.1Z"/><path class="cls-35" d="m75.04,83.18c-.65-.04-1.17-.13-1.65-.37-.09-.04-.17-.09-.24-.16-.1-.09-.24-.17-.17-.36.06-.17.19-.18.35-.2.89-.12,1.79-.24,2.66-.47.47-.12.92-.31,1.37-.48.09-.03.18-.08.27-.1.36-.07.48.07.36.42-.04.12-.09.25-.17.35-.55.65-1.24,1.09-2.08,1.25-.26.05-.53.15-.7.12Z"/><path class="cls-41" d="m57.76,67.87c-1,.02-2.12-.11-3.24-.32-.7-.13-1.4-.27-2.07-.48-1.73-.53-3.37-1.26-4.73-2.47-.92-.82-1.74-1.77-2.04-3-.25-1.01-.12-2.02.32-2.99.46-1.02,1.28-1.67,2.16-2.29,1.23-.87,2.59-1.4,4.03-1.74,1.81-.43,3.66-.59,5.51-.43,1.51.13,3.02.37,4.47.88.72.25,1.41.57,2.1.88,1.08.47,1.97,1.18,2.8,1.98.76.73,1.35,1.58,1.57,2.64.28,1.35-.04,2.57-.87,3.66-.51.67-1.13,1.19-1.85,1.63-.71.43-1.42.83-2.21,1.1-1.21.4-2.44.74-3.72.87-.7.07-1.39.11-2.23.11Z"/><path class="cls-38" d="m37.45,39.56c0-.99.07-1.89.38-2.76.43-1.2,1.06-2.25,2.1-3.03.34-.26.74-.42,1.13-.56,1.2-.42,2.41-.46,3.63-.07,2.1.67,3.66,2.03,4.9,3.79.07.11.14.22.19.34.12.29.07.44-.21.6-.57.34-1.15.67-1.78.86-.46.14-.85.44-1.33.59-.64.2-1.27.48-1.89.74-1.07.46-2.13.94-3.14,1.54-.81.48-1.62.95-2.27,1.66-.37.4-.63.34-.88-.17-.56-1.14-.89-2.33-.85-3.53Z"/><path class="cls-44" d="m86.28,61.53s-.08,0-.18,0c-.39-.02-.93-.38-1-.68-.11-.46.08-.85.44-1.11.62-.45,1.31-.53,2.02-.21.58.27.7.86.28,1.36-.37.44-.86.68-1.56.64Z"/><path class="cls-45" d="m56.49,66.22c-1.12-.02-2.37-.31-3.55-.98-.55-.32-1.09-.64-1.5-1.14-.72-.9-1.26-1.88-1.23-3.07.03-.93.31-1.78.88-2.52,1.04-1.33,2.47-2.02,4.09-2.33,1.71-.33,3.34-.03,4.93.68.87.39,1.56,1,2.17,1.69.54.61.85,1.36.9,2.21.13,2.13-.96,3.5-2.69,4.52-1.18.7-2.45.94-4.01.95Z"/><path class="cls-3" d="m58.59,61.21c-.43-.1-.85-.17-1.2-.52-.64-.62-.42-1.69.53-2.03.81-.29,1.76.12,2.07.89.2.49.06.99-.38,1.28-.31.21-.62.41-1.03.37Z"/></g></g></g></svg>