<?xml version="1.0" encoding="UTF-8"?><svg id="Layer_1" xmlns="http://www.w3.org/2000/svg" viewBox="0 0 128 128"><defs><style>.cls-1{fill:#e9edf0;}.cls-1,.cls-2{stroke-width:0px;}.cls-2{fill:#f5b13f;}</style></defs><circle class="cls-1" cx="64" cy="64" r="63.5"/><g id="BTCDOM"><path class="cls-2" d="m63.36,119.02c-.84-.88-1.55-1.87-2.4-2.74-1.18-1.21-2.48-2.29-3.67-3.49-9.09-9.17-18.26-18.27-27.35-27.33,4.21-4.24,8.28-8.33,12.67-12.75,6.9,7.1,13.82,14.23,21.13,21.76,7.31-7.53,14.23-14.66,21.18-21.81,4.3,4.41,8.28,8.5,13.04,13.38-2.74,2.43-5.86,4.98-8.74,7.79-4.2,4.1-8.37,8.24-12.53,12.38-4.02,4-8.09,7.98-12.11,11.96-.35.35-.7.7-1.05,1.05-.06-.06-.13-.13-.19-.19Z"/><path class="cls-2" d="m118.2,62.6c-.42-.42-.84-.86-1.26-1.29-3.31-3.43-6.57-6.9-9.44-9.93-4.67,4.49-8.83,8.49-12.61,12.12,0,0,8.73,9.05,9.5,9.85.52.53,1.03,1.07,1.55,1.6.25.26.5.52.76.78.09.1.28.38.4.42.17.05.23-.04.39-.15l11.73-11.73.38-.38c-.47-.43-.96-.85-1.41-1.3Z"/><path class="cls-2" d="m97.04,42.65c-3.65,3.6-7.72,7.61-11.93,11.77-6.81-7.04-13.71-14.18-20.81-21.51-7.53,7.72-14.46,14.83-21.38,21.93-4.49-4.64-8.5-8.79-12.47-12.89,10.79-10.8,21.98-22.01,33.1-33.15,11.11,11.24,22.24,22.49,33.48,33.86Z"/><path class="cls-2" d="m20.92,51.66c3.86,3.89,7.93,7.98,11.96,12.03-4.01,3.94-8.12,7.98-12.24,12.04-3.84-3.88-7.89-7.97-11.92-12.04,4.02-3.96,8.12-8.01,12.2-12.04Z"/><path class="cls-2" d="m63.33,75.66c-3.71-3.76-7.72-7.81-11.74-11.87,4.06-3.93,8.2-7.94,12.35-11.95,3.63,3.75,7.64,7.9,11.67,12.06-3.77,3.61-7.94,7.6-12.28,11.76Z"/></g></svg>