<?xml version="1.0" encoding="utf-8"?>
<!-- Generator: Adobe Illustrator 24.3.0, SVG Export Plug-In . SVG Version: 6.00 Build 0)  -->
<svg version="1.1" id="图层_1" xmlns="http://www.w3.org/2000/svg" xmlns:xlink="http://www.w3.org/1999/xlink" x="0px" y="0px"
	 viewBox="0 0 128 128" style="enable-background:new 0 0 128 128;" xml:space="preserve">
<style type="text/css">
	.st0{fill:#F0B80B;}
	.st1{fill:#1E2125;}
</style>
<g>
	<circle class="st0" cx="64" cy="64" r="62.6"/>
	<g>
		<path class="st1" d="M64.6,33.9c3.3,0.3,7.9,0.4,12.4,1.1c5.7,0.8,11.2,2.4,15.9,5.9c3.4,2.5,5.9,5.7,6.9,9.9
			c0.5,2.4,0.9,4.8,1.3,7.2c0.2,1.2-0.4,1.8-1.6,1.6c-3.6-0.6-7.2-1.2-10.8-1.9c-0.6-0.2-1.1-0.5-1.4-1c-1.2-1.6-3.1-2.2-4.6-1
			c-1.5,1.2-2.9,1.1-4.7,1.1c-7.9-0.2-15.8-0.3-23.7-0.5c-1.4,0-2.6,0.2-3.6-1.6c-1.3-2.2-5.2-1.9-6.5,0.4c-0.6,1.2-1.8,2-3.2,2
			c-3.4,0.3-6.8,0.9-10.2,1.3c-0.2,0-0.4,0.1-0.6,0.1c-2.7,0.2-3.1-0.3-2.9-3c0.3-5.4,2.3-10.1,6.2-13.8c2.6-2.4,5.8-3.8,9.1-5
			C49.3,34.7,56.3,34.3,64.6,33.9z M56.9,39.4c1.2-0.8,2.5-1.3,2.9-2.2c0.4-0.9-0.9-1-1.6-1c-1.1,0-2.3,0-2.5,1.4
			C55.6,38.2,56.3,38.6,56.9,39.4L56.9,39.4z M70.2,35.7l-2.3,1.4c0.9,0.5,1.8,1,2.8,1.3c0.5,0.1,1.1-0.8,1.6-1.2L70.2,35.7z
			 M43.4,41.9l3-2.4c-0.4-0.3-0.9-0.9-1.3-0.9c-1.3-0.2-2.9,0.8-2.8,1.6C42.3,40.6,42.8,41,43.4,41.9L43.4,41.9z M62.4,41.1
			c0.7-0.1,1.1,0,1.3-0.2c0.6-0.5,1.1-1.1,1.6-1.6c-0.6-0.3-1.3-0.5-2-0.7c-0.3-0.1-0.6,0-0.9,0.2c-0.5,0.4-1,0.9-1.4,1.4L62.4,41.1
			z M81.5,38.8c0.6,1.6,1.7,2.3,3.1,2.1c0.4-0.1,0.8-0.4,1.1-0.7c0.1-0.2-0.2-0.8-0.5-1C84.1,38.2,82.6,38,81.5,38.8L81.5,38.8z
			 M74,41.4c0.7-0.1,1.1,0,1.4-0.2c0.5-0.4,1.3-1,1.2-1.4c-0.1-0.9-0.9-1.1-1.8-0.8c-0.4,0.1-0.7,0.2-1,0.4c-0.4,0.4-0.7,0.8-1,1.2
			L74,41.4z M51.8,42.2c0.7-0.7,1.6-1.1,1.6-1.6c0-1.4-1.4-1.2-2.4-1.3c-0.5,0-1,0.6-1.6,0.9L51.8,42.2z"/>
		<path class="st1" d="M60.8,94.1c-5.6-0.3-11.2-0.4-16.8-1c-6.9-0.7-12.7-3.6-15.8-10.3c-0.5-1.2-0.7-2.5-0.8-3.8
			c0-0.4,0.9-1.2,1.3-1.2c3.5,0.2,7,0.6,10.6,0.8c3.3,0.2,6.7,0.3,10,0.5c1.1,0,1.8,0.3,2.2,1.5c0.4,0.9,0.9,1.7,1.5,2.3
			c1.3,1.7,2.8,1.9,4.6,0.6c0.6-0.4,1.2-0.8,1.7-1.3c2-2.6,4.6-3,7.7-3c9.5-0.1,18.9-0.9,28.3-2.4c1.1-0.2,2.2-0.5,3.3-0.7
			c1.3-0.2,1.9,0.3,1.9,1.7c0.2,5.1-2.9,9.5-7.5,11.8c-7.4,3.6-15.3,3.9-23.3,4.4c-3,0.2-6,0-9.1,0L60.8,94.1z"/>
		<path class="st1" d="M101.3,67.3c-2.5-1-4.9-1.7-7.2-2.8c-1.5-0.7-2.8-1.1-4.3,0.1c-1.5,1.2-3.6,1.2-5.2,0.2
			C83.5,64,82,64,80.9,64.7c-2.5,1.3-5.6,1.4-8.1,0.1c-1.2-0.7-2.6-0.8-3.8-0.2c-1.3,0.7-3,0.5-4.1-0.6c-0.8-0.9-2.1-1-3.1-0.4
			c-2.5,1.2-5.4,1.2-7.9,0c-1.2-0.5-1.9-0.6-2.9,0.7c-0.7,0.9-2.1,1.4-3.3,1.8c-2.3,0.8-4.7,0.6-6.8-0.6c-1.2-0.7-2.7-0.8-4.1-0.3
			c-2.1,0.6-4.2,0.7-6.2-0.5c-1.1-0.6-2,0-3,0.6c-1.3,0.7-2.7,1.2-4.1,1.5c-0.8,0-1.6-0.5-2-1.2c-0.1-0.9,0.2-1.8,0.9-2.3
			c2-1,4-2.1,6.2-2.4c5.1-0.7,10.3-1,15.4-1.4c11.3-0.9,22.7-0.9,34.1-0.1c5.8,0.5,11.6,1,17.4,1.7c2.3,0.3,4.6,1.2,6.9,1.8
			c1.3,0.4,2.4,1.2,1.9,2.5C103.7,66.2,102.4,66.6,101.3,67.3z"/>
		<path class="st1" d="M48.6,77c-6.5-0.4-13-0.8-19.5-1.2c-1.3-0.1-1.9-1.1-1.8-2.9c0.1-1.3,0.8-1.7,2-1.6c4.9,0.3,9.9,0.7,14.8,1
			c12.1,0.5,24.2,0.7,36.3-0.6C86.3,71,92.1,70.5,98,70c1.1-0.1,2.3-0.3,2.6,1.2c0.2,1.1-0.9,2.3-2.3,2.6c-3.1,0.6-6.3,1.1-9.4,1.3
			c-11.5,0.6-23.1,1-34.6,1.4c-1.9,0.1-3.7,0-5.6,0L48.6,77z"/>
	</g>
</g>
</svg>
