<?xml version="1.0" encoding="utf-8"?>
<!-- Generator: Adobe Illustrator 27.0.0, SVG Export Plug-In . SVG Version: 6.00 Build 0)  -->
<svg version="1.1" id="Layer_1" xmlns="http://www.w3.org/2000/svg" xmlns:xlink="http://www.w3.org/1999/xlink" x="0px" y="0px"
	 viewBox="0 0 128 128" style="enable-background:new 0 0 128 128;" xml:space="preserve">
<style type="text/css">
	.st0{fill:#D9B432;}
	.st1{fill:#FFFFFF;}
</style>
<circle class="st0" cx="64" cy="64" r="63.5"/>
<g>
	<path class="st1" d="M83.8,34.2c9,0,16.3,7.1,16.3,16c0,2.7-0.7,5.3-1.9,7.6c-2.1-1.5-4.3-2.9-6.7-3.7c0.7-1.2,1-2.5,1-3.9
		c0-4.6-3.8-8.3-8.5-8.3c-4.7,0-8.5,3.7-8.5,8.3c0,1.4,0.3,2.7,1,3.9c-2.4,0.8-4.8,2-6.7,3.7c-1.4-2.4-1.9-4.9-1.9-7.6
		C67.5,41.3,74.8,34.2,83.8,34.2z"/>
	<path class="st1" d="M44.2,93.8c-9,0-16.3-7.1-16.3-16h7.8c0,4.6,3.8,8.3,8.5,8.3s8.5-3.7,8.5-8.3h7.8
		C60.5,86.7,53.2,93.8,44.2,93.8L44.2,93.8z"/>
	<path class="st1" d="M83.8,56.6c-10.6,0-19,8.3-19,18.7c0,10.2,8.7,18.5,19,18.5v0c10.4,0,18.9-8.3,18.9-18.5
		C102.7,64.9,94.2,56.6,83.8,56.6z M83.8,86c-6.2,0-11.2-4.9-11.2-10.9c0-6.1,5-11,11.2-11c6.2,0.2,11.2,5.1,11.2,11
		C95.1,81.2,90,86,83.8,86z"/>
	<path class="st1" d="M44.2,34.2c-10.4,0-18.9,8.5-18.9,18.7c0,10.2,8.5,18.5,18.9,18.5h0c10.4,0,18.9-8.3,19-18.5
		C63.2,42.5,54.6,34.2,44.2,34.2z M55.3,52.9C55.3,52.9,55.3,52.9,55.3,52.9c0,6.1-5,11-11.2,11c-6.2,0-11.2-4.9-11.2-11
		c0-6.1,5-11,11.2-11C50.4,41.8,55.3,46.8,55.3,52.9C55.3,52.9,55.3,52.9,55.3,52.9L55.3,52.9z"/>
</g>
</svg>
