<?xml version="1.0" encoding="UTF-8"?><svg id="Layer_1" xmlns="http://www.w3.org/2000/svg" viewBox="0 0 128 128"><defs><style>.cls-1{fill:#fcda8f;}.cls-2,.cls-3{fill:#633003;}.cls-4{fill:#46d8e4;}.cls-3,.cls-5{fill-rule:evenodd;}.cls-5{fill:#cf874f;}</style></defs><circle class="cls-4" cx="64" cy="64" r="63.5"/><g><path class="cls-3" d="m38.46,36.39c-1.26-6.53,3.77-12.55,10.32-12.55,5.79,0,10.57,4.77,10.57,10.54v13.05c1.51,0,3.02-.25,4.53-.25s2.77,0,4.28.25v-13.05c0-5.77,4.78-10.54,10.57-10.54,6.54,0,11.58,6.02,10.57,12.55l-2.77,15.31c9.81,4.27,17.36,11.8,17.36,21.08v5.77c0,7.78-5.03,14.3-12.33,18.57-7.3,4.52-16.86,7.03-27.68,7.03s-20.38-2.51-27.68-7.03c-7.05-4.27-12.08-10.79-12.08-18.57v-5.77c0-9.29,7.3-16.81,17.11-21.08l-2.77-15.31Zm44.29,17.32l3.27-18.07c.75-4.52-2.52-8.78-7.3-8.78-4.03,0-7.3,3.26-7.3,7.28v16.56c-1.01-.25-2.26-.25-3.27-.25-1.51,0-2.77-.25-4.28-.25s-3.02,0-4.53.25c-1.01,0-2.26.25-3.27.25v-16.31c0-4.02-3.27-7.28-7.3-7.28-4.53,0-8.05,4.27-7.05,8.78l3.27,18.07c-10.57,4.02-17.62,11.04-17.62,19.07v5.77c0,12.3,16.36,22.34,36.49,22.34s36.49-10.04,36.49-22.34v-5.77c.25-8.28-6.79-15.31-17.62-19.32Z"/><path class="cls-1" d="m100.62,78.56c0,12.3-16.36,22.34-36.49,22.34s-36.49-10.04-36.49-22.34v-5.77h73.23v5.77h-.25Z"/><path class="cls-5" d="m41.73,35.89c-1.01-4.52,2.52-8.78,7.05-8.78,4.03,0,7.3,3.26,7.3,7.28v16.56c2.52-.25,5.03-.5,7.8-.5,2.52,0,5.03.25,7.55.5v-16.56c0-4.02,3.27-7.28,7.3-7.28,4.53,0,8.05,4.27,7.3,8.78l-3.27,18.07c10.57,4.02,17.87,11.04,17.87,19.07,0,12.3-16.36,22.34-36.49,22.34s-36.49-10.04-36.49-22.34c0-8.03,7.05-15.06,17.62-19.07l-3.52-18.07Z"/><path class="cls-2" d="m53.81,71.28c0,3.26-1.76,6.02-4.03,6.02s-4.03-2.76-4.03-6.02,1.76-6.02,4.03-6.02,4.03,2.76,4.03,6.02Z"/><path class="cls-2" d="m81.74,71.28c0,3.26-1.76,6.02-4.03,6.02s-4.03-2.76-4.03-6.02,1.76-6.02,4.03-6.02,4.03,2.76,4.03,6.02Z"/></g></svg>