<?xml version="1.0" encoding="UTF-8"?><svg id="Layer_1" xmlns="http://www.w3.org/2000/svg" viewBox="0 0 128 128"><defs><style>.cls-1,.cls-2,.cls-3,.cls-4{stroke-width:0px;}.cls-2{fill:#de1523;}.cls-3{fill:#fdfdfd;}.cls-4{fill:#040303;}</style></defs><circle class="cls-1" cx="64" cy="64" r="63.5"/><g id="CAT"><path class="cls-4" d="m59.77.5h8.18c.04.2.21.14.34.15,1.24.11,2.49.17,3.72.33,7.08.95,13.84,2.93,20.24,6.13,10.03,5.02,18.2,12.17,24.46,21.46,6.03,8.95,9.55,18.82,10.54,29.58.06.63-.05,1.29.25,1.89v8.18c-.2.05-.14.21-.15.34-.23,3.45-.75,6.86-1.58,10.22-3.68,14.88-11.64,26.97-23.89,36.15-9.96,7.47-21.23,11.57-33.66,12.4-.11,0-.24-.01-.27.15h-8.18c-.07-.24-.27-.14-.41-.15-5.22-.37-10.32-1.4-15.29-3.05-11.05-3.66-20.41-9.9-28.02-18.68C7.15,95.34,2.04,83.4.75,69.83c-.05-.53.05-1.1-.25-1.6v-8.33c.23-.07.14-.27.15-.41.17-2.87.58-5.7,1.17-8.51,2.34-11.05,7.23-20.86,14.8-29.24C27.75,9.43,41.63,2.43,58.16.75c.53-.05,1.1.05,1.6-.25Zm9.64,33.82c.18.1.35.05.53,0,3.27-.88,6.57-1.06,9.92-.52,6.92,1.12,11.96,5.61,13.56,12.46,1.51,6.47.04,12.25-4.83,16.91-2.5,2.4-5.7,3.6-9.03,4.39-5.77,1.37-11.2.69-16.1-2.87-1.56-1.14-3.01-2.41-4.46-3.68-.64-.56-.71-.58-1.25.12-1.27,1.63-.91,3.52-.92,5.44.83-.32,1.55-.53,2.31-.49,1.29.07,2.01.9,1.91,2.19-.08,1.17-.8,1.88-1.81,2.2-3.1,1.01-6,.54-8.54-1.54-1.19-.97-1.52-2.32-1.16-3.83.17-.71.61-.95,1.27-.94.6.02,1.15.22,1.7.43.22.08.41.14.47-.17.23-1.2.5-2.39.3-3.63-.07-.43-.18-.49-.56-.26-4.09,2.48-8.53,3.22-13.22,2.61-7.52-.98-12.23-5.01-13.98-11.97-.56.84-.96,1.7-1.35,2.57-3.9,8.77-5.59,17.99-5.72,27.54-.1,6.85.29,13.67,1.12,20.47.06.48.22.88.56,1.25,1.45,1.61,2.96,3.16,4.58,4.59,10.33,9.12,22.32,14.22,36.13,15,6.22.35,12.33-.29,18.34-1.87,7.84-2.07,14.92-5.69,21.28-10.72,4.74-3.75,8.79-8.13,12.21-13.11.4-.59.44-1.03.09-1.64-.65-1.14-1.21-2.34-1.85-3.49-3.2-5.77-6.58-11.44-9.41-17.42-.72-1.53-1.64-2.99-1.92-4.68-.41-2.41-1.21-4.61-2.63-6.61-.92-1.3-1.16-2.81-.98-4.38.09-.77.07-1.55.01-2.32-.18-2.3-.3-4.6-.51-6.89-.42-4.49-.4-9.02-.97-13.5-.39-3.05-1.13-6-2.39-8.81-.2-.44-.41-.6-.9-.51-1.02.18-2.05.26-3.07.44-6.45,1.15-12.44,3.56-18.14,6.74-.21.12-.49.18-.58.48ZM14.73,95.81c0-.96.04-1.92,0-2.87-.26-4.94-.09-9.87.25-14.8.31-4.5.81-8.98,1.63-13.42.43-2.36.86-4.71,1.77-6.95,2.62-6.43,6.06-12.4,9.94-18.14,3.52-5.21,7.81-9.61,13.09-13.05,3.96-2.58,8.17-4.73,12.31-7,1.09-.6,2.14-1.28,3.3-1.74,1.22-.48,1.9-.28,2.6.77.31.47.61.95.88,1.44,1.76,3.22,3.3,6.54,4.69,9.94.25.6.46.77,1.11.46,1.29-.63,2.62-1.17,3.94-1.71,5.51-2.23,11.21-3.95,16.84-5.83,2.16-.72,4.36-1.33,6.67-1.4,1.02-.03,1.71.42,2.12,1.33.24.53.44,1.08.59,1.65.62,2.35.8,4.77,1.29,7.14.53,2.56.97,5.12,1.2,7.72.4,4.43.51,8.87.64,13.31.08,2.65.27,5.3.56,7.94.05.42.08.84.64.94.3.05.43.34.5.63.12.5.24,1,.37,1.5.98,3.77,2.55,7.32,4.29,10.79,2.95,5.88,6.35,11.53,9.24,17.44.05.11.09.28.28.26,12.4-21.92,9.69-53.91-14.38-73.65C77.77-.61,43.31.92,21.78,23.22.73,45.03,1.44,76.15,14.73,95.81Zm75.71-46.12c.02-1.31-.19-2.55-.75-3.72-1.64-3.4-4.13-5.96-7.58-7.55-3.43-1.57-6.92-1.41-10.46-.39-6.11,1.74-10.17,5.45-11.56,11.81-.26,1.19-.35,2.38-.1,3.56,1.14,5.24,4.41,8.62,9.4,10.31,4.17,1.41,8.29.79,12.2-1.02,5.52-2.55,8.46-6.94,8.85-13Zm-48.72-14.03c-2.34-.13-4.56.22-6.47,1.69-2.87,2.22-4.96,4.99-5.91,8.53-1.3,4.83.18,9.19,4.23,11.79,4.9,3.16,10.15,3.53,15.33.84,4.02-2.09,6.26-5.77,7.63-9.99.35-1.08.5-2.24.22-3.34-.79-3.08-2.45-5.61-5.25-7.19-3.02-1.7-6.38-2.14-9.78-2.33Zm22.48.96c-1.39-.32-1.96-1.22-2.28-2.43-.41-1.54-.92-3.06-1.44-4.56-.8-2.32-1.74-4.56-3.25-6.53-.25-.33-.46-.41-.88-.26-4.8,1.71-9.2,4.14-13.23,7.25-1.02.78-2.02,1.58-3.04,2.55,2.88-.22,5.62-.25,8.34.24,4.14.73,7.59,2.45,9.37,6.57.33.78.88,1.44,1.5,2.03.31.3.5.39.79-.05,1.14-1.73,2.45-3.33,4.13-4.81Z"/><path class="cls-3" d="m69.41,34.32c.09-.29.36-.36.58-.48,5.7-3.18,11.69-5.6,18.14-6.74,1.02-.18,2.05-.26,3.07-.44.49-.09.71.07.9.51,1.26,2.81,2.01,5.76,2.39,8.81.57,4.48.56,9.01.97,13.5.21,2.29.33,4.59.51,6.89.06.78.07,1.55-.01,2.32-.18,1.57.06,3.08.98,4.38,1.42,2,2.23,4.21,2.63,6.61.28,1.68,1.2,3.15,1.92,4.68,2.82,5.97,6.21,11.64,9.41,17.42.64,1.15,1.19,2.34,1.85,3.49.35.61.31,1.05-.09,1.64-3.41,4.98-7.47,9.36-12.21,13.11-6.36,5.03-13.44,8.65-21.28,10.72-6.01,1.59-12.12,2.22-18.34,1.87-13.8-.78-25.8-5.88-36.13-15-1.62-1.43-3.13-2.98-4.58-4.59-.34-.37-.5-.77-.56-1.25-.83-6.8-1.21-13.62-1.12-20.47.13-9.56,1.82-18.78,5.72-27.54.39-.87.79-1.73,1.35-2.57,1.75,6.96,6.46,10.98,13.98,11.97,4.69.61,9.13-.13,13.22-2.61.38-.23.49-.18.56.26.2,1.24-.07,2.43-.3,3.63-.06.31-.25.25-.47.17-.55-.2-1.1-.41-1.7-.43-.66-.02-1.1.22-1.27.94-.35,1.52-.03,2.86,1.16,3.83,2.54,2.08,5.44,2.55,8.54,1.54,1.01-.33,1.73-1.04,1.81-2.2.09-1.29-.62-2.12-1.91-2.19-.77-.04-1.48.17-2.31.49,0-1.91-.35-3.8.92-5.44.54-.7.6-.68,1.25-.12,1.45,1.27,2.9,2.54,4.46,3.68,4.9,3.57,10.33,4.24,16.1,2.87,3.33-.79,6.52-1.99,9.03-4.39,4.87-4.67,6.34-10.44,4.83-16.91-1.59-6.84-6.63-11.34-13.56-12.46-3.35-.54-6.65-.36-9.92.52-.18.05-.35.09-.53,0Z"/><path class="cls-2" d="m14.73,95.81C1.44,76.15.73,45.03,21.78,23.22,43.31.92,77.77-.61,101.1,18.51c24.07,19.74,26.78,51.73,14.38,73.65-.19.02-.23-.15-.28-.26-2.89-5.91-6.29-11.56-9.24-17.44-1.74-3.47-3.31-7.01-4.29-10.79-.13-.5-.26-1-.37-1.5-.07-.29-.19-.58-.5-.63-.57-.1-.6-.52-.64-.94-.29-2.64-.48-5.29-.56-7.94-.13-4.44-.24-8.88-.64-13.31-.23-2.6-.67-5.17-1.2-7.72-.49-2.37-.67-4.79-1.29-7.14-.15-.57-.35-1.12-.59-1.65-.41-.91-1.1-1.36-2.12-1.33-2.31.06-4.51.68-6.67,1.4-5.63,1.88-11.33,3.59-16.84,5.83-1.33.54-2.66,1.08-3.94,1.71-.65.32-.86.15-1.11-.46-1.39-3.39-2.94-6.72-4.69-9.94-.27-.49-.57-.97-.88-1.44-.71-1.06-1.38-1.25-2.6-.77-1.16.46-2.21,1.14-3.3,1.74-4.14,2.27-8.35,4.42-12.31,7-5.28,3.44-9.57,7.83-13.09,13.05-3.88,5.74-7.31,11.72-9.94,18.14-.91,2.24-1.34,4.6-1.77,6.95-.82,4.44-1.32,8.92-1.63,13.42-.34,4.92-.5,9.86-.25,14.8.05.95,0,1.91,0,2.87Z"/><path class="cls-3" d="m90.43,49.68c-.39,6.07-3.33,10.45-8.85,13-3.91,1.81-8.03,2.43-12.2,1.02-4.99-1.69-8.26-5.06-9.4-10.31-.26-1.18-.16-2.38.1-3.56,1.39-6.35,5.45-10.06,11.56-11.81,3.54-1.01,7.03-1.18,10.46.39,3.45,1.58,5.94,4.15,7.58,7.55.56,1.16.77,2.41.75,3.72Zm-13.88,4.16c.03-1.39-1.29-2.63-2.8-2.66-1.17-.02-2.13.96-2.15,2.22-.03,1.42,1.11,2.59,2.55,2.62,1.4.04,2.37-.85,2.4-2.18Z"/><path class="cls-3" d="m41.71,35.65c3.4.19,6.76.64,9.78,2.33,2.8,1.58,4.47,4.1,5.25,7.19.28,1.11.13,2.26-.22,3.34-1.37,4.22-3.61,7.9-7.63,9.99-5.19,2.7-10.43,2.32-15.33-.84-4.05-2.6-5.53-6.96-4.23-11.79.95-3.53,3.04-6.31,5.91-8.53,1.91-1.48,4.13-1.83,6.47-1.69Zm6.9,14.36c0-1.26-.91-2.03-2.35-2.03-1.27,0-2.11.85-2.12,2.12-.01,1.34,1.09,2.56,2.3,2.56,1.2,0,2.18-1.2,2.17-2.65Z"/><path class="cls-3" d="m64.19,36.61c-1.68,1.48-2.99,3.08-4.13,4.81-.29.44-.48.35-.79.05-.62-.59-1.16-1.26-1.5-2.03-1.78-4.13-5.22-5.84-9.37-6.57-2.72-.48-5.46-.46-8.34-.24,1.02-.97,2.02-1.77,3.04-2.55,4.03-3.11,8.44-5.54,13.23-7.25.42-.15.63-.07.88.26,1.51,1.97,2.46,4.21,3.25,6.53.52,1.51,1.03,3.02,1.44,4.56.32,1.21.89,2.1,2.28,2.43Z"/><path class="cls-4" d="m76.55,53.84c-.03,1.33-1,2.21-2.4,2.18-1.44-.04-2.58-1.21-2.55-2.62.03-1.26.98-2.24,2.15-2.22,1.52.03,2.83,1.28,2.8,2.66Z"/><path class="cls-4" d="m48.61,50.02c0,1.45-.98,2.65-2.17,2.65-1.21,0-2.31-1.23-2.3-2.56,0-1.27.86-2.12,2.12-2.12,1.44,0,2.34.78,2.35,2.03Z"/></g></svg>