<?xml version="1.0" encoding="UTF-8"?><svg id="Layer_1" xmlns="http://www.w3.org/2000/svg" viewBox="0 0 128 128"><defs><style>.cls-1,.cls-2,.cls-3{stroke-width:0px;}.cls-2{fill:#74f9d7;}.cls-3{fill:#61d49d;}</style></defs><circle class="cls-1" cx="64" cy="64" r="63.5"/><g id="CETUS"><path class="cls-2" d="m87.42,46.47c-.3,2.31-1.55,3.97-3.56,5.06-2.19,1.19-4.57,1.46-7.12,1.43.72-1.65,1.27-3.25,1.45-4.97.76-7.42-4.08-14.09-11.34-15.59-7.92-1.63-15.7,3.8-16.93,11.82-1.29,8.32,4.92,15.98,13.31,16.36,7.32.33,14.65.06,21.97.14.4,0,.8.04,1.2.05-1.78,6.27-5.02,11.7-9.6,16.3-3.49,3.5-7.55,6.22-12.15,8.1-6.32,2.58-12.85,3.41-19.62,2.5-2.1-.28-4.13-.85-6.19-1.29-8.7-8.4-12.59-18.66-11.46-30.68,1.54-16.37,14.34-29.82,30.63-32.44,6.78-1.09,13.39-.41,19.77,2.17.46.19.9.45,1.34.67-.03.33.15.56.35.8,3.86,4.74,6.37,10.12,7.62,16.09.24,1.13.53,2.28.33,3.46Z"/><path class="cls-3" d="m38.85,86.39c2.06.44,4.09,1,6.19,1.29,6.77.91,13.3.08,19.62-2.5,4.6-1.88,8.66-4.6,12.15-8.1,4.58-4.59,7.83-10.03,9.6-16.3,4.6-.02,9.21-.02,13.81-.06.76,0,.58.47.55.87-.45,7.75-3.01,14.74-7.91,20.75-7.92,9.72-18.25,14.37-30.77,13.83-2.22-.1-3.57.42-5.13,1.99-5.92,5.94-13.17,8.02-21.43,6.64-.81-.14-.86-.44-.69-1.14,1.35-5.76,2.67-11.52,4.01-17.28Z"/><path class="cls-3" d="m87.42,46.47c.2-1.18-.1-2.33-.33-3.46-1.25-5.97-3.75-11.36-7.62-16.09-.2-.24-.38-.47-.35-.8,2.57.95,4.86,2.42,7.02,4.06,7.25,5.52,11.89,12.74,13.88,21.64.26,1.16.25,1.16-.94,1.11-1.72-.07-3.41-.32-5.04-.86-2.73-.9-4.86-2.53-6.12-5.18-.09-.19-.06-.62-.5-.42Z"/></g></svg>