<?xml version="1.0" encoding="utf-8"?>
<!-- Generator: Adobe Illustrator 25.4.1, SVG Export Plug-In . SVG Version: 6.00 Build 0)  -->
<svg version="1.1" id="Layer_1" xmlns="http://www.w3.org/2000/svg" xmlns:xlink="http://www.w3.org/1999/xlink" x="0px" y="0px"
	 width="128px" height="128px" viewBox="0 0 128 128" style="enable-background:new 0 0 128 128;" xml:space="preserve">
<style type="text/css">
	.st0{fill:#FFFFFF;}
</style>
<g>
	<path d="M64,0.5L64,0.5c35.1,0,63.5,28.4,63.5,63.5l0,0c0,35.1-28.4,63.5-63.5,63.5l0,0C28.9,127.5,0.5,99.1,0.5,64l0,0
		C0.5,28.9,28.9,0.5,64,0.5z"/>
	<g>
		<path class="st0" d="M64,105.5c-3,0-5.8-1.2-7.9-3.3L25.8,71.9c-4.3-4.3-4.3-11.4,0-15.7l30.4-30.4c2.1-2.1,4.9-3.3,7.9-3.3
			c3,0,5.8,1.2,7.9,3.3l30.4,30.4c2.1,2.1,3.3,4.9,3.3,7.9c0,3-1.2,5.8-3.3,7.9l-30.4,30.4C69.8,104.3,67,105.5,64,105.5z M64,27.8
			c-1.6,0-3,0.6-4.1,1.7L29.5,59.9c-2.3,2.3-2.3,6,0,8.2l30.4,30.4c1.1,1.1,2.6,1.7,4.1,1.7s3-0.6,4.1-1.7l30.4-30.4
			c1.1-1.1,1.7-2.6,1.7-4.1s-0.6-3-1.7-4.1L68.1,29.5C67,28.4,65.6,27.8,64,27.8z"/>
	</g>
	<path class="st0" d="M42.7,42.8l15.2-15.2c3.3-3.3,8.7-3.3,12,0L85,42.8L63.8,64L42.7,42.8z"/>
	<path class="st0" d="M42.7,85.2L63.9,64l21.2,21.2l-15.2,15.2c-3.3,3.3-8.7,3.3-12,0L42.7,85.2z"/>
</g>
</svg>
