<?xml version="1.0" encoding="UTF-8"?><svg id="CIRCLE_OUTLINE_BLACK" xmlns="http://www.w3.org/2000/svg" viewBox="0 0 512 512"><circle cx="256" cy="256" r="256" fill="#060606"/><path d="m313.44686,296.22502c-10.61343,20.04039-31.65112,33.71026-55.91128,33.71036-34.92771.00015-63.24301-28.31656-63.2431-63.24727-.00009-34.93071,28.31507-63.24901,63.24278-63.24916,24.26016-.0001,45.29792,13.66823,55.91145,33.70988l65.83819-.00028c-13.20887-55.06157-62.63222-96.03959-121.74979-96.03934-69.21742.00029-125.32869,56.11514-125.32852,125.33315.00017,69.22071,56.11173,125.33237,125.32915,125.33208,58.93915-.00025,108.23794-40.73538,121.62496-95.5497l-65.71383.00028Z" fill="#ffb0c2"/><path d="m356.63087,189.86233c14.13579-11.53124,23.16234-29.08808,23.16229-48.7532-.00009-34.73007-28.15419-62.88424-62.88397-62.88409-34.72976.00015-62.88374,28.15455-62.88365,62.88462,0,.01613.00014.03222.00015.04834,1.16595-.03206,2.33573-.04877,3.50943-.04877,40.36582-.00017,76.21176,19.10486,99.09576,48.7531Z" fill="#cb8ee9"/><path d="m316.90949,203.99375c15.06482-.00006,28.89232-5.29763,39.72137-14.13142-22.884-29.64824-58.72994-48.75327-99.09576-48.7531-1.1737,0-2.34348.01671-3.50943.04877.02621,34.70784,28.17018,62.8359,62.88381,62.83575Z" fill="#cb65b7"/></svg>