<?xml version="1.0" encoding="UTF-8"?><svg id="CIRCLE_OUTLINE_BLACK" xmlns="http://www.w3.org/2000/svg" viewBox="0 0 512 512"><circle cx="257.23422" cy="255.31552" r="220.27922" fill="#fff"/><path d="m303.78665,267.94666c0-3.41333,0-5.12-3.41335-6.82666-11.94668-8.53333-25.6-17.06667-37.54666-25.6-2.58271-1.72565-5.95062-1.72565-8.53333,0l-37.54666,27.30667c-3.19811,1.63127-5.18564,4.94382-5.12,8.53333-.07996,3.67928-1.26973,7.24858-3.41333,10.23999-1.72565,2.58271-1.72565,5.95062,0,8.53333,13.65334,27.30667,25.6,54.61335,39.25334,81.91999,5.12,8.53333,8.53333,18.77334,13.65334,29.01335,1.70667-1.70667,1.70667-3.41335,3.41333-5.11999,15.36001-34.13333,29.01333-68.26667,44.37332-102.4,1.70667-3.41335,1.70667-5.11999-1.70667-6.82666-3.88512-5.43366-5.13714-12.31989-3.41331-18.77336Z" fill="#cd0124"/><path d="m245.75999,223.57334c-34.13333-23.89333-68.26667-47.78667-100.69333-69.97334l-1.70667,1.70667c1.70667,3.41333,1.70667,5.12,3.41333,8.53333l35.83999,76.8c3.41333,6.82666,5.12,13.65334,15.35999,15.35999,2.9495.26562,5.91289-.32705,8.53333-1.70667,10.24001-8.53333,22.18667-15.35999,32.42666-23.89333l6.82669-6.82666Z" fill="#cd0124"/><path d="m256,0C114.6151,0,0,114.6151,0,256s114.6151,256,256,256,256-114.6151,256-256S397.3849,0,256,0Zm138.24001,148.48c-3.41335,0-5.11999,1.70667-6.82666,5.12-13.65332,34.13333-29.01335,68.26667-42.66667,102.4v6.82666c5.23483,11.07887.49727,24.30374-10.58161,29.53854-.99323.46934-2.01995.86423-3.07171,1.18145-1.70667,0-3.41331,1.70664-5.11999,5.11999-15.35999,34.13333-30.71999,69.97334-44.37334,104.10667-1.72565,2.58271-1.72565,5.95062,0,8.53333,6.61416,9.07835,5.12715,21.7179-3.41335,29.01335-7.39867,7.30859-19.05555,8.03717-27.30667,1.70667-8.95171-6.11243-11.2534-18.32435-5.14097-27.27604.00698-.01022.01396-.02044.02096-.03063,1.69912-3.20189,1.69912-7.03812,0-10.24001-17.06667-34.13333-32.42666-68.26667-49.49334-102.4-1.57599-3.5194-4.75384-6.06165-8.53333-6.82666-11.9013-1.97975-19.94432-13.23258-17.96457-25.13387.42697-2.56665,1.309-5.03638,2.60457-7.29279,1.72565-2.58271,1.72565-5.95062,0-8.53333-15.36001-34.13333-30.72-66.55999-47.78667-100.69333,0-1.70667-1.70667-3.41333-6.82667-3.41333-10.3519-1.4555-18.2218-10.04084-18.77333-20.48.64289-9.66009,6.54446-18.18457,15.36-22.18666,9.47536-3.67048,20.22201-.08826,25.60001,8.53333,1.70667,3.41333,3.41333,3.41333,8.53333,3.41333h216.74665c3.41335,0,6.82666,0,8.53333-5.12,4.80837-8.30185,14.91374-11.9109,23.89333-8.53333,8.65374,3.27649,14.6376,11.255,15.35999,20.48.13128,11.03538-7.86839,20.48957-18.77331,22.18667Z" fill="#cd0124"/><path d="m256,211.62666c2.58271,1.72565,5.95062,1.72565,8.53333,0,32.42666-23.89333,64.85332-46.08,95.57334-69.97334,1.70667-1.70667,3.41335-1.70667,3.41335-3.41333v-1.70666h-215.04002c1.95275.71654,3.70752,1.88638,5.12,3.41333l102.4,71.68Z" fill="#cd0124"/><path d="m273.06667,223.57334c13.65332,10.24001,27.30667,18.77334,40.95999,27.30667,3.41335,1.70667,8.53333,0,13.65332,0,1.70667,0,3.41335-3.41333,3.41335-5.12,11.94668-27.30667,23.89333-56.32,35.84001-83.62668,0-1.70667,1.70667-3.41333,1.70667-5.12h-1.70667c-29.01335,20.48-61.44001,42.66667-93.86667,66.56001Z" fill="#cd0124"/></svg>