<svg xmlns="http://www.w3.org/2000/svg" width="100" height="100" viewBox="0 0 100 100" fill="none"><g clip-path="url(#clip0_101_22046)"><path d="M50 100C77.6142 100 100 77.6142 100 50C100 22.3858 77.6142 0 50 0C22.3858 0 0 22.3858 0 50C0 77.6142 22.3858 100 50 100Z" fill="#005596"></path><path d="M49.9999 98.7333C76.9146 98.7333 98.7333 76.9146 98.7333 49.9999C98.7333 23.0853 76.9146 1.2666 49.9999 1.2666C23.0853 1.2666 1.2666 23.0853 1.2666 49.9999C1.2666 76.9146 23.0853 98.7333 49.9999 98.7333Z" fill="#005596"></path><path d="M50 2.53333C76.1714 2.53333 97.4667 23.8286 97.4667 50C97.4667 76.1714 76.1714 97.4667 50 97.4667C23.8286 97.4667 2.53333 76.1714 2.53333 50C2.53333 23.8286 23.8286 2.53333 50 2.53333ZM50 0C22.3857 0 0 22.3857 0 50C0 77.6143 22.3857 100 50 100C77.6143 100 100 77.6143 100 50C100 22.3857 77.6143 0 50 0Z" fill="#005596"></path><path d="M50 100C77.6142 100 100 77.6142 100 50C100 22.3858 77.6142 0 50 0C22.3858 0 0 22.3858 0 50C0 77.6142 22.3858 100 50 100Z" fill="#6CADDF"></path><path d="M50 2.53333C76.1714 2.53333 97.4667 23.8286 97.4667 50C97.4667 76.1714 76.1714 97.4667 50 97.4667C23.8286 97.4667 2.53333 76.1714 2.53333 50C2.53333 23.8286 23.8286 2.53333 50 2.53333ZM50 0C22.3857 0 0 22.3857 0 50C0 77.6143 22.3857 100 50 100C77.6143 100 100 77.6143 100 50C100 22.3857 77.6143 0 50 0Z" fill="white"></path><path d="M50.0005 16.519C31.5433 16.519 16.5195 31.5381 16.5195 50C16.5195 68.4619 31.5386 83.4809 50.0005 83.4809C68.4624 83.4809 83.4814 68.4571 83.4814 50C83.4814 31.5429 68.4624 16.519 50.0005 16.519Z" fill="#00295C"></path><path d="M79.9952 50.0001C79.9952 33.4335 66.5667 20.0049 49.9952 20.0049C33.4333 20.0049 20 33.4335 20 50.0001C20 66.5715 33.4333 79.9954 49.9952 79.9954C66.5571 79.9954 79.9952 66.5668 79.9952 50.0001Z" fill="white"></path><path d="M69.0958 50C69.0958 39.4572 60.5434 30.9048 49.9957 30.9048C39.4481 30.9048 30.9053 39.4524 30.9053 50C30.9053 60.5476 39.4529 69.0953 49.9957 69.0953C60.5386 69.0953 69.0958 60.5476 69.0958 50Z" fill="#6FADDC"></path><path d="M49.9953 70.6093C38.6334 70.6093 29.3857 61.3617 29.3857 49.9998C29.3857 38.6379 38.6334 29.395 49.9953 29.395C61.3619 29.395 70.6048 38.6379 70.6048 49.9998C70.6048 61.3617 61.3572 70.6093 49.9953 70.6093ZM49.9953 30.5474C39.2667 30.5474 30.5381 39.2712 30.5381 49.9998C30.5381 60.7284 39.2667 69.4569 49.9953 69.4569C60.7238 69.4569 69.4572 60.7284 69.4572 49.9998C69.4572 39.2712 60.7286 30.5474 49.9953 30.5474Z" fill="#00295C"></path><path d="M49.9954 82.1097C32.2906 82.1097 17.8906 67.7049 17.8906 49.9954C17.8906 32.2859 32.2954 17.8906 49.9954 17.8906C67.6954 17.8906 82.1049 32.2954 82.1049 50.0001C82.1049 67.7049 67.7001 82.1144 49.9954 82.1144M49.9954 18.5906C32.6763 18.5906 18.5859 32.6811 18.5859 50.0001C18.5859 67.3192 32.6763 81.4144 49.9954 81.4144C67.3192 81.4144 81.4097 67.324 81.4097 50.0001C81.4097 32.6811 67.3192 18.5906 49.9954 18.5906Z" fill="#6FADDC"></path><path d="M23.2004 49.2668L22.6575 49.4001L22.5146 48.843L23.4099 48.5763H23.8766V51.7096H23.2004V49.2715V49.2668ZM24.6623 50.8525V50.843C24.6623 50.4668 24.8337 50.243 25.167 50.0953C24.9289 49.9477 24.7718 49.7477 24.7718 49.4144V49.4049C24.7718 48.9287 25.2051 48.5525 25.8623 48.5525C26.5194 48.5525 26.9575 48.9239 26.9575 49.4049V49.4144C26.9575 49.7477 26.8004 49.9477 26.5623 50.0953C26.8766 50.2573 27.0623 50.4573 27.0623 50.8287V50.8382C27.0623 51.4144 26.5527 51.7525 25.8623 51.7525C25.1718 51.7525 24.6623 51.3953 24.6623 50.8573V50.8525ZM26.4004 50.8001V50.7906C26.4004 50.5525 26.1718 50.4096 25.8623 50.4096C25.5527 50.4096 25.3242 50.5525 25.3242 50.7906V50.8001C25.3242 51.0144 25.5242 51.1858 25.8623 51.1858C26.2004 51.1858 26.4004 51.0144 26.4004 50.8001ZM26.3051 49.4906V49.4811C26.3051 49.2906 26.1385 49.1144 25.8575 49.1144C25.5766 49.1144 25.4146 49.2858 25.4146 49.4715V49.4811C25.4146 49.7001 25.5861 49.862 25.8575 49.862C26.1289 49.862 26.3051 49.7001 26.3051 49.4858V49.4906ZM74.0194 50.4334C73.8575 50.5668 73.6527 50.6477 73.3908 50.6477C72.7146 50.6477 72.2813 50.2763 72.2813 49.643V49.6334C72.2813 49.0049 72.767 48.543 73.467 48.543C73.8861 48.543 74.1289 48.643 74.367 48.8811C74.5861 49.1049 74.7337 49.443 74.7337 50.0525V50.062C74.7337 51.0715 74.2575 51.762 73.3765 51.762C72.9242 51.762 72.6146 51.6096 72.3527 51.3906L72.7146 50.8715C72.9432 51.0525 73.1337 51.1382 73.3956 51.1382C73.867 51.1382 74.0004 50.6954 74.0242 50.4334H74.0194ZM74.0337 49.6144V49.6049C74.0337 49.3287 73.8289 49.1287 73.4861 49.1287C73.1432 49.1287 72.9575 49.3239 72.9575 49.6001V49.6096C72.9575 49.8858 73.1623 50.0763 73.5004 50.0763C73.8385 50.0763 74.0337 49.8811 74.0337 49.6144ZM76.9194 51.0382H75.4004L75.2908 50.5525L76.9956 48.5715H77.5718V50.4763H77.9908V51.0334H77.5718V51.7049H76.9194V51.0334V51.0382ZM76.9194 50.4811V49.5144L76.0908 50.4811H76.9194Z" fill="#6FADDC"></path><path d="M50.0001 69.462C39.2715 69.462 30.543 60.7287 30.543 50.0001C30.543 39.2715 39.2763 30.543 50.0001 30.543C60.7239 30.543 69.462 39.2715 69.462 50.0001C69.462 60.7334 60.7334 69.462 50.0001 69.462ZM50.0001 31.262C39.6715 31.262 31.262 39.6668 31.262 50.0001C31.262 60.3334 39.6715 68.743 50.0001 68.743C60.3287 68.743 68.743 60.3334 68.743 50.0001C68.743 39.6668 60.3334 31.262 50.0001 31.262Z" fill="white"></path><path fill-rule="evenodd" clip-rule="evenodd" d="M49.6433 33.2524C40.0386 33.2524 34.4957 34.5096 34.4957 34.5096C34.4957 34.5096 32.2814 42.9239 33.5386 53.7096C34.0671 58.2334 37.7481 67.9715 49.9433 71.2953C62.1386 67.9715 65.8147 58.2334 66.3433 53.7096C67.6052 42.9239 65.3862 34.5096 65.3862 34.5096C65.3862 34.5096 59.8433 33.2524 50.2386 33.2524H49.6338H49.6433Z" fill="#00295C"></path><path fill-rule="evenodd" clip-rule="evenodd" d="M64.2526 50.6521C64.6335 42.5521 63.2574 35.976 63.2574 35.976C63.2574 35.976 57.9907 34.9712 49.9621 34.9712C41.9193 34.9712 36.5716 36.0855 36.5716 36.0855C36.5716 36.0855 35.1097 42.6902 35.5097 50.6521H64.2526Z" fill="white"></path><path fill-rule="evenodd" clip-rule="evenodd" d="M64.672 51.1953C64.6672 51.3715 64.6577 51.5715 64.6482 51.7906C64.6482 51.8144 64.6482 51.8334 64.6482 51.8572C64.6482 51.881 64.6482 51.9001 64.6482 51.9239C64.6339 52.2096 64.6101 52.5191 64.5815 52.8572C64.4815 53.9096 64.2768 55.2048 63.8339 56.6239C63.4672 57.7906 62.9387 59.0429 62.172 60.3144C61.5339 61.381 60.7244 62.462 59.7006 63.5239C58.9672 64.2905 58.1196 65.0429 57.1434 65.7715C56.1529 66.5144 55.0339 67.2286 53.7672 67.9048C52.7625 68.4429 51.6625 68.9525 50.4625 69.4286C50.2958 69.4953 50.1196 69.562 49.9482 69.6286C35.9482 64.4001 35.2148 54.2858 35.2148 51.2001H64.6768L64.672 51.1953Z" fill="#98C2E5"></path><path d="M50.4576 69.4238C50.2909 69.4904 50.1147 69.5571 49.9433 69.6238C35.9433 64.3952 35.21 54.2809 35.21 51.1952H35.3766L50.4576 69.4238ZM45.0576 51.1952H39.9147L53.7576 67.9C55.0242 67.2238 56.1433 66.5095 57.1338 65.7666L45.0528 51.1904L45.0576 51.1952ZM54.6147 51.1952H49.4719L59.6909 63.5238C60.71 62.4619 61.5195 61.3809 62.1623 60.3142L54.6147 51.1952ZM59.3147 51.1904H59.3195L63.8195 56.6238C64.2671 55.2047 64.4671 53.9095 64.5671 52.8571C64.5957 52.5142 64.6195 52.1952 64.6338 51.9238C64.6338 51.9 64.6338 51.8761 64.6338 51.8571C64.6338 51.8333 64.6338 51.8142 64.6338 51.7904C64.6481 51.5285 64.6576 51.3238 64.6576 51.1952H59.3004L59.3147 51.1904Z" fill="#6FAEDD"></path><path d="M55.9625 57.9713C55.9244 57.8522 55.8339 57.7618 55.7149 57.7189L54.8672 57.4237C54.791 57.3999 54.7149 57.3999 54.6387 57.4237C54.572 57.1284 54.4053 56.8618 54.1577 56.6856C54.1291 56.6618 54.0958 56.6427 54.0625 56.6237C54.0053 56.5856 53.9434 56.5522 53.8768 56.5237C53.7672 56.476 53.6577 56.4427 53.5482 56.4094C53.2958 56.3284 53.0577 56.2522 52.7434 56.0284C52.453 55.8189 52.3196 55.6237 52.191 55.4427C52.1577 55.3951 52.1291 55.3522 52.1006 55.3141C52.0149 55.1808 51.9101 55.0713 51.7815 54.976C51.5672 54.8189 51.3149 54.7427 51.0482 54.7427C50.991 54.7427 50.9339 54.7522 50.8768 54.7665C50.8768 54.7665 50.8768 54.7618 50.8768 54.757C50.891 54.6522 50.8672 54.5427 50.8053 54.457L50.2768 53.7522C50.2006 53.6522 50.0815 53.5903 49.9577 53.5903C49.8339 53.5903 49.7149 53.6475 49.6387 53.7427L49.091 54.4522C49.0244 54.5427 48.9958 54.657 49.0149 54.7665C48.9672 54.7665 48.9291 54.7522 48.8815 54.7522C48.6149 54.7522 48.3625 54.8332 48.1482 54.9856C48.1196 55.0094 48.091 55.0332 48.0625 55.057C48.0053 55.0999 47.9577 55.1427 47.9101 55.1999C47.8291 55.2903 47.7625 55.3808 47.7006 55.4713C47.5434 55.6856 47.4006 55.8856 47.0815 56.1094C46.791 56.3189 46.5672 56.3856 46.3482 56.4522C46.2958 56.4665 46.2434 56.4808 46.1958 56.4999C46.0434 56.538 45.9006 56.5999 45.772 56.6951C45.5196 56.876 45.3482 57.1522 45.2863 57.457C45.2006 57.4237 45.1053 57.4189 45.0149 57.4475L44.172 57.7284C44.053 57.7665 43.9577 57.8618 43.9196 57.9808C43.8815 58.0999 43.9006 58.2284 43.972 58.3284L44.4815 59.0618C44.5387 59.1427 44.6244 59.1951 44.7244 59.2189C44.5863 59.5046 44.5625 59.8332 44.6625 60.1332C44.672 60.1665 44.6863 60.2046 44.7006 60.238C44.7244 60.3046 44.7529 60.3618 44.791 60.4284C44.8529 60.5284 44.9196 60.6237 44.9863 60.7094C45.1434 60.9237 45.291 61.1237 45.4101 61.4903C45.5196 61.8284 45.5149 62.0618 45.5101 62.2856C45.5101 62.338 45.5101 62.3951 45.5101 62.4427C45.5006 62.5999 45.5196 62.7522 45.5672 62.8999C45.6672 63.1999 45.872 63.4379 46.1291 63.5856C46.0958 63.6427 46.072 63.7094 46.0768 63.776V64.657C46.0863 64.7808 46.1434 64.8999 46.2482 64.9713C46.3482 65.0427 46.4768 65.0665 46.5958 65.0284L47.4577 64.776C47.5339 64.7522 47.5958 64.6999 47.6434 64.6427C47.9006 64.8856 48.2625 65.0094 48.6101 64.9808C48.6768 64.9808 48.7434 64.9713 48.8196 64.9522C48.9387 64.9237 49.0482 64.8903 49.153 64.8522C49.4053 64.7713 49.6434 64.6951 50.0339 64.6951C50.3958 64.6951 50.6149 64.7713 50.8291 64.8475C50.8815 64.8665 50.9291 64.8856 50.9768 64.8999C51.1244 64.957 51.2815 64.9856 51.4387 64.9856C51.7529 64.9856 52.0625 64.8618 52.291 64.6427C52.3387 64.6999 52.3958 64.7475 52.472 64.7713L53.3196 65.0332C53.4387 65.0713 53.572 65.0522 53.672 64.9808C53.7768 64.9094 53.8339 64.7951 53.8387 64.6665L53.8625 63.776C53.8625 63.7046 53.8434 63.638 53.8101 63.5808C54.072 63.4332 54.2768 63.1951 54.372 62.8903C54.3863 62.8522 54.3958 62.8189 54.4053 62.7808C54.4244 62.7141 54.4339 62.6475 54.4387 62.576C54.4482 62.457 54.4482 62.3427 54.4482 62.2332C54.4482 61.9665 54.4482 61.7189 54.5672 61.3522C54.6768 61.0141 54.8196 60.8284 54.9577 60.6522C54.991 60.6094 55.0244 60.5665 55.053 60.5284C55.153 60.4094 55.2291 60.2713 55.2768 60.1237C55.3815 59.8141 55.3482 59.4713 55.2006 59.1808C55.2768 59.1522 55.3434 59.1141 55.391 59.0475L55.9053 58.3284C55.9815 58.2284 56.0006 58.0999 55.9625 57.9808V57.9713Z" fill="#00295C"></path><path d="M49.9722 55.657C49.8865 55.3522 49.7008 55.0903 49.458 54.9427L49.9722 54.2808L50.4722 54.9427C50.2246 55.1141 50.058 55.357 49.9722 55.657ZM45.9722 58.5808C45.7103 58.4093 45.5246 58.176 45.4389 57.8903L44.6484 58.1522L45.1294 58.8427C45.3484 58.6617 45.658 58.5665 45.9722 58.5808ZM47.5199 63.2093C47.2722 63.4046 46.9913 63.5046 46.6913 63.4998V64.3284L47.5103 64.0903C47.4008 63.8284 47.4103 63.5093 47.5199 63.2093ZM52.4294 63.2189C52.5389 63.5141 52.5484 63.8093 52.4532 64.0903L53.2484 64.3379L53.2675 63.4998C52.9818 63.5189 52.677 63.4189 52.4294 63.2189ZM53.9437 58.5903C54.2627 58.576 54.5484 58.6617 54.7865 58.8379L55.2722 58.1665L54.4722 57.8855C54.4056 58.1617 54.2103 58.4141 53.9437 58.595M48.9627 63.2427C48.5913 63.2427 48.2913 62.9427 48.2913 62.576C48.2913 62.5236 48.2437 62.5046 48.2151 62.5379C47.977 62.8331 47.7818 63.0903 47.777 63.4141C47.7675 63.8808 48.158 64.257 48.6246 64.257C48.6532 64.257 48.6818 64.2569 48.7103 64.2522C48.7532 64.2522 48.7961 64.2522 48.8532 64.2331C49.1865 64.1522 49.4722 63.9903 50.0389 63.9903C50.5103 63.9903 50.7627 64.1141 51.0103 64.195C51.1103 64.2379 51.2199 64.257 51.3342 64.257C51.8008 64.257 52.1913 63.8808 52.1818 63.4141C52.177 63.095 51.9818 62.8379 51.7437 62.5379C51.7199 62.5093 51.6818 62.5284 51.6818 62.576C51.6818 62.9427 51.377 63.2427 51.0056 63.2427C50.7246 63.2427 50.3627 63.0046 50.0103 63.0046C49.6818 63.0046 49.2437 63.2427 48.9627 63.2427ZM48.5199 62.3236C48.5199 62.6331 48.7722 62.8855 49.0818 62.8855C49.1151 62.8855 49.1484 62.8855 49.1961 62.876C49.2103 62.876 49.2246 62.8665 49.2389 62.8617C49.2484 62.8617 49.2532 62.8617 49.258 62.857C49.4484 62.795 49.6342 62.7046 49.9675 62.7046C50.3008 62.7046 50.4818 62.7998 50.6675 62.8474C50.7294 62.8712 50.7961 62.8855 50.8675 62.8855C51.177 62.8855 51.4294 62.6331 51.4294 62.3236C51.4294 62.0141 51.4103 62.1665 51.3818 62.095C51.3675 62.0665 51.3532 62.0379 51.3342 62.0141C51.3342 62.0141 50.3818 60.7236 50.3532 60.6855C50.3056 60.6236 50.2484 60.6522 50.2056 60.6617C50.1627 60.676 50.0437 60.7046 49.9675 60.7046C49.8913 60.7046 49.7913 60.6903 49.7342 60.6617C49.6722 60.6379 49.6246 60.6189 49.5818 60.6855C49.5484 60.7379 48.8627 61.657 48.6484 61.957C48.5627 62.057 48.5103 62.1808 48.5103 62.3189L48.5199 62.3236ZM52.8913 61.895C52.777 62.2474 52.3961 62.4379 52.0437 62.3236C51.9961 62.3093 51.958 62.3427 51.9865 62.3855C52.1961 62.6998 52.3818 62.9617 52.6913 63.0665C53.1342 63.2189 53.6151 62.9665 53.7627 62.5284C53.7722 62.4998 53.777 62.4712 53.7818 62.4427C53.7961 62.4046 53.8056 62.357 53.8103 62.3046C53.8342 61.9617 53.7675 61.6474 53.9437 61.1093C54.0865 60.6712 54.2865 60.4712 54.4389 60.257C54.5103 60.176 54.5627 60.0808 54.6008 59.976C54.7437 59.5331 54.5056 59.0522 54.058 58.9189C53.7484 58.8236 53.4389 58.9284 53.0818 59.0617C53.0484 59.076 53.0532 59.1141 53.0961 59.1284C53.4532 59.2427 53.6484 59.6236 53.5294 59.9712C53.4389 60.2379 53.1008 60.4998 52.9913 60.8331C52.8913 61.1427 52.9818 61.6284 52.8961 61.895H52.8913ZM51.8722 62.0284C52.1675 62.1236 52.4865 61.9617 52.5818 61.6712C52.5961 61.6427 52.6008 61.6046 52.6056 61.5617C52.6056 61.5474 52.6056 61.5331 52.6056 61.5141C52.6056 61.5093 52.6056 61.4998 52.6056 61.495C52.6056 61.2903 52.577 61.0903 52.677 60.776C52.7865 60.4474 52.9294 60.3189 53.0342 60.157C53.077 60.1046 53.1056 60.0474 53.1294 59.9808C53.2246 59.6855 53.0627 59.3712 52.7675 59.276C52.6913 59.2522 52.6103 59.2474 52.5342 59.2522C52.5008 59.2522 52.4722 59.2617 52.4437 59.2665C52.4437 59.2665 50.9151 59.7617 50.8675 59.7808C50.7961 59.8093 50.8008 59.8712 50.8008 59.9189C50.8008 59.9617 50.7913 60.0808 50.7675 60.157C50.7437 60.2284 50.6961 60.3141 50.6532 60.3617C50.6103 60.4141 50.577 60.4522 50.6294 60.5093C50.6722 60.557 51.3389 61.4855 51.5627 61.7808C51.6294 61.8903 51.7342 61.976 51.8722 62.0236V62.0284ZM52.7961 57.7522C53.1008 57.9712 53.1675 58.3855 52.9437 58.6855C52.9151 58.7236 52.9437 58.7712 52.9865 58.757C53.358 58.657 53.6627 58.5617 53.858 58.3046C54.1389 57.9331 54.0484 57.4046 53.6722 57.1284C53.6484 57.1141 53.6246 57.095 53.5961 57.0808C53.5627 57.057 53.5246 57.0331 53.4722 57.0141C53.1532 56.8855 52.8246 56.8522 52.3675 56.5189C51.9865 56.2474 51.858 55.9998 51.7008 55.7903C51.6484 55.6998 51.5722 55.6189 51.477 55.5522C51.1008 55.2808 50.5627 55.357 50.2913 55.7379C50.1056 55.9998 50.1103 56.3236 50.1294 56.6998C50.1294 56.7379 50.177 56.7427 50.1961 56.7093C50.4151 56.4093 50.8389 56.3474 51.1389 56.5617C51.3675 56.7236 51.5151 57.1284 51.8008 57.3331C52.0627 57.5236 52.558 57.5855 52.7865 57.7474L52.7961 57.7522ZM52.6103 58.7522C52.7961 58.5046 52.7389 58.1522 52.4865 57.976C52.4627 57.9522 52.4341 57.9331 52.3913 57.9189C52.377 57.9141 52.3627 57.9093 52.3484 57.9046C52.3437 57.9046 52.3341 57.8998 52.3294 57.8998C52.1389 57.8331 51.9294 57.7998 51.6627 57.6093C51.3818 57.4046 51.3056 57.2331 51.1818 57.0808C51.1437 57.0284 51.1008 56.976 51.0437 56.9379C50.7913 56.757 50.4389 56.8141 50.258 57.0617C50.2103 57.1284 50.177 57.1998 50.1627 57.276C50.158 57.3046 50.1484 57.3379 50.1484 57.3665C50.1484 57.3665 50.1532 58.9617 50.158 59.0093C50.158 59.0855 50.2246 59.0998 50.2675 59.1141C50.3103 59.1284 50.4246 59.176 50.4865 59.2189C50.5484 59.2617 50.6199 59.3331 50.6532 59.3903C50.6865 59.4474 50.7199 59.4903 50.7865 59.4617C50.8484 59.4379 51.9437 59.0903 52.2913 58.976C52.4199 58.9474 52.5341 58.8712 52.6151 58.7617L52.6103 58.7522ZM48.8008 56.5712C49.1008 56.3522 49.5246 56.4189 49.7437 56.7189C49.7722 56.757 49.8199 56.7474 49.8246 56.6998C49.8437 56.3236 49.8437 55.9998 49.6627 55.7379C49.3961 55.357 48.858 55.2808 48.477 55.5522C48.4532 55.5712 48.4294 55.5903 48.4056 55.6093C48.3722 55.6331 48.3389 55.6617 48.3008 55.7046C48.077 55.9617 47.9484 56.2617 47.4865 56.5903C47.1056 56.8617 46.8294 56.9093 46.5818 56.9903C46.477 57.0189 46.377 57.0617 46.2818 57.1284C45.9056 57.3998 45.8103 57.9331 46.0961 58.3046C46.2913 58.5617 46.6008 58.657 46.9675 58.757C47.0056 58.7665 47.0199 58.7284 46.9961 58.695C46.777 58.395 46.8437 57.976 47.1437 57.7617C47.3722 57.595 47.8056 57.5808 48.0865 57.376C48.3532 57.1855 48.5627 56.7379 48.7913 56.576L48.8008 56.5712ZM49.7056 57.057C49.5246 56.8093 49.1675 56.7522 48.9199 56.9331C48.8913 56.9522 48.8627 56.9712 48.8342 57.0046C48.8246 57.0189 48.8151 57.0284 48.8056 57.0379C48.8008 57.0474 48.7961 57.0474 48.7913 57.057C48.6675 57.2189 48.577 57.3998 48.3056 57.595C48.0246 57.795 47.8342 57.8141 47.6532 57.8855C47.5913 57.9046 47.5294 57.9284 47.4722 57.9712C47.2199 58.1522 47.1627 58.5046 47.3484 58.7522C47.3961 58.8141 47.458 58.8665 47.5246 58.9093C47.5532 58.9236 47.577 58.9379 47.6056 58.9474C47.6056 58.9474 49.1389 59.4379 49.1865 59.4522C49.2627 59.4712 49.2961 59.4189 49.3199 59.3808C49.3484 59.3474 49.4246 59.2522 49.4865 59.2046C49.5484 59.1617 49.6389 59.1189 49.7008 59.1046C49.7627 59.0903 49.8151 59.076 49.8103 58.9998C49.8056 58.9379 49.8103 57.795 49.8103 57.4284C49.8199 57.2998 49.7865 57.1665 49.7056 57.0522V57.057ZM46.4437 59.9808C46.3294 59.6284 46.5199 59.2522 46.877 59.1379C46.9246 59.1236 46.9294 59.0712 46.8865 59.057C46.5294 58.9236 46.2199 58.8189 45.9151 58.9141C45.4675 59.0474 45.2246 59.5284 45.3722 59.9712C45.3818 59.995 45.3913 60.0236 45.4056 60.0522C45.4199 60.0903 45.4389 60.1331 45.4627 60.176C45.6437 60.4712 45.8913 60.6855 46.0627 61.2189C46.2103 61.6617 46.1627 61.9379 46.1675 62.195C46.158 62.2998 46.1675 62.4093 46.2056 62.5189C46.3532 62.9617 46.8342 63.2093 47.277 63.057C47.5818 62.9522 47.7722 62.6903 47.977 62.3712C48.0008 62.3379 47.9675 62.3141 47.9246 62.3236C47.5722 62.4379 47.1913 62.2474 47.077 61.895C46.9913 61.6284 47.1056 61.2189 47.0008 60.8855C46.9008 60.576 46.5342 60.2379 46.4484 59.976L46.4437 59.9808ZM47.1865 59.276C46.8913 59.376 46.7294 59.6855 46.8246 59.9808C46.8294 60.0141 46.8437 60.0427 46.8675 60.0808C46.877 60.095 46.8865 60.1046 46.8961 60.1189C46.8961 60.1236 46.9008 60.1284 46.9056 60.1379C47.0246 60.2998 47.1722 60.4474 47.2722 60.7617C47.377 61.0903 47.3389 61.276 47.3484 61.4665C47.3484 61.5284 47.3532 61.5951 47.377 61.6617C47.4722 61.9522 47.7913 62.1141 48.0865 62.0189C48.1627 61.9951 48.2342 61.9522 48.2913 61.8998C48.3151 61.8808 48.3389 61.857 48.358 61.8331C48.358 61.8331 49.3008 60.5427 49.3294 60.4998C49.3722 60.4379 49.3294 60.3855 49.3056 60.3522C49.2818 60.3141 49.2151 60.2141 49.1913 60.1427C49.1675 60.0712 49.1532 59.9712 49.158 59.9093C49.1675 59.8427 49.1675 59.7903 49.0913 59.776C49.0294 59.7617 47.9341 59.3998 47.5818 59.2903C47.458 59.2379 47.3246 59.2331 47.1913 59.2712L47.1865 59.276Z" fill="#EA332E"></path><path d="M49.4861 59.8715C49.4861 59.6001 49.71 59.3763 49.9861 59.3763C50.2623 59.3763 50.4861 59.6001 50.4861 59.8715C50.4861 60.143 50.2623 60.3668 49.9861 60.3668C49.71 60.3668 49.4861 60.143 49.4861 59.8715ZM54.61 47.9477L58.8576 46.4763C58.8576 46.4763 58.029 45.3763 57.9242 43.943C57.8433 42.8287 58.1338 41.3953 58.1338 41.3953L54.6909 42.5811L54.61 47.9477ZM40.1004 47.1334C41.0052 47.2239 41.7861 47.3906 41.7861 47.3906C41.7861 47.3906 41.5909 46.1525 41.7671 45.1715C42.048 43.5811 42.7195 42.6239 42.7195 42.6239C42.7195 42.6239 41.9576 42.9763 40.8004 44.1477C39.2671 45.7049 38.748 47.1239 38.748 47.1239C38.748 47.1239 39.3385 47.0525 40.1004 47.1334ZM49.3052 37.6049C49.3052 37.6049 49.3195 37.6049 49.3242 37.6049C49.4004 37.5953 49.4338 37.5525 49.448 37.5001C49.448 37.4953 49.448 37.5049 49.448 37.4953C49.4576 37.4525 49.4861 37.4144 49.5242 37.3953L49.4195 37.0811C49.329 37.1096 49.2861 37.1763 49.2861 37.2001C49.2861 37.243 49.2576 37.2668 49.2099 37.2858L49.3052 37.6096V37.6049ZM44.1052 40.8525C44.1052 40.8525 44.1195 40.8525 44.1242 40.8525C44.2004 40.843 44.2385 40.8001 44.2433 40.7477C44.2433 40.743 44.2433 40.7477 44.2433 40.7382C44.2528 40.6953 44.2814 40.662 44.3195 40.643L44.2147 40.3239C44.1242 40.3525 44.0861 40.4191 44.0814 40.443C44.0814 40.4858 44.0528 40.5096 44.0052 40.5287L44.1004 40.8525H44.1052ZM53.7528 40.0382C53.7528 40.0382 53.7671 40.0382 53.7719 40.0382C53.848 40.0287 53.8861 39.9858 53.8957 39.9334C53.8957 39.9239 53.8957 39.9334 53.8957 39.9239C53.9052 39.8811 53.9338 39.843 53.9719 39.8239L53.8671 39.5049C53.7719 39.5334 53.7338 39.6001 53.7338 39.6239C53.7338 39.6668 53.7052 39.6906 53.6576 39.7096L53.7528 40.0334V40.0382ZM44.1052 44.4477C45.5766 43.943 47.21 43.9192 47.21 43.9192C47.21 43.9192 46.6385 43.4191 46.4385 42.5287C46.2719 41.7906 46.5099 41.3096 46.5099 41.3096L43.2576 42.4239C43.248 42.4525 42.7576 42.8763 42.6957 43.8572C42.6433 44.8144 43.129 45.1049 43.129 45.1049C43.129 45.1049 43.3861 44.6953 44.1052 44.4477ZM50.6814 47.5763C52.51 47.3477 54.6242 47.9572 54.6242 47.9572C54.6242 47.9572 53.51 46.4477 53.2195 45.2382C52.9623 44.1668 53.2433 43.0382 53.2433 43.0382L48.1576 44.7906C48.1576 44.7906 47.4909 45.5096 47.6623 46.5001C47.8814 47.7477 48.7766 48.4287 48.7766 48.4287C48.7766 48.4287 48.9385 47.8001 50.6814 47.5811V47.5763ZM48.2385 41.4382C48.2385 41.4382 48.329 40.9953 49.2623 40.6668C50.9433 40.0811 52.3766 40.1572 52.3766 40.1572C52.3766 40.1572 51.848 39.6668 51.7338 38.7287C51.6766 38.2382 51.9147 37.662 51.9147 37.662L48.2623 38.9287C48.2338 38.962 47.6957 39.5763 47.729 40.3477C47.7766 41.3049 48.2338 41.4334 48.2338 41.4334L48.2385 41.4382Z" fill="#FCC661"></path><path d="M43.5625 48.1715C43.5625 48.1715 42.9196 47.6906 42.753 46.8048C42.5816 45.8953 43.0292 45.3572 43.0292 45.3572L47.2101 43.9239C47.2101 43.9239 46.953 44.7525 47.1958 45.7001C47.5054 46.9001 48.1482 47.7001 48.1482 47.7001C48.1482 47.7001 46.6149 47.4144 45.1292 47.6001C43.7149 47.7763 43.5625 48.1763 43.5625 48.1763V48.1715ZM48.253 44.5667C48.253 44.5667 47.7244 43.9572 47.6244 43.0191C47.5196 42.0382 48.1054 41.6429 48.1482 41.6191L52.372 40.1572C52.372 40.1572 52.2577 40.462 52.3625 41.3144C52.453 42.0287 53.1577 43.0048 53.1577 43.0048C53.1577 43.0048 50.9101 43.062 49.5101 43.6048C48.6292 43.9477 48.253 44.562 48.253 44.562V44.5667Z" fill="#FDC661"></path><path d="M54.858 47.8714V48.4999H54.4723L54.558 39.7571C54.3675 39.7761 54.0723 39.8095 54.0247 39.8142C53.9628 39.8142 53.9056 39.8618 53.8913 39.9285C53.8913 39.9428 53.8913 39.9285 53.8913 39.938C53.8818 39.9904 53.8437 40.0333 53.7675 40.0428C53.7104 40.0428 53.1485 40.0904 52.7628 40.1047C52.7199 40.1047 52.6961 40.0476 52.758 40.0285C53.0913 39.9142 53.5628 39.7476 53.6294 39.7285C53.6913 39.7095 53.7247 39.6857 53.7294 39.6333C53.7294 39.6047 53.7723 39.538 53.8723 39.5142C53.958 39.4904 54.7723 39.1999 54.7723 39.1999L54.8437 47.3285C54.9628 46.9142 55.2342 46.3142 55.8628 45.619C57.4151 43.9095 57.9675 42.0571 58.1199 41.3999C57.958 42.3857 57.8628 43.2047 57.958 44.1476C58.0866 45.4047 58.8437 46.4857 58.8437 46.4857L54.8485 47.8761L54.858 47.8714ZM41.1485 47.2571C41.5913 47.3571 41.7961 47.3999 41.7961 47.3999C41.7961 47.3999 41.6009 46.1618 41.777 45.1809C42.058 43.5904 42.7151 42.6285 42.7151 42.6285C42.7151 42.6285 39.2723 46.8285 41.1485 47.2571ZM45.1675 43.7809L45.1342 40.019H45.1247C45.0342 40.0476 44.3104 40.3047 44.2294 40.3237C44.1294 40.3523 44.0866 40.419 44.0866 40.4476C44.0866 40.4952 44.0485 40.5237 43.9866 40.5428C43.9199 40.5618 43.4485 40.7285 43.1151 40.8428C43.0532 40.8666 43.077 40.9237 43.1247 40.9237C43.5104 40.9047 44.0675 40.8618 44.1247 40.8571C44.2009 40.8476 44.239 40.8047 44.2485 40.7523C44.2485 40.7476 44.2485 40.7523 44.2485 40.7428C44.2628 40.6809 44.3151 40.6333 44.3818 40.6285C44.4247 40.6285 44.7104 40.5952 44.9009 40.5714L44.8723 43.7809H45.1675ZM50.0437 40.3809H50.3342V36.7666H50.3294C50.3294 36.7666 49.5104 37.0523 49.4294 37.0761C49.3294 37.1047 49.2866 37.1714 49.2866 37.1999C49.2866 37.2523 49.2485 37.2761 49.1866 37.2952C49.1199 37.3142 48.6485 37.4809 48.3151 37.5952C48.2532 37.6142 48.277 37.6761 48.3199 37.6761C48.7056 37.6571 49.2628 37.6142 49.3199 37.6095C49.3961 37.5999 49.4342 37.5571 49.4437 37.5047C49.4437 37.4999 49.4437 37.5095 49.4437 37.4999C49.458 37.438 49.5104 37.3904 49.577 37.3857C49.6199 37.3857 49.8961 37.3523 50.0818 37.3285L50.0485 40.3856L50.0437 40.3809ZM48.139 47.6952C48.139 47.6952 47.4628 46.719 47.2056 45.6761C46.9818 44.7856 47.2056 43.9237 47.2056 43.9237C47.2056 43.9237 46.758 45.4571 45.6961 46.2904C44.9532 46.8761 43.1532 47.4142 43.5628 48.1714C43.6199 48.0666 43.8056 47.8714 44.5532 47.6999C44.6437 47.6809 44.7342 47.6618 44.8294 47.6476V48.8904H45.2151V47.5952C46.5866 47.4523 48.139 47.6952 48.139 47.6952ZM43.1294 45.1095C43.2104 44.9809 43.5104 44.6047 44.4532 44.3428C45.8866 43.9476 47.2056 43.9237 47.2056 43.9237C47.2056 43.9237 46.6532 43.4285 46.4723 42.4809C46.3675 41.9333 46.5009 41.3047 46.5009 41.3047C46.5009 41.3047 45.9913 42.2809 45.0532 43.0523C44.0961 43.8428 42.8151 44.3952 43.1247 45.1095H43.1294ZM48.2294 41.438C48.2866 41.2428 48.6913 40.8856 49.3294 40.6618C50.8247 40.1428 52.3723 40.1571 52.3723 40.1571C52.3723 40.1571 51.8437 39.6666 51.7294 38.7285C51.6723 38.238 51.9104 37.6618 51.9104 37.6618C51.9104 37.6618 51.2723 38.7952 50.6199 39.3666C49.7151 40.1618 48.0056 40.7095 48.2342 41.4333L48.2294 41.438ZM48.2532 44.5666C48.339 44.4047 48.9151 43.8523 49.8437 43.5428C51.2723 43.0666 53.2342 43.038 53.2342 43.038C53.2342 43.038 52.5913 42.2714 52.377 41.3476C52.258 40.8285 52.3723 40.1618 52.3723 40.1618C52.3723 40.1618 51.9628 41.338 51.0485 42.1237C50.1342 42.9095 48.0628 43.7856 48.258 44.5666H48.2532ZM54.7009 48.0285C54.7009 48.0285 53.5485 46.5476 53.2199 45.2333C53.0009 44.3666 53.1628 43.3809 53.2342 43.0428C53.1104 43.5047 52.639 44.9952 51.5199 46.0285C50.4485 47.019 48.3199 47.5047 48.7723 48.438C48.8532 48.2857 49.0961 47.9333 49.958 47.719L49.939 48.919H50.3437V47.6428C52.2247 47.3428 54.6961 48.0333 54.6961 48.0333L54.7009 48.0285Z" fill="#D3A030"></path><path fill-rule="evenodd" clip-rule="evenodd" d="M56.6622 50.8236C56.9289 50.7712 57.1955 50.7141 57.586 50.6141C57.5622 50.5998 57.5432 50.5855 57.5241 50.5664C57.0908 50.0903 57.1717 49.5807 57.4336 49.3379C58.3813 48.4474 58.3717 47.7998 58.3717 47.7998C58.3717 47.7998 56.0622 48.276 53.0241 48.4331C52.8289 48.4426 52.1194 48.7522 51.9146 48.7617C51.4955 48.776 51.067 48.7903 50.6241 48.795C44.886 48.8379 43.286 48.4426 41.4003 48.0903C39.4955 47.7331 38.6574 47.3474 38.6574 47.3474L38.586 47.5522C38.586 47.5522 40.0908 48.1331 41.1765 48.6617C41.4051 48.7712 42.3003 50.1188 42.6003 50.5712H35.7813C35.4003 42.7617 36.9146 36.3664 36.9146 36.3664C36.9146 36.3664 42.1336 35.2522 49.9765 35.2522V34.4141C41.6527 34.4141 36.1098 35.595 36.1098 35.595C36.1098 35.595 33.686 44.1331 34.9717 54.295C35.5098 58.5331 39.0146 66.4617 49.9479 70.1331L50.4289 69.4617L49.9479 68.7998C39.6527 65.3426 36.6479 58.376 36.1194 54.3855C36.0051 53.5045 35.9146 52.6283 35.8527 51.7664H49.986V50.5712H42.7289C42.886 50.0474 43.4003 49.9188 44.0289 50.0712C44.686 50.2283 45.3289 50.395 45.9527 50.3617C47.5051 50.2855 47.2765 49.8664 47.4194 49.876C49.0146 49.9712 49.6194 50.3664 51.0146 50.3379C52.286 50.3188 52.7241 49.9855 52.8479 49.9807C54.4003 49.9664 54.986 50.676 56.5432 50.8093C56.5813 50.8093 56.6241 50.8141 56.6622 50.8188V50.8236Z" fill="#FCC661"></path><path fill-rule="evenodd" clip-rule="evenodd" d="M63.7914 35.595C63.7914 35.595 58.2724 34.4141 49.939 34.4141V35.2522C57.7914 35.2522 62.9867 36.3664 62.9867 36.3664C62.9867 36.3664 64.5009 42.7617 64.12 50.5712H57.2819C56.7343 50.0522 57.0486 49.3522 57.2295 49.195C58.039 48.476 58.039 47.9855 58.039 47.9855C58.039 47.9855 56.1914 48.4474 53.1533 48.5807C52.9581 48.5903 52.1057 48.9712 51.9009 48.976C51.4819 48.9855 50.8867 49.0045 50.4486 49.0045C46.4914 49.0045 44.5486 48.9283 41.1152 48.195C41.1771 48.2807 41.2057 48.3141 41.2724 48.3998C41.2914 48.4236 42.7771 48.8093 42.7962 48.8379C43.02 49.1426 43.32 49.3617 43.6819 49.5522C44.2343 49.8474 45.0486 50.0998 45.7343 50.1379C47.2819 50.2283 46.9914 49.6522 47.1343 49.6474C48.7248 49.6188 49.7438 50.1903 51.139 50.1664C52.4105 50.1426 52.4533 49.7474 52.5724 49.7426C53.8248 49.6712 55.1057 50.2236 56.2009 50.5712H49.9533V51.7664H64.0533C63.9914 52.6283 63.9009 53.5045 63.7867 54.3855C63.2629 58.3712 60.2486 65.3379 49.9533 68.7998V70.1331C60.8867 66.4617 64.4009 58.5331 64.939 54.295C66.2248 44.1331 63.8009 35.595 63.8009 35.595H63.7914Z" fill="#D3A030"></path><path d="M24.4001 39.276L24.9763 38.1856L27.5525 37.9998L26.243 35.7665L26.8144 34.676L31.4097 37.0951L30.8811 38.0998L27.8811 36.5237L29.1621 38.8475L29.1478 38.8713L26.5287 39.1284L29.5097 40.6951L28.9859 41.6856L24.3906 39.2665L24.4001 39.276ZM31.9335 36.3189L32.7335 35.4713L32.2097 34.3284L33.7144 32.7284L34.8859 33.1808L35.7049 32.3141L30.3716 30.3475L29.6478 31.1141L31.9287 36.3189H31.9335ZM31.7573 33.3379L31.0049 31.6808L32.7049 32.3332L31.7573 33.3379ZM36.4668 31.7713L37.4287 31.1856L35.7192 28.3617L39.5811 29.8808L40.4144 29.376L37.724 24.9379L36.7573 25.5237L38.4144 28.257L34.6763 26.7856L33.7763 27.3284L36.4716 31.7713H36.4668ZM44.043 28.257C45.0049 27.976 45.4763 27.4713 45.8335 26.776L44.9287 26.2713C44.6382 26.7427 44.3573 27.0713 43.7859 27.2379C42.9287 27.4856 42.1335 26.9427 41.8859 26.0856V26.0713C41.6335 25.2141 42.0382 24.3427 42.8811 24.0998C43.3811 23.957 43.8335 24.057 44.3192 24.2951L44.7859 23.2856C44.1906 22.9617 43.5382 22.8141 42.5954 23.0856C41.0621 23.5284 40.3287 24.9998 40.7382 26.4189V26.4332C41.1573 27.8665 42.5763 28.6856 44.043 28.2617V28.257ZM47.1049 27.4522L48.2478 27.4237L48.1954 25.3379L50.3001 25.2856L50.3525 27.3665L51.4954 27.3379L51.3621 22.1475L50.2192 22.176L50.2716 24.2284L48.1668 24.2808L48.1144 22.2237L46.9716 22.2522L47.1049 27.4427V27.4522ZM59.7382 29.7284C60.7525 30.1998 61.7144 29.9998 62.143 29.0665V29.0522C62.5287 28.2284 62.1478 27.6379 61.3097 26.9475C60.5906 26.3617 60.4382 26.1665 60.5763 25.857V25.8427C60.6906 25.6141 60.9811 25.5284 61.3763 25.7094C61.7763 25.8951 62.1049 26.257 62.3859 26.7427L63.2859 26.2094C62.9859 25.6046 62.5001 25.1189 61.8097 24.7998C60.8478 24.3522 59.8954 24.6046 59.5001 25.457V25.4713C59.062 26.4046 59.5525 26.9522 60.3906 27.6332C61.0859 28.1998 61.1859 28.4094 61.062 28.6713V28.6856C60.9287 28.9617 60.5954 29.0094 60.1716 28.8141C59.6335 28.5665 59.2906 28.1379 59.0287 27.5903L58.0763 28.0379C58.4097 28.8046 59.0192 29.3856 59.7287 29.7189L59.7382 29.7284ZM63.1478 31.6379L64.0573 32.3332L66.5668 29.0379L67.824 29.9951L68.4621 29.157L65.043 26.5475L64.4049 27.3856L65.6621 28.3427L63.1525 31.6379H63.1478ZM69.2287 38.0522L69.743 39.076L71.2287 38.3284L71.6335 39.1284L70.6478 40.8713L71.2478 42.0665L72.3382 40.0998C72.8525 40.5808 73.5287 40.7475 74.2763 40.3713H74.2906C74.7287 40.1427 75.024 39.8237 75.1525 39.4332C75.3049 38.976 75.2382 38.4332 74.943 37.8427L73.8763 35.7237L69.2335 38.057L69.2287 38.0522ZM72.1287 37.876L73.4621 37.2046L73.9716 38.2189C74.224 38.7141 74.1525 39.1332 73.7144 39.3522H73.7001C73.3097 39.557 72.9001 39.4046 72.6478 38.9094L72.1287 37.876ZM54.6144 25.7379L56.5287 26.1522L57.0573 25.2284L54.8287 24.7475L55.0525 23.7189L57.7716 24.3094L57.9859 23.3141L54.1573 22.4808L53.0573 27.557L56.924 28.3951L57.1382 27.3998L54.3811 26.8046L54.6097 25.7379H54.6144ZM70.0287 30.6998L66.0478 34.0379L68.5906 37.0713L69.3668 36.4189L67.5573 34.257L68.3954 33.557L69.6668 35.076L70.7001 34.7284L69.1716 32.9046L69.9811 32.2284L71.7668 34.3617L72.543 33.7094L70.0287 30.7046V30.6998ZM43.9002 77.6951C44.9192 77.6951 45.524 77.3332 46.0668 76.7522L45.3287 76.0046C44.9144 76.3808 44.543 76.6237 43.9382 76.6237C43.0335 76.6237 42.4049 75.8665 42.4049 74.9618V74.9475C42.4049 74.0427 43.0478 73.2998 43.9382 73.2998C44.4668 73.2998 44.8811 73.5284 45.2906 73.8951L46.0287 73.0427C45.5382 72.557 44.943 72.2284 43.943 72.2284C42.3192 72.2284 41.1859 73.457 41.1859 74.9618V74.976C41.1859 76.4951 42.3382 77.6951 43.8954 77.6951H43.9002ZM47.2001 77.6046H48.3621V72.3189H47.2001V77.6046ZM51.0668 77.6046H52.2287V73.3903H53.8382V72.3189H49.4573V73.3903H51.0668V77.6046ZM56.3668 77.6046H57.5287V75.4951L59.5621 72.3141H58.2382L56.9573 74.4379L55.6954 72.3141H54.3382L56.3668 75.5141V77.5998V77.6046Z" fill="#00295C"></path><path d="M30.709 11.3384L31.1138 12.0717L28.8995 13.2955L29.2471 13.9289L31.2138 12.8431L31.6138 13.5717L29.6471 14.6574L30.1328 15.5336L29.2709 16.0098L27.6328 13.0431L30.709 11.3431V11.3384Z" fill="#00295C"></path><path d="M36.2996 12.6237L35.7615 12.1523L33.8281 12.938L33.771 13.6523L32.79 14.0523L33.1329 10.2571L34.39 9.74756L37.2805 12.2285L36.3043 12.6237H36.2996ZM33.8948 12.1142L35.1329 11.6095L34.0138 10.6333L33.8948 12.1095V12.1142Z" fill="#00295C"></path><path d="M41.3467 10.1764L40.7609 7.81927L41.7086 7.58594L42.5229 10.8764L41.1276 11.224L38.6038 9.34784L39.1895 11.705L38.2371 11.9431L37.4229 8.6526L38.8229 8.30499L41.3467 10.1812V10.1764Z" fill="#00295C"></path><path d="M46.1182 6.96208L50.1991 6.79541L50.2324 7.62874L48.6848 7.69065L48.7896 10.243L47.8086 10.2811L47.7039 7.72874L46.1515 7.79065L46.1182 6.95731V6.96208Z" fill="#00295C"></path><path d="M51.3903 8.49526C51.4855 7.37622 52.3141 6.78098 53.7379 6.90479C55.1569 7.0286 55.876 7.75717 55.7807 8.87145C55.6855 9.9905 54.8522 10.5905 53.4331 10.4715C52.0093 10.3476 51.295 9.61907 51.3903 8.49526ZM54.7569 8.78574C54.8093 8.20003 54.5045 7.80955 53.6664 7.73812C52.8331 7.66669 52.4665 7.9905 52.4188 8.58574C52.3665 9.18098 52.676 9.57145 53.5045 9.64288C54.3379 9.71431 54.7093 9.38098 54.7617 8.7905L54.7569 8.78574Z" fill="#00295C"></path><path d="M61.6184 8.36693L59.6231 9.38121L60.8708 11.6765L59.666 11.405L58.7993 9.80502L57.8517 10.286L57.6993 10.9574L56.7422 10.7431L57.4898 7.43359L58.4517 7.65264L58.1184 9.13836L60.185 8.04788L61.6231 8.37169L61.6184 8.36693Z" fill="#00295C"></path><path d="M66.3281 9.99553L66.0662 10.7193L63.6853 9.85744L63.4995 10.367L65.79 11.1955L65.5281 11.9193L63.2376 11.0908L63.0519 11.6003L65.4329 12.4622L65.171 13.186L61.8662 11.9908L63.0186 8.80029L66.3234 9.99553H66.3281Z" fill="#00295C"></path><path d="M69.7616 14.3526L70.8759 12.1907L71.7473 12.6383L70.1902 15.6526L68.9092 14.9907L68.2473 11.9097L67.133 14.0716L66.2568 13.6193L67.814 10.605L69.0997 11.2669L69.7616 14.3478V14.3526Z" fill="#00295C"></path><path d="M27.395 85.4763C27.2474 85.7192 27.395 86.0239 28.1569 86.4858C28.8569 86.9049 29.095 86.9001 29.2045 86.7192C29.3331 86.5097 29.2236 86.3906 28.395 85.8144C27.2665 85.024 26.8903 84.4763 27.276 83.8335C27.6426 83.2287 28.4617 83.3478 29.4665 83.9525C30.5855 84.6239 31.0236 85.3525 30.6617 86.0144L29.7807 85.4859C29.9331 85.2287 29.7141 84.962 29.0617 84.5716C28.4426 84.2001 28.2426 84.2192 28.1474 84.3763C28.0379 84.5573 28.1474 84.6954 28.895 85.2335C29.9141 85.9573 30.5617 86.4478 30.1045 87.2097C29.6569 87.9525 28.8379 87.7573 27.8045 87.1335C26.6284 86.4239 26.0903 85.7382 26.5093 84.9478L27.3903 85.4811L27.395 85.4763Z" fill="#00295C"></path><path d="M31.5236 87.1909C31.9712 86.1576 32.9426 85.8623 34.2569 86.429C35.5664 86.9957 36.014 87.9147 35.5712 88.9433C35.1236 89.9766 34.1426 90.2814 32.8331 89.7147C31.5188 89.148 31.0759 88.229 31.5236 87.1909ZM34.6283 88.5385C34.8616 87.9957 34.695 87.5338 33.9236 87.1957C33.1569 86.8623 32.7045 87.0576 32.4712 87.6004C32.2331 88.1481 32.4045 88.6147 33.1664 88.948C33.9331 89.2814 34.395 89.0814 34.6283 88.5338V88.5385Z" fill="#00295C"></path><path d="M39.295 88.2146C40.495 88.5527 41.0331 89.2574 40.895 90.1241L39.8902 89.8431C39.9093 89.5241 39.6759 89.186 39.0712 89.0193C38.3712 88.8241 37.9378 89.0717 37.7759 89.6431C37.614 90.2193 37.8616 90.6622 38.5569 90.8574C39.1616 91.0241 39.5378 90.8574 39.6854 90.5669L40.6902 90.8479C40.3569 91.6669 39.5331 91.9955 38.3283 91.6622C37.0188 91.2955 36.4712 90.486 36.7807 89.3669C37.095 88.2527 37.9807 87.8479 39.2902 88.2146H39.295Z" fill="#00295C"></path><path d="M43.3948 89.2289L42.7948 92.5623L41.8281 92.3861L42.4281 89.0527L43.3948 89.2289Z" fill="#00295C"></path><path d="M44.4184 91.1481C44.5089 90.029 45.3327 89.4338 46.7565 89.5481C48.1756 89.6624 48.8994 90.3909 48.8041 91.5052C48.7137 92.6243 47.8851 93.229 46.4613 93.1147C45.0375 93.0005 44.3184 92.2719 44.4136 91.1481H44.4184ZM47.7851 91.4243C47.8327 90.8386 47.5279 90.4528 46.6898 90.3814C45.8565 90.3148 45.4946 90.6433 45.4422 91.2338C45.3946 91.829 45.7041 92.2148 46.5327 92.2862C47.366 92.3528 47.7375 92.0195 47.7851 91.4243Z" fill="#00295C"></path><path d="M51.1193 92.048C51.1336 92.3337 51.424 92.5051 52.3145 92.4575C53.1288 92.4146 53.324 92.2766 53.3097 92.0623C53.2955 91.8146 53.1431 91.7813 52.1336 91.767C50.7574 91.7432 50.1336 91.5004 50.0955 90.748C50.0574 90.0432 50.805 89.6813 51.9764 89.6242C53.2812 89.5575 54.0526 89.9099 54.1193 90.6623L53.0955 90.7146C53.0812 90.4146 52.7478 90.3194 51.9859 90.3575C51.2669 90.3956 51.1097 90.5242 51.1193 90.7051C51.1288 90.9146 51.2955 90.9718 52.2193 91.0004C53.4669 91.0289 54.2812 91.0718 54.3288 91.9623C54.3716 92.8289 53.5859 93.1242 52.3812 93.1861C51.0097 93.2575 50.1764 92.9861 50.0859 92.0956L51.1145 92.0432L51.1193 92.048Z" fill="#00295C"></path><path d="M55.743 92.0434L56.6811 91.9053L56.7859 92.6338L55.8478 92.7719L55.7383 92.0434H55.743Z" fill="#00295C"></path><path d="M59.4803 88.5387C60.6946 88.2434 61.5089 88.5958 61.8137 89.4196L60.7994 89.6673C60.6613 89.3768 60.2898 89.2006 59.6803 89.3482C58.9756 89.5196 58.7184 89.9482 58.8565 90.5292C58.9994 91.1101 59.4327 91.3768 60.1327 91.2054C60.7422 91.0577 60.9898 90.7244 60.9756 90.3958L61.9898 90.1482C62.0994 91.0244 61.5422 91.7196 60.3279 92.0149C59.0041 92.3387 58.1279 91.9006 57.8518 90.772C57.5756 89.6482 58.1518 88.8625 59.4756 88.5387H59.4803Z" fill="#00295C"></path><path d="M63.1522 89.3956C62.7379 88.348 63.2189 87.4527 64.5474 86.9242C65.8712 86.4003 66.8427 86.7337 67.2522 87.7765C67.6665 88.8242 67.1855 89.7337 65.8617 90.2575C64.5331 90.7813 63.5665 90.448 63.1522 89.3956ZM66.2998 88.1527C66.0855 87.6051 65.6379 87.3908 64.857 87.7003C64.0808 88.0051 63.8951 88.4622 64.1141 89.0146C64.3331 89.5718 64.7855 89.7813 65.557 89.4765C66.3331 89.1718 66.5189 88.7051 66.2998 88.1527Z" fill="#00295C"></path><path d="M69.3327 88.6956L67.6279 85.7623L68.9517 84.9908L71.1041 86.3432L70.9898 83.8051L72.3136 83.0337L74.0184 85.967L73.1708 86.4575L71.9375 84.3337L72.0708 87.1004L71.2851 87.5575L68.947 86.0765L70.1851 88.2004L69.3327 88.6956Z" fill="#00295C"></path><path d="M23.019 81.8382C13.9952 74.1811 8.2666 62.7573 8.2666 50.0001C8.2666 37.243 14.2999 25.2144 23.738 17.562" stroke="white" stroke-miterlimit="10"></path><path d="M76.2666 17.5669C85.7047 25.2193 91.7333 36.905 91.7333 50.0002C91.7333 63.0955 86.0047 74.1859 76.9809 81.8431" stroke="white" stroke-miterlimit="10"></path></g><defs><clipPath id="clip0_101_22046"><rect width="100" height="100" fill="white"></rect></clipPath></defs></svg>