<?xml version="1.0" encoding="UTF-8"?><svg id="Layer_1" xmlns="http://www.w3.org/2000/svg" xmlns:xlink="http://www.w3.org/1999/xlink" viewBox="0 0 128 128"><defs><style>.cls-1{fill:url(#linear-gradient);}.cls-1,.cls-2,.cls-3{stroke-width:0px;}.cls-2{fill:#0f0e0e;fill-rule:evenodd;}.cls-3{fill:#eee;}</style><linearGradient id="linear-gradient" x1="20.04" y1="-2375.54" x2="111.21" y2="-2286.36" gradientTransform="translate(0 -2268.54) scale(1 -1)" gradientUnits="userSpaceOnUse"><stop offset="0" stop-color="#aafcde"/><stop offset="1" stop-color="#87d4f1"/></linearGradient></defs><circle class="cls-3" cx="64" cy="64" r="63.5"/><g id="CLV"><path class="cls-1" d="m91.14,11.85h-54.29c-13.84,0-25.06,11.21-25.06,25.03v54.23c0,13.82,11.22,25.03,25.06,25.03h54.29c13.84,0,25.06-11.21,25.06-25.03v-54.23c0-13.82-11.22-25.03-25.06-25.03Z"/><path class="cls-2" d="m64,97.37c18.45,0,33.41-14.94,33.41-33.37s-14.96-33.37-33.41-33.37-33.41,14.94-33.41,33.37,14.96,33.37,33.41,33.37Zm-5.9-49.3c0-.96.78-1.74,1.74-1.74h8.31c.96,0,1.74.78,1.74,1.74v10.16h-11.79v11.53h11.79v10.16c0,.96-.78,1.74-1.74,1.74h-8.31c-.96,0-1.74-.78-1.74-1.74v-9.79h-10.05c-.96,0-1.74-.78-1.74-1.74v-8.43c0-.96.78-1.74,1.74-1.74h10.05v-10.16Zm11.79,10.16h10.06c.96,0,1.74.78,1.74,1.74v8.43c0,.96-.78,1.74-1.74,1.74h-10.05v-11.9Z"/></g></svg>