<?xml version="1.0" encoding="utf-8"?>
<!-- Generator: Adobe Illustrator 24.2.0, SVG Export Plug-In . SVG Version: 6.00 Build 0)  -->
<svg version="1.1" id="Layer_1" xmlns="http://www.w3.org/2000/svg" xmlns:xlink="http://www.w3.org/1999/xlink" x="0px" y="0px"
	 viewBox="0 0 50 50" style="enable-background:new 0 0 50 50;" xml:space="preserve">
<style type="text/css">
	.st0{fill:#1C2951;}
	.st1{fill:#77D195;}
</style>
<circle class="st0" cx="25" cy="25" r="23.7"/>
<g>
	<path class="st1" d="M41.2,26.3c0,3.4,0,6.8,0,10.2c0,0.8-0.2,1.3-1,1.7c-0.7,0.3-1.4,0.7-2.1,1.1c-0.6,0.4-0.8,0.2-0.8-0.5
		c0-3.4,0-6.8,0-10.2c0-1,0-2.1,0-3.1c0.1-1.5-0.6-2.6-1.9-3.3c-4.1-2.5-8.3-5-12.4-7.5c-0.6-0.4-0.8-0.7-0.8-1.4c0-2.4,0-4.9,0-7.3
		c0-1.7,1.1-2.3,2.5-1.4c4.9,2.9,9.7,5.7,14.6,8.6c1.2,0.7,1.8,1.7,1.7,3.1C41.2,19.6,41.2,22.9,41.2,26.3z"/>
	<path class="st1" d="M34.6,33.6c0,2.3,0,4.6,0,6.9c0,0.8-0.3,1.4-1,1.7c-0.8,0.4-1.6,0.9-2.3,1.3c-0.6,0.4-0.8,0.3-0.8-0.4
		c0-2.2,0-4.5,0-6.7c0-1.5-0.6-2.6-1.9-3.3c-4.1-2.4-8.1-4.9-12.2-7.4c-0.6-0.3-0.8-0.7-0.8-1.4c0-2.6,0-5.2,0-7.7
		c0-1.7,1.1-2.3,2.6-1.5c4.8,2.9,9.6,5.7,14.5,8.6c1.3,0.8,1.9,1.8,1.8,3.3C34.6,29.2,34.6,31.4,34.6,33.6z"/>
	<path class="st1" d="M8.8,30.7c0-1.2,0-2.3,0-3.5c0-1.3,1.1-2,2.3-1.3c5.1,3,10.1,6,15.1,9c1,0.6,1.4,1.6,1.4,2.7
		c0,2.3,0,4.5,0,6.8c0,1.2-0.3,1.4-1.5,1.5c-1.1,0.1-2-0.2-2.9-0.8c-4.1-2.6-8.2-5.2-12.4-7.7c-1.5-0.9-2.2-2.1-2.1-3.8
		C8.8,32.6,8.8,31.7,8.8,30.7z"/>
</g>
</svg>
