<?xml version="1.0" encoding="utf-8"?>
<!-- Generator: Adobe Illustrator 27.8.0, SVG Export Plug-In . SVG Version: 6.00 Build 0)  -->
<svg version="1.1" id="Layer_1" xmlns="http://www.w3.org/2000/svg" xmlns:xlink="http://www.w3.org/1999/xlink" x="0px" y="0px"
	 viewBox="0 0 128 128" style="enable-background:new 0 0 128 128;" xml:space="preserve">
<style type="text/css">
	.st0{fill:#F2F2F2;}
	.st1{display:none;}
	.st2{fill:#008CFC;}
	.st3{display:none;fill:#008CFC;}
	.st4{fill:url(#SVGID_1_);}
	.st5{fill:#73DCFC;}
	.st6{fill:#BCEEFE;}
	.st7{fill:#92E4FD;}
	.st8{fill:#91E3FD;}
	.st9{fill:#DFF7FE;}
	.st10{fill:#B7ECFE;}
	.st11{fill:#0093FC;}
	.st12{fill:#009EFC;}
	.st13{fill:#00A5FB;}
	.st14{fill:#0090FC;}
	.st15{fill:#00B3FB;}
	.st16{fill:#00AAFB;}
	.st17{fill:#008AFC;}
	.st18{fill:#00B1FB;}
	.st19{fill:#0097FC;}
	.st20{fill:#0185FC;}
	.st21{fill:#00A6FB;}
	.st22{fill:#0098FC;}
	.st23{fill:#00B9FB;}
	.st24{fill:#00ABFB;}
	.st25{fill:#00BBFB;}
	.st26{fill:#0285FC;}
	.st27{fill:#0E7DFC;}
	.st28{fill:#5A00C5;}
	.st29{fill:#00ACFB;}
	.st30{fill:#0088FC;}
	.st31{fill:#323EE2;}
	.st32{fill:#1877FC;}
	.st33{fill:#3936DD;}
	.st34{fill:#4B1CD0;}
	.st35{fill:#0C7EFC;}
	.st36{fill:#3A35DD;}
	.st37{fill:#4525D4;}
	.st38{fill:#3040E3;}
	.st39{fill:#3E2FDA;}
	.st40{fill:#323FE3;}
	.st41{fill:#5014CC;}
	.st42{fill:#2B46E6;}
	.st43{fill:#540CC9;}
	.st44{fill:#402DD9;}
	.st45{fill:#234FEC;}
	.st46{fill:#1D55EF;}
	.st47{fill:#1D56EF;}
	.st48{fill:#4626D5;}
	.st49{fill:#2C46E6;}
	.st50{fill:#175BF2;}
	.st51{fill:#244FEB;}
	.st52{fill:#0E60F5;}
	.st53{fill:#4C1DD1;}
	.st54{fill:#1777FC;}
	.st55{fill:#422AD7;}
	.st56{fill:#254DEB;}
	.st57{fill:#FCB72A;}
	.st58{fill:#137AFC;}
	.st59{fill:#284BE9;}
	.st60{fill:#0186FC;}
	.st61{fill:#185AF2;}
	.st62{fill:#0284FC;}
	.st63{fill:#5215CC;}
	.st64{fill:#125DF4;}
	.st65{fill:#0C61F5;}
	.st66{fill:#0165F7;}
	.st67{fill:#2252ED;}
	.st68{fill:#175DF3;}
	.st69{fill:#1C56EF;}
	.st70{fill:#FCC427;}
	.st71{fill:#147AFC;}
	.st72{fill:#0364F7;}
	.st73{fill:#0F7DFC;}
	.st74{fill:#0D7EFC;}
	.st75{fill:#FDAB2C;}
	.st76{fill:#0E64F6;}
	.st77{fill:#1479FC;}
	.st78{fill:#1C74FC;}
	.st79{fill:#FE9630;}
	.st80{fill:#FD8B33;}
	.st81{fill:#1A77FC;}
	.st82{fill:#1E7CFA;}
	.st83{fill:#FE9F2D;}
	.st84{fill:#FC7E37;}
	.st85{fill:#2968FB;}
	.st86{fill:#FD663D;}
	.st87{fill:#FD7439;}
	.st88{fill:#2470FC;}
	.st89{fill:#F95546;}
	.st90{fill:#0984FA;}
	.st91{fill:#5A01C5;}
	.st92{fill:#540BC9;}
	.st93{fill:#3F2ED9;}
	.st94{fill:#353AE0;}
	.st95{fill:#580EC7;}
	.st96{fill:#5113CB;}
</style>
<circle class="st0" cx="64" cy="64" r="63.5"/>
<g id="Vuq9m6" class="st1">
	
		<image style="display:inline;overflow:visible;enable-background:new    ;" width="296" height="328" xlink:href="FC00171ACA36405F.png"  transform="matrix(0.2492 0 0 0.2492 27.1183 23.1311)">
	</image>
</g>
<g id="Vuq9m6_00000145017264852539372770000011407862574834041754_">
	<g>
		<g>
			<path class="st2" d="M70.8,23.4c2.1,0.4,4.2,0.5,6.2,0.9c9,1.9,16.5,6.3,22.7,13.2c0.9,1,0.1,1.4-0.5,1.8
				c-4.7,3.5-9.8,4.2-15.2,2.3c-2.6-0.9-4.9-2.5-7.5-3.2c-12.4-3.6-25.9,1.8-31.7,13.8c-0.6,1.2-1.2,1.6-2.5,1.6
				c-3.6-0.1-7.3,0-10.9,0c-1.9,0-2.1-0.2-1.5-2.1c1.7-5.5,4.6-10.5,8.5-14.7c7-7.6,15.6-11.9,25.8-13.2c0.8-0.1,1.7,0.1,2.4-0.3
				C68,23.4,69.4,23.4,70.8,23.4z"/>
			<path class="st2" d="M68.7,103.9c-11.5-0.1-21.3-4.2-29.4-12.4c-4.3-4.4-7.4-9.6-9.4-15.5c-0.6-1.8-0.5-1.8,1.3-1.8
				c3.9,0,7.9,0,11.8,0c0.9,0,1.4,0.3,1.8,1.1c4.4,8.5,11.3,13.3,20.7,14.6c5.7,0.8,11.1-0.3,16.2-3c5.9-3.1,11.7-3,17.2,0.9
				c1.7,1.2,1.7,1.3,0.3,2.8c-6.1,6.6-13.5,10.8-22.3,12.6C74.1,103.7,71.4,104,68.7,103.9z"/>
			<path class="st3" d="M37,71.1c-1,0-2.1,0.1-3.1,0c-3.7-0.6-6.3-4.4-5.7-7.9c0.7-4,4.2-6.7,8.1-6.1c0.6,0.1,1.1,0,1.7,0
				c3.8-0.4,7.5,2.7,7.8,6.6c0.3,4.1-2.8,7.5-6.8,7.6C38.3,71.2,37.6,71.1,37,71.1C37,71.1,37,71.1,37,71.1z"/>
			<linearGradient id="SVGID_1_" gradientUnits="userSpaceOnUse" x1="46.0939" y1="64.0233" x2="28.0199" y2="64.0233">
				<stop  offset="0" style="stop-color:#FCC427"/>
				<stop  offset="6.415647e-02" style="stop-color:#D4B44A"/>
				<stop  offset="0.1492" style="stop-color:#A6A172"/>
				<stop  offset="0.2398" style="stop-color:#7D9195"/>
				<stop  offset="0.3347" style="stop-color:#5B83B3"/>
				<stop  offset="0.4349" style="stop-color:#3F78CC"/>
				<stop  offset="0.5425" style="stop-color:#296FDE"/>
				<stop  offset="0.6609" style="stop-color:#1A69EC"/>
				<stop  offset="0.7983" style="stop-color:#1165F4"/>
				<stop  offset="1" style="stop-color:#0E64F6"/>
			</linearGradient>
			<path class="st4" d="M37,71.1c-1,0-2.1,0.1-3.1,0c-3.7-0.6-6.3-4.4-5.7-7.9c0.7-4,4.2-6.7,8.1-6.1c0.6,0.1,1.1,0,1.7,0
				c3.8-0.4,7.5,2.7,7.8,6.6c0.3,4.1-2.8,7.5-6.8,7.6C38.3,71.2,37.6,71.1,37,71.1C37,71.1,37,71.1,37,71.1z"/>
		</g>
	</g>
</g>
<g id="Vuq9m6_00000064346200653885197070000012426400904464494774_">
	<g>
		<path class="st5" d="M67.8,23.4c0.5,0,1,0,1.5,0c0,0.1,0,0.1,0,0.2c-0.5,0-1,0-1.5,0C67.8,23.5,67.8,23.5,67.8,23.4z"/>
		<path class="st6" d="M71.6,23.4c0,0.1,0,0.1,0,0.2c-0.4,0-0.8,0-1.2,0c0-0.1,0-0.1,0-0.2C70.7,23.4,71.2,23.4,71.6,23.4z"/>
		<path class="st7" d="M70.3,23.4c0,0.1,0,0.1,0,0.2c-0.3,0-0.7,0-1,0c0-0.1,0-0.1,0-0.2C69.7,23.4,70,23.4,70.3,23.4z"/>
		<path class="st8" d="M67.8,23.4c0,0.1,0,0.1,0,0.2c-0.3,0-0.7,0-1,0c0-0.1,0-0.1,0-0.2C67.2,23.4,67.5,23.4,67.8,23.4z"/>
		<path class="st9" d="M65.4,23.6c0-0.1,0-0.1,0-0.2c0.3,0,0.7,0,1,0c0,0.1,0,0.1,0,0.2C66,23.6,65.7,23.6,65.4,23.6z"/>
		<path class="st10" d="M66.4,23.6c0-0.1,0-0.1,0-0.2c0.2,0,0.3,0,0.5,0c0,0.1,0,0.1,0,0.2C66.7,23.6,66.5,23.6,66.4,23.6z"/>
		<path class="st11" d="M43,94.7c-1.1-0.7-2-1.5-2.8-2.5c2.3-0.3,4.6-0.2,6.9-0.3c2.4-0.1,4.8,0.2,7.1-0.3c2.2,0,4.4,0,6.6,0
			c2.3,0.3,4.6,0.3,6.9,0.3c9.2,0,18.4,0,27.6,0c0.7,0,1.4,0,2.1,0.3c-0.7,0.9-1.6,1.6-2.5,2.2c-0.1,0.1-0.2,0.1-0.3,0.2l0,0
			c-1-0.2-2,0.1-2.9,0c-1.8-0.3-3.5-0.1-5.3-0.1c-2.1-0.1-4.3-0.3-6.4,0.2c-1,0.2-1.9-0.4-2.8-0.2c-1.6,0.4-3.2-0.1-4.9,0
			c-2.7,0.1-5.3-0.2-8,0.2c-0.7,0.1-1.4,0.1-2.1-0.1c-0.5-0.2-1-0.2-1.5,0c-0.3,0.1-0.7,0.2-1,0.1c-1.6-0.5-3.2-0.1-4.8-0.2
			c-2.3-0.1-4.6,0-6.9,0.1C46.5,94.7,44.7,94.6,43,94.7z"/>
		<path class="st12" d="M43,94.7c1.8-0.1,3.5,0,5.3-0.1c2.3-0.2,4.6-0.2,6.9-0.1c1.6,0.1,3.2-0.3,4.8,0.2c0.3,0.1,0.7,0,1-0.1
			c0.5-0.2,1-0.2,1.5,0c0.7,0.3,1.4,0.2,2.1,0.1c2.7-0.4,5.3,0,8-0.2c1.6-0.1,3.2,0.4,4.9,0c0.9-0.2,1.9,0.4,2.8,0.2
			c2.1-0.5,4.3-0.3,6.4-0.2c1.7,0.1,3.5-0.2,5.3,0.1c0.9,0.2,1.9-0.1,2.9,0c-1,1-2.2,1.8-3.4,2.5c-0.6,0-1.2-0.3-1.8-0.3
			c-13.9,0-27.7,0-41.6,0c-0.5,0-0.9,0-1.3,0.3c-0.1,0-0.1,0-0.2,0C45.1,96.4,43.9,95.7,43,94.7z"/>
		<path class="st12" d="M91,30.1c1,0.5,2,1.2,2.8,2c-0.6,0.4-1.2,0.3-1.8,0.3c-15.4,0-30.8,0-46.2,0c-0.7,0-1.4-0.1-2.1-0.3
			c0.9-0.8,1.8-1.4,2.8-2c0.6,0.5,1.3,0.5,2,0.5c6,0,12.1,0,18.1,0c7.6,0,15.3,0,22.9,0C90,30.6,90.7,30.8,91,30.1z"/>
		<path class="st13" d="M91,30.1c-0.3,0.7-1,0.5-1.5,0.5c-7.6,0-15.3,0-22.9,0c-6,0-12.1,0-18.1,0c-0.7,0-1.4,0-2-0.5
			c0.7-0.5,1.4-1,2.2-1.3c1.3,0.1,2.5,0.2,3.8,0.1c1-0.1,2.2-0.3,3.3,0s2.1,0.1,3.1,0c1.8-0.1,3.6,0.2,5.4-0.1c0.1,0,0.2,0,0.2,0
			c1.1,0.3,2.3,0.2,3.4,0c1.2-0.2,2.5-0.2,3.8,0c1.1,0.2,2.1,0.1,3.1,0c1.8-0.1,3.6,0.2,5.4-0.1c0.2,0,0.3,0.1,0.5,0.1
			c1,0.2,2,0.2,2.9,0c0.6-0.1,1.1-0.1,1.7-0.1c1.1,0,2.2,0.1,3.3-0.3C89.4,29,90.2,29.4,91,30.1z"/>
		<path class="st14" d="M95.9,33.8c0.6,0.4,1.1,0.9,1.6,1.5c-1.3,0.2-2.6,0-3.9,0c-5.5,0-11,0-16.5,0c-5.3,0-10.5,0-15.8,0
			c-6.6,0-13.2,0-19.8,0c-0.5,0-1,0-1.5,0c0.4-0.6,0.9-1.1,1.5-1.5c0.1,0,0.1,0,0.2,0c0.6,0.2,1.3,0.3,1.9,0.3c16.8,0,33.5,0,50.3,0
			C94.7,34.1,95.3,34,95.9,33.8z"/>
		<path class="st15" d="M58.1,102.4c-2.2-0.5-4.3-1.2-6.3-2.2c0.7-0.3,1.4-0.3,2.2-0.3c9.9,0,19.8,0,29.6,0c0.7,0,1.4,0,2.1,0.3
			c-1.7,0.9-3.5,1.6-5.4,2c-1.6,0-3.3-0.4-4.9-0.3c-1.2,0.1-2.3,0.1-3.5,0.1c-2.5-0.1-5.1,0-7.7-0.1c-0.6,0-1.2,0.4-1.8,0.2
			c-1.2-0.4-2.4-0.1-3.6-0.2C58.5,101.9,58.3,102.1,58.1,102.4z"/>
		<path class="st16" d="M85.7,100.2c-0.7-0.2-1.4-0.3-2.1-0.3c-9.9,0-19.8,0-29.6,0c-0.7,0-1.5,0-2.2,0.3c-1.1-0.4-2.1-0.8-3-1.5
			c0.5-0.3,1.1-0.3,1.7-0.3c12.1,0,24.1,0,36.2,0c0.7,0,1.3,0.1,1.9,0.3C87.8,99.3,86.8,99.8,85.7,100.2z"/>
		<path class="st17" d="M97.4,92.2c-0.7-0.3-1.4-0.3-2.1-0.3c-9.2,0-18.4,0-27.6,0c-2.3,0-4.6,0-6.9-0.3c2.1-0.2,4.2-0.5,6.2-0.7
			c0.2,0,0.5,0,0.7,0c0.1,0,0.1-0.1,0.2-0.1c-0.1,0-0.1-0.1-0.2-0.1c-0.2,0-0.5,0-0.7,0l0,0c-0.5-0.4-1-0.2-1.5-0.2
			c-0.3,0-0.6,0-1-0.1c-0.2-0.3-0.5-0.2-0.8-0.2c-0.2,0-0.5,0-0.7-0.1c0-0.1-0.2-0.1-0.4-0.1s-0.3,0-0.5-0.1
			c-0.1-0.2-0.3-0.2-0.5-0.2s-0.3,0-0.5-0.1c-0.1-0.2-0.3-0.2-0.5-0.2c-0.1,0-0.2,0-0.3,0c0.1-0.2,0.3-0.2,0.5-0.2s0.3,0,0.5,0.1
			c0.1,0.1,0.2,0.2,0.3,0.2c0.2,0,0.4,0.1,0.7,0.1c0.1,0.1,0.2,0.2,0.3,0.2c0.3,0,0.6,0.1,0.9,0.1c0.1,0.1,0.2,0.2,0.3,0.1
			c0.4,0,0.8,0.1,1.2,0.1c0.1,0.2,0.4,0.2,0.6,0.2c0.9,0,1.8,0,2.7,0.1c0.3,0.3,0.7,0.3,1,0c1.2-0.1,2.3-0.2,3.5-0.3
			c0.8,0.3,1.6,0.5,2.5,0.5c7.9,0,15.8,0,23.8,0C98.6,91.1,98,91.7,97.4,92.2z"/>
		<path class="st18" d="M52.2,27c1.2-0.6,2.4-1.1,3.8-1.4c0.2,0,0.4,0,0.5-0.2c0.1,0,0.2,0,0.3,0c0.3,0.4,0.8,0.2,1.1,0.2
			c7.2,0,14.3,0,21.5,0c0.5,0,1,0,1.4-0.3c1.7,0.3,3.2,1,4.7,1.7c-0.5,0.1-0.9,0.3-1.4,0.3c-10.3,0-20.5,0-30.8,0
			C52.9,27.3,52.4,27.5,52.2,27z"/>
		<path class="st19" d="M95.9,33.8c-0.6,0.2-1.3,0.3-1.9,0.3c-16.8,0-33.5,0-50.3,0c-0.7,0-1.3,0-1.9-0.3c0-0.1,0-0.1,0-0.2
			c0.1-0.1,0.3-0.2,0.4-0.3c0.2,0,0.2-0.1,0.3-0.3l0,0c0.1,0,0.2,0,0.3,0s0.2,0,0.2,0c0.1,0,0.2,0,0.2,0c0.2,0.3,0.5,0.3,0.7,0
			c1.7,0,3.3,0,5,0c0.4,0.4,0.8,0.4,1.2,0c1,0,2,0,3,0c0.5,0.4,1,0.4,1.5,0c0.5,0,1,0,1.5,0c1.2,0.4,2.5,0.4,3.7,0c1.7,0,3.3,0,5,0
			c0.4,0.4,0.8,0.4,1.2,0c1,0,2,0,3,0c0.5,0.4,1,0.4,1.5,0c0.5,0,1,0,1.5,0c1.2,0.4,2.5,0.4,3.7,0c5.8,0,11.6,0,17.4,0
			c0.4,0,0.9,0.2,1.3-0.2c0.1,0,0.2,0,0.3,0C95.2,33.1,95.6,33.4,95.9,33.8z"/>
		<path class="st20" d="M99.1,90.5c-7.9,0-15.8,0-23.8,0c-0.9,0-1.7-0.1-2.5-0.5c0.2,0,0.5,0,0.7-0.1c0.2,0,0.4,0,0.5-0.2
			c0.2,0,0.5,0,0.7-0.1c0.1-0.1,0.2-0.1,0.3-0.2c0.2,0,0.5-0.1,0.7-0.1c0.1-0.1,0.2-0.1,0.3-0.2c0.2,0,0.4-0.1,0.7-0.1
			c0.1,0,0.3,0,0.3-0.2c0.6-0.2,1.1-0.5,1.7-0.6c1.3,0.3,2.6,0,4,0.1c0.8,0.1,1.6,0.2,2.4,0.1c2.3-0.3,4.6-0.1,6.8-0.1
			c2.1,0,4.2-0.3,6.3,0.1c0.4,0.1,0.8,0,1.2-0.2c0.3,0.1,0.5,0.4,0.8,0.7C99.9,89.6,99.5,90,99.1,90.5z"/>
		<path class="st2" d="M40,35.3c0.5,0,1,0,1.5,0c6.6,0,13.2,0,19.8,0c5.3,0,10.5,0,15.8,0c5.5,0,11,0,16.5,0c1.3,0,2.6,0.1,3.9,0
			c0.3,0.2,0.6,0.4,0.7,0.8c-1.7,0-3.4,0-5.2,0c-5.3,0-10.6,0-15.9,0c-4.8,0-9.7,0-14.5,0.3c-0.6,0-1.1,0-1.7-0.1
			c-0.3-0.3-0.6-0.2-0.9-0.2c-1.6,0-3.2,0-4.8,0c-0.3,0-0.7-0.1-0.9,0.2c-0.5,0-1,0-1.5,0.1c-0.4,0.1-0.9-0.2-1.3,0.2
			c-0.1,0-0.2,0-0.3,0c-1.3-0.4-2.6-0.3-4-0.4c-2.2-0.1-4.5,0-6.7-0.1c-0.3,0-0.6,0.1-0.8-0.2c0-0.1,0-0.2,0-0.3l0,0
			C39.9,35.5,40,35.4,40,35.3L40,35.3z"/>
		<path class="st21" d="M46.5,97.2c0.4-0.3,0.9-0.3,1.3-0.3c13.9,0,27.7,0,41.6,0c0.6,0,1.2,0.3,1.8,0.3c-0.5,0.4-1.1,0.8-1.7,1.1
			c-0.4-0.5-0.9-0.3-1.4-0.3c-7.5,0-15,0-22.6,0c-5.3,0-10.7,0-16,0c-0.5,0-1.1-0.1-1.6,0.3c-0.2,0-0.4-0.1-0.5-0.3
			c-0.1-0.1-0.2-0.2-0.3-0.2s-0.1,0-0.2-0.1c-0.1-0.1-0.2-0.1-0.3-0.2c-0.1,0-0.1-0.1-0.2-0.1C46.5,97.3,46.5,97.2,46.5,97.2z"/>
		<path class="st22" d="M56.2,33.1c-0.5,0-1,0-1.5,0s-1,0-1.5,0c-1,0-2,0-3,0c-0.4,0-0.8,0-1.2,0c-1.7,0-3.3,0-5,0
			c-0.2,0-0.5,0-0.7,0c-0.1,0-0.2,0-0.2,0c0-0.1-0.1-0.2-0.2-0.2l0,0c0.2-0.4,0.6-0.6,0.9-0.8c0.7,0.2,1.4,0.3,2.1,0.3
			c15.4,0,30.8,0,46.2,0c0.6,0,1.2,0.1,1.8-0.3c0.1,0,0.1,0,0.2,0.1s0.2,0.1,0.2,0.2l0,0c0.1,0.1,0.2,0.2,0.3,0.2l0,0
			c0,0.1,0,0.2,0,0.3c-0.4,0.4-0.8,0.2-1.3,0.2c-5.8,0-11.6,0-17.4,0c-1.2,0-2.5,0-3.7,0c-0.5,0-1,0-1.5,0s-1,0-1.5,0c-1,0-2,0-3,0
			c-0.4,0-0.8,0-1.2,0c-1.7,0-3.3,0-5,0C58.7,33.1,57.4,33.1,56.2,33.1z"/>
		<path class="st23" d="M80.8,25.4c-0.4,0.3-0.9,0.3-1.4,0.3c-7.2,0-14.3,0-21.5,0c-0.4,0-0.8,0.2-1.1-0.2c2-0.8,4.2-1.1,6.4-1.5
			c0.8-0.1,1.5-0.2,2.3-0.3c0.3,0,0.7,0,1,0c0.2,0,0.3,0,0.5,0c0.3,0,0.7,0,1,0c0.5,0,1,0,1.5,0c0.3,0,0.7,0,1,0c0.4,0,0.8,0,1.2,0
			C74.7,23.8,77.8,24.3,80.8,25.4z"/>
		<path class="st24" d="M88.5,28.6c-1.1,0.5-2.2,0.4-3.3,0.3c-0.6,0-1.1-0.1-1.7,0.1c-1,0.2-2,0.2-2.9,0c-0.2,0-0.3-0.1-0.5-0.1
			c-1.8,0.2-3.6,0-5.4,0.1c-1,0.1-2.1,0.2-3.1,0c-1.2-0.2-2.5-0.2-3.8,0c-1.2,0.2-2.3,0.3-3.4,0c-0.1,0-0.2,0-0.2,0
			c-1.8,0.2-3.6,0-5.4,0.1c-1,0.1-2.1,0.3-3.1,0c-1.1-0.3-2.2-0.1-3.3,0c-1.3,0.1-2.5,0-3.8-0.1c0.1-0.1,0.2-0.2,0.3-0.2
			c0.1-0.1,0.1-0.1,0.2-0.2c0.1,0,0.2-0.1,0.3-0.1c0.1-0.1,0.2-0.1,0.2-0.2c0.1,0,0.2-0.1,0.3-0.1c0.1-0.1,0.2-0.1,0.2-0.2
			c0.1,0,0.2-0.1,0.3-0.1c0.1-0.1,0.1-0.1,0.2-0.2c0.1,0,0.2-0.1,0.3-0.1c0.3,0.7,1,0.5,1.5,0.5c10.2,0,20.5,0,30.7,0
			c1.3,0,2.6,0.1,3.8-0.3C87.6,28,88,28.2,88.5,28.6z"/>
		<path class="st25" d="M58.1,102.4c0.1-0.3,0.4-0.6,0.7-0.5c1.2,0.1,2.4-0.2,3.6,0.2c0.7,0.2,1.2-0.2,1.8-0.2
			c2.6,0,5.1-0.1,7.7,0.1c1.2,0.1,2.3,0.1,3.5-0.1c1.7-0.1,3.3,0.3,4.9,0.3c-2.2,0.8-4.4,1.1-6.7,1.5c-2.2,0.3-4.4,0.4-6.7,0.3
			C64,103.7,61,103.4,58.1,102.4z"/>
		<path class="st26" d="M77,38.3c-0.2,0-0.3,0-0.5-0.1c-0.1-0.1-0.2-0.2-0.3-0.2c-0.2,0-0.5-0.1-0.7-0.1c0.4-0.6,1-0.6,1.6-0.5
			c1.4,0.3,2.7-0.1,4.1-0.1c1.2,0,2.5,0,3.7,0s2.3,0.2,3.5-0.1c0.6-0.1,1.3-0.1,1.8,0c1.3,0.3,2.7,0.1,4,0.1c1.7,0,3.4-0.1,5.1-0.2
			c0.9,0.9,0.9,0.9,0.3,1.5c-1.4,0-2.7,0-4.1-0.1c-0.9-0.1-1.8,0-2.6,0.1c-0.5,0.1-1,0.2-1.5,0c-0.4-0.2-0.8-0.2-1.2-0.2
			c-3.1,0.3-6.1,0.1-9.2,0.1c-0.9,0-1.8-0.3-2.7,0c-0.4,0-0.8-0.2-1.2-0.4C77.2,38.4,77.1,38.3,77,38.3z"/>
		<path class="st27" d="M99.5,88.4c-0.4,0.2-0.8,0.3-1.2,0.2c-2.1-0.4-4.2-0.1-6.3-0.1c-2.3,0.1-4.6-0.2-6.8,0.1
			c-0.8,0.1-1.6-0.1-2.4-0.1c-1.3-0.1-2.6,0.2-4-0.1c1.1-0.5,2.1-1,3.2-1.5c0.1,0,0.2-0.1,0.3-0.2c0.1-0.1,0.1-0.1,0.2-0.1
			c0.7,0.2,1.4,0.3,2.2,0.3c3.4,0,6.8,0,10.3,0c0.7,0,1.4,0,2.1-0.3C97.9,87.1,98.7,87.7,99.5,88.4z"/>
		<path class="st28" d="M52.7,36.3c0.5,0,1,0,1.5-0.1c2.2,0,4.5,0,6.7,0c0.6,0,1.1,0,1.7,0.1c1.4,0.3,2.8,0.4,4.2,0.5
			c0.2,0.3,0.5,0.3,0.7,0.3l0,0c-2.4,0.2-4.8,0.6-7.1,1.2c-0.6-0.6-1.2,0-1.8-0.2c-2.4-0.5-4.9,0-7.3-0.1c-1.7-0.1-3.4-0.1-5.1-0.1
			c-0.4,0-0.8,0.1-1.2-0.2c0.2-0.1,0.6,0,0.8-0.3c1.8-0.3,3.6-0.7,5.4-1c0.1,0,0.2,0,0.3,0C51.9,36.5,52.3,36.6,52.7,36.3z"/>
		<path class="st29" d="M87,27.8c-1.2,0.3-2.5,0.3-3.8,0.3c-10.2,0-20.5,0-30.7,0c-0.5,0-1.2,0.2-1.5-0.5c0.4-0.3,0.8-0.5,1.2-0.6
			c0.3,0.5,0.7,0.3,1.1,0.3c10.3,0,20.5,0,30.8,0c0.5,0,1-0.2,1.4-0.3C86.1,27.2,86.6,27.5,87,27.8z"/>
		<path class="st30" d="M99.4,37.3c-1.7,0.1-3.4,0.2-5.1,0.2c-1.3,0-2.7,0.1-4-0.1c-0.6-0.1-1.3-0.1-1.8,0c-1.2,0.3-2.3,0.1-3.5,0.1
			s-2.5-0.1-3.7,0c-1.4,0-2.7,0.4-4.1,0.1c-0.6-0.1-1.2-0.2-1.6,0.5c-1.6-0.4-3.2-0.5-4.8-0.8c0.2-0.4,0.6-0.3,1-0.3
			c1.1,0,2.3,0,3.4-0.1c2-0.1,4-0.1,6-0.2c0.6,0,1.1,0.2,1.7,0.1c2.3-0.4,4.7-0.1,7,0c1.4,0.1,2.7-0.1,4.1,0c1.6,0.1,3.2,0,4.8-0.1
			C99,36.7,99.2,37,99.4,37.3z"/>
		<path class="st31" d="M48.7,46c-0.3,0.4-0.7,0.8-1,1.2c-4.7,0-9.5,0-14.2,0c-0.4,0-0.8,0.2-1.1-0.2c0.3-0.5,0.6-1.1,1-1.5
			c1,0.4,2.1,0.6,3.1,0.4c1-0.1,2-0.2,3.1-0.2C42.6,45.8,45.7,45.5,48.7,46z"/>
		<path class="st32" d="M96.9,86.7c-0.6,0.3-1.3,0.3-2,0.3c-3.4,0-6.8,0-10.3,0c-0.7,0-1.5,0-2.2-0.3c2.5-1.5,5.2-2,8.1-1.8
			C92.8,85,95,85.4,96.9,86.7z"/>
		<path class="st33" d="M48.7,46c-3.1-0.5-6.2-0.2-9.3-0.2c-1,0-2,0-3.1,0.2c-1,0.1-2.1,0-3.1-0.4c0.3-0.4,0.7-0.8,1-1.3l0,0
			c0.1,0,0.2,0,0.2,0c0.8,0.2,1.6,0.2,2.5,0.1c1.1-0.2,2.3-0.2,3.4,0c1.8,0.2,3.7,0.3,5.5,0c0.5-0.1,1.1-0.1,1.6,0
			c0.9,0.3,1.7,0.2,2.6,0.2C49.8,45.1,49.3,45.5,48.7,46z"/>
		<path class="st34" d="M55.9,40.3c-0.5,0.4-1.1,0.8-1.7,1c-0.1,0-0.2,0.1-0.3,0.2c0,0.1-0.1,0.1-0.1,0.1c-1.4,0-2.8-0.3-4.1-0.1
			s-2.5-0.3-3.8-0.2c-1.7,0.2-3.3,0.4-5,0.1c-0.9-0.1-1.8,0.2-2.6-0.4c0.2-0.3,0.6-0.4,0.8-0.7c0.5-0.2,1-0.4,1.4-0.5
			C40.6,40,40.8,40,41,40c2,0.2,3.9,0.1,5.9,0.1c2.3,0,4.7,0,7-0.1C54.6,40,55.3,40,55.9,40.3z"/>
		<path class="st35" d="M78.5,38.8c0.9-0.3,1.8,0,2.7,0c3.1-0.1,6.1,0.1,9.2-0.1c0.4,0,0.8,0,1.2,0.2c0.5,0.2,1,0.1,1.5,0
			c0.8-0.2,1.7-0.3,2.6-0.1c1.4,0.2,2.7,0.1,4.1,0.1c-0.3,0.5-0.8,0.7-1.3,1c-0.1,0.1-0.2,0.1-0.2,0.2C98.1,40,98,40,97.9,40
			s-0.2,0-0.3,0c-0.4-0.3-0.9-0.2-1.4-0.3c-2.2-0.1-4.4,0.2-6.6,0c-2.1-0.2-4.2,0-6.3,0c-0.7,0-1.4,0.1-2.1,0.3
			C80.3,39.7,79.3,39.3,78.5,38.8z"/>
		<path class="st21" d="M48,98.2c0.5-0.3,1-0.3,1.6-0.3c5.3,0,10.7,0,16,0c7.5,0,15,0,22.6,0c0.5,0,1-0.2,1.4,0.3
			c-0.1,0.1-0.2,0.2-0.3,0.2c-0.1,0.1-0.1,0.1-0.2,0.2c-0.1,0-0.2,0.1-0.2,0.1c-0.6-0.2-1.3-0.3-1.9-0.3c-12.1,0-24.1,0-36.2,0
			c-0.6,0-1.2-0.1-1.7,0.3C48.5,98.6,48.2,98.4,48,98.2z"/>
		<path class="st17" d="M98.7,36.5c-1.6,0.1-3.2,0.2-4.8,0.1c-1.4-0.1-2.7,0.1-4.1,0c-2.3-0.1-4.7-0.4-7,0c-0.6,0.1-1.1-0.1-1.7-0.1
			c-2,0.1-4,0.1-6,0.2c-1.1,0-2.3,0-3.4,0.1c-0.4,0-0.8-0.1-1,0.3c-0.5,0-1,0-1.5-0.1c-0.2-0.3-0.3-0.3-0.5,0
			c-0.4,0-0.8,0.1-1.3,0.1l0,0c-0.1-0.4-0.5-0.2-0.7-0.3c-1.4-0.1-2.8-0.2-4.2-0.5C67.3,36.1,72.2,36,77,36c5.3,0,10.6,0,15.9,0
			c1.7,0,3.4,0,5.2,0C98.4,36.1,98.6,36.3,98.7,36.5z"/>
		<path class="st36" d="M31.8,57.9c0.4-0.3,0.8-0.5,1.2-0.5c0,0.4,0.2,0.7,0.4,1c2.1,3.6,4.2,7.3,6.3,10.9c-0.2,0.2-0.3,0.3-0.5,0.5
			c-0.3,0.1-0.5,0.2-0.8,0.4c-0.1-0.5-0.4-1-0.7-1.4c-1.9-3.3-3.9-6.6-5.8-9.9C31.9,58.6,31.8,58.3,31.8,57.9z"/>
		<path class="st37" d="M38.3,41c0.8,0.6,1.7,0.3,2.6,0.4c1.6,0.2,3.3,0.1,5-0.1c1.3-0.2,2.5,0.3,3.8,0.2c1.4-0.2,2.8,0.1,4.1,0.1
			c-0.5,0.5-1,0.8-1.6,1.2c-0.4-0.3-0.9-0.2-1.4-0.2c-4.3,0-8.6,0-12.9,0c-0.4,0-0.9,0.2-1.3-0.2c0.1-0.2,0.2-0.3,0.3-0.5
			c0.1,0,0.1,0,0.2-0.1c0.1,0,0.2-0.1,0.2-0.2C37.6,41.3,38,41.2,38.3,41z"/>
		<path class="st17" d="M54.2,91.7c-2.4,0.5-4.7,0.2-7.1,0.3c-2.3,0.1-4.6,0-6.9,0.3c-0.6-0.4-1.1-0.9-1.5-1.5
			c1.7-0.4,3.5-0.2,5.3-0.3c0.4,0,0.9,0.2,1.3-0.3c0.1,0,0.2,0,0.3,0c0.2,0,0.4,0.1,0.6,0.1c0.1,0.1,0.2,0.2,0.3,0.2
			c1.5,0.4,3,0.6,4.5,0.9C52,91.5,53.2,91.2,54.2,91.7z"/>
		<path class="st38" d="M48,80.8c1.1,1.1,2.1,2.1,3.2,3.2c0,0.1,0,0.2,0,0.3c-0.4-0.3-0.8-0.7-1.2-1c-0.2-0.4-0.6-0.8-1-1
			c-0.3-0.4-0.5-0.9-1.1-0.8c-3.3,0.2-6.5,0.1-9.8,0.1c-1.5,0-2.9,0.5-4.4,0c-0.3-0.1-0.5,0.2-0.6,0.5c-0.3-0.2-0.3-0.5-0.5-0.7
			c-0.1-0.1-0.2-0.2-0.2-0.3c-0.1-0.1-0.2-0.2-0.3-0.2l0,0c0.3-0.4,0.8-0.3,1.3-0.3c4.2,0,8.5,0,12.7,0c0.4,0,0.9,0.2,1.3-0.2
			C47.5,80.4,47.7,80.7,48,80.8z"/>
		<path class="st39" d="M50.2,44.5c-0.9,0-1.7,0.1-2.6-0.2c-0.5-0.1-1.1-0.1-1.6,0c-1.8,0.3-3.7,0.3-5.5,0c-1.1-0.2-2.3-0.2-3.4,0
			c-0.9,0.2-1.7,0.2-2.5-0.1c0-0.1,0-0.2,0-0.2c0.3-0.4,0.6-0.8,1-1c0.3,0.4,0.8,0.2,1.2,0.2c1.5,0,3,0.1,4.5,0
			c3.3-0.1,6.7-0.2,10,0.2c-0.1,0.2-0.3,0.4-0.5,0.5c-0.1,0.1-0.2,0.2-0.3,0.2l0,0C50.4,44.3,50.3,44.4,50.2,44.5L50.2,44.5z"/>
		<path class="st40" d="M31.8,57.9c0,0.3,0.1,0.6,0.2,0.9c1.9,3.3,3.9,6.6,5.8,9.9c0.3,0.5,0.6,0.9,0.7,1.4
			c-0.4,0.2-0.8,0.4-1.3,0.6v-0.1c0-0.3,0-0.5-0.2-0.8c-0.5-0.8-1-1.6-1.4-2.4c-1.7-2.9-3.4-5.8-5.1-8.7
			C30.9,58.4,31.3,58.1,31.8,57.9z"/>
		<path class="st41" d="M55.9,40.3c-0.6-0.3-1.3-0.3-2-0.3c-2.3,0.1-4.7,0.1-7,0.1C45,40.1,43,40.2,41,40c-0.2,0-0.4-0.1-0.5-0.3
			l0,0c0.1,0,0.2-0.1,0.3-0.2c0.1,0,0.1,0,0.2,0c0.1,0,0.2-0.1,0.3-0.2c0.3-0.2,0.5-0.3,0.8-0.5c0.3-0.1,0.6-0.2,0.9-0.2
			c0.1,0.7,0.7,0.5,1.1,0.5c3.9,0,7.8,0,11.8,0c0.7,0,1.4,0,2.1,0.3C57.3,39.7,56.6,40,55.9,40.3z"/>
		<path class="st42" d="M32.3,47c0.3,0.4,0.8,0.2,1.1,0.2c4.7,0,9.5,0,14.2,0c-0.2,0.5-0.6,0.9-1,1.3c-5.1-0.1-10.1-0.2-15.2-0.3
			l0,0c0-0.1,0-0.2,0-0.2c0.1,0,0.2-0.1,0.2-0.3C32,47.5,32,47.1,32.3,47z"/>
		<path class="st43" d="M57.9,39.3c-0.7-0.2-1.4-0.3-2.1-0.3c-3.9,0-7.8,0-11.8,0c-0.4,0-1,0.3-1.1-0.5c0.6-0.3,1.3-0.5,2-0.7
			c0.4,0.3,0.8,0.2,1.2,0.2c1.7,0,3.4,0,5.1,0.1c2.4,0.1,4.9-0.4,7.3,0.1c0.6,0.1,1.3-0.5,1.8,0.2C59.6,38.7,58.8,39,57.9,39.3z"/>
		<path class="st44" d="M39.8,69.4c-2.1-3.6-4.2-7.3-6.3-10.9c-0.2-0.3-0.4-0.6-0.4-1c0.4-0.3,0.8-0.3,1.2-0.3
			c1.2,2.8,3,5.4,4.5,8.1c0.6,1.1,1.4,2.1,1.8,3.4c0,0.1,0,0.2,0,0.2l0,0C40.3,69,40,69.2,39.8,69.4z"/>
		<path class="st45" d="M45.7,77.5c0.3,0.4,0.6,0.7,0.8,1.2c-2.3,0-4.6,0-6.9,0c-2.4,0-4.9,0-7.3,0c-0.4,0-1-0.2-1,0.5
			c-0.4-0.4-0.5-1-0.7-1.5c4.6,0,9.2,0,13.8,0C44.9,77.8,45.4,78,45.7,77.5z"/>
		<path class="st42" d="M47.2,80.3c-0.4,0.4-0.8,0.2-1.3,0.2c-4.2,0-8.5,0-12.7,0c-0.4,0-0.9-0.2-1.3,0.3c-0.2-0.1-0.2-0.3-0.2-0.4
			c0-0.5,0.1-0.8,0.8-0.8c4.8,0,9.6,0,14.5,0l0,0c0,0.2,0.1,0.3,0.2,0.3l0,0C47.2,79.9,47.2,80.1,47.2,80.3z"/>
		<path class="st42" d="M47.4,80.4c-0.4,0.5-0.8,0.3-1.3,0.3c-4.3,0-8.6,0-12.9,0c-0.4,0-0.9-0.3-1.3,0.4c-0.2-0.1-0.2-0.4-0.2-0.5
			c0-0.7,0.1-1.1,0.8-1.1c4.9,0,9.7,0,14.7,0l0,0c0,0.3,0.1,0.4,0.2,0.4l0,0C47.4,79.9,47.4,80.1,47.4,80.4z"/>
		<path class="st46" d="M45.7,77.6c-0.4,0.4-0.8,0.1-1.3,0.2c-4.6,0.1-9.2-0.1-13.8-0.1c-0.1-0.3-0.4-0.6-0.3-1c4.5,0,9,0,13.5,0
			c0.4,0,1.1,0.3,1.2-0.5c0.3,0.2,0.5,0.5,0.5,0.9c0,0.2,0.1,0.4,0.2,0.4L45.7,77.6z"/>
		<path class="st47" d="M30.1,51.4c0-0.5,0.2-1,0.5-1.5c4.5,0,9,0,13.5,0c0.5,0,1.1-0.2,1.4,0.5c-0.1,0.3-0.2,0.6-0.5,0.8
			C44.9,51,44.7,51,44.4,51c-4.5,0-8.9,0-13.4,0c-0.4,0-0.7,0-0.7,0.5C30.3,51.5,30.2,51.4,30.1,51.4z"/>
		<path class="st48" d="M40.5,68.6c-0.3-1.3-1.2-2.3-1.8-3.4c-1.4-2.7-3.2-5.2-4.5-8.1c0.6-0.3,1.2-0.3,1.8,0
			c-0.8,0.1-0.2,0.5-0.1,0.8c1,1.9,2.1,3.8,3.2,5.7c0.7,1.2,1.2,2.6,2.4,3.5c-0.1,0.2-0.2,0.5-0.2,0.7c-0.3,0.2-0.4,0.4-0.5,0.7
			C40.7,68.6,40.6,68.6,40.5,68.6z"/>
		<path class="st49" d="M30.6,58.9c1.7,2.9,3.4,5.8,5.1,8.7c0.5,0.8,0.9,1.6,1.4,2.4c0.2,0.3,0.2,0.5,0.2,0.8c-0.2,0-0.4,0-0.6,0.1
			c-0.4,0-0.6-0.3-0.7-0.6c-1.5-2.6-2.9-5.2-4.4-7.7c-0.6-1-1.3-1.9-1.7-3C30,59.3,30.2,59,30.6,58.9z"/>
		<path class="st50" d="M45,76.3c-0.1,0.8-0.7,0.5-1.2,0.5c-4.5,0-9,0-13.5,0c-0.3-0.4-0.4-0.8-0.4-1.2c0.3,0.1,0.5,0.2,0.8,0.2
			c4.3,0,8.7,0,13,0c0.4,0,0.8,0,0.8-0.5C44.8,75.5,44.9,75.9,45,76.3z"/>
		<path class="st51" d="M45.5,50.5c-0.3-0.7-0.9-0.5-1.4-0.5c-4.5,0-9,0-13.5,0c0.1-0.6,0.3-1.2,0.7-1.8c0.1,0,0.2,0,0.3,0l0,0
			C31.3,48.7,31.3,49,32,49c2.1-0.1,4.2,0.4,6.4,0c2.4-0.4,4.9,0.3,7.3,0c0.2,0,0.4,0.1,0.6,0.2C46.1,49.7,45.8,50.1,45.5,50.5z"/>
		<path class="st17" d="M51.2,36.5c-1.8,0.3-3.6,0.7-5.4,1c-1.4-0.5-2.8-0.2-4.1-0.3c-1.1-0.1-2.2,0.1-3.3-0.2
			c0.1-0.2,0.2-0.4,0.4-0.5c0.1,0,0.2-0.1,0.2-0.3l0,0c0.1,0,0.2-0.1,0.3-0.3l0,0c0.1,0,0.2-0.1,0.3-0.3l0,0c0.1,0,0.2,0,0.3,0
			c0.2,0.3,0.5,0.2,0.8,0.2c2.2,0.1,4.5,0,6.7,0.1C48.6,36.2,49.9,36.1,51.2,36.5z"/>
		<path class="st52" d="M44.5,75.3c0,0.5-0.4,0.5-0.8,0.5c-4.3,0-8.7,0-13,0c-0.3,0-0.6-0.1-0.8-0.2c-0.1-0.3-0.2-0.5-0.2-0.8
			c0.9,0,1.9,0,2.8,0c0.8,0,1.6,0.4,2.4,0.2c1.1-0.2,2.1-0.2,3.2-0.1c1.8,0.1,3.6-0.1,5.4-0.1c0.3,0,0.5-0.1,0.5-0.3
			C44.4,74.5,44.4,74.9,44.5,75.3z"/>
		<path class="st53" d="M41.5,67.1c-1.1-0.9-1.6-2.3-2.4-3.5C38,61.7,37,59.8,36,57.9c-0.1-0.2-0.7-0.6,0.1-0.8c0.3,0,0.6,0.1,1,0.1
			c0.9,2.3,2.4,4.2,3.6,6.3c0.4,0.7,0.5,1.6,1.5,1.8c0,0.5-0.3,1-0.3,1.5C41.7,66.9,41.6,67,41.5,67.1z"/>
		<path class="st54" d="M95.5,41.3c-3.9,1.7-7.9,1.7-11.8,0c0.5-0.1,1-0.3,1.6-0.3c2.9,0,5.9,0,8.8,0C94.6,41,95.1,41,95.5,41.3z"/>
		<path class="st55" d="M51.2,43.5c-3.3-0.4-6.7-0.3-10-0.2c-1.5,0-3,0-4.5,0c-0.4,0-0.8,0.2-1.2-0.2c0.3-0.3,0.7-0.5,1-0.8
			c0.4,0.4,0.8,0.2,1.3,0.2c4.3,0,8.6,0,12.9,0c0.5,0,1-0.1,1.4,0.2C51.9,43.1,51.6,43.3,51.2,43.5z"/>
		<path class="st56" d="M29.8,59.6c0.4,1.1,1.1,2,1.7,3c1.5,2.6,2.9,5.2,4.4,7.7c0.2,0.3,0.3,0.6,0.7,0.6c-0.5,0.4-1,0.2-1.6,0.2
			c0-0.2,0-0.5-0.1-0.7c-1.5-2.3-2.6-4.7-4.1-7c-0.6-0.8-0.7-2-1.8-2.5C29.2,60.4,29.4,59.9,29.8,59.6z"/>
		<path class="st57" d="M45.5,62.6c0.4,0.9,0.4,1.8,0,2.8c0-0.5-0.1-0.9-0.4-1.4c-0.8-0.8-1.8-1.4-2.4-2.4c-0.2-0.3-0.5-0.2-0.8-0.2
			c-0.7-1.3-1.4-2.5-2.8-3.2l0,0C39,58.1,39,58.1,38.9,58c-0.4-0.4-1.1-0.5-1.6-0.8c0.9-0.3,1.9-0.3,2.8,0c1.3,2.1,3.4,3.4,4.9,5.2
			C45.1,62.6,45.3,62.6,45.5,62.6z"/>
		<path class="st57" d="M45.4,62.7c0.4,0.9,0.4,1.8,0,2.8c0-0.5-0.1-0.9-0.4-1.4c-0.8-0.8-1.8-1.4-2.4-2.4c-0.2-0.3-0.5-0.2-0.8-0.2
			c-0.7-1.3-1.4-2.5-2.8-3.2l0,0c-0.1-0.1-0.1-0.1-0.2-0.2c-0.4-0.4-1.1-0.5-1.6-0.8c0.9-0.3,1.9-0.3,2.8,0c1.3,2.1,3.4,3.4,4.9,5.2
			C45,62.7,45.2,62.7,45.4,62.7z"/>
		<path class="st58" d="M81.2,40c0.7-0.2,1.4-0.3,2.1-0.3c2.1,0,4.2-0.1,6.3,0c2.2,0.2,4.4-0.1,6.6,0c0.5,0,1,0,1.4,0.3
			c0,0.1,0,0.2,0,0.2l0,0c-0.1,0.1-0.1,0.1-0.2,0.2c-0.1,0-0.2,0.1-0.3,0.1c-0.1,0.1-0.2,0.1-0.3,0.2c-0.1,0-0.2,0.1-0.2,0.1
			c-0.6-0.1-1.1-0.3-1.7-0.3c-3.6,0-7.3,0-10.9,0c-0.5,0-1,0-1.4,0.3C82.1,40.7,81.7,40.4,81.2,40z"/>
		<path class="st59" d="M47,79.5c-4.8,0-9.6,0-14.5,0c-0.6,0-0.8,0.3-0.8,0.8c-0.2-0.1-0.2-0.3-0.2-0.5c0-0.1-0.1-0.2-0.2-0.3
			c-0.1-0.1-0.1-0.1-0.1-0.2c0.1-0.7,0.6-0.5,1-0.5c2.4,0,4.9,0,7.3,0c2.3,0,4.6,0,6.9,0C46.8,78.9,47,79.2,47,79.5z"/>
		<path class="st59" d="M47,79.4c-4.8,0-9.6,0-14.5,0c-0.6,0-0.8,0.3-0.8,0.8c-0.2-0.1-0.2-0.3-0.2-0.5c0-0.1-0.1-0.2-0.2-0.3
			c-0.1-0.1-0.1-0.1-0.1-0.2c0.1-0.7,0.6-0.5,1-0.5c2.4,0,4.9,0,7.3,0c2.3,0,4.6,0,6.9,0C46.8,78.8,47,79.1,47,79.4z"/>
		<path class="st60" d="M45.3,90.2c-0.3,0.5-0.8,0.3-1.3,0.3c-1.8,0.1-3.5-0.2-5.3,0.3c-0.7-0.6-1.3-1.2-1.7-2
			c1.1-0.1,2.1-0.3,3.2,0c0.2,0.1,0.5,0,0.6-0.3c0.1,0,0.2,0,0.2,0.1c0.1,0.1,0.2,0.1,0.3,0.2c0.7,0.2,1.3,0.5,2,0.7
			c0.1,0,0.3,0,0.4,0.1c0.1,0.1,0.2,0.2,0.3,0.2C44.4,89.9,44.9,89.9,45.3,90.2z"/>
		<path class="st61" d="M30.3,51.5c0-0.5,0.3-0.5,0.7-0.5c4.5,0,8.9,0,13.4,0c0.3,0,0.5,0.1,0.6,0.3c0,0.2,0,0.4-0.2,0.5
			c-4.4,0-8.8,0-13.2,0C31.2,51.7,30.7,51.9,30.3,51.5z"/>
		<path class="st59" d="M46.3,49.2c-0.2-0.1-0.4-0.2-0.6-0.2c-2.4,0.3-4.9-0.3-7.3,0c-2.2,0.3-4.3-0.1-6.4,0c-0.7,0-0.7-0.3-0.4-0.7
			c5.1,0.1,10.1,0.2,15.2,0.3C46.6,48.8,46.5,49,46.3,49.2z"/>
		<path class="st62" d="M38.3,37.1c1.1,0.4,2.2,0.2,3.3,0.2c1.4,0.1,2.8-0.2,4.1,0.3c-0.2,0.3-0.5,0.2-0.8,0.3
			c-0.7,0.2-1.4,0.4-2,0.7c-0.3,0.1-0.6,0.2-0.9,0.2c-1.1,0-2.1,0-3.2,0c-0.6,0-1.3,0.2-1.6-0.5C37.6,37.8,37.9,37.4,38.3,37.1z"/>
		<path class="st63" d="M37.2,57.2c0.5,0.3,1.1,0.4,1.6,0.8c0.1,0.1,0.1,0.1,0.2,0.2l0,0c0.6,2.1,1.8,3.8,3.2,5.4c0,0.6,0,1.1,0,1.7
			c-0.1,0-0.1,0-0.2,0.1c-1-0.2-1.1-1.2-1.5-1.8c-1.2-2.1-2.6-4.1-3.6-6.3C37.1,57.2,37.2,57.2,37.2,57.2z"/>
		<path class="st64" d="M30.3,51.5c0.4,0.4,0.8,0.2,1.3,0.2c4.4,0,8.8,0,13.2,0c0,0.1-0.1,0.2-0.1,0.2c-0.1,0.1-0.2,0.2-0.2,0.3
			c0,0.2,0,0.4-0.2,0.5c-0.2-0.6-0.7-0.6-1.2-0.6c-1.5,0.2-3.1,0.2-4.6,0c-0.2,0-0.3,0-0.5,0c-2.7,0.5-5.4,0.2-8.1,0
			c0-0.1,0-0.2,0-0.3c0.2-0.1,0.2-0.3,0.2-0.5l0,0C30.2,51.4,30.3,51.5,30.3,51.5z"/>
		<path class="st65" d="M29.9,52.2c2.7,0.2,5.4,0.5,8.1,0c0.2,0,0.3,0,0.5,0c1.5,0.2,3.1,0.2,4.6,0c0.5-0.1,1,0,1.2,0.6
			c0,0.1,0,0.1-0.1,0.2c-4.8,0.1-9.6,0.1-14.4,0c0-0.2,0-0.4,0-0.6C29.8,52.3,29.8,52.2,29.9,52.2z"/>
		<path class="st66" d="M44,74.4c0,0.3-0.2,0.4-0.5,0.4c-1.8,0-3.6,0.3-5.4,0.2c-1.1-0.1-2.1-0.2-3.2,0c-0.8,0.2-1.6-0.2-2.4-0.2
			c-0.9,0-1.9,0-2.8,0c-0.2-0.7,0.4-0.5,0.7-0.5c2,0,4,0,6,0C38.9,74.3,41.5,74.3,44,74.4z"/>
		<path class="st67" d="M29,60.9c1.1,0.5,1.2,1.6,1.8,2.5c1.5,2.3,2.6,4.7,4.1,7c0.1,0.2,0.1,0.5,0.1,0.7c-0.4,0-0.9,0.1-1.3-0.2
			c0.5-0.3,0.1-0.6,0-0.8c-1.4-2.5-2.8-5.1-4.3-7.6c-0.2-0.3-0.3-0.8-0.8-0.8C28.7,61.3,28.8,61.1,29,60.9z"/>
		<path class="st68" d="M28.3,64.9c-0.4-0.8-0.1-1.5,0.1-2.3c0.1,0.1,0.3,0.2,0.4,0.3c1.5,2.3,2.8,4.7,4.2,7.1
			c0.1,0.2,0.1,0.4-0.1,0.5c-0.6,0-1.1-0.4-1.5-0.7c0.1-0.1,0.1-0.2,0.1-0.3c0-0.8-0.8-1.2-1-1.9c-0.3-1.2-1.3-1.9-1.7-3
			C28.6,64.2,28.4,64.7,28.3,64.9z"/>
		<path class="st69" d="M32.8,70.6c0.2-0.1,0.2-0.3,0.1-0.5c-1.3-2.4-2.7-4.8-4.2-7.1c-0.1-0.1-0.3-0.2-0.4-0.3
			c-0.1-0.4,0.2-0.7,0.3-1c0.5,0,0.6,0.5,0.8,0.8c1.5,2.5,2.9,5,4.3,7.6c0.1,0.2,0.5,0.6,0,0.8C33.4,70.8,33.1,70.9,32.8,70.6z"/>
		<path class="st70" d="M45.5,62.6c-0.2,0-0.4,0-0.6-0.2c-1.5-1.8-3.6-3.2-4.9-5.2C42.6,57.4,45.4,60.2,45.5,62.6z"/>
		<path class="st71" d="M82.7,40.8c0.4-0.3,0.9-0.3,1.4-0.3c3.6,0,7.3,0,10.9,0c0.6,0,1.1,0.1,1.7,0.3c-0.3,0.3-0.7,0.5-1.2,0.5
			C95.1,41,94.6,41,94.1,41c-2.9,0-5.9,0-8.8,0c-0.6,0-1,0.2-1.6,0.3C83.3,41.3,83,41.1,82.7,40.8z"/>
		<path class="st72" d="M29.9,52.9c4.8,0.1,9.6,0.1,14.4,0c-0.1,0.6-0.5,0.6-0.9,0.6c-4.3,0-8.7,0-13,0c-0.4,0-0.8,0-0.7-0.6
			C29.7,52.9,29.8,52.9,29.9,52.9z"/>
		<path class="st73" d="M40.8,88.5c-0.1,0.3-0.4,0.3-0.6,0.3c-1.1-0.3-2.1-0.1-3.2,0c-0.5-0.4-0.8-1-1.2-1.5c0.3-0.8,1-0.5,1.5-0.7
			c0.2,0.1,0.5,0.2,0.7,0.3l0,0c0,0.1,0.1,0.2,0.2,0.2C39,87.6,39.7,88.2,40.8,88.5C40.8,88.3,40.8,88.4,40.8,88.5z"/>
		<path class="st74" d="M37.3,38.3c0.4,0.7,1.1,0.5,1.6,0.5c1,0.1,2.1,0,3.2,0c-0.3,0.2-0.5,0.3-0.8,0.5c-0.1,0-0.2,0.1-0.3,0.2
			c-0.1,0-0.1,0-0.2,0c-0.1,0-0.2,0.1-0.3,0.2l0,0c-0.5,0.2-1,0.4-1.4,0.5c-0.6-0.4-1.2-0.2-1.9-0.3c-0.4,0-0.9,0.1-0.9-0.5
			C36.6,39.1,36.8,38.6,37.3,38.3z"/>
		<path class="st75" d="M41.8,61.4c0.3,0,0.6,0,0.8,0.2c0.7,1,1.7,1.6,2.4,2.4c0.4,0.4,0.5,0.9,0.4,1.4c0,0.3,0.1,0.7-0.3,1
			c-0.6-1.2-1.5-2.1-2.7-2.7c-0.1-0.1-0.1-0.2-0.2-0.2C42.1,62.7,42,62.1,41.8,61.4z"/>
		<path class="st76" d="M28.3,64.9c0.1-0.2,0.2-0.8,0.4-0.3c0.4,1.1,1.4,1.9,1.7,3c0.2,0.6,1,1,1,1.9c0,0.1,0,0.2-0.1,0.3
			C29.5,68.7,28.5,67.1,28.3,64.9z"/>
		<path class="st77" d="M36.3,39.5c0,0.6,0.5,0.5,0.9,0.5c0.6,0,1.3-0.1,1.9,0.3c-0.1,0.4-0.6,0.4-0.8,0.7c-0.3,0.2-0.7,0.3-1,0.5
			c-0.1,0.1-0.2,0.1-0.2,0.2c-0.1,0-0.1,0-0.2,0.1c-0.5-0.5-1.3,0-1.8-0.6c0.1-0.2,0.2-0.3,0.3-0.5c0.1-0.1,0.1-0.2,0.2-0.2
			C35.8,40.1,36,39.8,36.3,39.5z"/>
		<path class="st78" d="M35,41.2c0.5,0.6,1.3,0,1.8,0.6c-0.1,0.2-0.2,0.3-0.3,0.5c-0.3,0.3-0.7,0.5-1,0.8c-0.4,0.2-0.7,0.6-1,1
			c-0.1,0.1-0.2,0.2-0.2,0.2l0,0c-0.3-0.2-0.6-0.2-0.8-0.6c0-0.1,0-0.1,0.1-0.2c0.1-0.1,0.2-0.1,0.2-0.3
			C34.1,42.5,34.5,41.8,35,41.2z"/>
		<path class="st79" d="M42.3,63.4c0.1,0.1,0.1,0.2,0.2,0.2c0.1,1.7,1.5,2.3,2.6,3.3c-0.1,0.4-0.2,0.7-0.5,1
			c-0.9-0.8-1.9-1.4-2.3-2.5c0-0.6,0-1.1,0-1.7C42.3,63.5,42.3,63.5,42.3,63.4z"/>
		<path class="st80" d="M42.3,65.3c0.4,1.2,1.4,1.8,2.3,2.5c-0.2,0.4-0.4,0.8-0.8,1c-0.4-0.9-1.5-1.1-2-2c0-0.5,0.3-1,0.3-1.5
			C42.1,65.4,42.2,65.4,42.3,65.3z"/>
		<path class="st80" d="M42.1,65.5c0.4,1.2,1.4,1.8,2.3,2.5c-0.2,0.4-0.4,0.8-0.8,1c-0.4-0.9-1.5-1.1-2-2c0-0.5,0.3-1,0.3-1.5
			C41.9,65.6,42,65.6,42.1,65.5z"/>
		<path class="st81" d="M37.3,86.5c-0.5,0.3-1.3,0-1.5,0.7c-0.4-0.4-0.8-0.9-1-1.4c0-0.1-0.1-0.2-0.2-0.3c-0.1-0.2-0.3-0.3-0.3-0.5
			c0-0.5,0.4-0.5,0.7-0.5l0,0c0.1,0.1,0.2,0.2,0.3,0.2l0,0c0,0.1,0.1,0.2,0.3,0.2c0.2,0.1,0.3,0.2,0.5,0.2l0,0
			c0,0.1,0.1,0.2,0.2,0.2l0,0c0,0.1,0.1,0.2,0.2,0.2c0.2,0.1,0.3,0.2,0.5,0.3c0.1,0.1,0.2,0.2,0.3,0.2
			C37.3,86.3,37.3,86.4,37.3,86.5z"/>
		<path class="st82" d="M51.2,84.2c0-0.1,0-0.2,0-0.3c2.3,1.8,4.8,3.3,7.5,4.5c-0.1,0.1-0.2,0.2-0.3,0.3c-0.1,0-0.2,0-0.3,0
			c-0.8-0.4-1.7-0.8-2.5-1.2c-0.5-0.4-1.1-0.8-1.7-1c-0.1-0.1-0.2-0.2-0.3-0.2l0,0c0-0.1-0.1-0.2-0.3-0.2c-0.2-0.1-0.3-0.2-0.5-0.3
			c-0.1-0.1-0.2-0.2-0.3-0.2l0,0c0-0.1-0.1-0.2-0.3-0.2c-0.2-0.2-0.5-0.3-0.7-0.5c-0.1-0.1-0.2-0.2-0.3-0.2l0,0
			C51.4,84.4,51.3,84.3,51.2,84.2L51.2,84.2z"/>
		<path class="st83" d="M45.1,66.9c-1.1-0.9-2.5-1.5-2.6-3.3c1.2,0.6,2.1,1.5,2.7,2.7C45.3,66.6,45.3,66.8,45.1,66.9z"/>
		<path class="st84" d="M41.8,66.9c0.5,0.8,1.6,1.1,2,2c-0.2,0.4-0.5,0.7-1,0.8c-0.3-0.8-1.2-1.1-1.5-1.9c0.1-0.2,0.2-0.5,0.2-0.7
			C41.6,67,41.7,66.9,41.8,66.9z"/>
		<path class="st85" d="M33.5,43.7c0.1,0.3,0.5,0.4,0.8,0.6c-0.3,0.4-0.7,0.8-1,1.3c-0.4,0.4-0.7,0.9-1,1.5
			c-0.3,0.2-0.3,0.5-0.5,0.7c-0.1,0.1-0.2,0.2-0.2,0.3s0,0.2,0,0.2c-0.1,0-0.2,0-0.3,0C31.8,46.6,32.6,45.1,33.5,43.7z"/>
		<path class="st86" d="M39.8,69.4c0.2-0.2,0.5-0.4,0.7-0.5c0.3,0.6,1,0.8,1,1.6c-0.5,0.4-1.2,0.4-1.8,0.6c0-0.4-0.3-0.8-0.5-1.1
			C39.5,69.7,39.6,69.5,39.8,69.4z"/>
		<path class="st87" d="M41.6,70.4c0-0.8-0.8-1-1-1.6l0,0c0.1,0,0.2-0.1,0.3-0.3c0.1-0.3,0.2-0.5,0.5-0.7c0.4,0.7,1.2,1.1,1.5,1.9
			C42.5,70.1,42,70.3,41.6,70.4z"/>
		<path class="st87" d="M41.4,70.5c0-0.8-0.8-1-1-1.6l0,0c0.1,0,0.2-0.1,0.3-0.3c0.1-0.3,0.2-0.5,0.5-0.7c0.4,0.7,1.2,1.1,1.5,1.9
			C42.3,70.2,41.8,70.4,41.4,70.5z"/>
		<path class="st88" d="M35.6,84.6c-0.5,0-0.8,0-0.8,0.5c-1-1.3-2.1-2.7-2.6-4.2c0.2,0,0.3,0.1,0.3,0.2c0.1,0.1,0.2,0.2,0.2,0.3
			c0.2,0.3,0.2,0.6,0.6,0.7c0.1,0.2,0.2,0.4,0.6,0.5c0,0.1,0,0.2,0,0.2c0,0.1,0.1,0.2,0.2,0.2l0,0c0,0.1,0.1,0.2,0.2,0.3l0,0
			c0.1,0.1,0.2,0.2,0.2,0.3c0.1,0.2,0.3,0.4,0.6,0.5C35.3,84.3,35.5,84.4,35.6,84.6z"/>
		<path class="st89" d="M39.3,69.9c0.2,0.4,0.4,0.7,0.5,1.1c-0.8,0.1-1.7,0.3-2.5-0.1c0.4-0.2,0.8-0.4,1.3-0.6
			C38.8,70.1,39,70,39.3,69.9z"/>
		<path class="st90" d="M60.4,89.4c-0.7-0.2-1.4-0.4-2-0.7c0.1-0.1,0.2-0.2,0.3-0.3"/>
		<path class="st59" d="M47.2,80.3c0-0.2,0-0.3,0-0.5c0.4,0.2,0.6,0.6,0.8,1C47.7,80.7,47.5,80.4,47.2,80.3z"/>
		<path class="st90" d="M69.3,90.3c-0.3,0.3-0.6,0.3-1,0C68.7,90.3,69,90.3,69.3,90.3z"/>
		<path class="st23" d="M56.4,25.4c-0.1,0.2-0.3,0.2-0.5,0.2C56,25.4,56.2,25.4,56.4,25.4z"/>
		<path class="st30" d="M68.8,37c0.2-0.3,0.3-0.3,0.5,0C69.2,37,69,37,68.8,37z"/>
		<path class="st17" d="M74,89.8C73.9,90,73.7,90,73.5,90C73.7,89.8,73.8,89.7,74,89.8z"/>
		<path class="st64" d="M29.9,52.9c-0.1,0-0.1,0-0.2,0c0-0.2,0-0.4,0.2-0.6C29.8,52.6,29.8,52.7,29.9,52.9z"/>
		<path class="st90" d="M65.7,90.2c-0.2,0-0.4,0-0.6-0.2C65.3,90,65.5,90,65.7,90.2z"/>
		<path class="st47" d="M30.1,51.4c0,0.2,0,0.4-0.2,0.5C29.9,51.7,29.9,51.6,30.1,51.4z"/>
		<path class="st59" d="M47.3,79.8c-0.2,0-0.2-0.1-0.2-0.3C47.2,79.5,47.2,79.6,47.3,79.8z"/>
		<path class="st45" d="M31.4,79.5c0.1,0.1,0.2,0.2,0.2,0.3C31.4,79.8,31.4,79.7,31.4,79.5z"/>
		<path class="st19" d="M41.8,33.6c0,0.1,0,0.1,0,0.2c-0.1,0-0.1,0-0.2,0C41.6,33.7,41.7,33.6,41.8,33.6z"/>
		<path class="st29" d="M50.2,27.9C50.1,28,50,28,50,28.1C50,28,50.1,28,50.2,27.9z"/>
		<path class="st14" d="M40,35.3c0,0.1-0.1,0.2-0.3,0.3C39.8,35.4,39.9,35.3,40,35.3z"/>
		<path class="st29" d="M50.7,27.7c-0.1,0.1-0.1,0.1-0.2,0.2C50.5,27.8,50.6,27.8,50.7,27.7z"/>
		<path class="st45" d="M45.7,77.5c-0.2-0.1-0.2-0.2-0.2-0.4C45.7,77.2,45.7,77.4,45.7,77.5z"/>
		<path class="st14" d="M39.8,35.8c-0.1,0-0.2,0-0.3,0c0-0.1,0.1-0.2,0.3-0.3C39.8,35.6,39.8,35.7,39.8,35.8z"/>
		<path class="st14" d="M39.5,35.8c0,0.1-0.1,0.2-0.3,0.3C39.3,35.9,39.4,35.8,39.5,35.8z"/>
		<path class="st14" d="M39.3,36c0,0.1-0.1,0.2-0.3,0.3C39.1,36.2,39.1,36.1,39.3,36z"/>
		<path class="st14" d="M39,36.3c0,0.1-0.1,0.2-0.2,0.3C38.8,36.4,38.9,36.3,39,36.3z"/>
		<path class="st88" d="M34.6,85.5c0.1,0.1,0.2,0.1,0.2,0.3C34.7,85.7,34.6,85.6,34.6,85.5z"/>
		<path class="st85" d="M33.8,43.2c0,0.1-0.1,0.2-0.2,0.3C33.6,43.4,33.7,43.3,33.8,43.2z"/>
		<path class="st32" d="M82.3,86.8C82.2,86.9,82.1,87,82,87C82,86.8,82.1,86.7,82.3,86.8z"/>
		<path class="st22" d="M42.5,33c0,0.1-0.1,0.2-0.3,0.3C42.3,33.2,42.4,33.1,42.5,33z"/>
		<path class="st29" d="M49.7,28.2c-0.1,0.1-0.2,0.1-0.2,0.2C49.5,28.2,49.6,28.2,49.7,28.2z"/>
		<path class="st30" d="M76.2,38.1c0.1,0,0.2,0,0.3,0.2C76.4,38.2,76.3,38.2,76.2,38.1z"/>
		<path class="st29" d="M49.2,28.4c-0.1,0.1-0.1,0.1-0.2,0.2C49.1,28.5,49.1,28.5,49.2,28.4z"/>
		<path class="st17" d="M77,89c-0.1,0.1-0.2,0.2-0.3,0.2C76.8,89,76.9,89,77,89z"/>
		<path class="st90" d="M61.7,89.4c-0.1,0-0.3,0-0.3-0.2C61.5,89.2,61.7,89.3,61.7,89.4z"/>
		<path class="st17" d="M76,89.3c-0.1,0.1-0.2,0.1-0.3,0.2C75.8,89.3,75.9,89.3,76,89.3z"/>
		<path class="st30" d="M77,38.3c0.1,0,0.2,0.1,0.3,0.1C77.1,38.5,77.1,38.4,77,38.3z"/>
		<path class="st90" d="M62.7,89.7c-0.1,0-0.2,0-0.3-0.2C62.5,89.5,62.6,89.6,62.7,89.7z"/>
		<path class="st17" d="M75,89.5c-0.1,0.1-0.2,0.1-0.3,0.2C74.8,89.6,74.9,89.5,75,89.5z"/>
		<path class="st22" d="M42.8,33.1c-0.1,0-0.2,0-0.3,0c0-0.1,0.1-0.2,0.3-0.2l0,0C42.8,32.9,42.8,33,42.8,33.1z"/>
		<path class="st90" d="M64,89.9c-0.1,0-0.2,0-0.3-0.1C63.8,89.8,63.9,89.8,64,89.9z"/>
		<path class="st71" d="M98.2,40c0.1-0.1,0.2-0.1,0.2-0.2C98.3,39.9,98.3,40,98.2,40z"/>
		<path class="st61" d="M44.5,52.3c0-0.1,0.1-0.2,0.2-0.3C44.7,52.1,44.7,52.2,44.5,52.3z"/>
		<path class="st71" d="M97.6,40.3c0-0.1,0-0.2,0-0.2c0.1,0,0.2,0,0.3,0C97.9,40.2,97.8,40.3,97.6,40.3z"/>
		<path class="st12" d="M94.4,32.8c0-0.1,0-0.2,0-0.3c0.1,0,0.2,0.1,0.3,0.2C94.6,32.8,94.5,32.8,94.4,32.8z"/>
		<path class="st71" d="M97.4,40.4c0.1-0.1,0.1-0.1,0.2-0.2C97.6,40.3,97.5,40.4,97.4,40.4z"/>
		<path class="st78" d="M35.6,40.5c-0.1,0.1-0.1,0.2-0.2,0.2C35.4,40.6,35.5,40.6,35.6,40.5z"/>
		<path class="st71" d="M96.9,40.7c0.1-0.1,0.2-0.1,0.3-0.2C97.1,40.6,97.1,40.7,96.9,40.7z"/>
		<path class="st37" d="M53.9,41.5c0.1-0.1,0.2-0.2,0.3-0.2C54.2,41.4,54.1,41.5,53.9,41.5z"/>
		<path class="st33" d="M50.2,44.5c0.1-0.1,0.2-0.2,0.2-0.2C50.4,44.4,50.3,44.5,50.2,44.5z"/>
		<path class="st12" d="M94.7,94.6c0.1-0.1,0.2-0.1,0.3-0.2C94.9,94.6,94.8,94.6,94.7,94.6z"/>
		<path class="st21" d="M46.5,97.2L46.5,97.2c-0.1,0.1-0.2,0-0.2-0.1C46.4,97.2,46.4,97.2,46.5,97.2z"/>
		<path class="st21" d="M46.7,97.4c0.1,0.1,0.2,0.1,0.3,0.2C46.8,97.6,46.8,97.5,46.7,97.4z"/>
		<path class="st21" d="M47.2,97.7c0.1,0,0.2,0.1,0.3,0.2C47.3,97.9,47.2,97.8,47.2,97.7z"/>
		<path class="st12" d="M94.4,32.6c-0.1-0.1-0.2-0.2-0.3-0.2C94.3,32.3,94.4,32.4,94.4,32.6z"/>
		<path class="st33" d="M50.5,44.2c0.1-0.1,0.2-0.2,0.3-0.2C50.7,44.1,50.6,44.2,50.5,44.2z"/>
		<path class="st16" d="M89,98.6c0.1-0.1,0.1-0.1,0.2-0.2C89.1,98.5,89,98.5,89,98.6z"/>
		<path class="st12" d="M94.2,32.3c-0.1-0.1-0.2-0.1-0.2-0.2C94.1,32.1,94.1,32.2,94.2,32.3z"/>
		<path class="st91" d="M54.5,91.7c-1-0.4-2.3-0.2-3.4-0.4c-1.6-0.3-3.1-0.5-4.7-1c-0.1-0.1-0.2-0.2-0.3-0.2c-0.2,0-0.4-0.1-0.6-0.1
			c2.3-0.9,4.5-0.3,6.8-0.3c1.3,0,2.8,0,4.1,0c1.6,0.1,3.2-0.2,4.8-0.6c0.2,0,0.4,0,0.6,0c0.2,0,0.3,0.1,0.4,0.2
			c0.1,0.2,0.4,0.1,0.6,0.1c0.1,0,0.2,0,0.3,0.1c0.1,0,0.1,0.1,0.2,0.2c0.1,0.1,0.2,0.1,0.3,0.1c0.2,0,0.5,0,0.7,0.1
			c0.1,0.1,0.2,0.2,0.4,0.2c0.2,0.1,0.4,0.1,0.7,0c0.2,0,0.4,0,0.5,0c0.1,0,0.2,0,0.3,0c0.1,0,0.2,0.1,0.3,0.2
			c0.4,0.2,0.9,0.1,1.3,0.1c0.1,0,0.1,0.7,0.1,0.7c-2.2,0.2-4.3,0.5-6.4,0.8C59,91.7,56.8,91.7,54.5,91.7z"/>
		<path class="st92" d="M61.2,89.4c-1.5,0.4-3.5,0.8-5,0.7c-1.3-0.1-2.7,0-4,0c-2.2,0-4.5-0.8-6.6,0c-0.1,0-0.2,0-0.3,0
			c-0.4-0.3-0.8-0.3-1.3-0.5c-0.1-0.1-0.2-0.2-0.3-0.2s-0.3,0-0.4-0.1c0.6-0.4,1.2-0.5,1.9-0.5c3.9,0,7.7,0,11.6,0
			c0.5,0,1,0,1.4-0.3c0.1,0,0.6-0.3,0.7-0.3c0.6,0.3,1.3,0.5,2,0.7c0.1,0,0.2,0,0.3,0C61.1,89.3,61.1,89.3,61.2,89.4z"/>
		<path class="st90" d="M67.8,90.9c0-0.1,0-0.2,0-0.2c0.1,0,0.1,0.1,0.2,0.1C67.9,90.9,67.9,90.9,67.8,90.9z"/>
		<path class="st19" d="M72.1,33.1c1.2,0,2.5,0,3.7,0C74.6,33.5,73.3,33.5,72.1,33.1z"/>
		<path class="st19" d="M56.2,33.1c1.2,0,2.5,0,3.7,0C58.7,33.5,57.4,33.5,56.2,33.1z"/>
		<path class="st19" d="M53.2,33.1c0.5,0,1,0,1.5,0C54.2,33.4,53.7,33.4,53.2,33.1z"/>
		<path class="st19" d="M69.1,33.1c0.5,0,1,0,1.5,0C70.1,33.4,69.6,33.4,69.1,33.1z"/>
		<path class="st19" d="M49,33.1c0.4,0,0.8,0,1.2,0C49.8,33.4,49.4,33.4,49,33.1z"/>
		<path class="st19" d="M64.9,33.1c0.4,0,0.8,0,1.2,0C65.7,33.4,65.3,33.4,64.9,33.1z"/>
		<path class="st19" d="M43.3,33.1c0.2,0,0.5,0,0.7,0C43.8,33.4,43.5,33.4,43.3,33.1z"/>
		<path class="st19" d="M42.8,33.1c0-0.1,0-0.1,0-0.2c0.1,0,0.2,0.1,0.2,0.2C42.9,33.1,42.8,33.1,42.8,33.1z"/>
		<path class="st17" d="M60.9,36.3c-2.2,0-4.5,0-6.7,0c0.3-0.3,0.6-0.2,0.9-0.2c1.6,0,3.2,0,4.8,0C60.3,36.1,60.6,35.9,60.9,36.3z"
			/>
		<path class="st17" d="M52.7,36.3c-0.4,0.3-0.8,0.2-1.3,0.2C51.8,36.1,52.3,36.4,52.7,36.3z"/>
		<path class="st30" d="M66.8,36.8c0.3,0,0.6-0.2,0.7,0.3C67.3,37.1,67,37.1,66.8,36.8z"/>
		<path class="st85" d="M34.3,44.2c0.1-0.1,0.2-0.2,0.2-0.2c0,0.1,0,0.2,0,0.2S34.4,44.2,34.3,44.2z"/>
		<path class="st78" d="M37.1,41.7c0.1-0.1,0.2-0.1,0.2-0.2C37.3,41.6,37.2,41.7,37.1,41.7z"/>
		<path class="st92" d="M46.2,90.2c0.1,0,0.2,0,0.3,0.2C46.3,90.4,46.2,90.4,46.2,90.2z"/>
		<path class="st93" d="M52.1,84.6c0,0.1-0.5,0.1-0.7,0.1c-2.9,0-5.9,0.6-8.8,0c-0.3-0.1-0.7-0.1-1.1,0.1c-0.5,0.2-1,0.2-1.6,0
			c-0.5-0.2-3.3,0.1-3.9,0.4c-0.2-0.1-0.3-0.2-0.5-0.2c-0.1-0.1-0.2-0.2-0.3-0.2l0,0c-0.1-0.1-0.2-0.2-0.3-0.2l0,0
			c-0.1-0.2-0.2-0.3-0.3-0.5c0.3-0.7,0.9-0.5,1.4-0.5c4.2,0,8.3,0,12.5,0c0.4,0,1.2-0.1,1.6-0.5c0.4,0.3,0.6,0.7,1,1"/>
		<path class="st93" d="M52.1,84.4c0,0.1-0.5,0.1-0.7,0.1c-2.9,0-5.9,0.6-8.8,0c-0.3-0.1-0.7-0.1-1.1,0.1c-0.5,0.2-1,0.2-1.6,0
			c-0.5-0.2-3.3,0.1-3.9,0.4c-0.2-0.1-0.3-0.2-0.5-0.2c-0.1-0.1-0.2-0.2-0.3-0.2l0,0c-0.1-0.1-0.2-0.2-0.3-0.2l0,0
			c-0.1-0.2-0.2-0.3-0.3-0.5c0.3-0.7,0.9-0.5,1.4-0.5c4.2,0,8.3,0,12.5,0c0.4,0,1.2-0.1,1.6-0.5c0.4,0.3,0.6,0.7,1,1"/>
		<path class="st33" d="M50,83.3c-0.4,0.4-0.8,0.2-1.3,0.2c-4.2,0-8.3,0-12.5,0c-0.5,0-1.1-0.2-1.4,0.5c-0.2-0.1-0.4-0.3-0.5-0.5
			c-0.1-0.1-0.2-0.2-0.2-0.3l0,0c0-0.1-0.1-0.2-0.2-0.3l0,0c-0.1-0.1-0.2-0.2-0.2-0.2c0-0.1,0-0.2,0-0.2c4.7,0,9.3,0,14,0
			c0.5,0,1,0,1.4-0.2C49.4,82.5,49.7,82.8,50,83.3z"/>
		<path class="st94" d="M49,82.3c-0.4,0.3-0.9,0.2-1.4,0.2c-4.7,0-9.3,0-14,0c-0.2-0.1-0.4-0.3-0.5-0.5c0.1-0.3,0.3-0.6,0.6-0.5
			c1.5,0.5,2.9,0,4.4,0c3.3,0,6.5,0.1,9.8-0.1C48.5,81.4,48.7,81.9,49,82.3z"/>
		<path class="st42" d="M32.6,81.3c-0.1-0.1-0.2-0.2-0.2-0.3C32.4,81.1,32.5,81.2,32.6,81.3z"/>
		<path class="st34" d="M41,39.5c0.1-0.1,0.2-0.2,0.3-0.2C41.2,39.4,41.1,39.5,41,39.5z"/>
		<path class="st34" d="M40.5,39.8c0-0.1,0.1-0.2,0.3-0.2C40.7,39.7,40.6,39.7,40.5,39.8z"/>
		<path class="st51" d="M31.6,48c0.1-0.1,0.2-0.2,0.2-0.3C31.8,47.9,31.7,47.9,31.6,48z"/>
		<path class="st86" d="M40.8,68.6c0,0.2-0.1,0.2-0.3,0.3c0-0.1,0-0.2,0-0.2C40.6,68.6,40.7,68.6,40.8,68.6z"/>
		<path class="st95" d="M42.3,63.4c0,0.1-0.1,0.2-0.1,0.2c-1.4-1.6-2.6-3.3-3.2-5.4c1.4,0.7,2.1,1.9,2.8,3.2
			C42,62.1,42.1,62.7,42.3,63.4z"/>
		<path class="st95" d="M39,58.2c-0.1-0.1-0.1-0.1-0.2-0.2C38.9,58.1,38.9,58.1,39,58.2z"/>
		<path class="st96" d="M58.8,88.5c-0.4,0.3-1.1,0.7-2.1,0.5c-3.9,0-7.7,0-11.6,0c-0.7,0-1.3,0.1-1.9,0.5c-0.7-0.2-1.3-0.5-2-0.7
			c-0.1-0.1-0.1-0.2-0.3-0.2c-0.1,0-0.2,0-0.2-0.1s0-0.1,0-0.2c0.2-0.5,0.6-0.7,1-0.5c0.8,0.3,1.6,0.2,2.4,0.1c1.1-0.2,2.2,0,3.3,0
			c1.3,0,2.6,0.5,3.8,0c0.4-0.2,1,0,1.5,0.1c1,0.2,2.6,0,3.5-0.6C57.1,87.6,58,88,58.8,88.5z"/>
		<path class="st96" d="M58.7,88.3c-0.4,0.3-1.1,0.7-2.1,0.5c-3.9,0-7.7,0-11.6,0c-0.7,0-1.3,0.1-1.9,0.5c-0.7-0.2-1.3-0.5-2-0.7
			c-0.1-0.1-0.1-0.2-0.3-0.2c-0.1,0-0.2,0-0.2-0.1s0-0.1,0-0.2c0.2-0.5,0.6-0.7,1-0.5c0.8,0.3,1.6,0.2,2.4,0.1c1.1-0.2,2.2,0,3.3,0
			c1.3,0,2.6,0.5,3.8,0c0.4-0.2,1,0,1.5,0.1c1,0.2,2.6,0,3.5-0.6C57,87.4,57.9,87.8,58.7,88.3z"/>
		<path class="st73" d="M41,88.5c0.1,0,0.2,0.1,0.3,0.2C41.2,88.6,41.1,88.6,41,88.5z"/>
		<path class="st96" d="M43.7,89.5c0.1,0,0.2,0.1,0.3,0.2C43.9,89.7,43.8,89.6,43.7,89.5z"/>
		<path class="st37" d="M53,85.2"/>
		<path class="st37" d="M53.4,85.5c0.2,0.1,0.8,0.5,0.9,0.6c0,0.1-0.7,0.2-0.8,0.2c-0.4,0.3-0.9,0.3-1.4,0.3c-4.2,0-8.5,0-12.7,0
			c-0.4,0-0.9-0.2-1.3,0.2c-0.2-0.1-0.5-0.2-0.7-0.3c0-0.1,0-0.2,0-0.2c-0.1-0.1-0.2-0.2-0.3-0.2c-0.2-0.1-0.3-0.2-0.5-0.3
			c-0.1-0.1-0.2-0.1-0.2-0.2l0,0c-0.1-0.1-0.2-0.2-0.2-0.2l0,0c0.6-0.2,3.4-0.5,3.9-0.4c0.5,0.2,1,0.2,1.6,0
			c0.4-0.1,0.7-0.2,1.1-0.1c2.9,0.6,5.9,0,8.8,0c0.1,0,0.6-0.1,0.7-0.1"/>
		<path class="st37" d="M53.1,85.2c0.2,0.1,0.8,0.5,0.9,0.6c0,0.1-0.7,0.2-0.8,0.2c-0.4,0.3-0.9,0.3-1.4,0.3c-4.2,0-8.5,0-12.7,0
			c-0.4,0-0.9-0.2-1.3,0.2c-0.2-0.1-0.5-0.2-0.7-0.3c0-0.1,0-0.2,0-0.2c-0.1-0.1-0.2-0.2-0.3-0.2c-0.2-0.1-0.3-0.2-0.5-0.3
			c-0.1-0.1-0.2-0.1-0.2-0.2l0,0c-0.1-0.1-0.2-0.2-0.2-0.2l0,0c0.6-0.2,3.4-0.5,3.9-0.4c0.5,0.2,1,0.2,1.6,0
			c0.4-0.1,0.7-0.2,1.1-0.1c2.9,0.6,5.9,0,8.8,0c0.1,0,0.6-0.1,0.7-0.1"/>
		<path class="st34" d="M54.3,86.1c0.6,0.2,1.5,0.8,2,1.2c-0.9,0.7-2.6,0.8-3.6,0.6c-0.5-0.1-1-0.2-1.5-0.1c-1.3,0.5-2.6,0-3.8,0
			c-1.1,0-2.2-0.1-3.3,0c-0.8,0.1-1.6,0.3-2.4-0.1c-0.4-0.2-0.8,0-1,0.5c-0.9-0.2-1.7-0.9-2.5-1.3c-0.1-0.1-0.2-0.1-0.2-0.2l0,0
			c0.4-0.4,0.8-0.2,1.3-0.2c4.2,0,8.5,0,12.7,0c0.5,0,1,0,1.4-0.3c0.1,0,0.1-0.1,0.2-0.1"/>
		<path class="st37" d="M38,86.7c0.1,0.1,0.2,0.1,0.2,0.2C38.2,86.9,38.1,86.9,38,86.7z"/>
		<path class="st88" d="M35.1,84.5c0.1,0.1,0.2,0.2,0.3,0.2C35.2,84.7,35.2,84.6,35.1,84.5z"/>
		<path class="st88" d="M35.3,84.7c0.1,0.1,0.2,0.2,0.3,0.2C35.4,85,35.4,84.9,35.3,84.7z"/>
		<path class="st93" d="M36.1,85.2c0.1,0.1,0.2,0.2,0.2,0.2C36.2,85.5,36.1,85.4,36.1,85.2z"/>
		<path class="st93" d="M36.3,85.5c0.1,0.1,0.2,0.1,0.2,0.2C36.4,85.7,36.4,85.6,36.3,85.5z"/>
		<path class="st93" d="M37,86c0.1,0.1,0.2,0.2,0.3,0.2C37.2,86.1,37.1,86.1,37,86z"/>
		<path class="st37" d="M54,86.5c-0.1,0-0.2-0.1-0.3-0.2C53.8,86.3,53.9,86.4,54,86.5z"/>
		<path class="st94" d="M33.6,82.8c0.1,0.1,0.2,0.2,0.2,0.2C33.7,83,33.6,82.9,33.6,82.8z"/>
		<path class="st94" d="M33.8,83c0.1,0,0.2,0.1,0.2,0.3C33.9,83.2,33.9,83.1,33.8,83z"/>
		<path class="st94" d="M34.1,83.3c0.1,0.1,0.2,0.2,0.2,0.3C34.2,83.4,34.2,83.3,34.1,83.3z"/>
	</g>
</g>
</svg>
