<?xml version="1.0" encoding="UTF-8"?><svg id="CIRCLE_OUTLINE_BLACK" xmlns="http://www.w3.org/2000/svg" xmlns:xlink="http://www.w3.org/1999/xlink" viewBox="0 0 512 512"><defs><linearGradient id="Degradado_sin_nombre_75" x1="212.33646" y1="-1075.89683" x2="179.07677" y2="-1264.38804" gradientTransform="translate(0 1420.14172)" gradientUnits="userSpaceOnUse"><stop offset=".1" stop-color="#194aad"/><stop offset=".5" stop-color="#248fcb"/><stop offset=".8" stop-color="#2bbfdf"/></linearGradient><linearGradient id="Degradado_sin_nombre_75-2" x1="-5945.56215" y1="15260.04351" x2="-5901.58098" y2="15010.64225" gradientTransform="translate(-5607.42859 15399.22766) rotate(-180)" xlink:href="#Degradado_sin_nombre_75"/></defs><circle cx="256" cy="256" r="256" fill="#fff"/><path d="m107.3842,229.75992c-5.13249,0-7.41361,2.28111-7.41361,6.84334v117.52106c0,5.13251,2.28111,6.84334,7.41361,6.84334,56.48671.57026,125.50492-49.62876,182.56194-88.99254v-135.78458c-56.4721,38.7935-127.21577,94.13967-182.56194,93.56938Z" fill="url(#Degradado_sin_nombre_75)"/><path d="m404.61581,282.81037c5.13251,0,7.4136-2.28111,7.4136-6.84334v-117.52106c0-5.13249-2.28112-6.84333-7.4136-6.84333-57.057-.57028-125.50494,49.62877-182.56194,88.99255v135.21427c56.48671-38.79347,127.23037-94.13966,182.56194-92.99909Z" fill="url(#Degradado_sin_nombre_75-2)"/><path d="m289.94614,271.9751v-77.58699c-23.396,14.82722-46.77739,30.8096-68.46256,45.63682v77.58697c23.9663-14.8272,46.79202-30.8096,68.46256-45.63681Z" fill="#194aad"/></svg>