<?xml version="1.0" encoding="UTF-8"?><svg id="Layer_1" xmlns="http://www.w3.org/2000/svg" viewBox="0 0 128 128"><defs><style>.cls-1{fill:#d79a36;}.cls-1,.cls-2{stroke-width:0px;}.cls-2{fill:#e7ebee;}</style></defs><circle class="cls-2" cx="64" cy="64" r="63.5"/><g id="CTK"><path class="cls-1" d="m63.97,109.56c-10.51,0-21.02,0-31.53,0-2.83,0-5.2-2.23-5.38-5.08-.12-1.92-.23-3.84-.35-5.76-.12-1.94-.23-3.88-.35-5.81-.12-1.92-.23-3.84-.35-5.76-.12-1.92-.23-3.83-.35-5.75-.12-1.9-.24-3.8-.35-5.7-.16-2.57-.31-5.15-.46-7.72-.12-1.92-.23-3.84-.35-5.76-.12-1.96-.23-3.92-.35-5.87-.11-1.92-.23-3.84-.35-5.76-.12-1.9-.23-3.8-.35-5.7-.1-1.53-.3-3.07-.32-4.6-.02-1.99.78-3.65,2.48-4.75,3.14-2.02,6.32-3.99,9.49-5.97,3.86-2.42,7.72-4.82,11.57-7.24,2.76-1.73,5.51-3.47,8.27-5.2,2.06-1.29,4.09-2.61,6.18-3.86,2.11-1.26,4.16-.97,6.19.33,3.36,2.15,6.76,4.23,10.14,6.35,4.47,2.8,8.95,5.6,13.42,8.41,3.13,1.96,6.27,3.93,9.4,5.9.9.56,1.85,1.06,2.65,1.74,1.48,1.26,2.12,2.92,1.88,4.89-.09.71-.11,1.42-.14,2.13-.08,1.65-.14,3.31-.24,4.96-.13,2.11-.3,4.22-.45,6.33-.05.69-.09,1.38-.12,2.07-.08,1.65-.15,3.31-.24,4.96-.11,1.96-.23,3.92-.34,5.88-.11,1.9-.24,3.8-.35,5.7-.12,1.88-.23,3.76-.34,5.64-.16,2.57-.31,5.14-.47,7.71-.11,1.88-.23,3.76-.34,5.64-.12,1.96-.23,3.91-.35,5.87-.11,1.82-.24,3.65-.34,5.47-.1,1.85-.44,3.61-1.93,4.9-1.04.9-2.24,1.43-3.63,1.43-10.51,0-21.02,0-31.53,0Zm-.02-7.93c8.87,0,17.74,0,26.61,0,.17,0,.35,0,.52,0,.96-.05,1.92-.76,2.06-1.71.19-1.29.26-2.59.35-3.89.17-2.57.31-5.15.47-7.72.11-1.86.23-3.72.35-5.58.12-1.92.23-3.84.35-5.76.11-1.86.23-3.72.35-5.59.12-1.92.24-3.84.35-5.76.13-2.25.23-4.5.35-6.75.04-.69.08-1.38.12-2.07.15-2.17.31-4.33.45-6.5.1-1.6.16-3.19.25-4.79.05-.86.15-1.73.21-2.59.06-1-.3-1.78-1.18-2.34-3.21-1.99-6.4-4.02-9.6-6.02-3.42-2.13-6.86-4.23-10.27-6.36-3.55-2.21-7.08-4.45-10.63-6.67-.73-.46-1.5-.44-2.23.02-2.34,1.46-4.67,2.93-7,4.39-3.63,2.27-7.26,4.53-10.89,6.8-2.44,1.52-4.87,3.05-7.31,4.58-1.78,1.12-3.56,2.24-5.33,3.36-.7.45-1.09,1.06-1.02,1.94.06.63.08,1.27.12,1.9.12,1.84.23,3.69.35,5.53.12,1.86.23,3.72.35,5.58.12,1.86.23,3.72.35,5.59.11,1.84.23,3.69.35,5.53.12,1.86.23,3.72.35,5.58.16,2.52.31,5.03.47,7.55.12,1.86.24,3.72.35,5.58.13,2.21.23,4.42.35,6.63.04.69.08,1.38.13,2.07.11,1.67.27,3.34.33,5.01.06,1.59.88,2.46,2.49,2.46,8.91,0,17.82,0,26.73,0Z"/><path class="cls-1" d="m74.84,56.55c0-.43-.01-.81,0-1.19.03-.87.09-1.73.09-2.6,0-.17-.15-.4-.31-.49-3.44-2.17-6.89-4.32-10.35-6.46-.14-.09-.45-.07-.6.02-3.15,1.95-6.26,3.95-9.44,5.85-.93.56-1.38,1.09-1.21,2.25.25,1.67.28,3.37.38,5.06.02.34.18.43.48.42.48,0,.97,0,1.45,0,9.76,0,19.52,0,29.28,0,.79,0,.76,0,.7.76-.11,1.34-.16,2.69-.25,4.04-.15,2.42-.31,4.84-.46,7.26-.09,1.42-.15,2.85-.24,4.27-.14,2.29-.3,4.57-.45,6.85-.05.73-.08,1.46-.12,2.19-.12,2.08-.24,4.15-.35,6.23-.02.32-.13.47-.45.44-.1,0-.19,0-.29,0-12.48,0-24.97,0-37.45.01-.52,0-.68-.13-.71-.67-.11-2.23-.29-4.45-.44-6.68-.05-.69-.08-1.38-.12-2.08-.08-1.73-.15-3.46-.25-5.19-.06-1.04-.13-2.07-.22-3.11-.04-.42.14-.53.53-.53,3.23,0,6.45,0,9.68,0,.32,0,.49.06.51.44.05,1.23.14,2.46.23,3.69.06.94.15,1.88.2,2.82.02.43.25.49.61.49,5.82,0,11.63,0,17.45,0,.39,0,.59-.08.61-.53.09-1.77.22-3.53.34-5.29.1-1.4.2-2.8.32-4.19.03-.31-.04-.49-.38-.49-.19,0-.39,0-.58,0-9.57,0-19.13,0-28.7,0-1.17,0-.99.08-1.05-1.02-.12-2.19-.29-4.37-.44-6.56-.05-.69-.1-1.38-.14-2.08-.12-2.17-.23-4.34-.35-6.51-.11-1.86-.1-3.74-.39-5.58-.19-1.22.22-1.77,1.2-2.36,3.84-2.32,7.63-4.73,11.44-7.12,2.66-1.67,5.31-3.35,7.96-5.03,1.42-.9,1.4-.89,2.83.02,3.7,2.34,7.42,4.65,11.13,6.97,2.65,1.66,5.29,3.32,7.93,4.98.38.24.72.53,1.13.7.5.21.57.56.53,1.02-.08.86-.17,1.72-.22,2.58-.09,1.75-.16,3.5-.24,5.25-.01.31-.03.62-.13.91-.05.13-.3.27-.46.27-.89.03-1.78.01-2.67.01-2.22,0-4.44,0-6.67,0-.27,0-.54,0-.88,0Z"/></g></svg>