<?xml version="1.0" encoding="UTF-8"?><svg id="CIRCLE_OUTLINE_BLACK" xmlns="http://www.w3.org/2000/svg" viewBox="0 0 512 512"><path d="m266.20999,512h-20.60483c-4.17082-.77216-8.31198-1.95038-12.51673-2.25777C94.21005,499.59048-14.17674,368.63464,1.51244,229.8533,18.51611,79.44441,153.83538-21.91869,302.94143,4.06301c109.15355,19.01998,197.59774,113.3584,207.8041,221.65303,11.24119,119.27511-53.89071,228.1978-162.2298,267.6054-26.23081,9.54132-54.80769,12.62529-82.30574,18.67855Zm61.24153-339.08779c-15.81176-41.17897-31.37326-81.81382-47.02351-122.41416-6.71267-17.41427-12.945-18.54645-25.5532-4.67444-36.68226,40.35918-73.12822,80.93877-110.22909,120.90525-4.19705,4.52122-11.89061,7.77474-18.11067,8.03383-22.73629.94702-45.53659.22335-68.30997.43427-14.71976.13633-18.01306,5.00285-12.89389,19.14186,15.54156,42.92537,31.39202,85.73809,46.85695,128.69104,3.1004,8.61122,7.6958,13.10619,17.50009,12.84765,21.07371-.55566,42.18644.2833,63.25312-.39342,8.30257-.26669,11.70837,2.87957,14.38781,10.26051,13.55827,37.34864,27.58701,74.52519,41.49523,111.74528,6.73622,18.02694,14.39246,19.39517,27.62424,4.82698,36.38219-40.05689,72.54841-80.31409,109.2712-120.05274,3.69564-3.99916,10.53999-6.89274,16.02789-7.07264,23.59393-.77352,47.23055-.09595,70.84457-.43868,14.74914-.21406,18.97111-6.51756,13.99823-20.22958-15.56438-42.91629-31.44485-85.71765-46.83644-128.69593-3.32699-9.29014-8.45164-13.35111-18.61031-13.10586-24.41713.58947-48.8579.19079-73.69225.19079Z"/><path d="m327.45152,172.91221c24.83435,0,49.27512.39868,73.69225-.19079,10.15866-.24525,15.28332,3.81572,18.61031,13.10586,15.39158,42.97828,31.27206,85.77964,46.83644,128.69593,4.97288,13.71202.75091,20.01552-13.99823,20.22958-23.61402.34273-47.25065-.33485-70.84457.43868-5.4879.1799-12.33225,3.07348-16.02789,7.07264-36.72279,39.73865-72.88901,79.99586-109.2712,120.05274-13.23177,14.56819-20.88802,13.19996-27.62424-4.82698-13.90822-37.22009-27.93696-74.39664-41.49523-111.74528-2.67944-7.38094-6.08523-10.5272-14.38781-10.26051-21.06668.67672-42.17941-.16224-63.25312.39342-9.80429.25854-14.39969-4.23643-17.50009-12.84765-15.46493-42.95295-31.31539-85.76567-46.85695-128.69104-5.11918-14.13901-1.82587-19.00552,12.89389-19.14186,22.77338-.21091,45.57368.51275,68.30997-.43427,6.22006-.25908,13.91361-3.5126,18.11067-8.03383,37.10087-39.96648,73.54683-80.54606,110.22909-120.90525,12.6082-13.87201,18.84053-12.73983,25.5532,4.67444,15.65025,40.60035,31.21175,81.23519,47.02351,122.41416Zm115.49166,139.58519c.14884-2.51078.62973-3.89603.23577-4.95186-13.13937-35.21454-26.18334-70.46839-39.8992-105.45622-1.14525-2.92147-6.85822-5.60167-10.5216-5.7013-20.21331-.54966-40.45583-.53536-60.67165-.03458-4.08122.10113-9.14125,2.09599-11.95811,4.98239-15.33413,15.71262-30.37215,31.74379-44.83101,48.26674-2.62262,2.997-3.81457,9.29099-2.68792,13.19548,3.85738,13.36793,9.4848,26.21304,13.54854,39.53117,2.34211,7.67592,5.99696,10.52378,14.23256,10.37167,28.64681-.52909,57.30929-.20373,85.96578-.20348,18.83151.00016,37.66306,0,56.58684,0ZM68.64064,196.13708c10.45935,27.77881,20.04754,53.4536,29.80369,79.06384,4.65392,12.21669,6.42865,28.962,15.35332,35.15459,8.96022,6.21728,25.41733.41624,38.18568,2.44421,26.27984,4.17403,45.00732-5.42149,59.89569-26.84227,9.03408-12.9979,26.51932-23.38321,28.79406-36.88295,2.31483-13.73767-9.37256-29.85522-14.92085-44.93357-.2918-.79301-.25867-1.9648-.80643-2.36113-2.75085-1.9905-5.6338-5.38441-8.48995-5.40405-48.48368-.3331-96.97026-.23867-147.81522-.23867Zm184.65072,78.71081c-14.61124,15.91593-27.83455,29.55001-39.97341,44.09724-2.94524,3.52959-4.46301,10.81525-2.98397,15.10183,9.63804,27.93335,20.25193,55.52793,30.62015,83.2055,2.56466,6.84616,5.40102,13.58962,8.71566,21.89095,31.972-34.78397,62.58524-68.08972,95.07407-103.43599-20.83769,0-38.46731-.38321-56.06918.15269-9.59365.29215-14.68341-3.66151-17.68958-12.54653-5.24507-15.50216-11.18597-30.76677-17.69374-48.4657Zm10.19394-207.72191c-31.82087,35.7316-62.15687,69.79583-94.2082,105.78623,20.93941,0,38.62105.40914,56.27153-.15865,10.04161-.32301,15.4286,3.48718,18.48612,13.13493,4.66259,14.71258,10.44774,29.06619,16.55544,45.75609,15.14495-16.8025,29.02058-31.90516,42.41169-47.42958,1.63911-1.90021,1.74276-6.45396.76636-9.11454-12.92164-35.21032-26.16427-70.30176-40.28294-107.97448Z" fill="#fff"/><path d="m442.94318,312.49739c-18.92378,0-37.75533.00016-56.58684,0-28.65649-.00025-57.31897-.32561-85.96578.20348-8.23559.15211-11.89045-2.69575-14.23256-10.37167-4.06373-13.31813-9.69115-26.16324-13.54854-39.53117-1.12665-3.90449.0653-10.19848,2.68792-13.19548,14.45886-16.52294,29.49688-32.55411,44.83101-48.26674,2.81686-2.8864,7.87689-4.88126,11.95811-4.98239,20.21582-.50078,40.45834-.51508,60.67165.03458,3.66338.09964,9.37634,2.77984,10.5216,5.7013,13.71586,34.98782,26.75983,70.24168,39.8992,105.45622.39396,1.05584-.08694,2.44109-.23577,4.95186Z"/><path d="m68.64064,196.13708c50.84496,0,99.33154-.09443,147.81522.23867,2.85616.01964,5.73911,3.41355,8.48995,5.40405.54776.39633.51463,1.56812.80643,2.36113,5.54829,15.07835,17.23567,31.1959,14.92085,44.93357-2.27474,13.49974-19.75998,23.88506-28.79406,36.88295-14.88837,21.42078-33.61585,31.0163-59.89569,26.84227-12.76835-2.02797-29.22547,3.77307-38.18568-2.44421-8.92467-6.19259-10.6994-22.9379-15.35332-35.15459-9.75615-25.61024-19.34434-51.28502-29.80369-79.06384Z"/><path d="m253.29136,274.84788c6.50777,17.69893,12.44866,32.96354,17.69374,48.4657,3.00617,8.88502,8.09593,12.83868,17.68958,12.54653,17.60187-.5359,35.23149-.15269,56.06918-.15269-32.48883,35.34627-63.10207,68.65202-95.07407,103.43599-3.31464-8.30133-6.151-15.04479-8.71566-21.89095-10.36822-27.67757-20.98211-55.27215-30.62015-83.2055-1.47903-4.28657.03874-11.57224,2.98397-15.10183,12.13886-14.54723,25.36217-28.18131,39.97341-44.09724Z"/><path d="m263.4853,67.12598c14.11867,37.67272,27.3613,72.76417,40.28294,107.97448.9764,2.66058.87275,7.21433-.76636,9.11454-13.3911,15.52441-27.26673,30.62708-42.41169,47.42958-6.1077-16.6899-11.89285-31.04351-16.55544-45.75609-3.05752-9.64775-8.44451-13.45794-18.48612-13.13493-17.65048.56779-35.33212.15865-56.27153.15865,32.05133-35.9904,62.38733-70.05464,94.2082-105.78623Z"/></svg>