<svg xmlns="http://www.w3.org/2000/svg" viewBox="0 0 32 32"><circle cx="16" cy="16" r="16"/><linearGradient id="a" gradientUnits="userSpaceOnUse" x1="6.3" y1="14.5" x2="26.5" y2="14.5" gradientTransform="matrix(1 0 0 -1 0 34)"><stop offset="0" stop-color="#abacac"/><stop offset=".5" stop-color="#f0f0f0"/><stop offset="1" stop-color="#abacac"/></linearGradient><path d="M26.5 23.1c0 .1-.1.2-.3.2H6.3l6.2-7.5.2-.1c.1 0 .3.1.3.3v.1l-1.1 3.5v.1c0 .1.1.3.3.3l14.1 2.8c.1.1.2.1.2.3z" fill="url(#a)"/><linearGradient id="b" gradientUnits="userSpaceOnUse" x1="10.6" y1="13.4" x2="17.7" y2="24.6" gradientTransform="matrix(1 0 0 -1 0 34)"><stop offset="0" stop-color="#54b9da"/><stop offset="1" stop-color="#3480c1"/></linearGradient><path d="M5.7 23c-.1-.1-.2-.2-.1-.4l10-16.9 3.1 8.9v.2c-.1.2-.3.2-.4.2h-.1l-2.6-2.8h-.1c-.1-.1-.3 0-.4.1L6 22.9c-.1.1-.2.2-.3.1z" fill="url(#b)"/><linearGradient id="c" gradientUnits="userSpaceOnUse" x1="20.9" y1="13.9" x2="16.7" y2="23.2" gradientTransform="matrix(1 0 0 -1 0 34)"><stop offset="0" stop-color="#54b9da"/><stop offset="1" stop-color="#3480c1"/></linearGradient><path d="M16.1 5.3c.1-.1.3 0 .4.1l9.8 16.9-9.4-1.8-.2-.1c-.1-.1 0-.3.1-.4h.1l3.5-.9h.1c.1-.1.2-.2.1-.4L16 5.6c-.1-.1-.1-.3.1-.3z" fill="url(#c)"/></svg>