<?xml version="1.0" encoding="UTF-8"?><svg id="Layer_1" xmlns="http://www.w3.org/2000/svg" viewBox="0 0 128 128"><defs><style>.cls-1{fill:#ff5c4b;}.cls-2{fill:#2f0d30;}</style></defs><circle class="cls-2" cx="64" cy="64" r="63.5"/><g><g><circle class="cls-1" cx="63.99" cy="56.77" r="9.4" transform="translate(-5.96 106) rotate(-76.72)"/><polygon class="cls-1" points="63.99 80.63 72.51 80.63 68.25 64.77 63.99 48.92 59.73 64.77 55.48 80.63 63.99 80.63"/></g><path class="cls-1" d="m73.43,111.18h-18.85c-5.09,0-10.04-1-14.7-2.97-4.5-1.9-8.53-4.62-12-8.09-3.47-3.46-6.19-7.5-8.09-12-1.97-4.66-2.97-9.6-2.97-14.7v-18.85c0-5.09,1-10.04,2.97-14.7,1.9-4.5,4.62-8.53,8.09-12,3.47-3.47,7.5-6.19,12-8.09,4.66-1.97,9.6-2.97,14.7-2.97h18.85c10.12,0,19.54,3.58,26.54,10.07,7.23,6.71,11.21,15.94,11.21,26h-11.21c0-14.17-11.41-24.86-26.54-24.86h-18.85c-14.63,0-26.54,11.9-26.54,26.54v18.85c0,14.63,11.9,26.54,26.54,26.54h18.85c15.13,0,26.54-10.69,26.54-24.86h11.21c0,10.06-3.98,19.29-11.21,26-7,6.49-16.43,10.07-26.54,10.07Z"/></g></svg>