<?xml version="1.0" encoding="utf-8"?>
<!-- Generator: Adobe Illustrator 26.0.2, SVG Export Plug-In . SVG Version: 6.00 Build 0)  -->
<svg version="1.1" id="Layer_1" xmlns="http://www.w3.org/2000/svg" xmlns:xlink="http://www.w3.org/1999/xlink" x="0px" y="0px"
	 width="128px" height="128px" viewBox="0 0 128 128" style="enable-background:new 0 0 128 128;" xml:space="preserve">
<style type="text/css">
	.st0{fill:#EFF4F4;}
	.st1{fill:#3A3A3A;}
	.st2{fill:#1682FE;}
	.st3{fill:#60D8A4;}
	.st4{fill:#F4BB3B;}
	.st5{fill:#FF5A5A;}
</style>
<circle class="st0" cx="64" cy="64" r="63"/>
<g>
	<path class="st1" d="M102.1,55.2V37.7h-8.8V29H75.7v-8.8H58.1V29H40.5v8.8h-8.8v52.5h8.8V99h17.6v8.8h17.6V99h17.6v-8.8h8.8V72.8
		H84.5v8.8h-8.8v8.8H58.1v-8.8h-8.8v-35h8.8v-8.8h17.6v8.8h8.8v8.8H102.1z"/>
	<rect x="69.9" y="37.3" class="st2" width="6.1" height="9.2"/>
	<rect x="52.3" y="20.2" class="st2" width="6.1" height="9.2"/>
	<rect x="34.7" y="29" class="st3" width="6.1" height="9.2"/>
	<rect x="25.9" y="64" class="st4" width="6.2" height="26.3"/>
	<rect x="25.9" y="37.7" class="st3" width="6.2" height="26.3"/>
	<rect x="78.7" y="46.1" class="st2" width="6.1" height="9.2"/>
	<rect x="78.7" y="72.8" class="st5" width="6.1" height="9.2"/>
	<rect x="69.9" y="81.5" class="st5" width="6.1" height="9.2"/>
	<rect x="52.3" y="98.6" class="st5" width="6.1" height="9.2"/>
	<rect x="34.7" y="89.8" class="st4" width="6.1" height="9.2"/>
	<path class="st1" d="M102.1,55.2V37.7h-8.8V29H75.7v-8.8H58.1V29H40.5v8.8h-8.8v52.5h8.8V99h17.6v8.8h17.6V99h17.6v-8.8h8.8V72.8
		H84.5v8.8h-8.8v8.8H58.1v-8.8h-8.8v-35h8.8v-8.8h17.6v8.8h8.8v8.8H102.1z"/>
</g>
</svg>
