<?xml version="1.0" encoding="UTF-8"?><svg id="CIRCLE_OUTLINE_BLACK" xmlns="http://www.w3.org/2000/svg" viewBox="0 0 512 512"><path d="m512,256c0,141.38499-114.61502,256-256,256S0,397.38499,0,256,114.61499,0,256,0s256,114.61502,256,256" fill="#fff"/><g id="dash-circle-solid-default"><path d="m256,0C114.61511,0,0,114.61511,0,256s114.61511,256,256,256,256-114.61511,256-256S397.38489,0,256,0ZM117.84644,257.32355c2.50915-10.44043,6.30957-27.7229,32.8269-27.7229h103.65814s-1.07709,5.53845-4.36346,19.21631c-2.50916,10.44049-6.30957,27.72299-32.8269,27.72299h-103.65811s1.07706-5.53848,4.36344-19.2164Zm269.84899-.23865c-8.47601,45.81934-29.64459,80.92896-65.21936,97.35468-16.034,7.4173-31.19907,11.56042-66.8288,11.56042h-101.01434l8.40863-46.91486,88.80524.03674c53.40186.0918,67.64282-23.06573,74.5766-43.35919,2.60101-7.6131,8.62286-31.095,8.81873-44.98706.37939-27.11707-12.92517-43.451-57.91833-43.451l-91.35724-.11017,8.39032-46.89644h101.24078c89.0011.00003,104.72913,48.53659,92.09778,116.76688Z" fill="#008de4"/></g></svg>