<?xml version="1.0" encoding="UTF-8"?>
<svg id="Layer_1" xmlns="http://www.w3.org/2000/svg" version="1.1" viewBox="0 0 500 500">
  <!-- Generator: Adobe Illustrator 29.0.1, SVG Export Plug-In . SVG Version: 2.1.0 Build 192)  -->
  <defs>
    <style>
      .st0 {
        fill: #fff;
      }

      .st1 {
        fill: #2970ff;
      }
    </style>
  </defs>
  <circle class="st1" cx="250" cy="250" r="248.5"/>
  <g>
    <path class="st0" d="M150.3,178.8l-71.2-71.2h76.9l113.9,113.9h-76.9c-31.5,0-57,25.5-57,57s25.5,57,57,57h28.5l57,57h-85.4c-62.9,0-113.9-51-113.9-113.9s22.8-83.4,71.2-99.7Z"/>
    <path class="st0" d="M349.7,321.2l71.2,71.2h-76.9l-113.9-113.9h76.9c31.5,0,57-25.5,57-57s-25.5-57-57-57h-28.5l-57-57h85.4c62.9,0,113.9,51,113.9,113.9s-22.8,83.4-71.2,99.7Z"/>
  </g>
</svg>