<?xml version="1.0" encoding="UTF-8"?><svg id="Layer_1" xmlns="http://www.w3.org/2000/svg" viewBox="0 0 128 128"><defs><style>.cls-1{fill:#381986;}.cls-1,.cls-2{stroke-width:0px;}.cls-2{fill:#8c55ff;}</style></defs><circle class="cls-2" cx="64" cy="64" r="63.5"/><g id="DEGEN"><circle class="cls-2" cx="64" cy="64" r="61.68"/><path class="cls-1" d="m64.16,30.14c3.88,0,7.75-.05,11.63.01,4.05.07,8.09.38,12.11.91,1.92.25,3.46,1.13,4.34,2.95.35.73.44,1.51.38,2.3-.25,3.51-.52,7.02-.77,10.53-.21,2.92-.43,5.84-.64,8.77-.24,3.37-.49,6.75-.72,10.12-.02.31-.15.44-.43.54-5.44,1.88-10.97,3.34-16.72,3.91-5.79.57-11.58.6-17.38.24-6.71-.41-13.17-1.93-19.48-4.15-.29-.1-.4-.23-.42-.53-.26-3.65-.53-7.29-.8-10.94-.3-4.1-.61-8.2-.91-12.29-.15-2.08-.32-4.16-.42-6.24-.13-2.61,1.45-4.57,4.04-5.08,1.84-.36,3.71-.42,5.57-.55,6.87-.51,13.76-.66,20.64-.5Z"/><path class="cls-1" d="m63.36,97.95c-4.23-.06-8.38-.36-12.49-1.09-4.94-.88-9.76-2.18-14.21-4.55-5.2-2.77-9.48-6.53-12.08-11.95-1.07-2.23-1.7-4.58-1.38-7.08.4-3.18,3.87-5.74,7.34-3.82,1.31.72,2.59,1.49,3.9,2.21.32.18.37.43.39.72.09,1.69.2,3.38.27,5.07.03.64.24,1.17.67,1.65,2.19,2.46,4.93,4.15,7.86,5.54,3.98,1.89,8.21,2.92,12.57,3.45,5.38.66,10.76.58,16.11-.26,5.26-.83,10.23-2.49,14.68-5.5,1.32-.89,2.54-1.92,3.63-3.09.53-.57.76-1.22.8-1.97.08-1.63.18-3.26.25-4.89.01-.36.13-.56.44-.74,1.22-.67,2.45-1.35,3.64-2.07,3.55-2.14,7.41.51,7.6,4.18.15,2.82-.66,5.42-2.04,7.83-3.14,5.51-7.88,9.21-13.59,11.76-4.25,1.9-8.73,2.98-13.31,3.72-3.68.6-7.38.81-11.05.88h0Z"/></g></svg>