<?xml version="1.0" encoding="UTF-8"?><svg id="Layer_1" xmlns="http://www.w3.org/2000/svg" xmlns:xlink="http://www.w3.org/1999/xlink" viewBox="0 0 128 128"><defs><style>.cls-1{clip-path:url(#clippath);}.cls-2{fill:none;}.cls-2,.cls-3,.cls-4{stroke-width:0px;}.cls-3{fill:#fff;fill-rule:evenodd;}.cls-4{fill:#ea4028;}</style><clipPath id="clippath"><rect class="cls-2" x="21.86" y="17.07" width="84.28" height="93.86"/></clipPath></defs><circle class="cls-4" cx="64" cy="64" r="63.5"/><g class="cls-1"><path class="cls-3" d="m75.08,40.34v-12.19c0-6.12-4.96-11.08-11.08-11.08s-11.08,4.96-11.08,11.08v27.39c0,3.97,2.09,7.45,5.23,9.41V28.15c0-3.23,2.62-5.85,5.85-5.85s5.85,2.62,5.85,5.85v17.05c1.94-1.4,3.69-3.03,5.23-4.86Zm14.95,21.42l10.56-6.1c5.3-3.06,7.12-9.84,4.06-15.13-3.06-5.3-9.84-7.11-15.14-4.05l-23.72,13.69c-3.44,1.98-5.41,5.54-5.54,9.23l31.87-18.4c2.8-1.61,6.38-.66,7.99,2.14,1.62,2.8.66,6.38-2.14,7.99l-14.77,8.53c2.18.98,4.47,1.68,6.82,2.1Zm-.52,29.75l-10.56-6.1c-.81-2.24-1.35-4.58-1.59-6.96l14.77,8.53c2.8,1.62,6.38.66,7.99-2.14,1.62-2.8.66-6.38-2.14-7.99l-31.87-18.4c3.26-1.74,7.33-1.81,10.77.18l23.72,13.69c5.3,3.06,7.12,9.84,4.06,15.13-3.06,5.3-9.84,7.11-15.14,4.05Zm-36.6-3.86v12.19c0,6.12,4.96,11.08,11.08,11.08s11.08-4.96,11.08-11.08v-27.39c0-3.97-2.09-7.45-5.23-9.41v36.8c0,3.23-2.62,5.85-5.85,5.85s-5.85-2.62-5.85-5.85v-17.05c-1.94,1.4-3.69,3.03-5.23,4.86Zm-25.51-15.33l10.56-6.1c2.35.42,4.64,1.12,6.82,2.1l-14.77,8.53c-2.8,1.62-3.76,5.19-2.14,7.99,1.62,2.8,5.19,3.76,7.99,2.14l31.87-18.4c-.12,3.7-2.1,7.25-5.54,9.23l-23.72,13.69c-5.3,3.06-12.08,1.24-15.14-4.05-3.06-5.3-1.24-12.08,4.06-15.14Zm21.64-29.75l-10.56-6.1c-5.3-3.06-12.08-1.24-15.14,4.05-3.06,5.3-1.24,12.07,4.06,15.13l23.72,13.69c3.44,1.98,7.5,1.92,10.77.18l-31.87-18.4c-2.8-1.62-3.76-5.19-2.14-7.99,1.62-2.8,5.19-3.76,7.99-2.14l14.77,8.53c-.24-2.38-.78-4.71-1.59-6.96Z"/></g></svg>