<?xml version="1.0" encoding="UTF-8"?><svg id="Layer_1" xmlns="http://www.w3.org/2000/svg" viewBox="0 0 128 128"><defs><style>.cls-1,.cls-2{stroke-width:0px;}.cls-2{fill:#fff;}</style></defs><circle class="cls-1" cx="64.11" cy="63.93" r="63.5"/><g id="DEXE"><path class="cls-2" d="m66.39,66.39c-.02-1.96.71-3.86,2.03-5.31,1.32-1.45,3.14-2.35,5.1-2.52h32.72l-10.63,7.08h-17.81c-1.15,0-2.25.46-3.06,1.27-.81.81-1.27,1.91-1.27,3.06v17.71l-6.99,8.41-.09-29.69Z"/><path class="cls-2" d="m63.91,56.9c-1.82.04-3.59-.63-4.93-1.87l-23.61-23.12,12.85,2.52,12.86,12.62c.82.81,1.93,1.26,3.09,1.26s2.26-.45,3.08-1.26l12.9-12.6,12.81-2.53-23.09,22.72c-1.63,1.48-3.76,2.29-5.96,2.27Z"/><path class="cls-2" d="m54.52,87.66v-17.69c0-1.15-.46-2.26-1.27-3.07-.81-.82-1.91-1.28-3.07-1.28h-17.83l-10.59-7.08h32c2.02.03,3.96.8,5.45,2.17.72.62,1.31,1.38,1.72,2.24.41.86.63,1.79.66,2.74v30.39l-7.08-8.42Z"/></g></svg>