<?xml version="1.0" encoding="utf-8"?>
<!-- Generator: Adobe Illustrator 27.0.1, SVG Export Plug-In . SVG Version: 6.00 Build 0)  -->
<svg version="1.1" id="Layer_1" xmlns="http://www.w3.org/2000/svg" xmlns:xlink="http://www.w3.org/1999/xlink" x="0px" y="0px"
	 viewBox="0 0 128 128" style="enable-background:new 0 0 128 128;" xml:space="preserve">
<style type="text/css">
	.st0{fill:#F1F1F1;}
	.st1{fill-rule:evenodd;clip-rule:evenodd;fill:#08023A;}
	.st2{fill-rule:evenodd;clip-rule:evenodd;fill:#F9B046;}
</style>
<circle class="st0" cx="64" cy="64" r="63.5"/>
<g>
	<path class="st1" d="M66.6,26.6c19.7,0,35.8,16.8,35.8,37.4s-16.1,37.4-35.8,37.4l0,0H46.9v-45H56V92h10.6
		c14.7,0,26.7-12.5,26.7-28c0-15.4-12-28-26.7-28l0,0H44.9v-9.4H66.6z"/>
	<path class="st2" d="M64,41.3c11.7,0,21.3,10,21.3,22.2c0,12.3-9.6,22.2-21.3,22.2l0,0h-3.7v-9.4H64c6.7,0,12.2-5.7,12.2-12.8
		c0-7-5.5-12.8-12.2-12.8l0,0H42v38.6h-9.1v-48H64z"/>
</g>
</svg>
