<?xml version="1.0" encoding="UTF-8"?><svg id="Layer_1" xmlns="http://www.w3.org/2000/svg" xmlns:xlink="http://www.w3.org/1999/xlink" viewBox="0 0 128 128"><defs><style>.cls-1{fill:url(#linear-gradient);}.cls-2{fill:#102771;}.cls-3{fill:url(#linear-gradient-3);}.cls-4{fill:url(#linear-gradient-2);}</style><linearGradient id="linear-gradient" x1="19.16" y1="-501.6" x2="91.4" y2="-532.96" gradientTransform="translate(0 -452.7) scale(1 -1)" gradientUnits="userSpaceOnUse"><stop offset=".02" stop-color="#aaedc0" stop-opacity=".8"/><stop offset=".12" stop-color="#aaedc0" stop-opacity=".77"/><stop offset=".28" stop-color="#aaedc0" stop-opacity=".68"/><stop offset=".47" stop-color="#aaedc0" stop-opacity=".53"/><stop offset=".61" stop-color="#aaedc0" stop-opacity=".4"/><stop offset=".82" stop-color="#aaedc0" stop-opacity=".27"/><stop offset=".96" stop-color="#aaedc0" stop-opacity=".2"/></linearGradient><linearGradient id="linear-gradient-2" x1="86.53" y1="-500.23" x2="51.42" y2="-552.28" gradientTransform="translate(0 -452.7) scale(1 -1)" gradientUnits="userSpaceOnUse"><stop offset="0" stop-color="#aaedc0" stop-opacity=".2"/><stop offset=".03" stop-color="#aaedc0" stop-opacity=".24"/><stop offset=".13" stop-color="#aaedc0" stop-opacity=".42"/><stop offset=".25" stop-color="#aaedc0" stop-opacity=".57"/><stop offset=".36" stop-color="#aaedc0" stop-opacity=".69"/><stop offset=".49" stop-color="#aaedc0" stop-opacity=".78"/><stop offset=".62" stop-color="#aaedc0" stop-opacity=".85"/><stop offset=".78" stop-color="#aaedc0" stop-opacity=".89"/><stop offset=".98" stop-color="#aaedc0" stop-opacity=".9"/></linearGradient><linearGradient id="linear-gradient-3" x1="31.59" y1="-513.39" x2="95.58" y2="-490.11" gradientTransform="translate(0 -452.7) scale(1 -1)" gradientUnits="userSpaceOnUse"><stop offset=".21" stop-color="#aaedc0"/><stop offset=".33" stop-color="#aaedc0" stop-opacity=".98"/><stop offset=".44" stop-color="#aaedc0" stop-opacity=".94"/><stop offset=".56" stop-color="#aaedc0" stop-opacity=".86"/><stop offset=".66" stop-color="#aaedc0" stop-opacity=".75"/><stop offset=".77" stop-color="#aaedc0" stop-opacity=".61"/><stop offset=".88" stop-color="#aaedc0" stop-opacity=".43"/><stop offset=".95" stop-color="#aaedc0" stop-opacity=".3"/></linearGradient></defs><circle class="cls-2" cx="64" cy="64" r="63.5"/><g><path class="cls-1" d="m37.23,27.12l12.84-8.43v67.78c12.57-.76,31.45-4.39,33.38-22.96,0,0,2.95,11.4-3.81,20.53-7.21,9.74-23.95,16.34-42.4,16.34V27.12Z"/><path class="cls-4" d="m62.98,34.49v11.29c5.23,1.44,17.26,6.05,20.49,17.81,0,0,.03.19.1.52.02.09.03.18.04.27.52,2.7,1.7,11.86-3.98,19.65-7,9.61-24.19,16.34-42.41,16.34l15.84,6.93s33.79-.5,44.09-30.23c.96-2.77,1.48-5.46,1.57-8.07-.93-20.99-18.16-32.62-35.75-34.53h0Z"/><path class="cls-3" d="m91.4,35.52c-7.21-9.48-23.27-16.83-41.33-16.83v67.78c2.28-.14,4.83-.38,7.46-.79,1.23-.19,2.46-.42,3.67-.69.58-.14,1.21-.28,1.78-.43v-50.06c17.59,1.91,34.93,13.6,35.75,34.67,0,0,4.18-18.52-7.32-33.65h0Z"/></g></svg>