<?xml version="1.0" encoding="UTF-8"?><svg id="Layer_1" xmlns="http://www.w3.org/2000/svg" viewBox="0 0 128 128"><defs><style>.cls-1,.cls-2{stroke-width:0px;}.cls-2{fill:#fee803;}</style></defs><circle class="cls-2" cx="64" cy="64" r="63.5"/><g id="DODO"><g id="DODO-2"><path class="cls-1" d="m91.08,41.58c-5.06-4.65-11.26-7.88-17.97-9.35.35-.29.7-.59,1.03-.93,2.97-2.97,4.02-6.72,2.35-8.39-1.5-1.5-4.68-.8-7.46,1.52-.52-4.12-2.59-7.2-5.07-7.2s-4.55,3.08-5.07,7.2c-2.8-2.31-5.96-3.01-7.46-1.52-1.66,1.67-.62,5.42,2.35,8.39.34.34.7.65,1.05.94-8.1,1.79-15.42,6.13-20.89,12.38-5.47,6.25-8.79,14.08-9.5,22.35l-.64,7.64h10.03l.58-6.79c.61-7.23,3.92-13.96,9.26-18.86,5.34-4.91,12.33-7.63,19.58-7.63h1.5c7.25,0,14.24,2.72,19.58,7.62,5.34,4.91,8.64,11.64,9.25,18.87l.58,6.79h10.03l-.64-7.64c-.82-9.73-5.28-18.79-12.47-25.38Z"/><path class="cls-1" d="m54.2,54.15c-1.98,0-3.6,2.86-3.6,6.4s1.61,6.4,3.6,6.4,3.6-2.86,3.6-6.4-1.61-6.4-3.6-6.4Z"/><path class="cls-1" d="m73.8,54.15c-1.98,0-3.6,2.86-3.6,6.4s1.61,6.4,3.6,6.4,3.6-2.86,3.6-6.4-1.61-6.4-3.6-6.4Z"/></g><g id="DODO-3"><path class="cls-1" d="m65.17,78.92c.09-.04.14-.09.18-.09,3.07.05,6.16-.1,9.2.21,4.05.42,7.38,4.32,7.74,8.38.45,5.14-3,9.6-8.2,10.29-2.04.27-4.14.1-6.22.12-.89,0-1.78,0-2.71,0v-18.92Zm4.59,14.71c1.02,0,1.99.04,2.95,0,2.15-.11,3.73-1.17,4.47-3.17.78-2.1.52-4.12-1.06-5.86-1.78-1.96-4.1-1.55-6.36-1.52v10.56Z"/><path class="cls-1" d="m23.81,97.79v-18.89c.16-.03.33-.09.5-.09,2.51,0,5.02-.07,7.52.06,3.82.2,6.68,2.07,8.27,5.55,1.46,3.2,1.19,6.41-.81,9.34-1.63,2.39-4,3.8-6.87,3.99-2.83.19-5.68.04-8.61.04Zm4.54-4.17c1.06,0,2.03.04,3,0,2.11-.1,3.95-1.4,4.55-3.3.68-2.18.36-4.18-1.29-5.87-1.8-1.84-4.06-1.39-6.25-1.39v10.57Z"/><path class="cls-1" d="m53.03,78.76c4.64.08,8.57,3.08,9.56,7.34,1.24,5.4-2.25,10.61-7.72,11.54-4.42.75-8.63-1.2-10.62-4.91-2.98-5.58.42-12.59,6.65-13.72.7-.13,1.42-.17,2.13-.26Zm5.09,9.57c0-2.97-2.22-5.29-5.11-5.3-2.9,0-5.09,2.23-5.13,5.26-.04,2.95,2.2,5.28,5.1,5.3,2.86.02,5.13-2.3,5.14-5.26Z"/><path class="cls-1" d="m94.16,78.81c5.64.03,9.81,3.81,10.03,9.18.16,3.92-1.7,6.9-5.18,8.74-4.17,2.2-9.49,1.06-12.44-2.59-3.52-4.34-2.35-10.94,2.44-13.83,1.66-1,3.45-1.53,5.16-1.5Zm5.32,9.5c0-3-2.22-5.28-5.12-5.28-2.88,0-5.13,2.31-5.12,5.28,0,2.98,2.24,5.28,5.13,5.28,2.89,0,5.12-2.3,5.11-5.28Z"/></g></g></svg>