<?xml version="1.0" encoding="utf-8"?>
<!-- Generator: Adobe Illustrator 25.2.0, SVG Export Plug-In . SVG Version: 6.00 Build 0)  -->
<svg version="1.1" id="Layer_1" xmlns="http://www.w3.org/2000/svg" xmlns:xlink="http://www.w3.org/1999/xlink" x="0px" y="0px"
	 width="128px" height="128px" viewBox="0 0 128 128" style="enable-background:new 0 0 128 128;" xml:space="preserve">
<style type="text/css">
	.st0{fill-rule:evenodd;clip-rule:evenodd;fill:#FFF552;}
	.st1{fill-rule:evenodd;clip-rule:evenodd;fill:#161616;}
	.st2{fill-rule:evenodd;clip-rule:evenodd;fill:#FFFFFF;filter:url(#Adobe_OpacityMaskFilter);}
	.st3{mask:url(#mask0_1_);}
	.st4{fill-rule:evenodd;clip-rule:evenodd;fill:#FFFFFF;filter:url(#Adobe_OpacityMaskFilter_1_);}
	.st5{mask:url(#mask1_1_);}
</style>
<circle class="st0" cx="64" cy="64" r="63"/>
<g>
	<g>
		<path class="st1" d="M58.1,84.2c-0.2,0.6-0.6,1.2-1,1.7c-0.4,0.5-0.9,0.8-1.5,1.1c-0.6,0.3-1.2,0.4-1.8,0.4
			c-0.7,0-1.3-0.1-1.8-0.4c-0.6-0.3-1.1-0.6-1.5-1.1c-0.4-0.5-0.7-1-1-1.7s-0.4-1.3-0.4-2.1c0-0.7,0.1-1.4,0.4-2.1
			c0.2-0.6,0.6-1.2,1-1.7c0.4-0.5,0.9-0.8,1.5-1.1c0.6-0.3,1.2-0.4,1.8-0.4c0.7,0,1.3,0.1,1.8,0.4c0.6,0.3,1.1,0.6,1.5,1.1
			c0.4,0.5,0.7,1,1,1.7c0.2,0.6,0.4,1.3,0.4,2.1C58.5,82.8,58.4,83.5,58.1,84.2z M62.4,78.5c-0.5-1.1-1.1-2.1-1.9-2.9
			c-0.8-0.8-1.8-1.5-2.9-1.9c-1.1-0.5-2.3-0.7-3.6-0.7c-1.3,0-2.5,0.2-3.6,0.7c-1.1,0.5-2.1,1.1-2.9,1.9c-0.8,0.8-1.5,1.8-1.9,2.9
			c-0.5,1.1-0.7,2.3-0.7,3.6c0,1.3,0.2,2.5,0.7,3.6c0.5,1.1,1.1,2.1,1.9,2.9c0.8,0.8,1.8,1.5,2.9,1.9c1.1,0.5,2.3,0.7,3.6,0.7
			c1.3,0,2.5-0.2,3.6-0.7c1.1-0.5,2.1-1.1,2.9-1.9c0.8-0.8,1.5-1.8,1.9-2.9c0.5-1.1,0.7-2.3,0.7-3.6C63.1,80.8,62.9,79.6,62.4,78.5z
			"/>
		<defs>
			<filter id="Adobe_OpacityMaskFilter" filterUnits="userSpaceOnUse" x="25.7" y="72.9" width="16.5" height="18.3">
				<feColorMatrix  type="matrix" values="1 0 0 0 0  0 1 0 0 0  0 0 1 0 0  0 0 0 1 0"/>
			</filter>
		</defs>
		<mask maskUnits="userSpaceOnUse" x="25.7" y="72.9" width="16.5" height="18.3" id="mask0_1_">
			<path class="st2" d="M25.7,72.9h16.5v18.3H25.7V72.9z"/>
		</mask>
		<g class="st3">
			<path class="st1" d="M37.3,84.1c-0.2,0.6-0.6,1.2-1,1.7c-0.4,0.5-0.9,0.8-1.4,1.1c-0.6,0.3-1.1,0.4-1.8,0.4h-2.9V76.7h2.9
				c0.6,0,1.2,0.1,1.8,0.4c0.6,0.3,1,0.7,1.4,1.1c0.4,0.5,0.7,1,1,1.7c0.2,0.7,0.4,1.4,0.4,2.1C37.6,82.8,37.5,83.5,37.3,84.1z
				 M41.6,78.5c-0.5-1.1-1.1-2.1-1.9-2.9c-0.8-0.8-1.8-1.5-2.9-1.9c-1.1-0.5-2.3-0.7-3.6-0.7h-7.4v18.3h7.4c1.3,0,2.5-0.2,3.6-0.7
				s2.1-1.1,2.9-1.9c0.8-0.8,1.5-1.8,1.9-2.9c0.5-1.1,0.7-2.3,0.7-3.5C42.3,80.8,42,79.6,41.6,78.5z"/>
		</g>
		<path class="st1" d="M97.3,84.2c-0.2,0.6-0.6,1.2-1,1.7c-0.4,0.5-0.9,0.8-1.5,1.1c-0.6,0.3-1.2,0.4-1.8,0.4
			c-0.7,0-1.3-0.1-1.8-0.4c-0.6-0.3-1.1-0.6-1.5-1.1c-0.4-0.5-0.7-1-1-1.7c-0.2-0.6-0.4-1.3-0.4-2.1c0-0.7,0.1-1.4,0.4-2.1
			c0.2-0.6,0.6-1.2,1-1.7c0.4-0.5,0.9-0.8,1.5-1.1c0.6-0.3,1.2-0.4,1.8-0.4c0.7,0,1.3,0.1,1.8,0.4c0.6,0.3,1.1,0.6,1.5,1.1
			c0.4,0.5,0.7,1,1,1.7c0.2,0.6,0.4,1.3,0.4,2.1C97.6,82.8,97.5,83.5,97.3,84.2z M101.5,78.5c-0.5-1.1-1.1-2.1-1.9-2.9
			c-0.8-0.8-1.8-1.5-2.9-1.9c-1.1-0.5-2.3-0.7-3.6-0.7c-1.3,0-2.5,0.2-3.6,0.7c-1.1,0.5-2.1,1.1-2.9,1.9c-0.8,0.8-1.5,1.8-1.9,2.9
			C84.2,79.6,84,80.8,84,82c0,1.3,0.2,2.5,0.7,3.6c0.5,1.1,1.1,2.1,1.9,2.9c0.8,0.8,1.8,1.5,2.9,1.9c1.1,0.5,2.3,0.7,3.6,0.7
			c1.3,0,2.5-0.2,3.6-0.7c1.1-0.5,2.1-1.1,2.9-1.9c0.8-0.8,1.5-1.8,1.9-2.9c0.5-1.1,0.7-2.3,0.7-3.6C102.3,80.8,102,79.6,101.5,78.5
			z"/>
		<path class="st1" d="M77.2,84.3c-0.2,0.6-0.5,1.2-0.9,1.7c-0.4,0.5-0.9,0.8-1.4,1.1c-0.5,0.3-1.1,0.4-1.7,0.4h-2.9V76.9h2.9
			c0.6,0,1.2,0.1,1.7,0.4c0.5,0.3,1,0.7,1.4,1.1c0.4,0.5,0.7,1,0.9,1.7c0.2,0.7,0.3,1.4,0.3,2.1C77.5,83,77.4,83.6,77.2,84.3z
			 M81.5,78.5c-0.5-1.1-1.1-2.1-1.9-2.9c-0.8-0.8-1.8-1.5-2.9-1.9c-1.1-0.5-2.3-0.7-3.6-0.7h-7.4v18.3h7.4c1.3,0,2.5-0.2,3.6-0.7
			s2.1-1.1,2.9-1.9c0.8-0.8,1.5-1.8,1.9-2.9c0.5-1.1,0.7-2.3,0.7-3.5C82.3,80.8,82,79.6,81.5,78.5z"/>
	</g>
	<g>
		<defs>
			<filter id="Adobe_OpacityMaskFilter_1_" filterUnits="userSpaceOnUse" x="32.5" y="19.4" width="63.1" height="48.1">
				<feColorMatrix  type="matrix" values="1 0 0 0 0  0 1 0 0 0  0 0 1 0 0  0 0 0 1 0"/>
			</filter>
		</defs>
		<mask maskUnits="userSpaceOnUse" x="32.5" y="19.4" width="63.1" height="48.1" id="mask1_1_">
			<path class="st4" d="M32.5,19.4h63.1v48.1H32.5V19.4z"/>
		</mask>
		<g class="st5">
			<path class="st1" d="M71.5,32.1c0.3-0.4,0.5-0.9,0.7-1.4c0.4-0.9,0.6-1.8,0.6-2.6c0.2-1.7-0.2-3.1-1.2-3.5
				c-1-0.4-2.2,0.2-3.3,1.5c0-0.1,0-0.2,0-0.3c0-3.6-1.6-6.4-3.6-6.4c-2,0-3.6,2.9-3.6,6.4c0,0.3,0,0.5,0,0.7
				c-1.2-1.7-2.8-2.5-3.9-2c-1.4,0.7-1.6,3.3-0.4,5.8c0.2,0.4,0.7,1.2,0.9,1.5c-15.4,2.5-24.2,15-25.3,35.5h8.6
				C42,50.6,49.9,41,64,41.3c13,0.3,23,8.8,22.9,26.2h8.6C95.7,47,85.6,35.3,71.5,32.1z"/>
		</g>
		<path class="st1" d="M56.9,51.3c-1,0-1.9,0.9-1.9,2.1v5.2c0,1.2,0.8,2.1,1.9,2.1c1,0,1.9-0.9,1.9-2.1v-5.2
			C58.8,52.2,57.9,51.3,56.9,51.3z"/>
		<path class="st1" d="M71.9,51.3c-1,0-1.9,0.9-1.9,2.1v5.2c0,1.2,0.8,2.1,1.9,2.1c1,0,1.9-0.9,1.9-2.1v-5.2
			C73.8,52.2,73,51.3,71.9,51.3z"/>
	</g>
</g>
</svg>
