<?xml version="1.0" encoding="UTF-8"?><svg id="Layer_1" xmlns="http://www.w3.org/2000/svg" xmlns:xlink="http://www.w3.org/1999/xlink" viewBox="0 0 128 128"><defs><style>.cls-1{clip-path:url(#clippath);}.cls-2{fill:none;}.cls-2,.cls-3,.cls-4,.cls-5{stroke-width:0px;}.cls-4{fill:#fff;}.cls-5{fill:#e2e6e9;}</style><clipPath id="clippath"><circle class="cls-2" cx="64" cy="64" r="63.5"/></clipPath></defs><circle class="cls-5" cx="64" cy="64" r="63.5"/><g id="DOGS"><g class="cls-1"><g id="DOGS-2"><path class="cls-3" d="m128.03,61.27v5.46c-.26.05-.23.26-.24.44-.04,1.08-.07,2.16-.11,3.25,0,.13.02.3-.05.39-.22.29-.19.63-.22.96-.07.65.11,1.34-.28,1.94-.05.08-.03.21-.04.31-.02.32-.03.64-.05.96,0,.11,0,.25-.05.31-.26.28-.22.62-.24.94-.02.21.05.49-.06.63-.32.4-.22.86-.28,1.3-.02.12-.01.28-.08.34-.21.17-.19.4-.21.62-.02.22.02.51-.11.66-.19.22-.19.45-.22.7-.01.13-.05.26-.09.38-.07.21-.16.41-.22.62-.13.51-.25,1.03-.38,1.54,0,.03-.06.06-.07.09-.07.17-.14.33-.19.51-.13.45-.18.94-.4,1.33-.15.27-.23.52-.28.8,0,.06-.01.17-.05.18-.26.13-.22.37-.25.59-.01.11,0,.26-.07.3-.22.15-.18.4-.28.58-.18.33-.31.66-.35,1.03,0,.02-.03.04-.05.06-.08.14-.16.28-.22.43-.04.08-.05.17-.09.25-.18.37-.37.72-.53,1.1-.15.35-.27.72-.4,1.07,0,.02-.04.03-.05.06-.17.29-.35.57-.49.87-.15.32-.26.65-.39.98,0,.02-.03.04-.05.06-.18.28-.43.54-.51.85-.1.35-.34.59-.52.88-.16.26-.31.52-.45.8-.15.3-.21.69-.44.91-.37.35-.5.83-.83,1.2-.32.38-.5.87-.74,1.32-.02.03-.03.08-.06.1-.26.24-.48.5-.6.85-.07.19-.25.34-.38.51-.18.23-.35.46-.52.69-.15.2-.28.41-.43.6-.17.23-.36.46-.54.69-.15.2-.28.4-.43.59-.16.21-.34.4-.5.6-.26.33-.51.68-.78,1-.25.29-.54.55-.78.84-.28.34-.51.72-.8,1.04-.25.28-.57.5-.83.77-.26.27-.47.59-.74.86-.26.27-.58.49-.85.75-.27.27-.49.58-.76.85-.27.26-.59.47-.86.74-.38.37-.72.76-1.09,1.13-.15.15-.34.25-.51.39-.33.26-.67.52-.99.8-.19.15-.37.32-.53.49-.19.2-.46.28-.66.44-.4.31-.7.72-1.19.93-.18.08-.35.22-.48.37-.21.24-.42.45-.73.55-.07.02-.13.08-.19.13-.17.15-.33.3-.49.45-.29.26-.67.37-.97.63-.36.31-.83.49-1.25.73-.05.03-.09.06-.13.09-.28.21-.5.5-.89.54-.05,0-.1.04-.13.08-.25.25-.49.51-.88.55-.05,0-.09.08-.14.12-.09.06-.18.12-.28.17-.09.04-.25.04-.29.1-.19.32-.61.25-.83.54-.11.15-.33.23-.5.31-.31.14-.62.26-.94.4-.02,0-.03.05-.05.06-.11.07-.23.14-.35.21-.11.06-.21.12-.32.18-.08.04-.15.09-.23.12-.33.13-.65.26-.98.39-.02,0-.03.04-.05.06-.13.07-.26.15-.39.21-.08.04-.17.05-.25.09-.16.07-.31.16-.47.23-.12.05-.26.06-.37.12-.31.16-.6.36-.92.49-.21.08-.42.18-.61.26-.34.15-.72.22-1.08.38-.39.17-.76.46-1.23.4-.02,0-.06.02-.07.04-.11.28-.37.21-.58.25-.12.02-.29.01-.34.08-.17.27-.43.22-.67.25-.09.01-.23,0-.27.06-.19.29-.5.18-.74.28-.4.17-.78.35-1.22.34-.02,0-.05.03-.06.05-.1.24-.33.19-.52.21-.21.03-.48-.01-.62.11-.24.22-.5.21-.77.23-.11,0-.26,0-.31.05-.24.35-.6.2-.92.27-.15.03-.3.07-.45.11-.14.05-.27.15-.42.17-.28.04-.56.03-.84.06-.11.01-.22.07-.33.11-.13.05-.25.14-.38.15-.29.03-.59.03-.88.05-.11,0-.23.06-.33.1-.15.06-.3.16-.46.17-.37.04-.75.03-1.12.05-.1,0-.26,0-.3.06-.17.24-.42.2-.65.21-.52.02-1.04.03-1.56.05-.13,0-.25.05-.38.09-.17.05-.34.16-.51.16-.98.03-1.95.04-2.93.07-.31,0-.64-.06-.91.21-.06.06-.2.05-.31.05-1.52,0-3.05,0-4.57,0-.13,0-.26-.04-.39-.07-.2-.05-.39-.16-.59-.17-1.06-.04-2.11-.05-3.17-.07-.13,0-.32.01-.38-.06-.21-.24-.48-.2-.74-.21-.49-.02-.99-.03-1.48-.05-.12,0-.29,0-.34-.07-.19-.24-.45-.2-.69-.21-.32-.02-.64-.02-.96-.05-.11,0-.22-.06-.33-.1-.14-.05-.28-.15-.42-.17-.29-.04-.59-.02-.88-.05-.11-.01-.22-.07-.33-.11-.13-.05-.25-.14-.38-.16-.28-.04-.56-.03-.84-.05-.11-.01-.23-.06-.33-.1-.15-.06-.3-.15-.45-.18-.25-.05-.59.04-.74-.09-.28-.25-.58-.21-.88-.26-.08-.01-.19-.02-.22-.07-.14-.23-.36-.23-.57-.21-.58.04-1.02-.47-1.61-.38-.02,0-.05-.02-.06-.04-.12-.25-.35-.2-.55-.23-.15-.02-.3-.07-.44-.13-.14-.05-.28-.18-.41-.18-.51,0-.88-.48-1.41-.38,0,0-.03-.01-.03-.02-.13-.29-.42-.21-.65-.28-.23-.06-.42-.23-.65-.29-.41-.11-.74-.45-1.2-.39-.02,0-.06-.02-.06-.04-.08-.23-.29-.19-.46-.24-.09-.02-.17-.09-.26-.14-.1-.05-.19-.12-.3-.15-.39-.12-.71-.42-1.15-.41-.03,0-.07-.08-.11-.11-.07-.05-.14-.1-.22-.14-.33-.13-.66-.26-.99-.38-.02,0-.05-.03-.06-.05-.06-.23-.26-.19-.42-.23-.08-.02-.2-.03-.21-.08-.07-.24-.28-.2-.45-.25-.07-.02-.14-.06-.21-.1-.12-.07-.23-.14-.35-.2-.09-.05-.19-.07-.29-.12-.13-.07-.25-.15-.38-.21-.07-.04-.16-.04-.22-.09-.28-.23-.52-.52-.93-.56-.04,0-.08-.06-.13-.08-.28-.18-.56-.35-.84-.53-.14-.09-.28-.17-.43-.25-.26-.14-.53-.28-.79-.42-.05-.02-.1-.03-.14-.06-.37-.28-.73-.59-1.12-.84-.42-.27-.87-.49-1.3-.75-.18-.11-.34-.26-.51-.39-.24-.18-.48-.35-.72-.52-.05-.04-.13-.04-.18-.08-.48-.39-.92-.82-1.43-1.17-.36-.24-.66-.55-1.04-.78-.45-.27-.79-.73-1.19-1.1-.15-.14-.3-.27-.48-.36-.43-.21-.74-.56-1.06-.9-.15-.16-.33-.28-.5-.43-.16-.15-.32-.3-.47-.46-.26-.26-.51-.53-.76-.79-.29-.29-.58-.59-.87-.88-.24-.24-.48-.49-.73-.73-.27-.26-.56-.51-.82-.78-.26-.27-.5-.57-.75-.86-.18-.21-.37-.42-.55-.63-.26-.31-.51-.64-.77-.95-.26-.3-.56-.57-.78-.9-.18-.27-.35-.53-.6-.75-.19-.17-.3-.43-.44-.64-.13-.2-.25-.41-.42-.58-.22-.22-.45-.43-.55-.74-.02-.07-.07-.14-.11-.2-.16-.21-.34-.42-.5-.63-.16-.22-.28-.46-.44-.68-.16-.23-.36-.43-.5-.66-.16-.27-.26-.57-.43-.83-.27-.4-.62-.75-.84-1.18-.24-.46-.63-.84-.72-1.37,0-.03-.01-.06-.03-.07-.33-.24-.34-.66-.57-.96-.16-.21-.25-.47-.39-.71-.17-.3-.38-.59-.54-.9-.16-.32-.27-.65-.4-.98,0-.02-.04-.03-.05-.06-.17-.3-.37-.6-.51-.92-.16-.38-.27-.78-.41-1.17-.01-.04-.04-.07-.06-.1-.17-.32-.37-.62-.5-.95-.16-.39-.27-.81-.4-1.21-.02-.05-.07-.08-.1-.12-.06-.1-.12-.19-.16-.29-.13-.4-.25-.81-.38-1.22-.01-.03-.05-.06-.07-.09-.07-.13-.19-.27-.19-.4-.02-.51-.47-.89-.4-1.41,0-.02-.02-.06-.04-.07-.24-.12-.19-.35-.22-.56-.02-.12,0-.29-.06-.35-.3-.22-.22-.55-.28-.83-.01-.08-.02-.19-.07-.22-.23-.14-.19-.36-.22-.57-.03-.21.02-.5-.1-.62-.23-.24-.2-.5-.24-.77-.02-.11-.06-.23-.09-.34-.06-.18-.15-.36-.19-.55-.04-.21.04-.49-.07-.63-.32-.41-.23-.89-.29-1.34-.01-.1,0-.25-.07-.3-.23-.18-.2-.42-.21-.66-.02-.29.06-.65-.08-.87-.33-.52-.21-1.08-.28-1.63-.02-.13.01-.31-.06-.39-.22-.25-.21-.54-.22-.83-.02-.47-.03-.94-.05-1.4,0-.13-.05-.26-.09-.38-.05-.2-.14-.4-.16-.6-.14-1.32-.03-2.64-.23-3.98-.21-1.33-.09-2.72-.06-4.08.01-.6.18-1.2.22-1.81.05-.91.05-1.82.07-2.73,0-.17.04-.34.08-.51.06-.25.16-.5.18-.76.04-.45.04-.91.06-1.36,0-.13,0-.3.07-.39.25-.31.19-.68.22-1.03.02-.29-.04-.64.1-.86.26-.43.19-.87.25-1.31.02-.13-.01-.32.06-.39.3-.28.19-.64.25-.97.04-.22.08-.44.14-.66.04-.17.13-.33.17-.51.13-.57.24-1.15.37-1.72,0-.04.05-.06.06-.1.07-.18.16-.35.2-.53.06-.23.07-.47.13-.7.04-.17.16-.32.21-.48.13-.47.17-.99.4-1.4.16-.28.22-.55.27-.84.01-.07.05-.15.08-.22.07-.15.16-.29.21-.44.15-.45.24-.93.44-1.35.1-.2.21-.38.23-.6,0-.06.05-.12.08-.18.07-.16.16-.31.22-.48.05-.13.07-.28.13-.42.06-.15.14-.29.21-.44.03-.07.02-.2.06-.22.25-.11.23-.33.26-.54,0-.05.02-.12.06-.14.24-.12.22-.34.26-.55.02-.13.08-.25.14-.37.15-.3.33-.59.47-.9.15-.32.27-.66.4-.99,0-.02.03-.04.05-.06.26-.28.35-.65.53-.98.17-.3.3-.62.48-.92.24-.41.53-.79.77-1.19.17-.29.29-.61.43-.92.02-.05.05-.09.08-.14.27-.4.53-.8.8-1.2.09-.14.23-.25.28-.4.14-.39.39-.71.63-1.03.11-.15.29-.27.34-.44.11-.39.37-.66.64-.93.15-.16.24-.38.36-.57.14-.22.3-.43.45-.64.18-.24.36-.48.53-.72.04-.06.06-.15.11-.2.32-.35.66-.66.9-1.08.18-.32.46-.59.7-.87.16-.18.34-.35.5-.53.21-.24.39-.5.6-.74.22-.25.47-.48.69-.73.25-.28.47-.6.73-.87.26-.27.58-.49.84-.76.37-.38.7-.78,1.06-1.17.3-.32.62-.62.94-.92.14-.14.3-.26.44-.39.17-.14.34-.28.5-.43.19-.17.37-.36.57-.52.2-.16.44-.27.63-.45.39-.36.74-.75,1.12-1.11.16-.15.35-.25.53-.37.22-.15.46-.27.64-.45.23-.23.43-.49.77-.57.05-.01.1-.04.14-.07.16-.16.3-.33.46-.48.15-.13.31-.24.48-.35.23-.15.56-.22.7-.43.29-.43.78-.54,1.14-.84.38-.31.8-.62,1.3-.75.05-.01.09-.09.14-.13.18-.14.35-.36.56-.41.35-.08.55-.35.83-.51.26-.15.5-.33.77-.47.31-.16.64-.28.97-.42.02,0,.04-.04.06-.05.27-.22.51-.5.9-.53.04,0,.09-.05.13-.08.14-.08.28-.16.42-.24.07-.04.14-.05.21-.09.14-.07.28-.16.42-.23.07-.03.19-.04.21-.08.07-.22.26-.2.42-.24.08-.02.2-.03.21-.07.08-.23.28-.21.46-.26.09-.02.16-.1.25-.15.09-.05.17-.11.27-.14.39-.11.71-.44,1.15-.4.14-.27.4-.26.65-.3.04,0,.09-.03.1-.06.07-.24.28-.2.46-.24.07-.02.19-.03.21-.08.11-.24.32-.2.51-.23.13-.02.32-.01.37-.09.13-.2.35-.16.5-.25.34-.22.7-.32,1.09-.34.02,0,.05-.03.06-.05.08-.24.29-.22.46-.22.49-.02.85-.46,1.37-.38.03,0,.06-.05.09-.07.13-.07.27-.18.4-.18.52,0,.91-.47,1.45-.37.02,0,.06-.02.07-.04.12-.27.37-.21.59-.24.21-.03.49.02.61-.1.22-.22.47-.2.73-.23.09,0,.23.01.27-.04.28-.37.68-.22,1.03-.29.12-.02.24-.07.36-.12.14-.05.28-.14.42-.16.26-.04.53-.03.8-.05.11-.01.23-.06.33-.1.15-.06.3-.15.45-.18.28-.04.56-.03.84-.05.1,0,.25-.02.29-.08.15-.22.37-.19.58-.2.35-.02.69-.03,1.04-.04.09,0,.23,0,.27-.05.22-.29.53-.22.81-.23.48-.02.96-.03,1.44-.05.12,0,.27,0,.34-.08.17-.19.37-.18.59-.18,1.06-.02,2.11-.04,3.17-.06.15,0,.31-.05.46-.09.16-.04.32-.15.48-.15,1.52-.01,3.05,0,4.57,0,.13,0,.26.05.38.08.19.05.37.15.55.16,1.07.03,2.14.05,3.21.07.13,0,.31,0,.38.07.2.23.46.19.7.2.51.02,1.02.03,1.52.05.12,0,.28,0,.34.07.17.22.39.19.62.2.33.01.67.02,1,.04.12,0,.28.02.33.09.15.2.35.16.54.19.43.07.91-.11,1.28.28.05.05.18.03.27.04.27.02.53.02.8.04.1,0,.25.02.29.09.15.23.37.18.57.2.23.02.54-.04.66.09.26.26.55.21.84.25.1.02.2.05.3.08.18.07.36.21.53.2.57-.04,1,.49,1.57.38.03,0,.06.05.1.06.16.07.31.16.48.21.14.04.37-.01.42.07.21.3.52.23.79.28.07.01.17,0,.19.04.16.3.47.19.7.28.38.15.74.36,1.16.37.04,0,.07.08.11.11.07.05.15.12.22.13.44.04.76.48,1.24.39.16.26.42.28.68.31.04,0,.07.07.12.1.09.06.18.13.29.17.39.14.82.2,1.15.42.22.14.42.23.66.29.04,0,.09.04.1.06.06.23.26.19.42.23.08.03.17.06.24.11.12.06.23.14.35.2.08.04.23.03.26.08.17.37.7.15.84.54.47.09.82.42,1.23.62.47.24.86.64,1.41.72.04,0,.07.08.11.1.09.06.18.12.28.17.09.05.21.06.29.12.39.27.76.59,1.18.83.44.25.81.61,1.32.73.05.01.08.1.13.14.2.15.39.29.6.43.23.15.47.29.7.45.26.18.5.37.76.55.06.04.14.07.19.12.16.15.29.34.47.46.43.3.92.51,1.25.95.11.15.3.29.48.34.46.15.68.57,1.05.83.19.13.34.32.51.47.25.21.51.41.76.62.25.22.49.45.74.68.28.25.58.48.86.74.31.29.62.58.91.89.15.15.26.32.41.47.27.27.54.53.81.79.26.26.52.52.77.79.25.27.47.56.74.82.34.33.68.65.93,1.06.19.32.47.58.72.86.25.27.58.5.75.81.18.33.37.62.66.86.14.11.27.27.34.43.13.33.33.6.61.82.14.11.29.27.34.43.12.37.35.63.63.89.15.14.25.35.35.54.08.14.06.3.26.41.17.09.26.33.37.51.17.31.32.63.5.93.18.3.5.51.55.89,0,.05.05.09.08.13.22.26.5.48.54.85,0,.05.03.11.07.13.31.21.3.62.53.89.18.21.27.49.41.74.17.29.38.56.53.86.16.31.27.65.4.98,0,.02.03.05.05.06.34.2.27.63.51.9.22.25.27.64.4.97.01.03.06.05.08.09.07.13.15.26.21.4.08.18.15.35.23.53.03.07.06.14.09.21.13.34.25.69.38,1.04,0,.02.04.03.05.06.07.14.15.29.21.44.08.18.15.35.23.53.03.06.07.12.07.18.03.46.46.8.4,1.29,0,.04.06.08.09.12.06.1.13.19.16.29.15.48.28.97.42,1.46.01.04.04.07.05.11.07.15.17.3.19.45.05.5.44.9.38,1.43,0,.02.02.06.04.07.25.13.22.38.22.6.02.56.44,1.02.38,1.6,0,.03.05.06.06.1.07.16.15.33.18.5.05.23-.03.55.1.7.27.31.2.64.25.97.03.22.07.44.13.66.05.19.14.36.17.55.05.33-.02.71.13.98.17.32.18.63.21.95.03.33-.02.71.12.98.15.29.18.57.19.88.02.43.02.86.05,1.28,0,.16.06.31.1.47.05.2.14.4.15.6.05,1.07.07,2.14.11,3.21,0,.18-.02.39.24.44Zm-87.33,21.42s.04,0,.06,0c0,.79,0,1.58,0,2.37,0,.17,0,.39.1.5.17.2.17.41.18.63.01.25.02.51.04.76,0,.1.04.21.07.3.07.19.22.39.2.57-.1.69.46,1.23.39,1.9,0,.03.03.09.05.1.24.12.2.35.23.56.02.14,0,.35.09.41.25.17.22.41.24.64.01.09,0,.24.04.27.33.17.25.49.3.76.02.08.07.16.11.24.06.1.13.2.17.31.15.4.23.85.45,1.2.11.18.2.34.23.54,0,.06.03.17.06.18.29.05.2.3.25.47.02.07.05.19.09.2.23.04.17.24.22.38.03.09.02.22.08.25.37.22.18.74.53.97.06.6.5,1.03.71,1.56.03.09.22.12.25.21.12.36.37.6.61.88.12.14.26.25.37.39.15.18.29.37.44.55.19.23.39.46.58.7.05.06.08.14.13.19.5.42,1.03.79,1.5,1.27.28.29.57.67,1.04.77.18.04.36.19.48.33.23.27.47.51.84.58.05,0,.12.04.13.07.01.27.23.21.38.25.08.02.21.03.22.06.05.28.28.23.46.27.06.02.17.04.17.08.04.25.24.2.4.23.09.01.24.02.26.07.09.32.36.2.56.25.14.03.27.08.4.13.12.05.24.16.36.16.94.01,1.87,0,2.81,0,.12,0,.25-.06.37-.11.14-.05.27-.15.41-.17.28-.03.56-.02.84-.04.09,0,.24.02.27-.03.28-.4.7-.22,1.05-.29.11-.02.29-.04.31-.11.07-.22.25-.22.39-.19.48.09.75-.47,1.22-.37.01,0,.04-.03.05-.05.06-.25.28-.2.45-.23.14-.03.38-.01.41-.09.1-.24.29-.23.48-.26.06-.01.16-.04.17-.07.06-.25.27-.2.44-.25.09-.03.16-.11.25-.16.27-.13.41-.46.76-.48.08,0,.16-.09.23-.15.2-.15.39-.4.61-.43.33-.05.43-.34.67-.48.26-.14.43-.45.74-.55.07-.02.14-.06.19-.11.15-.16.28-.35.45-.5.17-.15.38-.24.54-.4.16-.16.25-.38.41-.54.27-.26.65-.44.83-.75.11-.18.29-.21.38-.37.11-.19.25-.37.41-.53.24-.23.55-.41.58-.8,0-.04.02-.08.04-.11.4-.35.84-.67.95-1.25,0-.02.04-.04.05-.05.25-.22.54-.41.57-.8,0-.05.02-.13.06-.14.52-.2.43-.86.86-1.11,0-.58.73-.82.69-1.43,0-.02.05-.07.08-.07.22-.01.18-.19.21-.32.02-.09.02-.24.07-.26.4-.12.21-.6.53-.83.24-.17.22-.66.42-.94.17-.24.29-.47.31-.76,0-.03.05-.08.08-.08.21-.03.18-.19.2-.33.02-.15-.01-.33.22-.37.04,0,.07-.13.08-.2.03-.44.4-.75.46-1.2.02-.18.21-.39.23-.63,0-.06.05-.15.08-.16.24-.03.17-.23.21-.37.12-.4.24-.81.37-1.21,0-.01.01-.03.02-.03.32-.08.21-.35.25-.55.02-.13.01-.35.08-.37.3-.11.21-.36.25-.57.02-.13,0-.34.08-.38.3-.14.21-.39.24-.61.02-.11,0-.27.07-.3.32-.17.18-.49.27-.72.16-.41.37-.79.35-1.24,0-.02.03-.05.05-.06.28-.07.19-.31.22-.49.04-.23.02-.51.15-.69.14-.19.16-.37.18-.58.01-.16,0-.41.08-.45.3-.15.2-.4.23-.62.03-.21-.01-.51.11-.61.25-.2.19-.43.22-.67.02-.17,0-.39.09-.5.25-.31.22-.66.25-1.01,0-.12.03-.27.1-.34.22-.2.18-.45.2-.7.02-.22-.03-.54.1-.65.25-.22.19-.47.22-.72.03-.28-.06-.59.25-.79.06-.04.05-.2.06-.3.02-.27.02-.53.03-.8,0-.1.02-.27.08-.3.28-.13.2-.38.22-.59.03-.29-.04-.64.1-.86.25-.4.2-.81.24-1.22.02-.17.01-.39.11-.49.19-.19.18-.4.18-.62.01-.25.01-.51.03-.76,0-.1.01-.25.08-.3.24-.16.2-.39.21-.61.01-.28.01-.56.04-.84.01-.14.03-.33.12-.41.18-.16.16-.35.17-.55.01-.27.02-.53.03-.8,0-.1.01-.26.08-.3.25-.13.2-.35.21-.56.02-.31.01-.62.03-.92.01-.14.02-.33.11-.41.17-.16.15-.35.18-.54.06-.45-.13-.96.28-1.35.05-.05.03-.18.03-.27.01-.28.02-.56.03-.84,0-.17-.04-.42.05-.51.37-.36.21-.8.26-1.21.03-.21-.03-.48.09-.62.27-.34.2-.72.23-1.09.02-.2-.03-.48.08-.58.3-.26.21-.57.24-.87.03-.33-.04-.68.28-.92.03-.02.02-.1.02-.15.04-.4-.05-.84.31-1.15.02-.02,0-.08.01-.12.05-.31-.06-.65.28-.89.11-.08.02-.39.08-.58.05-.17.27-.31.26-.46-.01-.35.39-.44.39-.75.42-.15.55-.76,1.1-.7.03,0,.07-.04.09-.06.2-.22.64-.49.87-.54.06-.01.15-.03.17-.07.14-.23.36-.24.59-.26.08,0,.21-.02.22-.06.08-.27.34-.19.51-.29.24-.15.45-.33.75-.33.04,0,.07-.1.12-.14.05-.05.12-.08.18-.12.3-.16.59-.31.89-.46.13-.06.26-.18.38-.17.37.02.55-.29.82-.44.33-.18.67-.33.99-.53.06-.04.21-.02.22-.05.1-.43.64-.19.83-.57.1-.2.5-.25.77-.37.03-.01.07-.06.07-.09,0-.22.18-.18.32-.21.09-.02.24-.02.26-.07.21-.49.8-.5,1.09-.89.13-.17.38-.24.54-.4.17-.16.28-.38.45-.54.27-.26.64-.45.84-.75.1-.16.26-.22.36-.35.14-.2.32-.37.48-.56.17-.21.35-.42.48-.65.07-.12.06-.24.23-.32.17-.07.37-.29.38-.45.02-.41.38-.61.49-.96.12-.37.57-.6.54-1.07,0-.03.05-.05.07-.08.08-.14.17-.28.22-.43.05-.12,0-.34.08-.38.27-.16.18-.43.27-.64.17-.41.35-.81.35-1.27,0-.03.03-.09.06-.1.22-.08.19-.27.19-.44.01-1.08-.02-2.17.04-3.25.03-.46-.38-.72-.37-1.14-.4-.07-.2-.64-.61-.73-.11-.02-.19-.17-.28-.28-.14-.17-.25-.37-.39-.54-.12-.14-.26-.28-.41-.4-.17-.14-.38-.25-.53-.41-.24-.25-.41-.59-.82-.59-.04,0-.08-.02-.1-.05-.21-.32-.45-.58-.87-.59-.03,0-.09-.04-.09-.06-.01-.29-.25-.21-.41-.26-.07-.02-.21-.04-.21-.07-.04-.28-.27-.21-.43-.25-.08-.02-.21-.03-.22-.06-.06-.29-.29-.23-.47-.25-.23-.03-.48.05-.61-.25-.02-.05-.17-.05-.26-.06-.23-.02-.45-.01-.68-.04-.1-.01-.19-.06-.28-.1-.14-.06-.28-.17-.42-.17-1.14-.01-2.27,0-3.41,0-.1,0-.25.02-.29.08-.14.21-.34.19-.53.2-.32.02-.64.02-.96.04-.1,0-.26,0-.3.07-.19.28-.46.2-.72.23-.2.02-.47,0-.57.1-.19.22-.41.2-.64.22-.12,0-.31-.01-.34.05-.18.34-.49.24-.76.28-.08.01-.2.02-.22.07-.12.26-.35.23-.57.25-.06,0-.16.02-.17.06-.1.27-.33.22-.54.25-.13.02-.34.03-.36.09-.08.26-.28.2-.45.23-.09.01-.24.03-.25.07-.05.27-.27.21-.44.25-.08.02-.17.05-.24.09-.15.07-.28.16-.43.22-.11.04-.25.02-.34.09-.37.27-.8.39-1.19.6-.26.14-.48.33-.8.32-.02,0-.05.03-.06.05-.12.39-.58.22-.82.52-.19.24-.65.24-.95.42-.36.21-.64.58-1.11.6-.03,0-.07.05-.08.08-.04.23-.23.18-.37.23-.07.02-.21.03-.22.06-.05.29-.29.23-.47.27-.06.02-.17.04-.17.07-.03.29-.26.21-.43.25-.07.02-.2.05-.2.08-.03.26-.24.2-.39.24-.07.02-.18.05-.2.1-.07.19-.22.2-.39.21-.09,0-.19.04-.25.1-.29.24-.55.52-.96.54-.04,0-.11.04-.12.08-.06.22-.25.2-.42.24-.07.01-.15.03-.22.07-.15.08-.32.15-.45.26-.29.24-.62.34-.99.37-.02,0-.05.03-.06.05-.07.24-.28.19-.46.23-.08.01-.2.03-.21.07-.07.28-.3.21-.48.24-.07.02-.2.02-.21.07-.1.28-.34.21-.54.24-.14.02-.37.02-.4.09-.12.28-.35.19-.54.23-.16.03-.33.06-.48.11-.14.05-.28.18-.41.18-.92.02-1.84.01-2.77.01-.1,0-.27-.02-.29-.07-.11-.27-.34-.2-.54-.23-.24-.03-.58.03-.69-.1-.21-.26-.44-.19-.67-.22-.51-.07-1.07.14-1.52-.28-.04-.04-.13-.02-.2-.02-1.04,0-2.08,0-3.13,0-.11,0-.22.06-.34.1-.16.05-.31.14-.47.15-.67.03-1.34.04-2,.06-.13,0-.25.05-.37.1-.15.06-.29.16-.44.18-.29.04-.59.02-.88.04-.09,0-.23,0-.26.06-.15.28-.4.21-.63.23-.25.02-.51.01-.76.03-.1,0-.19.06-.28.1-.12.06-.24.16-.36.17-.3.03-.61.03-.92.04-.09,0-.23,0-.26.06-.15.28-.4.22-.63.23-.41.02-.83,0-1.24.04-.16.01-.3.15-.46.16-.49.04-.99.05-1.49.07,0,0-.02-.02-.03-.03-.15-.17-.29-.36-.46-.5-.32-.27-.72-.43-1.03-.72-.15-.14-.33-.24-.47-.39-.15-.16-.26-.37-.42-.52-.28-.25-.59-.46-.87-.7-.23-.19-.45-.4-.67-.6-.13-.11-.25-.23-.38-.33-.18-.14-.38-.25-.54-.4-.15-.14-.25-.34-.39-.5-.13-.14-.28-.25-.44-.36-.36-.25-.77-.44-1.08-.74-.24-.23-.42-.52-.77-.61-.04,0-.07-.03-.1-.06-.16-.16-.3-.41-.49-.47-.22-.07-.25-.31-.4-.35-.25-.06-.41-.18-.61-.32-.21-.15-.39-.51-.76-.4-.02,0-.08-.05-.08-.07-.01-.25-.21-.19-.35-.22-.08-.02-.21-.03-.22-.07-.08-.25-.33-.18-.47-.28-.25-.18-.49-.34-.81-.31-.03,0-.08-.04-.09-.07-.06-.27-.28-.19-.45-.22-.15-.03-.4-.01-.45-.1-.12-.24-.32-.2-.5-.22-.24-.02-.5.03-.67-.23-.05-.07-.22-.07-.34-.08-.27-.02-.53-.02-.8-.04-.1,0-.26-.02-.29-.08-.13-.22-.33-.2-.53-.2-1.22,0-2.43-.02-3.65,0-.27,0-.6-.09-.78.24-.02.04-.12.03-.19.05-.29.05-.64-.07-.84.29-.03.05-.18.04-.27.06-.07.02-.15.03-.22.07-.15.08-.3.17-.45.27-.06.04-.11.09-.16.14-.17.16-.34.32-.51.48-.15.15-.4.3-.42.47-.04.38-.47.56-.41.96,0,.03-.03.1-.05.1-.28.07-.2.3-.25.48-.02.06-.02.18-.05.18-.31.07-.21.32-.25.52-.02.13,0,.34-.07.38-.37.23-.2.59-.26.9-.03.15-.04.31-.09.46-.05.18-.19.35-.19.53-.02.79-.01,1.58,0,2.37,0,.09-.02.23.03.27.33.26.2.63.28.96.09.35.18.72.38,1.01.13.18.23.33.26.54,0,.05.08.09.12.14.06.07.13.14.16.23.06.17,0,.38.28.45.13.03.3.24.31.38.05.52.52.72.76,1.1.19.31.57.49.84.75.15.15.26.34.4.5.13.14.26.29.4.41.17.14.44.22.53.4.24.49.8.55,1.12.91.09.11.19.21.3.31.18.18.36.36.56.52.19.16.38.35.6.41.29.08.4.35.63.49.18.11.31.32.47.48.12.12.25.22.39.32.23.15.48.28.7.44.14.11.25.26.38.39.15.16.3.34.46.49.16.15.39.25.48.42.13.26.47.4.41.75,0,.02.05.08.08.08.22.01.19.18.21.32.02.1.04.27.09.29.3.1.19.34.23.53.03.15,0,.4.08.45.27.15.19.38.23.59.03.22,0,.51.12.65.19.21.18.43.2.66.02.21-.04.53.07.62.33.26.21.6.26.91.03.14,0,.36.09.41.25.16.19.39.22.6.02.2-.03.47.08.58.31.34.21.74.27,1.12.01.1.02.26.08.29.25.11.19.33.21.51.03.24-.04.56.09.7.29.3.21.63.25.96.01.12-.02.31.05.35.39.25.22.64.28.97.02.12,0,.3.07.34.26.16.21.41.23.64.02.2-.05.48.06.58.34.33.23.74.28,1.12.01.09,0,.23.06.26.28.17.22.44.25.68.03.25-.02.56.11.74.25.34.2.69.23,1.05.01.13,0,.34.07.38.29.17.2.44.24.67.03.2-.01.48.1.57.24.2.19.44.22.68.03.21.07.42.12.62.05.18.16.35.18.53.04.3.02.61.04.92,0,.15-.01.34.07.42.26.27.2.59.22.9.02.43.02.86.04,1.28,0,.16.05.31.09.47.05.2.16.4.16.6.03.85.03,1.71.06,2.57,0,.22.07.45.12.66.04.17.14.34.15.51.03.87.03,1.74.06,2.61,0,.25.07.5.12.75.04.18.13.34.14.52.03.73.04,1.47.06,2.21,0,.15-.01.33.07.43.23.27.19.57.19.87,0,.68,0,1.36,0,2.05Z"/><path class="cls-4" d="m40.7,82.69c0-.68,0-1.36,0-2.05,0-.3.04-.61-.19-.87-.08-.1-.07-.28-.07-.43-.02-.74-.03-1.47-.06-2.21,0-.17-.11-.34-.14-.52-.05-.25-.11-.5-.12-.75-.03-.87-.03-1.74-.06-2.61,0-.17-.11-.34-.15-.51-.05-.22-.11-.44-.12-.66-.03-.86-.03-1.71-.06-2.57,0-.2-.11-.4-.16-.6-.04-.15-.08-.31-.09-.47-.02-.43-.02-.86-.04-1.28-.02-.31.04-.63-.22-.9-.08-.08-.06-.28-.07-.42-.02-.31,0-.62-.04-.92-.02-.18-.13-.35-.18-.53-.05-.2-.09-.41-.12-.62-.03-.24.02-.48-.22-.68-.11-.1-.07-.38-.1-.57-.04-.24.05-.5-.24-.67-.07-.04-.06-.25-.07-.38-.03-.36.02-.72-.23-1.05-.13-.18-.08-.49-.11-.74-.03-.24.03-.51-.25-.68-.05-.03-.04-.17-.06-.26-.05-.38.06-.78-.28-1.12-.11-.1-.04-.38-.06-.58-.02-.23.04-.48-.23-.64-.07-.04-.05-.22-.07-.34-.07-.33.11-.72-.28-.97-.06-.04-.03-.23-.05-.35-.04-.33.04-.67-.25-.96-.13-.13-.06-.46-.09-.7-.02-.19.04-.4-.21-.51-.06-.02-.07-.19-.08-.29-.05-.38.05-.78-.27-1.12-.11-.12-.06-.38-.08-.58-.03-.21.03-.44-.22-.6-.08-.05-.06-.27-.09-.41-.06-.31.07-.64-.26-.91-.11-.09-.05-.4-.07-.62-.02-.23,0-.45-.2-.66-.13-.14-.09-.43-.12-.65-.03-.21.04-.44-.23-.59-.08-.05-.05-.29-.08-.45-.04-.19.07-.44-.23-.53-.06-.02-.08-.19-.09-.29-.02-.14,0-.3-.21-.32-.03,0-.08-.06-.08-.08.07-.36-.28-.5-.41-.75-.09-.18-.32-.27-.48-.42-.16-.15-.31-.33-.46-.49-.12-.13-.23-.28-.38-.39-.22-.16-.47-.29-.7-.44-.14-.09-.27-.2-.39-.32-.16-.15-.28-.36-.47-.48-.23-.14-.33-.41-.63-.49-.22-.06-.41-.26-.6-.41-.2-.16-.38-.34-.56-.52-.1-.1-.2-.2-.3-.31-.32-.37-.88-.42-1.12-.91-.09-.18-.36-.26-.53-.4-.15-.12-.28-.27-.4-.41-.14-.16-.25-.35-.4-.5-.27-.26-.65-.45-.84-.75-.24-.38-.71-.58-.76-1.1-.01-.14-.18-.35-.31-.38-.28-.07-.23-.27-.28-.45-.03-.09-.1-.15-.16-.23-.04-.05-.11-.09-.12-.14-.03-.21-.14-.36-.26-.54-.2-.28-.3-.66-.38-1.01-.08-.32.05-.7-.28-.96-.05-.04-.03-.18-.03-.27,0-.79-.01-1.58,0-2.37,0-.18.14-.35.19-.53.04-.15.06-.31.09-.46.06-.3-.11-.67.26-.9.07-.04.05-.25.07-.38.03-.19-.06-.45.25-.52.03,0,.04-.12.05-.18.04-.18-.03-.42.25-.48.02,0,.05-.07.05-.1-.06-.4.38-.58.41-.96.02-.17.27-.32.42-.47.16-.17.34-.32.51-.48.05-.05.1-.1.16-.14.15-.09.3-.19.45-.27.07-.04.14-.05.22-.07.09-.02.24,0,.27-.06.2-.35.55-.23.84-.29.07-.01.17,0,.19-.05.19-.33.51-.24.78-.24,1.22,0,2.43,0,3.65,0,.2,0,.4-.02.53.2.04.06.19.07.29.08.27.02.53.02.8.04.12,0,.29,0,.34.08.17.26.43.22.67.23.19.01.38-.02.5.22.04.09.29.07.45.1.17.03.39-.04.45.22,0,.03.06.07.09.07.32-.03.56.13.81.31.14.1.39.03.47.28.01.04.14.05.22.07.14.03.34-.03.35.22,0,.03.06.08.08.07.37-.11.55.24.76.4.2.15.36.26.61.32.15.04.18.28.4.35.19.06.33.31.49.47.03.03.07.05.1.06.35.09.53.37.77.61.31.3.72.5,1.08.74.15.11.31.22.44.36.14.15.24.35.39.5.16.15.36.26.54.4.13.1.26.22.38.33.22.2.44.41.67.6.29.24.6.45.87.7.16.15.27.36.42.52.14.15.33.25.47.39.31.3.71.46,1.03.72.17.14.31.33.46.5,0,0,.02.03.03.03.5-.02.99-.03,1.49-.07.16-.01.3-.15.46-.16.41-.03.83-.03,1.24-.04.23,0,.49.05.63-.23.03-.05.17-.05.26-.06.31-.02.62,0,.92-.04.13-.01.24-.12.36-.17.09-.04.18-.1.28-.1.25-.02.51-.02.76-.03.23-.01.49.06.63-.23.03-.05.17-.06.26-.06.29-.02.59,0,.88-.04.15-.02.29-.13.44-.18.12-.04.25-.09.37-.1.67-.03,1.34-.03,2-.06.16,0,.32-.1.47-.15.11-.04.22-.09.34-.1,1.04,0,2.08,0,3.13,0,.07,0,.16-.01.2.02.45.42,1.01.2,1.52.28.23.03.47-.04.67.22.1.13.45.07.69.1.2.02.43-.05.54.23.02.06.19.07.29.07.92,0,1.85,0,2.77-.01.14,0,.27-.13.41-.18.16-.05.32-.08.48-.11.19-.04.42.05.54-.23.03-.07.26-.07.4-.09.2-.03.44.04.54-.24.01-.04.14-.05.21-.07.18-.04.41.04.48-.24.01-.04.14-.06.21-.07.18-.03.39.01.46-.23,0-.02.04-.05.06-.05.36-.03.7-.13.99-.37.13-.11.3-.18.45-.26.07-.03.14-.05.22-.07.17-.03.36-.01.42-.24.01-.04.08-.08.12-.08.41-.03.67-.31.96-.54.07-.05.17-.09.25-.1.16-.01.31-.02.39-.21.02-.05.13-.08.2-.1.15-.04.36.02.39-.24,0-.03.13-.06.2-.08.16-.05.4.03.43-.25,0-.03.11-.05.17-.07.18-.05.42.02.47-.27,0-.03.14-.04.22-.06.14-.04.34,0,.37-.23,0-.03.05-.08.08-.08.47-.01.74-.39,1.11-.6.3-.17.76-.18.95-.42.23-.3.7-.13.82-.52,0-.02.04-.05.06-.05.32.01.54-.18.8-.32.39-.21.82-.33,1.19-.6.09-.06.23-.04.34-.09.15-.06.29-.15.43-.22.08-.04.16-.07.24-.09.17-.04.38.01.44-.25,0-.04.16-.05.25-.07.17-.03.37.02.45-.23.02-.06.24-.07.36-.09.2-.03.44.02.54-.25.01-.04.11-.06.17-.06.22-.02.45.02.57-.25.02-.05.14-.05.22-.07.27-.04.58.06.76-.28.03-.06.23-.04.34-.05.23-.02.45,0,.64-.22.1-.11.37-.09.57-.1.26-.03.53.05.72-.23.04-.06.2-.07.3-.07.32-.02.64-.02.96-.04.2,0,.4.02.53-.2.04-.06.19-.08.29-.08,1.14,0,2.27-.01,3.41,0,.14,0,.28.11.42.17.09.04.19.09.28.1.23.02.45.02.68.04.09,0,.24,0,.26.06.12.3.38.22.61.25.18.02.42-.04.47.25,0,.03.14.04.22.06.17.04.39-.03.43.25,0,.03.14.05.21.07.16.04.4-.04.41.26,0,.02.06.06.09.06.42.01.66.28.87.59.02.03.07.05.1.05.41,0,.58.34.82.59.15.16.36.27.53.41.14.12.28.25.41.4.14.17.26.36.39.54.08.1.17.25.28.28.41.09.21.66.61.73,0,.42.4.67.37,1.14-.06,1.08-.03,2.16-.04,3.25,0,.17.03.36-.19.44-.03.01-.06.06-.06.1,0,.46-.18.86-.35,1.27-.09.21,0,.48-.27.64-.07.04-.03.26-.08.38-.06.15-.14.29-.22.43-.02.03-.07.06-.07.08.03.47-.42.7-.54,1.07-.11.35-.47.55-.49.96,0,.16-.21.37-.38.45-.18.08-.16.2-.23.32-.13.23-.31.44-.48.65-.15.19-.33.36-.48.56-.1.14-.25.19-.36.35-.2.3-.56.49-.84.75-.17.16-.28.38-.45.54-.16.15-.41.23-.54.4-.3.39-.88.4-1.09.89-.02.05-.17.05-.26.07-.14.03-.31-.01-.32.21,0,.03-.04.07-.07.09-.26.12-.67.17-.77.37-.19.37-.73.14-.83.57,0,.03-.16,0-.22.05-.32.2-.66.34-.99.53-.26.15-.45.46-.82.44-.12,0-.26.11-.38.17-.3.15-.6.31-.89.46-.06.03-.13.07-.18.12-.05.04-.08.14-.12.14-.3,0-.51.19-.75.33-.16.1-.42.02-.51.29-.01.04-.14.06-.22.06-.23.02-.45.03-.59.26-.03.04-.11.06-.17.07-.23.05-.67.33-.87.54-.03.03-.06.07-.09.06-.55-.06-.68.55-1.1.7,0,.31-.4.41-.39.75,0,.15-.21.3-.26.46-.06.19.02.5-.08.58-.34.25-.23.59-.28.89,0,.04,0,.1-.01.12-.36.32-.27.75-.31,1.15,0,.05,0,.13-.02.15-.32.24-.25.59-.28.92-.03.3.06.62-.24.87-.11.1-.06.38-.08.58-.03.37.04.75-.23,1.09-.11.14-.06.41-.09.62-.06.4.1.85-.26,1.21-.09.09-.04.33-.05.51-.01.28-.02.56-.03.84,0,.09.02.23-.03.27-.41.39-.22.9-.28,1.35-.03.19,0,.38-.18.54-.09.08-.1.27-.11.41-.02.31-.02.61-.03.92-.01.2.04.43-.21.56-.06.03-.07.19-.08.3-.02.27-.02.53-.03.8,0,.19.01.38-.17.55-.09.08-.1.27-.12.41-.03.28-.02.56-.04.84-.01.22.03.45-.21.61-.06.04-.07.19-.08.3-.02.25-.02.51-.03.76,0,.22,0,.43-.18.62-.1.1-.09.32-.11.49-.05.41,0,.82-.24,1.22-.14.22-.07.57-.1.86-.02.21.06.45-.22.59-.06.03-.07.19-.08.3-.02.27-.02.53-.03.8,0,.11,0,.26-.06.3-.31.2-.22.51-.25.79-.03.25.03.5-.22.72-.13.11-.08.43-.1.65-.02.25.02.5-.2.7-.07.07-.09.22-.1.34-.03.35,0,.7-.25,1.01-.09.12-.07.33-.09.5-.03.24.03.47-.22.67-.12.1-.08.4-.11.61-.03.22.07.47-.23.62-.08.04-.06.3-.08.45-.02.21-.04.39-.18.58-.13.17-.1.45-.15.69-.03.18.05.42-.22.49-.02,0-.05.04-.05.06.02.45-.19.84-.35,1.24-.09.24.04.55-.27.72-.06.03-.05.2-.07.3-.03.22.05.48-.24.61-.07.03-.06.25-.08.38-.03.21.06.45-.25.57-.06.02-.05.24-.08.37-.04.21.06.47-.25.55,0,0-.02.02-.02.03-.12.4-.25.81-.37,1.21-.04.14.03.34-.21.37-.04,0-.08.1-.08.16-.02.24-.2.45-.23.63-.06.45-.42.76-.46,1.2,0,.07-.04.2-.08.2-.24.03-.2.22-.22.37-.02.14.01.3-.2.33-.03,0-.08.05-.08.08-.02.29-.14.51-.31.76-.2.28-.18.77-.42.94-.32.23-.13.71-.53.83-.04.01-.05.17-.07.26-.03.13.02.31-.21.32-.03,0-.08.05-.08.07.05.61-.68.85-.69,1.43-.43.26-.35.92-.86,1.11-.03.01-.05.09-.06.14-.02.38-.32.57-.57.8-.02.02-.05.03-.05.05-.11.58-.55.89-.95,1.25-.03.02-.04.07-.04.11-.03.39-.34.56-.58.8-.16.16-.3.34-.41.53-.09.16-.27.19-.38.37-.18.3-.56.49-.83.75-.16.15-.25.38-.41.54-.16.16-.37.25-.54.4-.16.15-.29.33-.45.5-.05.05-.12.09-.19.11-.31.1-.48.41-.74.55-.24.13-.35.42-.67.48-.22.04-.41.28-.61.43-.07.06-.15.15-.23.15-.35.02-.49.35-.76.48-.09.04-.16.13-.25.16-.17.05-.38,0-.44.25,0,.04-.11.06-.17.07-.19.03-.38.02-.48.26-.03.07-.27.06-.41.09-.17.03-.39-.02-.45.23,0,.02-.04.06-.05.05-.47-.1-.74.46-1.22.37-.14-.03-.32-.03-.39.19-.02.06-.2.09-.31.11-.36.07-.78-.11-1.05.29-.03.05-.18.03-.27.03-.28.01-.56,0-.84.04-.14.02-.27.12-.41.17-.12.04-.25.11-.37.11-.94.01-1.87.02-2.81,0-.12,0-.24-.11-.36-.16-.13-.05-.27-.1-.4-.13-.2-.05-.47.07-.56-.25-.01-.04-.17-.05-.26-.07-.16-.03-.36.02-.4-.23,0-.04-.11-.06-.17-.08-.18-.04-.41,0-.46-.27,0-.03-.14-.04-.22-.06-.15-.04-.37.02-.38-.25,0-.03-.08-.06-.13-.07-.37-.07-.6-.31-.84-.58-.12-.15-.3-.3-.48-.33-.47-.1-.76-.49-1.04-.77-.47-.48-1-.85-1.5-1.27-.06-.05-.08-.13-.13-.19-.19-.23-.39-.46-.58-.7-.15-.18-.29-.36-.44-.55-.11-.14-.26-.25-.37-.39-.23-.28-.49-.52-.61-.88-.03-.09-.21-.12-.25-.21-.21-.54-.64-.97-.71-1.56-.35-.22-.17-.74-.53-.97-.06-.03-.05-.17-.08-.25-.05-.14.01-.33-.22-.38-.04,0-.07-.13-.09-.2-.05-.17.04-.42-.25-.47-.03,0-.05-.11-.06-.18-.03-.2-.12-.36-.23-.54-.22-.36-.3-.8-.45-1.2-.04-.11-.12-.2-.17-.31-.04-.08-.09-.16-.11-.24-.06-.27.03-.59-.3-.76-.05-.02-.03-.18-.04-.27-.03-.23,0-.47-.24-.64-.08-.06-.07-.27-.09-.41-.03-.21.01-.44-.23-.56-.03-.01-.06-.07-.05-.1.07-.67-.49-1.21-.39-1.9.03-.18-.13-.38-.2-.57-.03-.1-.06-.2-.07-.3-.02-.25-.03-.51-.04-.76,0-.22,0-.43-.18-.63-.1-.11-.1-.33-.1-.5,0-.79,0-1.58,0-2.37-.02,0-.04,0-.06,0Zm15.16,20.63h0c.33,0,.67.03,1,0,.45-.05.96.17,1.34-.27.04-.04.15-.02.23-.03.2-.01.4-.01.6-.03.09,0,.25-.01.26-.06.12-.32.39-.21.61-.25.13-.02.34-.03.36-.09.08-.26.29-.18.45-.24.37-.12.73-.27,1.1-.41.03-.01.04-.07.07-.09.23-.15.45-.3.68-.44.29-.16.58-.3.87-.46.14-.08.28-.16.39-.27.16-.16.25-.39.43-.52.36-.26.69-.53.93-.91.1-.16.26-.28.4-.41.16-.14.36-.26.47-.43.16-.24.25-.52.37-.77.02-.03.05-.08.07-.08.24-.01.2-.21.23-.35.02-.08,0-.21.05-.23.33-.13.19-.45.3-.66.2-.39.35-.78.34-1.22,0-.03.04-.07.06-.1.07-.16.18-.32.19-.49.02-.68.01-1.36,0-2.05,0-.11.01-.26-.05-.31-.28-.24-.21-.56-.25-.85-.02-.16,0-.42-.08-.45-.28-.12-.19-.35-.25-.53-.05-.16-.14-.32-.23-.47-.11-.19-.33-.37-.34-.56-.03-.35-.34-.47-.46-.74-.14-.3-.39-.54-.6-.8-.08-.1-.21-.17-.3-.26-.22-.22-.39-.49-.72-.56-.06-.01-.14-.04-.17-.08-.22-.28-.43-.57-.84-.57-.03,0-.08-.02-.1-.05-.25-.3-.52-.57-.96-.57-.03,0-.08-.03-.09-.06-.1-.29-.36-.22-.57-.25-.12-.02-.33-.03-.35-.1-.08-.23-.27-.18-.43-.21-.33-.06-.73.11-.98-.28-.02-.04-.13-.03-.19-.03-.98,0-1.95,0-2.93,0-.1,0-.2.05-.29.09-.13.06-.28.2-.39.18-.56-.12-.95.4-1.48.38-.03,0-.08.05-.08.08-.03.2-.19.19-.33.21-.15.02-.34-.02-.36.22,0,.03-.11.09-.16.08-.36-.05-.52.28-.75.44-.28.18-.44.53-.83.59-.05,0-.08.09-.12.13-.17.17-.34.32-.51.49-.16.17-.33.34-.46.53-.16.22-.26.49-.44.69-.23.26-.53.46-.56.85,0,.06-.05.11-.07.17-.08.19-.16.37-.24.56-.05.12-.08.24-.13.36-.05.12-.15.23-.18.35-.05.29.02.6-.25.84-.07.06-.07.22-.07.34-.02.32-.02.64-.05.96-.01.13-.07.25-.11.37-.05.13-.15.25-.15.38-.01,1.26-.01,2.51-.01,3.77,0,.1,0,.27.05.31.32.22.2.55.25.83.03.16.02.4.11.44.24.12.16.33.23.5.07.17.26.32.28.48.03.33.32.45.46.69.1.18.35.28.5.44.16.16.25.43.43.5.27.11.41.5.79.38.02,0,.08.04.09.06.02.26.23.21.39.24.08.01.21,0,.23.04.13.38.46.23.71.28.1.02.26,0,.3.06.2.29.49.24.76.24.51.01,1.02,0,1.52,0Zm8.96-42.94c.11.45-.21,1.13.24,1.77.18.26.18.68.33,1.03.17.38.29.74.62,1.04.12.11.25.24.38.37.15.16.26.42.44.5.27.12.41.49.79.38.02,0,.08.04.08.07.04.28.27.19.44.24.15.04.39.03.44.12.12.22.31.17.48.19.18.02.47-.03.53.07.19.28.44.2.68.24.37.07.81-.16,1.09.28.02.03.13.02.19.02.94,0,1.87.01,2.81,0,.11,0,.29-.03.32-.11.1-.21.28-.18.44-.2.15-.02.29,0,.33-.21,0-.04.12-.07.19-.1.1-.03.26-.02.3-.09.21-.4.79-.52.8-1.06,0-.03.03-.08.06-.1.28-.23.53-.48.55-.88,0-.04.01-.1.03-.11.33-.11.25-.4.29-.63.02-.1.03-.27.09-.29.27-.09.2-.31.23-.49.02-.12,0-.27.08-.34.3-.3.21-.68.25-1.04.01-.14,0-.32.08-.42.38-.48.15-1.02.18-1.54-.33-.27-.24-.65-.28-1-.03-.27.04-.56-.25-.76-.06-.04-.05-.2-.06-.3-.02-.31-.02-.61-.04-.92,0-.09,0-.23-.05-.27-.25-.2-.23-.47-.24-.73-.02-.27.02-.55-.23-.76-.08-.07-.07-.25-.1-.38-.02-.1-.02-.23-.08-.31-.26-.3-.54-.57-.58-.99,0-.04-.07-.06-.11-.1-.06-.07-.13-.13-.18-.21-.14-.24-.22-.57-.43-.69-.34-.2-.5-.56-.83-.77-.29-.19-.47-.56-.89-.58-.03,0-.09-.03-.1-.05-.05-.32-.31-.22-.51-.25-.13-.02-.32.02-.39-.05-.39-.45-.9-.18-1.35-.23-.07,0-.18.03-.21.09-.14.22-.37.21-.57.19-.45-.05-.69.43-1.12.41-.01,0-.02.09-.05.1-.27.12-.39.41-.71.49-.21.05-.4.26-.57.42-.16.15-.29.34-.44.51-.17.19-.37.36-.53.56-.15.2-.22.48-.4.64-.31.27-.58.53-.62.96,0,.03-.06.06-.09.07-.19.01-.18.15-.2.29-.05.35-.44.56-.39.96,0,0-.02.02-.03.02-.26.02-.19.24-.24.4-.02.09-.02.23-.07.25-.27.11-.21.34-.24.54-.02.13.02.34-.05.39-.39.25-.24.64-.29.97-.02.12,0,.29-.07.33-.25.15-.21.39-.22.6,0,.41,0,.83,0,1.43Zm-12.22-2.21s0,0,.01,0c0-.29,0-.59,0-.88,0-.25.08-.61-.05-.74-.37-.36-.2-.88-.51-1.27-.26-.33-.34-.82-.69-1.14-.26-.24-.45-.56-.7-.83-.13-.14-.29-.32-.45-.34-.37-.05-.57-.49-.99-.39-.02,0-.06-.02-.06-.04-.09-.3-.35-.22-.56-.25-.4-.05-.84.1-1.18-.24-.03-.03-.13-.02-.15,0-.27.32-.64.24-.97.22-.49-.04-.79.4-1.24.43-.02,0-.05.03-.06.05-.09.23-.48.17-.48.48-.29-.08-.23.26-.4.35-.18.09-.39.25-.46.42-.09.21-.16.4-.33.59-.36.41-.28,1.04-.64,1.47-.04.05-.03.16-.03.24-.01.24,0,.48-.03.72-.04.28-.14.56-.17.84-.03.25-.01.5.02.75.03.22.12.42.15.64.03.26.02.53.04.8,0,.08,0,.21.04.23.33.14.22.45.27.69.02.11.07.21.12.31.05.09.13.17.17.26.04.1.02.24.08.3.26.27.56.51.8.79.11.12.25.21.33.31.26.32.51.6.95.61.02,0,.06.03.06.04.05.32.31.21.5.25.26.05.53.05.76.15.21.09,1.12.26,1.25.09.25-.32.58-.25.88-.24.43.01.65-.45,1.08-.4,0,0,.01-.02.02-.03.15-.17.27-.44.45-.49.43-.11.49-.6.87-.75.14-.05.24-.24.32-.38.17-.3.33-.58.42-.93.06-.26.3-.5.28-.81,0-.02.02-.05.05-.06.26-.11.21-.35.22-.55,0-.43,0-.86,0-1.28Zm25.76-25.48h0c-.36.01-.72.03-1.08,0-.33-.02-.54.1-.63.42-.02.07-.09.12-.13.18-.06.09-.14.17-.16.27-.03.19.3.72.48.7.36-.05.47.29.73.39.16.07.34.28.37.46.06.35.04.72.03,1.08,0,.22-.12.34-.34.36-.11,0-.21.07-.31.12-.12.06-.23.17-.35.18-.41.03-.83.02-1.24.05-.1,0-.27.09-.28.14-.03.33-.11.7.02.98.09.19.28.51.63.5.06,0,.16.03.17.08.12.29.37.2.58.21.5.02.72.22.81.71.02.09.11.17.18.25.15.16.32.31.47.48.14.17.45.19.61.04.08-.08.2-.14.31-.18.1-.04.29-.02.3-.06.07-.28.52-.33.41-.71-.01-.05.03-.16.07-.17.26-.1.2-.32.21-.51.02-.73-.02-1.47.05-2.2.03-.38.23-.75.35-1.12,0-.01.02-.02.03-.02.26-.08.35-.49.72-.39.03,0,.08-.06.12-.09.12-.06.23-.14.35-.17.15-.03.32-.01.48-.03.06,0,.14-.07.17-.12.12-.29,0-.62-.24-.82-.14-.12-.26-.25-.36-.4-.02-.04.05-.17.11-.23.15-.14.33-.26.49-.4.09-.08.17-.17.23-.27.04-.08.03-.26.02-.26-.27-.05-.32-.46-.65-.4-.05,0-.11-.06-.16-.11-.17-.17-.82-.28-.99-.14-.24.21-.51.41-.67.68-.25.41-.57.59-1.04.56-.28-.02-.56,0-.84,0Z"/><path class="cls-3" d="m55.85,103.32c-.51,0-1.02,0-1.52,0-.27,0-.57.05-.76-.24-.04-.06-.2-.04-.3-.06-.25-.05-.58.1-.71-.28-.01-.04-.15-.03-.23-.04-.16-.03-.37.02-.39-.24,0-.02-.06-.07-.09-.06-.37.11-.52-.27-.79-.38-.18-.07-.27-.34-.43-.5-.16-.16-.4-.25-.5-.44-.14-.24-.43-.36-.46-.69-.01-.17-.21-.31-.28-.48-.07-.17.01-.38-.23-.5-.09-.04-.08-.29-.11-.44-.05-.29.07-.62-.25-.83-.06-.04-.05-.2-.05-.31,0-1.26,0-2.51.01-3.77,0-.13.1-.25.15-.38.04-.12.1-.24.11-.37.03-.32.02-.64.05-.96,0-.12,0-.28.07-.34.27-.24.2-.55.25-.84.02-.12.12-.23.18-.35.05-.12.08-.24.13-.36.08-.19.16-.37.24-.56.02-.06.07-.11.07-.17.03-.39.33-.59.56-.85.18-.2.28-.47.44-.69.14-.19.3-.36.46-.53.16-.17.34-.33.51-.49.04-.04.08-.13.12-.13.39-.06.55-.41.83-.59.23-.15.39-.49.75-.44.05,0,.16-.05.16-.08.02-.24.21-.2.36-.22.14-.02.3,0,.33-.21,0-.03.05-.08.08-.08.53.02.91-.5,1.48-.38.11.02.26-.12.39-.18.09-.04.19-.09.29-.09.98,0,1.95,0,2.93,0,.07,0,.17,0,.19.03.25.38.65.21.98.28.16.03.34-.02.43.21.02.07.23.08.35.1.21.03.47-.04.57.25,0,.03.06.06.09.06.43,0,.7.27.96.57.02.03.07.05.1.05.41,0,.62.29.84.57.04.04.11.07.17.08.34.07.51.34.72.56.09.1.22.16.3.26.21.26.46.5.6.8.12.27.43.39.46.74.02.19.23.37.34.56.09.15.18.31.23.47.06.19-.03.42.25.53.08.03.06.29.08.45.04.3-.04.62.25.85.06.05.05.2.05.31,0,.68.01,1.36,0,2.05,0,.16-.12.33-.19.49-.01.04-.06.07-.06.1.02.44-.14.83-.34,1.22-.11.21.03.53-.3.66-.04.02-.03.15-.05.23-.03.14,0,.34-.23.35-.03,0-.06.05-.07.08-.12.26-.22.54-.37.77-.11.17-.32.28-.47.43-.14.13-.3.25-.4.41-.24.38-.57.65-.93.91-.18.13-.27.36-.43.52-.11.11-.25.19-.39.27-.29.16-.59.3-.87.46-.23.13-.46.29-.68.44-.03.02-.04.08-.07.09-.36.14-.73.29-1.1.41-.16.06-.37-.02-.45.24-.02.06-.24.07-.36.09-.22.04-.49-.08-.61.25-.02.05-.17.05-.26.06-.2.01-.4.02-.6.03-.08,0-.2-.02-.23.03-.38.44-.89.23-1.34.27-.33.03-.67,0-1,0h0Z"/><path class="cls-3" d="m64.81,60.37c0-.6,0-1.02,0-1.43,0-.22-.03-.45.22-.6.07-.04.05-.22.07-.33.06-.33-.1-.72.29-.97.07-.04.03-.25.05-.39.03-.2-.04-.44.24-.54.05-.02.05-.17.07-.25.04-.15-.03-.37.24-.4.01,0,.03-.02.03-.02-.05-.39.34-.61.39-.96.02-.13,0-.27.2-.29.03,0,.09-.04.09-.07.04-.43.32-.69.62-.96.18-.16.25-.44.4-.64.15-.2.35-.37.53-.56.15-.17.28-.36.44-.51.17-.16.36-.37.57-.42.32-.08.44-.38.71-.49.03-.01.03-.1.05-.1.43.02.67-.46,1.12-.41.2.02.43.03.57-.19.03-.05.15-.09.21-.09.45.06.95-.21,1.35.23.06.07.26.03.39.05.19.03.45-.07.51.25,0,.02.06.05.1.05.42.02.6.39.89.58.33.22.49.57.83.77.21.12.28.46.43.69.05.08.12.14.18.21.03.04.1.06.11.1.04.42.33.69.58.99.06.07.05.2.08.31.03.13.02.3.1.38.25.22.21.49.23.76.02.26,0,.54.24.73.05.04.04.18.05.27.02.31.02.61.04.92,0,.11,0,.26.06.3.29.2.22.49.25.76.04.35-.05.73.28,1-.04.51.2,1.05-.18,1.54-.08.1-.07.28-.08.42-.04.36.06.74-.25,1.04-.07.07-.05.23-.08.34-.04.18.04.41-.23.49-.05.02-.07.19-.09.29-.04.24.04.53-.29.63-.02,0-.03.07-.03.11-.02.4-.27.65-.55.88-.03.02-.06.07-.06.1-.01.54-.59.67-.8,1.06-.03.06-.2.05-.3.09-.07.02-.18.05-.19.1-.04.21-.19.19-.33.21-.16.02-.34-.01-.44.2-.03.07-.21.11-.32.11-.94,0-1.87,0-2.81,0-.07,0-.17.01-.19-.02-.28-.44-.72-.21-1.09-.28-.24-.04-.49.03-.68-.24-.07-.1-.35-.05-.53-.07-.17-.02-.35.03-.48-.19-.05-.09-.29-.08-.44-.12-.16-.04-.4.04-.44-.24,0-.03-.06-.08-.08-.07-.37.11-.52-.26-.79-.38-.18-.08-.29-.33-.44-.5-.12-.13-.26-.26-.38-.37-.33-.3-.45-.66-.62-1.04-.16-.35-.15-.76-.33-1.03-.44-.64-.12-1.32-.24-1.77Z"/><path class="cls-3" d="m52.6,58.17c0,.43,0,.86,0,1.28,0,.21.04.44-.22.55-.02,0-.05.04-.05.06.01.31-.22.55-.28.81-.08.35-.25.64-.42.93-.08.14-.18.32-.32.38-.38.15-.44.63-.87.75-.18.05-.3.32-.45.49,0,0-.02.03-.02.03-.42-.05-.65.41-1.08.4-.3,0-.63-.09-.88.24-.13.16-1.04,0-1.25-.09-.23-.1-.51-.1-.76-.15-.19-.04-.45.08-.5-.25,0-.02-.04-.04-.06-.04-.44-.02-.69-.29-.95-.61-.08-.1-.23-.19-.33-.31-.25-.28-.55-.52-.8-.79-.06-.07-.04-.21-.08-.3-.04-.09-.12-.17-.17-.26-.05-.1-.1-.2-.12-.31-.05-.25.06-.55-.27-.69-.04-.02-.04-.15-.04-.23-.01-.27,0-.54-.04-.8-.03-.22-.12-.42-.15-.64-.03-.25-.04-.5-.02-.75.03-.28.13-.56.17-.84.03-.24.02-.48.03-.72,0-.08-.01-.18.03-.24.36-.43.28-1.06.64-1.47.17-.19.24-.38.33-.59.08-.18.28-.33.46-.42.17-.09.11-.42.4-.35,0-.31.39-.25.48-.48,0-.02.04-.05.06-.05.45-.03.75-.47,1.24-.43.32.03.7.11.97-.22.02-.03.12-.03.15,0,.34.34.78.19,1.18.24.21.03.47-.05.56.25,0,.02.05.04.06.04.42-.1.62.34.99.39.16.02.32.2.45.34.24.27.43.59.7.83.36.33.43.81.69,1.14.31.4.14.92.51,1.27.13.13.05.49.05.74,0,.29,0,.59,0,.88,0,0,0,0-.01,0Z"/><path class="cls-3" d="m78.36,32.69c.28,0,.56-.01.84,0,.47.03.79-.15,1.04-.56.16-.27.43-.47.67-.68.16-.14.82-.02.99.14.04.05.11.11.16.11.33-.05.38.35.65.4.01,0,.02.19-.02.26-.05.1-.14.19-.23.27-.16.14-.34.26-.49.4-.06.06-.14.2-.11.23.1.15.23.28.36.4.24.21.36.54.24.82-.02.06-.11.11-.17.12-.16.02-.32,0-.48.03-.12.03-.24.11-.35.17-.04.02-.09.1-.12.09-.37-.09-.45.31-.72.39-.01,0-.03.01-.03.02-.12.37-.32.74-.35,1.12-.06.73-.03,1.47-.05,2.2,0,.19.06.41-.21.51-.04.01-.08.12-.07.17.11.38-.33.44-.41.71-.01.04-.2.03-.3.06-.11.04-.22.1-.31.18-.16.15-.47.13-.61-.04-.14-.17-.31-.32-.47-.48-.07-.08-.16-.16-.18-.25-.09-.49-.31-.68-.81-.71-.21-.01-.46.08-.58-.21-.02-.04-.12-.08-.17-.08-.36.02-.54-.31-.63-.5-.13-.27-.05-.65-.02-.98,0-.06.18-.14.28-.14.41-.03.83-.01,1.24-.05.12,0,.23-.12.35-.18.1-.05.2-.11.31-.12.23-.02.34-.14.34-.36,0-.36.03-.73-.03-1.08-.03-.17-.2-.39-.37-.46-.26-.11-.37-.44-.73-.39-.17.02-.51-.51-.48-.7.02-.1.1-.18.16-.27.04-.06.11-.12.13-.18.1-.32.31-.44.63-.42.36.02.72,0,1.08,0h0Z"/></g></g></g></svg>