<?xml version="1.0" encoding="UTF-8"?><svg id="Layer_1" xmlns="http://www.w3.org/2000/svg" viewBox="0 0 128 128"><defs><style>.cls-1{fill:#24201f;}.cls-1,.cls-2{stroke-width:0px;}.cls-2{fill:#fff;}</style></defs><circle class="cls-1" cx="64" cy="64" r="63.5"/><g id="DYM"><path class="cls-2" d="m58.73,75.79c-.63-.7-1.06-1.2-1.51-1.67-1.49-1.53-2.98-3.05-4.99-5.11-1.42,1.63-2.6,3.21-4,4.56-4.85,4.69-11.56,5.44-16.79,1.98-5.54-3.66-7.67-10.56-5.2-16.83,3.3-8.4,14.23-11.12,21.01-5.16,1.73,1.52,3.21,3.31,4.69,4.84,2.29-2.22,4.37-4.25,6.95-6.76-1.45-1.27-3.11-2.51-4.51-4-5.67-6.05-4.93-15.23,1.55-20.37,5.96-4.73,14.82-3.25,19.16,3.21,3.44,5.13,3.05,12.18-1.08,16.78-1.43,1.59-3.16,2.89-4.83,4.39,2.55,2.32,4.71,4.27,7.23,6.55.81-.9,2-2.37,3.33-3.7,5.52-5.5,13.73-5.56,19.06-.2,5.27,5.31,5.33,13.87.14,19.22-5.34,5.5-13.42,5.53-19.03.02-1.35-1.33-2.51-2.84-3.73-4.25-2.44,2.37-4.48,4.36-6.74,6.56,1.5,1.57,3.07,3.11,4.52,4.75,6.42,7.29,3.52,18.88-5.49,22.05-5.81,2.05-11.89.03-15.5-5.13-3.53-5.05-3.15-11.93,1.02-16.75,1.45-1.68,3.05-3.22,4.77-5.02Zm20.75-12.17c2.1,2.18,3.55,4.01,5.33,5.43,2.64,2.09,7.04,1.42,9.15-1.12,2.09-2.51,1.94-5.91-.37-8.27-2.26-2.31-6.75-2.52-9.27-.38-1.62,1.38-3.17,2.84-4.84,4.35Zm-31.77.58c-2.23-2.1-3.79-3.81-5.6-5.21-2.4-1.86-5.88-1.4-7.87.8-2.17,2.4-2.21,6.03-.1,8.36,2.14,2.36,5.54,2.77,8.06.82,1.81-1.4,3.47-3,5.51-4.77Zm16.38-17.2c1.89-2.08,3.68-3.7,5.02-5.64,1.77-2.55,1.01-6.09-1.37-8-2.44-1.96-5.86-1.75-8.07.49-2.15,2.18-2.43,5.72-.45,8.11,1.4,1.69,3.05,3.18,4.86,5.03Zm0,34.14c-1.77,1.77-3.29,3.16-4.65,4.69-2.15,2.42-2.01,6.03.2,8.3,2.17,2.23,5.72,2.47,8.07.56,2.52-2.06,3.18-5.86,1.21-8.43-1.38-1.8-3.11-3.32-4.83-5.12Zm-.59-11.49c2.28-1.94,4.45-3.8,6.42-5.48-2.1-2.15-4.07-4.19-5.56-5.72-2.14,1.89-4.28,3.77-6.37,5.61,2.05,2.08,4,4.06,5.51,5.59Z"/></g></svg>