<?xml version="1.0" encoding="utf-8"?>
<!-- Generator: Adobe Illustrator 27.4.0, SVG Export Plug-In . SVG Version: 6.00 Build 0)  -->
<svg version="1.1" id="Layer_1" xmlns="http://www.w3.org/2000/svg" xmlns:xlink="http://www.w3.org/1999/xlink" x="0px" y="0px"
	 viewBox="0 0 128 128" style="enable-background:new 0 0 128 128;" xml:space="preserve">
<style type="text/css">
	.st0{fill:#00EDBE;}
	.st1{fill:#141BEB;}
</style>
<g id="icon_logo" transform="translate(-347.682 -127.304)">
	<g id="Group_40313" transform="translate(347.682 127.304)">
		<g id="Group_40312" transform="translate(0)">
			<g id="Group_39074" transform="translate(0)">
				<path id="Path_32914" class="st0" d="M63.2,0.5C28.1,0.9,0.1,29.7,0.5,64.8s29.2,63.1,64.3,62.7c34.8-0.4,62.7-28.7,62.7-63.5
					C127.3,28.7,98.5,0.3,63.2,0.5z"/>
			</g>
		</g>
	</g>
	<g id="Group_45823" transform="translate(59.986)">
		<g id="Group_45822">
			<path id="Path_95273" class="st1" d="M376.3,167.8c-0.2-3.2,0.6-6.3,2.2-9.1h-51.8c-2,0-3.5,1.6-3.5,3.5c0,0,0,0,0,0v11.1
				c0,2,1.6,3.5,3.5,3.5h0h51.8C376.9,174.2,376.1,171,376.3,167.8"/>
			<path id="Path_95274" class="st1" d="M315.1,191.5c0.2,3.2-0.6,6.3-2.2,9.1h51.8c2,0,3.5-1.6,3.5-3.5v0v-11.1
				c0-2-1.6-3.5-3.5-3.5c0,0,0,0,0,0h-51.8C314.5,185.2,315.2,188.3,315.1,191.5"/>
			<path id="Path_95275" class="st1" d="M376.3,215.1c-0.2-3.2,0.6-6.3,2.2-9.1h-51.8c-2,0-3.5,1.6-3.5,3.5l0,0v11.1
				c0,2,1.6,3.5,3.5,3.5l0,0h51.8C376.9,221.5,376.1,218.3,376.3,215.1"/>
		</g>
	</g>
</g>
</svg>
