<?xml version="1.0" encoding="UTF-8"?>
<svg id="Layer_1" xmlns="http://www.w3.org/2000/svg" version="1.1" viewBox="0 0 500 500">
  <!-- Generator: Adobe Illustrator 29.0.1, SVG Export Plug-In . SVG Version: 2.1.0 Build 192)  -->
  <defs>
    <style>
      .st0 {
        fill: #fff;
      }

      .st1 {
        fill: #2b5eba;
      }
    </style>
  </defs>
  <circle id="bg" class="st0" cx="250" cy="250" r="248.5"/>
  <g id="Layer_x5F_1">
    <g id="_2431002523904">
      <ellipse class="st1" cx="355.7" cy="249.9" rx="76.3" ry="77.8"/>
      <ellipse class="st1" cx="259.3" cy="105.4" rx="36.8" ry="37.4"/>
      <ellipse class="st1" cx="259.3" cy="394.6" rx="36.8" ry="37.4"/>
      <path class="st1" d="M242.5,306.1c2.2.7,4.5,1.2,6.8,1.2,12.7,0,23-10.5,23-23.4s-10.3-23.4-23-23.4-15.3,4.2-19.4,10.8h0c-.7,1-1.3,2.2-1.6,3.3-25.3,45.6-76.3,15.1-76.3,15.1-8.3-5-17.9-8-28.4-8-30.6,0-55.5,25.3-55.5,56.5s24.8,56.5,55.5,56.5,40.1-12.4,49.1-30.4h0c1.6-3.3,2.9-6.6,3.9-10,26.5-61.9,65.8-47.9,65.8-47.9h0ZM229.4,223.1c1,2,2.5,4.1,4.2,5.7,9,9.2,23.6,9.2,32.5,0,9-9.2,9-24,0-33.1-5.8-6-13.8-8-21-6.3h-.1c-1,.1-2.3.6-3.5,1.2-49.7,14-64.5-44.3-64.5-44.3-2.3-9.6-7.3-18.6-14.6-26.1-21.7-22.1-56.7-22.1-78.2-.1-21.6,22-21.7,57.8,0,79.8,15.1,15.6,36.8,20.1,55.9,13.8h.1c3.2-1.2,6.6-2.6,9.8-4.2,61.5-24.8,79.4,13.7,79.4,13.7h0Z"/>
    </g>
  </g>
</svg>