<?xml version="1.0" encoding="UTF-8"?><svg id="CIRCLE_OUTLINE_BLACK" xmlns="http://www.w3.org/2000/svg" xmlns:xlink="http://www.w3.org/1999/xlink" viewBox="0 0 512 512"><defs><radialGradient id="Degradado_sin_nombre_18" cx="101.0557" cy="-353.66199" fx="101.0557" fy="-353.66199" r="284.31348" gradientTransform="translate(0 -271.41475) scale(1 -1)" gradientUnits="userSpaceOnUse"><stop offset="0" stop-color="#7ff"/><stop offset=".3939" stop-color="#87e4ff"/><stop offset=".8606" stop-color="#6273ff"/><stop offset="1" stop-color="#9468ff"/></radialGradient><clipPath id="clippath"><circle cx="256" cy="256" r="255.98837" fill="none"/></clipPath><radialGradient id="Degradado_sin_nombre_17" cx="214.21129" cy="-84.72936" fx="214.21129" fy="-84.72936" r="199.74194" gradientTransform="translate(51.30358 269.56566) rotate(-6.06179) scale(.99999 -1.15626)" gradientUnits="userSpaceOnUse"><stop offset=".497" stop-color="aqua"/><stop offset="1" stop-color="#00f4ff" stop-opacity="0"/></radialGradient><linearGradient id="Degradado_sin_nombre_16" x1="297.35575" y1="-534.92016" x2="436.18837" y2="-625.77377" gradientTransform="translate(0 -271.41475) scale(1 -1)" gradientUnits="userSpaceOnUse"><stop offset="0" stop-color="#5a27ed"/><stop offset="1" stop-color="#ab37f4"/></linearGradient><linearGradient id="Degradado_sin_nombre_15" x1="124.08972" y1="-633.62276" x2="370.73949" y2="-695.97283" gradientTransform="translate(0 -271.41475) scale(1 -1)" gradientUnits="userSpaceOnUse"><stop offset="0" stop-color="#7618f4"/><stop offset=".5036" stop-color="#575ff8"/><stop offset="1" stop-color="#09ffff"/></linearGradient><linearGradient id="Degradado_sin_nombre_6" x1="187.57804" y1="330.71027" x2="378.26991" y2="224.11831" gradientUnits="userSpaceOnUse"><stop offset="0" stop-color="#7f52ff"/><stop offset="1" stop-color="#3096ff"/></linearGradient><linearGradient id="Degradado_sin_nombre_5" x1="184.96257" y1="185.67828" x2="404.42074" y2="163.44239" gradientUnits="userSpaceOnUse"><stop offset="0" stop-color="#7f4cff"/><stop offset="1" stop-color="#3095ff"/></linearGradient><linearGradient id="Degradado_sin_nombre_14" x1="359.93309" y1="-598.60273" x2="271.86312" y2="-510.53263" gradientTransform="translate(0 -271.41475) scale(1 -1)" gradientUnits="userSpaceOnUse"><stop offset="0" stop-color="#fff"/><stop offset=".1573" stop-color="#fbffff"/><stop offset=".3191" stop-color="#efffff"/><stop offset=".4829" stop-color="#daffff"/><stop offset=".6481" stop-color="#bdfffe"/><stop offset=".8144" stop-color="#98fffe"/><stop offset=".9795" stop-color="#6bfffd"/><stop offset="1" stop-color="#65fffd"/></linearGradient><linearGradient id="Degradado_sin_nombre_8" x1="86.72343" y1="-616.32102" x2="279.701" y2="-282.07394" gradientTransform="translate(0 -271.41475) scale(1 -1)" gradientUnits="userSpaceOnUse"><stop offset="0" stop-color="#fff" stop-opacity="0"/><stop offset=".5154" stop-color="#e6ffff"/><stop offset="1" stop-color="#ceffff" stop-opacity=".5"/></linearGradient><linearGradient id="Degradado_sin_nombre_9" x1=".01104" y1="-435.03128" x2="398.87891" y2="-435.03128" gradientTransform="translate(0 -271.41475) scale(1 -1)" gradientUnits="userSpaceOnUse"><stop offset="0" stop-color="#fff"/><stop offset=".8672" stop-color="#fff" stop-opacity=".3062"/><stop offset="1" stop-color="#fff" stop-opacity=".2"/></linearGradient></defs><path d="m511.83905,255.99589c0,141.31928-114.52217,255.98249-255.98249,255.98249C114.67835,511.97839.01511,397.45617.01511,255.99589.01511,114.67664,114.67835.15444,255.99761.15444s255.84145,114.5222,255.84145,255.84146Z" fill="url(#Degradado_sin_nombre_18)"/><g clip-path="url(#clippath)"><path d="m423.83186,175.74573c35.2593,34.27203,62.05636,77.0063,67.5568,128.2028,11.98816,112.6887-75.73699,214.51757-195.90064,227.21092-120.16368,12.69335-227.21092-68.26199-239.19908-180.95071-11.98816-112.68872,55.99176-105.0727,176.15544-117.90707,65.58231-6.91084,170.09086-77.28839,191.38748-56.55593Z" fill="url(#Degradado_sin_nombre_17)"/></g><path d="m436.10211,197.74753l-.28209-3.24386h-41.88806l42.17011-36.10552-.14105-1.69244c-1.69246-41.60597-20.87349-68.54407-21.57867-69.67237l-.98728-1.97452h-226.22362c-21.43765,0-62.90258,6.62874-93.36661,40.75975-13.2575,14.8089-41.74701,59.51769-41.46493,109.58589.14104,28.20744,2.96178,50.0682,13.53957,74.60866,5.35941,12.41128,11.42401,23.83528,18.05276,33.84892,21.43765,38.50313,44.84982,65.3002,69.53133,79.68601,20.87351,12.12921,39.4904,13.82163,54.86347,13.82163h128.34384l.70519-.42309c.42312-.14105,42.45218-22.14286,80.25017-45.1319l1.12828-.70519.42309-1.12828c.14105-.42309.28209-.70519.42309-1.12828.28209-.70519.56414-1.41037.84623-2.2566,4.65421-13.39853,8.60328-42.17011,10.43674-57.96629.70519-5.78253,1.26933-9.59053,1.26933-9.59053l.42309-3.94905h-.14105l.28209-3.24386h-44.84981l47.95264-36.3876.14105-1.55142c3.10284-35.4003.14109-75.73694.14109-76.16006Z" fill="url(#Degradado_sin_nombre_16)"/><path d="m247.67642,355.14504s-42.02909,4.09007-166.00076-28.34848c50.63235,98.58501,97.87981,103.9444,133.13912,103.9444h120.30472s39.91353-21.71972,77.85252-44.70881l-165.2956-30.88711Z" fill="#fff"/><path d="m214.81475,427.35607c-15.23202,0-36.52863.14105-57.68421-13.68062-24.56172-15.99806-38.19867-29.83293-50.75485-48.97721,10.10025,8.26773,23.63298,23.20409,58.72969,21.61596,71.73853.0603,61.85258,0,77.22565,0h165.30961c-33.42583,20.0273-69.84144,38.64422-74.35462,41.04183h-118.47126v.00004Z" fill="url(#Degradado_sin_nombre_15)"/><path d="m168.13143,316.64188s-20.30936-23.55321-27.36122-41.46492l229.8906,41.46492,58.95353-44.56776c-.14105-36.66967-.28209-71.64689-.28209-71.64689H140.77023s10.15467-29.19469,28.63055-40.90078l210.56855,39.34937,49.64511-42.45219c-1.97451-39.91352-21.15558-64.31295-21.15558-64.31295h-222.27466c-19.46314,0-59.09458,4.23112-88.85343,37.65692-29.89988,33.42581-56.41487,107.75242-27.78433,177.14269,29.05366,70.37755,66.85162,79.40392,88.14825,79.40392h255.41837c.42309-.98728.84623-1.97451,1.12828-3.24384,6.20563-20.73248,11.42402-66.28748,11.42402-66.28748H168.13143v-.141Z" fill="#fff"/><path d="m140.91113,271.93307c7.05225,17.91174,27.36133,41.46497,27.36133,41.46497h202.0957l54.88623-41.46497H140.91113Z" fill="url(#Degradado_sin_nombre_6)"/><path d="m169.54199,156.28261c-18.33496,11.565-28.63086,40.90076-28.63086,40.90076h236.04395l48.28711-40.90076h-255.7002Z" fill="url(#Degradado_sin_nombre_5)"/><path d="m429.61439,271.9331H140.91126c7.05186,17.91172,27.36122,41.46492,27.36122,41.46492h257.53393s-5.07735,50.77341-11.70607,69.53134h-248.78959c-31.73337,0-65.86436-10.57779-95.62322-79.40394-29.89994-68.82615-1.97458-143.71688,27.78427-177.1427,29.89989-33.42582,69.53133-37.65693,88.85344-37.65693h222.13357s19.18107,26.51499,20.87349,67.55682H169.54181c-18.33483,11.56504-28.63055,40.90078-28.63055,40.90078h288.56209c.14105,0,2.96179,39.63144.14105,74.74971Z" fill="url(#Degradado_sin_nombre_14)"/><path d="m384.90558,72.0834s-100.41847-39.77249-190.96434,11.42401c-79.54498,44.84983-169.5267,116.63775-102.67508,264.02161-60.50496-86.17373-61.0691-156.26921-13.68061-229.74957C122.57643,48.38915,254.58723-14.79551,384.90558,72.0834Z" fill="url(#Degradado_sin_nombre_8)"/><path d="m255.71553.0134C117.78116.0134.7203,110.58656.01511,255.71382c-.14104,24.82255,3.38489,49.08095,9.73157,71.50585,0,0-.14104-2.53867-.28207-6.91081-.84622-26.79707,2.67971-125.24103,52.88895-116.63775,50.20924,8.60328,123.83065,23.41218,210.85059-.56414,87.01994-23.97632,156.41025-105.35477,111.70145-168.11632,0-.00003-52.32478-34.97725-129.19005-34.97725Z" fill="url(#Degradado_sin_nombre_9)" isolation="isolate" opacity=".4"/><path d="m213.96852,90.13616c6.20563,15.93721-15.09097,34.83619-41.74701,40.6187-26.65603,5.78252-53.59413-2.96178-58.24835-19.32209-7.47498-25.95084,18.47587-35.2593,45.1319-41.04182,26.65602-5.64149,42.31116-12.1292,54.86346,19.74521Z" fill="#fff"/></svg>