<?xml version="1.0" encoding="UTF-8"?>
<svg id="Layer_1" xmlns="http://www.w3.org/2000/svg" version="1.1" viewBox="0 0 500 500">
  <!-- Generator: Adobe Illustrator 29.0.1, SVG Export Plug-In . SVG Version: 2.1.0 Build 192)  -->
  <defs>
    <style>
      .st0 {
        fill: #f8691a;
      }

      .st1 {
        fill: #fff;
      }

      .st2 {
        fill: #323232;
      }

      .st3 {
        fill: #fba219;
      }
    </style>
  </defs>
  <circle class="st1" cx="250" cy="250" r="248.5"/>
  <g>
    <path class="st3" d="M158.9,232.5v69.9l-30.6,17.5v-104.9l30.6,17.5Z"/>
    <path class="st3" d="M401.5,162.6v174.8l-30.6,17.5v-139.9l-30.6,17.5v139.9l-90.3,52.5v-174.8l30.6-17.5v139.9l30.6-17.5v-139.9l90.3-52.5Z"/>
    <path class="st3" d="M189.5,145.1l-30.6,17.5,30.6,17.5v-35Z"/>
    <path class="st3" d="M250,110.1l-30.6,17.5,30.6,17.5v-35Z"/>
    <path class="st2" d="M401.5,162.6l-30.6,17.5-120.9-69.9-30.6,17.5h0l30.6,17.5,91.1,52.5-30.6,17.5h0l-120.9-69.9-30.6,17.5,120.9,69.9-29.9,17.5-151.5-87.4,151.5-87.4h0l151.5,87.4Z"/>
    <path class="st2" d="M219.4,337.4v35l-90.3-52.5,30.6-17.5,59.7,35Z"/>
    <path class="st2" d="M279.9,372.4l30.6-17.5-30.6-17.5v35Z"/>
    <path class="st0" d="M98.5,162.6v174.8l151.5,87.4v-174.8l-151.5-87.4ZM219.4,372.4l-90.3-52.5v-104.9l91.1,52.5v104.9h-.7Z"/>
    <path class="st0" d="M370.9,354.9l-29.9-17.5v-104.9l30.6-17.5-.7,139.9Z"/>
    <path class="st0" d="M370.9,180.1l-30.6,17.5-90.3-52.5v-35l120.9,69.9Z"/>
    <path class="st0" d="M189.5,145.1v35l91.1,52.5v104.9l30.6,17.5v-139.9l-121.7-69.9Z"/>
  </g>
</svg>