<?xml version="1.0" encoding="utf-8"?>
<!-- Generator: Adobe Illustrator 25.4.1, SVG Export Plug-In . SVG Version: 6.00 Build 0)  -->
<svg version="1.1" id="Layer_1" xmlns="http://www.w3.org/2000/svg" xmlns:xlink="http://www.w3.org/1999/xlink" x="0px" y="0px"
	 width="128px" height="128px" viewBox="0 0 128 128" style="enable-background:new 0 0 128 128;" xml:space="preserve">
<style type="text/css">
	.st0{fill:#FFFFFF;}
</style>
<g>
	<circle cx="64" cy="64" r="62.5"/>
	<g>
		<path class="st0" d="M66.7,57.4C61,63.3,55.8,69.3,50,74.6c-5.2,4.8-12.9,3.6-17.9-1.9c-4.5-5-4.3-12.6,0.4-17.6
			c5-5.2,12.5-5.6,18.1-1.1c0.9,0.7,1.7,1.6,2.8,2.5c-5.1,5.1-10.1,10-15.2,15c2.6,2.1,6.6,2,9.6-0.6c3.6-3.2,7-6.8,10.5-10.2
			c0.8-0.8,1.9-1.4,3.2-2.4c-3.8-3.4-6.7-6.7-10.2-9c-7.4-4.9-17.1-3-22.5,4c-5.5,7.1-4.9,17.3,1.6,23.4c6.3,6.1,16.7,6.7,23.2,0.9
			c5.6-5,10.7-10.5,16-15.8c2.5-2.5,4.9-5.2,7.6-7.6c5-4.5,12.2-4.5,17.1-0.2c5.2,4.5,6.3,11.6,2.7,17.1c-3.8,5.8-10.8,8-16.7,4.9
			c-2.6-1.4-4.7-3.6-7.3-5.7c1.4-1.2,2.3-2,3.4-3c1.3,1.1,2.5,2.4,3.9,3.5c3.8,3,9,2.6,12.2-0.8c3-3.3,3-8.7,0-12.1
			c-3.1-3.4-8.6-4-12.1-0.7c-5.3,4.9-10.3,10.1-15.5,15.1c-2.2,2.2-4.4,4.5-6.7,6.7c-6.5,6.2-14.2,8-22.7,5.1
			c-8.5-3-13.2-9.3-14.3-18.2c-1.1-9.1,3.7-17.6,11.9-21.7c8.1-4,18.1-2.5,24.7,3.8C60.7,51.3,63.8,54.5,66.7,57.4z M35,68.7
			c3.7-3.8,7.4-7.4,11-11.1c0.2-0.2,0.4-0.5,0.6-0.8c-2.5-2.5-7.9-1.7-10.5,0.9C33.1,60.6,32.5,65.5,35,68.7z"/>
		<path class="st0" d="M70.3,55.2c-1.4-1.3-2.3-2.1-3.3-3c7.8-10.8,22.9-12.8,32.6-4.6c9.5,8.1,10.2,22.7,1.7,31.6
			C93.5,87.3,78,89.6,67,76.3c0.9-0.9,1.8-1.9,3.1-3.3c1.3,1.4,2.4,2.9,3.7,4.1c5.3,4.7,11.3,5.7,17.9,3.4c6.1-2.2,9.8-6.8,11-13.1
			c1.5-7.5-2-14.5-8.7-18.5c-6.1-3.5-14.4-2.7-20,2.2C72.7,52.3,71.6,53.8,70.3,55.2z"/>
	</g>
</g>
</svg>
