<?xml version="1.0"?>
<svg width="1080" height="1080" xmlns="http://www.w3.org/2000/svg" xmlns:svg="http://www.w3.org/2000/svg">
 <defs>
  <style>.cls-1{fill:#3ab83a;}.cls-2{fill:#0b8311;}.cls-3{fill:#146714;}</style>
 </defs>
 <title>e</title>
 <g class="layer">
  <title>Layer 1</title>
  <ellipse cx="540" cy="540" fill="#ffffff" id="svg_1" rx="535" ry="535" stroke="#000000" stroke-opacity="0"/>
  <g data-name="Layer 2" id="Layer_2">
   <g id="svg8">
    <g id="layer5">
     <g id="g1627">
      <path class="cls-1" d="m297.77,574.99c85.36,45.33 174.43,92.78 243.23,129.5l241.24,-129.5c-87.35,129.76 -160.13,237.79 -241.24,357.35c-81.25,-119.29 -170.99,-250.93 -243.23,-357.35zm9.28,-35.79l234.21,-124.98l231.16,124.06l-231.03,125.12l-234.34,-124.2zm233.95,-165.02l-243.23,128.04l242.17,-354.57l242.3,355.36l-241.24,-128.84z" id="path1599"/>
      <path class="cls-2" d="m541,704.49l241.24,-129.5c-87.35,129.76 -241.24,357.35 -241.24,357.35l0,-227.85zm0.26,-290.27l231.16,124.06l-231.03,125.12l-0.13,-249.18zm-0.26,-40.03l-1.06,-226.53l242.3,355.36l-241.24,-128.83z" id="path1593"/>
      <path class="cls-2" d="m307.05,539.2l234.23,19.22l231.16,-20.02l-231.04,125.13l-234.34,-124.33z" id="path1603"/>
      <path class="cls-3" d="m541.26,558.42l231.16,-20.02l-231.03,125.13l-0.13,-105.11z" id="path1606"/>
     </g>
    </g>
   </g>
  </g>
 </g>
</svg>