<?xml version="1.0" encoding="UTF-8"?><svg id="Layer_1" xmlns="http://www.w3.org/2000/svg" viewBox="0 0 128 128"><defs><style>.cls-1{fill:#f2f5f1;}.cls-1,.cls-2,.cls-3,.cls-4,.cls-5,.cls-6,.cls-7,.cls-8,.cls-9,.cls-10,.cls-11,.cls-12,.cls-13,.cls-14,.cls-15,.cls-16,.cls-17,.cls-18,.cls-19,.cls-20,.cls-21,.cls-22,.cls-23,.cls-24,.cls-25,.cls-26,.cls-27,.cls-28,.cls-29,.cls-30,.cls-31,.cls-32,.cls-33,.cls-34,.cls-35,.cls-36,.cls-37,.cls-38,.cls-39,.cls-40,.cls-41,.cls-42,.cls-43,.cls-44,.cls-45,.cls-46,.cls-47,.cls-48,.cls-49,.cls-50,.cls-51,.cls-52,.cls-53,.cls-54,.cls-55,.cls-56,.cls-57,.cls-58,.cls-59,.cls-60,.cls-61,.cls-62,.cls-63,.cls-64,.cls-65,.cls-66,.cls-67,.cls-68,.cls-69,.cls-70,.cls-71,.cls-72,.cls-73,.cls-74,.cls-75,.cls-76,.cls-77,.cls-78,.cls-79,.cls-80,.cls-81,.cls-82,.cls-83,.cls-84,.cls-85,.cls-86,.cls-87,.cls-88,.cls-89,.cls-90,.cls-91,.cls-92,.cls-93,.cls-94,.cls-95,.cls-96,.cls-97,.cls-98,.cls-99,.cls-100,.cls-101,.cls-102,.cls-103,.cls-104,.cls-105,.cls-106,.cls-107,.cls-108,.cls-109,.cls-110,.cls-111,.cls-112,.cls-113,.cls-114,.cls-115,.cls-116,.cls-117,.cls-118,.cls-119,.cls-120,.cls-121,.cls-122,.cls-123,.cls-124,.cls-125,.cls-126,.cls-127,.cls-128,.cls-129{stroke-width:0px;}.cls-2{fill:#f9faf4;}.cls-3{fill:#7085d4;}.cls-4{fill:#798cd7;}.cls-5{fill:#546aea;}.cls-6{fill:#837bdf;}.cls-7{fill:#837be0;}.cls-8{fill:#788cd7;}.cls-9{fill:#788bd7;}.cls-10{fill:#778ad7;}.cls-11{fill:#8293dc;}.cls-12{fill:#778bd7;}.cls-13{fill:#5b75ca;}.cls-14{fill:#566de3;}.cls-15{fill:#5870d8;}.cls-16{fill:#647ccf;}.cls-17{fill:#556ce6;}.cls-18{fill:#6f85d4;}.cls-19{fill:#8782df;}.cls-20{fill:#8899de;}.cls-21{fill:#8680e0;}.cls-22{fill:#8885de;}.cls-23{fill:#9b97e9;}.cls-24{fill:#9b98e8;}.cls-25{fill:#9aa1df;}.cls-26{fill:#5369ee;}.cls-27{fill:#8798de;}.cls-28{fill:#95a3e4;}.cls-29{fill:#a2ace9;}.cls-30{fill:#a2ace1;}.cls-31{fill:#9587ee;}.cls-32{fill:#94a2e3;}.cls-33{fill:#9ba9db;}.cls-34{fill:#9ba8dc;}.cls-35{fill:#9ba7e6;}.cls-36{fill:#6e85d3;}.cls-37{fill:#9483ef;}.cls-38{fill:#5a73ce;}.cls-39{fill:#5972d3;}.cls-40{fill:#576ede;}.cls-41{fill:#827be0;}.cls-42{fill:#cbcef1;}.cls-43{fill:#d0cdf9;}.cls-44{fill:#cacdf1;}.cls-45{fill:#cac0fb;}.cls-46{fill:#cccef1;}.cls-47{fill:#cce5f0;}.cls-48{fill:#ccc3fa;}.cls-49{fill:#afb7ee;}.cls-50{fill:#d3d4f8;}.cls-51{fill:#c5e2f1;}.cls-52{fill:#d5d8f7;}.cls-53{fill:#d2e8ef;}.cls-54{fill:#daecef;}.cls-55{fill:#bbc0f2;}.cls-56{fill:#a9c5d9;}.cls-57{fill:#d6e9ef;}.cls-58{fill:#a3b1e0;}.cls-59{fill:#bdc1f4;}.cls-60{fill:#a4b6de;}.cls-61{fill:#aeb5ee;}.cls-62{fill:#a5afea;}.cls-63{fill:#aeb6ee;}.cls-64{fill:#afd7f2;}.cls-65{fill:#bcbff6;}.cls-66{fill:#bcc1f2;}.cls-67{fill:#a9b2ec;}.cls-68{fill:#a6d3f2;}.cls-69{fill:#bedef1;}.cls-70{fill:#adc5de;}.cls-71{fill:#a8c1db;}.cls-72{fill:#a6afea;}.cls-73{fill:#a5b7de;}.cls-74{fill:#aad5f2;}.cls-75{fill:#a7bcdc;}.cls-76{fill:#b1b8ef;}.cls-77{fill:#cec8f9;}.cls-78{fill:#ced0f1;}.cls-79{fill:#cdd0f1;}.cls-80{fill:#8596dd;}.cls-81{fill:#b4baf0;}.cls-82{fill:#b4bbf0;}.cls-83{fill:#b4daf1;}.cls-84{fill:#baddf1;}.cls-85{fill:#8a8adf;}.cls-86{fill:#b8b9fb;}.cls-87{fill:#9d9ee7;}.cls-88{fill:#9da7df;}.cls-89{fill:#9d9ee6;}.cls-90{fill:#b5bcf0;}.cls-91{fill:#9dabdd;}.cls-92{fill:#a0a4e4;}.cls-93{fill:#8f8ce0;}.cls-94{fill:#9380f1;}.cls-95{fill:#b6b6fc;}.cls-96{fill:#667dcf;}.cls-97{fill:#8d9ce1;}.cls-98{fill:#8d9ce0;}.cls-99{fill:#b9bff2;}.cls-100{fill:#b9bcf8;}.cls-101{fill:#99a4dc;}.cls-102{fill:#9991eb;}.cls-103{fill:#9890eb;}.cls-104{fill:#6a81d1;}.cls-105{fill:#978aed;}.cls-106{fill:#a1a5e4;}.cls-107{fill:#a1a5e5;}.cls-108{fill:#a1aae0;}.cls-109{fill:#a1aae2;}.cls-110{fill:#92a3dc;}.cls-111{fill:#9fa3e4;}.cls-112{fill:#9fafdb;}.cls-113{fill:#9fb0dd;}.cls-114{fill:#9eaddd;}.cls-115{fill:#857ee0;}.cls-116{fill:#847de0;}.cls-117{fill:#93a1e3;}.cls-118{fill:#857ce0;}.cls-119{fill:#657ccf;}.cls-120{fill:#657dcf;}.cls-121{fill:#8193db;}.cls-122{fill:#edf1ef;}.cls-123{fill:#eff3f0;}.cls-124{fill:#e5e9ec;}.cls-125{fill:#eaefee;}.cls-126{fill:#f5f7f2;}.cls-127{fill:#e7eeed;}.cls-128{fill:#e9efee;}.cls-129{fill:#6980d1;}</style></defs><circle class="cls-124" cx="64" cy="64" r="63.5"/><g id="ETHW"><path class="cls-54" d="m64.11,5.92c4.64,7.75,9.29,15.49,13.93,23.24-4.83.97-9.66,1.93-14.49,2.9-.01-2.33-.03-4.65-.04-6.98,0-5.22,0-10.44,0-15.66-.03-.98.2-1.99-.27-2.93,0,0,0,.02,0,.02.1-.2.2-.39.3-.59.19,0,.39,0,.58,0Z"/><path class="cls-70" d="m63.53,5.92c-.1.2-.2.39-.3.59,0-.2,0-.39.01-.59.1,0,.19,0,.29,0Z"/><path class="cls-56" d="m63.24,6.48c.48.94.24,1.95.27,2.93-.62,3.44-.18,6.91-.24,10.37-.03,1.76-.37,3.55.24,5.29.01,2.33.03,4.65.04,6.98,0,.58,0,1.16,0,1.74,0,.68,0,1.35,0,2.03,0,.97,0,1.94,0,2.9,0,.68,0,1.36,0,2.03v2.03c0,.48,0,.97-.01,1.45-.48.1-.97.2-1.45.3-.29.1-.58.19-.87.29-4.36-4.36-8.72-8.72-13.07-13.08,0-.11,0-.21,0-.32,0-.09.01-.19.04-.28.09-.1.17-.21.26-.31.1-.18.19-.36.29-.54.1-.11.19-.21.29-.32,0-.09.01-.19.04-.28.08-.1.17-.21.25-.31.1-.18.2-.36.3-.54.09-.11.19-.21.28-.32,0-.09.01-.19.04-.28.08-.1.17-.21.25-.31.1-.18.2-.36.3-.54.09-.1.19-.21.28-.31,0,0-.02.01-.02.01.1-.2.2-.41.3-.61.1-.18.21-.36.31-.54.09-.11.18-.21.27-.32.2-.38.4-.76.6-1.14.09-.1.18-.21.27-.31,3.42-6,6.87-11.98,10.74-17.7Z"/><path class="cls-52" d="m63.52,84.33c-4.74-2.71-9.48-5.41-14.22-8.12.02-.09.04-.18.04-.27,0,0,.03.01.03.01.19-.19.37-.37.56-.56.19-.3.38-.6.57-.9.09-.2.18-.4.27-.59.72-1.49.03-2.77-.6-4.06-.1-.3-.19-.61-.29-.91,2.33-3.25,4.61-6.53,7-9.73,1.6-2.13,2.81-4.58,4.94-6.29.58.13,1.15.26,1.73.4,0,10.34-.01,20.68-.02,31.02Z"/><path class="cls-13" d="m46.39,97.42c-5.99-8.72-11.99-17.43-17.98-26.15,0,0,.14.01.14.01l.14-.02c9.09,5.14,18.19,10.27,27.28,15.41-.97.4-1.64,1.16-2.28,1.96-2.36,2.99-4.52,6.14-7.3,8.79Z"/><path class="cls-59" d="m76.01,84.04c5.13-2.94,10.26-5.9,15.4-8.83,2.62-1.49,5.26-2.95,8.36-4.68-5.13,7.43-9.95,14.4-14.77,21.37-1.27-.25-1.26-1.74-2.29-2.28-2.62-1.38-4.44-3.74-6.7-5.57Z"/><path class="cls-2" d="m98.66,63.41c.28.35.79.62,0,1.05-4.55,2.54-9.08,5.12-13.62,7.69-.3-.68-.6-1.37-.89-2.05-.27-.71-.85-1.09-1.47-1.42-.82-.3-1.66-.6-1.45-1.75.2-3.48.4-6.96.6-10.45,2.07.88,4.13,1.79,6.21,2.64,3.53,1.45,7.08,2.86,10.61,4.29Z"/><path class="cls-68" d="m98.66,63.41c-3.54-1.43-7.08-2.84-10.61-4.29-2.08-.85-4.14-1.76-6.21-2.64-.07-3.51.17-7,.57-10.48-.06.85.5.86,1.13.89,1.61.09,2.93-.82,4.41-1.19,3.57,5.9,7.14,11.81,10.71,17.71Z"/><path class="cls-100" d="m80.98,97.43c-1.45,2.13-2.91,4.26-4.36,6.4-2.79-2.53-5.44-5.24-8.44-7.49-1.49-1.12-2.67-2.76-4.61-3.27-.03-.76-.05-1.52-.08-2.29,1.85-.97,3.71-1.94,5.56-2.91,1.2,1.4,2.98,1.9,4.22,3.58,1.82,2.46,4.88,4,7.42,5.93.07.05.19.04.28.05Z"/><path class="cls-86" d="m63.58,93.06c1.94.5,3.12,2.15,4.61,3.27,3,2.25,5.65,4.97,8.44,7.49-1.18,1.74-2.36,3.47-3.54,5.21-1.08-.27-2.21-.28-3.05-1.25-1.88-2.2-3.97-4.19-6.46-5.71-.03-.77-.06-1.54-.09-2.31,0-1.07,0-2.13,0-3.2,0-.97,0-1.93,0-2.9.03-.2.06-.4.09-.6Z"/><path class="cls-65" d="m80.98,97.43c-.09-.02-.21,0-.28-.05-2.54-1.93-5.6-3.47-7.42-5.93-1.25-1.68-3.03-2.18-4.22-3.58,2.32-1.28,4.64-2.55,6.95-3.83,2.25,1.84,4.08,4.19,6.7,5.57,1.03.54,1.02,2.04,2.29,2.28-1.34,1.84-2.68,3.69-4.01,5.53Z"/><path class="cls-26" d="m63.49,99.76c.03.77.06,1.54.09,2.31-.03,6.67-.05,13.34-.08,20.01-2.7-3.87-5.39-7.73-8.09-11.6-.11-.18-.22-.37-.33-.55,0,0,0,.02,0,.02,2.8-3.39,5.61-6.79,8.41-10.18Z"/><path class="cls-95" d="m63.5,122.08c.03-6.67.05-13.34.08-20.01,2.49,1.52,4.57,3.51,6.46,5.71.84.97,1.97.99,3.05,1.25-2.81,4.11-5.63,8.21-8.44,12.32-.27.4-.56.8-1.15.73Z"/><path class="cls-127" d="m63.52,84.33c0-10.34.01-20.68.02-31.02.48-.11.96-.22,1.44-.34.19.01.38.02.57.03.48.77.96,1.53,1.45,2.3-.56.29-.73.7-.75,1.38-.06,2.77.28,5.55.23,8.26-.07,3.45-.14,6.93-.34,10.39-.15,2.53.6,5.05,0,7.57-.77.67-1.59,1.25-2.63,1.43Z"/><path class="cls-128" d="m66.15,82.9c.6-2.52-.15-5.04,0-7.57.2-3.46.28-6.94.34-10.39.05-2.71-.29-5.49-.23-8.26.02-.69.18-1.09.75-1.38,0,0,0,0,0,0,.11.19.22.37.33.56,1.06,1.45,2.13,2.9,3.19,4.36-.54-.31-1.13-.95-1.14.42-.02,1.8-.28,3.6-.26,5.4.03,2.75.15,5.51.33,8.25.14,2.19-.58,4.39.17,6.56-1,.95-2.22,1.54-3.49,2.03Z"/><path class="cls-94" d="m32.15,57.88c.21-.38.42-.76.63-1.14.08-.11.16-.21.25-.32.79-1.34,1.58-2.68,2.37-4.03,2.31,1.62,4.38,3.49,6.06,5.78-.09.02-.18.03-.27.04-.1.08-.2.17-.3.25-.68.31-1.37.62-2.05.93-1.16.49-2.32.97-3.48,1.46-2.22.85-4.43,1.71-6.65,2.56.19-.29.38-.57.57-.86.09-.11.17-.21.26-.32.2-.38.41-.76.61-1.14.09-.11.17-.21.26-.32.21-.38.41-.76.62-1.14.08-.11.17-.21.25-.32.21-.38.42-.76.62-1.14.08-.11.16-.21.25-.32Z"/><path class="cls-111" d="m42.01,41.54c-.02-.06-.02-.12,0-.18,1.08.65,2.23,1.02,3.5.88-.07,2.22,1.78,3.14,3.09,4.31,2.13,1.9,3.83,4.27,6.24,5.87-.6.47-1.25.83-2.04.87-1.84-1.81-3.68-3.63-5.52-5.44-.36-.36-.6-1.03-1.21-.87-.81.21-.23.9-.27,1.36-.07.86-.02,1.74-.02,2.61.15,1.06-.32,2.18.29,3.2,0,.69,0,1.38.01,2.07.19,3.57.39,7.14.58,10.7-.1.39-.2.78-.29,1.17-.29-.2-.58-.39-.87-.59-.2-3.58-.39-7.16-.59-10.74,0-.2,0-.39,0-.59,0-.77,0-1.55,0-2.32-.1-1.65-.19-3.29-.29-4.94.82-3.08-1.53-4.84-2.93-6.99,0,0,0,.01,0,.01.1-.13.19-.26.29-.39Z"/><path class="cls-43" d="m44.94,56.76c.2,3.58.39,7.16.59,10.74.15.73-.52.83-.89,1.16-.29.19-.59.38-.88.57-.29.29-.58.58-.87.87-.2.3-.4.59-.6.89-.08.11-.16.21-.25.32,0,.09,0,.17-.02.26-.09.09-.18.18-.27.26-.1-.08-.2-.17-.31-.25.06-.36.19-.73.18-1.09-.19-4.1-.43-8.19.12-12.28.49-.28.98-.56,1.47-.84.57-.2,1.15-.41,1.72-.61Z"/><path class="cls-122" d="m69.63,80.87c-.75-2.17-.03-4.37-.17-6.56-.18-2.75-.3-5.5-.33-8.25-.02-1.8.24-3.6.26-5.4.01-1.37.6-.73,1.14-.42.57.78,1.14,1.55,1.72,2.33-.86.2-.52.9-.58,1.42-.41,3.27-.16,6.54-.07,9.81.05,1.98-.26,3.97.36,5.91-.77.39-1.55.78-2.32,1.17Z"/><path class="cls-71" d="m48.14,31.77c4.36,4.36,8.72,8.72,13.07,13.08-.1.19-.2.38-.3.58-.29.29-.58.58-.87.87-.1.19-.2.38-.3.58-.09,0-.18,0-.28,0-.14-.29-.22-.66-.44-.84-1.72-1.35-3.1-3.08-4.74-4.46-1.74-1.46-2.63-3.84-4.99-4.58-.1-.19-.19-.39-.29-.58-.1-.6-.29-1.14-.87-1.45-.49-.49-.97-.97-1.46-1.46.09-.09.19-.19.28-.28.1-.11.2-.22.3-.33,0-.09.01-.18.04-.27.08-.1.17-.21.26-.31.1-.18.19-.36.29-.55.1,0,.19,0,.29,0Z"/><path class="cls-47" d="m63.55,38.74c0-.97,0-1.94,0-2.9.84.33,1.58-.18,2.35-.31,4.69-.81,9.34-1.8,13.91-3.18.3.38.59.76.89,1.14-.4.29-.8.59-1.2.88-.29.29-.58.59-.87.88-.1.1-.2.21-.31.31-.08.1-.17.19-.25.29,0,0,0,0,0,0-.48-.25-.92-.26-1.5-.12-4.33,1.05-8.68,2.02-13.02,3.02Z"/><path class="cls-38" d="m46.39,97.42c2.78-2.64,4.94-5.8,7.3-8.79.63-.8,1.3-1.56,2.28-1.96.68.39,1.37.77,2.05,1.16-3.33,3.99-6.65,7.97-9.98,11.96-.55-.79-1.1-1.58-1.65-2.37Z"/><path class="cls-123" d="m71.95,79.7c-.62-1.94-.3-3.94-.36-5.91-.09-3.27-.33-6.54.07-9.81.06-.52-.28-1.22.58-1.42,0,0,0,0,0,0,0,.42.2.72.6.87h0c0,.42.18.72.6.87h-.02c.1.09.2.19.3.3.49.68.97,1.35,1.46,2.03-1.23-.83-1.13.37-1.15.88-.06,1.47-.04,2.96.09,4.42.18,2.11-.47,4.23.15,6.32-.78.48-1.55.97-2.33,1.45Z"/><path class="cls-77" d="m41.75,58.21c-.55,4.09-.31,8.18-.12,12.28.02.36-.11.73-.18,1.09-.97-.57-1.94-1.15-2.91-1.72-.65-1.99.18-4.02-.21-6.03-.29-1.51-.09-3.01.5-4.44.68-.31,1.37-.62,2.05-.93.1-.08.2-.17.3-.25.09,0,.18-.02.27-.03.1.01.2.02.29.03Z"/><path class="cls-14" d="m63.58,93.06c-.03.2-.06.4-.09.6-1.82,2.27-3.7,4.5-5.45,6.83-1.69,2.23-3.82,4.16-4.72,6.93-.48-.7-.95-1.4-1.43-2.09,2.23-2.76,4.37-5.59,6.54-8.39,1.57-2.04,3.68-3.76,4.57-6.31.17.05.34.11.51.16.03.76.05,1.52.08,2.29Z"/><path class="cls-39" d="m48.04,99.79c3.33-3.99,6.65-7.97,9.98-11.96.68.39,1.36.77,2.05,1.16-.43.3-.98.5-1.26.9-2.94,4.16-6.51,7.83-9.21,12.17-.52-.76-1.04-1.51-1.56-2.27Z"/><path class="cls-15" d="m49.59,102.06c2.7-4.34,6.27-8.01,9.21-12.17.28-.4.83-.61,1.26-.9.5.28.99.57,1.49.85-3.62,4.59-7.23,9.18-10.85,13.78-.37-.52-.74-1.04-1.1-1.56Z"/><path class="cls-40" d="m50.7,103.62c3.62-4.59,7.23-9.18,10.85-13.78.48.26.96.52,1.44.77-.88,2.55-2.99,4.27-4.57,6.31-2.16,2.8-4.3,5.64-6.54,8.39-.4-.57-.79-1.13-1.19-1.7Z"/><path class="cls-53" d="m79.8,32.34c-4.56,1.38-9.21,2.37-13.91,3.18-.77.13-1.51.64-2.35.31,0-.68,0-1.36,0-2.03.62-.06,1.24-.09,1.86-.2,4.53-.8,8.92-2.3,13.53-2.71.57.32.76.86.87,1.45Z"/><path class="cls-5" d="m63.49,99.76c-2.8,3.39-5.61,6.79-8.41,10.18-.4-.58-.81-1.16-1.21-1.73.51-.55,1.05-1.08,1.53-1.66,2.73-3.3,4.9-7.06,8.09-9.98,0,1.07,0,2.13,0,3.2Z"/><path class="cls-45" d="m28.71,63.41c2.22-.85,4.43-1.71,6.65-2.56,0,2.41,0,4.83,0,7.24-2.03-1.12-4.06-2.24-6.07-3.38-.46-.26-1.15-.52-.57-1.29Z"/><path class="cls-1" d="m74.28,78.25c-.62-2.09.03-4.22-.15-6.32-.13-1.47-.15-2.95-.09-4.42.02-.51-.08-1.71,1.15-.88.65.78,1.31,1.56,1.96,2.34,0,.28-.01.56-.02.84-.08.1-.16.2-.24.31,0,0,0,0,0,0-.08.1-.17.2-.25.29-.04.09-.07.18-.08.27l-.25.61c-.04.08-.05.16-.04.25,0,0,.01.01.01.01-.08.3-.15.6-.23.89.08.49.16.98.24,1.47.09.21.17.41.26.62.2.9,1.01,1.31,1.55,1.95-1.28.59-2.55,1.18-3.83,1.77Z"/><path class="cls-57" d="m78.94,30.89c-4.61.42-9,1.92-13.53,2.71-.61.11-1.24.13-1.86.2,0-.58,0-1.16,0-1.74,4.83-.97,9.66-1.93,14.49-2.9.3.58.6,1.16.89,1.74Z"/><path class="cls-48" d="m35.35,68.09c0-2.41,0-4.83,0-7.24,1.16-.49,2.32-.97,3.48-1.46-.59,1.43-.79,2.92-.5,4.44.39,2.01-.44,4.04.21,6.03-1.06-.59-2.13-1.18-3.19-1.77Z"/><path class="cls-17" d="m63.49,96.56c-3.19,2.92-5.37,6.68-8.09,9.98-.48.58-1.02,1.11-1.53,1.66-.18-.26-.37-.53-.55-.79.9-2.77,3.03-4.7,4.72-6.93,1.76-2.32,3.63-4.55,5.45-6.83,0,.97,0,1.93,0,2.9Z"/><path class="cls-103" d="m44.94,53.85c0,.77,0,1.55,0,2.32-.1,0-.19,0-.29,0-.04-.71.16-1.45-.42-2.06-1.13-1.17-2.34-2.29-3.36-3.56-.83-1.04-2.14-1.7-2.55-3.08.08-.1.15-.21.23-.31.09-.11.18-.22.28-.33.2-.37.4-.75.6-1.12.09,0,.18,0,.27,0,.25.39.43.86.75,1.16,2.07,1.96,4.59,3.62,4.48,6.97Z"/><path class="cls-37" d="m41.75,58.21c-.1,0-.2-.02-.29-.03-1.68-2.29-3.75-4.16-6.06-5.78.07-.1.14-.2.21-.31.04-.01.11-.02.12-.04.01-.07,0-.14,0-.21.07-.1.15-.21.22-.31.09-.11.19-.22.28-.33.12-.27.24-.54.37-.8.36.45.67.93,1.07,1.34,1.84,1.89,3.71,3.76,5.56,5.64-.49.28-.98.56-1.47.84Z"/><path class="cls-31" d="m43.22,57.37c-1.86-1.88-3.72-3.75-5.56-5.64-.4-.41-.72-.89-1.07-1.34.08-.11.15-.21.23-.32.09-.11.18-.22.28-.33.09-.19.19-.39.28-.58,2.43,2.34,4.85,4.68,7.28,7.02.1,0,.19,0,.29,0,0,.2,0,.39,0,.59-.57.2-1.15.41-1.72.61Z"/><path class="cls-105" d="m44.65,56.17c-2.43-2.34-4.85-4.68-7.28-7.02.11-.18.21-.36.32-.53.09-.11.18-.22.27-.33.12-.27.24-.54.37-.81.41,1.38,1.72,2.04,2.55,3.08,1.02,1.27,2.22,2.38,3.36,3.56.58.6.38,1.35.42,2.06Z"/><path class="cls-23" d="m44.94,53.85c.11-3.36-2.41-5.01-4.48-6.97-.33-.31-.5-.77-.75-1.16,0-.11,0-.21,0-.32.2-.38.4-.76.6-1.14.09,0,.18,0,.27,0,1.84,1.13,3.27,2.61,4.07,4.65.1,1.65.19,3.29.29,4.94Z"/><path class="cls-80" d="m40.34,37.58c-.07-.66.13-1.23.49-1.77,2.72,1.07,5.45,2.15,8.17,3.22-.1.6-.3,1.14-.85,1.47-2.52-1.2-5.07-2.31-7.81-2.93Z"/><path class="cls-74" d="m87.95,45.7c-1.48.36-2.8,1.28-4.41,1.19-.63-.04-1.19-.04-1.13-.89,0-1.24.02-2.49.02-3.73h.14s.14,0,.14,0c.27.72-.62,2.01.6,2.13,1.11.11,2.29-.44,3.44-.71l1.21,2.01Z"/><path class="cls-35" d="m49.01,39.03c-2.72-1.07-5.45-2.15-8.17-3.22.28-.39.56-.78.85-1.17,2.54.98,5.08,1.96,7.61,2.94,0,.48,0,.97,0,1.45-.1,0-.19,0-.29,0Z"/><path class="cls-80" d="m86.22,39.67c-.19.29-.38.59-.57.88-2.41-1.55-4.98-2.65-7.86-2.97.1-.48.2-.97.29-1.45,1.81.63,3.7,1.1,5.4,1.95.92.46,2.31.25,2.73,1.59Z"/><path class="cls-29" d="m78.62,35.25c.29-.29.58-.59.87-.88,1.65.49,3.31.98,4.96,1.47h0c.47.82,1.37.6,2.08.85.37.8.39,1.59-.03,2.37-.09-.36-.08-.97-.28-1.04-2.51-.97-5.06-1.86-7.6-2.77Z"/><path class="cls-11" d="m50.49,74.5c-.19.3-.38.6-.57.9-2.54-1.18-5.08-2.35-7.84-2.96-.03-.2-.05-.39-.08-.59,0,0,.1,0,.1,0,.08-.19.16-.37.24-.56,2.81.83,5.58,1.75,8.14,3.2Z"/><path class="cls-89" d="m44.65,48.91c-.79-2.04-2.23-3.52-4.07-4.65,0-.11,0-.21,0-.32.09-.19.17-.37.26-.56.1-.13.21-.25.31-.38-.02-.07,0-.14.04-.21.09-.1.18-.21.27-.31.09-.19.18-.38.27-.57,1.39,2.16,3.75,3.91,2.93,6.99Z"/><path class="cls-28" d="m78.62,35.25c2.54.91,5.08,1.8,7.6,2.77.2.08.19.68.28,1.04-.09.2-.18.41-.27.61-.42-1.33-1.81-1.13-2.73-1.59-1.7-.85-3.59-1.32-5.4-1.95-.01-.1-.02-.2-.03-.3,0,0,0,0,0,0,.08-.1.17-.19.25-.29.1-.1.2-.21.31-.31Z"/><path class="cls-64" d="m86.74,43.69c-1.15.26-2.33.82-3.44.71-1.21-.13-.33-1.41-.6-2.13.29-.11.58-.22.87-.33.1-.01.2-.02.3-.04l.33-.24c.08,0,.16-.01.22-.05.11-.08.21-.15.32-.23.1-.1.2-.2.3-.3,0,0,.02.01.02.01.08,0,.17,0,.25-.01.47.87.95,1.74,1.42,2.62Z"/><path class="cls-96" d="m78.11,76.48c-.54-.63-1.35-1.04-1.55-1.95.28-.41.62-.32,1-.16,1.7.7,3.41,1.39,5.12,2.08-1.52,1.01-3.04.68-4.57.02Z"/><path class="cls-96" d="m48.7,76.46c-2.54,1.28-4.85.55-6.12-1.92.28-.41.62-.32,1-.16,1.7.7,3.41,1.39,5.12,2.08Z"/><path class="cls-120" d="m45.53,42.24c-1.28.14-2.42-.23-3.5-.88-.39-.56-.79-1.13-1.18-1.69.23-.34.51-.34.88-.19,1.75.73,3.5,1.43,5.26,2.15-.19.11-.38.22-.57.34-.29.09-.59.19-.88.28Z"/><path class="cls-12" d="m85.32,41.08c-.08,0-.17.01-.25.01-2.1-.86-4.21-1.7-6.3-2.59-.66-.28-.74.02-.72.54l-.32-.89.07-.57c2.87.32,5.45,1.42,7.86,2.97-.11.17-.22.35-.33.52Z"/><path class="cls-62" d="m77.13,69.8c0-.28.01-.56.02-.84.3,0,.61,0,.91,0,1.45.58,2.91,1.16,4.36,1.74.86.63,1.29-.03,1.75-.6.3.68.6,1.37.89,2.05-.03.1-.05.2-.08.29-2.62-.88-5.23-1.76-7.85-2.65Z"/><path class="cls-76" d="m84.45,35.83c-1.65-.49-3.31-.98-4.96-1.47.4-.29.8-.59,1.2-.88,1.29-.39,2.54-.34,3.74.34-.98.68-.66,1.35.02,2.01Z"/><path class="cls-67" d="m49.3,37.58c-2.54-.98-5.08-1.96-7.61-2.94.21-.18.41-.37.62-.55.1-.08.21-.16.31-.25.09-.03.18-.05.27-.06.78.39,1.57.79,2.35,1.18.59.52,1.19,1.05,2.02,1.16.58.1,1.17.2,1.75.3.1.19.19.39.29.58,0,.19,0,.39,0,.58Z"/><path class="cls-10" d="m40.34,37.58c2.74.62,5.29,1.73,7.81,2.93,0,.09,0,.19,0,.28-.19.1-.38.2-.58.3-2.33-.98-4.65-1.95-6.98-2.93-.08,0-.16,0-.24,0,0-.19,0-.39,0-.58Z"/><path class="cls-8" d="m42.09,72.44c2.75.61,5.3,1.78,7.84,2.96-.19.19-.37.37-.56.56-2.11-.86-4.22-1.7-6.31-2.59-.66-.28-.75.01-.73.54-.08-.49-.16-.98-.24-1.46Z"/><path class="cls-4" d="m76.31,73.91c-.08-.49-.16-.98-.24-1.47.08-.1.17-.19.25-.29,2.53,1.09,5.06,2.18,7.6,3.26-.19.18-.37.37-.56.55-2.11-.86-4.22-1.71-6.32-2.6-.66-.28-.75.01-.73.54Z"/><path class="cls-18" d="m40.59,38.16c2.33.98,4.65,1.95,6.98,2.93-.2.18-.4.36-.6.54-1.75-.71-3.51-1.42-5.26-2.15-.37-.15-.64-.15-.88.19-.09-.2-.18-.41-.26-.61,0-.3.01-.6.02-.9Z"/><path class="cls-18" d="m76.31,73.91c-.02-.53.07-.83.73-.54,2.09.89,4.21,1.74,6.32,2.6,0,0-.03-.02-.03-.02-.11.1-.22.2-.33.3-.11.07-.21.14-.32.21-1.71-.69-3.42-1.38-5.12-2.08-.38-.16-.72-.25-1,.16-.09-.21-.17-.41-.26-.62Z"/><path class="cls-3" d="m42.32,73.91c-.02-.53.07-.82.73-.54,2.09.89,4.21,1.73,6.31,2.59,0,0-.03-.01-.03-.01-.11.1-.21.2-.32.3-.11.07-.21.14-.32.21-1.71-.69-3.42-1.38-5.12-2.08-.38-.16-.72-.25-1,.16-.09-.21-.17-.42-.26-.62Z"/><path class="cls-11" d="m83.91,75.42c-2.53-1.09-5.06-2.18-7.6-3.26,0-.2-.02-.41-.03-.61,0,0-.01-.01-.01-.01,1.02.4,2.08.71,3.04,1.21,1.6.83,3.63.76,4.85,2.35-.09.11-.17.22-.26.33Z"/><path class="cls-35" d="m77.13,69.8c2.62.88,5.23,1.76,7.85,2.65,0,.1,0,.19,0,.29-.08.1-.17.19-.25.29-2.62-.97-5.23-1.94-7.85-2.92.08-.1.16-.2.24-.31Z"/><path class="cls-97" d="m76.31,71.28c.08-.2.17-.4.25-.61,2.75.89,5.29,2.36,8.15,2.94.01.1.03.2.04.3-.09.21-.18.41-.26.62-2.55-1.51-5.36-2.38-8.17-3.25Z"/><path class="cls-20" d="m76.31,71.28c2.81.87,5.62,1.74,8.17,3.25-.1.19-.21.37-.31.56-1.22-1.59-3.25-1.52-4.85-2.35-.96-.5-2.03-.81-3.04-1.21-.01-.09,0-.17.04-.25Z"/><path class="cls-78" d="m84.45,35.83c-.68-.66-1-1.33-.02-2.01.75.41,1.48.84,1.75,1.74-.51.49-1.1.54-1.73.28h0Z"/><path class="cls-82" d="m45.24,34.96c-.78-.39-1.57-.79-2.35-1.18.2-.09.4-.18.6-.27.39-.08.77-.17,1.16-.25.1,0,.21,0,.31,0,.26.34,1,.43.57,1.12-.1.19-.19.39-.29.58Z"/><path class="cls-66" d="m45.52,34.38c.43-.69-.31-.78-.57-1.12.58.08,1.15.16,1.73.24.49.49.97.97,1.46,1.46-.62-.04-.51.66-.87.88.09-1.29-.49-1.78-1.75-1.46Z"/><path class="cls-76" d="m84.45,35.83c.63.26,1.22.22,1.73-.28.11.38.23.75.35,1.13-.71-.25-1.6-.04-2.08-.85Z"/><path class="cls-62" d="m84.75,73.91c-.01-.1-.03-.2-.04-.3,0-.2.02-.39.03-.59.08-.1.17-.19.25-.29-.08.39-.16.78-.24,1.17Z"/><path class="cls-66" d="m44.64,33.26c-.39.08-.77.17-1.16.25.39-.08.77-.17,1.16-.25Z"/><path class="cls-80" d="m40.59,38.16c0,.3-.01.6-.02.9-.07-.3-.15-.6-.22-.9.08,0,.16,0,.24,0Z"/><path class="cls-110" d="m28.69,71.27l-.14.02s-.14-.01-.14-.01c-.06-.06-.12-.12-.18-.17.15.05.3.11.46.16Z"/><path class="cls-60" d="m51.03,26.5c-.1.2-.2.41-.3.61.1-.2.2-.41.3-.61Z"/><path class="cls-5" d="m55.07,109.92c.11.18.22.37.33.55-.11-.18-.22-.37-.33-.55Z"/><path class="cls-41" d="m29.54,62.24c-.09.11-.17.21-.26.32.09-.11.17-.21.26-.32Z"/><path class="cls-6" d="m30.41,60.78c-.09.11-.17.21-.26.32.09-.11.17-.21.26-.32Z"/><path class="cls-7" d="m31.28,59.33c-.08.11-.17.21-.25.32.08-.11.17-.21.25-.32Z"/><path class="cls-118" d="m32.15,57.88c-.08.11-.16.21-.25.32.08-.11.16-.21.25-.32Z"/><path class="cls-116" d="m33.03,56.42c-.08.11-.16.21-.25.32.08-.11.16-.21.25-.32Z"/><path class="cls-101" d="m47.26,32.89c-.1.11-.2.22-.3.33.1-.11.2-.22.3-.33Z"/><path class="cls-25" d="m47.55,32.31c-.09.1-.17.21-.26.31.09-.1.17-.21.26-.31Z"/><path class="cls-94" d="m35.72,51.83c0,.07.02.15,0,.21,0,.02-.08.03-.12.04.03-.09.06-.18.11-.26Z"/><path class="cls-77" d="m41.76,71.83c.09-.09.18-.18.27-.26.03.1.05.19.08.29,0,0-.1,0-.1,0-.08,0-.17,0-.25-.02Z"/><path class="cls-118" d="m36.22,51.19c-.09.11-.19.22-.28.33.09-.11.19-.22.28-.33Z"/><path class="cls-89" d="m42.01,41.54c-.1.13-.19.26-.29.39.1-.13.19-.26.29-.39Z"/><path class="cls-116" d="m37.09,49.74c-.09.11-.18.22-.28.33.09-.11.18-.22.28-.33Z"/><path class="cls-115" d="m37.97,48.29c-.09.11-.18.22-.27.33.09-.11.18-.22.27-.33Z"/><path class="cls-21" d="m38.84,46.84c-.09.11-.18.22-.28.33.09-.11.18-.22.28-.33Z"/><path class="cls-19" d="m39.71,45.4c0,.11,0,.21,0,.32-.09,0-.18,0-.27,0,.09-.11.18-.21.27-.32Z"/><path class="cls-22" d="m40.58,43.94c0,.11,0,.21,0,.32-.09,0-.18,0-.27,0,.09-.11.18-.21.27-.32Z"/><path class="cls-93" d="m41.15,43c-.1.13-.21.25-.31.38.1-.13.21-.25.31-.38Z"/><path class="cls-8" d="m49.02,76.25c.11-.1.21-.2.32-.3,0,.09-.01.18-.04.27-.09.02-.19.03-.28.03Z"/><path class="cls-4" d="m83,76.25c.11-.1.22-.2.33-.3-.11.1-.22.2-.33.3Z"/><path class="cls-34" d="m48.14,31.77c-.1,0-.19,0-.29,0,.1-.11.19-.21.29-.32,0,.11,0,.21,0,.32Z"/><path class="cls-88" d="m48.42,30.86c-.09.1-.17.21-.26.31.09-.1.17-.21.26-.31Z"/><path class="cls-33" d="m49.01,30c-.1.11-.19.21-.29.32.1-.11.19-.21.29-.32Z"/><path class="cls-108" d="m49.29,29.41c-.08.1-.17.21-.25.31.08-.1.17-.21.25-.31Z"/><path class="cls-91" d="m49.88,28.55c-.09.11-.19.21-.28.32.09-.11.19-.21.28-.32Z"/><path class="cls-30" d="m50.17,27.96c-.08.1-.17.21-.25.31.08-.1.17-.21.25-.31Z"/><path class="cls-114" d="m50.75,27.11c-.09.1-.19.21-.28.31.09-.1.19-.21.28-.31Z"/><path class="cls-112" d="m51.62,25.64c-.09.11-.18.21-.27.32.09-.11.18-.21.27-.32Z"/><path class="cls-113" d="m52.49,24.19c-.09.1-.18.21-.27.31.09-.1.18-.21.27-.31Z"/><path class="cls-85" d="m41.45,42.49c-.09.1-.18.21-.27.31.09-.1.18-.21.27-.31Z"/><path class="cls-82" d="m42.61,33.84c-.1.08-.21.16-.31.25.1-.08.21-.16.31-.25Z"/><path class="cls-71" d="m63.51,25.08c-.61-1.74-.27-3.53-.24-5.29.06-3.46-.38-6.93.24-10.37,0,5.22,0,10.44,0,15.66Z"/><path class="cls-51" d="m77.8,37.59c-.02.19-.05.38-.07.57-1.62.32-3.25.6-4.86.95-3.09.67-6.15,1.48-9.32,1.66,0-.68,0-1.36,0-2.03,4.34-1,8.69-1.96,13.02-3.02.57-.14,1.01-.13,1.5.12.01.1.02.2.03.3-.1.48-.2.97-.29,1.45Z"/><path class="cls-69" d="m63.54,40.77c3.17-.18,6.24-.99,9.32-1.66,1.61-.35,3.24-.64,4.86-.95.11.3.21.59.32.89h.01c.01.09.03.19.04.29-.02.09-.03.18-.04.28-4.84,1.07-9.68,2.13-14.52,3.2v-2.03Z"/><path class="cls-84" d="m63.54,42.81c4.84-1.07,9.68-2.13,14.52-3.2.09.02.17.04.26.07.1.18.2.36.29.54.1.2.19.4.29.59-.26.18-.5.46-.79.52-4.47.99-8.95,1.96-13.42,2.93-.39,0-.77,0-1.16,0,0-.48,0-.97,0-1.45Z"/><path class="cls-63" d="m60.91,45.42c.1-.19.2-.38.3-.58.29-.1.58-.19.87-.29.68.38,1.36.77,2.04,1.15.78-.01,1.84,2.17,2.31-.29.19.1.39.2.58.3.29.48.58.97.88,1.45,0,.19,0,.38,0,.58-2.51-.23-4.54-1.89-6.98-2.32Z"/><path class="cls-90" d="m64.12,45.71c-.68-.38-1.36-.77-2.04-1.15.48-.1.97-.2,1.45-.3.39,0,.77,0,1.16,0,0,.09,0,.19,0,.28-.31.33-.69.62-.57,1.16Z"/><path class="cls-107" d="m61.81,52.92c-2.13,1.72-3.34,4.16-4.94,6.29-2.4,3.2-4.67,6.48-7,9.73-.19.1-.38.2-.57.3-.2-.29-.39-.58-.59-.87.29-.48.59-.96.88-1.44h0c.1-.11.19-.21.29-.31h0c.2-.29.39-.58.59-.87h0c.09-.09.19-.19.28-.3h0c.1-.19.2-.38.31-.57,0,0,0,0,0,0,.1-.1.19-.2.29-.3h0c.09-.09.19-.19.28-.29h0c.11-.19.21-.38.32-.57,2.01-2.69,4.07-5.34,6.01-8.08.87-1.23,2.19-2.2,2.4-3.85.49.37.98.74,1.47,1.11Z"/><path class="cls-117" d="m50.49,74.5c-2.56-1.45-5.34-2.37-8.14-3.2,0,0-.03-.03-.03-.03,0-.09,0-.18-.02-.27.2-.3.4-.59.6-.89,2.64.36,4.89,1.82,7.39,2.57.59.18.44.78.48,1.23-.09.2-.18.4-.27.59Z"/><path class="cls-72" d="m50.77,73.91c-.05-.46.11-1.06-.48-1.23-2.5-.75-4.75-2.21-7.39-2.57.29-.29.58-.58.87-.87,1.26.3,2.53.59,3.79.89.1,0,.19,0,.29,0,.89.92,1.71,1.25,2.32-.27.63,1.29,1.33,2.57.6,4.06Z"/><path class="cls-119" d="m61.81,52.92c-.49-.37-.98-.74-1.47-1.11-.1-.18-.21-.36-.31-.54,1.82.07,3.48.62,4.95,1.71-.48.11-.96.22-1.44.34-.58-.13-1.15-.26-1.73-.4Z"/><path class="cls-46" d="m50.16,69.85c-.61,1.52-1.43,1.19-2.32.27-.09-.1-.19-.2-.28-.3h0c0-.09,0-.19,0-.28.51-.52,1.11-.54,1.75-.3.19-.1.38-.2.57-.3.1.3.19.61.29.91Z"/><path class="cls-92" d="m82.43,42.26c0,1.24-.02,2.49-.02,3.73-.4,3.48-.63,6.97-.57,10.48-.2,3.48-.4,6.96-.6,10.45-.4.38-.2,1.38-1.19,1.16.19-4.05.38-8.1.57-12.15.11-3.02.23-6.03.34-9.05.57-1.32.15-2.71.27-4.07l.02-.59c.39.02.78.03,1.17.05Z"/><path class="cls-42" d="m84.16,70.1c-.46.57-.88,1.22-1.75.6-.2-.19-.39-.38-.59-.58-.1-.1-.19-.2-.29-.29,0-.1,0-.19,0-.29.38-.29.77-.57,1.15-.86.62.34,1.21.72,1.47,1.42Z"/><path class="cls-99" d="m82.69,68.67c-.38.29-.77.57-1.15.86-.77-.39-1.55-.77-2.32-1.16.28-.1.56-.2.84-.3.98.22.79-.77,1.19-1.16-.2,1.15.63,1.45,1.45,1.75Z"/><path class="cls-106" d="m78.05,68.95c-.3,0-.61,0-.91,0-.65-.78-1.31-1.56-1.96-2.34-.49-.68-.97-1.35-1.46-2.03-.1-.1-.2-.2-.3-.31,0,0,.02.01.02.01-.2-.29-.4-.59-.59-.88,0,0,0,.01,0,.01-.2-.29-.4-.58-.6-.87,0,0,0,0,0,0-.57-.78-1.14-1.55-1.72-2.33-1.06-1.45-2.13-2.9-3.19-4.36-.11-.19-.22-.37-.33-.56,0,0,0,0,0,0-.48-.77-.96-1.53-1.45-2.3.1-.11.19-.22.29-.33.1-.09.2-.18.3-.27.1,0,.2,0,.3,0,1.25,1.65,2.5,3.3,3.75,4.95h0c.29.39.58.8.87,1.2.76,1.5,1.81,2.79,2.91,4.03h0c.29.39.58.79.87,1.19.77,1.07,1.55,2.13,2.32,3.2.31.55.62,1.09.93,1.64-.01.12-.03.23-.04.35Z"/><path class="cls-104" d="m65.85,52.68c-.1.11-.19.22-.29.33-.19-.01-.38-.02-.57-.03-1.47-1.1-3.13-1.65-4.95-1.71-.1-.18-.2-.35-.3-.53-.08-.12-.16-.25-.24-.37,0-.1-.02-.2-.02-.3,2.22.64,4.34,1.53,6.38,2.6Z"/><path class="cls-127" d="m67.01,55.31c.11.19.22.37.33.56-.11-.19-.22-.37-.33-.56Z"/><path class="cls-37" d="m41.19,58.21c-.1.08-.2.17-.3.25.1-.08.2-.17.3-.25Z"/><path class="cls-52" d="m59.73,50.73c.1.18.2.35.3.53.1.18.21.36.31.54-.21,1.64-1.53,2.62-2.4,3.85-1.93,2.74-4,5.39-6.01,8.08-.11.19-.21.38-.32.57,0,0,0,0,0,0-.09.1-.19.2-.28.3,0,0,0,0,0,0-.1.1-.19.2-.29.3,0,0,0,0,0,0-.1.19-.2.38-.31.57,0,0,0,0,0,0-.09.1-.19.2-.28.3,0,0,0,0,0,0-.39.16-.59.45-.59.87,0,0,0,0,0,0-.1.1-.19.2-.29.3,0,0,0,0,0,0-1.12-3.95-.59-7.93-.3-11.91.49-.28.98-.56,1.46-.84.38-.12.77-.24,1.15-.35.1-.09.2-.17.31-.26.2-.09.4-.18.6-.28.79-.04,1.44-.4,2.04-.87.48-.19.95-.39,1.43-.58.78-.06,1.44-.39,2.03-.87.38-.11.77-.22,1.15-.33.09.03.17.06.26.09Z"/><path class="cls-50" d="m49.3,55.02c-.29,3.98-.82,7.97.3,11.91-.29.48-.59.96-.88,1.44-1.15.18-1.72-.45-2.03-1.46-.19-3.57-.39-7.14-.58-10.7.87-.39,1.75-.78,2.62-1.17.19,0,.38-.01.57-.02Z"/><path class="cls-109" d="m56.29,51.84c-.48.19-.95.38-1.43.58-2.41-1.6-4.11-3.96-6.24-5.87-1.31-1.17-3.16-2.1-3.09-4.31.29-.09.59-.19.88-.28.31.29.62.58.92.88,2.99,3,5.98,6,8.97,9Z"/><path class="cls-87" d="m52.82,53.29c-.2.09-.4.18-.6.28-.1.09-.2.17-.31.26-.38.12-.77.24-1.15.35-.81-1.53-2.32-2.37-3.47-3.56-.8-.84-1.17-.6-1.48.33,0-.87-.05-1.74.02-2.61.04-.46-.54-1.15.27-1.36.6-.16.84.52,1.21.87,1.84,1.81,3.68,3.63,5.52,5.44Z"/><path class="cls-24" d="m45.81,50.94c.31-.93.68-1.16,1.48-.33,1.15,1.19,2.66,2.03,3.47,3.56-.49.28-.98.56-1.46.85-.19,0-.38.01-.57.02-.54-1.09-1.48-1.76-2.63-2.58v1.67c-.61-1.02-.14-2.14-.29-3.2Z"/><path class="cls-102" d="m46.1,54.14v-1.67c1.16.82,2.1,1.49,2.63,2.58-.87.39-1.75.78-2.62,1.17,0-.69,0-1.38-.01-2.07Z"/><path class="cls-55" d="m46.69,66.92c.3,1.01.88,1.63,2.03,1.46.2.29.39.58.59.87-.64-.24-1.24-.22-1.75.3-.39-.48-.77-.97-1.16-1.45.1-.39.2-.78.29-1.17Z"/><path class="cls-81" d="m46.4,68.09c.39.48.77.97,1.16,1.45,0,.1,0,.19,0,.29-.87-.64-1.81-1.1-2.91-1.17.37-.33,1.04-.43.89-1.16.29.2.58.39.87.59Z"/><path class="cls-63" d="m44.64,68.66c1.1.06,2.04.53,2.91,1.17,0,0,0,0,0,0,0,.1,0,.2,0,.29-1.26-.3-2.53-.59-3.79-.89.29-.19.59-.38.88-.57Z"/><path class="cls-117" d="m42.11,71.86c-.03-.1-.05-.19-.08-.29.02-.08.02-.17.02-.26.09-.01.18-.03.27-.04,0,0,.03.03.03.03-.08.19-.16.37-.24.56Z"/><path class="cls-77" d="m42.32,71.27c-.09.02-.18.03-.27.04.08-.11.16-.21.25-.32.01.09.02.18.02.27Z"/><path class="cls-75" d="m49.3,37.58c0-.19,0-.39,0-.58,2.36.75,3.25,3.13,4.99,4.58,1.64,1.37,3.02,3.11,4.74,4.46.23.18.3.56.44.84,0,.19,0,.39,0,.58,0,.09,0,.19,0,.28,0,0,0,0,0,0-.09.19-.18.39-.28.58,0,.1-.01.2-.02.29-.38-.2-.84-.32-1.12-.61-2.93-2.98-5.84-5.99-8.75-8.99,0-.48,0-.97,0-1.45Z"/><path class="cls-29" d="m60.91,45.42c2.44.43,4.47,2.09,6.98,2.32,0,0,0,0,0,0,.09.19.19.39.28.58,0,.58,0,1.16,0,1.74-.09,0-.18,0-.27,0,0-.1,0-.2-.01-.29-.05-.23-.04-.61-.16-.66-2.55-.97-5.12-1.9-7.68-2.83.29-.29.58-.58.87-.87Z"/><path class="cls-32" d="m60.04,46.29c2.56.94,5.13,1.87,7.68,2.83.12.05.11.43.16.66-2.89-.46-5.4-2.01-8.14-2.92.1-.19.2-.38.3-.58Z"/><path class="cls-98" d="m59.75,46.87c2.74.91,5.24,2.45,8.14,2.92,0,.1,0,.2.01.29,0,.19-.01.37-.02.56-.08.03-.16.06-.24.08-2.56-1.51-5.37-2.38-8.18-3.25,0-.19,0-.39,0-.58.09,0,.18,0,.28,0Z"/><path class="cls-49" d="m47.27,35.84c.36-.22.25-.91.87-.88.57.32.76.86.87,1.45-.58-.1-1.17-.2-1.75-.3,0-.09.01-.19.02-.28Z"/><path class="cls-51" d="m78.31,35.55c-.08.1-.17.19-.25.29.08-.1.17-.19.25-.29Z"/><path class="cls-122" d="m72.25,62.56c.2.29.4.58.6.87-.4-.15-.59-.45-.6-.87Z"/><path class="cls-122" d="m72.84,63.42c.2.29.4.59.59.88-.41-.15-.6-.44-.59-.88Z"/><path class="cls-122" d="m73.42,64.28c.1.1.2.2.3.31-.1-.1-.2-.2-.3-.31Z"/><path class="cls-32" d="m84.73,73.02c0,.2-.02.39-.03.59-2.86-.59-5.4-2.05-8.15-2.94.01-.09.04-.19.08-.27.08-.1.17-.2.25-.29,0,0,0,0,0,0,2.62.97,5.23,1.94,7.85,2.92Z"/><path class="cls-20" d="m76.29,71.54c0,.2.02.41.03.61-.08.1-.17.19-.25.29.08-.3.15-.6.23-.89Z"/><path class="cls-35" d="m76.89,70.1c-.08.1-.17.2-.25.29.08-.1.17-.2.25-.29Z"/><path class="cls-73" d="m49.3,39.03c2.91,3,5.82,6.01,8.75,8.99.28.29.74.41,1.12.61,0,0,.03,0,.03,0,.03.5-.18,1.04.26,1.46h0c0,.09.02.19.02.29-.01.09-.02.18-.02.28-.38.11-.77.22-1.15.32-1.17-1.18-2.36-2.33-3.52-3.53-2.18-2.26-4.78-4.1-6.66-6.65,0-.09,0-.19,0-.28.55-.34.76-.87.85-1.47.1,0,.19,0,.29,0Z"/><path class="cls-16" d="m82.43,42.26c-.39-.02-.78-.03-1.17-.05-.09-.02-.18-.04-.27-.05-.69-.45-1.39-.9-2.08-1.35-.1-.2-.19-.4-.29-.59,1.84.02,3.44.76,4.96,1.72-.29.11-.58.22-.87.33,0,0-.14-.02-.14-.02h-.14Z"/><path class="cls-36" d="m78.05,39.04c-.02-.52.06-.82.72-.54,2.09.89,4.2,1.73,6.3,2.59,0,0-.02-.01-.02-.01-.1.1-.2.2-.3.3-.11.08-.21.15-.32.23-2.12-.86-4.25-1.72-6.37-2.58,0,0-.01.01-.01.01Z"/><path class="cls-129" d="m78.06,39.03c2.12.86,4.25,1.72,6.37,2.58-.07.04-.14.06-.23.05-.11.08-.22.16-.33.24-.1.01-.2.02-.3.04-1.52-.96-3.11-1.69-4.96-1.72-.1-.18-.2-.36-.29-.54-.07-.12-.15-.23-.22-.35-.01-.1-.03-.2-.04-.3Z"/><path class="cls-36" d="m83.87,41.9c.11-.08.22-.16.33-.24-.11.08-.22.16-.33.24Z"/><path class="cls-12" d="m84.74,41.38c.1-.1.2-.2.3-.3-.1.1-.2.2-.3.3Z"/><path class="cls-58" d="m48.15,40.79c1.88,2.56,4.48,4.39,6.66,6.65,1.15,1.2,2.34,2.35,3.52,3.53-.59.49-1.25.82-2.03.87-2.99-3-5.98-6-8.96-9-.3-.3-.61-.59-.92-.88.19-.11.38-.22.57-.34.2-.18.4-.36.6-.54.19-.1.38-.2.58-.3Z"/><path class="cls-61" d="m78.05,68.95c.01-.12.03-.23.04-.35.17.01.34.03.51.04.11-.08.22-.16.33-.24.1,0,.2-.02.29-.03.77.39,1.55.77,2.32,1.16,0,.1,0,.19,0,.29.1.1.19.2.29.29.2.19.39.38.59.58-1.45-.58-2.91-1.16-4.36-1.74Z"/><path class="cls-79" d="m47.27,35.84c0,.09-.01.19-.02.28-.83-.11-1.43-.63-2.02-1.16.1-.19.19-.39.29-.58,1.26-.32,1.84.17,1.75,1.46Z"/><path class="cls-36" d="m78.1,39.33c.07.12.15.23.22.35-.09-.03-.17-.05-.26-.07,0-.09.02-.19.04-.28Z"/><path class="cls-83" d="m78.9,40.81c.69.45,1.39.9,2.08,1.35,0,.22-.02.43-.03.64h0c-1.11.22-2.22.43-3.33.66-3.54.74-7.08,1.5-10.62,2.24-.19-.1-.39-.2-.58-.3-.4-.66-1.02-.85-1.74-.87,0-.1,0-.19,0-.28,4.47-.97,8.95-1.94,13.42-2.93.29-.06.53-.34.79-.52Z"/><path class="cls-64" d="m67.02,45.72c3.54-.75,7.08-1.5,10.62-2.24,1.11-.23,2.22-.44,3.33-.66-.15.74.45,1.81-.62,2.15-1.61.5-3.27.87-4.93,1.16-2.47.42-4.9.95-7.22,1.92,0-.1,0-.19,0-.29-.1-.19-.19-.39-.29-.58-.29-.48-.58-.97-.88-1.45Z"/><path class="cls-44" d="m64.7,44.55c.72.01,1.34.21,1.74.87-.47,2.46-1.53.28-2.31.29-.12-.54.26-.83.57-1.16Z"/><path class="cls-74" d="m67.89,47.17c.1.19.19.39.29.58-.1,0-.19,0-.29,0,0,0,0,0,0,0,0-.19,0-.38,0-.58Z"/><path class="cls-50" d="m49.88,66.63c0-.42.2-.71.59-.87-.2.29-.39.58-.59.87Z"/><path class="cls-50" d="m51.62,64.3c.11-.19.21-.38.32-.57-.11.19-.21.38-.32.57Z"/><path class="cls-50" d="m50.75,65.47c.1-.19.2-.38.31-.57-.1.19-.2.38-.31.57Z"/><path class="cls-50" d="m49.6,66.93c.1-.1.19-.2.29-.3-.1.1-.19.2-.29.3Z"/><path class="cls-50" d="m50.47,65.77c.09-.1.19-.2.28-.3-.09.1-.19.2-.28.3Z"/><path class="cls-50" d="m51.05,64.9c.1-.1.19-.2.29-.3-.1.1-.19.2-.29.3Z"/><path class="cls-50" d="m51.34,64.6c.09-.1.19-.2.28-.3-.09.1-.19.2-.28.3Z"/><path class="cls-55" d="m47.56,70.12c0-.1,0-.2,0-.29.09.1.19.2.28.3-.1,0-.19,0-.29,0Z"/><path class="cls-68" d="m67.88,50.63c0-.19.01-.37.02-.56.09,0,.18,0,.27,0,1.64-.29,3.33-.41,4.91-.92,2.61-.84,5.48-.78,7.89-2.28-.11,3.02-.23,6.03-.34,9.05-1.25-.49-2.49-.98-3.74-1.47-.87-.31-1.73-.61-2.6-.92-1.25-.83-2.62-1.38-4.07-1.74l-2.34-1.16Z"/><path class="cls-126" d="m76.89,54.46c1.25.49,2.49.98,3.74,1.47-.19,4.05-.38,8.1-.57,12.15-.28.1-.56.2-.84.3-.1,0-.2.02-.29.03-.11.08-.22.16-.33.24-.17-.01-.34-.03-.51-.04-.31-.55-.62-1.09-.93-1.64-1.3-2.24-.33-4.67-.48-6.99-.12-1.81-.47-3.7.2-5.51Z"/><path class="cls-74" d="m80.97,46.88c-2.41,1.5-5.28,1.44-7.89,2.28-1.57.5-3.27.62-4.91.92,0-.58,0-1.16,0-1.74,0-.1,0-.19.01-.29,2.32-.97,4.75-1.5,7.22-1.92,1.66-.28,3.32-.65,4.93-1.16,1.07-.33.48-1.41.62-2.15,0,0,0,0,0,0,.09,0,.19,0,.28,0-.12,1.35.3,2.74-.27,4.07Z"/><path class="cls-64" d="m81.24,42.81c-.09,0-.19,0-.28,0,0-.21.02-.43.03-.64.09.01.18.03.27.05,0,.2-.01.39-.02.59Z"/><path class="cls-99" d="m81.83,70.12c-.1-.1-.19-.2-.29-.29.1.1.19.2.29.29Z"/><path class="cls-123" d="m70.22,51.8c1.45.36,2.82.91,4.07,1.74-.3,3.01.32,6.05-.31,9.04-1.11-1.25-2.16-2.53-2.91-4.03.02-.63-.36-.96-.87-1.21,0,0,0,0,0,0,0-1.85.01-3.7.02-5.56Z"/><path class="cls-1" d="m73.97,62.58c.63-3,.01-6.04.31-9.04.87.31,1.73.61,2.6.92-.67,1.81-.32,3.7-.2,5.51.15,2.33-.82,4.75.48,6.99-.77-1.07-1.55-2.13-2.32-3.2.01-.62-.37-.95-.87-1.2h0Z"/><path class="cls-125" d="m70.22,51.8c0,1.85-.01,3.7-.02,5.56-1.25-1.65-2.5-3.3-3.75-4.95.03-.09.04-.18.04-.27,0,0,.01,0,.01,0,.19-.18.38-.37.57-.55.09-.11.17-.22.26-.32.11-.19.21-.37.32-.56.08-.02.16-.04.24-.08.78.39,1.56.78,2.34,1.16Z"/><path class="cls-18" d="m65.85,52.68c-2.04-1.08-4.16-1.97-6.38-2.6,0,0,0,0,0,0-.02-.54.08-.81.73-.53,2.09.89,4.21,1.73,6.31,2.6,0,0-.01,0-.01,0-.11.09-.23.18-.34.27-.1.09-.2.18-.3.27Z"/><path class="cls-123" d="m73.97,62.57c.5.25.88.58.87,1.2-.29-.4-.58-.8-.87-1.2Z"/><path class="cls-125" d="m70.19,57.34c.51.25.89.58.87,1.21-.29-.4-.58-.8-.87-1.21Z"/><path class="cls-9" d="m66.15,52.41c.11-.09.23-.18.34-.27,0,.09,0,.18-.04.27-.1,0-.2,0-.3,0Z"/><path class="cls-18" d="m59.47,50.64c0-.09,0-.19.02-.28.08.12.16.25.24.37-.09-.03-.17-.06-.26-.09Z"/><path class="cls-111" d="m51.92,53.82c.1-.09.2-.17.31-.26-.1.09-.2.17-.31.26Z"/><path class="cls-121" d="m67.32,51.27c-.09.11-.17.22-.26.32-2.54-1.2-5.1-2.36-7.87-2.98,0,0-.03,0-.03,0,0-.1,0-.2.02-.29.09-.19.18-.39.28-.59,0,0,0,0,0,0,1.03.39,2.1.71,3.08,1.2,1.59.8,3.53.86,4.78,2.33Z"/><path class="cls-27" d="m67.32,51.27c-1.25-1.47-3.2-1.54-4.78-2.33-.98-.49-2.05-.81-3.08-1.2,0-.09,0-.19,0-.28,2.81.88,5.62,1.74,8.18,3.25-.11.19-.21.37-.32.56Z"/><path class="cls-27" d="m59.46,47.74c-.09.2-.18.39-.28.59.09-.2.18-.39.28-.59Z"/><path class="cls-63" d="m68.18,48.04c0,.1,0,.19-.01.29-.09-.19-.19-.39-.28-.58.1,0,.19,0,.29,0,0,.1,0,.19,0,.29Z"/><path class="cls-9" d="m59.2,48.61c2.77.61,5.33,1.77,7.87,2.98-.19.18-.38.37-.57.55-2.11-.86-4.22-1.7-6.31-2.59-.65-.27-.75,0-.73.53-.44-.42-.24-.96-.26-1.46Z"/><path class="cls-99" d="m78.6,68.65c.11-.08.22-.16.33-.24-.11.08-.22.16-.33.24Z"/></g></svg>