<?xml version="1.0" encoding="UTF-8"?>
<svg id="Layer_1" xmlns="http://www.w3.org/2000/svg" version="1.1" viewBox="0 0 500 500">
  <!-- Generator: Adobe Illustrator 29.0.1, SVG Export Plug-In . SVG Version: 2.1.0 Build 192)  -->
  <defs>
    <style>
      .st0 {
        fill: #fff;
      }

      .st1 {
        fill: #153d49;
      }
    </style>
  </defs>
  <circle class="st0" cx="250" cy="250" r="248.5"/>
  <g>
    <path id="Path_515" class="st1" d="M261,409.5c-12.4,0-24.6-3.2-35.4-9.4l-91.6-52.9c-12.7-7.4-20.6-21-20.5-35.7v-10.1c0-22.7,18.3-41.2,41.1-41.2,7.3,0,14.4,1.9,20.7,5.5l62,35.8c14.8,8.5,33,8.5,47.7,0l44.2-25.5,40.8,23.5c16.1,9.2,21.6,29.7,12.4,45.8-3,5.2-7.2,9.4-12.4,12.4l-73.5,42.3c-10.8,6.2-23,9.4-35.4,9.4h0ZM154.5,283.2c-3.2,0-6.3.8-9,2.5-5.6,3.2-9.1,9.2-9.1,15.7v10.1c0,6.5,3.5,12.5,9.1,15.7l91.6,52.9c14.8,8.5,33,8.5,47.7,0l73.5-42.3c5-2.9,6.8-9.3,3.9-14.3-.9-1.6-2.3-3-3.9-3.9l-29.2-16.8-32.7,18.9c-21.9,12.6-48.9,12.6-70.9,0l-62-35.8c-2.8-1.6-5.9-2.5-9.1-2.5h0Z"/>
    <path id="Path_516" class="st1" d="M261,330.9c-12.4,0-24.6-3.2-35.4-9.4l-62-35.8c-8.7-5-19.8-2-24.8,6.6-1.6,2.8-2.4,5.9-2.4,9.1h-23.1v-78.6c0-22.8,18.5-41.2,41.2-41.2,7.1,0,14,1.8,20.2,5.3l62.4,36.1c14.7,8.5,32.8,8.5,47.5.1l44.5-25.6,40.8,23.6c16.1,9.2,21.6,29.7,12.4,45.8-3,5.2-7.2,9.4-12.4,12.4l-73.5,42.5c-10.8,6.2-23,9.4-35.4,9.4h-.1ZM154.5,260c7.2,0,14.3,2,20.5,5.6l62,35.8c14.8,8.5,33,8.5,47.7,0l73.5-42.5c5-2.9,6.8-9.3,3.9-14.3-.9-1.6-2.3-3-3.9-3.9l-29.2-16.8-32.9,19c-21.9,12.5-48.8,12.4-70.6-.2l-62.3-35.9c-8.8-4.8-19.8-1.7-24.7,7.1-1.5,2.7-2.3,5.7-2.3,8.7v41.6c5.6-2.8,11.8-4.2,18.1-4.3h.2Z"/>
    <path id="Path_517" class="st1" d="M261,252.4c-11.6,0-23.1-2.9-33.3-8.4l-2-1.1-62.4-36.1c-8.8-4.8-19.8-1.6-24.6,7.1-1.5,2.7-2.2,5.7-2.2,8.7h-23.1v-34.2c0-14.7,7.8-28.3,20.5-35.6l91.6-52.9c21.9-12.6,48.9-12.6,70.9,0l73.5,42.3c16.1,9.2,21.6,29.7,12.4,45.8-3,5.2-7.2,9.4-12.4,12.4l-74.8,43.1c-10.4,5.8-22.1,8.8-34,8.8h.1ZM154.4,181.4c7.1,0,14.1,1.9,20.2,5.4l63.7,36.7c14.3,7.8,31.6,7.6,45.8-.3l74.1-42.8c5-2.9,6.8-9.3,3.9-14.3-.9-1.6-2.3-3-3.9-3.9l-73.5-42.3c-14.8-8.5-33-8.5-47.7,0l-91.6,52.9c-2.8,1.5-5.1,3.8-6.6,6.6-1.1,1.9-1.9,4-2.2,6.2,5.6-2.7,11.7-4.2,17.9-4.2Z"/>
  </g>
</svg>