<?xml version="1.0" encoding="utf-8"?>
<!-- Generator: Adobe Illustrator 27.0.1, SVG Export Plug-In . SVG Version: 6.00 Build 0)  -->
<svg version="1.1" id="Layer_1" xmlns="http://www.w3.org/2000/svg" xmlns:xlink="http://www.w3.org/1999/xlink" x="0px" y="0px"
	 viewBox="0 0 128 128" style="enable-background:new 0 0 128 128;" xml:space="preserve">
<style type="text/css">
	.st0{fill:#B3E5E4;}
	.st1{fill:#5F5F5F;}
	.st2{fill:#414141;}
	.st3{fill:#EDAE50;}
	.st4{fill:#FCD38C;}
	.st5{fill:#666059;}
	.st6{fill:#45423D;}
	.st7{fill:#A9A9A9;}
	.st8{fill:#B9E1E1;}
	.st9{fill:#DCF9FB;}
	.st10{fill:#A19D98;}
	.st11{fill:#FCBE4F;}
	.st12{fill:#45423E;}
	.st13{fill:#FEFEFE;}
</style>
<circle class="st0" cx="64" cy="64" r="63.5"/>
<g>
	<path class="st1" d="M31.5,73.8c0,0,0-0.2-0.1-0.5c0-0.1-0.1-0.1-0.1-0.2c-0.2-0.4-0.1-1,0.3-1.4c0.2-0.2,0.5-0.3,0.7-0.4
		c0.8-0.4,1.5-0.1,1.8,0.7c0.1,0.3,0.2,0.3,0.5,0.3c0.4-0.1,0.8-0.2,1.1-0.3c0.6-0.1,0.6-0.1,0.6-0.7c0-0.4,0.2-0.8,0.5-0.9
		c0.6-0.3,1.2-0.3,1.8,0c0.3,0.1,0.5,0.4,0.6,0.7c0,0.2,0.1,0.3,0.1,0.5c0,0.3,0.1,0.4,0.4,0.5c0.3,0.1,0.6,0.1,1,0.2
		c0.6,0.1,0.6,0.1,0.9-0.4c0.3-0.5,0.8-0.7,1.4-0.6c0.2,0.1,0.4,0.2,0.6,0.3c0.7,0.4,0.9,1,0.6,1.8c-0.1,0.3-0.1,0.4,0.2,0.6
		c0.3,0.2,0.6,0.4,0.8,0.6c0.5,0.4,0.5,0.4,1,0c0.4-0.3,1-0.3,1.4,0c0.3,0.2,0.5,0.5,0.7,0.8c0.3,0.5,0,1.1-0.3,1.5
		c-0.8,0.5-2.8,1.9-3.3,2.2c-0.1,0.1-0.2,0.1-0.3,0c-0.8-1.4-2.3-2.2-3.7-2.8c-1.6-0.6-3.3-0.7-5-0.2c-1.9,0.6-3.5,1.7-4.6,3.4
		c-1.4,2.1-1.9,4.4-1.4,7c0.1,0.5,0.3,1.1,0.4,1.6c-0.9,0.5-3.3,1.9-3.5,2c-0.1,0.1-0.5,0.4-0.4,0.2c0-0.1,0.3-0.4,0.3-0.4
		c0.1-0.1,0.1-0.2,0.1-0.4c-0.2-0.5-0.3-1-0.5-1.5c-0.1-0.2-0.2-0.3-0.4-0.3c-0.1,0-0.2,0-0.3,0c-0.5,0-0.9-0.4-1-1
		c0-0.2,0-1.2,0-1.2c0.1-0.5,0.5-0.8,1-0.8c0.1,0,0.2,0,0.4,0c0.1,0,0.2-0.1,0.2-0.2c0-0.7,0.1-1.3,0.2-2c0-0.2,0-0.2-0.2-0.3
		c-0.2-0.1-0.3-0.1-0.5-0.2c-0.4-0.2-0.7-0.7-0.6-1.2c0.1-0.3,0.2-0.6,0.3-0.9c0.2-0.5,0.7-0.7,1.1-0.6c0.1,0,0.3,0.1,0.4,0.1
		c0.3,0.1,0.3,0.1,0.4-0.2c0.1-0.3,0.3-0.6,0.5-0.9c0.1-0.2,0.3-0.5,0.4-0.7c0.1-0.1,0.1-0.2,0-0.3c-0.1-0.1-0.2-0.2-0.4-0.3
		c-0.4-0.4-0.4-1-0.1-1.5c0.1-0.2,0.3-0.4,0.5-0.5c0.4-0.4,1-0.4,1.4-0.1c0.1,0.1,0.2,0.2,0.3,0.3c0.2,0.1,0.2,0.1,0.3,0
		c0.3-0.2,0.4-0.4,0.7-0.6C30.9,74.2,31.5,73.8,31.5,73.8z"/>
	<path class="st2" d="M50.5,81.6c-0.2,0.2-0.4,0.3-0.6,0.3c-0.1,0-0.1,0-0.2,0.1c-0.1,0-0.2,0.1-0.2,0.3c0,0.2,0.1,0.4,0.1,0.6
		c0.1,0.5,0.1,0.9,0.1,1.4c0,0.2,0,0.2,0.2,0.3c0.1,0,0.3,0,0.4,0.1c0.3,0,0.5,0.2,0.7,0.4c0.2,0.2,0.3,0.5,0.2,0.8
		c0,0.2,0,0.4-0.1,0.6c-0.1,0.7-0.6,1.1-1.2,1.1c-0.1,0-0.2,0-0.3,0c-0.1,0-0.2,0-0.2,0.2c0,0.2-0.1,0.4-0.1,0.6
		c-0.1,0.5-0.3,0.9-0.4,1.3c-0.1,0.2-0.1,0.2,0.1,0.3c0.1,0.1,0.2,0.1,0.3,0.2c0.5,0.3,0.7,0.9,0.5,1.4c-0.1,0.2-0.2,0.4-0.3,0.6
		c-0.3,0.6-0.9,0.7-1.5,0.4c-0.1-0.1-0.2-0.1-0.4-0.2c-0.1-0.1-0.2-0.1-0.2,0c-0.4,0.6-0.8,1.1-1.3,1.6c-0.1,0.1-0.1,0.2,0,0.3
		c0.1,0.1,0.2,0.3,0.3,0.4c0.3,0.5,0.2,1.1-0.2,1.5c-0.2,0.1-0.4,0.3-0.5,0.4c-0.5,0.3-1.1,0.2-1.4-0.2c-0.1-0.1-0.2-0.2-0.2-0.3
		c-0.1-0.2-0.1-0.2-0.4-0.1c-0.2,0.1-0.4,0.2-0.6,0.3c-0.4,0.2-0.7,0.3-1.1,0.5c-0.2,0.1-0.2,0.1-0.2,0.3c0,0.1,0.1,0.3,0.1,0.4
		c0.1,0.6-0.2,1.1-0.7,1.3c-0.2,0.1-0.4,0.1-0.6,0.1c-0.8,0.2-1.3-0.3-1.4-1c0-0.1,0-0.2-0.1-0.3c-0.1-0.2-0.1-0.2-0.3-0.2
		c-0.6,0-1.1,0-1.7,0c-0.4,0-0.4-0.1-0.5,0.4c-0.1,0.4-0.2,0.7-0.5,0.9c-0.1,0.1-0.2,0.1-0.3,0.2h0c-0.3,0-0.6,0-0.8,0
		c-0.2,0-0.3,0-0.5-0.1c-0.6-0.4-0.7-0.7-0.6-1.4c0-0.1,0-0.2,0-0.2c0-0.2,0-0.2-0.2-0.3c-0.6-0.2-1.2-0.5-1.7-0.8
		c-0.1-0.1-0.2-0.1-0.3,0.1c-0.1,0.1-0.2,0.3-0.3,0.4c-0.4,0.5-0.9,0.6-1.4,0.2c-0.2-0.1-0.3-0.3-0.5-0.4c-0.5-0.4-0.6-1-0.2-1.6
		c0.1-0.1,0.2-0.3,0.3-0.4c0.1-0.1,0.1-0.2,0-0.3c-0.5-0.5-0.9-1-1.3-1.5c-0.1-0.1-0.1-0.1-0.2-0.1c-0.1,0.1-0.3,0.2-0.4,0.3
		c-0.5,0.3-1.1,0.1-1.4-0.4c-0.1-0.2-0.2-0.4-0.3-0.6c-0.1-0.4-0.1-0.8,0.1-1.2l0,0c0.1-0.1,0.1-0.1,0.2-0.2l0,0
		c0.1,0,0.1-0.1,0.2-0.1c0.3-0.2,3.5-2.1,3.7-2.3"/>
	<path class="st2" d="M46.1,83.1c0-0.9-1.2-3.6-1.7-4.2c0.8-0.7,3.3-2,3.5-2.1c0.1,0-0.1-0.1,0.1,0.4c0.2,0.5,0.5,1,0.7,1.5
		c0.1,0.2,0.2,0.3,0.4,0.2c0.1,0,0.2-0.1,0.3-0.1c0.5-0.1,1,0.2,1.2,0.7c0.1,0.2,0.3,1,0.2,1.2c-0.1,0.5-0.3,0.9-0.8,1.1
		c-0.1,0-0.3,0.1-0.4,0.1c-0.1,0-0.2,0.3-0.2,0.4"/>
	<path class="st2" d="M44.2,79c-0.4,0.2-0.7,0.5-1.2,0.8c-0.3,0.2-0.4,0.3-0.4,0.3c-2-2.2-4.2-2.6-6.2-2.2c-2.8,0.6-4.8,3.2-4.9,6.4
		c0,0.7,0.1,1.3,0.2,1.9c0,0.1,0.1,0.2,0,0.4c-0.2,0.2-1.8,1.4-1.9,1.3c-0.4-1.3-0.7-2.8-0.6-4.2c0.1-1,0.3-1.9,0.6-2.8
		c0.6-1.5,1.4-2.7,2.6-3.7c1.3-1.1,2.9-1.7,4.5-1.9c1-0.1,2,0,3,0.3c1.6,0.5,2.7,1.3,4.3,3.1C44.5,79,44.5,78.9,44.2,79z"/>
	<path class="st1" d="M31.7,86.6c0.2,0,0.2,0.3,0.3,0.4c1.1,2.8,3.7,4.3,6.3,4c1.8-0.2,3.3-1,4.4-2.6c1.3-1.8,1.6-3.9,1-6.1
		c-0.2-0.6-0.5-1.2-0.8-1.8c-0.1-0.1-0.3-0.3-0.2-0.5c0.2-0.2,1.3-1,1.7-1.2c0.1,0.1,0.3,0.4,0.4,0.5c0.6,0.9,1,1.9,1.2,3
		c0.2,1,0.3,1.9,0.2,2.9c-0.1,1.1-0.4,2.2-0.9,3.2c-0.5,1.1-1.3,2.1-2.2,2.8c-0.6,0.5-1.2,0.9-1.9,1.2c-1.1,0.5-2.2,0.7-3.4,0.8
		c-0.4,0-0.8,0-1.2-0.1c-1.6-0.2-3.1-0.9-4.3-2.1c-1-0.9-1.7-1.9-2.2-3.2c0-0.1-0.1-0.2-0.1-0.3C30.1,87.8,31.6,86.8,31.7,86.6z"/>
	<path class="st3" d="M31.6,86.4c-0.3-1.2-0.3-2.4,0-3.6c0.7-3,3.3-5.1,6.2-5c1.5,0,2.9,0.6,4.1,1.6c0.3,0.2,0.8,0.9,0.9,0.9
		c0,0.1,0.1,0.1,0.1,0.2c1.1,1.6,1.5,3.5,1.1,5.4c-0.3,1.7-1.1,3-2.4,4c-1.5,1.1-3.1,1.6-4.9,1.2c-1.8-0.3-3.2-1.3-4.2-2.9
		c-0.3-0.5-0.6-1-0.8-1.6C31.7,86.5,31.7,86.4,31.6,86.4z"/>
	<path class="st2" d="M37.7,82.6c1,0,1.7,0.8,1.8,1.8c0,1-0.8,1.8-1.7,1.8c-0.8,0-1.7-0.8-1.7-1.8C36,83.4,36.9,82.6,37.7,82.6z"/>
	<path class="st4" d="M36.3,81.1c0.3,0.1,0.5,0.5,0.2,0.8c-0.2,0.3-0.5,0.5-0.8,0.7c-0.1,0.1-0.3,0.1-0.4,0c-0.4-0.1-0.5-0.7-0.2-1
		c0.1-0.1,0.2-0.3,0.4-0.4c0.1-0.2,0.3-0.2,0.5-0.2C36.1,81,36.2,81.1,36.3,81.1z"/>
	<path class="st2" d="M80.5,98.6c-0.9-0.3-1.4-1.2-1.2-1.9c0.1-0.2,0.1-0.4,0.1-0.6c0-0.2,0-0.2-0.2-0.3c-0.1,0-0.2-0.1-0.3-0.1
		c-0.8-0.3-1.5-0.7-2.2-1.1c-0.2-0.1-0.2-0.1-0.3,0.1c-0.1,0.2-0.3,0.4-0.4,0.6c-0.5,0.7-1.4,0.9-2.1,0.3c-0.2-0.2-0.4-0.3-0.7-0.5
		c-0.7-0.6-0.8-1.4-0.3-2.2c0.1-0.2,0.3-0.4,0.4-0.6c0.1-0.2,0.1-0.2,0-0.3c-0.3-0.3-0.6-0.7-0.9-1c-0.3-0.4-0.6-0.8-1-1.2
		c-0.1-0.2-0.1-0.2-0.3-0.1c-0.2,0.1-0.4,0.2-0.6,0.3c-0.7,0.4-1.5,0.2-2-0.6c-0.1-0.2-0.2-0.4-0.3-0.6c-0.1-0.1-0.1-0.2-0.2-0.3
		C68,88.2,98.7,69,98.9,69.2c0.2,0.3,0.4,0.6,0.5,0.9c0,0.1,0.1,0.2,0.1,0.3c0.1,0.3,0.3,0.6,0.4,0.9c0.1,0.1,0.1,0.2,0.3,0.1
		c0.2-0.1,0.5-0.2,0.7-0.2c0.8-0.2,1.5,0.2,1.8,1c0.1,0.3,0.2,0.6,0.3,0.9c0.2,0.9-0.2,1.7-1,1.9c-0.2,0.1-0.4,0.1-0.6,0.2
		c-0.2,0.1-0.2,0.1-0.2,0.4c0,0.3,0.1,0.6,0.1,0.8c0.1,0.7,0.1,1.4,0.2,2.1c0,0.2,0,0.2,0.2,0.3c0.2,0,0.4,0.1,0.6,0.1
		c0.9,0.1,1.4,1.1,1.3,1.9c0,0.2,0,0.4-0.1,0.6c0,0.3-0.1,0.5-0.2,0.8c-0.3,0.6-0.8,0.8-1.4,0.8c-0.2,0-0.5-0.1-0.7-0.1
		c-0.1,0-0.2,0-0.2,0.2c0,0.1-0.1,0.3-0.1,0.4c-0.2,0.8-0.5,1.6-0.8,2.4c-0.1,0.2-0.1,0.2,0.1,0.4c0.2,0.1,0.3,0.2,0.5,0.3
		c0.7,0.5,0.9,1.3,0.6,2.1c-0.1,0.2-0.2,0.4-0.3,0.5c-0.1,0.1-0.1,0.2-0.2,0.3c-0.5,0.8-1.3,1.1-2.1,0.6c-0.2-0.1-0.3-0.2-0.5-0.3
		c-0.2-0.1-0.2-0.1-0.4,0.1c-0.5,0.8-1.1,1.5-1.8,2.1c0,0-0.1,0.1-0.1,0.1c-0.1,0.1-0.1,0.2,0,0.2c0.1,0.2,0.3,0.4,0.4,0.6
		c0.5,0.8,0.4,1.7-0.3,2.2c-0.2,0.2-0.4,0.3-0.6,0.5c-0.7,0.6-1.7,0.4-2.2-0.4c-0.1-0.2-0.2-0.3-0.4-0.5c-0.1-0.1-0.2-0.1-0.3-0.1
		c-0.2,0.1-0.3,0.2-0.5,0.3c-0.7,0.4-1.3,0.7-2,0.9c-0.3,0.1-0.3,0.1-0.2,0.5c0,0.2,0.1,0.4,0.1,0.6c0.1,0.5-0.1,1-0.4,1.4
		c-0.1,0.1-0.2,0.2-0.3,0.3c-0.3,0.2-0.6,0.2-1,0.3c-0.4,0.1-0.7,0.1-1.1,0c-0.6-0.2-0.9-0.7-1-1.3c0-0.2-0.1-0.4-0.1-0.6
		c0-0.1-0.1-0.2-0.2-0.1c-0.1,0-0.2,0-0.3,0c-0.8,0.1-1.7,0-2.5,0c-0.1,0-0.2,0-0.2,0.2c0,0.2-0.1,0.4-0.1,0.6
		c-0.1,0.6-0.4,1-0.8,1.3C81.8,98.8,80.9,98.7,80.5,98.6z"/>
	<path class="st5" d="M68.1,88.4c-0.2-0.7,0-1.4,0.6-1.8c0.2-0.1,0.4-0.3,0.7-0.4c0.1-0.1,0.1-0.1,0.1-0.3c-0.1-0.3-0.2-0.6-0.3-0.9
		c-0.2-0.6-0.4-1.3-0.6-2c-0.1-0.2-0.1-0.2-0.3-0.2c-0.2,0-0.5,0.1-0.7,0.1c-0.7,0-1.4-0.3-1.6-1.1c-0.1-0.2-0.2-0.6-0.2-0.9
		c0-0.2,0-0.3,0-0.5c0-0.9,0.6-1.5,1.4-1.7c0.2,0,0.3-0.1,0.5-0.1c0.2,0,0.3-0.1,0.3-0.4c0.1-0.9,0.1-1.7,0.3-2.5
		c0-0.2,0-0.4-0.3-0.4c-0.2-0.1-0.4-0.1-0.6-0.2c-0.6-0.3-0.9-0.8-0.9-1.5c0-0.6,0.2-1.2,0.5-1.8c0.3-0.6,1-0.8,1.6-0.7
		c0.2,0,0.4,0.1,0.7,0.2c0.2,0.1,0.3,0,0.4-0.2c0.4-0.8,0.8-1.5,1.2-2.2c0.1-0.2,0.1-0.3,0-0.4c-0.1-0.2-0.3-0.3-0.4-0.5
		c-0.5-0.5-0.5-1.4-0.3-1.9c0.3-0.6,0.7-1,1.2-1.4c0.5-0.4,1.3-0.3,1.9,0.2c0.6,0.6,0.5,0.5,1.1,0c0.5-0.4,1-0.8,1.6-1.2
		c0.3-0.2,0.3-0.3,0.2-0.6c-0.1-0.2-0.1-0.3-0.2-0.5c-0.3-0.8,0-1.5,0.6-2c0.4-0.3,0.8-0.5,1.3-0.6c0.6-0.1,1.1-0.1,1.5,0.4
		c0.2,0.2,0.3,0.5,0.5,0.8c0.2,0.4,0.2,0.4,0.6,0.3c0.7-0.2,1.4-0.4,2.2-0.5c0.3-0.1,0.4-0.1,0.4-0.5c0-0.1,0-0.2,0-0.4
		c-0.1-0.9,0.6-1.5,1.2-1.7c0.4-0.1,0.9-0.1,1.3,0c0.8,0.1,1.5,0.8,1.4,1.8c0,0.1,0,0.2,0,0.3c0,0.3,0.1,0.4,0.3,0.4
		c0.8,0.1,1.5,0.3,2.3,0.5c0.2,0.1,0.3,0,0.4-0.2c0.1-0.2,0.2-0.4,0.3-0.6c0.3-0.5,0.7-0.8,1.3-0.8c0.7,0,1.3,0.3,1.9,0.7
		C93.8,61,94,61.5,94,62c0,0.4-0.1,0.8-0.3,1.1c-0.1,0.3-0.1,0.4,0.2,0.6c0.5,0.4,1,0.7,1.5,1.1c0.6,0.5,0.5,0.6,1.2,0
		c0.6-0.5,1.6-0.5,2.2,0.1c0.1,0.1,0.2,0.2,0.3,0.4c0.2,0.3,0.3,0.6,0.4,0.8c0.3,0.7,0.2,1.4-0.3,1.9c-0.2,0.2-0.3,0.3-0.5,0.5
		c-0.1,0.1-0.1,0.2,0,0.3c0.1,0.2,0.2,0.3,0.3,0.5c-2.8,1.8-4.9,3.2-5,3c-0.2-0.3-0.5-0.8-0.7-1.1c-0.9-1.1-1.9-2-3-2.6
		c-1.5-0.9-3-1.3-4.7-1.4c-0.8-0.1-1.6,0-2.3,0.1c-1.2,0.2-2.4,0.6-3.5,1.3c-0.7,0.4-1.4,0.9-2,1.5c-0.8,0.8-1.5,1.6-2.1,2.6
		c-0.5,0.9-0.9,1.8-1.2,2.8C74.2,76.2,74,77,74,77.8c-0.1,0.9-0.1,1.7,0,2.6c0.2,1.2,0.5,2.3,0.9,3.4c0.1,0.3,0.2,0.3,0,0.4
		c-0.4,0.2-6.1,4-6.8,4.4C68.1,88.4,68.1,88.4,68.1,88.4z"/>
	<path class="st3" d="M91.9,74c0.2,0.4,0.4,0.7,0.6,1.1c0.7,1.6,0.9,3.3,0.6,5c-0.3,2.2-1.3,4-2.9,5.5c-2,1.8-4.3,2.4-6.8,1.9
		c-1.9-0.4-3.5-1.4-4.8-2.9c-0.4-0.5-0.8-1.1-1.1-1.8c-0.1-0.1-0.1-0.3-0.1-0.4c0-0.1-0.1-0.2-0.1-0.3c-0.6-1.5-0.8-3.1-0.5-4.7
		c0.4-2.8,1.8-4.9,4.2-6.3c1.5-0.9,3.2-1.2,4.9-1c2,0.2,3.6,1.1,5,2.6c0.3,0.3,0.5,0.7,0.8,1C91.7,73.7,91.8,73.8,91.9,74z"/>
	<path class="st6" d="M84.8,84.3c-2.8,0-5.2-2.4-5.2-5.6c0-3.4,2.6-5.6,5.3-5.6c2.7,0,5.2,2.4,5.2,5.6
		C90.1,81.7,87.8,84.3,84.8,84.3z"/>
	<path class="st4" d="M79.7,73.2c0.1-0.2,0.3-0.4,0.5-0.6c0.3-0.2,0.5-0.2,0.8-0.1c0.4,0.2,0.5,0.6,0.2,0.9
		c-0.2,0.2-0.5,0.4-0.7,0.6c-0.4,0.3-0.9-0.1-0.9-0.6C79.6,73.4,79.7,73.3,79.7,73.2z"/>
	<path class="st3" d="M84.9,83.2c-2.3,0-4.2-1.9-4.3-4.4c0-2.5,1.8-4.5,4.2-4.5c2.5,0,4.3,2.2,4.2,4.5C89.1,81,87.3,83.2,84.9,83.2z
		"/>
	<path class="st2" d="M83.1,78.7c0-1,0.8-1.9,1.7-1.8c1,0,1.7,0.8,1.7,1.8c0,1-0.8,1.8-1.7,1.8C83.9,80.5,83.1,79.7,83.1,78.7z"/>
	<path class="st4" d="M83.3,75.9c0.3,0.2,0.3,0.5,0.1,0.8c-0.2,0.4-0.5,0.6-0.9,0.6c-0.2,0.1-0.5-0.2-0.6-0.4c0-0.5,0.2-0.8,0.5-1.1
		c0.1-0.1,0.2-0.1,0.3-0.1C83,75.7,83.2,75.7,83.3,75.9z"/>
	<path class="st5" d="M91.7,73.5c0.5-0.3,1.4-0.9,1.9-1.2c0.3-0.2,0.3-0.2,0.5,0.1c0,0.1,0.1,0.1,0.1,0.2c0.3,0.6,0.6,1.2,0.8,1.8
		c0.6,1.7,0.9,3.5,0.7,5.3c-0.1,1.2-0.4,2.4-0.8,3.6c-0.7,1.8-1.8,3.2-3.2,4.5c-0.7,0.6-1.5,1.1-2.3,1.5c-1.2,0.6-2.5,1-3.8,1
		c-1,0.1-2,0-3-0.2c-1.3-0.3-2.5-0.8-3.6-1.5c-1.1-0.7-2.1-1.7-2.9-2.8c-0.4-0.5-0.7-1.1-1-1.6c-0.1-0.1-0.1-0.2,0-0.3
		c0.3-0.2,2-1.4,2.2-1.5c0,0.1,0.1,0.1,0.1,0.2c0.2,0.5,0.5,1,0.8,1.4c1.6,2.1,3.6,3.2,6.1,3.4c1,0.1,1.9-0.1,2.8-0.4
		c1.6-0.5,2.9-1.5,4-2.8c0.7-0.9,1.2-1.9,1.5-3.1c0.3-1.1,0.4-2.3,0.3-3.4c-0.1-0.9-0.3-1.8-0.7-2.7c-0.2-0.5-0.5-1-0.8-1.4
		C91.6,73.6,91.7,73.6,91.7,73.5z"/>
	<path class="st6" d="M77.3,82.4c-0.5,0.3-1.6,1-2,1.4c-0.4,0.3-0.2,0.3-0.4,0c-0.6-1.4-1.1-3-1.1-4.9c0-1.2,0.1-2.5,0.5-3.6
		c0.5-1.8,1.5-3.4,2.7-4.8c0.6-0.7,1.4-1.3,2.2-1.8c1.1-0.7,2.4-1.3,3.7-1.5c1-0.2,2-0.2,3-0.1c1.3,0.1,2.6,0.5,3.7,1.1
		c1.2,0.6,2.3,1.5,3.2,2.5c0.4,0.5,1.3,1.5,1.1,1.6c-0.3,0.2-2.2,1.3-2.4,1.4c-0.2-0.3-0.5-0.7-0.8-1c-1.8-1.9-3.9-2.8-6.4-2.7
		c-1,0-1.9,0.3-2.8,0.7c-1.4,0.7-2.7,1.9-3.7,3.3c-0.6,1-1,2.1-1.2,3.2c-0.2,1.1-0.2,2.3,0.1,3.5C77,81.5,77.4,82.4,77.3,82.4z"/>
	<path class="st3" d="M88.2,32.8c-0.9-0.1-1.9-0.2-2.8-0.3c-1.1-0.1-2.3-0.2-3.4-0.2c-2.3,0-4.6,0-6.9,0.2c-1.4,0.1-2.7,0.3-4.1,0.5
		c-0.5,0.1-0.9,0.3-1.2,0.7c-0.1,0.1-0.2,0.3-0.3,0.4c-0.6,1-1,2.1-1.2,3.2c0,0.2-0.1,0.4-0.2,0.5C67.7,38,67.3,37.9,67,38
		c-1,0.2-2.1,0.3-3.1,0.5c-0.1,0-0.1,0-0.2,0c-0.6,0.2-1.3,0.2-1.9,0.4c0,0-0.1,0-0.1,0c-0.6,0.2-1.2,0.3-1.8,0.4
		c-0.1,0-0.3,0.1-0.4,0c-0.1-0.2-0.3-0.4-0.4-0.6c-0.2-0.4-0.5-0.9-0.7-1.3c-0.4-0.7-0.7-1.4-1-2.1c-0.1-0.3-0.1-0.6,0-0.9
		c0.1-0.1,0.1-0.2,0.2-0.3c0.3-0.4,0.6-0.7,1-0.9c0.9-0.6,1.8-1,2.8-1.4c6-1.9,17.8-3.9,27.5-1.4c0.2,0,0.2,0.1,0.2,0.3
		c-0.2,0.7-0.3,1.3-0.5,2C88.4,32.8,88.3,32.8,88.2,32.8z"/>
	<path class="st6" d="M56.9,49.2c0.4-1.9,0.8-3.9,1.3-5.8c0.4-1.4,0.7-2.8,1.2-4.2c0.7-0.2,1.4-0.3,2.1-0.5c0.1,0,0.1,0,0.2,0
		c0.1,0.1,0.1,0.3,0,0.4c-0.1,0.4-0.3,0.9-0.4,1.3c-0.8,2.6-1.4,5.2-1.9,7.9c-0.2,1.1-0.4,2.2-0.6,3.3c0,0.1,0,0.3-0.2,0.4
		c0,0.2-0.1,0.3-0.3,0.3c-0.6,0-1.3,0-1.9,0C56.4,52.3,56.8,49.9,56.9,49.2z"/>
	<path class="st6" d="M88.5,32.7c0,0.1,0,0.2-0.1,0.3c-0.2,0.9-0.4,1.7-0.6,2.6c0,0.2-0.1,0.3-0.2,0.4c-0.6,0.6-1.2,1.2-1.8,1.8
		c-0.3,0.2-0.3,0.2-0.1,0.6c0.3,1,0.6,2,0.9,3c0.6,2.2,1,4.3,1.4,6.5c0.3,1.7,0.6,3.4,0.8,5.1c0.1,0.6,0.2,1.3,0.3,1.9
		c0,0.2-0.2,0.2-0.3,0.2c-0.5-0.1-1.1-0.2-1.6-0.2c-0.1,0-0.2,0-0.3-0.1c-0.1-0.1-0.1-0.2-0.1-0.3c-0.2-1.2-0.4-2.5-0.6-3.7
		c-0.7-4.1-1.6-8.2-2.8-12.1c-0.2-0.7-0.2-0.7-0.9-0.7c0,0-0.1,0-0.1,0c-0.7-0.1-1.3-0.1-2-0.1c-1.3-0.1-2.6-0.1-3.9-0.1
		c-0.3,0-0.4,0.1-0.3,0.4c0.8,2.2,1.3,4.5,1.8,6.8c0.7,3.2,1.3,6.5,1.7,9.8c0,0.2,0.1,0.4,0,0.6c0,0,0,0.1-0.1,0.1
		c0,0-0.1,0-0.1,0.1c-0.4,0.1-0.9,0.3-1.3,0.4c-0.1,0-0.2,0-0.3-0.1c-0.1-0.1-0.1-0.3-0.1-0.5c-0.1-0.8-0.2-1.6-0.3-2.5
		c-0.5-3.1-1-6.1-1.8-9.1c-0.5-1.9-1-3.9-1.7-5.7c-0.1-0.3-0.2-0.4-0.5-0.4c-0.2,0-0.5,0.1-0.7,0.1c-0.6,0-1.2,0-1.9,0.1
		c-0.4,0-0.8,0-1.2,0.1c-0.4,0-0.9,0.1-1.3,0.1c-0.1,0-0.2,0-0.2-0.1c0.2-0.9,0.4-1.8,0.8-2.7c0.3-0.7,0.7-1.4,1.2-1.9
		c0.2-0.2,0.3-0.3,0.6-0.3c0.7-0.1,1.4-0.2,2.1-0.3c0.8-0.1,1.7-0.2,2.5-0.3c1.2-0.1,2.5-0.2,3.7-0.2c1.7,0,3.4,0,5.1,0.1
		c0.6,0,1.2,0.1,1.8,0.1C86.8,32.4,87.6,32.5,88.5,32.7L88.5,32.7z"/>
	<path class="st7" d="M88.4,32.9c0-0.1,0-0.2,0.1-0.3C88.5,32.8,88.5,32.9,88.4,32.9z"/>
	<path class="st8" d="M73.9,57.6c-1.3,0.8-2.5,1.7-3.7,2.7c-0.8,0.7-1.5,1.5-2.2,2.3c-0.4,0.5-0.8,0.9-1.1,1.4
		c-0.4,0.6-0.8,1.2-1.1,1.8c-1.1,1.9-2,3.9-2.6,6c-0.2,0.5-0.3,1.1-0.4,1.7c0,0.1,0,0.3-0.2,0.3c-1,0-1.9,0-2.9,0
		c-0.4,0-0.6-0.1-0.7-0.4c-1.3-2.2-2-4.6-2-7.2c0.6,0.1,1.2,0.1,1.8,0.1c0.6,0,1.1-0.3,1.5-0.8c0.1-0.2,0.3-0.4,0.4-0.6
		c1-1.7,1.9-3.4,2.7-5.1c0.3-0.6,0.3-1.3-0.1-1.9c-0.1-0.2-0.2-0.3-0.3-0.5c-0.2-0.3-0.4-0.6-0.5-0.9c0-0.1,0.1-0.2,0.2-0.3
		c0.6-0.4,1.1-0.8,1.7-1.2c0.2-0.1,0.3-0.1,0.4,0.1c0.2,0.2,0.3,0.5,0.5,0.7c0.2,0.4,0.5,0.7,0.7,1.1c0.2,0.2,0.5,0.3,0.7,0.1
		c0.2-0.2,0.3-0.4,0.2-0.7c0-0.1-0.1-0.2-0.2-0.3c-0.8-1.1-1.5-2.3-2.3-3.4c-0.2-0.4-0.5-0.7-0.7-1.1c-0.2-0.3-0.5-0.3-0.7-0.1
		c-0.2,0.2-0.3,0.5-0.1,0.8c0.1,0.2,0.2,0.3,0.3,0.5c0.3,0.4,0.5,0.8,0.8,1.2c0.2,0.3,0.2,0.4-0.1,0.6c-0.5,0.4-1,0.8-1.6,1.2
		c-0.1,0.1-0.2,0.1-0.3,0.1c-0.4-0.6-0.9-1.2-1.3-1.8c-0.3-0.4-0.5-0.7-0.9-0.9c0,0,0-0.1-0.1-0.1c-0.2-0.1-0.1-0.3-0.1-0.5
		c0.2-0.7,0.3-1.4,0.4-2.1c0.3-1.4,0.6-2.7,0.9-4c0.1-0.4,0.2-0.8,0.3-1.2c0.2-1,0.6-2.1,1-3c0.4-0.9,0.8-1.9,1.3-2.7
		c0.1-0.2,0.3-0.4,0.5-0.5c0.4-0.1,0.8-0.1,1.3-0.2c1-0.1,2-0.3,3-0.4c0.6-0.1,1.2-0.1,1.8-0.1c1.3-0.1,2.5-0.1,3.8-0.2
		c0.2,0,0.2,0,0.3,0.2c0.2,0.4,0.3,0.9,0.4,1.3c0.9,2.8,1.6,5.6,2.2,8.5c0.4,1.9,0.7,3.8,1,5.7c0.1,0.8,0.2,1.7,0.3,2.5
		c-0.1,0.1-0.2,0.1-0.3,0.1c-1.1,0.4-2.2,0.9-3.2,1.4C74.3,57.4,74.1,57.5,73.9,57.6z"/>
	<path class="st9" d="M58.8,52.3c-0.4,0-0.3,0-0.3-0.1c0,0,0,0,0,0c0.3-1.7,0.7-3.5,1-5.2c0.6-2.8,1.3-5.5,2.2-8.2
		c0,0,0.1-0.1,0.1-0.1c0,0,0.1,0,0.1-0.1c0.6-0.1,1.2-0.2,1.9-0.3c-0.1,0.1-0.2,0.2-0.3,0.4c-1.3,2.1-3.7,11.8-4,13.2
		c0,0.2,0,0.4,0,0.6C59.3,52.4,59,52.3,58.8,52.3z"/>
	<path class="st8" d="M79.1,52.4c-0.3-2.3-0.8-4.6-1.2-6.8c-0.6-2.7-1.2-5.3-2.1-7.9c0-0.1-0.1-0.2-0.1-0.3c0.1,0,0.2,0,0.3,0
		c2,0,4,0.1,6,0.2c0.1,0,0.2,0,0.3,0c-0.1,0.2-0.1,0.4,0,0.6c0.8,1.3,1.3,2.8,1.7,4.3c0.4,1.6,0.8,3.2,1.1,4.8
		c0.5,2.3,0.8,4.6,1.1,6.9c0,0.2,0,0.3-0.1,0.4c-0.4,0-0.7,0-1.1,0c-0.6,0-1.2,0-1.9,0.1c-0.7,0-1.3,0.1-2,0.2
		c-0.5,0.1-1.1,0.2-1.6,0.3C79.4,54.2,79.2,53.3,79.1,52.4z"/>
	<path class="st9" d="M83,37.6c0.1,0,0.2,0,0.2,0.2c0.1,0.2,0.1,0.4,0.2,0.6c1,3.2,1.8,6.6,2.4,9.9c0.3,1.5,0.5,2.9,0.7,4.4
		c0.1,0.6,0.2,1.2,0.2,1.8c0,0.1-0.7,0-0.7,0c0-0.3,0-0.5-0.1-0.8c-0.2-1.2-0.4-2.4-0.5-3.7c-0.1-0.8-0.3-1.6-0.4-2.3
		c-0.2-0.8-0.3-1.5-0.5-2.3c-0.2-0.8-0.4-1.5-0.6-2.2c-0.2-0.7-0.4-1.4-0.6-2c-0.4-1.1-0.9-2.2-1.4-3.3c-0.2-0.4-0.2-0.4,0.1-0.4
		C82.1,37.6,82.7,37.6,83,37.6z"/>
	<path class="st2" d="M48.9,78.9c-0.2-0.4-0.9-1.5-1.3-1.9c0.2-0.2,0.3-0.2,0.4-0.3c0.4-0.4,0.4-0.9,0.2-1.4
		c-0.2-0.3-0.4-0.5-0.7-0.8c-0.4-0.3-0.9-0.3-1.3,0c-0.1,0.1-0.3,0.2-0.4,0.3c-0.1,0.1-0.2,0.1-0.3,0c-0.5-0.4-1-0.8-1.5-1.2
		c-0.2-0.1-0.2-0.1-0.1-0.3c0.1-0.1,0.1-0.3,0.2-0.4c0.2-0.5,0-1-0.4-1.3c-0.3-0.2-0.6-0.3-0.9-0.4c-0.5-0.1-0.9,0.1-1.1,0.5
		c-0.1,0.2-0.2,0.3-0.2,0.5c-0.1,0.2-0.1,0.2-0.3,0.2c-0.3-0.1-0.6-0.2-0.9-0.2c-0.3-0.1-0.6-0.1-0.9-0.2c-0.2,0-0.2-0.1-0.3-0.3
		c0-0.2,0-0.4,0-0.6c-0.1-0.5-0.3-0.8-0.8-0.9c-0.4-0.1-0.7-0.1-1.1,0c-0.5,0.1-0.8,0.5-0.8,1.1c0,0.2,0,0.3,0,0.5
		c0,0.2-0.1,0.2-0.2,0.3c-0.1,0-0.1,0-0.2,0c-0.6,0.1-1.1,0.2-1.7,0.4c-0.2,0.1-0.3,0-0.4-0.2c-0.1-0.1-0.1-0.3-0.2-0.4
		c-0.2-0.4-0.7-0.6-1.1-0.5c-0.3,0.1-0.6,0.2-0.9,0.4c-0.1,0.1-0.2,0.2-0.3,0.3c-0.1,0.1-0.1,0.2-0.2,0.4c-0.1,0.3,0,0.6,0.1,0.9
		c0.2,0.5,0.3,0.5-0.2,0.7c0,0-0.1,0.1-0.1,0.1c0,0-0.1,0-0.1,0.1c-0.1-0.2-0.3-0.4-0.4-0.6c-0.1-0.1-0.1-0.2-0.2-0.3
		c-0.4-0.8-0.8-1.5-1.2-2.3c-0.1-0.2,0.1-0.3,0.2-0.5c0.8-0.9,1.4-2,1.9-3.1c0.3-0.7,0.5-1.4,0.8-2.1c0-0.2,0.1-0.3,0.3-0.3
		c0,0,0,0,0.1,0c0.6,0.4,1.1,0.9,1.4,1.5c0,0.1,0.1,0.1,0.2,0.2c0.3,0.5,0.5,0.9,0.8,1.4c0.1,0.3,0.2,0.3,0.5,0.2
		c0.1,0,0.3-0.1,0.4-0.1c0.1,0,0.2,0.1,0.3,0.3c0.2,0.3,0.5,0.5,0.8,0.4c0.9-0.1,1.8,0,2.7,0.1c1.9,0.3,3.7,0.9,5.3,1.9
		c1.6,1,3,2.2,4.1,3.7c0.8,1.1,1.5,2.3,2.1,3.5c0.4,1,0.7,2,0.9,3c0,0.1,0.1,0.2-0.1,0.3c-0.4,0-0.8,0.1-1.2,0.1c-0.1,0-0.1,0-0.2,0
		c-0.1,0,0.6-0.5,0.1-1.8C50.2,78.4,49.6,78.9,48.9,78.9"/>
	<path class="st6" d="M53.7,81c-0.3-1.7-0.9-3.3-1.7-4.9c-0.7-1.3-1.5-2.5-2.5-3.6c-0.9-0.9-1.8-1.8-2.8-2.5
		c-0.1-0.1-0.3-0.2-0.3-0.4c0-0.1,0-0.2,0-0.2c0.4-0.8,0.8-1.6,1.4-2.3c0.3-0.4,0.6-0.7,1.1-0.9c0.2-0.1,0.4-0.2,0.6,0
		c0.1,0.1,0.1,0.3,0.1,0.4c0,0.7,0,1.3,0,2c0,0.4,0.1,0.5,0.4,0.6c0.1,0,0.2,0.1,0.3,0.1c0.5,0,1,0.1,1.5,0.2c1.1,0.1,2.2,0,3.3-0.3
		c0.5-0.1,0.6-0.3,0.6-0.8c0-0.5,0-1.1,0-1.6c0-0.7,0-0.7,0.7-0.7c0,0,0.4,0,0.6,0c0.1,0.1,0.1,0.2,0.1,0.3c0,0.1,0,0.2,0,0.3
		c0.1,1,0.2,2,0.5,3c0.3,1.2,0.8,2.4,1.5,3.5c0.2,0.3,0.4,0.4,0.7,0.4c0.8,0,1.6,0,2.4,0c0.2,0,0.3,0,0.4,0.1c0.2,0.2,0.1,0.4,0,0.5
		c-0.1,0.8,0.3,1.7,1,2.1c0.5,0.3,1,0.1,1.1-0.5c0.1-0.7,0.2-1.4,0.4-2.1c0.5-2,1.2-3.9,2.2-5.7c0.5-0.9,1-1.8,1.7-2.5
		c0.1-0.1,0.2-0.3,0.3-0.4c0.7-0.9,1.4-1.7,2.2-2.4c0.8-0.8,1.7-1.5,2.7-2.1c0.7-0.5,1.4-0.9,2.1-1.2c1.1-0.5,2.1-1,3.3-1.3
		c1.4-0.4,2.8-0.6,4.2-0.7c1-0.1,2.1-0.1,3.1,0c1.7,0.2,3.4,0.6,5,1.2c3.2,1.2,6.1,3.3,8.4,6c0.3,0.3,0.3,0.3,0,0.6
		c0,0-0.4,0.4-0.6,0.6c-0.2,0.2-0.2,0.2-0.4,0c-0.2-0.2-0.3-0.4-0.5-0.5c-0.5-0.6-1.5-0.6-2.1,0c-0.1,0.2-0.3,0.3-0.5,0.4
		c-0.1,0.1-0.2,0.1-0.3,0c-0.1-0.1-0.2-0.2-0.2-0.2c-0.6-0.5-1.3-1.1-2-1.5c-0.2-0.1-0.2-0.2-0.1-0.3c0.1-0.2,0.2-0.5,0.3-0.7
		c0.1-0.3,0.1-0.6,0.1-0.8c-0.1-0.5-0.4-0.9-0.8-1.1c-0.3-0.1-0.5-0.3-0.8-0.4c-0.8-0.3-1.6,0-1.9,0.8c-0.1,0.2-0.2,0.4-0.3,0.6
		c-0.1,0.2-0.1,0.2-0.3,0.2c-0.9-0.3-1.7-0.4-2.6-0.6c-0.3,0-0.3-0.1-0.3-0.4c0-0.2,0-0.4,0-0.6c0-0.8-0.5-1.4-1.2-1.5
		c-0.4-0.1-0.8,0-1.2,0c-0.2,0-0.3,0.1-0.5,0.1c-0.5,0.3-0.8,0.7-0.8,1.3c0,0.2,0,0.5,0,0.7c0,0.3,0,0.3-0.3,0.3
		c-0.2,0-0.3,0.1-0.5,0.1c-0.7,0.1-1.5,0.3-2.2,0.5c-0.2,0.1-0.2,0.1-0.3-0.1c-0.1-0.2-0.2-0.5-0.3-0.7c-0.1-0.2-0.2-0.4-0.4-0.5
		c-0.4-0.3-0.9-0.4-1.4-0.2c-0.3,0.1-0.7,0.3-1,0.4c-0.7,0.4-0.9,1.2-0.7,1.9c0.1,0.2,0.1,0.4,0.2,0.5c0.2,0.4,0.2,0.4-0.2,0.6
		c-0.5,0.3-0.9,0.6-1.3,1c-0.3,0.2-0.5,0.5-0.8,0.7c-0.1,0.1-0.2,0.1-0.3,0c-0.2-0.2-0.4-0.3-0.5-0.5c-0.5-0.5-1.3-0.5-1.8-0.1
		c-0.4,0.3-0.7,0.7-1,1.1c-0.3,0.5-0.3,1.4,0.2,1.9c0.2,0.2,0.4,0.4,0.6,0.6c0.2,0.1,0.2,0.2,0.1,0.3c-0.5,0.8-1,1.7-1.4,2.6
		c-0.1,0.2-0.1,0.2-0.3,0.2c-0.3-0.1-0.5-0.2-0.8-0.2c-0.8-0.2-1.4,0.3-1.7,1c-0.1,0.3-0.2,0.6-0.3,0.9c-0.1,0.7,0,1.3,0.6,1.7
		c0.2,0.2,0.5,0.3,0.8,0.3c0.3,0.1,0.4,0.1,0.3,0.5c-0.2,0.9-0.2,1.8-0.3,2.7c0,0.3-0.1,0.4-0.3,0.4c-0.2,0-0.4,0-0.7,0.1
		c-0.4,0.1-0.8,0.3-1,0.7c-0.2,0.4-0.2,0.8-0.2,1.2c0.1,0.6,0.1,0.6-0.5,0.6c-2.4,0-4.7,0-7.1,0c-1.5,0-3,0-4.5,0
		C53.7,81.4,53.7,81.2,53.7,81z"/>
	<path class="st10" d="M53.9,81.8c0,0.3,0.1,0.6,0.1,0.9c0,0.6-0.6,1.1-1.2,0.9c-0.4-0.1-0.6-0.4-0.6-0.9c-0.1-0.5-0.2-1.5-0.2-1.6
		c-0.2-1.1-0.5-2.1-0.9-3.1c-1-2.4-2.6-4.5-4.6-6.1c-1.7-1.4-3.6-2.3-5.8-2.8C40,69.1,39.2,69,38.4,69c-0.5,0-0.9,0-1.4,0
		c-0.5,0-0.8-0.1-1-0.5c-0.2-0.4-0.1-0.9,0.2-1.2c5.4-1.1,10.2,2.2,10.3,2.3c0.1,0.1,0.1,0.1,0.2,0.2c1.4,1,2.7,2.2,3.7,3.6
		c1.6,2.1,2.7,4.4,3.3,7c0.1,0.3,0.1,0.6,0.2,1C53.9,81.4,53.9,81.7,53.9,81.8z"/>
	<path class="st11" d="M58.5,79.2c-1,0-1.9,0-2.9,0c-0.2,0-0.4-0.1-0.6-0.2c-0.2-0.1-0.3-0.3-0.4-0.6c-0.1-0.4,0-0.9,0.3-1.3
		c0.2-0.2,0.5-0.3,0.8-0.3c1.6,0,3.3,0,4.9,0c0.2,0,0.5,0,0.7,0c0.3,0,0.6,0.1,0.9,0.4c0.3,0.4,0.3,0.8,0.1,1.2s-0.5,0.7-1,0.7
		C60.4,79.2,59.4,79.2,58.5,79.2L58.5,79.2z"/>
	<path class="st3" d="M89.3,55c0.7,0.2,1.5,0.3,2.2,0.6c2.7,0.9,5.2,2.3,7.4,4.1c0.7,0.5,1.3,1.1,1.9,1.7c0.4,0.4,0.8,0.9,1.2,1.4
		c0.4,0.5,0.7,0.9,1.1,1.4c0.3,0.5,0.4,1.2,0,1.7c-0.6,0.7-1.5,0.7-2,0c-0.2-0.3-0.4-0.6-0.7-0.9c-0.1-0.2-0.2-0.3-0.4-0.5
		c-0.1-0.1-0.2-0.2-0.3-0.3c-2.8-3.3-6.5-5.5-10.5-6.5c-1.3-0.3-2.6-0.5-4-0.5c-1.1,0-2.3,0-3.4,0.2c-1.3,0.2-2.5,0.5-3.8,1
		c-0.7,0.3-1.4,0.6-2,0.9c-0.5-0.2-1-0.5-1.3-1c-0.3-0.3-0.4-0.7-0.4-1.1c0.1,0,0.1-0.1,0.2-0.1c0.9-0.5,3.4-1.5,3.4-1.5
		c0.5-0.1,1-0.3,1.5-0.4c2.2-0.6,5.1-0.8,7.2-0.6c0.2,0,0.1,0,0.2,0c0.6,0.1,1.2,0.1,1.8,0.3c0.1,0,0.1,0,0.2,0
		C89,54.9,89.2,54.9,89.3,55z"/>
	<path class="st3" d="M67.7,63.9c0.2,0.1,0.4,0,0.5,0.2c0.3,0.4,0.5,0.7,0.6,1.2c-0.1,0.1-0.1,0.2-0.2,0.2c-1.2,1.6-2.1,3.4-2.8,5.2
		c-0.6,1.6-1,3.2-1.2,4.9c-0.1,0.6-0.6,0.9-1.1,0.7c-0.7-0.3-1-0.9-1.2-1.6c-0.1-0.4,0-0.7,0.1-1.1c0-0.1,0.1-0.3,0.1-0.4
		c0.2-1.1,0.6-2.2,1-3.3c0.4-1.2,0.9-2.3,1.5-3.4c0.5-0.9,1.1-1.8,1.7-2.7C67.1,63.8,67.4,63.8,67.7,63.9z"/>
	<path class="st4" d="M66.8,63.9c0.3-0.6,0.8-1,1.2-1.5c0.4-0.4,0.7-0.8,1.1-1.2c0.6-0.6,1.2-1.1,1.8-1.6c0.7-0.6,1.4-1.1,2.1-1.6
		c0.4-0.3,0.8-0.6,1.3-0.8c0,0.1,0.1,0.5,0.5,1.1c0.5,0.7,1.1,0.8,1.2,0.9c-0.1,0-0.2,0.1-0.2,0.1c-1.8,1-3.5,2.2-4.9,3.7
		c-0.7,0.7-1.4,1.5-2,2.3c0-0.1-0.5-1.6-2-1.5"/>
	<path class="st3" d="M28.7,70.1c-0.8-1-1.3-2.1-1.6-3.3c-0.2-0.7-0.2-1.4-0.2-2c0-0.5,0.2-0.9,0.5-1.3c0.4-0.4,0.8-0.9,1.2-1.3
		c0.2-0.2,0.5-0.5,0.7-0.7c0.5-0.6,1-1.2,1.6-1.7c0.8-0.8,1.6-1.7,2.4-2.5c0.4-0.4,0.8-0.7,1.3-0.9c0.5-0.2,1-0.4,1.5-0.5
		c1.2-0.5,2.5-0.8,3.8-1.2c0.8-0.2,1.5-0.4,2.3-0.6c0.7-0.1,1.3-0.3,2-0.4c1-0.2,1.9-0.3,2.9-0.5c0.7-0.1,1.5-0.2,2.2-0.3
		c0.4-0.1,0.8-0.1,1.2-0.2c0.2,0.1,0.1,0.3,0.1,0.5c0,1.6,0,3.1,0,4.7c0,0.1,0,0.3,0,0.4c-0.1,0.2-0.3,0.2-0.5,0.2
		c-2,0.4-3.9,0.7-5.9,1.3c-2.5,0.7-4.9,1.4-7.2,2.5c-1.5,0.7-3.1,1.4-4.4,2.6c-0.1,0-0.1,0.1-0.1,0.2c-0.1,0.2-0.1,0.4-0.2,0.6
		c-0.5,1.6-1.3,3.1-2.3,4.5c-0.2,0.2-0.4,0.5-0.6,0.7C29.1,70.6,28.9,70.4,28.7,70.1z"/>
	<path class="st12" d="M61.7,55.3c0.6-0.5,1.2-0.9,1.9-1.4c0.2-0.1,0.2-0.1,0-0.3c-0.3-0.4-0.6-0.9-0.9-1.3
		c-0.1-0.2-0.2-0.3-0.3-0.5c-0.1-0.2-0.1-0.3-0.1-0.5s0.1-0.3,0.3-0.4c0.3-0.2,0.6-0.2,0.9,0.1c0.1,0.1,0.1,0.2,0.2,0.3
		c0.9,1.4,1.9,2.8,2.8,4.2c0.1,0.1,0.2,0.2,0.2,0.4c0.2,0.4,0,0.9-0.4,1c-0.3,0.1-0.5,0-0.7-0.3c-0.3-0.4-0.5-0.8-0.8-1.2
		c-0.1-0.2-0.2-0.3-0.3-0.5c-0.1-0.1-0.1-0.2-0.2-0.1c0,0-0.1,0-0.1,0.1l-1.8,1.3L61.7,55.3z"/>
	<path class="st3" d="M56.8,52.2c0.3,0,0.6,0,1,0c0.3,0,1.4,0,1.7,0.1c0.2,0.2,0.5,0.3,0.7,0.5c0.6,0.8,1.2,1.6,1.7,2.4
		c0.2,0.3,0.5,0.7,0.6,1.1c0.3,0.3,0.5,0.7,0.7,1.1c0.5,0.8,0.5,1.7,0.1,2.5c-0.3,0.5-0.5,1.1-0.8,1.6c-0.6,1.2-1.3,2.4-2,3.6
		c-0.5,0.9-1.2,1.3-2.1,1.2c-0.5,0-1,0-1.5-0.1c-0.2,0-0.3,0-0.5,0c-0.1,0-0.2,0-0.3,0c-0.4,0-0.5-0.2-0.4-0.6c0-0.2,0-0.4,0-0.5
		c0-1.5-0.1-3.1-0.1-4.6c0-0.3-0.1-0.5-0.4-0.7c-0.2-0.1-0.3-0.1-0.4-0.2c0,0,0-0.1,0-0.1c-0.1-0.4,0-0.8,0.1-1.1
		c0.1-0.1,0.3-0.1,0.5-0.1c0.6,0,1.3,0,1.9-0.1c0.7,0,1.4-0.1,2.2,0c0.8,0,1.5,0,2.2,0c0,0,0.1,0,0.1,0c0.1,0,0.1,0,0.1-0.1
		c0-0.1,0-0.1-0.1-0.1c-0.1-0.1-0.2-0.1-0.3-0.1c-1.5,0-3.1,0-4.6,0c-0.5,0-1.1,0-1.6,0c-0.1,0-0.3,0-0.4-0.1c0-0.1,0-0.1,0-0.2
		c0-1.6,0-3.3,0-4.9c0-0.1,0-0.2,0.1-0.3C55.1,52.3,56.6,52.2,56.8,52.2z"/>
	<path class="st3" d="M35.1,68.5c-0.1,0-0.2,0-0.2-0.1c-0.2-0.6-0.5-1.2-0.8-1.7c0-0.2-0.1-0.3-0.1-0.5c0-0.6-0.1-1.2,0.3-1.7
		c0.2-0.2,0.3-0.4,0.5-0.6c0.6-0.4,1.2-0.7,1.8-1c1.3-0.6,2.6-1.2,4-1.6c1.7-0.6,3.4-1.1,5.2-1.5c1.4-0.3,2.9-0.6,4.4-0.9
		c0.1,0,0.2,0,0.3,0.1l0,0.6c0,0.1,0,0.2-0.1,0.2c-0.1,0.1-0.2,0.1-0.3,0.2c-0.3,0.1-0.4,0.3-0.4,0.6c0,0.8-0.1,1.6-0.1,2.4
		c0,0.9,0,1.7,0,2.6c0,0.1,0,0.2,0,0.4c0,0.1,0,0.2-0.2,0.2c-0.5,0.1-0.9,0.4-1.2,0.8c-0.4,0.5-0.8,1-1.1,1.6
		c-0.2,0.4-0.4,0.8-0.6,1.1c0,0-0.1,0-0.1,0c-0.2-0.1-0.4-0.2-0.5-0.3c-0.9-0.6-2-1-3-1.4c-3-1.1-6-0.8-6.3-0.6
		c-0.3,0.1-0.5,0.3-0.5,0.7c0,0.1-0.1,0.2-0.2,0.3C35.6,68.4,35.4,68.4,35.1,68.5z"/>
	<path class="st4" d="M33.5,65.9c-0.3-0.4-0.6-0.7-1-1c-0.1-0.1,0-0.2,0.1-0.3c0.2-0.2,0.5-0.4,0.8-0.6c0.9-0.6,1.8-1.1,2.8-1.5
		c1-0.5,2-0.9,3.1-1.3c1.3-0.5,2.6-0.9,3.9-1.3c0.5-0.1,1.1-0.3,1.6-0.4c0.7-0.2,1.4-0.3,2.1-0.5c0.7-0.1,1.4-0.3,2-0.4
		c0.5-0.1,1-0.2,1.6-0.3c0,0.2,0,0.4,0,0.6c-0.1,0-0.1,0-0.2,0c-0.9,0.2-1.7,0.3-2.6,0.5c-1.5,0.3-3,0.7-4.4,1.1
		c-1.2,0.3-2.3,0.7-3.4,1.1c-1.6,0.6-3.1,1.2-4.6,2c-0.3,0.2-0.6,0.4-0.8,0.7c-0.2,0.2-0.4,0.5-0.4,0.8c0,0.3,0,0.7,0,1
		c0,0.2,0,0.3,0,0.5C33.9,66.4,33.7,66.2,33.5,65.9z"/>
	<path class="st4" d="M56.8,57.8c1.6,0,3.2,0,4.8,0c0.1,0,0.3,0,0.4,0.1c0.1,0.1,0.2,0.1,0.2,0.3c0,0.1-0.1,0.2-0.2,0.2
		c-0.1,0-0.3,0-0.4,0c-1.7-0.1-5-0.1-6.7,0.1l0-0.6C55.5,57.8,56.1,57.8,56.8,57.8z"/>
	<path class="st13" d="M27.7,64.5c0.1-0.3,0.2-0.4,0.5-0.4c0,0,0.1,0,0.1,0c0.4,0,0.7,0,1.1,0.1c0.8,0.1,1.5,0.4,2.2,0.8
		c0.2,0.1,0.2,0.1,0.1,0.4c-0.2,0.7-0.5,1.3-0.8,2c-0.4,0.9-0.9,1.7-1.4,2.4c-0.1,0.2-0.1,0.2-0.3,0c-0.6-0.8-1.1-1.7-1.4-2.6
		c-0.2-0.5-0.3-1.1-0.3-1.7C27.6,65,27.6,64.7,27.7,64.5z"/>
	<path class="st2" d="M50.5,51.4c1.1-1.2,2.3-1.9,3.7-2.6c0,0,0,0,0.1,0c0.1,0.3,0.2,0.5,0.4,0.8c0.1,0.2,0.2,0.4,0.1,0.7
		c0,0.6,0.1,9.3,0,9.4l0,0c-0.1,0.1-0.2,0.1-0.3,0c-1.3-0.2-2.5-0.3-3.8,0.1c-0.1,0-0.2,0.1-0.3,0c0-1.1,0.1-5,0.1-6.8
		C50.5,52.4,50.5,51.8,50.5,51.4z"/>
	<path class="st10" d="M53.4,48.8c-0.5,0.2-0.9,0.5-1.3,0.8c-0.4,0.3-0.7,0.6-1.1,0.9c-0.1,0.1-0.2,0.2-0.3,0.1c0,0,0,0,0-0.1
		c0-1.7,0-2.7,0-3.7c0-0.2,0-0.3-0.1-0.4c-0.6-0.8-1.3-1.5-2.2-2c0,0,0-0.1,0-0.1c0,0,0-0.1,0.1-0.1C48.9,44,49,43.5,49,43
		c0.1-1.2,0.2-2.3-0.3-3.4c0-0.1-0.1-0.2,0.1-0.2c0.8,0.5,1.5,1.1,2.1,1.8c1,1,2,2.2,2.9,3.4c0.2,0.2,0.3,0.5,0.3,0.8
		c0,0.8,0,1.7,0,2.5c0,0.3,0,0.6,0.1,0.8l0,0h0C53.9,48.6,53.7,48.7,53.4,48.8z"/>
	<path class="st10" d="M48.9,40.8c0,0.1,0,0.3,0,0.4c0.1,1.1,0,2.1-0.6,3.1c0,0.1-0.1,0.2-0.2,0.1c-0.1-0.2-0.2-0.3-0.2-0.5
		c-0.2-0.9-0.3-1.8-0.3-2.7c0-0.5,0.1-1.1,0.2-1.6c0-0.2,0.1-0.4,0.3-0.5C48.7,39.6,48.9,40.2,48.9,40.8z"/>
	<path class="st10" d="M55.4,59.8c0.2,0.1,0.3,0.3,0.3,0.5c0,0.8,0,1.6,0,2.4c0,0.1,0.1,3.4,0.1,3.7c0,0.2,0,0.4,0,0.6
		c0,0.5,0,1,0,1.5c0,0.4-0.1,0.5-0.5,0.7c-1.6,0.5-3.9,0.6-5.6,0.1c-0.2-0.1-0.3-0.2-0.3-0.5c0-0.7,0-1.5,0-2.2c0-0.1,0-0.6,0-0.7
		c0-1.8,0-3.5,0-5.3c0-0.3,0.1-0.5,0.4-0.7C51.6,59.2,52.9,59,55.4,59.8z"/>
	<path class="st6" d="M55.3,64.5c0,0.4,0,0.9,0,1.3c0,0.9,0,1.7,0,2.6c0,0.3,0,0.3-0.3,0.3c-1.6,0.4-3.2,0.5-4.8,0.1
		c-0.3-0.1-0.3-0.1-0.3-0.3c0,0,0-0.1,0-0.1c0-1.9-0.1-6.9,0-7.5c0-0.3,0-0.4,0.3-0.5c1.4-1,4-0.6,4.9-0.3c0.2,0.1,0.3,0.1,0.3,0.4
		c0,0.1,0,0.1,0,0.2L55.3,64.5L55.3,64.5z"/>
	<path class="st9" d="M54.1,48.9c-0.4,0.2-1,0.5-1.3,0.7c-0.6,0.4-1.2,0.9-1.6,1.4c-0.2,0.2-0.3,0.4-0.6,0.4c0-0.2,0-0.4,0.2-0.6
		c0.1-0.1,0.1-0.1,0.1-0.2c0.1-0.1,0.3-0.2,0.4-0.3c0.5-0.6,1.1-1,1.8-1.4c0.3-0.2,0.6-0.3,0.9-0.4c0.3-0.1,0.4,0,0.4,0.2
		C54.3,48.9,54.2,48.9,54.1,48.9z"/>
	<path class="st9" d="M48.8,39.4c0.5,0.9,0.6,4.2-0.4,5.2c-0.1,0-0.2-0.1-0.2-0.2c0.6-1.1,0.6-1.9,0.6-2.7c0-1.2-0.2-1.9-0.5-2.2
		c-0.2-0.2-0.2-0.3-0.1-0.3C48.5,39.1,48.6,39.1,48.8,39.4z"/>
</g>
</svg>
