<?xml version="1.0" encoding="UTF-8"?><svg id="Layer_1" xmlns="http://www.w3.org/2000/svg" viewBox="0 0 128 128"><defs><style>.cls-1{fill:#101010;}.cls-1,.cls-2{stroke-width:0px;}.cls-2{fill:#fff;}</style></defs><circle class="cls-1" cx="64" cy="64" r="63.5"/><g id="FARTCOIN"><path class="cls-2" d="m59.56,55.64h18.7v.36c-.1,0-.2,0-.3,0-6.04,0-12.08,0-18.12,0-.34,0-.35,0-.28-.36Z"/><path class="cls-2" d="m17.39,55.99v-.34h14.04c.1.32.08.36-.25.36-4.5,0-9,0-13.5,0-.09,0-.18,0-.29-.01Z"/><path class="cls-2" d="m54.86,55.64v.34h-9.38v-.34h9.38Z"/><path class="cls-2" d="m80.62,55.64h9.35v.36c-.09,0-.18,0-.26,0-2.94,0-5.88,0-8.82,0-.32,0-.32,0-.27-.36Z"/><path class="cls-2" d="m104.04,55.64v.36c-.1,0-.19,0-.27,0-2.94,0-5.89,0-8.83,0-.32,0-.32,0-.27-.36h9.37Z"/><path class="cls-2" d="m29.09,60.29v.36c-.11,0-.2,0-.3,0-2.92,0-5.84,0-8.77,0-.35,0-.35,0-.28-.36h9.35Z"/><path class="cls-2" d="m40.82,55.64v.35c-.09,0-.18.01-.27.01-2.17,0-4.34,0-6.5,0-.32,0-.32,0-.26-.36h7.03Z"/><path class="cls-2" d="m31.43,69.98v-.34h7.03c.06.35.05.36-.26.36-2.17,0-4.34,0-6.51,0-.08,0-.16,0-.26-.01Z"/><path class="cls-2" d="m15.05,69.97v-.34h4.69v.34h-4.69Z"/><path class="cls-2" d="m71.25,60.29v.36c-.1,0-.19,0-.27,0-1.38,0-2.75,0-4.13,0-.32,0-.32,0-.26-.36h4.67Z"/><path class="cls-2" d="m115.75,56v-.36h4.66c.06.36.06.36-.26.36-1.38,0-2.75,0-4.13,0-.08,0-.16,0-.28,0Z"/><path class="cls-2" d="m57.04,67.08c.08.26.05.41-.22.49-.42.13-.82.3-1.3.49.47.17.86.34,1.27.47.26.08.35.21.25.5-.18-.07-.36-.14-.54-.21-.43-.17-.87-.33-1.3-.52-.08-.03-.17-.16-.17-.24,0-.08.08-.21.16-.25.61-.26,1.22-.49,1.85-.74Z"/><path class="cls-2" d="m78.11,62.43c.09.28.03.42-.23.5-.42.13-.82.3-1.29.48.47.18.87.35,1.28.47.28.08.32.24.24.51-.65-.26-1.29-.51-1.93-.77-.05-.02-.09-.14-.09-.22,0-.07.05-.19.1-.21.63-.26,1.26-.51,1.91-.76Z"/><path class="cls-2" d="m44.59,60.86h-.34v-3.91h.34v3.91Z"/><path class="cls-2" d="m107.45,56.94h.35v3.91h-.35v-3.91Z"/><path class="cls-2" d="m107.8,65.56h-.35v-3.91h.35v3.91Z"/><path class="cls-2" d="m79.36,66.29h.34v3.91h-.34v-3.91Z"/><path class="cls-2" d="m46.92,74.9h-.35v-3.91h.35v3.91Z"/><path class="cls-2" d="m37.58,74.9h-.36v-3.9c.36-.06.36-.06.36.26,0,1.2,0,2.4,0,3.64Z"/><path class="cls-2" d="m42.22,74.9h-.34v-3.91c.11,0,.21-.01.34-.02v3.93Z"/><path class="cls-2" d="m42.22,56.95v3.9h-.35c0-.08-.01-.17-.01-.26,0-1.13,0-2.25,0-3.38,0-.27.09-.34.37-.27Z"/><path class="cls-2" d="m58.29,71c.28-.08.37.01.36.29-.01,1.11,0,2.23,0,3.34,0,.09,0,.18-.01.28h-.35v-3.9Z"/><path class="cls-2" d="m75.01,71v3.89h-.35c0-.08-.01-.17-.01-.25,0-1.13,0-2.25,0-3.38,0-.26.08-.35.37-.26Z"/><path class="cls-2" d="m75.01,66.3v3.89h-.35c0-.08-.01-.17-.01-.25,0-1.13,0-2.25,0-3.38,0-.32,0-.32.36-.26Z"/><path class="cls-2" d="m65.31,66.3c.28-.08.37.01.36.28-.01,1.12,0,2.24,0,3.37,0,.08,0,.16-.01.25h-.34v-3.9Z"/><path class="cls-2" d="m60.97,66.3v3.9h-.35c0-.08-.01-.17-.01-.25,0-1.13,0-2.25,0-3.38,0-.27.09-.34.37-.27Z"/><path class="cls-2" d="m44.6,70.2h-.36v-3.88c.33-.09.36-.07.36.25,0,1.12,0,2.25,0,3.37,0,.08,0,.16,0,.27Z"/><path class="cls-2" d="m37.58,65.56h-.36v-3.9c.36-.05.36-.05.36.27,0,1.12,0,2.25,0,3.37,0,.08,0,.16,0,.27Z"/><path class="cls-2" d="m44.6,65.56h-.36v-3.88c.33-.09.36-.07.36.25,0,1.11,0,2.23,0,3.34,0,.09,0,.18,0,.29Z"/><path class="cls-2" d="m58.29,61.65c.29-.08.37.02.37.29-.01,1.11,0,2.23,0,3.34,0,.09,0,.18-.01.27h-.35v-3.9Z"/><path class="cls-2" d="m60.96,65.56h-.34c0-.09-.01-.18-.01-.26,0-1.13,0-2.25,0-3.38,0-.27.09-.34.36-.27v3.91Z"/><path class="cls-2" d="m65.67,65.56h-.36v-3.88c.33-.09.36-.07.36.25,0,1.12,0,2.25,0,3.37,0,.08,0,.16,0,.26Z"/><path class="cls-2" d="m91.08,61.65c.29-.08.37.02.36.29-.01,1.11,0,2.23,0,3.34,0,.09,0,.18-.01.28h-.35v-3.9Z"/><path class="cls-2" d="m91.08,56.95c.28-.08.37.01.36.29-.01,1.11,0,2.23,0,3.34,0,.09,0,.18-.01.28h-.35v-3.9Z"/><path class="cls-2" d="m41.91,61.64h.33v3.91h-.33v-3.91Z"/><path class="cls-2" d="m49.26,65.56h-.33v-3.92h.33v3.92Z"/><path class="cls-2" d="m41.91,66.28h.33v3.91h-.33v-3.91Z"/><path class="cls-2" d="m53.15,64.94c.66-1.15.65-2.3,0-3.44.26-.09.37,0,.48.2.58,1.03.58,2.04-.01,3.06-.14.24-.14.24-.48.18Z"/><path class="cls-2" d="m110.79,57.11c-.04.08-.07.16-.1.24-.42.9-.85,1.8-1.25,2.7-.11.25-.25.32-.53.23.03-.09.06-.18.1-.26.42-.89.84-1.78,1.24-2.68.12-.26.26-.33.54-.24Z"/><path class="cls-2" d="m69.08,74.33c.21-.45.4-.87.6-1.3.25-.54.52-1.08.75-1.63.11-.26.26-.33.54-.24-.04.08-.07.16-.1.24-.42.89-.84,1.78-1.24,2.68-.11.25-.24.35-.55.25Z"/><path class="cls-2" d="m8.2,74.33c.21-.45.4-.87.6-1.3.25-.54.52-1.08.76-1.63.11-.26.26-.33.54-.24-.04.09-.07.17-.11.24-.42.89-.84,1.78-1.24,2.68-.11.25-.24.35-.55.25Z"/><path class="cls-2" d="m17.13,57.11c-.38.82-.75,1.61-1.12,2.4-.09.19-.19.37-.26.56-.09.27-.27.29-.52.22.04-.1.08-.19.12-.28.41-.88.84-1.76,1.23-2.65.11-.26.26-.34.55-.25Z"/><path class="cls-2" d="m33.95,65c.21-.46.42-.91.63-1.35.24-.52.49-1.04.73-1.56q.15-.32.54-.29c-.03.08-.06.15-.09.22-.42.91-.86,1.82-1.26,2.74-.12.27-.27.31-.55.24Z"/><path class="cls-2" d="m94.84,64.99c.27-.58.54-1.16.81-1.73.18-.39.39-.77.54-1.17.11-.28.26-.35.55-.27-.04.1-.08.2-.12.29-.41.88-.83,1.75-1.22,2.63-.11.25-.24.36-.55.25Z"/><path class="cls-2" d="m63.96,71.17c-.23.49-.45.97-.68,1.46-.23.49-.46.97-.68,1.46q-.15.31-.53.26c.04-.09.07-.18.11-.27.41-.88.83-1.76,1.23-2.65.11-.24.23-.37.55-.25Z"/><path class="cls-2" d="m76.11,60.29c.04-.1.08-.19.12-.27.41-.88.84-1.76,1.23-2.65.11-.26.26-.34.54-.25-.03.08-.07.16-.1.23-.42.91-.85,1.81-1.26,2.73-.11.25-.27.3-.53.22Z"/><path class="cls-2" d="m115.49,66.45c-.49,1.05-.96,2.07-1.45,3.09-.05.1-.25.12-.39.18-.02-.03-.04-.05-.06-.08.03-.08.06-.15.1-.23.42-.89.85-1.78,1.24-2.69.12-.27.27-.35.56-.27Z"/><path class="cls-2" d="m103.78,66.46c-.28.61-.56,1.21-.84,1.81-.17.37-.37.74-.52,1.12-.1.26-.26.34-.54.24.04-.09.07-.18.11-.27.41-.88.83-1.76,1.23-2.65.11-.25.24-.36.55-.25Z"/><path class="cls-2" d="m19.91,69.63c.22-.47.43-.92.64-1.37.24-.51.49-1.02.71-1.54.11-.27.26-.36.55-.26-.07.16-.15.32-.22.48-.38.81-.77,1.62-1.13,2.44-.11.25-.25.36-.55.25Z"/><path class="cls-2" d="m104.22,64.99c.04-.1.08-.19.12-.28.41-.89.84-1.77,1.23-2.66.12-.27.28-.31.54-.25-.04.09-.07.18-.11.26-.42.89-.85,1.78-1.24,2.69-.11.25-.24.33-.54.25Z"/><path class="cls-2" d="m115.49,57.11c-.34.72-.67,1.44-1,2.15-.12.26-.26.51-.36.78-.1.27-.27.33-.54.25.04-.1.08-.2.12-.3.41-.87.83-1.73,1.22-2.61.11-.25.24-.38.56-.28Z"/><path class="cls-2" d="m115.93,64.99c.1-.21.19-.42.28-.62.36-.77.73-1.53,1.07-2.31.11-.26.26-.33.54-.24-.12.26-.23.52-.35.78-.33.71-.68,1.42-1,2.14-.11.25-.24.36-.54.25Z"/><path class="cls-2" d="m94.84,74.34c.14-.3.26-.58.4-.86.32-.68.65-1.36.95-2.05.11-.26.25-.37.55-.28-.03.07-.05.14-.08.21-.42.91-.86,1.82-1.26,2.74-.12.27-.27.31-.55.25Z"/><path class="cls-2" d="m85.48,69.63c.18-.4.36-.78.54-1.16.27-.58.56-1.16.81-1.76.11-.27.26-.36.55-.27-.26.55-.51,1.1-.77,1.65-.2.42-.41.84-.59,1.27-.1.25-.24.36-.55.25Z"/><path class="cls-2" d="m108.45,71.16c-.46.99-.92,1.95-1.35,2.92-.11.24-.24.37-.54.26.03-.08.07-.17.11-.25.41-.88.84-1.76,1.23-2.66.12-.26.26-.36.56-.27Z"/><path class="cls-2" d="m99.53,74.34c.03-.08.06-.16.1-.24.42-.89.85-1.78,1.25-2.68.11-.25.25-.35.54-.26-.03.08-.06.17-.1.25-.42.89-.84,1.78-1.24,2.68-.11.26-.26.34-.54.25Z"/><path class="cls-2" d="m80.36,71.16c-.42.89-.82,1.76-1.23,2.62-.05.1-.1.19-.13.29-.08.25-.23.37-.54.26.03-.08.06-.17.1-.25.41-.88.84-1.76,1.23-2.66.12-.26.26-.36.56-.27Z"/><path class="cls-2" d="m17.58,64.99c.03-.08.07-.16.1-.24.42-.89.85-1.78,1.25-2.68.11-.25.24-.36.54-.26-.03.07-.05.15-.09.22-.42.9-.85,1.8-1.25,2.71-.11.26-.25.34-.54.25Z"/><path class="cls-2" d="m12.9,64.99c.04-.09.07-.18.11-.27.41-.88.83-1.75,1.23-2.63.11-.25.24-.38.55-.28-.02.06-.05.13-.08.2-.42.91-.86,1.82-1.27,2.73-.12.26-.26.33-.54.25Z"/><path class="cls-2" d="m70.98,61.81c-.06.14-.12.28-.18.41-.39.84-.8,1.68-1.18,2.53-.11.25-.25.32-.52.23.03-.09.06-.18.1-.26.42-.89.84-1.78,1.24-2.68.12-.26.26-.33.54-.24Z"/><path class="cls-2" d="m24.6,74.33c.04-.08.07-.16.11-.24.41-.88.84-1.76,1.23-2.66.11-.26.24-.38.55-.28-.03.08-.07.17-.1.25-.42.89-.84,1.78-1.25,2.68-.11.26-.26.33-.54.24Z"/><path class="cls-2" d="m14.79,71.16c-.29.63-.58,1.25-.87,1.87-.16.35-.34.69-.48,1.05-.1.26-.26.34-.54.25.03-.07.06-.15.09-.22.42-.9.85-1.8,1.26-2.71.12-.26.26-.36.55-.25Z"/><path class="cls-2" d="m33.52,57.11c-.26.56-.51,1.1-.76,1.64-.2.44-.43.87-.61,1.32-.11.27-.27.29-.53.22.04-.09.07-.17.11-.25.41-.88.84-1.76,1.23-2.66.11-.26.25-.37.56-.27Z"/><path class="cls-2" d="m101.43,57.11c-.41.87-.81,1.73-1.21,2.59-.06.12-.13.24-.17.37-.08.28-.27.29-.53.22.06-.13.11-.24.16-.35.4-.85.81-1.7,1.19-2.56.11-.26.25-.37.56-.27Z"/><path class="cls-2" d="m55.05,57.11c.29-.09.43,0,.54.26.39.89.82,1.77,1.23,2.66.04.08.07.16.11.24-.35.1-.37.09-.5-.19-.43-.91-.85-1.82-1.28-2.72-.04-.08-.07-.16-.1-.24Z"/><path class="cls-2" d="m101.41,61.81s-.02.1-.05.15c-.45.97-.91,1.93-1.35,2.9-.11.25-.29.14-.5.18.05-.12.08-.2.11-.28.42-.89.85-1.78,1.25-2.68.12-.26.26-.36.54-.27Z"/><path class="cls-2" d="m26.94,69.64c.04-.09.07-.17.1-.25.41-.89.84-1.77,1.24-2.66.11-.25.24-.38.55-.28-.02.06-.05.14-.08.2-.42.91-.86,1.82-1.26,2.74-.12.26-.27.33-.54.25Z"/><path class="cls-2" d="m66.74,69.65c.23-.5.45-.96.67-1.43.23-.5.48-.98.69-1.49.11-.27.26-.36.54-.28-.01.04-.02.08-.04.12-.45.98-.91,1.95-1.36,2.93-.11.25-.29.16-.5.15Z"/><path class="cls-2" d="m71.43,69.64c.2-.43.39-.84.58-1.24.26-.56.54-1.11.78-1.68.11-.27.26-.36.55-.26-.27.59-.54,1.17-.81,1.75-.18.39-.36.78-.55,1.17q-.15.31-.55.26Z"/><path class="cls-2" d="m82.7,66.46c-.39.84-.78,1.66-1.16,2.49-.07.15-.15.29-.2.44-.08.28-.27.32-.54.25.04-.1.07-.19.11-.27.41-.88.83-1.75,1.22-2.64.11-.26.25-.38.56-.28Z"/><path class="cls-2" d="m73.34,57.11c-.28.6-.55,1.19-.83,1.78-.18.38-.37.76-.53,1.15-.1.26-.26.34-.54.25.03-.08.06-.16.1-.24.42-.9.85-1.8,1.25-2.71.12-.27.27-.31.54-.23Z"/><path class="cls-2" d="m94.41,66.46c-.37.79-.73,1.57-1.09,2.35-.09.2-.21.4-.28.61-.09.28-.27.29-.53.23.04-.09.07-.17.11-.25.41-.88.84-1.76,1.23-2.66.11-.26.25-.38.56-.28Z"/><path class="cls-2" d="m80.35,57.11c-.03.07-.06.15-.09.22-.42.9-.85,1.8-1.25,2.71-.11.25-.25.35-.54.26.03-.08.06-.16.1-.24.42-.89.85-1.78,1.25-2.68.12-.26.26-.36.54-.27Z"/><path class="cls-2" d="m92.5,60.3c.2-.44.39-.85.59-1.26.26-.55.52-1.1.78-1.65q.15-.32.55-.28c-.22.48-.44.95-.66,1.42-.23.5-.47,1.01-.71,1.51q-.15.31-.55.27Z"/><path class="cls-2" d="m87.81,64.99c.44-.93.86-1.84,1.28-2.75.03-.07.07-.13.09-.2.08-.29.27-.31.54-.24-.34.72-.67,1.44-1,2.15-.12.26-.26.51-.36.78-.1.26-.26.34-.55.25Z"/><path class="cls-2" d="m108.9,69.63c.25-.53.48-1.04.72-1.55.22-.46.45-.92.64-1.39.11-.27.26-.33.54-.24-.05.12-.11.23-.16.34-.4.86-.81,1.71-1.2,2.58-.11.25-.24.35-.55.25Z"/><path class="cls-2" d="m83.15,60.29c.04-.1.07-.18.1-.26.42-.89.85-1.78,1.25-2.68.12-.26.26-.33.54-.24-.04.08-.07.17-.1.24-.42.9-.85,1.8-1.26,2.71-.11.26-.26.29-.53.23Z"/><path class="cls-2" d="m99.08,66.46c-.04.09-.07.17-.11.25-.42.89-.85,1.78-1.24,2.68-.11.25-.24.33-.53.25.04-.1.07-.19.11-.28.41-.89.84-1.77,1.23-2.66.12-.26.26-.33.53-.24Z"/><path class="cls-2" d="m90.18,74.34c.03-.08.06-.17.09-.24.42-.89.85-1.78,1.25-2.68.11-.26.25-.34.53-.26-.03.07-.05.15-.08.22-.42.91-.86,1.82-1.27,2.73-.11.25-.25.32-.52.24Z"/><path class="cls-2" d="m111.24,74.33c.13-.29.25-.55.38-.82.33-.7.67-1.39.97-2.1.11-.26.25-.35.54-.26-.04.09-.07.17-.11.26-.42.89-.84,1.78-1.25,2.68-.11.25-.24.33-.54.23Z"/><path class="cls-2" d="m57.39,60.29c.04-.09.07-.18.11-.26.41-.89.84-1.76,1.23-2.66.11-.26.25-.34.54-.26-.03.08-.06.16-.1.24-.42.9-.85,1.8-1.26,2.71-.11.25-.25.32-.52.23Z"/><path class="cls-2" d="m10.54,69.64c.04-.1.08-.19.12-.28.41-.89.84-1.77,1.23-2.66.12-.26.26-.33.54-.24-.16.35-.32.7-.49,1.05-.29.63-.6,1.24-.87,1.88-.11.25-.24.33-.54.25Z"/><path class="cls-2" d="m29.29,60.29c.05-.12.09-.23.14-.33.41-.87.82-1.73,1.21-2.61.11-.25.24-.33.53-.24-.03.08-.06.17-.1.25-.42.89-.84,1.78-1.24,2.68-.11.25-.24.33-.53.24Z"/><path class="cls-2" d="m52.25,74.34c-.29.09-.42,0-.53-.25-.4-.9-.83-1.79-1.25-2.68-.04-.08-.07-.16-.11-.25.27-.09.42-.02.53.24.4.9.83,1.79,1.24,2.68.04.08.07.16.11.26Z"/><path class="cls-2" d="m55.05,71.15c.29-.08.43,0,.55.27.39.89.82,1.77,1.23,2.66.04.08.07.16.11.25-.27.09-.41.02-.53-.24-.4-.91-.84-1.8-1.26-2.7-.04-.08-.07-.16-.1-.24Z"/><path class="cls-2" d="m83.16,74.33c.04-.09.07-.18.11-.26.41-.89.84-1.77,1.23-2.66.11-.26.26-.34.54-.25-.03.08-.06.16-.1.24-.42.9-.85,1.8-1.26,2.71-.11.25-.25.32-.52.23Z"/><path class="cls-2" d="m29.29,64.99c.04-.1.08-.19.12-.28.41-.89.84-1.76,1.23-2.66.11-.25.25-.33.52-.24-.03.08-.05.16-.09.23-.42.9-.85,1.8-1.26,2.71-.11.24-.24.34-.53.24Z"/><path class="cls-2" d="m29.29,74.34c.04-.09.07-.18.11-.27.41-.89.84-1.77,1.23-2.66.12-.26.26-.33.54-.25-.03.08-.07.16-.1.24-.42.9-.85,1.8-1.26,2.71-.11.25-.26.31-.53.23Z"/><path class="cls-2" d="m64.41,74.33c.04-.1.08-.19.12-.28.41-.89.84-1.76,1.23-2.66.11-.25.25-.32.53-.25-.03.08-.05.16-.09.23-.42.9-.85,1.8-1.26,2.71-.11.24-.24.34-.53.24Z"/><path class="cls-2" d="m83.15,64.99c.04-.09.07-.18.11-.27.41-.89.84-1.77,1.23-2.66.11-.26.25-.34.54-.26-.03.08-.06.16-.1.24-.42.9-.85,1.8-1.26,2.71-.11.25-.25.31-.53.24Z"/><path class="cls-2" d="m113.14,61.81c-.19.4-.36.78-.54,1.16-.28.59-.57,1.18-.83,1.78-.11.25-.25.32-.52.24.04-.09.07-.18.11-.26.41-.89.84-1.77,1.23-2.66.11-.26.25-.35.55-.25Z"/><path class="cls-2" d="m92.32,74.67v-.33h2.35v.33h-2.35Z"/><path class="cls-2" d="m54.86,74.34v.33h-2.35v-.33h2.35Z"/><path class="cls-2" d="m38.45,74.67v-.33h2.35v.33h-2.35Z"/><path class="cls-2" d="m108.72,55.64v.33h-2.35v-.33h2.35Z"/><path class="cls-2" d="m94.68,64.99v.33h-2.35v-.33h2.35Z"/><path class="cls-2" d="m52.52,69.63c.08.29-.01.37-.28.36-.68-.02-1.36,0-2.05,0v-.36h2.33Z"/><path class="cls-2" d="m50.17,65.35v-.36c.78,0,1.55,0,2.32,0,.09.33.07.36-.26.36-.6,0-1.2,0-1.8,0-.09,0-.17,0-.26,0Z"/><path class="cls-2" d="m19.73,64.98h2.33v.36c-.12,0-.24,0-.36,0-.56,0-1.13,0-1.69,0q-.32,0-.28-.36Z"/><path class="cls-2" d="m10.37,74.33c.77,0,1.54,0,2.3,0,.1.32.08.36-.24.36-.68,0-1.36,0-2.06,0v-.36Z"/><path class="cls-2" d="m29.08,74.69c-.74,0-1.46,0-2.17,0-.3,0-.15-.21-.17-.36h2.34v.36Z"/><path class="cls-2" d="m80.61,60.28h2.34v.36c-.23,0-.46,0-.69,0-.45,0-.9,0-1.35,0q-.33,0-.3-.36Z"/><path class="cls-2" d="m45.49,74.33c.08.3-.02.37-.29.36-.59-.02-1.18,0-1.77,0-.09,0-.17,0-.27-.01v-.35h2.33Z"/><path class="cls-2" d="m59.55,60.29h2.33v.36c-.52,0-1.04,0-1.56,0-.16,0-.32-.01-.48,0-.26.03-.37-.07-.29-.37Z"/><path class="cls-2" d="m61.89,74.33v.36c-.52,0-1.03,0-1.53,0-.18,0-.36,0-.54,0-.31,0-.32-.01-.25-.36h2.33Z"/><path class="cls-2" d="m68.91,74.33v.36c-.74,0-1.47,0-2.2,0-.28,0-.11-.22-.18-.36h2.38Z"/><path class="cls-2" d="m80.62,74.33h2.33v.36c-.36,0-.72,0-1.07,0-.33,0-.66,0-.99,0-.32,0-.32,0-.26-.36Z"/><path class="cls-2" d="m50.17,60.65v-.36c.78,0,1.55,0,2.32,0,.09.33.07.35-.26.36-.6,0-1.2,0-1.8,0-.09,0-.17,0-.26,0Z"/><path class="cls-2" d="m97.02,74.69v-.36h2.31c.1.33.08.36-.25.36-.68,0-1.36,0-2.06,0Z"/><path class="cls-2" d="m111.06,64.98v.34h-2.33v-.34h2.33Z"/><path class="cls-2" d="m78.26,74.33c.09.29,0,.38-.28.37-.67-.02-1.34,0-2.03,0v-.36h2.31Z"/><path class="cls-2" d="m111.06,74.33v.34h-2.33v-.34h2.33Z"/><path class="cls-2" d="m74.48,63.94h.56c.15.53-.18.9-.4,1.3-.04.07-.25.05-.42.08.09-.48.17-.91.26-1.37Z"/></g></svg>