<?xml version="1.0"?>
<svg width="1080" height="1080" xmlns="http://www.w3.org/2000/svg" xmlns:svg="http://www.w3.org/2000/svg" enable-background="new 0 0 495.1 331.4" version="1.1" xml:space="preserve">
 <g class="layer">
  <title>Layer 1</title>
  <ellipse cx="540" cy="540" fill="#ffffff" id="svg_5" rx="535" ry="535"/>
  <g id="svg_1">
   <path d="m134.95,540.08c0,-49.91 40.42,-90.32 90.32,-90.32s90.32,-40.42 90.32,-90.32s40.58,-90.48 90.48,-90.48c49.91,0 90.32,40.42 90.32,90.32s-40.42,90.32 -90.32,90.32s-90.32,40.42 -90.32,90.32s40.42,90.32 90.32,90.32s90.32,40.42 90.32,90.32s-40.42,90.32 -90.32,90.32s-90.32,-40.42 -90.32,-90.32s-40.42,-90.32 -90.32,-90.32s-90.48,-40.25 -90.48,-90.16" id="svg_2"/>
   <path d="m945.05,540.08c0,49.91 -40.42,90.32 -90.32,90.32s-90.32,40.42 -90.32,90.32s-40.42,90.32 -90.32,90.32s-90.32,-40.42 -90.32,-90.32s40.42,-90.32 90.32,-90.32s90.32,-40.42 90.32,-90.32s-40.42,-90.32 -90.32,-90.32s-90.32,-40.42 -90.32,-90.32s40.25,-90.48 90.16,-90.48s90.32,40.42 90.32,90.32s40.42,90.32 90.32,90.32c50.07,0.16 90.48,40.58 90.48,90.48" id="svg_3"/>
   <path d="m628.77,540.08c0,48.43 -39.27,87.87 -87.87,87.87s-87.87,-39.27 -87.87,-87.87c0,-48.43 39.27,-87.87 87.87,-87.87c48.43,0 87.87,39.27 87.87,87.87" id="svg_4"/>
  </g>
 </g>
</svg>