<?xml version="1.0" encoding="utf-8"?>
<!-- Generator: Adobe Illustrator 25.4.1, SVG Export Plug-In . SVG Version: 6.00 Build 0)  -->
<svg version="1.1" id="Layer_1" xmlns="http://www.w3.org/2000/svg" xmlns:xlink="http://www.w3.org/1999/xlink" x="0px" y="0px"
	 width="128px" height="128px" viewBox="0 0 128 128" style="enable-background:new 0 0 128 128;" xml:space="preserve">
<style type="text/css">
	.st0{fill:#EFF4F4;}
	.st1{fill:#6868FC;}
	.st2{fill:#77E3EF;}
	.st3{fill:#4ACBDC;}
	.st4{fill:#07ABC5;}
	.st5{fill:#7C7CFF;}
</style>
<circle class="st0" cx="64" cy="64" r="62"/>
<g id="Layer_10">
	<g>
		
			<rect x="63.6" y="12.1" transform="matrix(1 -1.177619e-03 1.177619e-03 1 -2.852434e-02 7.534654e-02)" class="st1" width="0.7" height="24.2"/>
	</g>
	<g>
		
			<rect x="98.1" y="71.9" transform="matrix(0.5073 -0.8618 0.8618 0.5073 -23.703 126.1954)" class="st1" width="0.7" height="23.9"/>
	</g>
	<g>
		
			<rect x="17.6" y="83.5" transform="matrix(0.8618 -0.5073 0.5073 0.8618 -38.4319 26.6064)" class="st1" width="23.9" height="0.7"/>
	</g>
	<g>
		<path class="st2" d="M63.9,64.5c-0.1,0-0.2,0-0.3-0.1L39.6,50.5c-0.2-0.1-0.3-0.3-0.3-0.5c0-0.2,0.1-0.4,0.3-0.5l24.1-13.9
			c0.2-0.1,0.4-0.1,0.6,0l24.1,14c0.2,0.1,0.3,0.3,0.3,0.5c0,0.2-0.1,0.4-0.3,0.5L64.2,64.5C64.1,64.5,64,64.5,63.9,64.5z
			 M40.9,50.1l23,13.3l23-13.2l-23-13.3L40.9,50.1z"/>
	</g>
	<g>
		<path class="st3" d="M63.9,92.2c-0.1,0-0.2,0-0.3-0.1L39.6,78.3c-0.2-0.1-0.3-0.3-0.3-0.5l0-27.8c0-0.2,0.1-0.4,0.3-0.5
			c0.2-0.1,0.4-0.1,0.5,0l24.1,13.9c0.2,0.1,0.3,0.3,0.3,0.5v27.7c0,0.2-0.1,0.4-0.3,0.5C64.1,92.2,64,92.2,63.9,92.2z M40.4,77.5
			l23,13.2V64.3L40.4,51L40.4,77.5z"/>
	</g>
	<g>
		<path class="st4" d="M63.9,92.2c-0.1,0-0.2,0-0.3-0.1c-0.2-0.1-0.3-0.3-0.3-0.5V64c0-0.2,0.1-0.4,0.3-0.5l24.1-13.9
			c0.2-0.1,0.4-0.1,0.5,0c0.2,0.1,0.3,0.3,0.3,0.5v27.8c0,0.2-0.1,0.4-0.3,0.5L64.2,92.1C64.1,92.2,64,92.2,63.9,92.2z M64.5,64.3
			v26.4l23-13.1V51.1L64.5,64.3z"/>
	</g>
	<g>
		<path class="st5" d="M64,117.3L17.8,90.6V37.4L64,10.7l46.1,26.6v53.3L64,117.3z M20.4,89.2L64,114.3l43.6-25.2V38.8L64,13.7
			L20.4,38.8V89.2z"/>
	</g>
	<g>
		<path class="st5" d="M64,65.5L18.5,39.3c-0.6-0.4-0.8-1.1-0.5-1.7c0.4-0.6,1.1-0.8,1.7-0.5L64,62.6L108.2,37
			c0.6-0.4,1.4-0.1,1.7,0.5c0.4,0.6,0.1,1.4-0.5,1.7L64,65.5z"/>
	</g>
	<g>
		<path class="st5" d="M64,117.1c-0.7,0-1.3-0.6-1.3-1.3V64c0-0.7,0.6-1.3,1.3-1.3c0.7,0,1.3,0.6,1.3,1.3v51.7
			C65.3,116.5,64.7,117.1,64,117.1z"/>
	</g>
</g>
</svg>
