<?xml version="1.0" encoding="utf-8"?>
<!-- Generator: Adobe Illustrator 24.2.2, SVG Export Plug-In . SVG Version: 6.00 Build 0)  -->
<svg version="1.1" id="Layer_1" xmlns="http://www.w3.org/2000/svg" xmlns:xlink="http://www.w3.org/1999/xlink" x="0px" y="0px"
	 viewBox="0 0 50 50" style="enable-background:new 0 0 50 50;" xml:space="preserve">
<style type="text/css">
	.st0{fill:#EFF4F4;}
	.st1{fill:#4D5FAB;}
	.st2{fill:#215EAC;}
	.st3{fill:#40B4E2;}
	.st4{fill:#16A0DB;}
</style>
<circle class="st0" cx="25" cy="25" r="24"/>
<g>
	<path class="st1" d="M26.1,30.7V44c0,0.7-0.4,1-1,0.7l-7.5-4.1c-0.6-0.4-1-1.1-1-1.8V25.9c0.1,0.1,0.2,0.2,0.3,0.2L26.1,30.7z"/>
	<path class="st2" d="M33.3,15.2V5.9c0-0.6-0.4-0.8-0.8-0.6l-13.8,7.1c-1.5,0.8-1.9,0.9-2,1.8c0.1-0.4,0.4-0.6,0.8-0.4l10.4,5.3
		l4.6-2.4C33,16.4,33.3,15.8,33.3,15.2"/>
	<path class="st3" d="M16.7,24.1c0.1,0.4,0.4,0.8,0.8,1.1l15,7.7c0.5,0.2,0.8,0,0.8-0.6v-9.3c0-0.6-0.3-1.1-0.8-1.5l-4.6-2.4
		l-10.4,5.3C17.1,24.6,16.8,24.4,16.7,24.1"/>
	<path class="st4" d="M16.7,14.1c0,0.3,0,0.6,0,1v8.6c0,0.1,0,0.2,0,0.3c0.1,0.3,0.4,0.5,0.8,0.3l10.4-5.3l-10.4-5.3
		C17.1,13.5,16.8,13.7,16.7,14.1"/>
</g>
</svg>
