<?xml version="1.0" encoding="utf-8"?>
<!-- Generator: Adobe Illustrator 25.1.0, SVG Export Plug-In . SVG Version: 6.00 Build 0)  -->
<svg version="1.1" id="Layer_1" xmlns="http://www.w3.org/2000/svg" xmlns:xlink="http://www.w3.org/1999/xlink" x="0px" y="0px"
	 width="128px" height="128px" viewBox="0 0 128 128" style="enable-background:new 0 0 128 128;" xml:space="preserve">
<style type="text/css">
	.st0{fill:#FEFEFE;}
	.st1{fill:#9B1C2E;}
</style>
<g>
	<g>
		<circle class="st0" cx="64" cy="64" r="62.4"/>
	</g>
	<g>
		<path class="st1" d="M38.2,91.3c1.5,0,2.8-0.8,3.5-2.1l9.2-17.4H36.7c-2.1,0-3.9-1.8-3.9-3.9v-7.8c0-2.1,1.8-3.9,3.9-3.9h22.5
			l17.4-33.1c0.7-1.3,2-2.1,3.5-2.1h29.3C98,9,81.9,1.5,64,1.5C29.5,1.5,1.5,29.5,1.5,64c0,9.8,2.3,19.1,6.3,27.3H38.2z"/>
		<path class="st1" d="M89.8,36.7c-1.5,0-2.8,0.8-3.5,2.1l-9.2,17.4h14.2c2.1,0,3.9,1.8,3.9,3.9v7.8c0,2.1-1.8,3.9-3.9,3.9H68.9
			l-17.4,33.1c-0.7,1.3-2,2.1-3.5,2.1H18.6C30,119,46.1,126.5,64,126.5c34.5,0,62.5-28,62.5-62.5c0-9.8-2.3-19.1-6.3-27.3H89.8z"/>
	</g>
</g>
</svg>
