<?xml version="1.0" encoding="UTF-8"?>
<svg id="Layer_1" xmlns="http://www.w3.org/2000/svg" version="1.1" xmlns:xlink="http://www.w3.org/1999/xlink" viewBox="0 0 500 500">
  <!-- Generator: Adobe Illustrator 29.0.1, SVG Export Plug-In . SVG Version: 2.1.0 Build 192)  -->
  <defs>
    <style>
      .st0 {
        fill: url(#linear-gradient);
      }
    </style>
    <linearGradient id="linear-gradient" x1="-26.4" y1="-7.7" x2="433" y2="420.7" gradientUnits="userSpaceOnUse">
      <stop offset="0" stop-color="#00a0e3"/>
      <stop offset=".2" stop-color="#00bad0"/>
      <stop offset=".5" stop-color="#00cfc1"/>
      <stop offset=".8" stop-color="#00dcb8"/>
      <stop offset="1" stop-color="#00e1b6"/>
    </linearGradient>
  </defs>
  <circle cx="250" cy="250" r="248.5"/>
  <path class="st0" d="M250,1c137.4,0,249,111.4,249,249s-111.6,249-249,249S1,387.6,1,250,112.3,1,250,1ZM270.3,337.5l22.6,70.8h50.6l11.1-53.7c-11.1-1.2-22.6-4-33.8-8.8l-2.3-.8h0l-2.3-.8-.4,21.5-7.7-23.5c-12.3-2-24.9-4-38-4.8ZM225.1,337.9c-8.8.8-17.6,2-25.7,3.6l-6.1,1.2-6.5,23.5-1.2-21.9c-1.9.4-3.8,1.2-5.8,1.6-9.2,4.8-19.6,7.6-30.7,8.8l-4.6.4,10.7,52.9h49.1l20.7-70ZM136.8,91.7h-44.9l45.3,226.3h1.5c14.2,0,28-3.2,41.1-9.5l1.5-1.2h0l1.5-1.2-46-214.4ZM357,91.7l-38,216,1.5.8c13.8,4.8,26.1,8,37.6,9.1l4.2.4,46.4-223.5-51.8-2.8ZM262.3,199.1h-26.9l-28.8,96.7c8.4-2.8,17.6-4.4,26.9-5.6l5.8-.4,8.1-29.8,8.1,29.8c11.5.4,22.3,2,32.6,4.4l5,1.6-30.7-96.7Z"/>
</svg>