<?xml version="1.0" encoding="utf-8"?>
<!-- Generator: Adobe Illustrator 25.2.1, SVG Export Plug-In . SVG Version: 6.00 Build 0)  -->
<svg version="1.1" id="Layer_1" xmlns="http://www.w3.org/2000/svg" xmlns:xlink="http://www.w3.org/1999/xlink" x="0px" y="0px"
	 viewBox="0 0 128 128" style="enable-background:new 0 0 128 128;" xml:space="preserve">
<style type="text/css">
	.st0{fill:#00EF8B;}
	.st1{fill:#FFFFFF;}
	.st2{fill:#16FF99;}
</style>
<g id="Layer_2_1_">
	<g id="Layer_1-2">
		<g id="g43" transform="scale(2.56)">
			<circle id="circle20" class="st0" cx="24.9" cy="24.9" r="25"/>
			<rect id="rect22" x="28.8" y="21" class="st1" width="7.1" height="7.1"/>
			<path id="path24" class="st1" d="M21.7,30.7c0,1.5-1.2,2.7-2.6,2.7s-2.6-1.2-2.6-2.6c0-1.5,1.2-2.6,2.6-2.6l0,0h2.6V21h-2.6
				c-5.4,0-9.7,4.4-9.7,9.7s4.4,9.7,9.7,9.7s9.7-4.3,9.7-9.7l0,0V28h-7.1V30.7z"/>
			<path id="path26" class="st1" d="M31.4,17.4h8v-7.1h-8c-5.4,0-9.7,4.4-9.7,9.7V21h7v-0.9C28.8,18.6,30,17.4,31.4,17.4z"/>
			<polygon id="polygon28" class="st2" points="28.8,21 28.8,21 21.7,21 21.7,28 28.8,28 			"/>
		</g>
	</g>
</g>
</svg>
