<?xml version="1.0" encoding="utf-8"?>
<!-- Generator: Adobe Illustrator 25.4.1, SVG Export Plug-In . SVG Version: 6.00 Build 0)  -->
<svg version="1.1" id="Flux_white-blue" xmlns="http://www.w3.org/2000/svg" xmlns:xlink="http://www.w3.org/1999/xlink" x="0px"
	 y="0px" width="128px" height="128px" viewBox="0 0 128 128" style="enable-background:new 0 0 128 128;" xml:space="preserve">
<style type="text/css">
	.st0{fill:#2B61D1;}
	.st1{fill:#FFFFFF;}
</style>
<g>
	<path id="Path_81" class="st0" d="M64.4,1c34.8,0.2,62.8,28.6,62.6,63.4c-0.2,34.8-28.6,62.8-63.4,62.6C28.9,126.8,1,98.6,1,64
		C1.1,29.1,29.5,0.9,64.4,1z"/>
	<g id="Group_179" transform="translate(7.011 5.615)">
		<path id="Path_73" class="st1" d="M64.9,95l-7.2,4.2l-15.5-8.9l7-4.1l0.2-0.1l0.3,0.2L64.9,95z"/>
		<path id="Path_74" class="st1" d="M92.7,38.6V47l-15.3-8.8l-4.1-2.4l-4.1,2.4L49.7,49.4l-4.1,2.4v5l-7.5-4.3L33.9,50l-4.1,2.4
			l-7,4.1V38.6l35-20.2L92.7,38.6z"/>
		<path id="Path_75" class="st1" d="M92.7,56.6V79L73.2,90.2h0L53.8,79V56.6l19.4-11.2L92.7,56.6z"/>
		<path id="Path_76" class="st1" d="M45.1,66v12.9l-11.2,6.5l-11.2-6.4V66l11.2-6.4L45.1,66z"/>
	</g>
</g>
</svg>
