<?xml version="1.0" encoding="UTF-8"?><svg id="CIRCLE_OUTLINE_BLACK" xmlns="http://www.w3.org/2000/svg" viewBox="0 0 512 512"><circle cx="256" cy="256" r="256" fill="#fafafa"/><path d="m88.87306,426.92867c-.23746-4.74912-.31661-9.49824-.07915-14.24735,1.58304-.47492,3.16608-.79152,4.82827-1.02897,4.74912-.79152,9.49823-1.9788,14.08905-3.32439,1.26643-.39576,2.53286-.87068,3.79929-1.34559,6.0947-2.37456,11.47703-6.33216,15.59294-11.39788,2.84947-3.56184,5.30318-7.44028,7.44029-11.47703,3.00777-5.54064,5.61979-11.31872,7.99435-17.17599,4.74912-11.87279,9.49824-23.66643,14.1682-35.53923,16.147-40.84242,32.294-81.68482,48.441-122.52724,15.27633-38.86361,30.3152-77.72722,45.03747-116.8283.3166-.79152.63322-1.58304.94982-2.37456,5.46148-1.50389,10.76467-3.08693,16.30531-4.59081.3166.79152.63322,1.50389.87068,2.21625,6.253,17.41343,12.50601,34.82686,18.67987,52.31945,21.29188,59.44312,42.58376,118.80709,64.4297,178.01275,6.01555,16.147,12.03111,32.37315,18.12579,48.52014,2.37456,6.5696,5.22403,13.06007,8.46927,19.23392,1.42473,2.69116,2.92863,5.22403,4.5908,7.75688,5.06572,7.9152,12.90176,13.53499,22.00424,15.90955,4.90743,1.26644,9.81484,2.2954,14.88056,2.92863l3.56184.55407c.47492,1.58304.23745,3.08692.23745,4.5908v4.82827c.07916,1.58304,0,3.08692-.07916,4.66996-.47492.07916-.87068.15831-1.34559.23745h-125.21839c-.15831-.23745-.23745-.55407-.3166-.87068v-12.82263c0-.15831.07916-.39576.15831-.55407,1.02897-.3166,2.05796-.47492,3.16608-.63321,5.14488-.71236,10.2106-1.6622,15.27632-3.00776,1.9788-.55407,4.03675-1.26644,5.9364-2.05796.94983-.39576,1.89964-.87068,2.84948-1.42473,4.98656-2.77032,6.96536-7.12368,6.49047-12.66431-.23745-2.53287-.63321-4.98656-1.34559-7.44028-1.02897-3.79928-2.37456-7.51944-3.641-11.16043-25.96183-72.42404-51.60708-144.92725-77.01486-217.58874-.23746-.79152-.39576-1.66219-1.18728-2.37456-.23746.1583-.63322.31661-.79152.47491-.23746.39576-.39576.79152-.47492,1.18728-12.42686,35.69753-25.64524,71.15761-38.78446,106.53855-9.73569,26.1993-19.47138,52.47774-28.49471,78.91452-3.64099,10.60636-7.12368,21.29187-10.52721,31.97739-1.34558,4.11591-2.29541,8.31096-2.92862,12.506-.47491,2.84948-.55406,5.69895-.23746,8.62756.39576,3.72015,2.37456,7.12368,5.46149,9.33992,1.9788,1.42473,4.19506,2.53287,6.56962,3.32439,3.72014,1.34559,7.51944,2.2954,11.39788,2.92863,4.2742.79152,8.54841,1.42473,12.90177,2.05796.3166.07916.55406.07916.94982.15831.07916.3166.1583.63321.23746.94983v12.42687c0,.23745-.07916.47492-.1583.71236-.39576.07916-.79152.15831-1.18728.15831h-1.6622l-110.41698.39576h0Z"/></svg>