<?xml version="1.0" encoding="UTF-8"?><svg id="Layer_1" xmlns="http://www.w3.org/2000/svg" xmlns:xlink="http://www.w3.org/1999/xlink" viewBox="0 0 128 128"><defs><style>.cls-1{clip-path:url(#clippath);}.cls-2{fill:none;}.cls-2,.cls-3,.cls-4,.cls-5,.cls-6{stroke-width:0px;}.cls-7{opacity:.1;}.cls-8{clip-path:url(#clippath-1);}.cls-9{opacity:.2;}.cls-4{fill:#d83667;}.cls-5{fill:#fff;}.cls-6{fill:#e9edf0;}</style><clipPath id="clippath"><path class="cls-2" d="m16.9,41.9l.43,44.31c.02,3,1.63,5.77,4.23,7.27l38.3,22.12c1.37.8,3.13.33,3.92-1.04.26-.45.39-.96.39-1.47l-.46-47.44c0-1.02-.55-1.96-1.43-2.46l-41.16-23.75c-.42-.25-.9-.38-1.4-.39-1.56,0-2.83,1.27-2.83,2.83h0v.03"/></clipPath><clipPath id="clippath-1"><path class="cls-2" d="m106.86,39.36l-41.68,23.8c-.91.52-1.46,1.48-1.45,2.53l.46,47.5c.01,1.59,1.31,2.86,2.9,2.85.49,0,.98-.14,1.41-.38l38.37-22.15c2.63-1.51,4.24-4.31,4.24-7.35v-44.35c.04-1.54-1.18-2.82-2.72-2.85,0,0,0,0,0,0-.53-.01-1.05.12-1.5.4"/></clipPath></defs><circle class="cls-6" cx="64" cy="64" r="63.5"/><g id="FUN"><g id="CUBE"><path id="base_cube" class="cls-4" d="m107.61,34.98l-.4-.23c-.12-.1-.25-.19-.38-.27l-38.37-22.16c-.39-.22-.8-.41-1.22-.57-2.07-1.12-4.58-1.09-6.62.08l-24.35,14.02-15.14,8.64c-.16.1-.32.21-.46.33l-.25.15c-2.11,1.21-3.41,3.46-3.41,5.9v45.45c0,2.92,1.56,5.62,4.1,7.08l39.52,22.74c2.1,1.21,4.7,1.21,6.8,0l40.2-23.13c2.11-1.22,3.41-3.46,3.41-5.9v-46.24c0-2.44-1.31-4.69-3.42-5.9Z"/><g id="medium" class="cls-7"><path id="SVGID-3" class="cls-3" d="m16.9,41.9l.43,44.31c.02,3,1.63,5.77,4.23,7.27l38.3,22.12c1.37.8,3.13.33,3.92-1.04.26-.45.39-.96.39-1.47l-.46-47.44c0-1.02-.55-1.96-1.43-2.46l-41.16-23.75c-.42-.25-.9-.38-1.4-.39-1.56,0-2.83,1.27-2.83,2.83h0v.03"/><g id="Group_23"><g class="cls-1"><g id="Group_22"><g id="Group_21"><rect id="Rectangle_5" class="cls-3" x=".54" y="32.37" width="80.04" height="90.96" transform="translate(-33.7 31.04) rotate(-30.26)"/></g></g></g></g></g><g id="dark" class="cls-9"><path id="SVGID-4" class="cls-3" d="m106.86,39.36l-41.68,23.8c-.91.52-1.46,1.48-1.45,2.53l.46,47.5c.01,1.59,1.31,2.86,2.9,2.85.49,0,.98-.14,1.41-.38l38.37-22.15c2.63-1.51,4.24-4.31,4.24-7.35v-44.35c.04-1.54-1.18-2.82-2.72-2.85,0,0,0,0,0,0-.53-.01-1.05.12-1.5.4"/><g id="Group_27"><g class="cls-8"><g id="Group_26"><g id="Group_25"><rect id="Rectangle_6" class="cls-3" x="51.08" y="32.94" width="72.68" height="89.75" transform="translate(-22.51 37.66) rotate(-21.61)"/></g></g></g></g></g></g><g id="FUN-2"><path id="N-3" class="cls-5" d="m84.22,92.01c-1.09,0-1.97-.88-1.98-1.96l-.1-19.01c0-1.09.88-1.98,1.97-1.99.57,0,1.12.25,1.5.68l7.57,8.7-.04-13.08c0-1.09.88-1.98,1.97-1.98h0c1.09,0,1.97.88,1.98,1.97l.06,18.38c0,1.09-.87,1.98-1.96,1.98-.58,0-1.13-.25-1.5-.68l-7.56-8.69.07,13.69c0,1.09-.87,1.98-1.96,1.99,0,0,0,0,0,0h0Z"/><path id="U-2" class="cls-5" d="m66.43,44.51c-1.59,0-3.17-.31-4.64-.92-.08-.03-.15-.07-.22-.11l-13.25-7.55c-.94-.51-1.28-1.68-.78-2.62.51-.94,1.68-1.28,2.62-.78.02.01.05.03.07.04l13.14,7.48c1,.4,2.07.6,3.15.58,3.13,0,5.46-1.52,5.52-2.91-.06-.72-.44-1.37-1.05-1.76-.07-.03-.14-.07-.21-.11l-.59-.34-10.63-6.14c-.92-.53-1.24-1.71-.71-2.64.53-.92,1.71-1.24,2.64-.71l11.04,6.38c.06.02.12.05.18.09,1.87,1.02,3.07,2.94,3.19,5.07v.1c0,3.82-4.11,6.82-9.36,6.82h-.1Z"/><path id="F-2" class="cls-5" d="m32.27,91.85c-1.2,0-2.17-.97-2.18-2.17l-.07-24.69c0-1.2.96-2.18,2.16-2.19.38,0,.75.09,1.08.28l16.71,9.44c1.04.61,1.39,1.94.78,2.97-.59,1.02-1.89,1.38-2.92.81l-13.46-7.6.03,8.11,12.49,6.88c1.05.58,1.44,1.9.86,2.96-.58,1.05-1.9,1.44-2.95.86l-10.38-5.71.03,7.87c0,1.2-.97,2.18-2.17,2.18h0Z"/></g></g></svg>