<?xml version="1.0" encoding="UTF-8"?><svg id="CIRCLE_OUTLINE_BLACK" xmlns="http://www.w3.org/2000/svg" viewBox="0 0 512 512"><circle cx="255.68584" cy="259.96067" r="220.27922" fill="#fff"/><polygon points="78.37343 457.79614 106.09017 457.79614 106.09017 483.93512 158.1617 483.93512 158.1617 512 353.83834 512 353.83834 483.93512 405.90987 483.93512 405.90987 457.79614 433.62661 457.79614 433.62661 430.81396 78.37343 430.81396 78.37343 457.79614" fill="#7317f7"/><polygon points="27.43777 352.45465 27.43777 406.01001 52.54091 406.01001 52.54091 430.81396 78.37343 430.81396 433.62661 430.81396 459.45913 430.81396 459.45913 406.01001 484.56215 406.01001 484.56215 352.45465 27.43777 352.45465" fill="#8416f8"/><polygon points="484.56215 158.77026 484.56215 104.20459 459.45913 104.20459 459.45913 78.90881 433.62661 78.90881 433.62661 52.6059 407.22658 52.6059 407.22658 27.31012 354.65352 27.31012 354.65352 0 157.3464 0 157.3464 27.31012 104.77334 27.31012 104.77334 52.6059 78.37343 52.6059 78.37343 78.90881 52.54091 78.90881 52.54091 104.20459 27.43777 104.20459 27.43777 158.77026 1.73098 158.77026 1.73098 195.62079 307.07644 195.62079 307.07644 189.02924 326.1888 189.02924 326.1888 195.62079 510.26906 195.62079 510.26906 158.77026 484.56215 158.77026" fill="#f92ef1"/><rect x="190.15365" y="270.04242" width="44.22083" height="6.52484" fill="#c815f8"/><polygon points="326.1888 195.62079 326.1888 205.64532 352.76467 205.64532 352.76467 224.75775 288.33883 224.75775 288.33883 250.93005 334.73263 250.93005 334.73263 270.04242 353.84499 270.04242 353.84499 276.56726 406.06527 276.56726 406.06527 224.75775 370.08791 224.75775 370.08791 205.64532 406.06527 205.64532 425.17757 205.64532 461.15505 205.64532 461.15505 224.75775 425.17757 224.75775 425.17757 276.56726 510.26906 276.56726 510.26906 195.62079 326.1888 195.62079" fill="#c815f8"/><polygon points="288.33883 250.93005 269.2264 250.93005 269.2264 224.75775 288.33883 224.75775 288.33883 205.64532 307.07644 205.64532 307.07644 195.62079 1.73098 195.62079 1.73098 276.56726 61.9883 276.56726 61.9883 224.75775 81.10073 224.75775 81.10073 205.64532 154.9269 205.64532 154.9269 224.75775 81.10073 224.75775 81.10073 276.56726 136.16152 276.56726 136.16152 270.04242 99.46358 270.04242 99.46358 250.93005 136.16152 250.93005 154.9269 250.93005 155.27382 250.93005 155.27382 276.56726 171.04128 276.56726 171.04128 205.64532 190.15365 205.64532 190.15365 250.93005 234.37447 250.93005 234.37447 205.64532 253.48684 205.64532 253.48684 276.56726 334.73263 276.56726 334.73263 270.04242 288.33883 270.04242 288.33883 250.93005" fill="#c815f8"/><rect x="81.10073" y="276.56726" width="55.06079" height="22.01672" fill="#a215f8"/><polygon points="425.17757 276.56726 425.17757 317.69635 406.06527 317.69635 406.06527 276.56726 353.84499 276.56726 353.84499 296.21478 334.73263 296.21478 334.73263 315.32715 326.1888 315.32715 326.1888 333.3053 307.07644 333.3053 307.07644 315.32715 271.20363 315.32715 271.20363 296.21478 334.73263 296.21478 334.73263 276.56726 253.48684 276.56726 253.48684 317.69635 234.37447 317.69635 234.37447 276.56726 190.15365 276.56726 190.15365 317.69635 171.04128 317.69635 171.04128 276.56726 155.27382 276.56726 155.27382 298.58398 136.16152 298.58398 136.16152 317.69635 81.10073 317.69635 81.10073 298.58398 61.9883 298.58398 61.9883 276.56726 1.73098 276.56726 1.73098 352.45465 27.43777 352.45465 484.56215 352.45465 510.26906 352.45465 510.26906 276.56726 425.17757 276.56726" fill="#a215f8"/><rect x="334.73263" y="270.04242" width="19.11237" height="6.52484" fill="#fff"/></svg>