<?xml version="1.0" encoding="UTF-8"?>
<svg id="Layer_1" xmlns="http://www.w3.org/2000/svg" version="1.1" viewBox="0 0 500 500">
  <!-- Generator: Adobe Illustrator 29.0.1, SVG Export Plug-In . SVG Version: 2.1.0 Build 192)  -->
  <defs>
    <style>
      .st0 {
        fill: #fff;
      }

      .st1 {
        fill: #181ea9;
      }
    </style>
  </defs>
  <circle class="st0" cx="250" cy="250" r="248.5"/>
  <path class="st1" d="M250,1C112.7,1,1,112.7,1,250s111.7,249,249,249,249-111.7,249-249S387.3,1,250,1ZM250,484.9c-129.5,0-234.9-105.4-234.9-234.9S120.5,15.1,250,15.1s234.9,105.4,234.9,234.9-105.4,234.9-234.9,234.9ZM297.4,144.9l-21.9,21.9c-7.4-5.3-16.5-8.4-26.3-8.4-25,0-45.4,20.3-45.4,45.4s16.4,41.1,37.8,44.7v16.4c-21.4,3.6-37.8,22.3-37.8,44.7s20.3,45.4,45.4,45.4,45.4-20.3,45.4-45.4-16.4-41.1-37.8-44.7v-16.4c21.4-3.6,37.8-22.3,37.8-44.7s-3.1-18.8-8.4-26.3l21.9-21.9-10.7-10.7ZM279.5,309.7c0,16.7-13.6,30.3-30.3,30.3s-30.3-13.6-30.3-30.3,13.6-30.3,30.3-30.3,30.3,13.6,30.3,30.3ZM249.3,234c-16.7,0-30.3-13.6-30.3-30.3s13.6-30.3,30.3-30.3,30.3,13.6,30.3,30.3-13.6,30.3-30.3,30.3Z"/>
</svg>