<?xml version="1.0" encoding="utf-8"?>
<!-- Generator: Adobe Illustrator 26.0.3, SVG Export Plug-In . SVG Version: 6.00 Build 0)  -->
<svg version="1.1" id="Layer_1" xmlns="http://www.w3.org/2000/svg" xmlns:xlink="http://www.w3.org/1999/xlink" x="0px" y="0px"
	 viewBox="0 0 128 128" style="enable-background:new 0 0 128 128;" xml:space="preserve">
<style type="text/css">
	.st0{fill:#EFF4F4;}
	.st1{fill:#F6027D;}
	.st2{fill:#00CEC9;}
</style>
<circle class="st0" cx="64" cy="64" r="64"/>
<g id="Go0xoy.tif">
	<g>
		<path class="st1" d="M49.1,106.1c-0.3-0.2-0.7-0.3-0.9-0.5c-0.8-0.6-0.9-1.6-0.5-2.4c0.3-0.7,0.9-1,1.6-1.1c0.1,0,0.2,0,0.3,0
			c11.1,0,22.2,0,33.4,0c0.5,0,1,0.1,1.4,0.4c0.9,0.8,1,2.3,0,3c-0.3,0.2-0.7,0.3-1,0.5C72,106.1,60.6,106.1,49.1,106.1z"/>
		<path class="st1" d="M12.2,67.6c0.1,0,0.1-0.1,0.2-0.2c0.2-0.6,0.6-1.1,1.2-1.3c0.8-0.3,1.6-0.2,2.2,0.5c0.8,0.9,0.6,2.1-0.2,2.9
			c-0.7,0.6-2,0.7-2.7-0.1c-0.2-0.2-0.4-0.5-0.5-0.8c0-0.1-0.1-0.1-0.1-0.1C12.2,68.3,12.2,68,12.2,67.6z"/>
		<path class="st1" d="M41.8,106.1c0-0.2-0.2-0.2-0.3-0.2c-0.7-0.4-1.1-0.9-1.1-1.7c0-0.8,0.3-1.4,1-1.8c0.7-0.4,1.9-0.3,2.5,0.4
			c0.9,1.1,0.4,2.6-0.7,3.1c-0.1,0-0.2,0-0.2,0.2C42.6,106.1,42.2,106.1,41.8,106.1z"/>
		<path class="st2" d="M73.9,51.3c-10.2,0-20.3,0-30.5,0c-0.3,0-0.7,0-1-0.2c-0.6-0.3-0.9-0.8-0.9-1.4c0-0.7,0-1.4,0-2
			c0.1-1.2,0.2-2.4,0.4-3.6c0.1-0.5,0.2-0.9,0.3-1.4c0.3-1.1,0.5-2.2,0.9-3.3c0.3-1,0.7-1.9,1.1-2.8c0.5-1.2,1.1-2.4,1.8-3.6
			c0.9-1.6,2-3.1,3.2-4.5c1.2-1.5,2.6-2.8,4.1-4.1c1.3-1.1,2.7-2.1,4.2-3c1.1-0.6,2.2-1.2,3.3-1.7c1.2-0.6,2.5-1,3.8-1.4
			c0.9-0.3,1.8-0.5,2.7-0.7c1.3-0.3,2.5-0.4,3.8-0.6c1.5-0.1,3-0.1,4.6-0.1c1.3,0.1,2.7,0.3,4,0.5c1.2,0.2,2.4,0.5,3.6,0.9
			c1.1,0.3,2.2,0.7,3.2,1.2c1.2,0.5,2.3,1,3.4,1.7c1.3,0.7,2.5,1.6,3.7,2.5c0.9,0.7,1.8,1.5,2.6,2.3c1,0.9,1.9,1.9,2.8,3
			c1.1,1.3,2,2.7,2.9,4.2c0.9,1.6,1.7,3.2,2.3,5c0.5,1.3,0.9,2.6,1.2,3.9c0.3,1.1,0.5,2.3,0.6,3.4c0.2,1.3,0.2,2.7,0.3,4
			c0,0.5-0.1,0.9-0.5,1.3c-0.3,0.3-0.6,0.4-1,0.4c-0.2,0-0.4,0-0.5,0C94.2,51.3,84,51.3,73.9,51.3z"/>
		<path class="st1" d="M73.9,61.1c-12.4,0-24.8,0-37.3,0c-0.7,0-1.3-0.2-1.7-0.8c-0.8-1.1-0.3-2.3,0.5-2.8c0.3-0.2,0.7-0.3,1.1-0.4
			c0.1,0,0.3,0,0.4,0c24.7,0,49.3,0,74,0c0.6,0,1.2,0,1.6,0.4c0.6,0.5,0.9,1.2,0.7,1.9c-0.1,0.7-0.5,1.3-1.3,1.5
			c-0.3,0.1-0.6,0.1-0.9,0.1C98.7,61.1,86.3,61.1,73.9,61.1z"/>
		<path class="st1" d="M69.5,75.1c10.9,0,21.9,0,32.8,0c0.3,0,0.5,0,0.8,0.1c0.8,0.2,1.4,0.9,1.4,1.7c0.1,1-0.5,1.8-1.2,2.1
			c-0.2,0.1-0.5,0.2-0.8,0.2c-0.1,0-0.2,0-0.3,0c-21.8,0-43.6,0-65.4,0c-0.5,0-1-0.1-1.4-0.4c-0.5-0.4-1-1.4-0.8-2.1
			c0.3-0.9,0.9-1.4,1.8-1.5c0.2,0,0.3,0,0.5,0C47.7,75.1,58.6,75.1,69.5,75.1z"/>
		<path class="st1" d="M48.6,70.1c-9,0-18.1,0-27.1,0c-0.4,0-0.7,0-1.1-0.2c-0.6-0.3-1.2-1.2-1.1-1.9c0.1-0.8,0.6-1.5,1.3-1.7
			c0.2-0.1,0.5-0.1,0.7-0.1c0.1,0,0.2,0,0.3,0c18,0,36,0,54,0c0.2,0,0.5,0,0.7,0c1,0.1,1.7,1.1,1.6,2.1c-0.1,1-1,1.9-2.1,1.9
			C66.8,70,57.7,70.1,48.6,70.1z"/>
		<path class="st1" d="M86.5,88.1c-9,0-18,0-27,0c-0.4,0-0.8,0-1.2-0.2c-0.7-0.4-1.2-1-1.1-1.9c0-0.8,0.5-1.4,1.2-1.8
			c0.1-0.1,0.3-0.1,0.4-0.1c0.2,0,0.4,0,0.6,0c18.1,0,36.2,0,54.2,0c0.4,0,0.8,0,1.2,0.2c0.6,0.4,1,0.9,1,1.7c0,0.9-0.4,1.6-1.3,1.9
			c-0.1,0.1-0.3,0.1-0.4,0.1c-0.2,0-0.4,0-0.7,0C104.4,88.1,95.5,88.1,86.5,88.1z"/>
		<path class="st1" d="M87,93.1c5.6,0,11.1,0,16.7,0c0.7,0,1.3,0.2,1.7,0.8c0.6,0.9,0.5,2.2-0.5,2.9c-0.4,0.2-0.8,0.3-1.3,0.3
			c-11.1,0-22.2,0-33.2,0c-0.7,0-1.3-0.2-1.7-0.7c-0.5-0.6-0.7-1.3-0.3-2.1c0.3-0.8,0.9-1.1,1.7-1.2c0.1,0,0.3,0,0.4,0
			C75.9,93.1,81.4,93.1,87,93.1z"/>
		<path class="st1" d="M38.2,84.1c4.3,0,8.6,0,12.9,0c0.5,0,0.9,0,1.3,0.3c0.5,0.4,0.8,0.8,0.8,1.4c0.1,1.2-0.6,1.8-1.5,2.2
			c-0.1,0-0.2,0-0.2,0c-0.1,0-0.3,0-0.4,0c-8.6,0-17.2,0-25.7,0c-0.5,0-1-0.2-1.4-0.5c-1-0.8-0.9-2.5,0.1-3.2
			c0.4-0.2,0.8-0.3,1.2-0.3c2.3,0,4.7,0,7,0C34.2,84.1,36.2,84.1,38.2,84.1z"/>
		<path class="st1" d="M18.1,88.1c-1,0.1-2-0.8-2-2c0-1.1,0.9-2,2-2c1.1,0,2,0.9,2,2C20.1,87.2,19.2,88.1,18.1,88.1z"/>
		<path class="st1" d="M31.4,77.1c0.1,1-0.8,2-2,2c-1.1,0-2-0.8-2-2c0-1.2,1-2,2-2C30.5,75.1,31.5,76,31.4,77.1z"/>
		<path class="st1" d="M63,97.1c-1.1,0-2-0.9-2-2c0-1.2,1-2,2-2c1.1,0,2,0.8,2,2C65,96.1,64.2,97.1,63,97.1z"/>
		<path class="st1" d="M31.4,59.1c0.1,1-0.8,2-2,2c-1.1,0-2-0.9-2-2c0-1.2,0.9-2,2-2C30.6,57.1,31.5,58,31.4,59.1z"/>
	</g>
</g>
</svg>
