<?xml version="1.0" encoding="utf-8"?>
<!-- Generator: Adobe Illustrator 25.4.1, SVG Export Plug-In . SVG Version: 6.00 Build 0)  -->
<svg version="1.1" id="Layer_1" xmlns="http://www.w3.org/2000/svg" xmlns:xlink="http://www.w3.org/1999/xlink" x="0px" y="0px"
	 width="128px" height="128px" viewBox="0 0 128 128" style="enable-background:new 0 0 128 128;" xml:space="preserve">
<style type="text/css">
	.st0{fill:#EEF4F4;}
	.st1{fill:#041426;}
</style>
<circle class="st0" cx="64" cy="64" r="62"/>
<g>
	<path class="st1" d="M107.7,37.2c6.4,10.9,8.7,22.2,6.9,34.2c-2,13.4-8.3,24.4-19,32.6c-14.9,11.5-31.6,14.3-49.2,7.7
		c-18.7-7-29.7-20.9-32.9-40.7c-1.9-11.5,0.6-22.5,6.2-32.7c0.5-0.9,0.8-0.9,1.5-0.2c2.2,2.3,4.4,4.6,6.8,6.8
		c0.9,0.8,0.2,1.2-0.1,1.7c-3.1,4.4-4.1,9.3-3.2,14.7c1.4,8.4,10,15.4,18.5,15.1c4-0.1,7.7-1.2,10.9-3.6c0.9-0.7,1.3-0.5,2,0.2
		c2.3,2.4,4.7,4.6,7,7c0.9,0.9,1.4,0.8,2.2,0c2.3-2.4,4.7-4.6,7-7c0.7-0.8,1.2-0.7,2-0.2c6.6,4.5,13.5,4.8,20.5,0.9
		c8.9-5,11.9-17.4,6.3-26c-1.5-2.2-1.4-2.2,0.5-4.1C103.5,41.6,105.5,39.5,107.7,37.2z"/>
	<path class="st1" d="M77.1,68.2c0.3-0.3,0.5-0.6,0.8-0.9c5.6-5.6,11.1-11.1,16.6-16.7c0.8-0.8,1.2-0.9,1.8,0.2
		c3.3,5.4,2.4,12.2-2.3,16.6C89.4,71.8,82.6,72.2,77.1,68.2z"/>
	<path class="st1" d="M50.9,68.2c-5.4,3.9-12.1,3.6-16.9-0.8c-4.7-4.3-5.7-11.1-2.4-16.6c0.5-0.8,0.8-1.3,1.7-0.3
		c5.7,5.8,11.4,11.5,17.1,17.2C50.6,67.8,50.8,68,50.9,68.2z"/>
	<path class="st1" d="M23.4,32.8C36.7,46.1,50,59.4,63.2,72.6c0.9,0.9,1.3,0.3,1.8-0.3c5.2-5.2,10.4-10.4,15.6-15.6c8-8,16-16,24-24
		C84,6.2,44.3,6,23.4,32.8z M94.7,33.3C84.7,43.1,74.9,53,65,62.9c-0.8,0.8-1.2,0.8-2,0C53.2,53,43.3,43.2,33.4,33.3
		c-0.7-0.7-0.7-1,0-1.7c8.6-8.1,18.8-12,30.6-12.2c11.7,0.1,22,4.1,30.6,12.2C95.3,32.2,95.4,32.5,94.7,33.3z"/>
</g>
</svg>
