<?xml version="1.0" encoding="utf-8"?>
<!-- Generator: Adobe Illustrator 27.1.1, SVG Export Plug-In . SVG Version: 6.00 Build 0)  -->
<svg version="1.1" id="Layer_1" xmlns="http://www.w3.org/2000/svg" xmlns:xlink="http://www.w3.org/1999/xlink" x="0px" y="0px"
	 viewBox="0 0 128 128" style="enable-background:new 0 0 128 128;" xml:space="preserve">
<style type="text/css">
	.st0{fill:#F2F2F2;}
	.st1{fill:url(#SVGID_1_);}
	.st2{fill:url(#SVGID_00000018924775894395524980000008241032654917943983_);}
	.st3{fill:url(#SVGID_00000161622022276468245760000008839638574951939469_);}
	.st4{fill:url(#SVGID_00000114069589830694436070000003497528339263161278_);}
</style>
<circle class="st0" cx="64" cy="64" r="63.5"/>
<g>
	<linearGradient id="SVGID_1_" gradientUnits="userSpaceOnUse" x1="74.1898" y1="89.0432" x2="74.1898" y2="15.2896">
		<stop  offset="0" style="stop-color:#00C8F6"/>
		<stop  offset="1" style="stop-color:#00FF81"/>
	</linearGradient>
	<path class="st1" d="M96.5,36.1v59.1c0,5.6-4.5,10.1-10.1,10.1h0c-5.6,0-10.1-4.5-10.1-10.1V58c0-24.2-23.5-19.5-24.4-19.3
		l24.5-14.1C85.3,19.3,96.5,25.8,96.5,36.1z"/>
	
		<radialGradient id="SVGID_00000166644322496157110290000011722485689542806931_" cx="49.1688" cy="49.8982" r="32.7973" gradientTransform="matrix(1 0 0 0.4325 0 28.3162)" gradientUnits="userSpaceOnUse">
		<stop  offset="0.2131" style="stop-color:#00FF81"/>
		<stop  offset="1" style="stop-color:#006C84"/>
	</radialGradient>
	<path style="fill:url(#SVGID_00000166644322496157110290000011722485689542806931_);" d="M76.3,58c0-2.1-1-3.8-2.5-4.8
		c0,0-0.2-0.1-0.6-0.4C70.1,51,55.7,44,28,52.4l23.9-13.8c0,0,0,0,0,0C52.8,38.4,76.3,33.8,76.3,58z"/>
	
		<radialGradient id="SVGID_00000062886634615433906590000010565945686163199879_" cx="28.5028" cy="75.5844" r="45.3847" gradientUnits="userSpaceOnUse">
		<stop  offset="0.2488" style="stop-color:#00FF81"/>
		<stop  offset="0.3515" style="stop-color:#00E482"/>
		<stop  offset="0.5637" style="stop-color:#00B083"/>
		<stop  offset="0.7488" style="stop-color:#008B83"/>
		<stop  offset="0.8978" style="stop-color:#007484"/>
		<stop  offset="0.9919" style="stop-color:#006C84"/>
	</radialGradient>
	<path style="fill:url(#SVGID_00000062886634615433906590000010565945686163199879_);" d="M73.2,52.8c-1.7-0.9-3.8-0.9-5.6,0.1
		l-32.9,19c-4.8,2.8-11,1.1-13.8-3.7c-0.9-1.6-1.4-3.3-1.4-5c0-3.5,1.8-6.9,5-8.8l3.5-2C55.7,44,70.1,51,73.2,52.8z"/>
	
		<linearGradient id="SVGID_00000075134055183422971260000011818947346975731842_" gradientUnits="userSpaceOnUse" x1="38.0973" y1="91.8637" x2="57.9591" y2="91.8637">
		<stop  offset="0" style="stop-color:#00DBC5"/>
		<stop  offset="1" style="stop-color:#00C8DA"/>
	</linearGradient>
	<path style="fill:url(#SVGID_00000075134055183422971260000011818947346975731842_);" d="M58,82.4v18.9c0,1.3-1.1,2.3-2.4,2.1
		c-3.2-0.4-9.4-2.1-16.8-9.3c-1-1-0.8-2.6,0.3-3.3l15.6-10.2C56.1,79.7,58,80.7,58,82.4z"/>
</g>
</svg>
