<?xml version="1.0" encoding="UTF-8"?><svg id="Layer_1" xmlns="http://www.w3.org/2000/svg" viewBox="0 0 128 128"><defs><style>.cls-1,.cls-2{stroke-width:0px;}.cls-2{fill:#abf630;}</style></defs><circle class="cls-1" cx="64" cy="64" r="63.5"/><g id="GRASS"><path class="cls-2" d="m86.14,36.5v1.26c0,13.05-.07,26.09.03,39.14.05,6.65-5.13,12.41-11.96,13.11-.49.05-.99.09-1.56.14,0-.29,0-.49,0-.7,0-13.55,0-27.1.01-40.66,0-.31.08-.69.26-.93,3.43-4.52,7.44-8.4,12.54-11.03.18-.09.37-.18.68-.34Z"/><path class="cls-2" d="m69.52,52.82c.72,1.38,1.16,2.77,1.3,4.25.09.96.12,1.93.12,2.9,0,13.7,0,27.39,0,41.09v.79c-1.46,0-2.83-.18-4.14-.62-4.81-1.62-7.96-4.81-9.1-9.82-.22-.97-.26-2-.26-3.01-.03-4.31-.02-8.63,0-12.94,0-.28.08-.59.21-.83,2.84-5.39,5.68-10.78,8.55-16.16.9-1.68,1.91-3.31,2.87-4.97.13-.21.27-.42.45-.68Z"/><path class="cls-2" d="m42.2,91.35c0-.55,0-1.01,0-1.47,0-6.56.05-13.13-.01-19.69-.06-6.67,5.12-12.15,11.52-12.99.62-.08,1.25-.12,1.98-.18,0,.31,0,.53,0,.75,0,5.7,0,11.4-.01,17.11,0,.36-.11.75-.29,1.06-2.33,3.98-4.86,7.83-8.12,11.12-1.48,1.49-3.15,2.77-4.74,4.15-.06.05-.14.07-.32.15Z"/><path class="cls-2" d="m26.94,96.46c.05-3.27-.35-6.49,1.11-9.51,2.1-4.36,5.58-6.89,10.32-7.66,2.04-.34,2.05-.28,2.05,1.76,0,2.67.05,5.34-.02,8.01-.03,1.14-.29,2.28-.51,3.41-.05.24-.28.52-.51.64-3.43,1.85-7.11,2.86-10.98,3.22-.46.04-.92.09-1.47.14Z"/><path class="cls-2" d="m57.47,72.11v-26.52c1.66,0,3.23.3,4.75.86,2.49.92,4.54,2.43,6.16,4.53.3.39.33.68.05,1.11-3.21,5.06-5.87,10.42-8.63,15.73-.68,1.3-1.37,2.6-2.05,3.9-.05.1-.13.18-.29.39Z"/><path class="cls-2" d="m42.2,97.64c0-1.52,0-2.97.01-4.42,0-.15.15-.34.28-.43,4.67-3.11,8.22-7.28,11.31-11.89.6-.89,1.17-1.8,1.75-2.69,0-.01.03-.01.12-.05,0,.51,0,1.01,0,1.5-.03,2.19.11,4.39-.14,6.55-.51,4.49-2.98,7.71-6.91,9.85-1.97,1.07-4.1,1.55-6.44,1.58Z"/><path class="cls-2" d="m101.08,31.82c-4.6.1-8.97.82-13.23,2.48-.54-2.41-.06-4.48,1.65-6.14,2.11-2.06,4.65-2.55,7.39-1.51,2.32.87,3.68,2.61,4.18,5.17Z"/><path class="cls-2" d="m72.7,45.93c-.25-7.39,6.38-13.3,13.44-13.11,0,.68.02,1.37-.02,2.05,0,.14-.26.3-.43.38-3.75,1.81-7.03,4.29-9.92,7.27-1.05,1.08-2.02,2.24-3.07,3.41Z"/><path class="cls-2" d="m88.39,35.51c4.08-1.58,8.26-2.31,12.58-2.34.21,1.75-1.51,4.8-4.76,5.68-3.07.83-6.63-.65-7.82-3.34Z"/><path class="cls-2" d="m38.83,94.94c-2.67,4.47-6.63,6.72-11.85,6.93v-4.12c4.1-.23,8.06-1.11,11.85-2.82Z"/></g></svg>