<?xml version="1.0" encoding="utf-8"?>
<!-- Generator: Adobe Illustrator 26.0.2, SVG Export Plug-In . SVG Version: 6.00 Build 0)  -->
<svg version="1.1" id="Layer_1" xmlns="http://www.w3.org/2000/svg" xmlns:xlink="http://www.w3.org/1999/xlink" x="0px" y="0px"
	 width="128px" height="128px" viewBox="0 0 128 128" style="enable-background:new 0 0 128 128;" xml:space="preserve">
<style type="text/css">
	.st0{fill:#25E899;}
	.st1{fill-rule:evenodd;clip-rule:evenodd;}
</style>
<circle class="st0" cx="64" cy="64" r="63.5"/>
<g id="helmet-purple-animated">
	<path id="Path" class="st1" d="M84.3,83.2L80,79.9c3-2.9,4.9-7.2,4.9-11.3c0-2.5-0.6-4.9-1.8-7.1c-0.8-1.5-1.9-2.9-3.2-4.1l-2.1-2
		l2.3-2l1.5,1.5l1.8-1.8c4.3,4,7.1,9.8,7.1,15.6C90.6,74.1,88.3,79.2,84.3,83.2z"/>
	<path id="helmet" d="M84.2,96.3H64.6c-15.2,0-27.6-12.6-27.6-28c0-15.4,12.4-28,27.6-28c6.3,0,12.3,2.1,17.2,6.1L68.4,58.9
		c-1.2-0.5-2.4-0.7-3.7-0.7c-5.5,0-9.9,4.5-9.9,10.1s4.4,10.1,9.9,10.1c0.9,0,1.9-0.1,2.8-0.4l16.8,12.8L84.2,96.3L84.2,96.3z
		 M64.6,72.2c-2.2,0-3.9-1.8-3.9-4c0-2.2,1.8-4,3.9-4c2.2,0,3.9,1.8,3.9,4C68.5,70.4,66.8,72.2,64.6,72.2L64.6,72.2z M74.5,68.3
		c0-2-0.6-3.8-1.5-5.4l8-7.5l0.1,0.1l9.5-9.1l-2.2-2.2c-6.3-6.4-14.8-10-23.7-10c-18.5,0-33.6,15.3-33.6,34.1
		c0,18.6,14.8,33.8,33,34.1v0h26.1V87.7L72.6,74.2C73.9,72.5,74.5,70.4,74.5,68.3z"/>
	<path id="center-circle" class="st1" d="M64.7,72.1c2.2,0,4-1.8,4-4s-1.8-4-4-4c-2.2,0-4,1.8-4,4S62.5,72.1,64.7,72.1z M64.7,78
		c5.5,0,9.9-4.4,9.9-9.9c0-5.5-4.4-9.9-9.9-9.9s-9.9,4.4-9.9,9.9C54.8,73.6,59.2,78,64.7,78z"/>
	<polygon id="particle2" points="96.9,32 94.8,34.2 92.7,32 94.8,29.9 	"/>
	<polygon id="particle1" points="79.9,32 77.8,34.2 75.7,32 77.8,29.9 	"/>
	<path id="ant1" d="M54.4,55.5c-1.2,0-2.1-1.1-2.1-2.4V28c0-1.3,1-2.4,2.1-2.4c1.2,0,2.1,1.1,2.1,2.4v25.1
		C56.6,54.4,55.6,55.5,54.4,55.5"/>
	<path id="ant2" d="M67,40c-1.2,0-2.1-0.9-2.1-1.9V27.6c0-1.1,1-1.9,2.1-1.9s2.1,0.9,2.1,1.9v10.5C69.1,39.1,68.1,40,67,40"/>
</g>
</svg>
