<?xml version="1.0"?>
<svg width="500" height="500" xmlns="http://www.w3.org/2000/svg" xmlns:svg="http://www.w3.org/2000/svg" enable-background="new 0 0 500 500" version="1.1" xml:space="preserve">
 <style type="text/css">.st0{fill:url(#SVGID_1_);}
	.st1{fill:url(#SVGID_00000152229298178538915700000013775791189896210591_);}
	.st2{fill-rule:evenodd;clip-rule:evenodd;fill:#29ABE2;}</style>
 <linearGradient gradientTransform="matrix(1 0 0 -1 0 501)" gradientUnits="userSpaceOnUse" id="SVGID_1_" x1="314.25" x2="482.63" y1="355.63" y2="182.17">
  <stop offset="0.21" stop-color="#F15A24"/>
  <stop offset="0.68" stop-color="#FBB03B"/>
 </linearGradient>
 <linearGradient id="SVGID_00000049923625672429262480000008628275021033640849_" x1="0.74" x2="0.07" y1="0.91" y2="0.07">
  <stop offset="0.21" stop-color="#ED1E79"/>
  <stop offset="0.89" stop-color="#522785"/>
 </linearGradient>
 <g class="layer">
  <title>Layer 1</title>
  <ellipse cx="250" cy="250" fill="#ffffff" id="svg_5" rx="250" ry="250"/>
  <path class="st0" d="m378.3,127.2c-28,0 -58.5,14.9 -90.7,44.3c-15.3,13.8 -28.6,28.8 -38.4,40.7c0,0 15.7,17.7 32.9,36.6c9.3,-11.5 22.7,-27.1 38.2,-41.1c28.6,-26.2 47.3,-31.5 58.1,-31.5c40.3,0 72.9,33 72.9,73.9c0,40.5 -32.6,73.5 -72.9,73.9c-1.9,0 -4.2,-0.2 -7,-0.9c11.7,5.3 24.4,9.2 36.2,9.2c73.8,0 88.2,-49.9 89,-53.5c2.1,-9.2 3.4,-18.7 3.4,-28.6c-0.2,-67.8 -54.7,-123 -121.7,-123z" id="svg_1"/>
  <path d="m120.8,372.8c28,0 58.5,-14.9 90.7,-44.3c15.3,-13.8 28.6,-28.8 38.4,-40.7c0,0 -15.7,-17.7 -32.9,-36.6c-9.3,11.5 -22.7,27.1 -38.2,41.1c-28.6,26 -47.5,31.5 -58.1,31.5c-40.3,0 -72.9,-33 -72.9,-73.9c0,-40.5 32.6,-73.5 72.9,-73.9c1.9,0 4.2,0.2 7,0.9c-11.7,-5.3 -24.4,-9.2 -36.2,-9.2c-73.8,0 -88.2,49.9 -89,53.5c-2.1,9.2 -3.4,18.7 -3.4,28.6c0,67.8 54.5,123 121.7,123z" fill="url(#SVGID_00000049923625672429262480000008628275021033640849_)" id="svg_2"/>
  <path class="st2" d="m176.9,208.8c-8.1,-7.7 -47.5,-39 -85.2,-40.1c-67.2,-1.7 -87,46.2 -88.7,52.4c12.9,-53.7 60.9,-93.7 118,-93.9c46.5,0 93.5,44.7 128.3,85c0.1,-0.1 0.1,-0.1 0.2,-0.2c0,0 15.7,17.7 32.9,36.6c0,0 19.5,22.6 40.3,42.4c8.1,7.7 47.3,38.6 85,39.6c69.1,1.9 88.2,-48.6 89.2,-52.4c-12.7,53.9 -60.8,94.2 -118.1,94.4c-46.5,0 -93.6,-44.7 -128.5,-85c-0.1,0.1 -0.1,0.2 -0.2,0.2c0,0 -15.7,-17.7 -32.9,-36.6c-0.1,0 -19.6,-22.6 -40.3,-42.4zm-174.1,12.8c0,-0.1 0.1,-0.3 0.1,-0.4c0,0.1 0,0.2 -0.1,0.4z" id="svg_3"/>
 </g>
</svg>