<?xml version="1.0" encoding="UTF-8"?><svg id="Layer_1" xmlns="http://www.w3.org/2000/svg" viewBox="0 0 128 128"><defs><style>.cls-1{fill:#1eefa4;}.cls-2{fill-rule:evenodd;}</style></defs><circle class="cls-1" cx="64" cy="64" r="63.5"/><g id="ID"><path d="m71.13,78.92c0-3.58,2.9-6.49,6.49-6.49h2.59c3.58,0,6.49,2.9,6.49,6.49v2.59c0,3.58-2.9,6.49-6.49,6.49h-2.59c-3.58,0-6.49-2.9-6.49-6.49v-2.59Z"/><path d="m77.62,49.08c-3.58,0-6.49,2.9-6.49,6.49v2.59c0,3.58,2.9,6.49,6.49,6.49h2.59c3.58,0,6.49-2.9,6.49-6.49v-2.59c0-3.58-2.9-6.49-6.49-6.49h-2.59Z"/><path class="cls-2" d="m47.79,21.84c-14.33,0-25.94,11.61-25.94,25.94v32.43c0,14.33,11.61,25.94,25.94,25.94h32.43c14.33,0,25.94-11.61,25.94-25.94v-32.43c0-14.33-11.61-25.94-25.94-25.94h-32.43Zm32.43,10.38h-32.43c-8.6,0-15.57,6.97-15.57,15.57v32.43c0,8.6,6.97,15.57,15.57,15.57h32.43c8.6,0,15.57-6.97,15.57-15.57v-32.43c0-8.6-6.97-15.57-15.57-15.57Z"/></g></svg>