<?xml version="1.0" encoding="UTF-8"?><svg id="Layer_1" xmlns="http://www.w3.org/2000/svg" viewBox="0 0 128 128"><defs><style>.cls-1{fill:#6128bc;}.cls-2{fill:#fff;fill-rule:evenodd;}</style></defs><circle class="cls-1" cx="64" cy="64" r="63.5"/><path class="cls-2" d="m24.47,92.24l1.37,1.76,7.41,9.53h61.49l8.79-11.29-21.96-28.24,20.59-26.47,1.37-1.76-8.79-11.3h-61.49l-1.4,1.8-7.38,9.49,21.96,28.24-21.96,28.24Zm26.49-5.65c-1.84,0-2.88-2.12-1.74-3.57l6.01-7.73,8.79,11.29h-13.05Zm29.22-24.39l19.19-24.67h-35.56c-1.15,0-1.8,1.32-1.09,2.23l1.28,1.65h13.05c1.84,0,2.88,2.12,1.74,3.57l-6.01,7.73,7.38,9.49h0Zm-52.91-26.44l43.25,55.61.31.4c.71.91.06,2.23-1.09,2.23H28.64l6.04,7.77h55.89L33.25,28.07l-5.99,7.69Z"/></svg>