<?xml version="1.0" encoding="utf-8"?>
<!-- Generator: Adobe Illustrator 25.4.1, SVG Export Plug-In . SVG Version: 6.00 Build 0)  -->
<svg version="1.1" id="Layer_1" xmlns="http://www.w3.org/2000/svg" xmlns:xlink="http://www.w3.org/1999/xlink" x="0px" y="0px"
	 width="128px" height="128px" viewBox="0 0 128 128" style="enable-background:new 0 0 128 128;" xml:space="preserve">
<style type="text/css">
	.st0{fill:none;}
	.st1{fill:url(#SVGID_1_);}
	.st2{fill:url(#SVGID_00000105426274582319587910000007509995344405473971_);}
	.st3{fill:#FFFFFF;}
</style>
<g>
	<g>
		
			<linearGradient id="SVGID_1_" gradientUnits="userSpaceOnUse" x1="-438.9967" y1="-113.6573" x2="-552.3456" y2="-199.7656" gradientTransform="matrix(1 0 0 -1 564 -96)">
			<stop  offset="0" style="stop-color:#31F27F"/>
			<stop  offset="0.2188" style="stop-color:#FCC26C"/>
			<stop  offset="0.4688" style="stop-color:#AB54F4"/>
			<stop  offset="0.7344" style="stop-color:#2D51ED"/>
			<stop  offset="1" style="stop-color:#2D4955"/>
		</linearGradient>
		<path class="st1" d="M64,1.9L64,1.9c34.3,0,62.1,27.8,62.1,62.1l0,0c0,34.3-27.8,62.1-62.1,62.1l0,0C29.7,126.1,1.9,98.3,1.9,64
			l0,0C1.9,29.7,29.7,1.9,64,1.9z"/>
	</g>
	<g>
		
			<linearGradient id="SVGID_00000036965930283196410190000010355245839727849913_" gradientUnits="userSpaceOnUse" x1="-500.0034" y1="-104.0747" x2="-500.0034" y2="-212.808" gradientTransform="matrix(1 0 0 -1 564 -96)">
			<stop  offset="0" style="stop-color:#25214F;stop-opacity:0.48"/>
			<stop  offset="1" style="stop-color:#25214F;stop-opacity:8.000000e-02"/>
		</linearGradient>
		<path style="fill:url(#SVGID_00000036965930283196410190000010355245839727849913_);" d="M62.4,8.1h3.1c30,0,54.4,24.3,54.4,54.4
			l0,0c0,30-24.3,54.4-54.4,54.4h-3.1c-30,0-54.4-24.3-54.4-54.4l0,0C8.1,32.4,32.4,8.1,62.4,8.1z"/>
		<g>
			<path class="st3" d="M63.7,33.6c-0.4,11.9-0.4,24.7,0,36.7C64,58.3,64,45.5,63.7,33.6z M49.1,96.6L49.1,96.6c0.2,0,0.3,0,0.4-0.1
				c2.6-1.3,5.4-2.3,8.2-3.1c3.6-1.1,7.2-1.2,10.9-0.3c3.1,0.8,6.2,1.9,9.1,3.3c0.2,0.1,0.3,0.3,0.6,0.2c0,0-0.1-0.1-0.1-0.1
				c-4.5-3.2-9.1-6.3-13.6-9.5c-0.6-0.4-1.2-0.4-1.8,0C58.2,90.3,53.6,93.4,49.1,96.6z M46.4,51.4c-0.3,0.3-0.2,0.6,0.1,0.9
				c1.1,1,1.8,2.3,2.2,3.7c0.6,1.7,0.8,3.4,0.9,5.1c0.1,2.7,0.1,5.3,0,8c-0.1,3.6-0.1,7.1-0.1,10.7c0,3.9-0.6,7.8-2,11.5
				c-0.5,1.5-1.1,2.9-1.8,4.5c0.1,0,0.2-0.1,0.4-0.1c4-2.9,7.9-5.8,12-8.5c0.5-0.3,0.5-0.8,0.2-1.2c-0.3-0.4-0.7-0.9-1.1-1.3
				c-1.1-1.2-1.5-2.6-1.6-4.1c0-2-0.1-4-0.1-5.9c-0.1-7.3,0-14.6-0.1-21.9c-0.1-9.4-0.1-18.7-0.2-28.1v-0.4h-0.1
				c-0.5,3.7-0.9,7.4-1.7,11.1C52.2,41.1,50.4,46.6,46.4,51.4z M71.9,41.2c-0.1,8.4,0,16.8-0.2,25.2c-0.1,4.4-0.1,8.7,0,13.1
				c0,2.2-0.5,4.2-2.2,5.9c-0.2,0.2-0.3,0.3-0.4,0.5c-0.4,0.5-0.3,0.9,0.3,1.3c4,2.6,7.8,5.4,11.6,8.1c0.2,0.1,0.3,0.3,0.7,0.3
				c-1.3-2.6-2.1-5.2-2.9-7.9c-0.3-1-0.6-2.1-0.7-3.1c-0.2-2.6-0.2-5.3-0.2-7.9c-0.1-4.5,0-9-0.1-13.5c0-1.5,0.1-3.1,0.3-4.6
				c0.3-2,0.9-4,2.3-5.7c0.9-1.1,0.9-1.1,0-2.3c-3.1-4.1-4.8-8.6-6-13.4c-1.1-4.3-1.6-8.7-2.1-13H72C71.9,29.9,71.9,35.5,71.9,41.2z
				"/>
		</g>
	</g>
</g>
</svg>
