<?xml version="1.0" encoding="utf-8"?>
<!-- Generator: Adobe Illustrator 26.0.2, SVG Export Plug-In . SVG Version: 6.00 Build 0)  -->
<svg version="1.1" id="Layer_1" xmlns="http://www.w3.org/2000/svg" xmlns:xlink="http://www.w3.org/1999/xlink" x="0px" y="0px"
	 width="128px" height="128px" viewBox="0 0 128 128" style="enable-background:new 0 0 128 128;" xml:space="preserve">
<style type="text/css">
	.st0{fill:#1C2951;}
	.st1{clip-path:url(#SVGID_00000142165646495910399960000002432524829372549274_);}
	.st2{fill:#17B5CB;}
</style>
<circle class="st0" cx="64" cy="64" r="63.5"/>
<g>
	<defs>
		<rect id="SVGID_1_" x="20.7" y="28.8" width="86.5" height="70.4"/>
	</defs>
	<clipPath id="SVGID_00000013156245170533178170000014379263302568117388_">
		<use xlink:href="#SVGID_1_"  style="overflow:visible;"/>
	</clipPath>
	<g style="clip-path:url(#SVGID_00000013156245170533178170000014379263302568117388_);">
		<path class="st2" d="M98,28.8h9.1L70.2,70.9c-1,1-1,2.7-0.1,3.8l21.3,24.7h-9.5L62.3,76.5l-1-1.2c-0.9-1.1-0.9-2.7,0.1-3.8
			L98,28.8z"/>
		<path class="st2" d="M77.5,74.7c-0.6-0.7-0.8-1.7-0.6-2.5c0.2-0.5,0.5-1,0.8-1.4l2.5-2.7l27.1,31.3h-8.6
			C98.7,99.4,82.8,80.9,77.5,74.7z"/>
		<path class="st2" d="M30.2,99.4h-9.5l29-33.6c0.9-1.1,0.9-2.7,0-3.7L20.9,28.8H30L59,62.4c0.7,1,0.9,2.4,0.1,3.4
			C51.5,74.5,30.2,99.4,30.2,99.4z"/>
		<path class="st2" d="M46,28.8h-8.7l26.8,31.1c0,0,0.1-0.1,3.1-3.6c0.8-1,1-2.1,0.1-3C61.6,47.5,46,28.8,46,28.8z"/>
		<path class="st2" d="M72.1,50.5l18.6-21.7h-8.8l-9.7,11.3l-2.8,3.3c-1,1-1,2.7-0.1,3.8C70.1,48,72.1,50.5,72.1,50.5z"/>
		<path class="st2" d="M56,77.7L37.4,99.4h8.8l9.7-11.3l2.8-3.3c1-1,1-2.7,0.1-3.8C58.1,80.2,56,77.7,56,77.7z"/>
	</g>
</g>
</svg>
