<?xml version="1.0"?>
<svg width="400" height="400" xmlns="http://www.w3.org/2000/svg" xmlns:svg="http://www.w3.org/2000/svg" enable-background="new 0 0 400 400" version="1.1" xml:space="preserve">
 <style type="text/css">.st0{fill:url(#SVGID_1_);}
	.st1{fill:url(#SVGID_00000086676275963215266160000010661415873992010152_);}</style>
 <linearGradient gradientTransform="matrix(1 0 0 -1 0 399.89)" gradientUnits="userSpaceOnUse" id="SVGID_1_" x1="0" x2="400" y1="182.25" y2="182.25">
  <stop offset="0" stop-color="#0082FA"/>
  <stop offset="1" stop-color="#00F2FE"/>
 </linearGradient>
 <linearGradient id="SVGID_00000027590406948247584680000011222828394992047503_" x1="-0.69" x2="1" y1="0.5" y2="0.5">
  <stop offset="0" stop-color="#0082FA"/>
  <stop offset="1" stop-color="#00F2FE"/>
 </linearGradient>
 <g class="layer">
  <title>Layer 1</title>
  <ellipse cx="200" cy="200" fill="#ffffff" id="svg_3" rx="200" ry="200"/>
  <path class="st0" d="m48.5,69.1c2.5,-3.1 5.1,-6.1 7.7,-9.1c0.1,-0.1 0.4,-0.2 0.5,-0.3c0.2,-0.3 0.6,-0.5 0.9,-0.8l0.2,-0.3c1.8,-1.7 3.8,-3.5 6,-5.2c8,-6 16.2,-10.6 24.9,-13.7c28,-9.8 59.1,-3.8 83.5,19.3c34.1,31.9 31,83.4 3.8,117.6c-34.4,51 -93.4,122.1 -11.7,185.8c14.7,11.5 25.6,20.9 71.9,34.3c-30.3,5.6 -58.4,3.8 -89.6,-4.1c-22.1,-12.5 -56.9,-39.2 -68.7,-75.3c-17.9,-54.7 31.5,-136.6 55.3,-168.1c32.7,-43.6 -20.2,-90.8 -59.3,-38.1c-20.2,27.5 -55.9,105.2 -43.5,162.9c7.2,32.7 16.9,56.5 55.2,89.3c-7.1,-4.2 -14,-8.9 -20.7,-14.3c-88.9,-82.9 -78.6,-211.1 -16.4,-279.9z" id="svg_1"/>
  <path d="m351.5,330.9c-2.5,3.1 -5.1,6.1 -7.7,9.1c-0.1,0.1 -0.4,0.2 -0.5,0.3c-0.2,0.3 -0.6,0.5 -0.9,0.8l-0.2,0.3c-1.8,1.7 -3.8,3.5 -6,5.1c-8,6 -16.2,10.6 -24.9,13.7c-28,9.8 -59.1,3.8 -83.5,-19.3c-34.1,-31.9 -31,-83.4 -3.8,-117.6c34.4,-51 93.4,-122.1 11.7,-185.8c-14.7,-11.5 -25.6,-20.9 -71.9,-34.3c30.3,-5.6 58.4,-3.8 89.6,4.1c22.1,12.5 56.9,39.2 68.7,75.3c17.9,54.7 -31.5,136.6 -55.3,168.1c-32.7,43.6 20.2,90.8 59.3,38.1c20.4,-27.5 56.1,-105.2 43.7,-162.9c-7.2,-32.7 -16.9,-56.5 -55.2,-89.3c7.1,4.2 14,8.9 20.7,14.3c88.7,83 78.4,211.2 16.2,280z" fill="url(#SVGID_00000027590406948247584680000011222828394992047503_)" id="svg_2"/>
 </g>
</svg>