<svg id="Layer_1" xmlns="http://www.w3.org/2000/svg" viewBox="0 0 32 32"><style>.st0{fill:#fff}</style><circle cx="16" cy="16" r="16"/><circle class="st0" cx="21.5" cy="5.3" r="1.4"/><circle class="st0" cx="21.9" cy="9.1" r="1.2"/><circle class="st0" cx="25.1" cy="9.6" r="1.2"/><circle class="st0" cx="24.7" cy="12.8" r="1.1"/><circle class="st0" cx="27.3" cy="13.8" r="1.1"/><circle class="st0" cx="21.5" cy="12.4" r="1.1"/><circle class="st0" cx="20.5" cy="15" r=".9"/><circle class="st0" cx="23.7" cy="15.4" r=".9"/><circle class="st0" cx="26.3" cy="16.4" r=".9"/><circle class="st0" cx="25" cy="18.4" r=".8"/><circle class="st0" cx="22.5" cy="17.4" r=".8"/><circle class="st0" cx="19.2" cy="16.9" r=".8"/><circle class="st0" cx="21" cy="18.8" r=".7"/><circle class="st0" cx="23.6" cy="19.8" r=".7"/><circle class="st0" cx="22.1" cy="20.6" r=".5"/><circle class="st0" cx="20.8" cy="21.1" r=".5"/><circle class="st0" cx="19.6" cy="19.7" r=".6"/><circle class="st0" cx="17.8" cy="18.3" r=".7"/><circle class="st0" cx="23.1" cy="25.6" r="1.4"/><circle class="st0" cx="19.6" cy="24.1" r="1.2"/><circle class="st0" cx="17.6" cy="26.6" r="1.2"/><circle class="st0" cx="17" cy="22.1" r="1.1"/><circle class="st0" cx="15" cy="24.7" r="1.1"/><circle class="st0" cx="12.8" cy="26.4" r="1.1"/><circle class="st0" cx="11" cy="24.3" r=".9"/><circle class="st0" cx="13.2" cy="22.6" r=".9"/><circle class="st0" cx="15.2" cy="20" r=".9"/><circle class="st0" cx="12.1" cy="20.5" r=".8"/><circle class="st0" cx="10" cy="22.2" r=".8"/><circle class="st0" cx="9.5" cy="20.3" r=".7"/><circle class="st0" cx="9.4" cy="18.6" r=".6"/><circle class="st0" cx="9.7" cy="17.1" r=".5"/><circle class="st0" cx="11.6" cy="16.8" r=".6"/><circle class="st0" cx="13.6" cy="15.9" r=".7"/><circle class="st0" cx="14.1" cy="17.9" r=".8"/><circle class="st0" cx="11.6" cy="18.5" r=".7"/><circle class="st0" cx="4.7" cy="16.9" r="1.4"/><circle class="st0" cx="7.8" cy="14.6" r="1.2"/><circle class="st0" cx="6.5" cy="11.6" r="1.2"/><circle class="st0" cx="9.5" cy="10.3" r="1.1"/><circle class="st0" cx="10.8" cy="13.3" r="1.1"/><circle class="st0" cx="13.5" cy="12.8" r=".9"/><circle class="st0" cx="15.8" cy="13" r=".8"/><circle class="st0" cx="17.8" cy="13.5" r=".7"/><circle class="st0" cx="18.1" cy="11.3" r=".6"/><circle class="st0" cx="16.6" cy="10.5" r=".7"/><circle class="st0" cx="14.6" cy="10" r=".8"/><circle class="st0" cx="12.3" cy="9.8" r=".9"/><circle class="st0" cx="9.1" cy="7.6" r="1"/><circle class="st0" cx="11.8" cy="7.1" r=".9"/><circle class="st0" cx="14.2" cy="7.2" r=".8"/><circle class="st0" cx="16.1" cy="7.8" r=".7"/><circle class="st0" cx="17.6" cy="8.6" r=".6"/><circle class="st0" cx="18.7" cy="9.6" r=".5"/></svg>