<svg id="Layer_1" xmlns="http://www.w3.org/2000/svg" viewBox="0 0 32 32"><style>.st1{fill:#00d6cf}.st2{fill:#0fd1cb}.st3{fill:#10e8c9}.st4{opacity:.5;fill:#00daaf}.st5{opacity:.8;fill:#00d8b8}.st7{opacity:.2;fill:#00dcb9}.st8{fill:#17ccba}</style><circle cx="16" cy="16" r="16" fill="#fff"/><path class="st1" d="M22.7 8v5.1l4.3-2.6zM22.7 13.1v5.1l4.3-2.6z"/><path class="st2" d="M27 10.5v5.1l-4.3-2.5z"/><path class="st3" d="M17.6 10.1v5.1l-4.3-2.5z"/><path class="st4" d="M13.3 7.6v5.1L9 10.2z"/><path class="st3" d="M18.4 5.5v5.1l-4.3-2.5z"/><path class="st5" d="M12.5 12.2v5.1l-4.3-2.5z"/><path class="st4" d="M9.3 16.7v5.1L5 19.3z"/><path fill="#3beadd" d="M18.4 15.7v5.1l-4.3-2.5z"/><path class="st7" d="M17.4 20.2v5.1l-4.3-2.5z"/><path class="st2" d="M27 15.6v5.1l-4.3-2.5zM22.7 18.2v5.1l-4.3-2.5z"/><path class="st8" d="M22.7 13.1v5.1l-4.3-2.5zM22.7 8v5.1l-4.3-2.5zM22.7 18.2v5.1l4.3-2.6z"/><path fill="#00d7be" d="M18.4 5.5v5.1L22.7 8z"/><path class="st1" d="M18.4 10.6v5.1l4.3-2.6z"/><path class="st5" d="M13.3 9.8v5.1l4.3-2.6z"/><path class="st7" d="M7.1 10.3v5.1l4.3-2.6zM9.3 15.4v5.1l4.3-2.5z"/><path class="st5" d="M12.2 19.2v5.1l4.4-2.5z"/><path fill="#00d4d1" d="M18.4 21.4v5.1l4.3-2.6z"/><path class="st7" d="M12.5 12.2v5.1l4.3-2.6z"/><path fill="#00d7c8" d="M18.4 15.7v5.1l4.3-2.6z"/></svg>