<?xml version="1.0" encoding="UTF-8"?><svg id="Layer_1" xmlns="http://www.w3.org/2000/svg" viewBox="0 0 128 128"><defs><style>.cls-1{fill:#fb499f;}.cls-1,.cls-2,.cls-3,.cls-4,.cls-5,.cls-6,.cls-7,.cls-8,.cls-9,.cls-10,.cls-11,.cls-12{stroke-width:0px;}.cls-2{fill:#fc499f;}.cls-3{fill:#4c2049;}.cls-4{fill:#552751;}.cls-5{fill:#542952;}.cls-6{fill:#3b2043;}.cls-7{fill:#5a2450;}.cls-8{fill:#572551;}.cls-9{fill:#412247;}.cls-10{fill:#152e3e;}.cls-11{fill:#eaedf1;}.cls-12{fill:#eee;}</style></defs><circle class="cls-12" cx="64" cy="64" r="63.5"/><g id="IQ_Logo"><path class="cls-11" d="m72.4,105.03c-4.95-.44-10.03-1.45-14.08-4.99-1.83-1.6-3.57-2.2-5.97-1.99-6.63.59-12.1-1.79-16.17-7.1-1-1.31-2.15-1.7-3.71-1.94-8.21-1.22-13.71-5.9-16.2-13.76-2.52-7.96-.32-14.83,5.74-20.46,1.15-1.07,1.77-2.12,2.07-3.68,1.36-7.1,5.7-11.79,12.4-14.24,1.79-.65,2.91-1.63,3.91-3.24,6.4-10.26,19.87-13.7,30.64-7.76,1.83,1.01,3.38,1.24,5.38.88,8.85-1.59,16.32,2.09,20.54,10.16,1.17,2.23,2.65,3.51,5.02,4.47,6.62,2.68,10.97,9.77,9.16,17.59-.61,2.63-.42,5,.51,7.64,4.22,11.91-3.98,25.09-16.74,26.93-2.32.33-3.76,1.24-5.1,2.91-4.24,5.29-10.73,8.49-17.41,8.57Zm-12.2-78.76c-7.64.39-13.99,3.12-17.69,10.27-.89,1.72-2.05,2.56-3.9,3.14-6.24,1.93-10.5,5.88-11.27,12.65-.27,2.34-1.64,3.53-3.17,4.94-5.31,4.87-6.94,10.96-4.54,17.67,2.31,6.46,7.13,10.27,14.17,10.79,1.84.14,3.09.54,4.28,2.28,3.97,5.8,9.68,7.96,16.55,6.48,1.9-.41,2.96.18,4.22,1.43,8.68,8.61,22.47,7.23,29.37-2.97.99-1.47,1.88-2.23,3.76-2.41,13.88-1.36,20.61-12.3,15.63-25.23-.58-1.5-1.12-2.73-.51-4.56,2.81-8.35-.64-14.85-9.12-17.32-1.43-.42-2.3-.77-2.73-2.26-2.57-8.96-11.74-13.29-20.27-10.71-1.6.48-2.7.27-4.07-.6-3.24-2.06-6.69-3.68-10.73-3.57Z"/><path class="cls-10" d="m60.19,26.27c4.03-.11,7.49,1.51,10.73,3.57,1.37.87,2.46,1.08,4.07.6,8.53-2.58,17.7,1.75,20.27,10.71.43,1.49,1.3,1.84,2.73,2.26,8.48,2.47,11.93,8.97,9.12,17.32-.61,1.83-.07,3.06.51,4.56,4.98,12.93-1.76,23.87-15.63,25.23-1.88.18-2.76.95-3.76,2.41-6.91,10.2-20.69,11.58-29.37,2.97-1.26-1.25-2.32-1.84-4.22-1.43-6.88,1.48-12.58-.67-16.55-6.48-1.2-1.75-2.44-2.15-4.28-2.28-7.03-.52-11.86-4.33-14.17-10.79-2.39-6.7-.77-12.79,4.54-17.67,1.53-1.4,2.9-2.59,3.17-4.94.77-6.77,5.03-10.72,11.27-12.65,1.85-.57,3.01-1.42,3.9-3.14,3.71-7.15,10.05-9.88,17.69-10.27Zm29.4,60.27c6.08,1,10.81-1.52,14-6.35,3.06-4.65,2.71-9.75-.06-14.64-1.04-1.85-5.93-3.81.01-5.7.17-.05.2-.52.31-.79,1.81-4.3-.84-9.98-5.32-11.49-2.81-.95-5.48-.56-8.08.74-.62.31-1.42.93-1.89.04-.42-.79.43-1.49,1.01-1.72,3.98-1.58,2.47-4.23,1.24-6.63-3.69-7.23-12.73-8.66-19.95-3.24-.24-.56-.48-1.11-.72-1.67-.1-2.41-2.07-2.92-3.78-3.57-8.65-3.28-14.87-1.14-21.01,7.17-1.06.94-.96,2.42-1.73,3.52-3.59,1.04-7.47,1.63-9.91,4.84-1.71,2.25-4.31,4.39-2.55,7.85.01.79.02,1.58.03,2.37-6.87,3.36-10.11,8.95-8.66,14.93,1.55,6.39,6.63,9.95,14.06,9.87.92.26,1.84.51,2.77.77,3.18,7.66,10.33,10.06,16.34,7.08,1.86-.92,2.9-.13,4.09,1.26,8.32,9.74,19.69,8.86,26.44-2,1.37-.58,1.72-2.44,3.37-2.66Z"/><path class="cls-2" d="m86.23,89.2c-6.76,10.85-18.13,11.74-26.44,2-1.19-1.39-2.22-2.19-4.09-1.26-6.01,2.98-13.16.58-16.34-7.08-.57-5.57.17-10.62,5.39-13.97.69-.44,1.65-1.06.83-2.07-.61-.75-1.48-.22-1.96.23-2,1.88-4.15,1.62-6.56.93-1.97-.57-4.1-.55-6.14.02-.82.23-1.91.51-1.62,1.66.29,1.15,1.37.83,2.22.72,1.17-.14,2.35-.54,3.49-.43,2.23.22,4.54.43,2.79,3.88-1.28,2.53-1.02,5.47-1.22,8.26-7.43.08-12.51-3.48-14.06-9.87-1.45-5.97,1.79-11.56,8.66-14.93,1.42.24,3.15-.27,3.08-1.49-.11-1.83-1.93-.95-3.11-.88-1.76-3.45.84-5.6,2.55-7.85,2.44-3.2,6.32-3.79,9.91-4.84,1.3.23,2.6.48,3.91.7,1.95.33,3.97.96,4.95,2.63.99,1.71-1.5,2.1-2.07,3.33-.26.56-.57,1.03-.06,1.57.51.54,1.09.4,1.57.02.92-.74,1.76-1.58,2.69-2.3,6.46-4.99,16.93-2.44,20.36,4.94,1.39,2.99.8,4.3-2.57,4.68-2.63.3-4.77,1.49-6.81,2.93-.74.52-2.05,1.37-1.25,2.43.89,1.17,1.81-.03,2.57-.64,8.3-6.57,19.28-.36,20.41,8.73.16,1.31.97,3.17,0,3.78-1.24.78-1.89-1.29-2.94-1.94-.85-.52-1.67-1.69-2.63-.58-.81.92.34,1.5.92,2.09,4.04,4.16,5.48,8.96,3.56,14.59Zm-18.15-9.86c-7.73-.18-12.05-6.93-9.23-14.02.43-1.08,1.55-2.55.38-3.12-1.55-.76-1.96,1.2-2.59,2.26-.29.5-.61,1.09-.6,1.63.02,4.4-.96,8.14-5.6,10.02-.92.37-2.31,1.81-1.36,2.81,1.52,1.62,2.1-.76,2.88-1.4,2.47-2.03,4.47-3.01,6.91.2,1.83,2.4,4.61,3.75,7.72,3.67,2.72-.07,4.67.42,4.63,3.68,0,.75.29,1.49,1.3,1.33.72-.12,1.04-.82.85-1.31-1.29-3.39.29-5.55,2.92-7.37.46-.32.87-.97.49-1.54-.55-.83-1.27-.45-1.86.04-2.07,1.75-4.37,2.96-6.85,3.13Zm-18.48-18.51c1.49-.28,3.4.11,3.31-1.64-.08-1.48-1.88-.79-2.96-.97-1-.17-1.99-.37-2.97-.61-1.12-.27-2.58-2.04-3.25-.34-.67,1.7,1.42,2.21,2.74,2.71,1.08.41,2.24.61,3.13.85Z"/><path class="cls-1" d="m70.87,36.77c7.22-5.42,16.26-3.99,19.95,3.24,1.23,2.41,2.74,5.05-1.24,6.63-.58.23-1.43.92-1.01,1.72.47.89,1.27.27,1.89-.04,2.6-1.3,5.27-1.69,8.08-.74,4.49,1.51,7.13,7.2,5.32,11.49-.11.27-.14.74-.31.79-5.94,1.89-1.06,3.85-.01,5.7,2.76,4.89,3.12,9.99.06,14.64-3.19,4.83-7.92,7.35-14,6.35-.12-1.02-.23-2.05-.37-3.07-.9-6.74-.64-7.21,5.29-9.57.71-.28,1.42-.65,1.23-1.53-.21-.96-1.18-.87-1.81-.74-3.16.69-4.36-.91-5.3-3.69-1.25-3.7-3.68-6.67-7.23-8.6-4.2-2.28-5.35-6.89-2.81-11.01.46-.75,1.09-1.39,1.54-2.15.38-.65.59-1.44-.23-1.92-.6-.35-1.13.06-1.51.54-.55.69-1.15,1.37-1.54,2.15-.99,1.94-1.81,2.73-3.72.64-2.24-2.45-5.37-3.53-8.67-3.9-1.86-.21-3.48-.55-3.91-2.79-.19-.97-.53-2.27-1.89-1.84-1.04.33-.73,1.46-.44,2.3.42,1.25.4,2.25-1,2.94-1.1.54-1.99.4-2.83-.38-2.03-1.89-4.63-2.55-7.17-3.29-1.07-.31-2-.54-1.87-1.92,6.14-8.31,12.36-10.46,21.01-7.17,1.72.65,3.68,1.15,3.78,3.57-1.54,1.16-2.96,2.42-3.05,4.52,0,.23.66.77.88.7,1.73-.52,2.32-2.04,2.89-3.55Zm23.47,20.71c-.17-.84-.75-1.01-1.33-1.07-2.01-.2-3.75.42-5.17,1.86-.39.4-.25.94.1,1.15,1.64.95,3-.58,4.56-.62.77-.02,1.8-.24,1.84-1.31Z"/><path class="cls-9" d="m45.36,38.71c-.13,1.38.8,1.61,1.87,1.92,2.54.74,5.14,1.4,7.17,3.29.84.78,1.73.92,2.83.38,1.4-.69,1.42-1.69,1-2.94-.28-.85-.6-1.97.44-2.3,1.36-.43,1.7.87,1.89,1.84.43,2.23,2.05,2.57,3.91,2.79,3.29.37,6.42,1.45,8.67,3.9,1.92,2.1,2.74,1.31,3.72-.64.4-.78.99-1.46,1.54-2.15.38-.48.91-.89,1.51-.54.82.48.62,1.27.23,1.92-.45.76-1.07,1.4-1.54,2.15-2.54,4.12-1.39,8.72,2.81,11.01,3.55,1.93,5.98,4.9,7.23,8.6.94,2.78,2.14,4.38,5.3,3.69.62-.14,1.6-.22,1.81.74.19.88-.52,1.25-1.23,1.53-5.93,2.36-6.19,2.83-5.29,9.57.14,1.02.24,2.05.37,3.07-1.65.22-2,2.08-3.37,2.66,1.92-5.62.48-10.42-3.56-14.59-.58-.6-1.73-1.17-.92-2.09.97-1.1,1.79.06,2.63.58,1.05.64,1.7,2.72,2.94,1.94.97-.61.17-2.47,0-3.78-1.12-9.1-12.11-15.31-20.41-8.73-.76.6-1.69,1.81-2.57.64-.8-1.05.51-1.91,1.25-2.43,2.04-1.45,4.18-2.63,6.81-2.93,3.37-.38,3.96-1.68,2.57-4.68-3.42-7.38-13.89-9.93-20.36-4.94-.93.72-1.77,1.56-2.69,2.3-.49.39-1.06.53-1.57-.02-.51-.54-.2-1.01.06-1.57.57-1.23,3.06-1.62,2.07-3.33-.97-1.67-3-2.3-4.95-2.63-1.3-.22-2.61-.47-3.91-.7.73-1.1.58-2.63,1.73-3.52Z"/><path class="cls-3" d="m36.6,82.08c.2-2.79-.06-5.73,1.22-8.26,1.75-3.45-.56-3.66-2.79-3.88-1.14-.11-2.32.28-3.49.43-.85.11-1.93.43-2.22-.72-.29-1.15.8-1.43,1.62-1.66,2.03-.57,4.16-.59,6.14-.02,2.41.7,4.55.95,6.56-.93.48-.45,1.35-.99,1.96-.23.82,1.01-.14,1.62-.83,2.07-5.22,3.35-5.96,8.4-5.39,13.97-.92-.26-1.84-.51-2.77-.77Z"/><path class="cls-8" d="m70.87,36.77c-.57,1.51-1.15,3.03-2.89,3.55-.22.07-.89-.47-.88-.7.09-2.1,1.51-3.36,3.05-4.52.24.56.48,1.11.72,1.67Z"/><path class="cls-5" d="m31.16,54.91c1.18-.07,3-.95,3.11.88.07,1.22-1.66,1.73-3.08,1.49-.01-.79-.02-1.58-.03-2.37Z"/><path class="cls-6" d="m68.08,79.34c2.47-.17,4.78-1.38,6.85-3.13.59-.49,1.31-.87,1.86-.04.38.57-.03,1.22-.49,1.54-2.63,1.82-4.21,3.98-2.92,7.37.19.5-.13,1.2-.85,1.31-1.01.16-1.31-.58-1.3-1.33.04-3.27-1.91-3.75-4.63-3.68-3.11.08-5.9-1.26-7.72-3.67-2.44-3.21-4.45-2.23-6.91-.2-.78.65-1.36,3.02-2.88,1.4-.94-1,.44-2.44,1.36-2.81,4.63-1.88,5.61-5.62,5.6-10.02,0-.55.31-1.14.6-1.63.63-1.06,1.04-3.02,2.59-2.26,1.16.57.04,2.05-.38,3.12-2.82,7.09,1.5,13.84,9.23,14.02Z"/><path class="cls-4" d="m49.6,60.83c-.89-.23-2.05-.44-3.13-.85-1.32-.5-3.42-1.01-2.74-2.71.68-1.7,2.13.07,3.25.34.98.24,1.98.44,2.97.61,1.07.18,2.88-.5,2.96.97.09,1.74-1.82,1.36-3.31,1.64Z"/><path class="cls-7" d="m94.35,57.48c-.04,1.07-1.08,1.29-1.84,1.31-1.56.05-2.92,1.58-4.56.62-.35-.21-.49-.75-.1-1.15,1.42-1.44,3.16-2.07,5.17-1.86.58.06,1.16.23,1.33,1.07Z"/></g></svg>