<?xml version="1.0" encoding="UTF-8"?><svg id="Layer_1" xmlns="http://www.w3.org/2000/svg" viewBox="0 0 128 128"><defs><style>.cls-1,.cls-2{stroke-width:0px;}.cls-2{fill:#ebeff2;}</style></defs><circle class="cls-2" cx="64" cy="64" r="63.5"/><g id="JTO"><path class="cls-1" d="m64.11,120.15c-31.08.03-56.35-25.1-56.39-56.08-.04-30.96,25.08-56.2,55.93-56.22,31.54-.02,56.67,24.95,56.63,56.28-.04,30.88-25.22,55.99-56.17,56.03Zm-.14-103.76c-26.4.02-47.65,21.16-47.69,47.44-.04,26.48,21.19,47.81,47.59,47.81,26.36,0,47.9-21.48,47.83-47.71-.07-26.22-21.49-47.56-47.73-47.54Z"/><path class="cls-1" d="m63.81,107.45c-24.28-.22-43.56-19.78-43.34-43.96.22-23.81,19.97-43.17,43.83-42.97,24.12.2,43.3,19.91,43.04,44.22-.25,23.59-19.95,42.91-43.53,42.7Zm-24.9-57.92c-2.5,2.37-2.71,5.64-.19,8.37,2.48,2.69,5.11,5.23,7.7,7.8,4.23,4.2,4.33,8.94.13,13.22-1.35,1.38-2.96,2.51-4.31,3.64,1.85,2.06,3.19,3.55,4.8,5.35,1.78-1.9,3.34-3.56,4.91-5.21,5.13-5.38,5.95-13.68,1.11-19.3-4.29-4.99-9.4-9.28-14.15-13.88Zm1.69-2.82c2,1.96,3.64,3.82,5.52,5.37,6.52,5.41,14.87,5.01,20.96-.92,2.62-2.55,5.18-5.15,7.75-7.74,1.48-1.49,2.92-3,4.38-4.51-2.95-2.74-6.51-2.68-9.26.02-2.49,2.43-4.85,5-7.39,7.38-4.24,3.97-8.96,3.96-13.08-.06-1.37-1.34-2.39-3.03-3.79-4.85-2.14,2.24-3.48,3.64-5.08,5.31Zm40.46-6.1c-1.63,1.75-3.07,3.3-4.51,4.83-5.91,6.28-6.03,14.9-.13,21.14,3.86,4.08,7.9,7.99,11.88,11.95.3.3.78.4,1.15.58,2.46-3.35,2.45-6.05-.18-8.89-2.43-2.62-5.09-5.03-7.58-7.59-4.13-4.25-4.08-9.09.19-13.26,1.31-1.28,2.83-2.36,4.34-3.61-1.99-1.99-3.35-3.36-5.14-5.15Zm-32.63,48.28c3.21,3.07,6.77,2.99,9.68.15,2.62-2.55,5.1-5.25,7.77-7.74,3.43-3.2,8.31-3.23,11.79-.17,1.34,1.17,2.5,2.56,3.89,3.66.48.38,1.57.49,2.08.2,1.39-.79,2.62-1.86,3.91-2.82-.03-.44-.06-.89-.09-1.33-1.86-1.59-3.7-3.2-5.58-4.77-2.83-2.37-6.02-3.67-9.79-3.74-4.65-.08-8.36,1.7-11.6,4.93-3.96,3.95-8.04,7.77-12.07,11.65Z"/></g></svg>