<?xml version="1.0" encoding="UTF-8"?><svg id="Layer_1" xmlns="http://www.w3.org/2000/svg" viewBox="0 0 128 128"><defs><style>.cls-1{fill:#c9ef4d;}.cls-1,.cls-2{stroke-width:0px;}.cls-2{fill:#040404;}</style></defs><circle class="cls-2" cx="64" cy="64" r="63.5"/><g id="KAIA"><path class="cls-1" d="m88.9,108.14s-7.05,0-7.69,0c-2.92,0-5.84,0-8.75,0-.04,0-.07,0-.11,0,.1,0,.21,0,.31.01v-2.88c0-.31-.03-.63,0-.94v-.25c0-.1.03-.25,0-.33-.06.03-.12.07-.18.1-.03.02-.13.11-.16.11-.1.08-.19.17-.29.24-.16.11-.32.22-.49.33-2.52,1.67-5.26,3.01-8.16,3.89-2.58.78-5.27,1.18-7.96,1.18-2.52,0-5.03-.37-7.45-1.05s-4.54-1.61-6.62-2.81c-1.98-1.14-3.82-2.52-5.48-4.09-1.53-1.45-2.89-3.08-4.01-4.87-7.73-12.44-7.69-36.07,12.5-46.27-6.34-20,7.02-34.56,32.38-31.73,0,4.99.13,10.71.13,16.21-3.56,0-6.99-.04-10.42.01-4.63.07-7.62,2.74-7.55,6.63.07,3.9,3.08,6.45,7.75,6.48,2.6.02,5.19.03,7.79.04s5.19.02,7.79.03c2.24,0,4.27.04,6.5.04,0,0,.11,0,.17,0,0,0,.02.41,0,.62-.02.32,0,.64,0,.96v58.37Z"/><path class="cls-2" d="m72.95,64.13c0,6.15.5,12.02-.12,17.78-.81,7.53-8.15,12.86-15.84,12.35-7.61-.51-13.75-6.88-13.99-14.51-.25-7.93,5.2-14.75,13.12-15.52,5.44-.53,10.98-.1,16.83-.1Z"/></g></svg>