<?xml version="1.0" encoding="UTF-8"?><svg id="Layer_1" xmlns="http://www.w3.org/2000/svg" viewBox="0 0 128 128"><defs><style>.cls-1{fill:#f0f0f0;}.cls-2{fill:#fff;}.cls-3{fill:#55bfb1;}</style></defs><circle class="cls-1" cx="64" cy="64" r="63.5"/><path class="cls-3" d="m124.95,63.39c0,8.15-3.36,16.03-6.31,23.12-3.04,7.35-7.51,14.11-13.05,19.65-5.54,5.54-12.17,10.3-19.52,13.34-7.09,2.95-15.09,5.35-23.24,5.35s-16.32-2-23.41-4.95c-7.09-2.95-12.36-9.67-17.9-15.21-5.54-5.54-11.74-10.73-14.78-18.08-2.95-7.09-3.54-15.09-3.54-23.24s-.96-16.8,1.99-23.88c3.04-7.35,9.48-13.23,15.02-18.75,5.54-5.54,11.67-11.32,19.02-14.36,7.09-2.95,15.47-3.23,23.62-3.23s16.03,1.47,23.12,4.42c7.35,3.04,14.43,7.19,19.97,12.73,5.54,5.54,10.35,12.35,13.39,19.7,2.95,7.09,5.64,15.25,5.64,23.4h-.02Z"/><polygon class="cls-2" points="79.9 28.64 66.99 30.56 70.67 55.54 43.62 34.73 35.68 45.12 59.4 63.39 35.68 81.65 43.64 92.04 70.67 71.22 66.99 96.22 79.9 98.13 85.02 63.39 79.9 28.64"/></svg>