<svg id="Layer_1" data-name="Layer 1" xmlns="http://www.w3.org/2000/svg" viewBox="0 0 32 32"><defs><style>.cls-4{fill:#f05853}</style></defs><circle cx="16" cy="16" r="16" fill="#fff"/><path fill="none" d="M13.11 15.67l-4.6-6.05v12.15l4.6-6.1z"/><path fill="#f8e0e0" d="M17.4 15.96L8.66 4.38h-.15v5.24l4.6 6.05-4.6 6.1v5.83l.2.01 8.69-11.65z"/><path class="cls-4" d="M5.51 27.61h3v-.01l-3-.19v.2zM8.51 9.62l-3-3.96v20.08l3-3.97V9.62z"/><path class="cls-4" d="M8.51 4.38h-3v1.28l3 3.96V4.38zM5.51 25.74v1.67l3 .19v-5.83l-3 3.97zM22.14 4.38h4.12l-8.57 11.29 8.8 11.66-4.4.28-8.69-11.65 8.74-11.58z"/></svg>