<?xml version="1.0" encoding="UTF-8"?><svg id="Layer_1" xmlns="http://www.w3.org/2000/svg" viewBox="0 0 128 128"><defs><style>.cls-1{fill:#3a718d;}.cls-1,.cls-2{stroke-width:0px;}.cls-2{fill:#fff;}</style></defs><circle class="cls-1" cx="64" cy="64" r="63.5"/><g id="KMD"><path class="cls-2" d="m67.71,19.86c1.18.09,2.36.26,3.52.5,3.15.67,7.12,2.33,6.35,6.23-.56,2.82-2.83,3.95-5.53,3.7-4.57-.43-9.06-.85-13.7-.02-16.35,2.93-28.78,17.63-28.51,34.11.27,16.77,12.77,30.97,29.31,33.3,22.71,3.21,42.14-16.16,38.92-38.78-.14-.99-.25-2-.25-3,0-2.94,1.25-5.16,4.32-5.48,3-.32,4.34,1.86,4.96,4.41,2.13,8.8,1.44,17.43-2.05,25.76-5.11,12.19-14.63,21.37-27.22,25.55-14.07,4.67-29.91,1.32-41.53-7.67-11.56-8.94-17.56-23.44-16.48-37.93,1.05-14.15,9.54-27.27,21.6-34.6,4.89-2.97,10.44-4.81,16.1-5.6,3.34-.47,6.79-.76,10.18-.49Z"/><path class="cls-2" d="m65.3,47.78c2.84.12,5.58.9,8.41.45,5.18-.82,9.06-4.83,10.19-9.88.31-1.4.51-2.86,1.06-4.16,1.34-3.13,3.87-4.69,7.22-4.22,3.31.47,5.67,2.52,5.86,5.95.19,3.35-1.06,6.23-4.69,7.36-.82.26-1.66.46-2.51.64-3.88.86-7.83,2.68-9.8,6.32-1.45,2.67-1.37,5.83-1.04,8.77.8,6.99-1.07,13.5-6.89,17.79-4.69,3.46-11,4.52-16.35,1.95-1.33-.64-2.56-1.48-3.67-2.46-3.26-2.88-5.37-6.96-5.6-11.33-.08-1.59.06-3.19.44-4.73,1.05-4.34,3.82-8.1,7.71-10.31,2.82-1.6,6.02-2.2,9.24-2.14.13,0,.26,0,.39.01Z"/></g></svg>