<?xml version="1.0" encoding="UTF-8"?>
<svg id="Layer_1" xmlns="http://www.w3.org/2000/svg" version="1.1" viewBox="0 0 500 500">
  <!-- Generator: Adobe Illustrator 29.0.1, SVG Export Plug-In . SVG Version: 2.1.0 Build 192)  -->
  <defs>
    <style>
      .st0 {
        fill: #f7aa42;
      }

      .st1 {
        fill: #fbca8c;
      }

      .st2 {
        fill: #f2dabe;
      }

      .st3 {
        fill: #fff;
      }

      .st4 {
        fill: #b72622;
      }

      .st5 {
        fill: #020101;
      }
    </style>
  </defs>
  <circle class="st4" cx="250" cy="250" r="248.5"/>
  <g>
    <path class="st5" d="M170.3,105.2l13.5,11.6c.9,1,1.9,1.9,2.9,2.5.4.2.9.2,1.3,0,15.4-6.6,31.3-11.5,47.9-14.4,10.8-1.6,22.3-1.3,34.5,1.1,14.4,3,28.5,7.5,41.9,13.5.5.3,1.1.2,1.5-.1l18.2-15.9c14.1-10.8,25.9-18.8,35.5-24.2,6.6-3.8,13.6-6.9,20.8-9.1,10-3.3,17.9-2,23.8,3.8,8.9,9.1,13.7,21.4,13.4,34,.8,21.8-2.5,46.6-9.5,74.2-1.7,6.4-4.2,12.5-7.5,18.3-.5.7-.6,1.6-.3,2.4,10.1,24.9,15.2,51.5,15,78.4l5,8c3.4,5.6,5.8,12.3,6.9,20,.7,4.8,1.4,9.6,2,14.4.5,8.5.8,14.9.8,19.2,0,7-.6,13.4-1.9,19.3-2.5,9.4-6.8,18.3-12.5,26.2-.5.7-1.3,1-2.1,1-.9,0-1.8-.4-2.3-1.1-.5-.8-.8-1.7-.8-2.6,0-1.9-.6-2.1-1.6-.8l-1,1.3c-1.3,1.9-2.5,3-3.6,3.4-1.9.5-3.8,0-5.4-1.5-.3-.9-.6-1.5-1.1-1.8-.3-.2-.7-.2-1,0-15,13-32.4,22.8-51.3,28.9-13.9,4.5-23.5,7.4-28.9,8.5-17.4,3.6-35.1,5.9-52.8,6.6l-11.9.6c-13.8,1-27.7.8-41.4-.8-22.1-2.6-44-7-65.3-13.1-21-6-40.4-16.5-57-30.7-.6-.6-1.3-.5-1.8.3-1.5,2.9-3.8,3.8-6.6,2.5-.9-.3-2-1.5-3.4-3.8l-.3-.3c-.9-1.5-1.5-1.4-1.8.3l-.6,2.8c0,.4-.3.6-.4.8-.8.5-1.8.6-3,.4-4.9-5.9-8.9-12.5-11.6-19.7-3.6-10.2-5-21.1-4.1-31.9.5-11.5,1.3-20.4,2-26.5.9-5.9,2.8-12.1,5.8-18.8l6.9-11.3c-5-26.9.3-54.7,14.8-77.9.5-1.1.5-2,.1-2.5-3.7-6.5-6.4-13.4-8.1-20.7-3-12-5.3-23.4-6.9-33.9-1.3-9.5-2-18.9-2.3-28.5-.8-23.2,4.8-38.6,16.6-46.2,5.4-3.4,12.5-3.8,21.3-1,9.3,2.9,18.8,7.5,28.3,13.9,12.3,8.3,22,15.1,29.3,20.8h.1Z"/>
    <path class="st1" d="M177,126.7c-5.9-6.5-12.4-12.5-19.4-18-9.5-7.5-19.5-14.2-30-20.2-4.5-2.7-9.2-5-14-6.9-5-1.9-10-2.8-14.8-2.9-1.3,0-4.1.8-8.3,2.5,3.3-4.3,7.5-6.3,12.8-6,3.5.3,8.3,1.5,14.3,4.1,4.5,1.9,9.1,4.1,13.8,6.9l13.8,8.8c12.1,8.1,24.2,17.5,35.8,28.2.5.5.5.9,0,1.3l-3.8,2.3h-.1ZM410.6,82.3c-3.7-2.4-8.1-3.5-12.5-3.3-3.8.4-6.3.9-7.8,1.3-6.5,2.5-13.3,5.6-20.2,9.6-11.4,6.2-22.1,13.7-31.7,22.4l-2.1,1.8-3.4,3.3c-1.3,1.3-2.8,2.5-4.6,3.8-2.1,1.5-3.5,3.7-4,6.3l-4.9-3.1c-.4-.3-.4-.6,0-.9,9.4-8.8,18.8-16.5,28.3-23,9.9-6.9,17.3-11.8,22.2-14.5,7.5-4.4,15-7.5,22.5-9.8,7.6-2.3,13.8-.1,18.2,6.3Z"/>
    <path class="st0" d="M177,126.7l-6.8,5.3c-.4.3-.8.3-1,0l-9.3-7.1c-9-7.1-15.9-12.3-20.5-15.5-7.5-5.3-14.9-9.5-21.8-12.6-4.2-2-9-2.3-13.4-.9-7.1,2.4-11,9.5-11.4,21.3-.6,20.3,1.6,39.6,6.8,58,1,3.5,2.4,7.3,4,11.3.1.3.4.5.8.5s.6-.3.8-.6l.3-.9c.1.4.4.8.8,1,.4.1.6.1,1-.1,3.8-3.6,7.3-7.3,10.8-11,1.3-1.3,3.3-3.1,5.9-5.3l6-5.3,14.3-6c.8-.4,1.3-1,1.3-1.9,0-.8-.3-1.6-1-2l-3.4-2c-.4-.3-.7-.7-.8-1.3,0-.5,0-.9.5-1.3.9-1,3.1-1.3,6.5-1l1.5.3c.6,0,1.3-.3,1.6-.8.5-.6.5-1.3.3-1.9l-2.5-7.1c2.8-1.6,6.1-2.1,9.3-1.3,2.8.8,5.6,1.5,8.4,2.5,2.1.6,4,.4,5.8-.8l1.9-1.4c6.5-4,13.8-7.8,21.3-11.5,3.9-1.8,8.1-3.3,12.9-4.5,8.2-2,16.4-4,24.7-5.8,14.5-2.8,29.4-2.4,43.7,1.4,9,2.4,18,5,26.9,7.6l6.9,3c.8.5,1.5,1.3,2.1,2.3.3.4.5.5.9.6,6.1,2.1,11.5,5,16.3,8.5,1.6,1.3,3,1.6,4.4,1.1,3.6-1.4,6.3-2.3,7.9-2.6,2.5-.6,5.1-.8,8.1-.4.5,0,.9.3,1.3.6.3.4.3.9.1,1.3,0,.5.3.8,1,.8l-1.9,5.9c-.3.8-.1,1.4.4,2,.5.5,1.3.6,1.9.5,2.5-.9,4.8-.8,6.9,0,.6.4,1,.9,1.1,1.6,0,.8-.4,1.3-1,1.6-1.3.6-2.5,1.5-3.5,2.5-.5.4-.7,1.1-.6,1.8.3.8.6,1.3,1.3,1.5l14.3,6.3c7.5,6.6,14.9,13.5,22.3,20.9s1.6.9,2.3,0c.9,1.3,1.9.8,2.8-1.6,7.4-19.3,10.6-41.6,9.6-66.7,0-5.6-1.3-11-4-15.9-3-4.9-7.8-7-14-6.5-3,.3-6.5,1.4-10.6,3.6-9.9,5.3-18.3,10.6-25.3,16.3l-22.2,17.1c-.4.3-.8.3-1,0l-6-4.8c.6-2.9,2-5,3.9-6.3s3.5-2.5,4.8-3.8l3.4-3.3c.4-.5,1.3-1,2.1-1.9,9.6-8.7,20.2-16.2,31.7-22.4,6.9-3.9,13.8-7,20.2-9.4,1.5-.5,4.1-1,7.8-1.4,3.8-.4,8,.6,12.5,3.1,1.8,1.8,3.3,4.3,4.4,7.3l.6,7.9c.8,9.6,1.1,16.5,1,20.8-.4,15.6-2.5,31-6.6,46.1-1.1,4.1-3.6,10.4-7.5,18.9-1.2,2.6-2.3,5.2-3.4,7.8l7.3,26.7c.1,5,.6,9.9,1.5,14.6,1.9,10.7,3.5,21.4,5,32.2l1.6,7.5c.6,2.6.9,5.3.8,7.9-17-10.2-37.2-13.9-56.7-10.4-1.6.3-2.4.9-2.5,1.9.5-11.8-4.9-23.1-14.3-30.3-.1-.1-.3-.3-.1-.5,0-.1,0-.3.3-.3l5.8-1.5c1.5-.4,1.6-1.1.5-2.1-.4-.4-.8-.7-1.3-.9-1-.4-2.1-.6-3.1-.5-10,2.1-18.8,6.3-26.2,12.5l-15.4,13.1c-2.9,2.5-6.3,4.4-9.9,5.9-1.5.6-1.4.9.3,1,1.4,0,3.1-.3,5-.8.8-.3,1.1,0,1.3.8l1.8,12.1-9.4-3.6c-10-4-20.6-6.6-31.3-7.8-8.1-.5-15.9-.4-22.9.4-13.2,1.5-26,5.6-37.6,12.1,1.3-4.1,2-8.8,2.3-13.8,0-.4.3-.5.6-.4l6,1.3s.3,0,.4-.3v-.4c.1,0,0-.4,0-.4-.8-.3-1.6-.7-2.3-1.3-1.7-2-3.6-3.8-5.6-5.4-2.5-1.9-5-4-7.3-6.1-7-6.5-12.4-11.1-16.3-13.8-5.8-4-12.5-6.5-19.5-7.1-.4,0-.5,0-.6.4v.8l1,.9c-2.1-.4-3.8-.3-4.9.4-2.5,1.5-2.3,2.5.5,3.1l5,1.1c.1,0,.3.1.3.4v.4c-9.3,6.8-14.7,17.6-14.8,29-20.2-4.4-41.3-.8-58.8,10.3-.4-.4-.6-1-.5-1.6.3-1.4.6-2.8.9-4.1.6-2.8,1.1-4.8,1.3-6.1.9-7.5,2-16,3.6-25.2,1.3-8,2.2-16,2.8-24l5.8-21.3c.5-1.5,1.3-3.5,2.5-6,.1-.6,0-1.1-.3-1.6l-5-10.4c-2.8-5.6-5.1-11.5-6.9-17.5-1.4-4.8-2.9-13.8-4.6-27-2-16.2-1.5-32.6,1.6-48.7l4-5.3c4.1-1.6,6.9-2.4,8.3-2.4,4.8,0,9.6,1,14.8,2.9,3.8,1.4,8.5,3.8,14,6.8,10.1,5.9,20.3,12.5,30,20.3,7,5.5,13.5,11.5,19.4,18Z"/>
    <path class="st2" d="M147.5,130.6c-9-8-17.6-14.6-25.8-19.9-5-3.3-11.6-6-19.5-8.5,3.8-2.1,7.4-2.8,11-1.8,1.1.4,4.3,2,9.4,4.9,3.5,1.9,6.5,3.8,9.1,5.8l23.8,18.2c.3.3.3.4-.3.4-3-.1-5.6.3-7.8,1ZM399.3,103.1c-7.5,1.4-13.9,3.8-19.2,6.8-7.1,4.3-14.8,10-22.8,16.9l-2.5,1.6c-.8.5-1.5,1.2-1.9,2.1-2.5-.9-5.3-1.1-7.8-.8-.8,0-.9,0-.3-.5,7.5-6,15.1-11.9,23-17.6,5.9-4.6,12.4-8.3,19.3-11.1,4.2-1.5,8.9-.5,12,2.6Z"/>
    <path class="st3" d="M102.2,102.3c7.9,2.4,14.4,5.1,19.4,8.4,8.3,5.3,16.9,11.9,25.9,19.9-2.8,1.3-4.3,3-4.5,5.3-.3,1.6.3,4,1.3,7.3.3.4,0,.6-.4.8-3.4.5-5.9,1.8-7.3,3.8-1.5,2.3-1.3,5,.8,7.9.3.4.3.6-.1.9-3.1,1.9-5.5,4.6-7.3,8.3l-6.1,5.3c-2.1,1.7-4,3.5-5.9,5.4-3.5,3.8-7.1,7.3-10.8,10.9-.4.3-.6.4-1,0-.3-.2-.6-.5-.8-.9-4.8-19.1-7.4-38.7-7.9-58.5-.8-10,0-17.1,2.3-21.5.9-1.6,1.6-2.8,2.4-3.1h0ZM399.3,103.1c1.3,1.9,2.1,4.1,2.8,6.9.9,4.1,1.3,8.3,1,12.5-.4,11-1.2,22.1-2.4,33-.9,7.9-2.8,18-5.5,30.3-.6.9-1.5.9-2.5,0-7.2-7.2-14.6-14.1-22.2-20.8-1.6-3.6-4.1-6.6-7.4-8.8-.3-.1-.4-.4,0-.8,2.5-3,2.8-5.6,1-7.9-1.5-1.9-4-3.1-7.5-3.8-.4,0-.6-.4-.4-.8,1.3-3.3,1.6-5.8,1.5-7.4-.4-2.4-1.9-4.1-4.8-5.3.4-.9,1.1-1.7,2-2.1l2.4-1.6c8-6.9,15.6-12.5,22.9-16.9,5-3.1,11.5-5.4,19-6.8Z"/>
    <path class="st1" d="M351.8,141.2c-.8,0-1-.3-1-.6.1-.5,0-1-.3-1.3-.3-.4-.7-.7-1.3-.8-2.7-.3-5.5-.2-8.1.4-2.6.7-5.2,1.5-7.8,2.5-1.3.5-2.8.3-4.4-1-4.9-3.7-10.4-6.6-16.3-8.5-.4,0-.7-.3-.9-.6-.5-.9-1.2-1.7-2.1-2.3-4.5-2.1-9.1-3.9-13.9-5.3l-19.9-5.4c-14.3-3.8-29.2-4.2-43.7-1.4-3.9.8-12.1,2.8-24.7,5.8-4.8,1.3-9,2.8-12.8,4.5-8,3.9-15.7,8.2-23.3,12.9-1.7,1.2-3.8,1.5-5.8.8-2.8-1-5.6-1.8-8.4-2.5-3.2-.8-6.5-.4-9.4,1.3-.6-1.8-.3-3.1,1.3-4.1,1.1-.8,2.5-1,4.4-.8,5,.8,10,2.5,14.6,5,.9.5,1.6.4,2.3-.4,1.3-1.6,2.6-2.9,3.9-3.9,7.4-5.5,15.4-10,24-13.4,7.1-2.9,16.1-5.6,26.9-8.3,13-3.4,26.6-4.1,39.8-1.9,12.4,2.1,24,5.4,35.2,9.5,9.5,3.5,17.9,8.1,25.2,13.8,1.8,1.3,3.3,2.6,4.4,4.1.4.6,1,.8,1.6.5,3.5-1.5,7-2.9,10.5-4.3,3.8-1.1,7-1.1,9.4,0,.5.1.8.5.9.9.6,1.3.4,2.9-.5,4.6Z"/>
    <path class="st5" d="M214.3,230.4c-2.4-6.7-6.7-12.5-12.5-16.6-3.2-2.3-7.4-2.7-11-1.1-3.8,1.6-4.8,4.5-2.8,8.5,1.5,3,4.1,5.4,7.1,6.9,3.3,1.1,6.4,2.3,9.6,3.6-4.4,0-8.7-.9-12.8-2.5-3.9-1.7-7.1-4.8-9-8.6-1.8-3.5-1.3-6.9,1.6-10,3.3-3.6,7.9-4.3,13.8-1.8,9,3.6,14.3,10.9,15.9,21.7ZM298.4,230.6c3.4-.6,6.5-1.9,9.1-3.6,2.9-1.6,5.1-4.3,6-7.5.8-3.8-.5-6-4-7-2.9-.9-6.1-.6-8.8.9-6.3,3.3-11,8.6-14.6,16.1.8-5,2.5-9.4,5.6-13.1,3.6-4.6,8.3-7.5,13.8-8.8,3.8-1,7-.1,9.8,2.5,2.9,2.5,3.8,5.8,2.5,9.5-.9,3.3-3.1,6-6.8,8.4-3.8,2.5-8,3.4-12.5,2.6h-.1Z"/>
    <path class="st3" d="M214.3,230.4c-2.9,1.3-6.1,1.8-9.5,1.3l-9.6-3.6c-3.1-1.4-5.7-3.9-7.3-7-1.9-3.9-.9-6.8,2.9-8.4,3.6-1.6,7.8-1.2,11,1.1,5,3,9.1,8.6,12.5,16.6ZM298.4,230.6c-3.8.9-7.5,1-10.8.4-.5,0-1-.6-1.5-1.5,3.6-7.5,8.5-12.9,14.6-16.1,2.7-1.4,5.8-1.8,8.8-.9,3.5,1,4.8,3.4,4,7-.9,3.2-3.1,5.9-6,7.5-2.8,1.8-5.9,3.1-9.1,3.8h0Z"/>
    <path class="st2" d="M206.3,265.7c-3.1-1.3-6.3-3.4-9.5-6.1l-2.9-2.5c-7.4-6.3-12.9-10.8-16.6-13.3-6.1-4-12.5-6.8-19.2-8.4l-.9-.9c-.2-.2-.3-.5-.1-.8,0-.3.3-.5.6-.4,6.6.5,13.1,2.9,19.5,7.3,6.3,4.5,12.3,9.5,17.8,15,1,1,3,2.5,5.8,4.8,2.1,1.6,3.9,3.4,5.6,5.3h-.1Z"/>
    <path class="st3" d="M174.1,270.4c-.6,4.4,2.1,8.5,6,9,4,.6,7.8-2.5,8.4-6.9.6-4.4-2.1-8.5-6-9-4-.6-7.6,2.5-8.4,6.9ZM311.8,272.5c.5,4.4,4.3,7.5,8.1,7,4-.6,6.8-4.6,6.3-9-.6-4.5-4.3-7.5-8.3-7.1-4,.6-6.8,4.6-6.3,9h.1Z"/>
    <path class="st3" d="M144.2,269.8c0,7.9,1.8,14.6,5.6,20.4,7.6,12.2,23.7,15.9,35.9,8.3.7-.4,1.3-.9,1.9-1.3,5.1-3.6,9-9,11.6-16.3,11.6-6.5,24.3-10.6,37.6-12.1,7.1-.8,14.9-.9,23-.4,14.1,1.3,27.9,5.2,40.7,11.4,2.1,6.9,5.9,12.5,11.3,16.6,5.3,4.1,11.3,6.3,17.6,6,7.6-.1,14.8-3.8,19.3-10,4.8-6,7.3-13.1,7.4-21.3,0-1,.9-1.6,2.4-1.9,20-3.4,38.8,0,56.7,10.4-.4-.1,0,.3.9,1.3,0,1.1,0,2,.4,2.5,3.5,5,6.3,9.4,8.1,13.4,2.3,4.8,3.8,9.8,4.6,15,.9,5.5,1.6,13.8,2,25-1,3.8-1.9,7.8-2.5,11.6-.6,3.5-1.5,6.9-2.8,10.3-.9,3.4-1.9,5.8-3,7.3-.6.8-1.5,1.4-2.5,1.6-2,.4-4,1.4-6.1,3-.6.4-1.4.7-2.1.8h-2.5c-3.2-1.1-6.7-.4-9.4,1.6l-17.4,12.9c-3.3,2.6-6.8,4.7-10.6,6.4-10,4.5-20.3,8.3-30.4,11.4-7.5,2.2-15.2,3.9-22.9,5-5.9,1.1-11.6,2-17.5,2.5-15,1.6-30,2.5-45.1,2.9-12.5,0-25.1-.3-37.6-1.1-19.2-1-38.4-3.7-57.1-8.3-13.5-3.8-26.5-8.8-39.1-15l-23-17c-1.2-.9-2.6-1.5-4.1-1.6-1.1-.1-2.6,0-4.5.4-1.8.5-3.9,0-6.3-1.5-2.3-1.4-4.3-1.9-6-1.5-1.3.3-2.1-.3-2.5-1.6-1.6-5.6-3.2-11.3-4.9-16.9,0-.9-.3-1.7-.6-2.5-.5-1.1-.7-2.4-.8-3.6-.1-1.8-.4-3.6-.8-5.4,0-8.9.6-17.7,1.9-26.5,1.3-7.9,4-15.1,8.4-21.9l4.5-6.9c.3-.5.4-1.3.1-2.4l1.1-.6c17.5-11,38.6-14.7,58.8-10.3h.1Z"/>
    <path class="st5" d="M250.1,275.7h.5c10,0,16.3,1.5,18.8,4.6,3.3,4,3.5,8.4.9,13-3.8,6.8-8.3,12-13.3,15.6-2,1.3-4.4,1.9-6.8,1.8-2.4.2-4.8-.4-6.9-1.8-5-3.8-9.4-8.8-13.3-15.6-2.8-4.6-2.5-9,.9-13,2.5-3,8.8-4.6,18.8-4.6,0,0,.4,0,.4,0Z"/>
    <path class="st3" d="M236.2,283.8v-.3c-.1-1.1,1.1-2,3.6-2.9,2.5-.9,5.6-1.3,9.3-1.5h1.4c3.8-.1,6.8,0,9.4.6,2.5.6,3.9,1.5,3.9,2.5v.3s-27.5,1.3-27.5,1.3Z"/>
    <path class="st5" d="M295.7,318.9c-.3-.4-.5-.4-.6,0-3.3,7.5-8.6,12.1-16,13.8-6.1,1.4-11.3-.3-15.5-4.8-1-1-.9-1.4.6-1l6.1,1.3c4,.6,7.9-.1,11.4-2.3,3.8-2.1,6.1-5.1,7.4-9,0-.6,0-.9-.6-1l-3.4-.8c-.6,0-.8-.4-.4-.9,1-1.7,2.8-2.9,4.8-3.3,1.9-.4,3.8,0,5.8.9s3.5,2.3,4.5,4c1.3,1.9,1.5,4,.9,6.3,0,.3-.3.4-.5.5-.3,0-.5,0-.8-.3l-3.6-3.6h0Z"/>
    <path class="st2" d="M431.2,336.8c.6,8.1,0,16.1-1.5,24-1.3,6.1-3.6,13.5-7,22.3-.1.4-.3.7-.6,1-.2.1-.4.1-.6,0,.1-2.5.3-4.9.5-7.4.3-1.9,0-3.1-1-3.8-1-.9-2.3-.5-3.8,1-2,1.9-3.8,4-5.5,6.3-.3.3-.4.3-.6,0-1.9-3.1-4.8-3.4-8.5-.6-1.4.9-3.8,2.6-6.8,5.1-4.5,3.8-7.8,6.3-10,7.5-23.9,14.3-50.4,23.5-78,27.2-39.7,6.3-79.2,6.1-118.9-.6-29.4-5-53.8-13.5-73.4-25.7-3.8-2.5-7.5-5.3-11-8.3-3.8-2.9-6.3-5-7.9-6-3.1-2.1-5.6-1.8-7.3,1.3l-.3.4-6.9-7.5c-.9-.8-1.8-1-2.8-.5s-1.4,1.3-1.3,2.5l1.3,11h-.1c0,.1-.4.1-.4.1-.4.1-.5,0-.6-.3l-.6-2c-2.7-7.4-5-14.9-6.9-22.5-1.7-7.5-2.2-15.2-1.6-22.9.4,1.8.6,3.6.8,5.4,0,1.5.3,2.6.8,3.5.3.8.5,1.7.6,2.6l.5,2.3c.9,3,2.5,7.9,4.4,14.6.4,1.3,1.3,1.9,2.5,1.6,1.8-.4,3.8.1,6,1.5,2.4,1.4,4.4,2,6.3,1.5,1.9-.4,3.4-.5,4.5-.4,1.4,0,2.8.6,4.1,1.6,7.5,5.5,15,11.3,23,16.9,12.6,6.2,25.7,11.2,39.2,15,20.1,4.9,40.7,7.8,61.3,8.6,14.9.8,25.9,1,33.2.9,15-.4,30-1.3,45.1-2.8,8-.8,15.9-2.1,23.8-3.9,7.5-1.4,13-2.6,16.6-3.8,10.3-3.2,20.5-7,30.4-11.3,3.5-1.6,7.1-3.8,10.6-6.5l17.5-12.9c2.8-2.1,5.9-2.5,9.3-1.5h2.5c.8-.1,1.5-.4,2.1-.9,2.1-1.6,4.1-2.5,6-3,1.3-.4,2.1-.9,2.6-1.6,1.1-1.5,2.1-3.9,3-7.3l.9-2.9c.8-2.3,1.3-4.6,1.9-7.4.6-3.9,1.5-7.8,2.5-11.8h0Z"/>
  </g>
</svg>