<?xml version="1.0" encoding="utf-8"?>
<!-- Generator: Adobe Illustrator 27.0.0, SVG Export Plug-In . SVG Version: 6.00 Build 0)  -->
<svg version="1.1" id="Layer_1" xmlns="http://www.w3.org/2000/svg" xmlns:xlink="http://www.w3.org/1999/xlink" x="0px" y="0px"
	 viewBox="0 0 128 128" style="enable-background:new 0 0 128 128;" xml:space="preserve">
<style type="text/css">
	.st0{fill:#F2F2F2;}
	.st1{fill:#FFFFFF;}
	.st2{fill:#0A3B75;}
	.st3{fill:#69DBFB;}
	.st4{fill:#E0A600;}
</style>
<circle class="st0" cx="64" cy="64" r="63.5"/>
<g>
	<g>
		<path class="st1" d="M66.3,103.2l-3.1,1.1l-3.5-1.2c-8.1-2.9-13.5-10.5-13.5-19.1V62.4h33.3v21.8C79.5,92.7,74.2,100.3,66.3,103.2
			z"/>
	</g>
	<g>
		<g>
			<path class="st2" d="M50.7,68.2c-0.3-0.3-0.4-0.5-0.4-0.7c0-0.2,0.1-0.4,0.2-0.5c0.1-0.1,0.3-0.2,0.5-0.2c0.2,0,0.3,0.1,0.4,0.2
				c0.1,0.1,0.2,0.2,0.2,0.4c0,0.1,0,0.1,0,0.2v0c0,0.1,0.1,0.1,0.1,0.1c0.1,0,0.1,0,0.2-0.2c0.1-0.3,0.1-0.5,0.2-0.7
				c0.1-0.2,0.1-0.3,0.1-0.3c0-0.1-0.1-0.1-0.1-0.1c-0.1,0-0.1,0.1-0.1,0.1c0,0-0.1,0.1-0.1,0.1c0,0,0,0-0.2-0.1
				c-0.2-0.1-0.4-0.1-0.6-0.1c-0.4,0-0.7,0.1-1,0.4c-0.3,0.3-0.4,0.6-0.4,1c0,0.4,0.2,0.7,0.5,1.1l0.3,0.3c0.2,0.3,0.4,0.5,0.4,0.8
				c0,0.3-0.1,0.5-0.2,0.6c-0.2,0.2-0.3,0.2-0.6,0.2c-0.5,0-0.7-0.2-0.7-0.7c0-0.2,0-0.3,0-0.3c0-0.1,0-0.1,0-0.1
				c0-0.1-0.1-0.1-0.1-0.1c-0.1,0-0.2,0.1-0.2,0.2c-0.1,0.3-0.2,0.7-0.3,1c-0.1,0.2-0.1,0.2-0.1,0.2c0,0.1,0.1,0.2,0.1,0.2
				c0.1,0,0.1,0,0.2-0.2c0.1-0.2,0.1-0.2,0.1-0.2c0,0,0,0,0.1,0c0.2,0.2,0.2,0.2,0.3,0.2c0.2,0.1,0.4,0.2,0.6,0.2
				c0.4,0,0.8-0.2,1.1-0.4c0.3-0.3,0.4-0.7,0.4-1.1c0-0.4-0.2-0.7-0.5-1.1L50.7,68.2z"/>
		</g>
		<g>
			<path class="st2" d="M52,70.3c-0.1,0-0.2,0-0.3,0.1c-0.1,0.1-0.1,0.2-0.1,0.3c0,0.3,0.1,0.4,0.4,0.4c0.1,0,0.2,0,0.3-0.1
				c0.1-0.1,0.1-0.2,0.1-0.3C52.3,70.5,52.2,70.3,52,70.3z"/>
		</g>
		<g>
			<path class="st2" d="M54.6,68.2c-0.3-0.3-0.4-0.5-0.4-0.7c0-0.2,0.1-0.4,0.2-0.5c0.1-0.1,0.3-0.2,0.5-0.2c0.2,0,0.3,0.1,0.4,0.2
				c0.1,0.1,0.2,0.2,0.2,0.4c0,0.1,0,0.1,0,0.2v0c0,0.1,0.1,0.1,0.1,0.1c0.1,0,0.1,0,0.2-0.2c0.1-0.3,0.1-0.5,0.2-0.7
				c0.1-0.2,0.1-0.3,0.1-0.3c0-0.1-0.1-0.1-0.1-0.1c-0.1,0-0.1,0.1-0.1,0.1c0,0-0.1,0.1-0.1,0.1c0,0,0,0-0.2-0.1
				c-0.2-0.1-0.4-0.1-0.6-0.1c-0.4,0-0.7,0.1-1,0.4c-0.3,0.3-0.4,0.6-0.4,1c0,0.4,0.2,0.7,0.5,1.1l0.3,0.3c0.2,0.3,0.4,0.5,0.4,0.8
				c0,0.3-0.1,0.5-0.2,0.6c-0.2,0.2-0.3,0.2-0.6,0.2c-0.5,0-0.7-0.2-0.7-0.7c0-0.2,0-0.3,0-0.3c0-0.1,0-0.1,0-0.1
				c0-0.1-0.1-0.1-0.1-0.1c-0.1,0-0.2,0.1-0.2,0.2c-0.1,0.3-0.2,0.7-0.3,1c-0.1,0.2-0.1,0.2-0.1,0.2c0,0.1,0.1,0.2,0.1,0.2
				c0.1,0,0.1,0,0.2-0.2c0.1-0.2,0.1-0.2,0.1-0.2c0,0,0,0,0.1,0c0.2,0.2,0.2,0.2,0.3,0.2c0.2,0.1,0.4,0.2,0.6,0.2
				c0.4,0,0.8-0.2,1.1-0.4c0.3-0.3,0.4-0.7,0.4-1.1c0-0.4-0.2-0.7-0.5-1.1L54.6,68.2z"/>
		</g>
		<g>
			<path class="st2" d="M55.9,70.3c-0.1,0-0.2,0-0.3,0.1c-0.1,0.1-0.1,0.2-0.1,0.3c0,0.3,0.1,0.4,0.4,0.4c0.1,0,0.2,0,0.3-0.1
				c0.1-0.1,0.1-0.2,0.1-0.3C56.3,70.5,56.1,70.3,55.9,70.3z"/>
		</g>
		<g>
			<path class="st2" d="M67.7,69.6c-0.1,0-0.2,0.1-0.2,0.1c-0.1,0.3-0.3,0.5-0.4,0.7c-0.1,0.2-0.3,0.3-0.4,0.3
				c-0.1,0.1-0.3,0.1-0.6,0.1c-0.3,0-0.5,0-0.7,0c0-0.1,0.1-0.1,0.1-0.1c0.2-0.3,0.4-0.5,0.5-0.6l2.4-3c0.1-0.2,0.2-0.3,0.3-0.4
				l0.1-0.1l-0.2,0c-0.1,0-0.2,0-0.4,0c-0.1,0-0.3,0-0.5,0h-0.7c-0.3,0-0.6,0-0.8,0l-0.1,0l0,0.1C66.1,66.8,66,67,66,67.1
				c-0.1,0.1-0.1,0.2-0.1,0.3c-0.1,0.3-0.1,0.3-0.1,0.3c0,0.1,0.1,0.2,0.1,0.2c0.1,0,0.2-0.1,0.2-0.2c0.1-0.3,0.3-0.6,0.5-0.7
				c0.2-0.1,0.4-0.2,0.8-0.2c0.1,0,0.3,0,0.5,0l-2.1,2.6c-0.2,0.2-0.3,0.4-0.6,0.7c-0.1,0.1-0.1,0.1-0.1,0.1l-0.4,0.5c0,0,0,0,0,0
				c0,0-0.1,0-0.1,0l-0.3,0c-0.1,0-0.1,0-0.1-0.1c0,0,0-0.1,0-0.3l0.3-2.3c0.1-0.5,0.1-0.9,0.2-1.1c0-0.1,0-0.3,0-0.4
				c0-0.1-0.1-0.2-0.2-0.2c-0.1,0-0.1,0.1-0.2,0.1l-0.5,0.7c-0.2,0.3-0.4,0.5-0.5,0.6l-1.6,2.4c-0.2,0.4-0.3,0.4-0.3,0.4
				c-0.1,0-0.2,0.1-0.3,0.1c0,0-0.1,0-0.1,0c0,0-0.1,0-0.1,0l0,0c0.3-0.9,0.3-1,0.3-1c0-0.1-0.1-0.2-0.1-0.2c0,0-0.1,0-0.1,0.1
				c0,0.1-0.1,0.2-0.1,0.3c-0.2,0.4-0.4,0.6-0.7,0.7c-0.2,0.1-0.5,0.1-1.1,0.1c-0.1,0-0.1,0-0.1,0c0,0,0,0,0,0c0,0,0-0.1,0.1-0.2
				l1.2-3.3c0.1-0.4,0.2-0.4,0.2-0.4c0,0,0,0,0.2,0h0.2c0.1,0,0.2-0.1,0.2-0.2c0-0.2-0.2-0.2-0.3-0.1h-0.1c-0.2,0-0.4,0-0.6,0
				c-0.1,0-0.2,0-0.3,0c-0.1,0-0.1,0-0.1,0l-0.1,0c-0.1,0-0.4,0-0.4,0.2c0,0.1,0,0.1,0,0.1c0,0,0.1,0,0.1,0c0.1,0,0.1,0,0.2,0
				c0.1,0,0.2,0,0.2,0c0,0,0,0.1-0.1,0.3l-1.2,3.4c-0.1,0.1-0.1,0.2-0.1,0.3c0,0.1,0,0.1,0,0.1c0,0,0,0-0.1,0c-0.1,0-0.2,0-0.2,0
				l0,0c-0.2,0-0.2,0.1-0.2,0.2c0,0.1,0,0.1,0.2,0.1c0.1,0,0.1,0,0.2,0c0.1,0,0.2,0,0.2,0h1.3v0c0,0,0.1,0,0.2,0c0.2,0,0.3,0,0.5,0
				h0.3c0.2,0,0.2,0,0.2,0c0,0,0,0,0.1,0c0,0,0.1,0,0.1,0c0.1,0,0.1,0,0.3,0c0.1,0,0.1,0,0.2,0l0.5,0l0.3,0c0.2,0,0.3-0.1,0.3-0.2
				c0-0.1-0.1-0.2-0.2-0.2c0,0-0.1,0-0.1,0c0,0-0.1,0-0.1,0c-0.2,0-0.2,0-0.2,0c0,0,0,0,0.1-0.2l0.5-0.8c0.1-0.1,0.1-0.1,0.1-0.2
				h0.8c0,0,0.1,0,0.1,0l-0.1,0.8c0,0.2-0.1,0.3-0.1,0.3h0c-0.1,0-0.1,0-0.2,0h-0.2c-0.1,0-0.2,0.1-0.2,0.2c0,0.1,0.1,0.2,0.2,0.2
				c0,0,0.1,0,0.1,0h1.2c0.1,0,0.2,0,0.2,0l0,0c0.1,0,0.1,0,0.2,0c0,0,0.1,0,0.1,0h2.8l0-0.1c0.5-1.2,0.5-1.3,0.5-1.3
				C67.9,69.7,67.8,69.6,67.7,69.6z M63.6,67.9c0,0,0,0.1,0,0.1l-0.2,1.2c-0.1,0-0.2,0-0.4,0h-0.3l0,0c0.1-0.1,0.2-0.2,0.2-0.3
				l0.6-0.9C63.6,68,63.6,68,63.6,67.9z"/>
		</g>
		<g>
			<path class="st2" d="M69.2,70.9c-0.1,0-0.1,0-0.2,0c-0.1,0-0.1,0-0.1,0c0,0,0,0,0-0.1l1.1-3.3c0.1-0.3,0.2-0.5,0.2-0.6
				c0,0,0-0.1,0.2-0.1h0.1c0.1,0,0.2-0.1,0.2-0.2c0-0.1-0.1-0.1-0.1-0.1h-1.4c-0.1,0-0.2,0.1-0.2,0.1c0,0.1,0.1,0.2,0.2,0.2h0.2
				c0.1,0,0.1,0,0.1,0c0,0,0,0.1-0.2,0.5l-1.2,3.4c0,0-0.1,0.1-0.1,0.1c0,0-0.1,0-0.2,0c-0.1,0-0.3,0-0.3,0.1c0,0.1,0,0.1,0.1,0.1
				c0,0,0.1,0,0.3,0c0.5,0,0.9,0,1.2,0c0.2,0,0.2-0.1,0.2-0.1C69.4,71,69.4,70.9,69.2,70.9z"/>
		</g>
		<g>
			<path class="st2" d="M72.9,69.6c0,0-0.1,0-0.1,0.1c0,0.1-0.1,0.2-0.1,0.3c-0.2,0.4-0.4,0.6-0.7,0.7c-0.2,0.1-0.5,0.1-1.1,0.1
				c-0.1,0-0.1,0-0.1,0c0,0,0,0,0,0c0,0,0-0.1,0.1-0.2l1.2-3.3c0.1-0.4,0.2-0.4,0.2-0.4c0,0,0,0,0.2,0h0.2c0.1,0,0.2-0.1,0.2-0.2
				c0-0.2-0.2-0.2-0.3-0.1h-0.1c-0.2,0-0.4,0-0.6,0c-0.1,0-0.2,0-0.3,0c-0.1,0-0.1,0-0.1,0l-0.1,0c-0.1,0-0.4,0-0.4,0.2
				c0,0.1,0,0.1,0,0.1c0,0,0.1,0,0.1,0c0.1,0,0.1,0,0.2,0c0.1,0,0.2,0,0.2,0c0,0,0,0.1-0.1,0.3l-1.2,3.4c-0.1,0.1-0.1,0.2-0.1,0.3
				c0,0.1,0,0.1,0,0.1c0,0,0,0-0.1,0c-0.1,0-0.2,0-0.2,0l0,0c-0.2,0-0.2,0.1-0.2,0.2c0,0.1,0,0.1,0.2,0.1c0.1,0,0.1,0,0.2,0
				c0.1,0,0.2,0,0.2,0h1.3v0c0,0,0.1,0,0.2,0c0.2,0,0.3,0,0.5,0h0.3c0.2,0,0.2,0,0.2,0c0.1,0,0.1-0.1,0.1-0.1l0.1-0.2
				c0.3-0.9,0.3-1,0.3-1C73,69.7,73,69.6,72.9,69.6z"/>
		</g>
		<g>
			<path class="st2" d="M77.1,67c-0.2-0.3-0.6-0.5-1-0.5c-0.5,0-1.1,0.3-1.6,0.8c-0.3,0.3-0.6,0.7-0.8,1.2c-0.2,0.5-0.3,0.9-0.3,1.4
				c0,0.4,0.1,0.8,0.3,1.1c0.2,0.3,0.6,0.4,1,0.4c0.5,0,1.1-0.2,1.6-0.7c0.4-0.3,0.6-0.7,0.8-1.1c0.2-0.4,0.3-0.9,0.3-1.3
				C77.4,67.6,77.3,67.3,77.1,67z M74.3,69c0.1-0.4,0.3-0.8,0.5-1.2c0.4-0.7,0.8-1.1,1.3-1.1c0.2,0,0.4,0.1,0.5,0.3
				c0.1,0.2,0.1,0.4,0.1,0.6c0,0.4-0.1,0.9-0.3,1.5c-0.2,0.6-0.5,1.1-0.9,1.5c-0.3,0.2-0.5,0.4-0.8,0.4c-0.3,0-0.6-0.1-0.6-0.8
				C74.1,69.8,74.2,69.4,74.3,69z"/>
		</g>
	</g>
	<g>
		<path class="st3" d="M76.3,73.8V84c0,6.3-3.4,11.9-8.8,14.8v-25H76.3z"/>
	</g>
	<g>
		<path class="st3" d="M58.1,73.8v25c-5.5-2.8-9-8.6-9-14.9V73.8H58.1z"/>
	</g>
	<g>
		<path class="st1" d="M67.6,73.8v25c-0.7,0.4-1.4,0.7-2.1,0.9l-2.5,0.9l-2.8-1c-0.7-0.3-1.4-0.5-2-0.9v-25H67.6z"/>
	</g>
	<g>
		<path class="st2" d="M62.9,100.9l-2.9-1c-6.7-2.4-11.1-8.8-11.1-16V73.6h27.6V84c0,7.1-4.4,13.5-11,15.9L62.9,100.9z M49.3,74v9.9
			c0,7,4.4,13.3,10.9,15.6l2.8,1l2.5-0.9c6.4-2.4,10.7-8.6,10.7-15.6V74H49.3z"/>
	</g>
	<g>
		<path class="st2" d="M79.5,62.4v21.8c0,8.5-5.3,16.1-13.3,19.1l-3.1,1.1l-3.5-1.2c-8.1-2.9-13.5-10.5-13.5-19.1V62.4H79.5
			 M80.3,61.6h-0.8H46.2h-0.8v0.8V84c0,8.9,5.6,16.9,14,19.9l3.5,1.2l0.3,0.1l0.3-0.1l3.1-1.1c8.2-3,13.8-11,13.8-19.8V62.4V61.6
			L80.3,61.6z"/>
	</g>
	<path class="st4" d="M13.5,37.5h33.6c0,0,5.9,0.1,9.8,3.6c3.9,3.6,4.4,4.5,7,4.5c2.6,0,5.7-3,8-5c2.3-2,6.3-3.2,10.5-3.2
		s32.1,0,32.1,0s-3.2,3.5-8,3.9c0,0-2.1,2.8-5.5,2.9c0,0-2.2,2.3-4.9,2.4c0,0-1.8,1.7-3.8,1.7c0,0-0.5,1.5-3.6,1.6
		c0,0-0.7,1.5-2.1,1.5c0,0,0,0.9-2.3,0.8c0,0-0.4,1.2-2.5,1.2c0,0-1.5,1.4-3,1.4c0,0-0.6,0.9-1.7,0.9c0,0-0.4,1.2-1.8,1.3
		c0,0-0.8,1-3.2,1.2l-2.5,2.4c0,0,1.7,2.3-1.5,3.8c0,0,1.1-2-0.4-2.5c0,0-0.1,1.8-2.1,2.5c0,0,1-1.6-0.1-2.4c0,0,0.1,1.4-2.5,2.3
		c0,0,1.3-2.5-0.5-2.5c-1.9,0-1.9,0-1.9,0s0.3,2.3-2.4,3c0,0,1-2,0-3.1c0,0,0,2.2-2.2,3c0,0,1.1-1.7-0.4-2.6c0,0,0.1,2.5-2.4,2.6
		c0,0,1.6-1.8,0.5-2.6c-1.1-0.8-2.7-0.9-2.7-0.9l2.5-1.7c0,0-0.7-0.2-0.7-0.5c0,0,1.2-0.2,1.9-0.9l-3-1.3c0,0-1.5-0.4-1.8-1.2
		c0,0-2.4,0-2.8-1.2c0,0-2.6,0.3-2.7-1.6c0,0-2.2,0.2-2.5-1.1c0,0-3.3-0.3-3.5-1.5c0,0-3.4-0.1-4.5-2c0,0-2.1,0.2-3.2-1.6
		c0,0-3.3-0.1-4.8-2.4c0,0-3.3-0.2-5.4-2.7C21,41.4,15.4,41.7,13.5,37.5z"/>
	<path class="st1" d="M54.9,61.6v0.8c0,0-0.8,0-0.7-0.8H54.9z"/>
	<path class="st1" d="M57.3,61.6v0.8c0,0-0.8,0-0.7-0.8H57.3z"/>
	<path class="st1" d="M59.7,61.6v0.8c0,0-0.8,0-0.7-0.8H59.7z"/>
	<path class="st1" d="M64.6,61.6v0.8c0,0-0.8,0-0.7-0.8H64.6z"/>
	<path class="st1" d="M67,61.6v0.8c0,0-0.8,0-0.7-0.8H67z"/>
	<path class="st1" d="M69.4,61.6v0.8c0,0-0.8,0-0.7-0.8H69.4z"/>
	<g>
		<path class="st1" d="M67.3,45.5l6.5-5.1c0,0,2-1.7,6-1.7c4,0,14.4,0,14.4,0l-1.6,1.2H77.9c0,0-1.8,0-3.6,1.6h14.4l-2.3,1.4H72.7
			l-2.1,1.5h13.2l-2.1,1H69.1L67.8,46h11.8c0,0,1.4,0.5,1.4,1.9h2.9c0,0,2.3,0.3,2.2,2.9c0,0-0.8-1-2.2-1c-1.4,0-6,0-6,0v0.5H84
			c0,0,1.3,0.1,1.6,1.1h-9.2l0-0.3c0,0-1.1,0.2-3.3,1.5s-3.5,0.2-3.4-1c0,0-1.2-0.2-1.4-0.7c0,0,0.2-0.5,0.9-0.9c0,0-1-0.9,0.9-2
			h-3.5c0,0-2-0.9-2.3-2h2.6L67.3,45.5z"/>
	</g>
	<g>
		<path class="st1" d="M82.6,52.9h-7.7v-0.6h8v0.3C82.9,52.7,82.7,52.9,82.6,52.9z"/>
	</g>
	<g>
		<path class="st1" d="M80.1,54.1h-6.9v-0.6h7.2v0.3C80.4,53.9,80.3,54.1,80.1,54.1z"/>
	</g>
	<g>
		<path class="st1" d="M77.4,55.1h-4.9v-0.6h5.3v0.3C77.7,55,77.6,55.1,77.4,55.1z"/>
	</g>
	<g>
		<path class="st1" d="M75.6,56.4h-3.1v-0.6h3.4v0.3C75.9,56.2,75.8,56.4,75.6,56.4z"/>
	</g>
	<g>
		<path class="st1" d="M51.9,56.1h3.4v-0.6h-3.7v0.3C51.6,55.9,51.7,56.1,51.9,56.1z"/>
	</g>
	<g>
		<path class="st1" d="M49.6,55h6.9v-0.6h-7.2v0.3C49.3,54.9,49.5,55,49.6,55z"/>
	</g>
	<g>
		<path class="st1" d="M47.4,53.8h9.8v-0.7H47.1v0.4C47.1,53.7,47.2,53.8,47.4,53.8z"/>
	</g>
	<g>
		<path class="st1" d="M45.3,52.4h11.9v-0.7H44.9V52C44.9,52.2,45.1,52.4,45.3,52.4z"/>
	</g>
	<g>
		<path class="st1" d="M43.4,51.1h10.7l-1.7-1H40.2l0,0C40.3,51.1,42.8,51.1,43.4,51.1z"/>
	</g>
	<g>
		<path class="st1" d="M36.2,47.5h12.2l-1.7-1H32.9l0,0C33.1,47.5,35.5,47.5,36.2,47.5z"/>
	</g>
	<g>
		<path class="st1" d="M31.5,45.6h13.1l-1.8-1.1H28v0C28.2,45.6,30.8,45.6,31.5,45.6z"/>
	</g>
	<g>
		<path class="st1" d="M26.5,43.4h13.4l-1.8-1.6H22.9l0,0C23.1,43.4,25.8,43.4,26.5,43.4z"/>
	</g>
	<g>
		<path class="st1" d="M19.9,40.2h14L32,38.6H16.2l0,0C16.3,40.2,19.2,40.2,19.9,40.2z"/>
	</g>
	<g>
		<path class="st1" d="M39.9,49.3h11.9l-1.7-0.9H36.7v0C36.8,49.3,39.3,49.3,39.9,49.3z"/>
	</g>
	<g>
		<path class="st1" d="M70.3,55.1c0,0,1.4,0.5,1.4,1.2s-3.3,2.5-3.3,2.5h-3.5C64.9,58.9,69.2,55.6,70.3,55.1z"/>
	</g>
	<g>
		<path class="st1" d="M64.5,59.4l-2.2,1.5h3.5l2-1.2C67.7,59.7,64.8,59.9,64.5,59.4z"/>
	</g>
	<g>
		<path class="st1" d="M54.5,59l4.3-2.7c0,0,1.3-0.8,2.4,0s0.2,1.3-0.4,1.7c-0.6,0.4-3.1,1.3-3.1,1.3S55,59.6,54.5,59z"/>
	</g>
	<g>
		<path class="st1" d="M56.5,55.6l2.5-1.4l1,0.7C60,54.9,59.1,56.2,56.5,55.6z"/>
	</g>
	<g>
		<path class="st1" d="M60.6,55.4l2.1-1c0,0,0.7,0.7,1.5,0.7C64.3,55.1,62.3,56.6,60.6,55.4z"/>
	</g>
	<g>
		<path class="st1" d="M64.9,55.6l2.5-1.5v0.5C67.4,54.5,65.8,56.4,64.9,55.6z"/>
	</g>
	<g>
		<path class="st1" d="M63.4,53.9l2.1-1.1c0,0,0,0.8,1.7,0.6c0,0-1.6,1-2.6,0.9C63.6,54.4,63.4,53.9,63.4,53.9z"/>
	</g>
	<g>
		<path class="st1" d="M66.2,52.3l1.6-1c0,0,0.1,0.7,1,0.7c0,0-1.2,0.9-1.8,0.9C66.2,52.9,66.2,52.3,66.2,52.3z"/>
	</g>
	<g>
		<path class="st1" d="M65.7,50.8l1.8-1h0.8C68.2,49.8,66.7,52.1,65.7,50.8z"/>
	</g>
	<g>
		<path class="st1" d="M64.8,51.4l0.9,0.5c0,0-1.6,1.2-2.5,1.1c-0.6-0.1-0.8-0.5-0.8-0.5L64.8,51.4z"/>
	</g>
	<g>
		<path class="st1" d="M61.7,53.1l1.1,0.4c0,0-1.8,1.2-3.2,0.6L61.7,53.1z"/>
	</g>
	<g>
		<path class="st1" d="M67,48.4h1.6c0,0-0.6,1-1.9,0.8C65.5,49.1,67,48.4,67,48.4z"/>
	</g>
	<g>
		<path class="st1" d="M62.3,51.1c0,0,0.5,0.6,1.8-0.1c1.3-0.7,1.6-1,1.6-1L65,49.4L62.3,51.1z"/>
	</g>
	<g>
		<path class="st1" d="M61.2,51.7l0.9,0.3c0,0-1.8,1-3,0.6L61.2,51.7z"/>
	</g>
	<g>
		<path class="st1" d="M58.1,53.4h1c0,0-1,0.7-1.3,0.7C57.5,54,58.1,53.4,58.1,53.4z"/>
	</g>
	<g>
		<path class="st1" d="M33.5,38.7h15.8c0,0,3.4,0,6,2.2s6.1,5.1,6.1,5.1h2l0.8,1.3h-1.5l-0.5-0.5H48.5l-0.4-0.3h12.2l-1.5-1.2H45.9
			l-1.3-0.8h12.9l-2.1-2H40.5l-1.1-0.8h14.9l-2.1-1.5c0,0-0.7-0.5-2.2-0.5s-14.8,0-14.8,0L33.5,38.7z"/>
	</g>
	<g>
		<path class="st1" d="M54.1,49.9l0.7,0.7h4.9v0.6c0,0,2.2,0,2.2-1.2L54.1,49.9z"/>
	</g>
	<g>
		<polygon class="st1" points="51.9,48.4 52.6,49 61.8,49 61.8,49.5 63.7,49.5 65.8,48.4 64.7,47.7 62.6,48.4 		"/>
	</g>
	<g>
		<path class="st1" d="M58,51.7l-0.1,0.5c0,0,0.8-0.1,0.9-0.5H58z"/>
	</g>
	<g>
		<path class="st1" d="M52.6,60.9c0,0,1.1-0.5,1.7-1.2l2.8,0.5C57.1,60.1,54,61.9,52.6,60.9z"/>
	</g>
	<g>
		<path class="st1" d="M83,45.7l1.8-1.2h14.6c0,0-1.1,1.3-3.6,1.3C93.3,45.7,83,45.7,83,45.7z"/>
	</g>
	<g>
		<path class="st1" d="M81.6,46.4l0.2,1h9.5c0,0,2.2-0.1,3.6-1H81.6z"/>
	</g>
	<g>
		<path class="st1" d="M86.2,48.4l0.4,0.7h2.9c0,0,1.1-0.1,1.7-0.7H86.2z"/>
	</g>
	<g>
		<path class="st1" d="M86.8,49.9v0.7c0,0,0.7,0.1,0.9-0.7H86.8z"/>
	</g>
	<g>
		<path class="st1" d="M90,41.7l-1.7,1.5h11.8c0,0,2.7,0,4.7-1.5H90z"/>
	</g>
	<g>
		<path class="st1" d="M95.8,38.6l-1.7,1.5h12.2c0,0,3.2-0.2,5.4-1.4L95.8,38.6z"/>
	</g>
	<g>
		<rect x="74.9" y="47.9" class="st4" width="5.7" height="0.4"/>
	</g>
	<g>
		<circle class="st4" cx="79" cy="48.6" r="0.5"/>
	</g>
</g>
</svg>
