<?xml version="1.0" encoding="utf-8"?>
<!-- Generator: Adobe Illustrator 27.0.1, SVG Export Plug-In . SVG Version: 6.00 Build 0)  -->
<svg version="1.1" id="Layer_1" xmlns="http://www.w3.org/2000/svg" xmlns:xlink="http://www.w3.org/1999/xlink" x="0px" y="0px"
	 viewBox="0 0 128 128" style="enable-background:new 0 0 128 128;" xml:space="preserve">
<style type="text/css">
	.st0{fill:#F2F2F2;}
	.st1{fill:url(#SVGID_1_);}
	.st2{fill:url(#SVGID_00000176016734815749479030000017511306664854382768_);}
	.st3{fill:url(#SVGID_00000150818450351562485210000016034229699832194489_);}
</style>
<circle class="st0" cx="64" cy="64" r="63.5"/>
<g>
	<linearGradient id="SVGID_1_" gradientUnits="userSpaceOnUse" x1="54.1793" y1="54.1793" x2="44.2012" y2="44.2012">
		<stop  offset="0" style="stop-color:#8DBCFF"/>
		<stop  offset="0.9993" style="stop-color:#9EC6FF"/>
	</linearGradient>
	<path class="st1" d="M72,22.4l-1.5-1.5c-0.8-0.8-2.2-0.8-3,0L26.4,62c-3.9,3.9-3.9,10.1,0,14l1.5,1.5c0.8,0.8,2.2,0.8,3,0L72,36.4
		C75.8,32.5,75.8,26.3,72,22.4z"/>
	
		<linearGradient id="SVGID_00000040555403123079288290000012792818471925157251_" gradientUnits="userSpaceOnUse" x1="68.7198" y1="68.7198" x2="58.7417" y2="58.7417">
		<stop  offset="6.613757e-04" style="stop-color:#5783FF"/>
		<stop  offset="1" style="stop-color:#7EA1FD"/>
	</linearGradient>
	<path style="fill:url(#SVGID_00000040555403123079288290000012792818471925157251_);" d="M86.5,36.9L85,35.5c-0.8-0.8-2.2-0.8-3,0
		L41,76.5c-3.9,3.9-3.9,10.1,0,14l1.5,1.5c0.8,0.8,2.2,0.8,3,0l41.1-41.1C90.4,47.1,90.4,40.8,86.5,36.9z"/>
	
		<linearGradient id="SVGID_00000173879617797400184500000013160321812596714648_" gradientUnits="userSpaceOnUse" x1="83.7988" y1="83.7988" x2="73.8207" y2="73.8207">
		<stop  offset="6.613757e-04" style="stop-color:#2347FF"/>
		<stop  offset="1" style="stop-color:#4368FF"/>
	</linearGradient>
	<path style="fill:url(#SVGID_00000173879617797400184500000013160321812596714648_);" d="M101.6,52l-1.5-1.5c-0.8-0.8-2.2-0.8-3,0
		L56,91.6c-3.9,3.9-3.9,10.1,0,14l1.5,1.5c0.8,0.8,2.2,0.8,3,0L101.6,66C105.4,62.2,105.4,55.9,101.6,52z"/>
</g>
</svg>
