<?xml version="1.0" encoding="UTF-8"?><svg id="Layer_1" xmlns="http://www.w3.org/2000/svg" viewBox="0 0 128 128"><defs><style>.cls-1{fill:#17107a;}.cls-1,.cls-2,.cls-3{stroke-width:0px;}.cls-2{fill:#e5e9ec;}.cls-3{fill:#fccd02;}</style></defs><circle class="cls-2" cx="64" cy="64" r="63.5"/><g id="LISTA"><path class="cls-1" d="m74.3,25.97c-.7.34-1.07.56-1.47.7-10.22,3.44-14.81,10.95-15.26,21.32-.21,4.73-.02,9.47-.08,14.2-.07,5.3-1.38,10.27-4.64,14.53-4.58,5.99-10.53,9.62-18.21,7.88-7.73-1.76-11.12-7.88-12.32-15.14-1.96-11.89,2.18-22.05,10.25-30.5,10.63-11.13,23.52-16.53,39.16-13.68.76.14,1.5.4,2.58.7Z"/><path class="cls-3" d="m50.07,100.9c.55-.45.66-.61.81-.64,13.73-3.07,16.89-11.9,18.21-21.52.66-4.77.9-9.61,1.63-14.36.76-4.98,2.97-9.37,6.69-12.83,5.21-4.86,11.26-7.41,18.28-4.8,6.99,2.6,9.75,8.56,10.34,15.51.99,11.49-3.49,20.99-11.74,28.65-11.48,10.65-24.89,15.02-40.46,11.25-1.18-.29-2.31-.76-3.76-1.24Z"/></g></svg>