<?xml version="1.0" encoding="utf-8"?>
<!-- Generator: Adobe Illustrator 26.1.0, SVG Export Plug-In . SVG Version: 6.00 Build 0)  -->
<svg version="1.1" id="Layer_1" xmlns="http://www.w3.org/2000/svg" xmlns:xlink="http://www.w3.org/1999/xlink" x="0px" y="0px"
	 width="128px" height="128px" viewBox="0 0 128 128" style="enable-background:new 0 0 128 128;" xml:space="preserve">
<style type="text/css">
	.st0{fill:#EFF4F4;}
	.st1{fill:url(#SVGID_1_);}
	.st2{fill:#106CFE;}
	.st3{fill:#0025B0;}
	.st4{fill:#5499FE;}
	.st5{fill:#3679FE;}
	.st6{fill:#0038D4;}
	.st7{fill:#70A7FE;}
	.st8{fill:#2C50FE;}
	.st9{fill:#549AFE;}
</style>
<circle class="st0" cx="64" cy="64" r="63.5"/>
<g>
	<path class="st2" d="M82.1,48.1c-0.1,0.3-0.1,0.8-0.2,1.3c-2.1,8-4.3,16-6.4,24.1c-0.3,1.2-0.8,1.8-2,2.1
		c-8.1,2.2-16.1,4.5-24.2,6.7c-3.1,0.9-4.5-0.4-3.6-3.5c2.2-8.1,4.5-16.2,6.7-24.4c0.3-1.1,0.8-1.7,1.9-2c8.2-2.1,16.3-4.2,24.5-6.3
		C80.9,45.4,82.1,46.2,82.1,48.1z"/>
	<path class="st3" d="M65.7,116c1.4-5.4,2.8-10.6,4.2-15.9c1.9-7.2,3.8-14.4,5.7-21.6c0.3-1.1,0.8-1.7,1.9-2c12-3.3,24-6.6,36-10
		c0.6-0.2,1.4-0.7,1.8,0.1c0.5,0.8-0.3,1.2-0.8,1.6c-15.4,15.4-30.9,30.9-46.3,46.3C67.6,115.3,67,116,65.7,116z"/>
	<path class="st4" d="M12.1,61.6c-0.1-0.9,0.6-1.4,1.1-2c15.3-15.4,30.7-30.7,46.1-46c0.5-0.5,1-1.3,1.8-0.8c0.7,0.5,0.2,1.2,0,1.8
		c-3.3,11.9-6.6,23.9-9.9,35.8c-0.2,0.9-0.6,1.5-1.6,1.7c-12.1,3.1-24.2,6.3-36.3,9.5C12.9,61.8,12.5,61.9,12.1,61.6z"/>
	<path class="st5" d="M39.9,81.7c-0.9-0.1-1.7-0.5-2.5-0.9c-7.8-4.9-15.7-9.8-23.5-14.7c-0.3-0.2-0.6-0.4-0.8-0.6
		C12.6,65.2,12,64.7,12,64c0.1-0.9,1-0.8,1.6-0.9C25.2,60,36.9,57,48.5,53.9c1.7-0.4,1.8-0.1,1.4,1.5c-2.2,7.7-4.4,15.5-6.5,23.2
		C42.9,80.5,41.9,81.6,39.9,81.7z"/>
	<path class="st6" d="M46.2,88c0.1-1.6,0.8-2.9,2.4-3.3c8.1-2.3,16.2-4.5,24.4-6.8c1.3-0.4,1.3,0.2,1.1,1.2
		c-3.2,11.9-6.3,23.8-9.5,35.7c-0.4,1.6-1.1,1.2-1.9,0.4c-0.4-0.4-0.7-1-1.1-1.5C56.8,106,52,98.3,47.2,90.6
		C46.7,89.8,46.1,89,46.2,88z"/>
	<path class="st7" d="M53.4,51.2c1.9-6.8,3.7-13.3,5.5-19.8c1.6-5.7,3.1-11.3,4.8-17c0.2-0.6,0.1-1.7,1-1.8c0.7,0,0.9,0.9,1.2,1.5
		c5.1,8.7,10.1,17.4,15.2,26c1.2,2,0.8,3.7-1.2,4.2C71.1,46.6,62.4,48.8,53.4,51.2z"/>
	<path class="st8" d="M86.6,46.9c0.9-0.1,1.7,0.3,2.4,0.8c8.4,4.9,16.8,9.7,25.2,14.6c0.5,0.3,1.3,0.4,1.2,1.1
		c-0.1,0.7-0.9,0.7-1.5,0.9c-11.8,3.3-23.6,6.6-35.4,9.9c-1.5,0.4-1.9,0.3-1.5-1.4c2.1-7.6,4-15.1,6-22.7
		C83.6,48.2,84.6,47,86.6,46.9z"/>
	<path class="st6" d="M114.9,61c-1.5-0.3-2.5-1.5-3.8-2.2C104.4,55,97.7,51,91,47.2c-4.4-2.5-7.8-6-10.3-10.4
		c-4.4-7.8-9-15.5-13.5-23.3c-0.3-0.5-0.3-0.8,0.4-0.8c15,15,30,30,45.1,45c0.9,0.9,1.8,1.9,2.8,2.9C115.4,61,115.3,61.1,114.9,61z"
		/>
	<path class="st9" d="M58.3,113.3C43.7,98.7,29,84,14.5,69.4c0.2-0.1,0.6,0,0.9,0.3c6.9,4.4,14.1,8.5,20.8,13.2
		c5.9,4.2,10,10,13.7,16.1c2.5,4.2,5.2,8.3,7.7,12.4C58,112.1,58.6,112.6,58.3,113.3z"/>
	<path class="st6" d="M67.5,12.7c-0.3,0.1-0.3,0.5-0.4,0.8c-0.5-0.4-1-0.9-0.6-1.4C66.9,11.8,67.3,12.3,67.5,12.7z"/>
	<path class="st6" d="M114.9,61c0.1-0.1,0.3-0.3,0.4-0.4c0.5,0,0.8,0.4,0.6,0.7C115.5,61.9,115.2,61.4,114.9,61z"/>
</g>
</svg>
