<?xml version="1.0" encoding="UTF-8"?>
<svg xmlns="http://www.w3.org/2000/svg" xmlns:xlink="http://www.w3.org/1999/xlink" version="1.1" id="Layer_1" x="0px" y="0px" viewBox="0 0 595.3 595.3" style="enable-background:new 0 0 595.3 595.3;" xml:space="preserve">
<style type="text/css">
	.st0{fill:#00EB88;}
</style>
<g>
	<path class="st0" d="M597,298.3c0-165.7-134.3-300-300-300S-3,132.6-3,298.3s134.3,300,300,300S597,464,597,298.3L597,298.3z"></path>
	<polygon points="470.1,331.7 470.1,275.4 413.9,275.4 413.9,331.7 470.1,331.7  "></polygon>
	<polygon points="348.3,266 348.3,209.8 292,209.8 292,266 348.3,266  "></polygon>
	<polygon points="348.3,397.3 348.3,341 292,341 292,397.3 348.3,397.3  "></polygon>
	<polygon points="226.4,462.9 226.4,406.7 170.1,406.7 170.1,462.9 226.4,462.9  "></polygon>
	<polygon points="226.4,331.7 226.4,275.4 170.1,275.4 170.1,331.7 226.4,331.7  "></polygon>
	<polygon points="226.4,200.4 226.4,144.2 170.1,144.2 170.1,200.4 226.4,200.4  "></polygon>
</g>
</svg>
