<?xml version="1.0" encoding="UTF-8"?><svg xmlns="http://www.w3.org/2000/svg" viewBox="0 0 512 512"><g id="BG_WHITE"><circle cx="277.36322" cy="258.85597" r="220.27922" fill="#fff"/></g><g id="CIRCLE_OUTLINE_BLACK"><path d="m256,0C114.61523,0,0,114.61522,0,255.99999s114.61523,256,256,256,256-114.61523,256-256S397.38477,0,256,0Zm-26.66504,399.31787c-.21143.21143-.6333.42236-.84424.6333h-23.64014c-.42236,0-.6333-.21094-.84473-.42188l-69.65332-78.30811c-.21143-.42188-.21143-.84424,0-1.26611l86.75049-149.01709c.42236-.6333,1.47754-.6333,1.89941,0l24.27344,41.79199c.21094.21143.21094.6333,0,1.05566l-58.67822,100.68115c-.21094.42236,0,.84473.21143,1.2666l35.0376,39.25928c.21143.21143.6333.42236.84473.42236h41.37012c1.05518,0,1.47754,1.05518.84424,1.68848l-37.5708,42.21436h0Zm148.17285-78.51855l-69.6543,78.30762c-.21094.21094-.63281.42236-.84424.42236h-56.56738c-1.05518,0-1.47754-1.05566-.84424-1.68896l37.78223-42.63623,35.45996-39.68164c.42188-.42236.42188-.84424.21094-1.2666l-67.12109-115.24512-25.32861-43.48096c-.21094-.21143-.21094-.6333,0-1.05566l24.48438-41.79199c.42236-.84424,1.47754-.84424,1.68896,0l120.94434,206.85059c.21094.42236,0,.84424-.21094,1.2666Z" fill="#001a3e"/></g></svg>