<?xml version="1.0" encoding="UTF-8"?><svg id="Layer_1" xmlns="http://www.w3.org/2000/svg" viewBox="0 0 128 128"><defs><style>.cls-1{fill:#070213;}.cls-1,.cls-2{stroke-width:0px;}.cls-2{fill:#fff;}</style></defs><circle class="cls-1" cx="64" cy="64" r="63.5"/><g id="LUMIA"><path class="cls-2" d="m46.48,62.34h-29.5l31.04-14.57,14.37-31.28.03,29.72c.01,8.91-7.13,16.14-15.95,16.14h.01Z"/><path class="cls-2" d="m81.52,62.34h29.5l-31.04-14.57-14.37-31.28-.03,29.72c-.01,8.91,7.13,16.14,15.95,16.14h-.01Z"/><path class="cls-2" d="m81.52,65.66h29.5l-31.04,14.57-14.37,31.28-.03-29.72c-.01-8.91,7.13-16.14,15.95-16.14h-.01Z"/><path class="cls-2" d="m46.48,65.66h-29.5l31.04,14.57,14.37,31.28.03-29.72c.01-8.91-7.13-16.14-15.95-16.14h.01Z"/></g></svg>