<?xml version="1.0" encoding="UTF-8"?><svg id="Layer_1" xmlns="http://www.w3.org/2000/svg" xmlns:xlink="http://www.w3.org/1999/xlink" viewBox="0 0 128 128"><defs><style>.cls-1{fill:url(#linear-gradient);}.cls-1,.cls-2{fill-rule:evenodd;}.cls-1,.cls-2,.cls-3,.cls-4,.cls-5{stroke-width:0px;}.cls-2{fill:url(#linear-gradient-2);}.cls-3{fill:#eedf70;}.cls-4{fill:#f0e172;}.cls-5{fill:#e9edf0;}</style><linearGradient id="linear-gradient" x1="51.15" y1="-4340.67" x2="72.24" y2="-4390.36" gradientTransform="translate(0 -4275.48) scale(1 -1)" gradientUnits="userSpaceOnUse"><stop offset="0" stop-color="#f5d360"/><stop offset="1" stop-color="#dc3633"/></linearGradient><linearGradient id="linear-gradient-2" x1="32.78" y1="-4302.66" x2="86.31" y2="-4362.82" gradientTransform="translate(0 -4275.48) scale(1 -1)" gradientUnits="userSpaceOnUse"><stop offset="0" stop-color="#f5d35e"/><stop offset="1" stop-color="#db3634"/></linearGradient></defs><circle class="cls-5" cx="64" cy="64" r="63.5"/><path class="cls-3" d="m53.61,50.7c-5.09-7.77-2.55-17.22,5.09-22.38,5.02-3.14,10.61-5.12,15.11-9.46.3-.3.56-.56.83-.83,17.62,4.63,31.54,19.31,35.47,37.55-4.3-2.91-9.39-4.73-14.88-5.09-2.94-.17-5.92.07-8.76.76-2.78.66-5.42,1.75-7.9,3.17-1.16.69-2.45,1.36-3.77,1.88-.86.36-1.72.63-2.54.86-1.62.4-3.31.59-4.99.59-5.42.03-10.65-2.45-13.65-7.07h0Z"/><path class="cls-4" d="m111.23,65.18c.23,11.3-3.54,21.79-10.02,30.08-2.41.63-4.99.76-7.67.26-7.04-1.26-12.63-6.78-14.02-13.79-1.65-8.43,2.78-16.13,9.62-19.44.73-.33,1.49-.6,2.25-.86,5.59-1.85,12.59-1.92,19.54-.93.17,1.52.26,3.07.3,4.66h0Z"/><path class="cls-1" d="m105.05,94.97c-17.92,19.5-47.44,26.58-70.65,10.12-9.36-6.64-15.37-15.47-18.28-25.02.5,1.49,1.12,2.88,1.82,4.17,6.51,12,21.12,16.46,36.7,10.45,9.92-3.83,12.46-6.84,18.51-17.45,3.77-6.54,8.99-11.97,16-14.91-6.84,3.31-11.27,11.01-9.62,19.44,1.39,7.01,6.97,12.53,14.02,13.79,2.68.5,5.26.36,7.67-.26,1.16-.26,2.25-.66,3.3-1.16.5-.26.93.43.53.86h0Z"/><path class="cls-2" d="m115.26,61.28c-1.42-.3-2.88-.56-4.33-.76-6.94-.99-13.95-.93-19.54.93-.76.26-1.52.53-2.25.86-7.01,2.94-12.23,8.36-16,14.91-6.05,10.61-8.59,13.62-18.51,17.45-15.57,6.02-30.18,1.55-36.7-10.45-.69-1.29-1.32-2.68-1.82-4.17-.03-.07-.03-.1-.06-.16v-.03c-6.32-21.25,2.81-46.08,24.76-57.98,5.85-3.17,12.93-5.85,18.84-7.6,5.68-1.69,15.37-4.1,17.82-10.35.23-.56,1.03-.43,1.09.16.96,6.88-.4,10.28-3.93,13.95-.26.26-.53.53-.83.83-4.49,4.33-10.08,6.32-15.11,9.46-7.64,5.16-10.18,14.61-5.09,22.38,3.01,4.63,8.23,7.11,13.65,7.07,1.69,0,3.37-.2,4.99-.59.83-.23,1.69-.5,2.54-.86,1.32-.53,2.61-1.19,3.77-1.88,2.48-1.42,5.13-2.51,7.9-3.17,2.84-.69,5.82-.93,8.76-.76,5.49.36,10.58,2.18,14.88,5.09,2.08,1.36,3.97,3.01,5.65,4.83.36.36,0,.96-.49.86h0Z"/></svg>