<?xml version="1.0" encoding="utf-8"?>
<!-- Generator: Adobe Illustrator 24.3.0, SVG Export Plug-In . SVG Version: 6.00 Build 0)  -->
<svg version="1.1" id="Layer_1" xmlns="http://www.w3.org/2000/svg" xmlns:xlink="http://www.w3.org/1999/xlink" x="0px" y="0px"
	 viewBox="0 0 128 128" style="enable-background:new 0 0 128 128;" xml:space="preserve">
<style type="text/css">
	.st0{fill:#172852;}
	.st1{fill:#FED73D;}
	.st2{fill:#FD6F03;}
</style>
<circle class="st0" cx="64" cy="64" r="64"/>
<g>
	<path class="st1" d="M103.2,76.7c-3.5,15.1-19.7,27.8-36.7,28.6c-18.4,1.1-35.4-10.3-41.6-27.8c-5.4-15.9-0.5-35.6,11.6-44.3
		c2.4,15.7,9.7,28.4,23,37C72.9,79.4,87.5,80.7,103.2,76.7z"/>
	<path class="st1" d="M84.5,48.1c-7.8-2.7-15.9-5.4-23.8-8.1c-3.8-1.4-7.6-3-11.1-5.4c-1.9-1.4-4.1-2.7-3.8-5.1c0.3-3,3-4.1,5.1-4.9
		c7.6-2.7,15.1-2.7,22.7-1.1c15.7,3.5,28.9,17.8,30.8,32.7c-1.1,0.5-1.9,0.3-2.7-0.3c-4.3-2.4-8.9-4.1-13.8-5.7
		C86.4,50,85.3,49.1,84.5,48.1z"/>
	<path class="st2" d="M84.5,48.1c6.8,2.2,13.8,4.1,19.7,8.4c1.1,3.5,0.8,7.3,0.8,10.8c0,0.8,0,2.4-1.4,1.4
		C95.9,63.2,87.8,57.8,84.5,48.1z"/>
</g>
</svg>
