<?xml version="1.0" encoding="utf-8"?>
<!-- Generator: Adobe Illustrator 27.1.0, SVG Export Plug-In . SVG Version: 6.00 Build 0)  -->
<svg version="1.1" id="Layer_1" xmlns="http://www.w3.org/2000/svg" xmlns:xlink="http://www.w3.org/1999/xlink" x="0px" y="0px"
	 viewBox="0 0 128 128" style="enable-background:new 0 0 128 128;" xml:space="preserve">
<style type="text/css">
	.st0{fill-rule:evenodd;clip-rule:evenodd;fill:#F00011;}
	.st1{fill:#FFFDF6;}
</style>
<g id="楕円形_1_のコピー_8">
	<g>
		<circle class="st0" cx="64" cy="64" r="63.5"/>
	</g>
</g>
<g id="_x37_jPn4W.tif">
	<g>
		<path class="st1" d="M51,63.6c2.2-1.9,6-2.5,8.7-3.5c2.9-1,5.6-2,7.6-4.6c1.9-2.4,2.2-5.2,2.8-8.1c0.7-3.5,1.4-7.1,2.2-10.6
			c0.3-1.5,0.6-3,0.9-4.6c0.2-0.9,0.2-3.2,1.2-3.7c2.4-1,2.7,5.9,3,7.3c0.7,3.4,1.3,6.7,2,10.1c0.6,3.1,1,6.6,2.8,9.3
			c3.5,5.2,10.5,4.7,15.5,7.5c3.4,1.9-1.9,3.3-3.5,3.8c-2.9,1-6.1,1.7-8.7,3.3c-5.2,3.2-5.5,9.5-6.7,14.9c-0.7,3.3-1.3,6.5-2,9.8
			c-0.2,1.2-0.3,3-0.8,4.1c-1,1.9-2.2,0.5-2.6-0.9c-1.9-7.2-2.3-14.9-4.6-22c-2.3-7.1-10.5-8.2-16.7-10.3C51.7,65.1,51,64.8,51,63.6
			z"/>
		<path class="st1" d="M40.2,98.1c-2.1-3.2-1.5-8-2.7-11.6c-1.4-3.9-5.7-3.4-8.6-5.5c2.7-2.2,7-1.6,8.5-5.2c0.7-1.7,0.8-3.8,1.2-5.6
			c0.4-1.8,0.4-4.7,1.7-6c1.2,1.3,1.2,3.9,1.6,5.6c0.4,1.9,0.7,3.8,1.3,5.6c1.4,4.2,5.6,3.2,8.5,5.6c-2.5,2-6.3,1.5-8.1,4.5
			c-0.9,1.4-1,3.2-1.3,4.8c-0.5,2.3-1,4.7-1.5,7C40.8,97.5,40.5,97.7,40.2,98.1z"/>
		<path class="st1" d="M51,55.5c-1.7-2.7-1-6.3-2.3-9.1c-0.6-1.2-1.5-1.7-2.7-2.1c-0.6-0.3-3.6-0.8-3.4-1.7c0.1-0.8,3-1.2,3.6-1.4
			c1.1-0.4,1.9-1.1,2.4-2.2c1.2-2.6,0.3-6.5,2.2-8.7c1.7,2.5,1,6.1,2.3,8.8c1.3,2.5,4.3,1.9,6.1,3.7c-1.7,1.7-4.5,1.2-5.9,3.5
			c-1.4,2.3-1.5,6-2.1,8.7C51.4,54.9,51.2,55.1,51,55.5z"/>
	</g>
</g>
</svg>
