<?xml version="1.0" encoding="UTF-8"?><svg id="Layer_1" xmlns="http://www.w3.org/2000/svg" xmlns:xlink="http://www.w3.org/1999/xlink" viewBox="0 0 128 128"><defs><style>.cls-1{fill:url(#linear-gradient);filter:url(#drop-shadow-3);}.cls-1,.cls-2,.cls-3{stroke-width:0px;}.cls-4{filter:url(#drop-shadow-4);}.cls-2{fill:url(#linear-gradient-2);fill-rule:evenodd;}.cls-3{fill:#070e15;}</style><linearGradient id="linear-gradient" x1="12.96" y1="64" x2="115.04" y2="64" gradientUnits="userSpaceOnUse"><stop offset="0" stop-color="#00c5b0"/><stop offset=".49" stop-color="#0086f8"/><stop offset="1" stop-color="#ff5aab"/></linearGradient><filter id="drop-shadow-3" filterUnits="userSpaceOnUse"><feOffset dx="1" dy="1"/><feGaussianBlur result="blur" stdDeviation="7"/><feFlood flood-color="#a30075" flood-opacity=".7"/><feComposite in2="blur" operator="in"/><feComposite in="SourceGraphic"/></filter><filter id="drop-shadow-4" filterUnits="userSpaceOnUse"><feOffset dx=".87" dy=".87"/><feGaussianBlur result="blur-2" stdDeviation="6.12"/><feFlood flood-color="#a30075" flood-opacity=".7"/><feComposite in2="blur-2" operator="in"/><feComposite in="SourceGraphic"/></filter><linearGradient id="linear-gradient-2" x1="18.05" y1="-4344.03" x2="109.95" y2="-4342.35" gradientTransform="translate(0 -4279.19) scale(1 -1)" xlink:href="#linear-gradient"/></defs><circle class="cls-3" cx="64" cy="64" r="63.5"/><circle class="cls-1" cx="64" cy="64" r="51.04"/><circle class="cls-3" cx="64" cy="64" r="50.03"/><g id="MANTA" class="cls-4"><path class="cls-2" d="m39.85,96.37c-9.85-7.36-16.24-19.12-16.24-32.37,0-22.3,18.09-40.39,40.39-40.39,18.41,0,38.51,11,43.37,27.85-5.43-18.83-22.79-32.6-43.37-32.6-24.92,0-45.14,20.21-45.14,45.14s20.21,45.14,45.14,45.14,45.14-20.21,45.14-45.14v-2.38h-2.81c-.29,0-.71-.01-1.25-.04-1.07-.04-2.54-.11-4.19-.26-3.39-.29-7.25-.87-9.87-1.93-4.23-1.69-6.62-3.92-9.35-6.55l-.16-.15c-2.73-2.62-5.8-5.58-11.14-8.08-5.25-2.47-11.05-2.07-15.31-1.19-2.16.44-4.02,1.03-5.34,1.51-.66.23-1.19.45-1.56.6-2.15.91-4.23,1.97-6.33,2.97,0,0,4.13,1.13,6.17,1.77.07.02.18.06.34.11.31.1.75.26,1.28.48,1.08.44,2.49,1.09,3.89,2,2.21,1.41,4.04,3.2,4.78,5.38-4.67.61-9.06,2.67-12.35,4.6-1.99,1.17-3.64,2.34-4.81,3.21-.58.44-1.04.81-1.36,1.07-.27.22-4.49,3.94-4.49,3.94,0,0,5.45.58,8.13,1.12,1.79.36,4.19.94,6.72,1.82,2.53.88,5.08,2.04,7.2,3.52,2.12,1.48,3.68,3.19,4.44,5.15,2.23,5.72.04,11.27-4.37,14.4-4.35,3.09-10.96,3.83-17.58-.71h.01Zm15.4,7.06c1.78-.58,3.43-1.42,4.93-2.48,5.99-4.26,9.14-12.06,6.03-20-1.23-3.13-3.56-5.51-6.14-7.32-2.6-1.82-5.58-3.14-8.35-4.11-1.82-.64-3.58-1.13-5.11-1.5.55-.36,1.13-.72,1.75-1.09,3.66-2.15,8.27-4.12,12.68-4.12,6.66,0,11.62,2.05,16.35,4.23.43.2.86.4,1.3.6,4.23,1.99,8.67,4.07,13.83,4.07s8.9-1.41,11.59-2.88c-2.39,20.02-19.43,35.54-40.09,35.54-3,0-5.94-.33-8.75-.94h-.02Zm43.71-37.51c-1.78.6-3.94,1.04-6.45,1.04-4.05,0-7.53-1.62-11.95-3.68-.39-.18-.78-.37-1.19-.55-4.43-2.05-9.54-4.22-16.2-4.61-.9-4.4-4.23-7.42-7.1-9.26-.32-.21-.64-.4-.96-.59.28-.06.58-.13.88-.2,3.85-.8,8.44-.99,12.33.85,4.61,2.17,7.22,4.67,9.93,7.27l.1.09c2.78,2.67,5.74,5.48,10.88,7.54,2.86,1.14,6.56,1.75,9.73,2.1Z"/></g></svg>