<?xml version="1.0"?>
<svg width="1080" height="1080" xmlns="http://www.w3.org/2000/svg" xmlns:svg="http://www.w3.org/2000/svg" enable-background="new 0 0 2500 2500" version="1.1" xml:space="preserve">
 <style type="text/css">.st0{fill:url(#SVGID_1_);}
	.st1{fill:#FFFFFF;}</style>
 <g class="layer">
  <title>Layer 1</title>
  <linearGradient gradientTransform="matrix(1 0 0 -1 0 2497.8899)" gradientUnits="userSpaceOnUse" id="SVGID_1_" x1="-457.23" x2="2120.77" y1="2294.88" y2="713.88">
   <stop offset="0" stop-color="#A229C5"/>
   <stop offset="1" stop-color="#7B3FE4"/>
  </linearGradient>
  <path class="st0" d="m541.46,1078.05l0,0c295.34,0 536.59,-241.68 536.59,-536.59l0,0c0,-295.34 -241.68,-536.59 -536.59,-536.59l0,0c-295.34,0 -536.59,241.68 -536.59,536.59l0,0c0,295.34 241.68,536.59 536.59,536.59z" id="svg_1"/>
  <path class="st1" d="m515.82,744.55l161.7,93.53c8.7,5.01 19.13,4.79 27.84,-0.24l161.55,-93.27c8.71,-5.03 13.89,-14.35 14.13,-23.99l-0.15,-186.8c0.01,-10.04 -5.25,-19.14 -13.94,-24.15l-161.7,-93.53c-8.7,-5.01 -19.13,-4.79 -27.84,0.24l-289.04,166.88l-113.31,-65.51l-0.07,-130.89l113.24,-65.38l113.31,65.51l0.27,86.42l76.02,-43.89l0.08,-70.26c-0.08,-4.71 -1.4,-9.75 -3.69,-13.71c-2.51,-4.36 -5.99,-7.63 -10.03,-10.05l-161.7,-93.53c-8.7,-5.01 -19.13,-4.79 -27.84,0.24l-161.55,93.27c-8.71,5.03 -13.89,14.35 -14.13,23.99l0.15,186.8c-0.01,10.04 5.25,19.14 13.94,24.15l161.7,93.53c8.7,5.01 19.13,4.79 27.84,-0.24l289.04,-166.88l2.1,0.9l111.61,64.38l0.07,130.89l-113.24,65.38l-113.31,-65.51l-0.04,-86.03l-76.02,43.89l-0.08,70.26c-0.01,10.04 5.25,19.14 13.94,24.15l0,0l-0.85,-0.56z" id="svg_2"/>
 </g>
</svg>