<?xml version="1.0" encoding="utf-8"?>
<!-- Generator: Adobe Illustrator 26.2.0, SVG Export Plug-In . SVG Version: 6.00 Build 0)  -->
<svg version="1.1" id="Layer_1" xmlns="http://www.w3.org/2000/svg" xmlns:xlink="http://www.w3.org/1999/xlink" x="0px" y="0px"
	 width="128px" height="128px" viewBox="0 0 128 128" style="enable-background:new 0 0 128 128;" xml:space="preserve">
<style type="text/css">
	.st0{fill:#EFF4F4;}
	.st1{fill:url(#SVGID_1_);}
	.st2{fill:url(#SVGID_00000008139289024076061430000011596499182959203220_);}
	.st3{fill:url(#SVGID_00000129195272392084335050000014043912169093580733_);}
	.st4{fill:url(#SVGID_00000089576334308265815240000011724306426279086268_);}
	.st5{fill:#FAB109;}
</style>
<circle class="st0" cx="64.5" cy="64" r="63.5"/>
<g>
	<linearGradient id="SVGID_1_" gradientUnits="userSpaceOnUse" x1="12.7637" y1="72.2821" x2="38.3818" y2="72.2821">
		<stop  offset="0" style="stop-color:#1B6BF5"/>
		<stop  offset="0.6993" style="stop-color:#1B47F5"/>
	</linearGradient>
	<polygon class="st1" points="38.4,78.1 12.8,93.7 12.8,66.5 38.4,50.9 	"/>
	
		<linearGradient id="SVGID_00000116216433983293012130000009413543284617947570_" gradientUnits="userSpaceOnUse" x1="38.3818" y1="72.2821" x2="64" y2="72.2821">
		<stop  offset="0" style="stop-color:#3D8EFA"/>
		<stop  offset="0.6993" style="stop-color:#6AC4FF"/>
	</linearGradient>
	<polygon style="fill:url(#SVGID_00000116216433983293012130000009413543284617947570_);" points="38.4,78.1 64,93.7 64,66.5 
		38.4,50.9 	"/>
	
		<linearGradient id="SVGID_00000075149248024722320600000016097036896366053559_" gradientUnits="userSpaceOnUse" x1="64" y1="72.2821" x2="89.6181" y2="72.2821">
		<stop  offset="0" style="stop-color:#1B6BF5"/>
		<stop  offset="0.6993" style="stop-color:#1B47F5"/>
	</linearGradient>
	<polygon style="fill:url(#SVGID_00000075149248024722320600000016097036896366053559_);" points="89.6,78.1 64,93.7 64,66.5 
		89.6,50.9 	"/>
	
		<linearGradient id="SVGID_00000068661671722180264000000014837223457043324330_" gradientUnits="userSpaceOnUse" x1="89.6181" y1="72.2821" x2="115.2363" y2="72.2821">
		<stop  offset="0" style="stop-color:#3D8EFA"/>
		<stop  offset="0.6993" style="stop-color:#6AC4FF"/>
	</linearGradient>
	<polygon style="fill:url(#SVGID_00000068661671722180264000000014837223457043324330_);" points="89.6,78.1 115.2,93.7 115.2,66.5 
		89.6,50.9 	"/>
	<polygon class="st5" points="84.3,46.6 64.2,58.6 45.4,46.3 64,34.3 	"/>
</g>
</svg>
