<?xml version="1.0" encoding="UTF-8"?><svg id="Layer_1" xmlns="http://www.w3.org/2000/svg" viewBox="0 0 128 128"><defs><style>.cls-1{fill:#cf1462;}.cls-1,.cls-2{stroke-width:0px;}.cls-2{fill:#d6d6d6;}</style></defs><circle class="cls-2" cx="64" cy="64" r="63.5"/><g id="ME"><path class="cls-1" d="m24.49,64.21c0-5.96-.02-11.93.01-17.89.02-2.64,1.75-4.91,4.28-5.72,2.12-.68,4.07-.28,5.81,1.04.99.75,1.82,1.69,2.71,2.56,3.46,3.41,6.9,6.83,10.36,10.23,1.17,1.15,2.34,2.29,3.5,3.45.49.49.73.45,1.13-.12.64-.91,1.32-1.81,1.98-2.71,1.18-1.62,2.36-3.23,3.55-4.85,1.11-1.51,2.22-3.01,3.33-4.51.73-1,1.45-2.01,2.19-3.01.75-1.01,1.72-1.71,2.92-2.09.68-.21,1.37-.28,2.07-.28,9.85,0,19.69-.03,29.54,0,1.96,0,3.53.9,4.67,2.52.86,1.22,1.13,2.58.9,4-.3,1.85-1.37,3.22-3.02,4.12-.94.51-1.95.68-3.02.68-5.37-.02-10.74,0-16.12-.01-.14,0-.27,0-.41,0-.42.05-.6.47-.33.79,1.28,1.51,2.59,2.99,3.85,4.53,1.06,1.29,2.31,2.43,3.15,3.89.66,1.16,1.01,2.41.91,3.74-.1,1.3-.69,2.42-1.48,3.43-1.56,1.99-3.24,3.88-4.88,5.81-.48.56-.95,1.12-1.44,1.68-.16.18-.25.38-.16.61.1.26.35.27.59.27,5.46,0,10.92,0,16.38-.01,1.71,0,3.18.56,4.41,1.71,1.27,1.2,1.8,2.69,1.53,4.44-.29,1.95-1.3,3.38-3.02,4.32-.84.46-1.75.67-2.72.67-8.61,0-17.23,0-25.84,0-.94,0-1.87.02-2.8-.07-1.46-.14-2.86-.49-4-1.48-1.36-1.17-1.9-2.68-1.72-4.45.05-.46.25-.89.42-1.33.45-1.2,1.2-2.22,1.92-3.26,1.64-2.38,3.37-4.68,5.09-7,1.34-1.81,2.69-3.6,4.04-5.4.31-.42.29-.69-.05-1.08-1.09-1.26-2.17-2.51-3.25-3.78-1.06-1.24-2.11-2.5-3.18-3.74-.33-.38-.59-.38-.9.03-.6.77-1.17,1.55-1.75,2.33-1.29,1.72-2.57,3.44-3.86,5.16-1.74,2.32-3.49,4.63-5.21,6.97-.68.92-1.49,1.64-2.59,1.97-.96.28-1.93.32-2.92.14-.82-.15-1.57-.47-2.27-.91-.55-.35-.97-.83-1.42-1.28-3.05-3.01-6.09-6.04-9.13-9.05-.23-.23-.47-.44-.7-.66-.16-.16-.34-.21-.54-.13-.21.08-.33.26-.33.49,0,.09,0,.17,0,.26,0,6.49,0,12.99.03,19.48,0,1.72-.46,3.26-1.54,4.58-1,1.22-2.28,2.02-3.85,2.33-1.69.34-3.21-.08-4.56-1.06-1.08-.79-1.78-1.88-2.1-3.2-.15-.62-.17-1.24-.17-1.87,0-5.75,0-11.51,0-17.26h.02Z"/></g></svg>