<?xml version="1.0" encoding="UTF-8"?><svg id="Layer_1" xmlns="http://www.w3.org/2000/svg" viewBox="0 0 128 128"><defs><style>.cls-1{fill:#441635;}.cls-1,.cls-2,.cls-3,.cls-4,.cls-5,.cls-6{stroke-width:0px;}.cls-2{fill:#e19300;}.cls-3{fill:#9e4526;}.cls-4{fill:#9f4526;}.cls-5{fill:#fee93b;}.cls-6{fill:#eee;}</style></defs><circle class="cls-6" cx="64" cy="64" r="63.5"/><g id="I5kanL"><path class="cls-3" d="m31.36,96.66c-.24-.02-.47-.07-.7-.17v-7.1h-6.58l.05.05c0-16.95,0-33.91,0-50.86l-.05.05c2.4-.03,4.8-.06,7.21-.09l.21.21v50.61h7.17c0,2.41,0,4.83,0,7.24-2.44.02-4.87.04-7.31.06Z"/><path class="cls-1" d="m24.14,38.58c0,16.95,0,33.91,0,50.86h-7.02v-50.86h7.02Z"/><path class="cls-1" d="m103.83,38.68h7.05v50.67h-7.05l.05.05v-50.76l-.05.05Z"/><path class="cls-1" d="m89.34,103.84v7.05h-50.72v-7s.05-.05.05-.05c2.43-.02,4.87-.04,7.3-.05,14.47.03,28.94.06,43.42.1l-.05-.05Z"/><path class="cls-3" d="m38.99,24.18c2.45.04,4.52.02,6.98.06-.02,2.39-.04,4.79-.06,7.18h-7.25v7.25c-2.39.03-4.78.05-7.17.08l-.21-.21c.03-2.34.07-4.67.1-7.01.29-.29.57-.57.86-.86,1.02.19,2.04.37,3.13.57.97-.41,2.02-.86,3.55-1.52-.36-1.68-.71-3.29-1.06-4.9.25-.23.88-.4,1.12-.64Z"/><path class="cls-1" d="m89.34,24.19h7.24v7.24l.05-.05c-2.43.02-4.87.04-7.3.06.02-2.43.04-4.87.06-7.3l-.05.05Z"/><path class="cls-1" d="m31.42,24.19h7.41v7.34l.05-.05c-2.51.02-5.01.04-7.52.06.02-2.47.04-4.89.06-7.35h0Z"/><path class="cls-1" d="m31.57,31.53c-.03,2.38-.07,4.76-.1,7.14-2.46.03-4.92.06-7.39.09v-7.23h7.49Z"/><path class="cls-1" d="m96.59,31.43h7.25v7.25s.05-.05.05-.05c-2.43.02-4.87.04-7.3.06.02-2.43.04-4.87.06-7.3l-.05.05Z"/><path class="cls-1" d="m103.83,89.35v7.24h-7.24l.05.05c-.02-2.43-.04-4.87-.06-7.3,2.43.02,4.87.04,7.3.06l-.05-.05Z"/><path class="cls-1" d="m31.36,96.66c2.44-.02,4.87-.04,7.31-.06h-.01c0,2.41,0,4.82,0,7.24l-.05.05h-7.26v-7.23Z"/><path class="cls-1" d="m96.59,96.59v7.25h-7.25l.05.05c-.02-2.43-.04-4.87-.06-7.3,2.43.02,4.87.04,7.3.06l-.05-.05Z"/><path class="cls-1" d="m24.15,89.17h7.3v7.82h-7.3v-7.82Z"/><path class="cls-5" d="m31.49,38.75c2.39-.03,4.78-.05,7.17-.08,0,0-.02-.02-.02-.02,0,16.91,0,33.82,0,50.73l.02-.02h-7.17v-50.61Z"/><path class="cls-5" d="m38.67,96.6c0-2.41,0-4.83,0-7.24,0,0-.02.02-.02.02h7.24v7.24l.02-.02c-2.42,0-4.83,0-7.25-.01,0,0,.01.01.01.01Z"/><path class="cls-5" d="m89.39,24.14c-.02,2.43-.04,4.87-.06,7.3l.06-.06c-2.41.04-4.81.07-7.22.11-12.1-.03-24.19-.06-36.29-.09l.02.02c.02-2.39.04-4.79.06-7.18,14.47-.03,28.95-.07,43.42-.1Z"/><path class="cls-5" d="m103.88,89.39c-2.43-.02-4.87-.04-7.3-.06,0,0,.06.06.06.06,0-16.92,0-33.84,0-50.76l-.06.06c2.43-.02,4.87-.04,7.3-.06v50.76Z"/><path class="cls-5" d="m89.33,96.58c.02,2.43.04,4.87.06,7.3-14.47-.03-28.94-.06-43.42-.1-.02-2.4-.04-4.79-.06-7.19l-.02.02c12.1-.03,24.19-.06,36.29-.09,2.41.04,4.81.07,7.22.11,0,0-.06-.06-.06-.06Z"/><path class="cls-3" d="m45.91,96.6c.02,2.4.04,4.79.06,7.19-2.43.02-4.87.04-7.3.05,0-2.42,0-4.83,0-7.25,2.42,0,4.83,0,7.25.01Z"/><path class="cls-5" d="m38.57,38.67v-7.25h7.33l-.02-.02v7.24h-7.33l.02.02Z"/><path class="cls-5" d="m96.63,31.39c-.02,2.43-.04,4.87-.06,7.3l.06-.06-7.27-.02.05.05c0-2.42-.02-4.84-.02-7.27l-.06.06c2.43-.02,4.87-.04,7.3-.06Z"/><path class="cls-5" d="m96.63,96.64c-2.43-.02-4.87-.04-7.3-.06l.06.06c0-2.42.02-4.84.02-7.27l-.05.05c2.42,0,4.84-.02,7.27-.02l-.06-.06c.02,2.43.04,4.87.06,7.3Z"/><path class="cls-2" d="m38.64,38.64h7.24v-7.24c12.1.03,24.19.06,36.29.09v7.16h7.24l-.05-.05v50.81l.05-.05h-7.24v7.16c-12.1.03-24.19.06-36.29.09v-7.24h-7.24c0-16.91,0-33.82,0-50.73Zm7.49,7.34v35.85h7.14v-13.94h7.19v6.75h7.32v-6.8h7.19v13.97h6.94v-35.66h-14.35v6.75h-7.32v-6.93h-14.1Z"/><path class="cls-3" d="m89.41,38.65h-7.24v-7.16c2.41-.04,4.81-.07,7.22-.11,0,2.42.02,4.84.02,7.27Z"/><path class="cls-3" d="m89.36,89.41v-50.81l7.27.02c0,16.92,0,33.84,0,50.76-2.42,0-4.84.02-7.27.02Z"/><path class="cls-3" d="m82.17,96.53v-7.16h7.24c0,2.42-.02,4.84-.02,7.27-2.41-.04-4.81-.07-7.22-.11Z"/><path class="cls-4" d="m46.13,45.98h14.1v6.93h7.32v-6.75h14.35v35.66h-6.94v-13.97h-7.19v6.8h-7.32v-6.75h-7.19v13.94h-7.14v-35.85Z"/><path class="cls-1" d="m38.98,24.19v-7.08h50.37v7.07l.05-.05c-14.37.03-28.73.07-43.1.1-2.44-.04-4.87,0-7.31-.05Z"/></g></svg>