<?xml version="1.0" encoding="UTF-8"?><svg id="Layer_1" xmlns="http://www.w3.org/2000/svg" viewBox="0 0 128 128"><defs><style>.cls-1,.cls-2{stroke-width:0px;}.cls-2{fill:#5dcbfa;}</style></defs><circle class="cls-1" cx="64" cy="64" r="63.5"/><g id="METIS"><path class="cls-1" d="m1.66,63.91c.2-16.94,6.08-31.62,17.99-43.67C31.82,7.91,46.76,1.68,64.07,1.68c34.51,0,62.37,27.9,62.28,62.48-.09,34.61-28.09,61.98-61.95,62.16-10.93.06-21.21-2.53-30.76-7.87-9.86-5.52-17.69-13.16-23.42-22.89-5.73-9.75-8.6-20.31-8.56-31.65Zm53.29,20.98s-.09-.03-.14-.05c-.1-.62-.25-1.23-.31-1.86-.11-1.29-.43-2.52-.83-3.75-.58-1.77-1.54-3.31-2.76-4.7-.38-.44-.68-.4-.84.13-.22.75-.47,1.51-.52,2.27-.08,1.41-.15,2.82.16,4.24.2.87.41,1.73.75,2.56.53,1.27,1.17,2.48,2,3.59.5.68.7,1.43.39,2.22-.44,1.11-.96,2.19-1.47,3.27-.19.41-.36.51-.77.4-.46-.12-.91-.3-1.35-.49-1.69-.74-3.38-1.49-5.07-2.25-.69-.31-1.41-.59-2.04-1-1.1-.72-1.86-1.76-2.41-2.95-.77-1.64-1.62-3.23-2.81-4.61-.41-.48-.84-.95-1.27-1.4-1.18-1.24-1.91-2.71-2.16-4.39-.16-1.07-.68-1.87-1.59-2.42-.33-.2-.71-.34-1.06-.51-1.35-.67-2.32-1.64-2.7-3.16-.24-.97-.23-1.95-.25-2.93-.01-.69.11-1.39.17-2.09.08-.95.19-1.91.23-2.86.05-1.33-.46-2.57-.73-3.84-.29-1.37-.06-2.64.81-3.77.66-.86,1.52-1.5,2.44-2.05.81-.48,1.54-1.04,2.11-1.82.54-.73,1.14-1.44,1.8-2.06,1.13-1.06,2.41-1.94,3.71-2.77,1.27-.81,2.33-1.82,3-3.2.62-1.26,1.61-2.16,2.85-2.79,1.79-.91,3.45-2.02,5.03-3.29,1.31-1.05,2.74-1.95,4.29-2.61,1.22-.52,2.44-1.01,3.77-1.25,1.16-.21,2.3-.48,3.49-.45,1.11.02,2.22-.03,3.33.22.89.2,1.81.23,2.72.34.65.08,1.3.17,1.94.26.69.1,1.38.18,2.07.3,1.37.23,2.74.49,4.11.73.66.12,1.33.22,1.99.36,1.02.21,2.04.47,3.06.66,1.37.26,2.65.71,3.82,1.47,1.73,1.13,2.83,2.76,3.64,4.6.82,1.87,1.67,3.73,2.68,5.51.6,1.06,1.23,2.1,1.69,3.24.39.95.5,1.95.55,2.94.03.7-.18,1.42-.32,2.13-.12.61-.15,1.19.03,1.81.23.81.68,1.46,1.31,1.98,1.7,1.4,3.41,2.78,5.12,4.17.45.37.92.74,1.33,1.16.36.36.55.8.24,1.3-.2.33-.4.68-.68.93-.66.57-1.34,1.12-2.05,1.61-.84.58-.88,1.37-.45,2.03.11.16.21.33.3.51.39.74.37,1.46-.13,2.15-.59.82-.55,1.19-.04,2.07.48.84.49.98-.03,1.71-.2.28-.42.55-.63.84-.43.6-.62,1.24-.35,1.96.07.18.1.38.11.58,0,.87.04,1.75-.02,2.62-.07,1.01-.59,1.79-1.53,2.19-.47.2-1,.3-1.51.38-.86.13-1.73.21-2.6.31-1.28.15-2.55.33-3.83.45-.91.09-1.84,0-2.73.28-.43.14-.88.24-1.29.44-1.14.55-1.57,1.65-1.95,2.74-.43,1.23-.76,2.5-1.17,3.73-.46,1.38-.97,2.75-1.44,4.12-.75,2.18-1.49,4.36-2.23,6.54-.35,1.04-.31,2.04.49,2.86.54.56,1.18.98,2.04.63.42-.17.89-.23,1.3-.41,1.78-.77,3.6-1.47,5.3-2.38,2.18-1.18,4.26-2.54,6.23-4.07,2.89-2.25,5.47-4.81,7.72-7.69,1.31-1.69,2.49-3.46,3.57-5.31.97-1.68,1.78-3.44,2.54-5.22.64-1.51,1.19-3.04,1.6-4.62.31-1.18.53-2.38.85-3.55.37-1.35.51-2.75.65-4.13.29-2.98.33-5.98.02-8.97-.01-.13-.04-.26-.06-.39-.14-.93-.28-1.85-.42-2.78-.1-.67-.17-1.35-.35-1.99-.49-1.78-.96-3.58-1.57-5.32-1.18-3.37-2.73-6.56-4.75-9.51-1.01-1.47-2.07-2.92-3.21-4.29-1.37-1.64-2.86-3.17-4.48-4.58-1.62-1.4-3.3-2.7-5.09-3.88-2.19-1.44-4.48-2.68-6.91-3.67-.3-.12-.57-.33-.88-.43-1.77-.58-3.52-1.23-5.34-1.69-1.46-.37-2.93-.63-4.4-.91-1.19-.22-2.43-.24-3.64-.35-.26-.02-.52-.05-.79-.05-1.24,0-2.49-.03-3.73,0-1.4.03-2.79.08-4.17.33-.77.14-1.56.18-2.32.34-1,.2-1.98.48-2.98.7-1.83.41-3.62.98-5.35,1.68-2.52,1.01-4.99,2.16-7.29,3.63-2.11,1.35-4.17,2.78-6.03,4.47-1.61,1.47-3.14,3.01-4.56,4.68-1.72,2.02-3.18,4.2-4.5,6.48-1.59,2.76-2.83,5.67-3.77,8.72-.62,1.98-1.08,3.99-1.45,6.02-.2,1.13-.24,2.29-.35,3.44-.03.3-.02.61-.07.92-.25,1.61-.22,3.24-.08,4.84.15,1.86.19,3.74.66,5.58.32,1.24.48,2.52.81,3.75.39,1.47.82,2.93,1.34,4.35.54,1.49,1.16,2.95,1.84,4.38.59,1.23,1.27,2.43,1.98,3.6,1.3,2.12,2.82,4.09,4.49,5.93,1.51,1.67,3.13,3.23,4.88,4.63.9.72,1.81,1.44,2.77,2.08,1.49.99,3,1.94,4.54,2.84.8.47,1.68.81,2.51,1.24.4.21.73.07,1.03-.15.21-.15.41-.35.53-.57.64-1.19,1.28-2.38,1.85-3.6.53-1.14.98-2.33,1.45-3.5,1.03-2.57,2.04-5.14,3.07-7.71.32-.79.74-1.13,1.59-1.08.17,0,.35.03.52.05.65.08,1.29.19,1.94.24,2.12.14,4.17-.21,6.12-1.06,1.43-.62,2.67-1.55,4-2.34.28-.17.32-.36.08-.58-.22-.2-.5-.38-.78-.45-.89-.2-1.79-.41-2.69-.5-1.61-.15-3.18.16-4.71.6-1.18.34-2.31.88-3.47,1.32-.14.06-.31.05-.56.09.07-.27.08-.44.15-.59.28-.61.57-1.23.88-1.83.59-1.14,1.17-2.29,1.81-3.4.44-.76.86-.84,1.72-.64.95.23,1.91.48,2.9.44.5-.02,1.01-.03,1.51-.02,1.18.02,2.32-.26,3.4-.62,1.57-.53,3.01-1.36,4.31-2.42.16-.13.29-.3.49-.5-.21-.14-.36-.28-.53-.34-1.15-.44-2.36-.6-3.56-.76-1.27-.17-2.54.04-3.77.3-1.21.25-2.37.7-3.56,1.05-.15.04-.31,0-.47,0,.01-.16-.02-.36.05-.48.87-1.43,1.75-2.86,2.65-4.28.49-.78,1.25-.97,2.12-.81,1.61.28,3.2.28,4.81-.02,1.5-.28,2.85-.88,4.19-1.57,1.1-.57,1.95-1.45,2.88-2.24.13-.12.2-.31.32-.5-.69-.32-1.35-.38-2.01-.51-1.11-.23-2.23-.22-3.33-.07-1.48.2-2.94.59-4.33,1.19-.32.14-.68.21-1.12.34.07-.28.08-.43.15-.55.95-1.54,2.19-2.74,3.89-3.45,2.15-.89,3.94-2.31,5.44-4.08,1.06-1.25,1.87-2.67,2.52-4.18.38-.88.66-1.8.87-2.73.05-.24,0-.5,0-.76-.26,0-.45-.05-.6,0-.91.37-1.85.68-2.69,1.16-1.83,1.04-3.44,2.38-4.78,4.01-1.09,1.32-1.96,2.78-2.58,4.36-.48,1.23-.9,2.49-1.64,3.61-.26.4-.53.8-.81,1.19-.12.17-.27.38-.54.27-.27-.11-.19-.36-.19-.57,0-.13.04-.26.06-.39.12-.88.3-1.77.34-2.65.08-1.92-.2-3.79-.96-5.56-.18-.41-.39-.8-.61-1.24-.47.31-.75.68-.94,1.09-.44.92-.89,1.85-1.21,2.81-.38,1.16-.62,2.36-.62,3.59,0,.92.05,1.82.21,2.73.2,1.21.53,2.37.99,3.5.15.36.12.66-.1.98-.91,1.36-1.79,2.73-2.7,4.09-.1.15-.26.27-.39.41-.34-.38-.35-.38-.37-.84-.05-1.58-.37-3.11-.83-4.62-.54-1.76-1.42-3.32-2.64-4.69-.12-.14-.27-.25-.44-.4-.12.15-.23.24-.27.35-.44,1.38-.68,2.8-.75,4.23-.06,1.03.06,2.1.26,3.12.33,1.65.95,3.21,1.86,4.64.28.44.5.92.77,1.36.22.36.21.67.01,1.04-.8,1.5-1.57,3-2.37,4.5-.11.2-.28.37-.42.56Z"/><path class="cls-2" d="m54.94,84.89c.14-.19.31-.36.42-.56.79-1.5,1.57-3.01,2.37-4.5.2-.37.21-.69-.01-1.04-.27-.44-.49-.92-.77-1.36-.91-1.44-1.53-2.99-1.86-4.64-.2-1.02-.32-2.09-.26-3.12.08-1.43.31-2.86.75-4.23.04-.11.15-.2.27-.35.16.15.32.26.44.4,1.22,1.38,2.1,2.94,2.64,4.69.46,1.51.78,3.04.83,4.62.01.46.03.46.37.84.13-.14.29-.26.39-.41.9-1.36,1.79-2.73,2.7-4.09.22-.32.24-.63.1-.98-.46-1.13-.79-2.29-.99-3.5-.15-.91-.2-1.82-.21-2.73,0-1.23.23-2.44.62-3.59.32-.96.77-1.89,1.21-2.81.19-.41.47-.78.94-1.09.22.44.44.83.61,1.24.76,1.78,1.04,3.65.96,5.56-.04.89-.22,1.77-.34,2.65-.02.13-.06.26-.06.39,0,.21-.08.46.19.57.26.11.41-.1.54-.27.28-.39.54-.79.81-1.19.74-1.12,1.15-2.37,1.64-3.61.62-1.59,1.5-3.04,2.58-4.36,1.34-1.64,2.95-2.97,4.78-4.01.84-.48,1.78-.79,2.69-1.16.15-.06.34,0,.6,0,0,.26.06.52,0,.76-.21.94-.49,1.85-.87,2.73-.65,1.51-1.46,2.93-2.52,4.18-1.5,1.77-3.29,3.19-5.44,4.08-1.71.71-2.94,1.91-3.89,3.45-.07.12-.08.27-.15.55.45-.13.8-.2,1.12-.34,1.39-.59,2.84-.99,4.33-1.19,1.09-.15,2.22-.16,3.33.07.66.14,1.32.19,2.01.51-.12.19-.18.39-.32.5-.92.79-1.78,1.67-2.88,2.24-1.34.69-2.69,1.29-4.19,1.57-1.61.3-3.21.3-4.81.02-.86-.15-1.62.03-2.12.81-.9,1.42-1.78,2.84-2.65,4.28-.08.13-.04.32-.05.48.16,0,.33.03.47,0,1.19-.35,2.35-.8,3.56-1.05,1.23-.26,2.5-.47,3.77-.3,1.2.16,2.42.33,3.56.76.17.07.31.2.53.34-.2.2-.33.37-.49.5-1.3,1.06-2.74,1.89-4.31,2.42-1.08.37-2.22.65-3.4.62-.5-.01-1.01,0-1.51.02-1,.04-1.95-.21-2.9-.44-.85-.21-1.28-.12-1.72.64-.64,1.11-1.22,2.26-1.81,3.4-.31.6-.59,1.21-.88,1.83-.07.15-.09.32-.15.59.25-.04.41-.03.56-.09,1.16-.44,2.28-.99,3.47-1.32,1.53-.44,3.11-.75,4.71-.6.91.09,1.8.3,2.69.5.28.06.56.25.78.45.24.21.21.41-.08.58-1.33.79-2.57,1.72-4,2.34-1.96.85-4,1.19-6.12,1.06-.65-.04-1.3-.16-1.94-.24-.17-.02-.35-.04-.52-.05-.85-.04-1.27.29-1.59,1.08-1.03,2.57-2.04,5.14-3.07,7.71-.47,1.17-.92,2.35-1.45,3.5-.57,1.22-1.22,2.41-1.85,3.6-.12.22-.32.42-.53.57-.3.22-.63.35-1.03.15-.83-.43-1.71-.76-2.51-1.24-1.54-.91-3.05-1.85-4.54-2.84-.96-.64-1.87-1.36-2.77-2.08-1.76-1.41-3.38-2.96-4.88-4.63-1.67-1.85-3.19-3.81-4.49-5.93-.72-1.17-1.4-2.36-1.98-3.6-.68-1.43-1.3-2.89-1.84-4.38-.52-1.42-.95-2.88-1.34-4.35-.33-1.24-.49-2.51-.81-3.75-.47-1.83-.51-3.71-.66-5.58-.13-1.61-.17-3.23.08-4.84.05-.3.04-.61.07-.92.11-1.15.14-2.31.35-3.44.37-2.03.83-4.04,1.45-6.02.95-3.05,2.19-5.96,3.77-8.72,1.31-2.28,2.78-4.46,4.5-6.48,1.42-1.67,2.95-3.21,4.56-4.68,1.86-1.69,3.92-3.12,6.03-4.47,2.3-1.47,4.77-2.62,7.29-3.63,1.73-.69,3.52-1.27,5.35-1.68,1-.22,1.98-.5,2.98-.7.77-.15,1.55-.2,2.32-.34,1.38-.24,2.78-.29,4.17-.33,1.24-.03,2.49,0,3.73,0,.26,0,.52.03.79.05,1.22.11,2.45.13,3.64.35,1.47.28,2.95.54,4.4.91,1.82.46,3.57,1.11,5.34,1.69.31.1.58.31.88.43,2.42,1,4.72,2.23,6.91,3.67,1.79,1.18,3.47,2.48,5.09,3.88,1.62,1.41,3.11,2.94,4.48,4.58,1.14,1.37,2.2,2.82,3.21,4.29,2.02,2.94,3.57,6.14,4.75,9.51.61,1.74,1.08,3.54,1.57,5.32.18.65.24,1.33.35,1.99.15.93.28,1.85.42,2.78.02.13.05.26.06.39.3,2.99.27,5.99-.02,8.97-.13,1.38-.28,2.77-.65,4.13-.32,1.17-.54,2.38-.85,3.55-.41,1.58-.96,3.12-1.6,4.62-.76,1.79-1.56,3.54-2.54,5.22-1.07,1.85-2.25,3.63-3.57,5.31-2.25,2.89-4.82,5.44-7.72,7.69-1.97,1.53-4.05,2.9-6.23,4.07-1.7.91-3.52,1.61-5.3,2.38-.42.18-.88.24-1.3.41-.86.35-1.5-.08-2.04-.63-.8-.82-.84-1.82-.49-2.86.74-2.18,1.48-4.36,2.23-6.54.47-1.38.98-2.74,1.44-4.12.41-1.24.74-2.5,1.17-3.73.38-1.09.81-2.19,1.95-2.74.41-.19.85-.3,1.29-.44.89-.28,1.82-.19,2.73-.28,1.28-.12,2.55-.3,3.83-.45.87-.1,1.74-.18,2.6-.31.51-.08,1.04-.18,1.51-.38.94-.4,1.46-1.18,1.53-2.19.06-.87.02-1.75.02-2.62,0-.19-.04-.4-.11-.58-.28-.73-.08-1.37.35-1.96.2-.28.42-.55.63-.84.53-.74.52-.88.03-1.71-.51-.88-.55-1.25.04-2.07.5-.7.52-1.41.13-2.15-.09-.17-.19-.34-.3-.51-.44-.66-.39-1.45.45-2.03.71-.5,1.4-1.04,2.05-1.61.28-.25.48-.6.68-.93.31-.49.11-.94-.24-1.3-.41-.42-.88-.78-1.33-1.16-1.7-1.39-3.42-2.77-5.12-4.17-.63-.52-1.08-1.17-1.31-1.98-.18-.61-.14-1.2-.03-1.81.14-.7.35-1.42.32-2.13-.05-.99-.16-1.99-.55-2.94-.46-1.14-1.09-2.18-1.69-3.24-1.01-1.78-1.86-3.64-2.68-5.51-.81-1.84-1.91-3.48-3.64-4.6-1.17-.76-2.45-1.21-3.82-1.47-1.03-.2-2.04-.45-3.06-.66-.66-.14-1.33-.24-1.99-.36-1.37-.24-2.74-.5-4.11-.73-.69-.12-1.38-.2-2.07-.3-.65-.09-1.29-.18-1.94-.26-.91-.11-1.83-.15-2.72-.34-1.11-.24-2.21-.19-3.33-.22-1.19-.03-2.33.24-3.49.45-1.33.24-2.55.73-3.77,1.25-1.55.66-2.98,1.56-4.29,2.61-1.57,1.26-3.23,2.37-5.03,3.29-1.24.63-2.23,1.53-2.85,2.79-.68,1.38-1.73,2.39-3,3.2-1.3.83-2.58,1.71-3.71,2.77-.66.62-1.26,1.33-1.8,2.06-.58.77-1.3,1.33-2.11,1.82-.92.55-1.78,1.18-2.44,2.05-.86,1.13-1.1,2.4-.81,3.77.27,1.28.78,2.51.73,3.84-.03.96-.15,1.91-.23,2.86-.06.7-.18,1.39-.17,2.09.01.98,0,1.95.25,2.93.38,1.53,1.35,2.5,2.7,3.16.35.17.72.31,1.06.51.91.55,1.43,1.35,1.59,2.42.25,1.68.98,3.15,2.16,4.39.44.46.86.93,1.27,1.4,1.19,1.38,2.05,2.97,2.81,4.61.55,1.18,1.31,2.23,2.41,2.95.63.41,1.35.69,2.04,1,1.68.76,3.37,1.51,5.07,2.25.44.19.89.36,1.35.49.41.11.58.02.77-.4.51-1.08,1.03-2.16,1.47-3.27.31-.78.11-1.54-.39-2.22-.82-1.11-1.47-2.32-2-3.59-.34-.82-.56-1.68-.75-2.56-.32-1.41-.25-2.83-.16-4.24.04-.77.3-1.53.52-2.27.16-.53.46-.57.84-.13,1.22,1.39,2.18,2.93,2.76,4.7.4,1.22.72,2.46.83,3.75.05.62.2,1.24.31,1.86.05.02.09.03.14.05Z"/></g></svg>