<?xml version="1.0" encoding="UTF-8"?><svg id="Layer_1" xmlns="http://www.w3.org/2000/svg" viewBox="0 0 128 128"><defs><style>.cls-1{fill:#221f20;}.cls-1,.cls-2,.cls-3,.cls-4,.cls-5,.cls-6{stroke-width:0px;}.cls-2{fill:#d8e7f5;}.cls-3{fill:#d83831;}.cls-4{fill:#b2dcf4;}.cls-5{fill:#fff;}.cls-6{fill:#edbbd3;}</style></defs><circle class="cls-3" cx="64" cy="64" r="63.5"/><g id="MEW"><circle class="cls-3" cx="64" cy="64.3" r="50.04"/><path class="cls-5" d="m104.88,64.57l.14.11s-2.99-33.15-14.04-49.66c-1.06-1.58-3.32-1.81-4.66-.46-3.16,3.18-8.34,11.69-13.51,25.9-2.77-.46-5.64-.7-8.58-.7s-5.81.24-8.58.7c-5.16-14.21-10.34-22.72-13.5-25.9-1.34-1.35-3.6-1.12-4.66.46-11.05,16.52-14.04,49.66-14.04,49.66l.14-.11c-.97,2.84-1.5,5.83-1.5,8.91,0,12.85,8.97,24.02,22.17,29.71,5.94,2.56,12.74,4.02,19.96,4.02s14.01-1.45,19.94-4.01c13.21-5.69,22.19-16.87,22.19-29.72,0-3.09-.53-6.07-1.5-8.91h0Z"/><path class="cls-1" d="m10.35,91.3c-.39,0-.78-.19-1.01-.54-.38-.56-.24-1.32.32-1.71,11.45-7.82,19.39-5.68,19.72-5.59.65.19,1.03.87.84,1.52-.19.65-.86,1.03-1.51.84-.09-.02-7.26-1.86-17.67,5.25-.21.14-.45.21-.69.21h0Z"/><path class="cls-1" d="m16.86,100.79c-.23,0-.46-.06-.67-.2-.57-.37-.73-1.13-.37-1.7,5.64-8.75,15.05-10.5,15.45-10.57.67-.12,1.3.33,1.42,1,.12.67-.33,1.3-.99,1.42-.12.02-8.78,1.67-13.81,9.48-.24.36-.63.56-1.03.56h0Z"/><path class="cls-1" d="m117.65,91.3c-.24,0-.48-.07-.69-.21-10.42-7.12-17.6-5.27-17.67-5.25-.65.18-1.33-.2-1.51-.85-.18-.65.19-1.32.84-1.51.33-.09,8.27-2.24,19.72,5.59.56.38.7,1.15.32,1.71-.24.35-.62.54-1.01.54h0Z"/><path class="cls-1" d="m111.14,100.79c-.4,0-.8-.2-1.03-.56-5.07-7.86-13.73-9.47-13.81-9.48-.67-.12-1.11-.76-1-1.42.12-.67.76-1.11,1.42-1,.4.07,9.8,1.82,15.45,10.57.37.57.2,1.33-.37,1.7-.21.13-.44.2-.67.2h0Z"/><path class="cls-4" d="m53.73,70.12c-.13,6.33-5.28,11.42-11.64,11.42s-11.65-5.22-11.65-11.65c0-1.85.44-3.6,1.22-5.16l22.07,5.39h0Z"/><path class="cls-1" d="m49.94,69.2c.03.25.08.77.08,1.03,0,4.19-3.4,7.59-7.59,7.59s-7.59-3.4-7.59-7.59c0-1.54.65-3.16,1.44-4.36l13.66,3.33Z"/><path class="cls-4" d="m73.45,70.12c.13,6.33,5.28,11.42,11.64,11.42s11.65-5.22,11.65-11.65c0-1.85-.44-3.6-1.22-5.16l-22.07,5.39h0Z"/><path class="cls-1" d="m77.32,69.09c-.03.25-.15.88-.15,1.14,0,4.19,3.4,7.59,7.59,7.59s7.59-3.4,7.59-7.59c0-1.54-.58-3.16-1.36-4.36l-13.66,3.22h0Z"/><path class="cls-1" d="m66.71,92.22c-1.17,0-2.42-.35-3.63-1.3-3.27,2.55-6.82.79-8.33-.61-.5-.46-.53-1.24-.07-1.73.46-.5,1.24-.53,1.73-.07.3.27,3.06,2.63,5.66.03.23-.23.54-.36.87-.36h.28c.33,0,.64.13.87.36,2.6,2.6,5.35.24,5.66-.04.5-.45,1.27-.42,1.73.08.46.5.43,1.27-.07,1.73-.95.88-2.71,1.91-4.71,1.91h0Z"/><ellipse class="cls-6" cx="62.99" cy="86.13" rx="3.58" ry="1.71"/><path class="cls-6" d="m29.89,53.4s1.94-21.48,9.1-32.19c.69-1.03,2.15-1.17,3.02-.3,2.06,2.07,5.89,10.94,9.24,20.2,0,0-3.89.88-21.36,12.29h0Z"/><path class="cls-6" d="m99,53.4s-1.94-21.48-9.1-32.19c-.69-1.03-2.15-1.17-3.02-.3-2.06,2.07-6.09,10.94-9.45,20.2,0,0,6.1.88,21.56,12.29h0Z"/><path class="cls-2" d="m76.53,49.69c3.98-14.88-18.26-12.37-17.77-27.22.05,6.31-1.12,13.02,3.17,18.12-6.96.82-9.1-8.5-11-12.85-.59,8.12-2.1,20.73,7.08,24.21"/><path class="cls-5" d="m78.34,49.69c4.52-18.51-19.92-14.36-19.42-29.21.05,6.31-.82,12.3,3.47,17.41-6.96.82-9.6-7.73-11.49-12.09-.59,8.12,3.96,22.99,16.61,26.15"/></g></svg>