<?xml version="1.0" encoding="UTF-8"?><svg xmlns="http://www.w3.org/2000/svg" xmlns:xlink="http://www.w3.org/1999/xlink" viewBox="0 0 512 512"><defs><linearGradient id="Degradado_sin_nombre_24" x1="256" y1="506.179" x2="256" y2="-5.821" gradientUnits="userSpaceOnUse"><stop offset="0" stop-color="#00cebf"/><stop offset="1" stop-color="#764dff"/></linearGradient></defs><g id="BG_WHITE"><circle cx="257.43213" cy="256.12469" r="220.27922" fill="#fff"/></g><g id="CIRCLE_OUTLINE_BLACK"><path d="m256,0C114.61523,0,0,114.61511,0,256s114.61523,256,256,256,256-114.61511,256-256S397.38477,0,256,0Zm-95.73926,292.19c0,15.23737-12.35205,27.58966-27.58936,27.58966s-27.58984-12.35229-27.58984-27.58966v-36.06531h-40.37109v-15.16345c0-11.14819,9.03711-20.18561,20.18555-20.18561s20.18555,9.03741,20.18555,20.18561v15.16345h55.1792v36.06531Zm268.20752,6.6181c-11.14844,0-20.18555-9.03741-20.18555-20.18561v-22.4978h-39.99756l.29541,75.35791c0,11.14819-9.0376,20.18561-20.18555,20.18561s-20.18555-9.03741-20.18555-20.18561v-75.35791h-63.77734v95.54352c0,17.61157-14.27686,31.88855-31.88867,31.88855s-31.88867-14.27698-31.88867-31.88855v-95.54352h-40.37109v-61.01294c0-11.14825,9.0376-20.18567,20.18555-20.18567s20.18555,9.03741,20.18555,20.18567v61.01294h63.77734v-89.47937c0-17.61151,14.27686-31.88855,31.88867-31.88855s31.88867,14.27704,31.88867,31.88855v89.47937h40.07568v-61.01294c0-11.14825,9.0376-20.18567,20.18555-20.18567s20.18555,9.03741,20.18555,20.18567v61.01294h39.82324l.17432,22.4978c0,11.14819-9.0376,20.18561-20.18555,20.18561Z" fill="url(#Degradado_sin_nombre_24)"/></g></svg>