<?xml version="1.0" encoding="UTF-8"?>
<svg id="Layer_1" xmlns="http://www.w3.org/2000/svg" version="1.1" viewBox="0 0 500 500">
  <!-- Generator: Adobe Illustrator 29.0.1, SVG Export Plug-In . SVG Version: 2.1.0 Build 192)  -->
  <defs>
    <style>
      .st0 {
        fill: #fefefe;
      }

      .st1 {
        fill: #c05e96;
      }
    </style>
  </defs>
  <path class="st1" d="M264.5,1.9c122.4,1.9,231.6,112,233.4,234.2-.4,9.2.5,18.7,0,27.9-1.5,115.2-92.1,209.8-203,230.4-21.3,3.9-44.7,4.2-66.3,3.1C111.3,491.6,8.1,388,2.5,270.7c-1-21.7-.8-45,3.2-66.3C26.4,93.4,121.3,3.3,236.6,1.9h27.9Z"/>
  <path class="st0" d="M246.5,174.2c2.4,4.1,3.7,2.4,5.5-1.4l1.1-1.3c7.7-13.6,15.6-27.4,23.5-40.6,4.3-7.2,7.9-16.2,17.4-17.9,16.6-2.8,22.1,14.8,28.6,25.8,32,54.2,63.2,108.9,94.4,163.6,5.5,9.6,13.4,19.4,15.7,30.2.1.7,1.1,1.3,1.2,2.2.1,1.3-1.1,2.1-1.3,3.3s.2,2.6-.4,4.3c-.5,1.5-4.8,6.6-6.3,7.7-4.4,3.3-9.3,4.4-14.8,3.4-8.4-1.5-12.7-9.8-16.7-16.5-32.4-54-61.7-109.8-94.4-163.6-.8-1.3-1.6-3-1.7-4.6l-2.2,1.4c-7,12.8-14.6,25.1-21.7,37.8-3.7,6.5-7.4,12.9-11.3,19.3-22,39.7-45.8,78.4-67.8,118.1-6.1,7.9-16.5,11.5-25.3,5.4s-6.7-6.5-6.9-7c-6.1-12.4,4.2-22.6,9.9-32.6,12.9-22.8,26.2-45.9,39.2-68.6,5-8.8,10.2-17.3,15-26.3l-.3-1.5c-3.3-4.9-5.8-10.2-8.7-15.3-4.6-8.1-9.7-17.4-14.6-25.3-.6-1-4-6.2-4.9-5.4s-2.1,5.5-2.8,6.8c-32.7,57.2-66.5,113.5-98.9,171.1-17.2,17.5-41.3-.6-29.5-22.9,9.9-18.6,21.6-36.4,32.2-54.9,26.6-46.3,52.4-93,79.8-138.4,4.5-7.4,7.8-15.9,17.6-17.6,3.8-.7,10.2.9,13.5,3,5.6,3.7,13.9,21.4,17.8,28.1,4.4,7.5,12.8,24.4,18.2,30Z"/>
  <path class="st0" d="M291.6,244.9c11.8-2.1,23,1.6,27.7,13.2,3.7,9.1,1.2,21-6.6,27.2-20.3,16.3-48.2-7.8-35.2-29.9s9.3-9.7,14.1-10.5Z"/>
</svg>