<?xml version="1.0" encoding="UTF-8"?><svg id="Layer_1" xmlns="http://www.w3.org/2000/svg" viewBox="0 0 128 128"><defs><style>.cls-1,.cls-2{stroke-width:0px;}.cls-2{fill:#ecad00;}</style></defs><circle class="cls-2" cx="64" cy="64" r="63.5"/><path id="MOVE" class="cls-1" d="m97.33,63.12c-.77,0-1.54-.12-2.26-.35l-.1-.03c-.08-.02-.17-.05-.26-.08-.22-.07-.45-.18-.71-.33l-.09-.05c-.97-.51-1.82-1.24-2.49-2.11-2.01-2.67-2-6.4.02-9.06.83-1.08,1.92-1.92,3.17-2.42l.12-.05c.38-.16.65-.25.87-.28l.24-.04c.48-.1.98-.15,1.48-.15,3.02,0,5.54-.94,7.3-2.72,1.62-1.65,2.46-3.92,2.44-6.56v-9.39h-18.45v6.19c0,1.2,0,2.41,0,3.61,0,2.44-1.37,5.76-3.87,6.61-1.6.54-3.58-.27-5.28-.07-1.4.16-2.75.64-3.94,1.4-2.39,1.52-4,4.11-4.3,6.94-.12,1.09-.05,1.91,0,2.5.05.66.07.86-.16,1.52-.46,1.29-1.42,2.49-2.72,3.37-1.3.89-2.79,1.37-4.21,1.37h-.14s-.14,0-.14,0c-1.41,0-2.91-.49-4.21-1.37-1.3-.88-2.27-2.08-2.71-3.37-.23-.66-.21-.86-.16-1.52.04-.59.11-1.41,0-2.5-.31-2.83-1.92-5.42-4.3-6.94-1.19-.76-2.54-1.24-3.93-1.4-1.7-.2-3.68.61-5.28.07-2.51-.85-3.88-4.17-3.87-6.61v-9.8h-18.46v9.39c-.02,2.64.83,4.91,2.44,6.56,1.76,1.78,4.28,2.72,7.3,2.72.5,0,1,.05,1.49.15l.23.04c.22.03.49.12.87.28l.12.05c1.25.5,2.35,1.33,3.17,2.42,2.02,2.66,2.03,6.39.02,9.06-.67.88-1.52,1.61-2.49,2.11l-.09.05c-.26.15-.49.25-.71.33-.1.03-.18.06-.26.08l-.1.03c-.72.24-1.48.35-2.26.35-5.85,0-9.78,3.63-9.78,9.03,0,4.22,1.9,6.4,3.5,7.5,1.95,1.33,4.3,1.71,6.56,1.92l.15.02c.6.08,1.11.2,1.69.41l.27.11.05.02c1.51.52,2.78,1.59,3.58,3.01.45.8.76,1.85.87,2.95.04.43.08.85.11,1.27.03.32.05.67.08,1.02v8.13h18.33v-9.58c0-2.46-.93-4.85-2.65-6.59-.06-.06-.12-.12-.19-.18-.13-.13-.26-.24-.36-.33l-.06-.05c-1.99-1.74-4.57-1.78-6.46-1.82h-.02c-.32,0-.62-.01-.88-.02l-.28-.04-.61-.14-.57-.18-.62-.25c-.64-.3-1.25-.68-1.77-1.14l-.12-.1c-1.7-1.54-2.56-3.44-2.59-5.8,0-1.69.54-3.29,1.56-4.63.98-1.31,2.37-2.28,3.92-2.74,1.56-.46,4.48-.48,5.89-.02,2.56.83,4.38,3.2,4.52,5.91,0,.22,0,.46,0,.73-.03.79-.07,1.88.39,3.26,1.28,3.83,4.84,6.41,8.86,6.42,4.01-.02,7.56-2.6,8.86-6.42.45-1.37.41-2.46.39-3.26-.02-.27-.03-.51,0-.73.14-2.71,1.96-5.08,4.52-5.91,1.41-.45,4.33-.44,5.89.02,1.55.46,2.93,1.43,3.92,2.74,1.01,1.34,1.55,2.94,1.55,4.63-.04,2.36-.88,4.26-2.58,5.8l-.12.1c-.54.46-1.13.84-1.78,1.14l-.62.25-.57.18-.61.14-.28.04c-.26.01-.56.02-.88.02h-.02c-1.89.03-4.47.08-6.46,1.82l-.06.05c-.11.09-.23.2-.37.33-.06.06-.12.12-.18.18-1.73,1.74-2.65,4.13-2.65,6.59v9.58h18.32v-8.13c.04-.35.06-.71.09-1.02.03-.41.05-.83.1-1.27.12-1.1.43-2.15.88-2.95.79-1.42,2.06-2.48,3.58-3.01l.04-.02.28-.11c.58-.21,1.08-.33,1.68-.41l.16-.02c2.25-.21,4.6-.59,6.55-1.92,1.6-1.09,3.51-3.28,3.51-7.5,0-5.4-3.93-9.03-9.78-9.03h0Z"/></svg>