<?xml version="1.0" encoding="UTF-8"?><svg id="Layer_1" xmlns="http://www.w3.org/2000/svg" xmlns:xlink="http://www.w3.org/1999/xlink" viewBox="0 0 128 128"><defs><style>.cls-1{fill:url(#linear-gradient);}.cls-2{fill:#f2f2f2;}.cls-3{fill:url(#linear-gradient-3);}.cls-4{fill:url(#linear-gradient-4);}.cls-5{fill:url(#linear-gradient-2);}</style><linearGradient id="linear-gradient" x1="-2986.88" y1="528.27" x2="-2964.83" y2="525.98" gradientTransform="translate(16401.5 -2832.88) scale(5.48)" gradientUnits="userSpaceOnUse"><stop offset="0" stop-color="#430fd6"/><stop offset=".04" stop-color="#6b17b7"/><stop offset=".09" stop-color="#96229b"/><stop offset=".13" stop-color="#bb2d85"/><stop offset=".18" stop-color="#da3675"/><stop offset=".23" stop-color="#f13e6a"/><stop offset=".28" stop-color="#ff4163"/><stop offset=".33" stop-color="#ff4362"/><stop offset="1" stop-color="#fc3"/></linearGradient><linearGradient id="linear-gradient-2" x1="-2986.73" y1="529.74" x2="-2964.68" y2="527.45" xlink:href="#linear-gradient"/><linearGradient id="linear-gradient-3" x1="-2986.83" y1="528.76" x2="-2964.78" y2="526.47" xlink:href="#linear-gradient"/><linearGradient id="linear-gradient-4" x1="-2986.78" y1="529.24" x2="-2964.73" y2="526.95" xlink:href="#linear-gradient"/></defs><circle class="cls-2" cx="64" cy="64" r="63.5"/><path class="cls-1" d="m24.58,29.8c-3.15,0-5.69,2.55-5.69,5.69v57.02c0,3.14,2.54,5.69,5.69,5.69s5.69-2.55,5.69-5.69v-57.02c-.02-3.14-2.55-5.69-5.69-5.69Z"/><path class="cls-5" d="m103.42,29.8c-3.14,0-5.69,2.55-5.69,5.69v57.02c0,3.14,2.55,5.69,5.69,5.69s5.69-2.55,5.69-5.69v-57.02c0-3.14-2.55-5.69-5.69-5.69Z"/><path class="cls-3" d="m50.85,41.66c-3.14,0-5.69,2.54-5.69,5.69v33.31c0,3.14,2.55,5.69,5.69,5.69s5.69-2.55,5.69-5.69v-33.31c0-3.14-2.55-5.69-5.69-5.69Z"/><path class="cls-4" d="m77.15,51.23c-3.14,0-5.69,2.55-5.69,5.69v14.06c0,3.14,2.55,5.69,5.69,5.69s5.69-2.55,5.69-5.69v-14.06c-.02-3.15-2.55-5.69-5.69-5.69Z"/></svg>