<?xml version="1.0" encoding="UTF-8"?>
<svg id="Layer_1" xmlns="http://www.w3.org/2000/svg" version="1.1" xmlns:xlink="http://www.w3.org/1999/xlink" viewBox="0 0 500 500">
  <!-- Generator: Adobe Illustrator 29.0.1, SVG Export Plug-In . SVG Version: 2.1.0 Build 192)  -->
  <defs>
    <style>
      .st0 {
        fill: #e9edf0;
      }

      .st1 {
        fill: url(#linear-gradient1);
      }

      .st2 {
        fill: #2b2a2a;
      }

      .st3 {
        fill: #474747;
      }

      .st4 {
        fill: #1d1d1b;
      }

      .st5 {
        fill: #3c3c3b;
      }

      .st6 {
        fill: url(#linear-gradient);
      }

      .st7 {
        fill: #e6e7e8;
      }
    </style>
    <linearGradient id="linear-gradient" x1="51.6" y1="113.1" x2="448.4" y2="390.9" gradientTransform="translate(0 502) scale(1 -1)" gradientUnits="userSpaceOnUse">
      <stop offset="0" stop-color="#5738bd"/>
      <stop offset="1" stop-color="#00db9d"/>
    </linearGradient>
    <linearGradient id="linear-gradient1" x1="492" y1="127" x2="492" y2="453" gradientTransform="translate(-242 540) scale(1 -1)" gradientUnits="userSpaceOnUse">
      <stop offset="0" stop-color="#5e38ca"/>
      <stop offset="1" stop-color="#30e9a1"/>
    </linearGradient>
  </defs>
  <circle class="st0" cx="250" cy="250" r="250"/>
  <circle class="st6" cx="250" cy="250" r="242.1"/>
  <path d="M250,15.7c129.2,0,234.3,105.1,234.3,234.3s-105.1,234.3-234.3,234.3S15.7,379.2,15.7,250,120.8,15.7,250,15.7M250,0C111.9,0,0,111.9,0,250s111.9,250,250,250,250-111.9,250-250S388.1,0,250,0h0Z"/>
  <g>
    <path class="st1" d="M446.7,282.2c-3.1-7.7-6-15.3-9.1-23,2.8.2,5.2.5,7.8.7-9.4-16.8-18.6-33.5-27.8-50.1.2-.1.3-.2.5-.3,2.9,3.2,5.8,6.3,8.7,9.5,0-.6-.2-1-.5-1.5-8.4-12.4-16.8-24.8-25.2-37.3-1.2-1.8-2.5-3.5-3.5-5.5-3.7-7.8-7.2-15.7-10.8-23.5-1.5-3.3-3-6.6-4.5-9.9h-.3c.3,1.7.5,3.4.8,5.2-.4,0-.6,0-.8-.1-6.1-1.9-12.3-3.8-18.4-5.7-.5-.2-1-.5-1.3-1-3-3.7-6-7.4-9-11.1-.2-.3-.5-.6-.9-1.2h6.9v-.2c-4.3-1.2-8.7-2.5-13.3-3.8,3-1.3,5.8-2.6,8.9-4-2.5-.8-4.6-1.5-6.8-2.2-3.2-1-3.2-1-3.1-4.3,0-.7.1-1.5.1-2.2,0-1.1.1-2.3.2-3.4h-17.8c.3-2.8.5-5.5.8-8.2-7.4,1.1-14.7,2.1-22,3.2v-14.7c-.4.2-.7.3-1,.4-6.5,2.9-13.1,5.9-19.6,8.8-2.2,1-2.2,1-3.5-.9-1.1-1.6-2.2-3.3-3.3-5-4.5,2.8-8.8,5.7-13.3,8.3-2.3,1.4-4.2,3-5,5.6,0,.2-.2.4-.5.9-1.4-4.2-2.7-8.2-3.9-12.2h-.3c-1.1,3.6-2.1,7.1-3.2,10.9-6.1-5.9-12-11.5-17.9-17.2l-.2.2c2,6.8,4.1,13.6,6.1,20.4-.1,0-.2,0-.3.1-.8-1.7-1.5-3.5-2.4-5.2-.4-.7-.9-1.4-1.5-1.8-2.6-1.7-5.3-3.4-7.9-5-2.5-1.6-5.1-3.2-7.7-4.8-1.3,2-2.6,3.8-3.8,5.7-.6,1-1.1,1.1-2.2.6-6.7-3.1-13.5-6.1-20.3-9.1-.4-.2-.8-.3-1.2-.5v14.7c-7.3-1.1-14.6-2.1-22-3.2.3,2.8.5,5.5.8,8.2h-17.8c.1,2.4.1,4.8.4,7.1.2,1.5-.4,1.9-1.6,2.3-2.7.8-5.3,1.7-8.3,2.7,3.1,1.4,5.9,2.6,8.9,4-4.7,1.3-9,2.6-13.4,3.8v.2h6.9c-.2.3-.3.5-.4.7-3.2,4-6.4,7.9-9.6,11.8-.3.4-.8.6-1.3.8-5.9,1.8-11.8,3.7-17.6,5.5-.4.1-.8.2-1.3.3.3-1.8.5-3.5.8-5.1-.4.2-.5.4-.6.7-4.3,9.3-8.5,18.7-12.8,28-1,2.2-1.9,4.5-3.2,6.5-8.7,12.9-17.4,25.8-26.1,38.7-.8,1.1-1.5,2.2-2.3,3.3.1,0,.2.2.3.3,2.9-3.2,5.8-6.3,8.8-9.5.2.1.3.2.5.3-9.3,16.7-18.5,33.3-27.8,50.1,2.6-.2,5.1-.4,7.8-.7-3.1,7.8-6.1,15.3-9.1,23,3.3-.3,6.3-.6,9.6-.8-1.2,5.3-2.3,10.4-3.4,15.6,3.6.4,7.1.7,10.5,1.1.7,0,1.1.2,1.2,1,.4,2.7.9,5.5,1.3,8.2.1,1,.6,1.6,1.4,2.1,13.5,8.3,27,16.6,40.5,24.8.7.4,1.5.8,2.4,1.1,12,3.6,24.1,7.2,36.1,10.7.8.2,1.2.6,1.4,1.4,1.8,5.6,3.6,11.1,5.4,16.7.8,2.4,1.6,4.8,2.4,7.3,1-.4,1.9-.8,2.8-1.2.3.4.5.7.7,1,4.5,7.5,9,14.9,13.5,22.4.4.6.8,1.2,1.3,1.6,4.3,3.5,8.6,7,12.9,10.5.4.3.9.7,1.4,1.1.3-5.5.7-10.7,1-16.1,1.5.8,2.8,1.5,4.2,2.2,1.7-2.8,3.2-5.4,5-8.3,2.6,5.9,5.1,11.5,7.8,17.4.8-2.4,1.5-4.5,2.2-6.6,4.5,2.4,8.8,4.6,13.4,7v-5.3c.5.4.8.6,1.1.9,4.3,3.6,8.4,7.3,12.8,10.8,1.2.9,1.8,1.8,2.1,3.2,0,0,.1,0,.3.2,1.3-2.1,2.7-4.1,4.2-6.5,1.7,4.2,4.7,6.4,8.8,7.2,0,0,.2-.2.2-.4.5-4.4,3-7.4,6.5-9.8.1,0,.3-.2.4-.3,2.1-1.8,4.2-3.6,6.6-5.6v5.4c4.6-2.4,8.9-4.7,13.3-7,.7,2.2,1.4,4.2,2.2,6.6,2.7-5.9,5.2-11.6,7.8-17.4,1.7,2.9,3.3,5.6,5,8.3,1.4-.7,2.7-1.4,4.2-2.2.3,5.5.7,10.7,1,16.2.7-.6,1.2-1,1.7-1.4,4.1-3.3,8.2-6.6,12.3-10,.7-.5,1.2-1.2,1.7-1.9,4.5-7.4,8.9-14.8,13.4-22.1.2-.4.5-.8.8-1.1,1,.4,1.8.8,2.7,1.2.2-.5.4-1,.6-1.5,2.4-7.5,4.9-15,7.3-22.5.3-.8.6-1.2,1.4-1.4,11.1-3.3,22.3-6.6,33.4-9.9,1.6-.5,3.3-.8,4.8-1.7,13.7-8.3,27.4-16.8,41-25.2.5-.3,1-1.1,1.1-1.7.5-2.7,1-5.5,1.3-8.2.1-.8.4-1.2,1.3-1.3,1.7,0,3.4-.3,5-.5,1.8-.2,3.6-.4,5.5-.6-1.1-5.2-2.2-10.3-3.4-15.6,3.3.3,6.4.6,9.6.8h0ZM417.6,209.1h0s0,0,0,0h-.2,0ZM82.3,209.5h0c0,0,0,0,0,0h0c0,0-.2,0-.2,0h0Z"/>
    <path class="st3" d="M335.6,300.6c-2.5-8.6-14.8-16.4-10.4-14.9,4.3,1.5,8.8,7.6,8.8,7.6,0,0-.2-4.5-1.9-9.5-1-3-2.4-6.1-4.6-8.7-.7-.9-1.7-1.7-2.8-2.5-.4-.3-.9-.6-1.4-.9h0c-7.9-5-21.3-7.9-21.3-7.9,8.6-1.1,19.5,6.5,16,2.2-3.5-4.2-10.2-10.8-20.2-10.9-10.1-.1-7.4,1.4-3.7-1.9,3.7-3.2,5.1-1.9-1.1-4.3-6.2-2.5-5.2-3.7-12.4-4.2-7.2-.5-13.2,6-11.9,1.1,1.2-4.8,2.2-6.3-3.1-2-1.8,1.5-3.2,3.3-4.3,4.7-2,2.8-2.7,4.2-2-.7,1-7.4.9-7.6-3.7-2.9-4.6,4.7-5.6,10.2-5.6,10.2,0,0-1-5.5-5.6-10.2-4.6-4.7-4.7-4.6-3.7,2.9.7,4.9,0,3.5-2,.7-1.1-1.4-2.5-3.2-4.3-4.7-5.3-4.3-4.3-2.9-3.1,2,1.3,4.8-4.7-1.6-11.9-1.1-7.2.5-6.2,1.7-12.4,4.2-6.2,2.5-4.8,1.1-1.1,4.3,3.7,3.2,6.3,1.7-3.7,1.9-10.1.1-16.7,6.7-20.2,10.9-3.5,4.2,7.4-3.4,16-2.2,0,0-13.3,2.9-21.3,7.8h0c-.5.3-1,.6-1.4.9-1.1.8-2,1.6-2.8,2.5-2.2,2.6-3.6,5.8-4.6,8.7-1.6,5.1-1.9,9.5-1.9,9.5,0,0,4.5-6.1,8.8-7.6,4.3-1.5-7.9,6.3-10.4,14.9-2.5,8.6-3.7,23.2-1.4,30.5,2.4,7.3-.5-10.8,9.7-21,9.4-9.4-7.4,11.6-8.8,27-.1,1.3-.1,2.6,0,3.7,0,.1,0,.3,0,.4,1.7,15.1,8.1,20.6,8.1,20.6,0,0-2.4-12.8,4.6-23.7,6.9-10.9-7.9,14.6-1.7,29.3,6.2,14.6,15.9,19.6,16,25.1.2,5.5,1.8-.2,1-7.1-.8-6.9-3.5-16,1.2-27.1,4.6-11.1-.7,1.5,2.5,14.1,3.1,12.6,6.1,11.7,6.1,11.7,0,0-5-13,.4-25.8,0-.2.2-.4.3-.7,5.8-13.1,2.6-7.3,4.5-1.5,1.8,5.8-1.2-8.6,10.7-18.2,0,0-1.7,3.1-.2,10.3,1.5,7.1.5-6.9,7.8-11.9,0,0-.4,1.3,0,3.8,0-2.2.7-4.9,3.2-6.8,6-4.5,2.3-1.5,4.1,4.1,0,0,1.7-7.3,5-9.8,3.2-2.6.3,1.2-.4,5.5-.7,4.3,4.1-10.6,13-10.6s13.7,14.9,13,10.6c-.8-4.3-3.6-8.1-.4-5.5,3.2,2.6,5,9.8,5,9.8,1.8-5.6-1.8-8.6,4.1-4.1,2.5,1.9,3.2,4.6,3.2,6.8.3-2.5,0-3.8,0-3.8,7.3,5,6.3,19,7.8,11.9,1.5-7.1-.2-10.3-.2-10.3,11.9,9.6,8.9,24,10.7,18.2,1.8-5.8-1.3-11.6,4.5,1.5,0,.2.2.4.3.7,5.3,12.9.4,25.8.4,25.8,0,0,3,.8,6.1-11.7,3.1-12.6-2.2-25.2,2.5-14.1,4.6,11.1,2,20.2,1.2,27.1-.8,6.9.8,12.6,1,7.1.2-5.5,9.8-10.4,16-25.1,6.2-14.6-8.7-40.2-1.7-29.3,6.9,10.9,4.6,23.7,4.6,23.7,0,0,6.4-5.6,8.1-20.6,0-.1,0-.3,0-.4.1-1.2.1-2.4,0-3.7-1.4-15.4-18.2-36.4-8.8-27s7.3,28.3,9.7,21c2.4-7.3,1.1-22-1.4-30.5h0ZM266.6,299.3c-8.2,3.6-6.8,5-9.6,10.7-2.8,5.7-7,4.5-7,4.5,0,0-4.2,1.2-7-4.5-2.8-5.7-1.4-7-9.6-10.7-8.2-3.6-11.6-7.1-7.8-12.2,3.8-5.1,12.2-10.7,24.4-10.7s20.6,5.5,24.4,10.7c3.8,5.1.4,8.6-7.8,12.2Z"/>
    <path class="st4" d="M266.6,299.3c-8.2,3.6-6.8,5-9.6,10.7-2.8,5.7-7,4.5-7,4.5,0,0-4.2,1.2-7-4.5-2.8-5.7-1.4-7-9.6-10.7-8.2-3.6-11.6-7.1-7.8-12.2,3.8-5.1,12.2-10.7,24.4-10.7s20.6,5.5,24.4,10.7c3.8,5.1.4,8.6-7.8,12.2Z"/>
    <path class="st5" d="M290.3,379.6c-7.7,8.9-11.4,9.7-11.4,9.7,0,0,6.8-7.8,7.3-18.6.5-10.8-3,11.3-12.7,18,0,0-.7-1.9-4.3.6-3.6,2.5-4.2,2.2-4.2,2.2,0,0,5.5-9.8,5.5-16.6s-5.6,10.4-8.6,15.2c-3,4.8-2.6.1-5.3,1.4-2.7,1.2-2.1.4-1.2-5.8.9-6.2-1,5.3-5.3,6.7-4.3-1.4-6.2-12.9-5.3-6.7.9,6.2,1.5,7.1-1.2,5.8-2.7-1.2-2.4,3.5-5.3-1.4-3-4.8-8.6-22-8.6-15.2s5.5,16.6,5.5,16.6c0,0-.6.2-4.2-2.2-3.6-2.5-4.3-.6-4.3-.6-9.7-6.7-13.2-28.8-12.7-18,.5,10.8,7.3,18.6,7.3,18.6,0,0-3.7-.7-11.4-9.7-7.7-8.9-7.6-21.2-7.6-21.2,0-.2.2-.4.3-.7,5.8-13.1,2.6-7.3,4.5-1.5,1.8,5.8-1.2-8.6,10.7-18.2,0,0-1.7,3.1-.2,10.3,1.5,7.1.5-6.9,7.8-11.9,0,0-.4,1.4,0,3.8,0-2.2.7-4.9,3.2-6.8,6-4.5,2.3-1.5,4.1,4.1,0,0,1.7-7.3,5-9.8,3.2-2.6.3,1.2-.4,5.5-.7,4.3,4.1-10.6,13-10.6s13.7,14.9,13,10.6c-.8-4.3-3.6-8.1-.4-5.5,3.2,2.6,5,9.8,5,9.8,1.8-5.6-1.8-8.6,4.1-4.1,2.5,1.9,3.2,4.6,3.2,6.8.3-2.5,0-3.8,0-3.8,7.3,5,6.3,19,7.8,11.9,1.5-7.1-.2-10.3-.2-10.3,11.9,9.6,8.9,24,10.7,18.2,1.8-5.8-1.3-11.6,4.5,1.5,0,.2.2.4.3.7,0,0,.1,12.3-7.6,21.2h0Z"/>
    <path class="st2" d="M234.1,214.4c-6.2-10.1-9.9-12.8-4.2-9.1,5.7,3.7-6.2-9.3-1.2-7.2,5,2,2.7-10.9-11.7-13.9-14.4-3-35.2,4.2-41.7,25.8-6.5,21.6-6.9,34.1-4.5,40.4,0,0,1.6-11.6,6.1-18.7,4.4-6.9-8.7,18.1-1.6,40.8.4-.3.9-.6,1.4-.9h0c7.9-5,21.3-7.9,21.3-7.9-8.6-1.1-19.5,6.5-16,2.2,3.5-4.2,10.2-10.8,20.2-10.9,10.1-.1,7.4,1.4,3.7-1.9s-5.1-1.9,1.1-4.3c6.2-2.5,5.2-3.7,12.4-4.2,7.2-.5,13.2,6,11.9,1.1-1.2-4.8-2.2-6.3,3.1-2,1.8,1.5,3.2,3.3,4.3,4.7.3-5.8.7-25.5-4.5-34.1h0ZM220.6,227.2c-3.7,3.4-9.8,6.6-19.6,6.6s-12.5-1.4-10.5-1.4-4-2.8-2.1-3.3c1.9-.5-.9-1.2-2.4-6.1-1.5-4.8-3.4-6.1-1.6-7.6,0,0,3.3-2.1,7.3-7.6,4-5.5,8.6-9.3,14.1-9.8,5.6-.5,11.3,3.9,14.5,12.2,3.2,8.3,2.9,8.7,4.2,10.7,1.4,2-.3,2.8-4,6.3h0Z"/>
    <path class="st4" d="M224.6,221c-1.4-2-1-2.4-4.2-10.7-3.2-8.3-8.9-12.7-14.5-12.2-5.6.5-10.2,4.3-14.1,9.8-4,5.5-7.3,7.6-7.3,7.6-1.8,1.4.1,2.7,1.6,7.6,1.5,4.8,4.2,5.6,2.4,6.1-1.9.5,4.1,3.3,2.1,3.3s.7,1.4,10.5,1.4,15.9-3.2,19.6-6.6c3.7-3.4,5.3-4.3,4-6.3h0ZM201.1,227c-6.2-.6-10.7-10-10.7-10,.1-.4.3-.9.5-1.3.2-.4.3-.8.5-1.3h0c.3-.8.7-1.5,1-2.2.1-.2.2-.5.4-.7,0-.1.1-.2.2-.4.1-.2.2-.4.4-.6,0-.1.1-.2.2-.3.1-.2.2-.4.4-.6,1.2-1.7,2.5-3.2,3.8-4.4.1-.1.3-.2.4-.3,1.8-1.5,3.7-2.5,5.6-2.9.1,0,.3,0,.4,0,.5-.1,1-.2,1.6-.2.2,0,.4,0,.6,0,1,0,2,.1,3,.5.2,0,.3.1.5.2.1,0,.2,0,.3.1.3.1.6.3.9.5.1,0,.2.1.3.2.1,0,.2.1.3.2.1,0,.2.1.3.2.1,0,.2.2.3.3.5.4,1,.9,1.4,1.4.1.2.3.3.4.5.1.2.3.3.4.5.1.2.2.3.4.5.3.4.5.8.8,1.2.3.5.6,1,.8,1.5,0,0,0,0,0,0,0,.2.2.4.3.6.3.6.6,1.2.8,1.8.1.3.2.6.3.9,0,0,0,0,0,0,.1.3.2.6.3.9,0,0,0,0,0,0,0,.1,0,.3.1.4,0,.2.2.5.2.7,0,.1,0,.2,0,.3h0c.1.5.2.8.3,1.1.1.4.2.7.2.7,0,10-12,10.7-18.2,10h0Z"/>
    <path d="M219.3,217c0,10-12,10.7-18.2,10-6.2-.6-10.7-10-10.7-10,.1-.4.3-.9.5-1.3.2-.4.3-.8.5-1.3h0c1.7,6,7.3,10.4,13.8,10.4s11.7-4,13.6-9.7c.1.5.2.8.3,1.1.1.4.2.7.2.7Z"/>
    <path class="st2" d="M163.9,337.2c-11.3-3.7-11.2-15.5-11.2-10.6s2.9,8.6-3.4,2.2c-6.2-6.3-9.3-16.5-6.9-23.4,2.4-6.9-7.9,3-1.9-3.5,6-6.5-2.2.7-20.7-3.7-18.5-4.5-20.3-15.1-17.8-20.6,2.5-5.5-5.7-3-3.7-8.4,2-5.5-6.9,1.7,2.2-15.1,9.2-16.9,24.6-18.9,6.2-18.9s18.4-17.9,4.8-14.1c-13.5,3.7,13.3-16.6-1.1-14.1-14.4,2.5,0,0,10.9-16.6,10.9-16.6,4-10.4-8.4,3.2-1.5,1.6-2.9,3-4.1,4.2,4.9-10.7,9-24.3,15-33.2,8.6-12.6,20-9.7,20-9.7-1.3,3.1-1.8,5.4-1.9,5.9.2-.7,2.4-6.7,11.7-8.5,9.9-2-13.6,4.1-15.9,21.2-2.3,17,5.5,10.9,1.2,19.4-4.3,8.4-3.6,11.8-3.6,11.8,0,0,.5-2.1,8.4-6.2,7.9-4.1-5,4.5-6.8,11.3-1.8,6.8,2.1,4.1-.8,14.4-3,10.3,3.5,17.4,3.5,17.4,0,0-.3-18.8,16.2-32.3-.5.6-18.6,23.2-12.7,40.9,6,17.9,8.6,6,10.4,14.4,0,0,.4-9.4,4.9-14.5,4.5-5.1-2.5,12.5-2.1,20.3.4,7.8,7,2.3,11.6,13.8-1.6,5.1-1.9,9.5-1.9,9.5,0,0,4.5-6.1,8.8-7.6,4.3-1.5-7.9,6.3-10.4,14.9-2.5,8.6-3.7,23.2-1.4,30.5,2.4,7.3-.5-10.8,9.7-21,9.4-9.4-7.4,11.6-8.8,27h0Z"/>
    <path class="st4" d="M163.9,341.4c-4-.4-13.5-1.9-20-6.3-8.5-5.6-2.4-.3-11-6-8.6-5.6-12.1-22-11.9-13.1.2,8.9,5.6,10.4,5.6,10.4,0,0-3.5.7-12.2-4.6-8.8-5.3-13.9-26.8-13.6-19.4.3,7.4,4.3,12.1,4.3,12.1,0,0-11.9-3.2-16.4-13.7-4.5-10.6-8.1-9.5-8.1-9.5,0,0,5.3-15.5-.7-5.7-6,9.8-2.8,6.3-1.7-4.5,1.2-10.8-6.3-5.5-2.8-16.4,3.5-10.9,17-23.7,9.8-19.9-7.3,3.8-11.2,10.7-11.2,10.7,0,0,1.2-10.1,6.1-13.7,5-3.6,1-13.2,7.9-15.7s17.9-11.6,12.6-8.6c-5.1,2.9-12.1,5.1-12.6,5.3.3-.3,5.6-4.4,14-14.1,2.6-2.9,4.8-6.8,6.8-11.3,1.3-1.2,2.6-2.6,4.1-4.2,12.4-13.6,19.4-19.9,8.4-3.2-10.9,16.6-25.3,19.1-10.9,16.6,14.4-2.5-12.4,17.9,1.1,14.1,13.5-3.7-23.2,14.1-4.8,14.1s3,2-6.2,18.9c-9.2,16.9-.2,9.7-2.2,15.1-2,5.5,6.2,3,3.7,8.4-2.5,5.5-.7,16.1,17.8,20.6,18.4,4.5,26.6-2.7,20.7,3.7-6,6.5,4.3-3.5,1.9,3.5-2.4,6.9.7,17.1,6.9,23.4,6.2,6.3,3.4,2.6,3.4-2.2s-.1,7,11.2,10.6c-.1,1.3-.1,2.6,0,3.7,0,.1,0,.3,0,.4h0Z"/>
    <path d="M218.9,215.2h0c-2,5.6-7.3,9.7-13.6,9.7s-12.1-4.4-13.8-10.5c.3-.7.7-1.5,1-2.1.1-.2.2-.5.4-.7,0-.1.1-.2.2-.4.1-.2.2-.4.4-.6,0-.1.1-.2.2-.3.1-.2.2-.4.4-.6,1.2-1.7,2.5-3.2,3.8-4.4.1-.1.3-.2.4-.3,1.8-1.5,3.7-2.5,5.6-2.9.1,0,.3,0,.4,0,.5-.1,1-.2,1.6-.2.2,0,.4,0,.6,0,1,0,2,.1,3,.5.2,0,.3.1.5.2.1,0,.2,0,.3.1.3.1.6.3.9.5.1,0,.2.1.3.2.1,0,.2.1.3.2.1,0,.2.1.3.2.1,0,.2.2.3.3.5.4,1,.9,1.4,1.4.1.2.3.3.4.5.1.2.3.3.4.5.1.2.2.3.4.5.3.4.5.8.8,1.2.3.5.6,1,.8,1.5,0,0,0,0,0,0,0,.2.2.4.3.6.3.6.6,1.2.8,1.8.1.3.2.6.3.9,0,0,0,0,0,0,.1.3.2.6.3.9,0,0,0,0,0,0,0,.1,0,.3.1.4,0,.2.2.5.2.7,0,.1,0,.2,0,.3h0Z"/>
    <path class="st2" d="M323.1,231.7c4.5,7.1,6.1,18.7,6.1,18.7,2.3-6.3,1.9-18.8-4.5-40.4-6.5-21.6-27.3-28.8-41.7-25.8-14.4,3-16.6,15.9-11.7,13.9,5-2-6.9,11-1.2,7.2,5.7-3.7,2-1-4.2,9.1-5.3,8.6-4.8,28.3-4.5,34.1,1.1-1.4,2.5-3.2,4.3-4.7,5.3-4.3,4.3-2.9,3.1,2-1.3,4.8,4.7-1.6,11.9-1.1,7.2.5,6.2,1.7,12.4,4.2,6.2,2.5,4.8,1.1,1.1,4.3-3.7,3.2-6.3,1.7,3.7,1.9,10.1.1,16.7,6.7,20.2,10.9,3.5,4.2-7.4-3.4-16-2.2,0,0,13.3,2.9,21.3,7.8h0c.5.3,1,.6,1.4.9,7.1-22.8-6-47.8-1.6-40.8h0ZM314,223.1c-1.5,4.8-4.2,5.6-2.4,6.1,1.9.5-4.1,3.3-2.1,3.3s-.7,1.4-10.5,1.4-15.9-3.2-19.6-6.6c-3.7-3.4-5.3-4.3-4-6.3,1.4-2,1-2.4,4.2-10.7,3.2-8.3,8.9-12.7,14.5-12.2,5.6.5,10.2,4.3,14.1,9.8,4,5.5,7.3,7.6,7.3,7.6,1.8,1.4-.1,2.7-1.6,7.6h0Z"/>
    <path class="st4" d="M315.6,215.5s-3.3-2.1-7.3-7.6c-4-5.5-8.6-9.3-14.1-9.8-5.6-.5-11.3,3.9-14.5,12.2-3.2,8.3-2.9,8.7-4.2,10.7-1.4,2,.3,2.8,4,6.3,3.7,3.4,9.8,6.6,19.6,6.6s12.5-1.4,10.5-1.4,4-2.8,2.1-3.3c-1.9-.5.9-1.2,2.4-6.1,1.5-4.8,3.4-6.1,1.6-7.6h0ZM298.9,227c-6.2.6-18.2,0-18.2-10,0,0,0-.2.2-.7,0-.3.2-.7.3-1.1h0c0-.1,0-.2,0-.3,0-.2.1-.5.2-.7,0-.1,0-.3.1-.4,0,0,0,0,0,0,0-.3.2-.6.3-.9,0,0,0,0,0,0,0-.3.2-.6.3-.9.2-.6.5-1.2.8-1.8,0-.2.2-.4.3-.6,0,0,0,0,0,0,.2-.5.5-1,.8-1.5.2-.4.5-.8.8-1.2.1-.2.2-.3.4-.5.1-.2.2-.3.4-.5.1-.2.3-.3.4-.5.4-.5.9-1,1.4-1.4.1,0,.2-.2.3-.3,0,0,.2-.2.3-.2.1,0,.2-.2.3-.2.1,0,.2-.1.3-.2.3-.2.6-.3.9-.5.1,0,.2,0,.3-.1.2,0,.3-.1.5-.2,1-.3,2-.5,3-.5s.4,0,.6,0c.5,0,1,0,1.6.2.1,0,.3,0,.4,0,1.9.5,3.8,1.5,5.6,2.9.1.1.3.2.4.3,1.4,1.2,2.7,2.7,3.8,4.4.1.2.3.4.4.6,0,.1.1.2.2.3.1.2.2.4.4.6,0,.1.1.2.2.4.1.2.2.4.4.7.4.7.7,1.4,1,2.1h0c.2.4.3.8.5,1.3.2.4.3.9.5,1.3,0,0-4.5,9.4-10.7,10h0Z"/>
    <path d="M309.5,217s-4.5,9.4-10.7,10c-6.2.6-18.2,0-18.2-10,0,0,0-.2.2-.7,0-.3.2-.7.3-1.1,2,5.6,7.3,9.7,13.6,9.7s12.1-4.4,13.8-10.5h0c.2.4.3.8.5,1.3.2.4.3.9.5,1.3Z"/>
    <path class="st2" d="M401.6,269.1c2,5.5-6.2,3-3.7,8.4,2.5,5.5.7,16.1-17.8,20.6-18.4,4.5-26.6-2.7-20.7,3.7,6,6.5-4.3-3.5-1.9,3.5,2.4,6.9-.7,17.1-6.9,23.4-6.2,6.3-3.4,2.6-3.4-2.2s.1,7-11.2,10.6c-1.4-15.4-18.2-36.4-8.8-27,10.2,10.2,7.3,28.3,9.7,21,2.4-7.3,1.1-22-1.4-30.5-2.5-8.6-14.8-16.4-10.4-14.9,4.3,1.5,8.8,7.6,8.8,7.6,0,0-.2-4.5-1.9-9.5,4.6-11.5,11.2-6,11.6-13.8.4-7.8-6.6-25.4-2.1-20.3,4.5,5.1,4.9,14.5,4.9,14.5,1.8-8.4,4.5,3.5,10.4-14.4,5.9-17.6-12.2-40.2-12.7-40.9,16.5,13.6,16.2,32.3,16.2,32.3,0,0,6.5-7.2,3.5-17.4-3-10.3,1-7.6-.8-14.4-1.8-6.8-14.7-15.4-6.8-11.3,7.9,4.1,8.4,6.2,8.4,6.2,0,0,.7-3.3-3.6-11.8-4.3-8.4,3.5-2.3,1.2-19.4-2.3-17-25.8-23.2-15.9-21.2,9.3,1.9,11.5,7.8,11.7,8.5,0-.4-.6-2.8-1.9-5.9,0,0,11.4-2.8,20,9.7,6.1,8.9,10.1,22.5,15,33.2-1.3-1.2-2.6-2.6-4.1-4.2-12.4-13.6-19.4-19.9-8.4-3.2,10.9,16.6,25.3,19.1,10.9,16.6-14.4-2.5,12.4,17.9-1.1,14.1-13.5-3.7,23.2,14.1,4.8,14.1s-3,2,6.2,18.9c9.2,16.9.2,9.7,2.2,15.1h0Z"/>
    <path class="st5" d="M363,209.4c1.8,6.8-2.1,4.1.8,14.4,3,10.3-3.5,17.4-3.5,17.4,0,0,.3-18.8-16.2-32.3.5.6,18.6,23.2,12.7,40.9-6,17.9-8.6,6-10.4,14.4,0,0-.4-9.4-4.9-14.5-4.5-5.1,2.5,12.5,2.1,20.3-.4,7.8-7,2.3-11.6,13.8-1-3-2.4-6.1-4.6-8.7-.7-.9-1.7-1.7-2.8-2.5,7.1-22.8-6-47.8-1.6-40.8,4.5,7.1,6.1,18.7,6.1,18.7,2.3-6.3,1.9-18.8-4.5-40.4-6.5-21.6-27.3-28.8-41.7-25.8-14.4,3-16.6,15.9-11.7,13.9,5-2-6.9,11-1.2,7.2,5.7-3.7,2-1-4.2,9.1-5.3,8.6-4.8,28.3-4.5,34.1-2,2.8-2.7,4.2-2-.7,1-7.4.9-7.6-3.7-2.9-4.6,4.7-5.6,10.2-5.6,10.2,0,0-1-5.5-5.6-10.2-4.6-4.7-4.7-4.6-3.7,2.9.7,4.9,0,3.5-2,.7.3-5.8.7-25.5-4.5-34.1-6.2-10.1-9.9-12.8-4.2-9.1,5.7,3.7-6.2-9.3-1.2-7.2,5,2,2.7-10.9-11.7-13.9-14.4-3-35.2,4.2-41.7,25.8-6.5,21.6-6.9,34.1-4.5,40.4,0,0,1.6-11.6,6.1-18.7,4.4-6.9-8.7,18.1-1.6,40.8-1.1.8-2,1.6-2.8,2.5-2.2,2.6-3.6,5.8-4.6,8.7-4.6-11.5-11.2-6-11.6-13.8-.4-7.8,6.6-25.4,2.1-20.3-4.5,5.1-4.9,14.5-4.9,14.5-1.8-8.4-4.5,3.5-10.4-14.4-5.9-17.6,12.2-40.2,12.7-40.9-16.5,13.6-16.2,32.3-16.2,32.3,0,0-6.5-7.2-3.5-17.4,3-10.3-1-7.6.8-14.4,1.8-6.8,14.7-15.4,6.8-11.3-7.9,4.1-8.4,6.2-8.4,6.2,0,0-.7-3.3,3.6-11.8,4.3-8.4-3.5-2.3-1.2-19.4,2.3-17,25.8-23.2,15.9-21.2-9.3,1.9-11.5,7.8-11.7,8.5,0-.4.6-2.8,1.9-5.9,1.5-3.6,4.2-8.4,8.6-12.6,8.6-8.2,33.9-4.6,21.3-7.6-12-2.9-14.8-.2-15,0,0-.2,1.9-4,5.9-6.9,4.2-3-3.2-7.3,5.3-8.2,8.6-.9,21.8,1.7,17.1-1.9-4.7-3.6-4.7-3.1,6.9-3,11.7.1,18.2,9.7,16.4.4-1.9-9.3-10.6-12.1,1.9-5.8,12.4,6.3,13.3,22.8,16,13.8,2.7-9.1-7.1-18.9,1-13,7,5.1,10.8,12.2,11.7,14.1,0-.4,1.2-9.1-5.8-14.2-7.2-5.1,1.8,0,6.9,1.5,5.1,1.5,4.5.3,6.5,6.1,2,5.8,3.5.9,0-5.8-3.2-6.2,6-.3,10.6,11.5,1.4-2.6,5.1-8.7,11.3-13.2,8.1-5.8-1.7,4,1,13,2.7,9.1,3.6-7.4,16-13.8,12.4-6.3,3.7-3.5,1.9,5.8-1.9,9.3,4.7-.2,16.4-.4,11.7-.1,11.7-.6,6.9,3-4.7,3.6,8.6,1,17.1,1.9,8.6.9,1.1,5.2,5.3,8.2,4.1,2.9,5.8,6.7,5.9,6.9-.2-.2-3-2.8-15,0-12.5,3,12.8-.6,21.3,7.6,4.4,4.2,7,9,8.6,12.6,1.3,3.1,1.8,5.4,1.9,5.9-.2-.7-2.4-6.7-11.7-8.5-9.9-2,13.6,4.1,15.9,21.2,2.3,17-5.5,10.9-1.2,19.4,4.3,8.4,3.6,11.8,3.6,11.8,0,0-.5-2.1-8.4-6.2-7.9-4.1,5,4.5,6.8,11.3h0Z"/>
    <path class="st4" d="M421.7,281.2c1.2,10.7,4.3,14.2-1.7,4.5-6-9.8-.7,5.7-.7,5.7,0,0-3.6-1.1-8.1,9.5-4.5,10.6-16.4,13.7-16.4,13.7,0,0,4-4.6,4.3-12.1.3-7.4-4.8,14.1-13.6,19.4-8.8,5.3-12.2,4.6-12.2,4.6,0,0,5.5-1.5,5.6-10.4.2-8.9-3.3,7.4-11.9,13.1-8.6,5.6-2.5.3-11,6-6.6,4.3-16.1,5.8-20,6.3,0-.1,0-.3,0-.4.1-1.2.1-2.4,0-3.7,11.3-3.7,11.2-15.5,11.2-10.6s-2.9,8.6,3.4,2.2c6.2-6.3,9.3-16.5,6.9-23.4-2.4-6.9,7.9,3,1.9-3.5-6-6.5,2.2.7,20.7-3.7,18.5-4.5,20.3-15.1,17.8-20.6-2.5-5.5,5.7-3,3.7-8.4-2-5.5,6.9,1.7-2.2-15.1-9.2-16.9-24.6-18.9-6.2-18.9s-18.4-17.9-4.8-14.1c13.5,3.7-13.3-16.6,1.1-14.1,14.4,2.5,0,0-10.9-16.6-10.9-16.6-4-10.4,8.4,3.2,1.5,1.6,2.9,3,4.1,4.2,2,4.4,4.2,8.4,6.8,11.3,8.5,9.6,13.7,13.8,14,14.1-.4-.1-7.4-2.4-12.6-5.3-5.3-3,5.6,6.1,12.6,8.6,6.9,2.5,3,12.1,7.9,15.7,5,3.6,6.1,13.7,6.1,13.7,0,0-4-6.9-11.2-10.7-7.3-3.8,6.3,8.9,9.8,19.9,3.5,10.9-4,5.6-2.8,16.4h0Z"/>
    <path d="M308.6,214.4c-1.7,6-7.3,10.5-13.8,10.5s-11.7-4-13.6-9.7h0c0-.1,0-.2,0-.3,0-.2.1-.5.2-.7,0-.1,0-.3.1-.4,0,0,0,0,0,0,0-.3.2-.6.3-.9,0,0,0,0,0,0,0-.3.2-.6.3-.9.2-.6.5-1.2.8-1.8,0-.2.2-.4.3-.6,0,0,0,0,0,0,.2-.5.5-1,.8-1.5.2-.4.5-.8.8-1.2.1-.2.2-.3.4-.5.1-.2.2-.3.4-.5.1-.2.3-.3.4-.5.4-.5.9-1,1.4-1.4.1,0,.2-.2.3-.3,0,0,.2-.2.3-.2.1,0,.2-.2.3-.2.1,0,.2-.1.3-.2.3-.2.6-.3.9-.5.1,0,.2,0,.3-.1.2,0,.3-.1.5-.2,1-.3,2-.5,3-.5s.4,0,.6,0c.5,0,1,0,1.6.2.1,0,.3,0,.4,0,1.9.5,3.8,1.5,5.6,2.9.1.1.3.2.4.3,1.4,1.2,2.7,2.7,3.8,4.4.1.2.3.4.4.6,0,.1.1.2.2.3.1.2.2.4.4.6,0,.1.1.2.2.4.1.2.2.4.4.7.4.7.7,1.4,1,2.1h0Z"/>
    <path d="M205.2,218.7c2.8,0,5-2.2,5-5s-2.2-5-5-5-5,2.2-5,5,2.2,5,5,5Z"/>
    <path class="st7" d="M210.1,214.1c1.9,0,3.4-1.5,3.4-3.4s-1.5-3.4-3.4-3.4-3.4,1.5-3.4,3.4,1.5,3.4,3.4,3.4Z"/>
    <path d="M294.8,218.7c2.8,0,5-2.2,5-5s-2.2-5-5-5-5,2.2-5,5,2.2,5,5,5Z"/>
    <path class="st7" d="M300.3,214.1c1.9,0,3.4-1.5,3.4-3.4s-1.5-3.4-3.4-3.4-3.4,1.5-3.4,3.4,1.5,3.4,3.4,3.4Z"/>
  </g>
</svg>