<?xml version="1.0"?>
<svg width="1080" height="1080" xmlns="http://www.w3.org/2000/svg" xmlns:svg="http://www.w3.org/2000/svg">
 <g class="layer">
  <title>Layer 1</title>
  <ellipse cx="540" cy="540" fill="#00EC97" id="svg_3" rx="535" ry="536"/>
  <path d="m773.42,243.38c-21.97,0 -42.37,11.39 -53.88,30.12l-124,184.11c-4.04,6.06 -2.4,14.24 3.67,18.28c4.91,3.28 11.42,2.88 15.9,-0.98l122.06,-105.87c2.03,-1.82 5.16,-1.64 6.98,0.39c0.83,0.93 1.27,2.13 1.27,3.36l0,331.47c0,2.74 -2.21,4.94 -4.95,4.94c-1.47,0 -2.86,-0.64 -3.79,-1.78l-368.97,-441.66c-12.02,-14.18 -29.66,-22.36 -48.24,-22.38l-12.9,0c-34.9,0 -63.19,28.29 -63.19,63.19l0,466.85c0,34.91 28.29,63.2 63.19,63.2c21.98,0 42.38,-11.39 53.89,-30.12l124,-184.11c4.04,-6.06 2.4,-14.24 -3.67,-18.28c-4.91,-3.28 -11.42,-2.88 -15.9,0.98l-122.06,105.87c-2.03,1.82 -5.16,1.64 -6.98,-0.39c-0.83,-0.93 -1.27,-2.13 -1.25,-3.36l0,-331.56c0,-2.74 2.21,-4.94 4.95,-4.94c1.45,0 2.86,0.65 3.78,1.78l368.93,441.75c12.02,14.18 29.66,22.36 48.24,22.38l12.89,0c34.9,0.02 63.21,-28.26 63.25,-63.16l0,-466.89c0,-34.9 -28.3,-63.19 -63.2,-63.19l-0.02,0z" fill="black" id="svg_2"/>
 </g>
</svg>