<?xml version="1.0" encoding="UTF-8"?><svg id="CIRCLE_OUTLINE_BLACK" xmlns="http://www.w3.org/2000/svg" viewBox="0 0 512 512"><circle cx="256" cy="256" r="256" fill="#9b7227" stroke-width="0"/><path d="M325.10242,33.51806c1.07464,1.85517,2.78687,3.14063,5.14183,3.85637-1.71482.42857-3.42701.85689-5.14183,1.28546-11.85965-3.39463-23.85554-5.96555-35.99281-7.71274-33.27021-5.00994-65.83342-2.43903-97.69476,7.71274-21.37587,5.97481-41.08605,15.40157-59.13104,28.28005-.85688-.42857-1.71403-.85689-2.57091-1.28546,3.40081-2.09761,5.11458-5.0971,5.14183-8.9982,60.15272-35.52874,123.56845-43.24148,190.24769-23.13822Z" fill="#9c8f3d" fill-rule="evenodd" stroke-width="0"/><path d="M116.85833,59.22719c2.29068,1.56774,4.8616,2.42463,7.71274,2.57091-4.48188,8.3565-10.48059,15.64093-17.9964,21.85276,1.71403,1.71402,3.42779,1.71402,5.14183,0,3.90137-4.33225,8.18604-8.18862,12.85457-11.56911,3.07379.88876,3.07379,2.17422,0,3.85637,6.82038,1.98011,12.81909,3.26557,17.9964,3.85637-16.2086,14.39866-26.49226,32.39505-30.85098,53.98918-2.51796,8.03359-3.37509,16.60321-2.57091,25.70913-12.20747-.74659-22.06256-5.88841-29.56552-15.42548-2.46808-6.37664-4.61068-12.80392-6.42729-19.28185,8.20559-12.0946,17.63236-23.23514,28.28006-33.42187-2.76836-1.2073-5.33928-.77873-7.71274,1.28546.16814-1.12658-.26018-1.98371-1.28546-2.57091-5.14183,5.14183-10.28366,10.28365-15.42549,15.42548-1.84386-1.39908-3.12932-3.11312-3.85637-5.14183v-2.57091c7.71274-9.42676,16.28238-17.99639,25.70915-25.70913,5.54599-4.91585,11.54495-9.20053,17.9964-12.85457Z" fill="#eedf5f" fill-rule="evenodd" stroke-width="0"/><path d="M196.55669,102.93272c13.4099-3.81009,27.12059-5.09555,41.13464-3.85637-8.56886,1.71402-17.14029,3.42779-25.70915,5.14183-3.04396,2.94498-3.04396,5.94422,0,8.9982-1.1672,6.7867-4.16746,12.78566-8.9982,17.99639-1.14149,23.85395-13.56697,37.56542-37.27826,41.13461-1.82278-2.3241-4.39369-3.18098-7.71274-2.57091.20362,3.67768-.65354,7.10549-2.57091,10.28365,6.37046,4.97807,6.37046,10.11989,0,15.42548-12.60519,4.0749-25.45977,6.64581-38.56372,7.71274-4.74746,54.77331,15.81986,96.76404,61.70195,125.97475,1.71403,2.57091,3.42779,5.14183,5.14183,7.71274-8.76014-5.07243-18.1869-8.9288-28.28006-11.56911-10.15358-5.95681-20.00891-12.38409-29.56552-19.28185-12.43655-21.8399-18.00694-45.40748-16.71095-70.70012,3.69183-34.38083,6.69106-69.08712,8.9982-104.12199,4.77702-15.55274,11.63288-30.12134,20.56732-43.70553,3.47408-3.88131,7.75901-6.45222,12.85457-7.71274,14.3146,6.51187,27.59748,14.65318,39.84918,24.42368,2.40843,1.77831,4.12117,1.34973,5.14183-1.28546Z" fill="#a7971a" fill-rule="evenodd" stroke-width="0"/><path d="M191.41486,38.65988c2.30971,1.69089,4.8796,3.40466,7.71274,5.14183-.93581,12.25657,4.20602,22.11191,15.42549,29.5655,25.81969,14.62644,53.24366,24.9101,82.26927,30.85096,12.89059,7.73485,26.60125,13.30499,41.13464,16.71094,12.62834-3.8011,25.48291-6.37201,38.56372-7.71274.60417,1.53407,1.88962,2.39121,3.85637,2.57091,11.56912-2.42796,23.13823-3.71342,34.70735-3.85637-12.13727,7.13788-24.99184,13.1366-38.56372,17.99639-2.26242,3.48642-3.1211,7.34279-2.57091,11.56911-3.52473,9.10951-6.09564,18.10771-7.71274,26.99459.17998,1.96624,1.03608,3.25169,2.57091,3.85637,5.63031,2.24825,8.20122,6.53295,7.71274,12.85457-21.26916-8.15879-41.83648-15.87153-61.70195-23.13822-3.22392-4.77394-3.22392-9.91576,0-15.42548-.8561-2.57091-2.57091-4.28495-5.14183-5.14183-4.5428,6.21209-8.39917,13.0677-11.56912,20.56731-8.65628-9.51906-18.08381-18.08895-28.28006-25.70913-1.19292,1.52815-1.62224,3.24218-1.28546,5.14183-18.24578-8.2408-37.0983-17.66758-56.56012-28.28005-3.04396-3.05398-3.04396-6.05321,0-8.9982,8.56886-1.71403,17.14029-3.4278,25.70915-5.14183-14.01405-1.23918-27.72474.04628-41.13464,3.85637-11.09093-10.61171-23.94551-18.75276-38.56372-24.42368-5.39276-1.74205-10.53459-1.31348-15.42549,1.28546-5.17731-.5908-11.17602-1.87626-17.9964-3.85637,3.07379-1.68215,3.07379-2.96761,0-3.85637-4.66853,3.38049-8.95321,7.23686-12.85457,11.56911-1.71403,1.71402-3.42779,1.71402-5.14183,0,7.51581-6.21184,13.51452-13.49627,17.9964-21.85276,4.01525-.59876,7.44306-2.31254,10.28366-5.14183-.02724,3.9011-1.74102,6.90059-5.14183,8.9982.85688.42857,1.71403.85689,2.57091,1.28546,18.04499-12.87848,37.75517-22.30524,59.13104-28.28005Z" fill="#d1bf47" fill-rule="evenodd" stroke-width="0"/><path d="M289.10962,30.94714c12.13727,1.74719,24.13316,4.31811,35.99281,7.71274,1.71482-.42857,3.42701-.85689,5.14183-1.28546-2.35496-.71574-4.06719-2.0012-5.14183-3.85637,24.47253,4.95261,46.75208,14.80795,66.84378,29.5655,15.79828,16.65052,32.50923,32.50432,50.13284,47.5619,7.85671,10.8387,15.14014,21.97951,21.85277,33.42187-1.396.15425-2.25214,1.01115-2.57091,2.57091,11.85192,22.7027,19.56466,46.69782,23.13823,71.98557v2.57091c-26.59353-17.5902-54.87359-32.5858-84.84018-44.99098,5.67915-6.11492,11.67711-11.68531,17.9964-16.71094,7.6202,2.49842,15.33295,2.92698,23.13823,1.28546,4.59164-.50441,8.01869-2.64676,10.28366-6.42728.77642-10.03504-.50904-20.31869-3.85637-30.85096-8.85937-8.85911-17.85757-17.85731-26.9946-26.99459-49.67778-20.55213-99.38384-41.11944-149.11305-61.70192,6.51983-.4787,12.51779-1.76416,17.9964-3.85637Z" fill="#d2c04d" fill-rule="evenodd" stroke-width="0"/><path d="M73.15278,97.79089v2.57091c-39.39747,44.44929-59.1079,96.72547-59.13104,156.82571,1.9251,54.61904,18.20747,104.32253,48.84738,149.11297-5.99872-6.85664-11.99768-13.71066-17.9964-20.56731C10.58675,322.25991,2.01712,255.41615,19.16357,185.20194c3.18382-4.40732,4.89759-9.54915,5.14183-15.42548,9.99134-19.11036,20.70358-37.96365,32.13643-56.56009,3.94764-7.18236,9.51805-12.32419,16.71095-15.42548Z" fill="#9d7327" fill-rule="evenodd" stroke-width="0"/><path d="M289.10962,30.94714c-5.47861,2.09221-11.47657,3.37767-17.9964,3.85637,49.72921,20.58248,99.43527,41.14978,149.11305,61.70192,9.13703,9.13728,18.13523,18.13548,26.9946,26.99459,3.34734,10.53227,4.63279,20.81592,3.85637,30.85096-2.26497,3.78052-5.69202,5.92288-10.28366,6.42728-7.80529,1.64152-15.51803,1.21296-23.13823-1.28546-6.31929,5.02563-12.31725,10.59601-17.9964,16.71094,29.9666,12.40518,58.24666,27.40079,84.84018,44.99098,6.38614,25.89424,6.38614,51.60339,0,77.1274-2.65318,3.74068-5.22409,9.31183-7.71274,16.71094-15.86768,2.29584-31.29317.58361-46.27646-5.14183-14.56939-5.57119-29.13616-11.13975-43.70555-16.71094-6.81291,11.07549-15.38179,20.50046-25.70915,28.28005,8.58943-12.86743,17.15827-25.722,25.70915-38.5637,3.82809-4.15459,6.399-9.29642,7.71274-15.42548,1.50655.53732,2.79201,1.396,3.85637,2.57091.59644-3.18022,1.8819-5.75113,3.85637-7.71274v7.71274h10.28366c-.42163,6.90803.00773,13.76468,1.28546,20.56731,5.14183,5.14183,10.28366,10.28365,15.42549,15.42548.44478-10.38906,1.73024-20.67271,3.85637-30.85096,12.04218,11.61795,24.46998,22.75774,37.27826,33.42187,1.28546-24.83758,1.71223-49.69062,1.28546-74.55649h-17.9964c3.73296-2.06188,8.0161-3.34733,12.85457-3.85637-25.32608-12.22984-51.03522-23.79895-77.12744-34.70733-1.51169-3.88618-2.37038-7.314-2.57091-10.28365,13.7364-12.49413,25.30552-27.06246,34.70735-43.70553,2.22641-9.67768,5.22668-19.10446,8.9982-28.28005-17.86271-6.44913-35.85911-6.44913-53.98921,0-13.08081,1.34073-25.93538,3.91164-38.56372,7.71274-14.53338-3.40594-28.24405-8.97609-41.13464-16.71094-29.02561-5.94086-56.44958-16.22452-82.26927-30.85096-11.21947-7.45359-16.3613-17.30893-15.42549-29.5655-2.83314-1.73717-5.40304-3.45094-7.71274-5.14183,31.86134-10.15177,64.42455-12.72268,97.69476-7.71274Z" fill="#dccb52" fill-rule="evenodd" stroke-width="0"/><path d="M196.55669,102.93272c-1.02066,2.63519-2.7334,3.06377-5.14183,1.28546-12.2517-9.7705-25.53458-17.91181-39.84918-24.42368-5.09556,1.26052-9.38049,3.83143-12.85457,7.71274-8.93443,13.58419-15.7903,28.15279-20.56732,43.70553-2.30714,35.03487-5.30638,69.74116-8.9982,104.12199-1.29599,25.29264,4.2744,48.86022,16.71095,70.70012,9.55661,6.89776,19.41194,13.32504,29.56552,19.28185,10.09316,2.64031,19.51992,6.49668,28.28006,11.56911,7.10138,5.38862,14.81361,9.67176,23.13823,12.85457,11.39429,3.82554,23.39275,6.39645,35.99281,7.71274,22.49293-8.03151,45.63115-12.74657,69.4147-14.14002-7.28083,4.90531-6.4247,7.04687,2.57091,6.42728-10.69501,7.91328-22.69345,13.05511-35.99281,15.42548-16.37416.39335-32.65834-.46275-48.84738-2.57091-8.59457-1.86134-17.16343-4.00293-25.70915-6.42728-23.16034-14.57452-47.15547-27.00232-71.98561-37.27824h-2.57091c-13.84077-19.13529-21.98209-40.56128-24.42369-64.27283,1.6261-40.28364,3.76844-80.56061,6.42729-120.83293,4.35872-21.59413,14.64238-39.59052,30.85098-53.98918,4.8909-2.59893,10.03273-3.02751,15.42549-1.28546,14.61821,5.67092,27.47279,13.81197,38.56372,24.42368Z" fill="#7a6a03" fill-rule="evenodd" stroke-width="0"/><path d="M425.36809,77.22358c4.28573,5.99872,9.42756,11.14054,15.42549,15.42548,8.36834,13.11732,17.36654,25.97189,26.9946,38.5637,25.88913,44.61923,37.03147,92.60945,33.42189,143.97115-17.59019,126.84885-89.14902,202.26402-214.67138,226.24037h-2.57091c-89.83034,4.76648-163.52996-26.94061-221.09866-95.12379-30.6399-44.79044-46.92228-94.49393-48.84738-149.11297.02314-60.10024,19.73357-112.37642,59.13104-156.82571.72705,2.02871,2.01251,3.74274,3.85637,5.14183,5.14183-5.14183,10.28366-10.28365,15.42549-15.42548,1.02528.5872,1.45359,1.44433,1.28546,2.57091-10.23146,14.0863-21.80058,26.94087-34.70735,38.5637-5.44751,10.03247-10.16103,20.31612-14.14003,30.85096-16.26643,33.36274-22.26515,68.49941-17.9964,105.40745,10.76417,105.15807,65.61025,175.85818,164.53854,212.10035,60.34451,16.83949,117.76073,10.41221,172.25128-19.28185,2.55036.44219,4.26259-.41649,5.14183-2.57091,64.06205-34.14686,102.62577-87.27736,115.69116-159.39663,6.38614-25.52401,6.38614-51.23316,0-77.1274v-2.57091c2.91542-6.33988,3.34475-13.19651,1.28546-20.56731-5.90283-18.64477-13.18622-36.64116-21.85277-53.98918-6.71264-11.44236-13.99606-22.58317-21.85277-33.42187-17.62361-15.05758-34.33455-30.91137-50.13284-47.5619-20.0917-14.75756-42.37125-24.6129-66.84378-29.5655-66.67924-20.10326-130.09497-12.39052-190.24769,23.13822-2.84059,2.82929-6.26841,4.54306-10.28366,5.14183-2.85115-.14629-5.42206-1.00317-7.71274-2.57091,15.71857-11.73493,32.85809-21.59002,51.41829-29.5655,94.73049-31.57802,180.42677-15.72396,257.09147,47.5619Z" fill="#eada6e" fill-rule="evenodd" stroke-width="0"/><path d="M312.24785,380.59135c.38307,2.70461-.0437,5.27552-1.28546,7.71274-5.18039,3.0774-9.89545,6.50441-14.14003,10.28365-28.58856,7.08029-57.72476,9.6512-87.4111,7.71274-12.37896,1.69681-22.23455,7.69732-29.56552,17.99639-9.15169,11.44828-15.57897,24.30285-19.28186,38.5637-4.88268-12.33266-11.73829-23.47245-20.56732-33.42187-2.40354-13.19649-5.83136-26.05105-10.28366-38.5637,2.66218,1.91791,5.2331,5.77428,7.71274,11.56911,4.20114,1.27004,8.48607,1.69681,12.85457,1.28546h2.57091c.33088,4.4117,1.18776,8.69739,2.57091,12.85457,6.58848-1.79963,13.01577-4.37054,19.28186-7.71274,4.44022.37534,4.8688,2.09016,1.28546,5.14183,2.22384,2.78428,4.79475,3.21105,7.71274,1.28546,4.9796-7.98781,11.83648-13.559,20.56732-16.71094,24.00976.42677,48.00668,0,71.98561-1.28546-2.12872-2.35237-4.69964-4.0646-7.71274-5.14183,5.2858-.79957,10.42763-2.08502,15.42549-3.85637,5.79743,5.62517,11.36858,4.76648,16.71095-2.57091-.68388-8.74368,3.17249-13.02682,11.56912-12.85457v7.71274Z" fill="#2a2505" fill-rule="evenodd" stroke-width="0"/><path d="M111.7165,133.78368c-2.65885,40.27232-4.80118,80.54929-6.42729,120.83293,2.4416,23.71155,10.58292,45.13754,24.42369,64.27283-1.58729.28535-2.87274,1.14149-3.85637,2.57091-20.31048-12.34294-42.16326-20.91437-65.55832-25.70913-18.29437.63759-24.72165,9.20642-19.28186,25.70913,4.71326,4.71246,9.42677,9.42756,14.14003,14.14002,25.58497,12.05759,48.7232,22.77057,69.4147,32.13642,1.25872,8.11123,2.97248,15.82397,5.14183,23.13822,4.4523,12.51265,7.88011,25.36721,10.28366,38.5637,8.82903,9.94942,15.68464,21.08921,20.56732,33.42187,3.70289-14.26085,10.13018-27.11542,19.28186-38.5637,7.33097-10.29907,17.18656-16.29958,29.56552-17.99639,38.15236,14.03203,79.287,30.74296,123.40391,50.13281,10.07284,2.97199,20.3565,4.25745,30.85098,3.85637-54.49056,29.69406-111.90677,36.12134-172.25128,19.28185-98.92829-36.24217-153.77437-106.94228-164.53854-212.10035-.13266-35.32948,6.7232-69.61004,20.56732-102.83653-.31777-1.55977-1.17465-2.41666-2.57091-2.57091,3.979-10.53484,8.69252-20.81849,14.14003-30.85096,12.90677-11.62283,24.47588-24.4774,34.70735-38.5637,2.37347-2.06418,4.94438-2.49276,7.71274-1.28546-10.6477,10.18673-20.07447,21.32727-28.28006,33.42187,1.81661,6.47793,3.95921,12.90521,6.42729,19.28185,7.50296,9.53707,17.35805,14.67889,29.56552,15.42548-.80418-9.10592.05296-17.67554,2.57091-25.70913Z" fill="#cdba49" fill-rule="evenodd" stroke-width="0"/><path d="M155.42205,416.58414c-.38435,2.70461.04421,5.27552,1.28546,7.71274,4.45848-5.01586,10.02889-7.58678,16.71095-7.71274,1.12503,10.38392-2.73134,18.09666-11.56912,23.13822-1.98475-.37279-3.69877-1.22889-5.14183-2.57091-.56278-3.69698-1.84824-7.12399-3.85637-10.28365-2.85011,2.80229-5.42102,2.80229-7.71274,0-2.18064-4.90786-3.0378-10.04969-2.57091-15.42548,5.17731-.27766,9.46224,1.43457,12.85457,5.14183Z" fill="#7d6c05" fill-rule="evenodd" stroke-width="0"/><path d="M296.82236,398.58775c22.98653,3.76897,44.40999,11.91103,64.27287,24.42368,13.27876,9.41469,15.84967,20.9838,7.71274,34.70733-.87924,2.15442-2.59147,3.0131-5.14183,2.57091-10.49448.40108-20.77813-.88438-30.85098-3.85637-44.11691-19.38985-85.25154-36.10078-123.40391-50.13281,29.68634,1.93846,58.82254-.63245,87.4111-7.71274Z" fill="#decc53" fill-rule="evenodd" stroke-width="0"/><path d="M245.40407,393.44592c2.3164-2.031,4.0312-4.60192,5.14183-7.71274v-2.57091c1.58625-.28535,2.8717-1.14149,3.85637-2.57091,2.09016,4.9773,3.37562,10.11913,3.85637,15.42548-4.9233.73013-9.20645-.12596-12.85457-2.57091Z" fill="#96840b" fill-rule="evenodd" stroke-width="0"/><path d="M229.97858,362.59496c16.18904,2.10817,32.47321,2.96426,48.84738,2.57091-7.16515,2.5118-14.87789,3.36789-23.13823,2.57091-.40363,3.52987.02571,6.95946,1.28546,10.28365,2.57091-.85609,5.14183-1.71482,7.71274-2.57091.85612,3.42701,1.7148,6.85664,2.57091,10.28365,3.39104-4.4991,4.67649-9.64092,3.85637-15.42548h7.71274v12.85457h7.71274c-.65046-5.9825,1.06436-11.12433,5.14183-15.42548,1.71482.85609,3.42701,1.71482,5.14183,2.57091,3.85896-3.21878,8.14466-5.78969,12.85457-7.71274,1.73793,2.83316,3.45016,5.40407,5.14183,7.71274.68902,4.11089-.16967,7.53794-2.57091,10.28365v-7.71274c-8.39662-.17225-12.253,4.11089-11.56912,12.85457-5.34237,7.3374-10.91352,8.19608-16.71095,2.57091-4.99786,1.77135-10.13969,3.0568-15.42549,3.85637,3.0131,1.07723,5.58402,2.78946,7.71274,5.14183-23.97893,1.28546-47.97585,1.71223-71.98561,1.28546,9.03162-2.15187,17.60305-5.58147,25.70915-10.28365,6.1265-.35738,11.26833,1.35744,15.42549,5.14183,3.64812,2.44495,7.93127,3.30104,12.85457,2.57091-.48075-5.30635-1.76621-10.44818-3.85637-15.42548-.98467,1.42943-2.27013,2.28556-3.85637,2.57091-5.30638-3.517-11.30689-6.08791-17.9964-7.71274-.53732-1.50655-1.396-2.79201-2.57091-3.85637,10.26824-3.75355,10.26824-6.75379,0-8.9982Z" fill="#4f4502" fill-rule="evenodd" stroke-width="0"/><path d="M132.28382,329.17309c.27972,15.15809.70828,30.58357,1.28546,46.27644,5.37116-3.83322,10.51299-8.11896,15.42549-12.85457,4.50398-8.15493,9.64581-15.86767,15.42549-23.13822,2.57091,1.71482,5.14183,3.42701,7.71274,5.14183.85688,5.99792,1.71403,11.99847,2.57091,17.99639,4.28495,2.57091,8.56962,5.14183,12.85457,7.71274,5.42822-11.42514,13.13995-13.13992,23.13823-5.14183-.67615,3.73041-.24681,7.15741,1.28546,10.28365,12.32753,5.38093,25.1821,8.80794,38.56372,10.28365-1.11063,3.11082-2.82543,5.68174-5.14183,7.71274-4.15716-3.78438-9.29899-5.4992-15.42549-5.14183-8.10609,4.70219-16.67752,8.13178-25.70915,10.28365-8.73084,3.15193-15.58772,8.72312-20.56732,16.71094-2.91799,1.9256-5.48891,1.49882-7.71274-1.28546,3.58334-3.05167,3.15476-4.76648-1.28546-5.14183-6.26609,3.3422-12.69338,5.91311-19.28186,7.71274-1.38316-4.15718-2.24004-8.44287-2.57091-12.85457,4.9287-1.58368,7.92819-5.01327,8.9982-10.28365.8335,5.31922,2.97584,6.17532,6.42729,2.57091,1.71403,1.71482,3.42779,3.42701,5.14183,5.14183,7.71274-4.71246,15.42549-9.42756,23.13823-14.14002-10.55593-6.56866-21.69672-7.85412-33.42189-3.85637-.85688-2.14155-1.71403-4.28573-2.57091-6.42728,2.57913-6.34502,3.86459-12.7723,3.85637-19.28185-9.85508,11.56911-19.71044,23.13822-29.56552,34.70733,5.77736,3.28304,10.91919,7.13941,15.42549,11.56911-4.36851.41136-8.65344-.01542-12.85457-1.28546-2.47965-5.79483-5.05056-9.6512-7.71274-11.56911-2.16935-7.31425-3.88311-15.02699-5.14183-23.13822-.33576-13.74926,2.23515-26.60383,7.71274-38.5637Z" fill="#5e5202" fill-rule="evenodd" stroke-width="0"/><path d="M152.85114,403.72957h-2.57091c-4.5063-4.4297-9.64813-8.28607-15.42549-11.56911,9.85508-11.56911,19.71044-23.13822,29.56552-34.70733.00822,6.50955-1.27724,12.93683-3.85637,19.28185.85688,2.14155,1.71403,4.28573,2.57091,6.42728,11.72517-3.99775,22.86596-2.71229,33.42189,3.85637-7.71274,4.71246-15.42549,9.42756-23.13823,14.14002-1.71403-1.71482-3.42779-3.42701-5.14183-5.14183-3.45145,3.6044-5.59379,2.74831-6.42729-2.57091-1.07001,5.27038-4.0695,8.69998-8.9982,10.28365Z" fill="#8f7d0c" fill-rule="evenodd" stroke-width="0"/><path d="M314.81876,349.74039h10.28366c-4.77676,6.12648-8.20636,12.98312-10.28366,20.56731-1.69167-2.30867-3.4039-4.87958-5.14183-7.71274-4.70992,1.92305-8.99561,4.49396-12.85457,7.71274-1.71482-.85609-3.42701-1.71482-5.14183-2.57091-4.07747,4.30115-5.79229,9.44298-5.14183,15.42548h-7.71274v-12.85457h-7.71274c.82012,5.78455-.46533,10.92638-3.85637,15.42548-.85612-3.42701-1.7148-6.85664-2.57091-10.28365-2.57091.85609-5.14183,1.71482-7.71274,2.57091-1.25974-3.32419-1.68908-6.75379-1.28546-10.28365,8.26034.79698,15.97309-.05912,23.13823-2.57091,13.29935-2.37037,25.29779-7.5122,35.99281-15.42548Z" fill="#231e01" fill-rule="evenodd" stroke-width="0"/><path d="M132.28382,318.88943c24.83014,10.27593,48.82527,22.70372,71.98561,37.27824,8.54571,2.42435,17.11457,4.56594,25.70915,6.42728,10.26824,2.24441,10.26824,5.24465,0,8.9982,1.17491,1.06436,2.03359,2.34982,2.57091,3.85637,6.68951,1.62483,12.69003,4.19574,17.9964,7.71274v2.57091c-13.38162-1.47572-26.23619-4.90273-38.56372-10.28365-1.53227-3.12624-1.96161-6.55325-1.28546-10.28365-9.99829-7.99809-17.71001-6.28331-23.13823,5.14183-4.28495-2.57091-8.56962-5.14183-12.85457-7.71274-.85688-5.99792-1.71403-11.99847-2.57091-17.99639-2.57091-1.71482-5.14183-3.42701-7.71274-5.14183-5.77967,7.27055-10.9215,14.98329-15.42549,23.13822-4.9125,4.73561-10.05433,9.02134-15.42549,12.85457-.57718-15.69286-1.00573-31.11834-1.28546-46.27644v-10.28365Z" fill="#282201" fill-rule="evenodd" stroke-width="0"/><path d="M129.71291,318.88943h2.57091v10.28365c-5.47759,11.95987-8.04851,24.81444-7.71274,38.5637-20.6915-9.36585-43.82973-20.07883-69.4147-32.13642-4.71326-4.71246-9.42677-9.42756-14.14003-14.14002-5.43979-16.50271.98749-25.07154,19.28186-25.70913,23.39506,4.79477,45.24784,13.36619,65.55832,25.70913.98363-1.42943,2.26909-2.28556,3.85637-2.57091Z" fill="#decc53" fill-rule="evenodd" stroke-width="0"/><path d="M484.49913,298.32213c-13.06539,72.11927-51.62911,125.24976-115.69116,159.39663,8.13693-13.72353,5.56601-25.29264-7.71274-34.70733-19.86288-12.51265-41.28633-20.65471-64.27287-24.42368,4.24458-3.77925,8.95964-7.20625,14.14003-10.28365,1.24176-2.43722,1.66853-5.00813,1.28546-7.71274,2.40125-2.74572,3.25993-6.17277,2.57091-10.28365,2.0773-7.58419,5.50689-14.44083,10.28366-20.56731,13.47416-7.46595,25.47005-16.89347,35.99281-28.28005,10.32736-7.77959,18.89624-17.20456,25.70915-28.28005,14.56939,5.57119,29.13616,11.13975,43.70555,16.71094,14.9833,5.72544,30.40879,7.43767,46.27646,5.14183,2.48865-7.3991,5.05957-12.97025,7.71274-16.71094Z" fill="#cdba49" fill-rule="evenodd" stroke-width="0"/><path d="M355.9534,280.32573c-1.11579,11.0935-1.97189,21.37715-2.57091,30.85096-7.40425,1.2006-13.40217-.94095-17.9964-6.42728,8.91849-6.55325,15.77255-14.69276,20.56732-24.42368Z" fill="#6f5f01" fill-rule="evenodd" stroke-width="0"/><path d="M384.23346,259.75843c2.47065,4.53766,3.32933,9.67949,2.57091,15.42548v7.71274c-8.55087,12.8417-17.11971,25.69627-25.70915,38.5637-10.52276,11.38658-22.51865,20.8141-35.99281,28.28005h-10.28366c-8.99561.61958-9.85175-1.52197-2.57091-6.42728-23.78355,1.39345-46.92176,6.10851-69.4147,14.14002-12.60006-1.31629-24.59851-3.8872-35.99281-7.71274,1.8999.33678,3.6147-.09254,5.14183-1.28546-5.61744-12.95739-9.90316-26.24131-12.85457-39.84916,14.75191,13.38161,31.89219,21.09435,51.41829,23.13822.2648-6.9903-.59389-13.84435-2.57091-20.56731,2.3601-7.47109,5.78713-14.32514,10.28366-20.56731,8.84909-1.72765,15.7057.84327,20.56732,7.71274-1.27259,12.19383,4.72533,20.33593,17.9964,24.42368,15.92939,5.11354,31.35487,4.25486,46.27646-2.57091,2.26497-1.82019,3.9772-3.96437,5.14183-6.42728,2.55036.44219,4.26259-.41649,5.14183-2.57091.59903-9.47381,1.45512-19.75746,2.57091-30.85096,0-1.71482.8561-2.57091,2.57091-2.57091-.83299,10.42503.02315,20.70869,2.57091,30.85096,13.80066-11.31459,21.5134-25.88394,23.13823-43.70553v-5.14183Z" fill="#a79425" fill-rule="evenodd" stroke-width="0"/><path d="M278.82596,298.32213c3.42701,1.71482,5.99792,4.28573,7.71274,7.71274,1.07464,1.8562,2.78687,3.14166,5.14183,3.85637,18.84222,1.61455,37.69731,2.90001,56.56012,3.85637-1.16463,2.46292-2.87686,4.6071-5.14183,6.42728-14.92159,6.82577-30.34708,7.68446-46.27646,2.57091-13.27107-4.08774-19.26899-12.22984-17.9964-24.42368Z" fill="#736201" fill-rule="evenodd" stroke-width="0"/><path d="M345.66974,213.48199c4.48623,9.86973,8.34261,20.15338,11.56912,30.85096,3.19309,3.5273,7.04946,6.09821,11.56912,7.71274,1.9873,5.94653,3.70212,11.94447,5.14183,17.99639,1.94619,3.27276,3.65842,3.27276,5.14183,0,1.71482-1.71482,3.42701-3.42701,5.14183-5.14183-1.62483,17.82159-9.33757,32.39093-23.13823,43.70553-2.54777-10.14227-3.4039-20.42593-2.57091-30.85096,1.22375-9.97002-1.34716-18.54142-7.71274-25.70913-2.16729-10.34022-6.45298-19.76519-12.85457-28.28005,1.37545-4.52738,3.94636-7.95441,7.71274-10.28365Z" fill="#d4c24a" fill-rule="evenodd" stroke-width="0"/><path d="M327.67334,249.47477c7.89273-.33937,15.60547.51674,23.13823,2.57091,6.36558,7.16771,8.93649,15.73912,7.71274,25.70913-1.71482,0-2.57091.85609-2.57091,2.57091-4.79477,9.73092-11.64883,17.87043-20.56732,24.42368,4.59423,5.48634,10.59216,7.62789,17.9964,6.42728-.87924,2.15442-2.59147,3.0131-5.14183,2.57091-18.86282-.95636-37.7179-2.24182-56.56012-3.85637-2.35496-.71471-4.06719-2.00017-5.14183-3.85637,13.76469,4.27028,27.04858,3.41418,39.84918-2.57091,1.71482-2.57091,1.71482-5.14183,0-7.71274-9.33243-4.94129-14.90358-12.65403-16.71095-23.13822-.58361-6.25503,1.9873-10.53817,7.71274-12.85457.8561-5.99794,4.28573-9.42754,10.28366-10.28365Z" fill="#322b03" fill-rule="evenodd" stroke-width="0"/><path d="M453.64816,234.04929h17.9964c.42677,24.86587,0,49.7189-1.28546,74.55649-12.80828-10.66414-25.23608-21.80392-37.27826-33.42187-2.12614,10.17824-3.41159,20.4619-3.85637,30.85096-5.14183-5.14183-10.28366-10.28365-15.42549-15.42548-1.27773-6.80263-1.70709-13.65927-1.28546-20.56731h-10.28366v-7.71274c2.74572-2.40123,6.17277-3.25991,10.28366-2.57091-.8304-9.57922.02828-19.00676,2.57091-28.28005,12.18356,11.44056,24.60881,22.58289,37.27826,33.42187,1.28287-10.24766,1.71223-20.53131,1.28546-30.85096Z" fill="#b5a624" fill-rule="evenodd" stroke-width="0"/><path d="M317.38968,259.75843c8.24493-8.51229,17.67245-9.79774,28.28006-3.85637,7.66904,10.82097,5.09813,18.96307-7.71274,24.42368-1.91277-3.83322-3.625-7.68959-5.14183-11.56911-6.26276.13624-12.26068-.29053-17.9964-1.28546,1.61196-2.35753,2.47065-4.92844,2.57091-7.71274Z" fill="#594e01" fill-rule="evenodd" stroke-width="0"/><path d="M258.25864,290.60939c-4.49653,6.24216-7.92356,13.09622-10.28366,20.56731,1.97703,6.72295,2.83571,13.57701,2.57091,20.56731-19.5261-2.04387-36.66639-9.75661-51.41829-23.13822-7.31451-7.74357-14.17037-15.88568-20.56732-24.42368.42858-1.28546.85688-2.57091,1.28546-3.85637,6.71729,7.76158,14.85861,9.4764,24.42369,5.14183-3.64812-4.72019-6.64838-9.86202-8.9982-15.42548-8.47734-5.90024-16.19008-12.75687-23.13823-20.56731-1.71403-5.99794-1.71403-11.99845,0-17.99639,1.44306-1.34202,3.15708-2.19814,5.14183-2.57091,8.0832,5.51203,15.36739,11.93931,21.85277,19.28185,6.01079,2.15185,12.01131,4.29342,17.9964,6.42728,2.42181-.27766,4.56338-1.13378,6.42729-2.57091,1.7148,1.7148,1.7148,3.42703,0,5.14183-3.47844,3.04653-6.4787,6.47612-8.9982,10.28365,5.52747,6.81549,11.52541,13.24278,17.9964,19.28185,8.78995.63759,17.36138,1.92305,25.70915,3.85637Z" fill="#fdf4bb" fill-rule="evenodd" stroke-width="0"/><path d="M386.80437,185.20194c.20054,2.96966,1.05922,6.39747,2.57091,10.28365,26.09222,10.90838,51.80137,22.47749,77.12744,34.70733-4.83847.50904-9.12162,1.79449-12.85457,3.85637.42677,10.31965-.00259,20.6033-1.28546,30.85096-12.66945-10.83898-25.0947-21.98132-37.27826-33.42187-2.54263,9.27329-3.40132,18.70083-2.57091,28.28005-4.11089-.689-7.53794.16969-10.28366,2.57091-1.97448,1.96161-3.25993,4.53252-3.85637,7.71274-1.06436-1.17491-2.34982-2.03359-3.85637-2.57091-1.31374,6.12906-3.88466,11.27089-7.71274,15.42548v-7.71274c2.94371-9.79774,3.37303-20.0814,1.28546-30.85096-7.37337-15.45119-10.37365-31.73279-8.9982-48.84735,2.57091-3.42779,5.14183-6.85586,7.71274-10.28365Z" fill="#f5e761" fill-rule="evenodd" stroke-width="0"/><path d="M165.70571,172.34738c-6.02056.7065-6.02056,2.84883,0,6.42728,15.89751,6.43886,31.75079,12.86614,47.56192,19.28185,2.19041-2.75345,4.33198-5.32359,6.42729-7.71274-.58359,6.25503,1.98732,10.53817,7.71274,12.85457-.28537,1.58625-1.14149,2.8717-2.57091,3.85637,3.625,3.5273,7.91071,5.66887,12.85457,6.42728,9.52524,3.81267,18.95022,8.52515,28.28006,14.14002,6.86693,2.14157,12.86485.85611,17.9964-3.85637,10.04715,9.16788,20.33081,18.59542,30.85098,28.28005,2.80229-2.29068,2.80229-4.86159,0-7.71274,2.90001-1.95904,5.90024-3.67384,8.9982-5.14183.59644,3.18022,1.8819,5.75113,3.85637,7.71274v2.57091c-5.99792.85611-9.42756,4.28571-10.28366,10.28365-5.72544,2.3164-8.29635,6.59954-7.71274,12.85457-6.95174-8.69741-12.9497-18.12238-17.9964-28.28005-3.80753,2.5195-7.23713,5.51976-10.28366,8.9982-4.28573,1.7148-8.56884,1.7148-12.85457,0-11.99846-10.28365-23.99435-20.56731-35.99281-30.85096-12.56663-5.89767-24.56509-12.7543-35.99281-20.56731-5.99871-1.7148-11.99769-1.7148-17.9964,0-13.2582,4.20602-26.96967,7.20627-41.13464,8.9982-3.88079,18.37946-1.30988,35.94652,7.71274,52.70372-.60544,2.24441-1.46234,4.38855-2.57091,6.42728,10.08955,21.06606,22.08725,40.77724,35.99281,59.13101-45.88209-29.21072-66.44941-71.20144-61.70195-125.97475,13.10395-1.06693,25.95853-3.63784,38.56372-7.71274,6.37046-5.30559,6.37046-10.44741,0-15.42548,1.91738-3.17816,2.77453-6.60597,2.57091-10.28365,3.31905-.61007,5.88997.24681,7.71274,2.57091Z" fill="#d4c24b" fill-rule="evenodd" stroke-width="0"/><path d="M371.37889,192.91468c-5.09554,5.35521-7.66645,12.20927-7.71274,20.56731,7.12144,18.68282,12.26327,37.53533,15.42549,56.56009-1.48341,3.27276-3.19564,3.27276-5.14183,0-1.43971-6.05192-3.15453-12.04986-5.14183-17.99639-4.51966-1.61453-8.37603-4.18544-11.56912-7.71274-3.22651-10.69758-7.08288-20.98123-11.56912-30.85096,1.67367-1.51942,3.38845-3.23165,5.14183-5.14183,2.85113,2.80229,5.42204,2.80229,7.71274,0,1.71482-5.99794,3.42701-11.99845,5.14183-17.99639,3.99006-3.33678,6.56098-2.4799,7.71274,2.57091Z" fill="#f1e35d" fill-rule="evenodd" stroke-width="0"/><path d="M250.5459,185.20194h5.14183c2.40637,3.79056,5.83597,6.36148,10.28366,7.71274,3.31905,5.9928,2.46292,11.5614-2.57091,16.71094-8.29377,3.08252-16.86262,4.36798-25.70915,3.85637-4.94386-.75841-9.22957-2.89999-12.85457-6.42728,1.42943-.98467,2.28554-2.27012,2.57091-3.85637,9.14217,7.74873,16.85492,6.89005,23.13823-2.57091,3.71754,2.86142,8.00325,3.29077,12.85457,1.28546-3.8538-5.98509-8.13952-11.55522-12.85457-16.71094Z" fill="#484107" fill-rule="evenodd" stroke-width="0"/><path d="M309.67693,272.61299c1.80736,10.48419,7.37851,18.19693,16.71095,23.13822,1.71482,2.57091,1.71482,5.14183,0,7.71274-12.80059,5.98509-26.08449,6.84119-39.84918,2.57091-1.71482-3.42701-4.28573-5.99792-7.71274-7.71274-4.86162-6.86947-11.71823-9.44039-20.56732-7.71274-8.34776-1.93332-16.91919-3.21878-25.70915-3.85637-6.47099-6.03907-12.46893-12.46636-17.9964-19.28185,2.51951-3.80753,5.51976-7.23713,8.9982-10.28365,1.7148-1.7148,1.7148-3.42703,0-5.14183-1.86391,1.43714-4.00548,2.29325-6.42729,2.57091-5.9851-2.13386-11.98561-4.27543-17.9964-6.42728-6.48538-7.34254-13.76957-13.76982-21.85277-19.28185-1.98475.37277-3.69877,1.22889-5.14183,2.57091-1.71403,5.99794-1.71403,11.99845,0,17.99639,6.94815,7.81044,14.66089,14.66707,23.13823,20.56731,2.34982,5.56346,5.35008,10.70529,8.9982,15.42548-9.56508,4.33457-17.7064,2.61975-24.42369-5.14183-.42858,1.28546-.85688,2.57091-1.28546,3.85637,6.39694,8.538,13.25281,16.6801,20.56732,24.42368,2.95142,13.60784,7.23713,26.89177,12.85457,39.84916-1.52713,1.19292-3.24193,1.62224-5.14183,1.28546-8.32462-3.18281-16.03685-7.46595-23.13823-12.85457-1.71403-2.57091-3.42779-5.14183-5.14183-7.71274-13.90556-18.35377-25.90325-38.06494-35.99281-59.13101,1.10857-2.03873,1.96547-4.18287,2.57091-6.42728-9.02262-16.75721-11.59354-34.32426-7.71274-52.70372,14.16496-1.79192,27.87643-4.79218,41.13464-8.9982,5.99871-1.7148,11.99769-1.7148,17.9964,0,11.42772,7.81301,23.42617,14.66963,35.99281,20.56731,11.99846,10.28365,23.99435,20.56731,35.99281,30.85096,4.28573,1.7148,8.56884,1.7148,12.85457,0,3.04653-3.47844,6.47613-6.47869,10.28366-8.9982,5.0467,10.15767,11.04466,19.58264,17.9964,28.28005Z" fill="#f5e372" fill-rule="evenodd" stroke-width="0"/><path d="M44.87272,162.06372c1.39626.15425,2.25315,1.01115,2.57091,2.57091-13.84412,33.22649-20.69998,67.50705-20.56732,102.83653-4.26875-36.90804,1.72997-72.04471,17.9964-105.40745Z" fill="#96893c" fill-rule="evenodd" stroke-width="0"/><path d="M265.97138,192.91468c16.41528,3.84352,22.41579,14.12718,17.9964,30.85096-5.13155,4.71248-11.12948,5.99794-17.9964,3.85637-9.32984-5.61487-18.75482-10.32735-28.28006-14.14002,8.84652.51161,17.41538-.77385,25.70915-3.85637,5.03383-5.14954,5.88997-10.71813,2.57091-16.71094Z" fill="#ac9e1d" fill-rule="evenodd" stroke-width="0"/><path d="M371.37889,192.91468c.42936,16.26359,4.28573,31.68907,11.56912,46.27644,1.27773,6.80265,1.70709,13.65927,1.28546,20.56731v5.14183c-1.71482,1.71482-3.42701,3.42701-5.14183,5.14183-3.16221-19.02476-8.30404-37.87727-15.42549-56.56009.04629-8.35804,2.6172-15.21209,7.71274-20.56731Z" fill="#fdfaeb" fill-rule="evenodd" stroke-width="0"/><path d="M250.5459,185.20194c4.71506,5.15571,9.00077,10.72584,12.85457,16.71094-4.85132,2.00531-9.13703,1.57597-12.85457-1.28546-1.1672-5.76141-1.1672-10.90349,0-15.42548Z" fill="#e5e1af" fill-rule="evenodd" stroke-width="0"/><path d="M247.97498,182.63103c1.7148,0,2.57091.85688,2.57091,2.57091-1.1672,4.52199-1.1672,9.66407,0,15.42548-6.28332,9.46096-13.99606,10.31965-23.13823,2.57091-5.72542-2.3164-8.29633-6.59954-7.71274-12.85457,1.8562-2.70229,4.42712-4.41631,7.71274-5.14183,6.6741-1.96751,13.53073-2.82467,20.56732-2.57091Z" fill="#151308" fill-rule="evenodd" stroke-width="0"/><path d="M463.93181,144.06733c8.66656,17.34802,15.94994,35.34441,21.85277,53.98918,2.05929,7.3708,1.62997,14.22743-1.28546,20.56731-3.57357-25.28775-11.28631-49.28287-23.13823-71.98557.31878-1.55977,1.17491-2.41666,2.57091-2.57091Z" fill="#968a3d" fill-rule="evenodd" stroke-width="0"/><path d="M314.81876,162.06372c12.82888,42.49462,1.25976,50.20736-34.70735,23.13822-8.4326-13.41297-12.28897-27.98157-11.56912-43.70553-.33678-1.89965.09254-3.61368,1.28546-5.14183,10.19626,7.62018,19.62378,16.19007,28.28006,25.70913,3.16994-7.49961,7.02631-14.35521,11.56912-20.56731,2.57091.85688,4.28573,2.57091,5.14183,5.14183-3.22392,5.50972-3.22392,10.65154,0,15.42548Z" fill="#f1e35d" fill-rule="evenodd" stroke-width="0"/><path d="M165.70571,131.21276c.92245,4.81018,3.49337,8.66655,7.71274,11.56911-3.93864,1.79836-6.50955,4.79785-7.71274,8.9982,4.46336,10.1294,1.03557,14.41433-10.28366,12.85457,3.14191-3.69439,3.14191-7.55076,0-11.56911.28461-4.42582,1.57006-4.8544,3.85637-1.28546.71832-7.60168,2.86066-14.45727,6.42729-20.56731Z" fill="#766c00" fill-rule="evenodd" stroke-width="0"/><path d="M137.42565,154.35098c5.65061,4.10857,11.64959,7.53637,17.9964,10.28365-2.52978,6.60827-5.52928,6.60827-8.9982,0-1.26541,2.6969-.83709,5.26781,1.28546,7.71274-1.96006,1.05561-4.53097,1.48419-7.71274,1.28546,3.07379,1.68214,3.07379,2.9676,0,3.85637-4.28495-2.57091-7.71274-5.99871-10.28366-10.28365,2.121-2.27705,4.69191-3.13395,7.71274-2.57091v-10.28365Z" fill="#736701" fill-rule="evenodd" stroke-width="0"/><path d="M386.80437,185.20194c-2.57091,3.42779-5.14183,6.85586-7.71274,10.28365.17225-3.7502-.68388-7.17824-2.57091-10.28365.48848-6.32162-2.08243-10.60631-7.71274-12.85457,0-1.71403.8561-2.57091,2.57091-2.57091,13.52559-5.37861,23.37988-14.80537,29.56552-28.28005,2.09016-4.97652,3.37562-10.11834,3.85637-15.42548-4.92328-.73143-9.20643.12571-12.85457,2.57091-2.70461-.38435-5.27552.04421-7.71274,1.28546-3.16994,4.28495-6.59954,8.14132-10.28366,11.56911-.55019-4.22632.3085-8.08269,2.57091-11.56911,13.57188-4.85979,26.42645-10.85852,38.56372-17.99639-11.56912.14295-23.13823,1.42841-34.70735,3.85637-1.96675-.17971-3.25221-1.03684-3.85637-2.57091,18.1301-6.44913,36.1265-6.44913,53.98921,0-3.77152,9.17559-6.7718,18.60236-8.9982,28.28005-9.40183,16.64307-20.97095,31.2114-34.70735,43.70553Z" fill="#aa9820" fill-rule="evenodd" stroke-width="0"/><path d="M391.9462,128.64185c-5.44778,14.32179-12.30184,28.03324-20.56732,41.13461-1.71482,0-2.57091.85688-2.57091,2.57091-1.53484-.60468-2.39093-1.89013-2.57091-3.85637,1.6171-8.88688,4.18801-17.88508,7.71274-26.99459,3.68412-3.42779,7.11372-7.28416,10.28366-11.56911,2.43722-1.24125,5.00814-1.6698,7.71274-1.28546Z" fill="#2e2801" fill-rule="evenodd" stroke-width="0"/><path d="M211.98218,113.21637c19.46182,10.61247,38.31434,20.03924,56.56012,28.28005-.71985,15.72395,3.13652,30.29255,11.56912,43.70553,35.96711,27.06914,47.53623,19.3564,34.70735-23.13822,19.86547,7.26669,40.43279,14.97943,61.70195,23.13822,1.88703,3.10541,2.74317,6.53346,2.57091,10.28365-1.37545,17.11456,1.62483,33.39616,8.9982,48.84735,2.08757,10.76956,1.65825,21.05322-1.28546,30.85096.75842-5.74599-.10027-10.88782-2.57091-15.42548.42163-6.90803-.00773-13.76466-1.28546-20.56731-7.28338-14.58737-11.13975-30.01285-11.56912-46.27644-1.15176-5.05082-3.72268-5.90769-7.71274-2.57091-1.71482,5.99794-3.42701,11.99845-5.14183,17.99639-2.2907,2.80229-4.86162,2.80229-7.71274,0-1.75338,1.91018-3.46816,3.62241-5.14183,5.14183,1.01552-9.47381,1.44484-18.90135,1.28546-28.28005-6.32702-6.51265-10.18339-4.79887-11.56912,5.14183-7.89528,5.18553-10.46619,12.03958-7.71274,20.56731,1.95902,12.46636,5.38607,24.46481,10.28366,35.99279h-10.28366c-1.97448-1.96161-3.25993-4.53252-3.85637-7.71274-3.09796,1.46799-6.09819,3.18279-8.9982,5.14183,2.80229,2.85115,2.80229,5.42206,0,7.71274-10.52017-9.68463-20.80383-19.11216-30.85098-28.28005,4.41939-16.72378-1.58113-27.00744-17.9964-30.85096-4.44769-1.35126-7.87729-3.92218-10.28366-7.71274,3.77411-5.42694,2.91799-10.14045-2.57091-14.14002-8.00069-3.3571-16.14277-6.35632-24.42369-8.9982-6.52499,8.04438-9.52524,17.47116-8.9982,28.28005-2.0953,2.38915-4.23687,4.95929-6.42729,7.71274-15.81113-6.41571-31.66441-12.84299-47.56192-19.28185-6.02056-3.57845-6.02056-5.72079,0-6.42728,23.71129-3.56919,36.13678-17.28066,37.27826-41.13461,4.83074-5.21073,7.831-11.20969,8.9982-17.99639Z" fill="#d4c640" fill-rule="evenodd" stroke-width="0"/><path d="M345.66974,213.48199c-3.76638,2.32924-6.3373,5.75627-7.71274,10.28365,6.40159,8.51486,10.68729,17.93982,12.85457,28.28005-7.53276-2.05417-15.24551-2.91028-23.13823-2.57091v-2.57091h10.28366c-4.89759-11.52798-8.32464-23.52643-10.28366-35.99279,5.75372,2.77145,10.89555,1.486,15.42549-3.85637-1.62483-6.20876-4.19574-11.77993-7.71274-16.71094,1.38573-9.94069,5.2421-11.65447,11.56912-5.14183.15939,9.3787-.26994,18.80624-1.28546,28.28005Z" fill="#948715" fill-rule="evenodd" stroke-width="0"/><path d="M335.38608,190.34377c3.517,4.93101,6.08792,10.50218,7.71274,16.71094-4.52993,5.34237-9.67176,6.62782-15.42549,3.85637-2.75345-8.52772-.18253-15.38178,7.71274-20.56731Z" fill="#2b2812" fill-rule="evenodd" stroke-width="0"/><path d="M255.68773,185.20194h-5.14183c0-1.71403-.85612-2.57091-2.57091-2.57091-2.43979-1.67726-5.43748-2.53416-8.9982-2.57091-5.16241-.4967-9.01878,1.21734-11.56912,5.14183-3.28563.72552-5.85654,2.43954-7.71274,5.14183-.52704-10.80889,2.47321-20.23566,8.9982-28.28005,8.28092,2.64188,16.423,5.64109,24.42369,8.9982,5.48891,3.99958,6.34502,8.71308,2.57091,14.14002Z" fill="#afa31a" fill-rule="evenodd" stroke-width="0"/><path d="M247.97498,182.63103c-7.03659-.25375-13.89322.6034-20.56732,2.57091,2.55034-3.92449,6.40671-5.63852,11.56912-5.14183,3.56072.03676,6.55841.89366,8.9982,2.57091Z" fill="#4c4507" fill-rule="evenodd" stroke-width="0"/><path d="M371.37889,169.77646c8.26548-13.10138,15.11954-26.81282,20.56732-41.13461,3.64814-2.4452,7.93129-3.30234,12.85457-2.57091-.48075,5.30714-1.76621,10.44896-3.85637,15.42548-6.18564,13.47468-16.03993,22.90143-29.56552,28.28005Z" fill="#685a01" fill-rule="evenodd" stroke-width="0"/><path d="M145.13839,108.07454c8.55833,5.99949,15.41417,13.71223,20.56732,23.13822-3.56663,6.11004-5.70896,12.96562-6.42729,20.56731-2.28631-3.56894-3.57177-3.14036-3.85637,1.28546,3.14191,4.01835,3.14191,7.87472,0,11.56911-6.34681-2.74729-12.34579-6.17508-17.9964-10.28365.54889-4.22632-.30799-8.08269-2.57091-11.56911,5.22358-10.91918,8.65138-22.48829,10.28366-34.70733Z" fill="#302c01" fill-rule="evenodd" stroke-width="0"/><path d="M145.13839,108.07454c-1.63228,12.21904-5.06008,23.78815-10.28366,34.70733,2.26293,3.48642,3.11981,7.34279,2.57091,11.56911-6.21082-7.21989-11.35265-6.36301-15.42549,2.57091-.85688-1.71403-1.71403-3.42779-2.57091-5.14183,2.94241-15.31827,8.08424-29.88687,15.42549-43.70553,3.08458-2.03514,6.51237-2.03514,10.28366,0Z" fill="#756b01" fill-rule="evenodd" stroke-width="0"/><path d="M165.70571,131.21276c-5.15315-9.42599-12.00899-17.13873-20.56732-23.13822,2.97996-4.82535,7.26489-6.1108,12.85457-3.85637,5.81361,4.6608,11.81259,8.51717,17.9964,11.56911,1.63973,8.62774-1.78833,13.76956-10.28366,15.42548Z" fill="#766b00" fill-rule="evenodd" stroke-width="0"/><path d="M62.86912,406.30049c57.5687,68.18318,131.26833,99.89028,221.09866,95.12379-32.51437,4.02349-65.08014,2.30867-97.69476-5.14183-46.64565-17.13257-87.35197-43.6978-122.11845-79.69831-1.25975-3.32419-1.68832-6.75379-1.28546-10.28365Z" fill="#9d7126" fill-rule="evenodd" stroke-width="0"/></svg>