<svg id="Layer_1" data-name="Layer 1" xmlns="http://www.w3.org/2000/svg" viewBox="0 0 1000 1000"><defs><linearGradient id="linear-gradient" x1="499.81" y1="8" x2="499.81" y2="990.7" gradientUnits="userSpaceOnUse"><stop offset=".01" stop-color="#6172b0"/><stop offset=".08" stop-color="#495b9e"/><stop offset=".09" stop-color="#485a9d"/><stop offset=".37" stop-color="#2f4387"/><stop offset=".55" stop-color="#253a7e"/><stop offset="1" stop-color="#20326e"/></linearGradient><style>.cls-2{fill:#fff}</style></defs><circle cx="499.81" cy="499.35" r="491.35" fill="url(#linear-gradient)"/><path class="cls-2" d="M509.63 631.23S611.36 656.27 692 593s78-158.83 78-158.83-91.18-28.38-174 32-86.37 165.06-86.37 165.06zM509.3 679s16.57 71.62 81.77 102 124.15-1.46 124.15-1.46-11.14-66.08-75.2-98.8S509.3 679 509.3 679zM662.59 648s35.17 39.11 86.51 35.56 77.22-43.9 77.22-43.9-29.85-37.54-81.32-35.85S662.59 648 662.59 648zM611.15 401.14s-54.22-89.63-156-101.85-167.45 57.08-167.45 57.08 44.41 84.54 145.66 100.42 177.79-55.65 177.79-55.65zM645.15 367.62s38.92-62.36 14.31-130-88.82-86.75-88.82-86.75S531.79 205.52 554 274s91.15 93.62 91.15 93.62zM514.84 281.15s2.77-52.53-36-86.32-85.65-23.56-85.65-23.56-5.42 47.64 32.14 82.81 89.51 27.07 89.51 27.07zM423.52 524.33s-89.63 54.23-101.85 156 57.08 167.47 57.08 167.47 84.54-44.41 100.42-145.67-55.65-177.8-55.65-177.8zM390 490.33S327.63 451.41 260.05 476s-86.75 88.82-86.75 88.82 54.6 38.85 123 16.7 93.7-91.19 93.7-91.19zM303.53 620.65s-52.53-2.78-86.32 36-23.56 85.64-23.56 85.64 47.64 5.42 82.81-32.14 27.07-89.5 27.07-89.5z"/></svg>