<?xml version="1.0" encoding="utf-8"?>
<!-- Generator: Adobe Illustrator 24.3.0, SVG Export Plug-In . SVG Version: 6.00 Build 0)  -->
<svg version="1.1" id="Layer_1" xmlns="http://www.w3.org/2000/svg" xmlns:xlink="http://www.w3.org/1999/xlink" x="0px" y="0px"
	 width="50px" height="50px" viewBox="0 0 50 50" style="enable-background:new 0 0 50 50;" xml:space="preserve">
<style type="text/css">
	.st0{fill:#EEF4F4;}
	.st1{fill:#050708;}
	.st2{fill:#FFFFFF;}
</style>
<g>
	<circle class="st0" cx="25" cy="25" r="25"/>
	<g id="Layer_2_1_">
		<g id="Layer_1-2">
			<path class="st1" d="M42.2,31.6c0-4.4,0-8.8,0-13.3c0-0.5-0.2-0.9-0.6-1.2c-5.3-3.8-10.5-7.7-15.8-11.5c-0.3-0.3-0.7-0.4-1.1-0.3
				c-0.2,0-0.5,0.2-0.7,0.3c-5.2,3.8-10.5,7.6-15.7,11.5c-0.4,0.3-0.6,0.7-0.6,1.2c0,4.4,0,8.8,0,13.2c0,0.5,0.2,0.9,0.6,1.2
				c5.2,3.8,10.5,7.6,15.7,11.5c0.5,0.4,1.3,0.5,1.8,0c5.2-3.8,10.5-7.7,15.7-11.5C42,32.6,42.3,32.1,42.2,31.6"/>
			<path class="st2" d="M23.2,8.6c0.1-0.2,0.3-0.4,0.5-0.4c0.8,0,1.7,0,2.5,0c0.1,0.1,0.3,0.2,0.4,0.3c0,0.9,0,1.7,0,2.6
				c-0.2,0-0.5,0-0.7,0c0-0.1,0-0.2-0.1-0.2c0-0.6,0.1-1.3,0-1.9c-0.6,0-1.2,0-1.8,0c0,0.2,0,0.4,0,0.6c-0.3,0-0.5,0-0.8,0
				C23.2,9.2,23.1,8.9,23.2,8.6"/>
			<path class="st2" d="M21.1,9.6c0.3,0,0.6,0,0.8,0c0,1.2,0,2.4,0,3.5c-0.3,0-0.5,0-0.8,0C21.1,12,21.1,10.8,21.1,9.6"/>
			<path class="st2" d="M28.2,10.9c0.7,0,1.5,0,2.2,0c0,0.3,0,0.5,0,0.8c-0.7,0-1.5,0-2.2,0C28.2,11.4,28.2,11.1,28.2,10.9"/>
			<path class="st2" d="M23.7,11.3c0.3,0,0.6,0,0.9,0c0.3,0.6,0.6,1.1,0.9,1.7c-0.3,0-0.6,0-0.8,0C24.3,12.4,24,11.8,23.7,11.3"/>
			<path class="st2" d="M26.8,12.3c0.3,0,0.5,0,0.8,0c0.7,1.1,1.4,2.2,2.1,3.3c0,0.3,0,0.7,0,1c-0.1,0-0.2,0-0.3-0.1
				c-0.6-0.9-1.2-1.8-1.8-2.7c0,1,0,2,0,3.1c-0.3,0-0.5,0-0.8,0C26.8,15.3,26.8,13.8,26.8,12.3"/>
			<path class="st2" d="M30,12.9c0.3,0,0.6,0,0.8,0c0,0.3,0,0.5,0,0.8c-0.3,0-0.6,0-0.8,0C30,13.4,30,13.1,30,12.9"/>
			<path class="st2" d="M16.3,13.1c0.2,0,0.4,0,0.7,0c0.6,0,1.2,0,1.8,0c0,0.3,0,0.5,0,0.8c-0.9,0.5-1.7,1.1-2.6,1.6
				c-0.3-0.1-0.5-0.3-0.7-0.5c0.6-0.3,1.1-0.7,1.7-1.1c-0.3,0-0.6,0-0.9,0C16.3,13.7,16.3,13.4,16.3,13.1"/>
			<path class="st2" d="M23.2,13.4c0.3,0,0.5,0,0.8,0c0,0.3,0,0.5,0,0.8c-0.3,0-0.5,0-0.8,0C23.2,14,23.2,13.7,23.2,13.4"/>
			<path class="st2" d="M19.3,14.2c0.4,0.7,0.8,1.3,1.3,2c0.4-0.7,0.9-1.3,1.3-2c0,0.4,0,0.9,0,1.3c-0.4,0.7-0.9,1.3-1.3,2
				c-0.4-0.7-0.9-1.3-1.3-2C19.3,15.1,19.3,14.7,19.3,14.2"/>
			<path class="st2" d="M31.2,14.3c1.3,0,2.6,0,3.9,0c0,0.3,0,0.5,0,0.8c-1.3,0-2.6,0-3.9,0C31.2,14.9,31.2,14.6,31.2,14.3"/>
			<path class="st2" d="M24.4,15.4c0.3,0,0.5,0,0.8,0c0,1.1,0,2.3,0,3.4c-0.1,0.1-0.2,0.2-0.4,0.3c-0.9,0-1.8,0-2.7,0
				c-0.1-0.1-0.2-0.2-0.3-0.3c0-0.4,0-0.7,0-1.1c0.2,0,0.5,0,0.7,0c0,0.2,0,0.4,0,0.6c0.6,0.1,1.2,0,1.9,0
				C24.4,17.4,24.3,16.4,24.4,15.4"/>
			<path class="st2" d="M36.8,18.7c0-0.9,0-1.7,0-2.6c0.3,0,0.5,0,0.8,0c0,0.9,0,1.7,0,2.6C37.4,18.7,37.1,18.7,36.8,18.7"/>
			<path class="st2" d="M33,16.8c0.5,0,1-0.1,1.5,0c0.3,1.1,0.6,2.2,0.9,3.3c-0.3,0-0.5,0-0.8,0c-0.2-0.8-0.5-1.7-0.7-2.5
				c-0.1,0-0.3,0-0.4,0c-0.2,0.8-0.5,1.7-0.7,2.5c-0.3,0-0.5,0-0.8,0C32.4,19,32.7,17.9,33,16.8"/>
			<path class="st2" d="M11.2,17.2c1.2,0,2.4,0,3.5,0c0,0.3,0,0.5,0,0.8c-1.2,0-2.4,0-3.5,0C11.1,17.7,11.1,17.5,11.2,17.2"/>
			<path class="st2" d="M15.2,17.2c0.3,0,0.5,0,0.8,0c0,0.3,0,0.5,0,0.8c-0.3,0-0.5,0-0.8,0C15.2,17.8,15.2,17.5,15.2,17.2"/>
			<path class="st2" d="M18.2,17.2c0.3,0,0.5,0,0.8,0c0,0.6,0,1.3,0,1.9c-0.3,0-0.5,0-0.8,0C18.2,18.5,18.2,17.9,18.2,17.2"/>
			<path class="st2" d="M38.8,17.8c0.3,0,0.6,0,0.9,0c0.3,0.6,0.7,1.1,0.9,1.7c-0.3,0-0.6,0-0.8,0C39.4,18.9,39.1,18.4,38.8,17.8"/>
			<path class="st2" d="M26.9,18.5c0.3,0,0.5,0,0.8,0c0,0.9,0,1.7,0,2.6c-0.3,0-0.5,0-0.8,0C26.9,20.2,26.9,19.3,26.9,18.5"/>
			<path class="st2" d="M29.6,19.5c0-0.3,0-0.5,0-0.8c0.3,0,0.5,0,0.8,0c0,0.3,0,0.5,0,0.8C30.1,19.5,29.9,19.5,29.6,19.5"/>
			<path class="st2" d="M14.7,20.7c0.6-0.5,1.3-0.9,2-1.3c0.4,0,0.9,0,1.3,0c-0.6,0.5-1.3,0.9-2,1.3c0.7,0.4,1.3,0.9,2,1.3
				c-0.4,0-0.9,0-1.3,0C16,21.6,15.3,21.2,14.7,20.7"/>
			<path class="st2" d="M36.8,20c0.3,0,0.5,0,0.8,0c0,0.3,0,0.5,0,0.8c-0.3,0-0.5,0-0.8,0C36.8,20.5,36.8,20.2,36.8,20"/>
			<path class="st2" d="M9,20.1c1.4,0,2.7,0,4.1,0c0,0.3,0,0.5,0,0.8c-0.6,0.4-1.2,0.8-1.8,1.2c-0.3-0.1-0.5-0.3-0.7-0.5
				c0.3-0.2,0.7-0.4,1-0.6c-0.9,0-1.7,0-2.6,0C9,20.6,9,20.4,9,20.1"/>
			<path class="st2" d="M20.6,20.9c1.2,0,2.3,0,3.5,0c0,0.3,0,0.5,0,0.8c-1.2,0-2.3,0-3.5,0C20.6,21.4,20.6,21.1,20.6,20.9"/>
			<path class="st2" d="M24.9,20.9c0.3,0,0.6,0,0.8,0c0,0.3,0,0.5,0,0.8c-0.3,0-0.6,0-0.8,0C24.9,21.4,24.9,21.1,24.9,20.9"/>
			<path class="st2" d="M28.6,22c0-0.3,0.2-0.4,0.4-0.6c0.3,0,0.7,0,1,0c0,0.3,0,0.5,0,0.8c-0.2,0-0.4,0-0.7,0V24c1,0,2,0,3,0
				c0,0.3,0,0.5,0,0.8c-1.1,0-2.3,0-3.4,0c-0.1-0.2-0.4-0.3-0.4-0.6C28.6,23.5,28.6,22.7,28.6,22"/>
			<path class="st2" d="M32.4,21.8c0.3,0,0.6,0,0.8,0c0,0.3,0,0.5,0,0.8c-0.3,0-0.6,0-0.8,0C32.4,22.3,32.4,22,32.4,21.8"/>
			<path class="st2" d="M35.1,21.8c1.2,0,2.4,0,3.5,0c0,0.3,0,0.5,0,0.8c-1.2,0-2.4,0-3.5,0C35.1,22.3,35.1,22,35.1,21.8"/>
			<path class="st2" d="M18.7,22.7c0.7,0,1.3,0,2,0c0,0.3,0,0.5,0,0.8c-0.7,0-1.3,0-2,0C18.7,23.3,18.7,23,18.7,22.7"/>
			<path class="st2" d="M23.1,22.7c1,0,2.1,0,3.1,0c0.4-0.1,0.8,0.3,0.7,0.7c0,0.8,0,1.5,0,2.3c-0.1,0.1-0.3,0.3-0.4,0.4
				c-0.3,0-0.7,0-1,0c0-0.3,0-0.5,0-0.8c0.2,0,0.4,0,0.6,0c0-0.6,0-1.2,0-1.8c-1-0.1-2,0-3,0C23.1,23.2,23.1,23,23.1,22.7"/>
			<path class="st2" d="M15.8,22.9c0.5,0,1,0,1.5,0c0.3,1.1,0.6,2.2,0.9,3.3c-0.3,0-0.5,0-0.8,0c-0.3-0.8-0.5-1.7-0.7-2.5
				c-0.1,0-0.3,0-0.4,0c-0.2,0.8-0.5,1.7-0.7,2.5c-0.3,0-0.5,0-0.8,0C15.1,25.1,15.4,24,15.8,22.9"/>
			<path class="st2" d="M37.9,23.9c0.9,0,1.8,0,2.7,0c0.2,0.1,0.5,0.4,0.4,0.7c0,0.6,0,1.3,0,1.9c0,0.3,0,0.6,0,0.9
				c0,0.2-0.1,0.5,0,0.7c-0.3,0-0.5,0-0.8,0c0-1.1,0-2.3,0-3.4c-0.6,0-1.2,0-1.9,0c0,0.2,0,0.4,0,0.6c-0.3,0-0.5,0-0.8,0
				c0-0.3,0-0.7,0-1C37.6,24.2,37.8,24.1,37.9,23.9"/>
			<path class="st2" d="M12.7,24h0.8c0,0.9,0,1.7,0,2.6h-0.8C12.7,25.7,12.7,24.8,12.7,24"/>
			<path class="st2" d="M10.2,24.7c0.3,0,0.5,0,0.8,0c0,0.3,0,0.5,0,0.8c-0.3,0-0.5,0-0.8,0C10.2,25.2,10.2,25,10.2,24.7"/>
			<path class="st2" d="M19.8,29.4c0-1.5,0-3.1,0-4.6c0.3,0,0.5,0,0.8,0c0.6,1,1.3,2,1.9,3c0.3,0.4,0.1,0.8,0.2,1.3
				c-0.1,0-0.2,0-0.3,0c-0.6-0.9-1.2-1.8-1.7-2.7c-0.1,1,0,2-0.1,3C20.3,29.4,20.1,29.4,19.8,29.4"/>
			<path class="st2" d="M23.4,25.4c0.3,0,0.5,0,0.8,0c0,0.7,0,1.3,0,2c-0.3,0-0.5,0-0.8,0C23.4,26.8,23.4,26.1,23.4,25.4"/>
			<path class="st2" d="M28.3,26.3c0.3,0,0.5,0,0.8,0c0,0.3,0,0.5,0,0.8c-0.3,0-0.5,0-0.8,0C28.3,26.9,28.3,26.6,28.3,26.3"/>
			<path class="st2" d="M30.9,26.4c0.8,0,1.7,0,2.5,0c0,0.2,0.1,0.5,0,0.7c-0.1,0.2-0.3,0.1-0.4,0.1c-0.7,0-1.4,0-2.1,0
				C30.9,26.9,30.9,26.6,30.9,26.4"/>
			<path class="st2" d="M34.3,26.5c0.3,0,0.5,0,0.8,0c0,0.9,0,1.9,0,2.8c-0.3,0-0.5,0-0.8,0C34.2,28.4,34.2,27.4,34.3,26.5"/>
			<path class="st2" d="M26.9,27c0.3,0,0.5,0,0.8,0c0,0.3,0,0.5,0,0.8c-0.3,0-0.5,0-0.8,0C26.9,27.6,26.9,27.3,26.9,27"/>
			<path class="st2" d="M14.3,27.6c0.9-0.1,1.9,0,2.8-0.1c0.2,0,0.5,0,0.7,0c0,0.3,0,0.5,0,0.8c-1.2,0-2.4,0-3.5,0
				C14.3,28.1,14.3,27.9,14.3,27.6"/>
			<path class="st2" d="M9,28.2c0.1-0.1,0.3-0.3,0.4-0.4c0.3,0,0.7,0,1,0c0,0.3,0,0.5,0,0.8c-0.2,0-0.4,0-0.6,0c0,0.6,0,1.2,0,1.8
				c1,0,2,0,3,0c0,0.3,0,0.5,0,0.8c-0.2,0-0.5,0-0.7,0c-0.9,0-1.8,0-2.7,0C9.2,31.1,9.1,31,9,30.8C9,30,9,29.1,9,28.2"/>
			<path class="st2" d="M29.8,28.7c0.1-0.1,0.3-0.3,0.4-0.4c0.9,0,1.7,0,2.6,0c0.1,0.1,0.3,0.3,0.4,0.4c0,0.9,0,1.7,0,2.6
				c-0.3,0-0.5,0-0.8,0c0-0.7,0-1.4,0-2.2c-0.6,0-1.2,0-1.8,0c0,0.2,0,0.4,0,0.7c-0.3,0-0.5,0-0.8,0C29.8,29.4,29.8,29.1,29.8,28.7"
				/>
			<path class="st2" d="M35.4,30.2c1-0.6,1.9-1.2,2.9-1.8c0.2,0.2,0.5,0.3,0.7,0.5c-0.7,0.4-1.4,0.9-2.1,1.3c1,0,2,0,3.1,0
				c0,0.3,0,0.5,0,0.8c-1.5,0-3,0-4.6,0C35.4,30.7,35.4,30.5,35.4,30.2"/>
			<path class="st2" d="M24.5,30.4c1-0.6,2-1.2,2.9-1.9c0.2,0.2,0.5,0.3,0.7,0.5c-0.7,0.5-1.4,0.9-2.1,1.3c1,0,2,0,3.1,0
				c0,0.3,0,0.6,0,0.8c-1.5,0-3.1,0-4.6,0C24.5,30.9,24.5,30.6,24.5,30.4"/>
			<path class="st2" d="M14.4,29.7c0.4,0.6,0.8,1.3,1.3,1.9c0.4-0.6,0.9-1.3,1.3-2c0,0.4,0,0.9,0,1.3c-0.4,0.6-0.8,1.3-1.3,2
				c-0.4-0.6-0.8-1.3-1.3-1.9C14.4,30.6,14.4,30.1,14.4,29.7"/>
			<path class="st2" d="M19.1,31.4c0-0.3,0-0.6,0-0.8c0.3,0,0.5,0,0.8,0c0,0.3,0,0.5,0,0.8C19.6,31.4,19.4,31.4,19.1,31.4"/>
			<path class="st2" d="M22.9,31.8c0.3,0,0.5,0,0.8,0c0,1,0,2,0,3c-0.2,0-0.4,0-0.6,0c-0.1,0-0.2,0-0.2,0
				C22.9,33.8,22.9,32.8,22.9,31.8"/>
			<path class="st2" d="M28.5,32.4c0.5,0,1,0,1.5,0c0.3,1.1,0.6,2.2,0.9,3.3c-0.3,0-0.5,0-0.8,0c-0.2-0.8-0.5-1.7-0.7-2.5
				c-0.1,0-0.3,0-0.4,0c-0.2,0.8-0.5,1.7-0.7,2.5c-0.3,0-0.5,0-0.8,0C27.8,34.6,28.2,33.5,28.5,32.4"/>
			<path class="st2" d="M16.9,34.2c1-0.6,1.9-1.3,2.9-1.9c0.2,0.2,0.5,0.3,0.7,0.5c-0.7,0.4-1.4,0.9-2.1,1.3c1,0,2.1,0,3.1,0
				c0,0.3,0,0.5,0,0.8c-1.5,0-3.1,0-4.6,0C16.9,34.7,16.9,34.5,16.9,34.2"/>
			<path class="st2" d="M24.9,32.5c0.3,0,0.6,0,0.9-0.1c0.3,0.5,0.7,1.1,0.9,1.7c-0.3,0-0.5,0-0.8,0C25.6,33.7,25.2,33.1,24.9,32.5"
				/>
			<path class="st2" d="M36.2,32.9c0.3,0,0.6,0,0.8,0c0,0.3,0,0.5,0,0.8c-0.3,0-0.6,0-0.8,0C36.2,33.4,36.2,33.1,36.2,32.9"/>
			<path class="st2" d="M34.1,35c0.3-0.5,0.7-1.1,1-1.6c0,0.4,0,0.8,0,1.2c0,0.2-0.1,0.3-0.2,0.4c-0.4,0.6-0.7,1.1-1.1,1.7
				c-0.4-0.7-0.9-1.3-1.3-2c0-0.4,0-0.9,0-1.3c0.4,0.6,0.8,1.3,1.3,1.9C34,35.2,34,35.1,34.1,35"/>
			<path class="st2" d="M13.4,34.2c0.7,0,1.4,0,2.1,0c0,0.3,0,0.5,0,0.8c-0.7,0-1.4,0-2.1,0C13.4,34.8,13.4,34.5,13.4,34.2"/>
			<path class="st2" d="M22.1,36c1.1,0,2.3,0,3.4,0c0.1,0.1,0.3,0.3,0.4,0.4c0,0.9,0,1.7,0,2.6c-0.1,0.1-0.2,0.2-0.3,0.4
				c-0.4,0-0.7,0-1.1,0c0-0.2,0-0.5,0-0.7c0.2,0,0.4,0,0.6,0c0-0.6,0-1.2,0-1.8c-1,0-2,0-3,0C22.1,36.5,22.1,36.2,22.1,36"/>
			<path class="st2" d="M16.6,36.2c0.3,0,0.5,0,0.8,0c0,0.3,0,0.5,0,0.8c-0.3,0-0.5,0-0.8,0C16.6,36.8,16.6,36.5,16.6,36.2"/>
			<path class="st2" d="M30.8,36.7c0.3-0.3,0.6,0.2,0.8,0.3c0,0,0,0.1,0,0.1c-0.7,0.4-1.4,0.8-2,1.3l0.4,0c0.2,0,0.4,0,0.6,0
				c0,0.3,0,0.5,0,0.8c-0.8,0-1.7,0-2.5,0c0-0.3,0-0.5,0-0.8C28.9,37.8,29.9,37.3,30.8,36.7"/>
			<path class="st2" d="M18.1,37.4c1.1,0,2.2,0,3.2,0c0,0.3,0,0.5,0,0.8c-1.1,0-2.2,0-3.2,0C18.1,38,18.1,37.7,18.1,37.4"/>
			<path class="st2" d="M21,39.5c0.3,0,0.6,0,0.9,0c0.3,0.6,0.7,1.1,0.9,1.7c-0.3,0-0.5,0-0.8,0C21.6,40.6,21.3,40,21,39.5"/>
			<path class="st2" d="M26.4,40.3c0.3,0,0.5,0,0.8,0c0,0.3,0,0.5,0,0.8c-0.3,0-0.5,0-0.8,0C26.4,40.9,26.4,40.6,26.4,40.3"/>
			<path class="st2" d="M24.5,43c0-0.6,0-1.2,0-1.9c0.3,0,0.5,0,0.8,0c0,0.6,0,1.2,0,1.8C25.1,43,24.8,43,24.5,43"/>
		</g>
	</g>
</g>
</svg>
