<?xml version="1.0" encoding="UTF-8"?><svg id="Layer_1" xmlns="http://www.w3.org/2000/svg" viewBox="0 0 128 128"><defs><style>.cls-1{fill:#fff;fill-rule:evenodd;}.cls-1,.cls-2{stroke-width:0px;}</style></defs><circle class="cls-2" cx="64" cy="64" r="63.5"/><path id="NOT" class="cls-1" d="m86.55,95.12h-45.46c-1.61,0-3.22-.24-4.89-1.02-2.01-.94-3.08-2.42-3.83-3.51-.06-.09-.11-.17-.16-.26-.88-1.57-1.33-3.26-1.33-5.07s.41-3.61,1.33-5.25c0-.02.02-.03.03-.05l28.72-49.33c.63-1.09,1.8-1.76,3.06-1.75s2.42.68,3.05,1.77l28.19,49.23s.02.03.02.04c.65,1.06,1.64,2.71,1.82,4.83.16,1.95-.28,3.91-1.26,5.6-.98,1.7-2.46,3.05-4.23,3.88-1.9.89-3.83.9-5.05.9Zm-19.03-7.05h19.03c1.25,0,1.73-.08,2.07-.23.46-.22.85-.57,1.11-1.02.26-.45.38-.97.34-1.5-.02-.3-.15-.64-.87-1.83-.02-.02-.03-.05-.04-.08l-21.63-37.77v42.43Zm-7.05,0v-42.62l-22.13,38.02c-.25.45-.42,1.11-.42,1.78,0,.54.11,1.02.36,1.5.26.38.43.58.56.72.12.12.2.18.33.24.52.24,1.06.36,1.92.36h19.38Z"/></svg>