<?xml version="1.0" encoding="utf-8"?>
<!-- Generator: Adobe Illustrator 24.3.0, SVG Export Plug-In . SVG Version: 6.00 Build 0)  -->
<svg version="1.1" id="Layer_1" xmlns="http://www.w3.org/2000/svg" xmlns:xlink="http://www.w3.org/1999/xlink" x="0px" y="0px"
	 viewBox="0 0 128 128" style="enable-background:new 0 0 128 128;" xml:space="preserve">
<style type="text/css">
	.st0{fill:#EFF4F4;}
	.st1{fill:#1B1B1B;}
	.st2{fill:#1C1C1C;}
	.st3{fill:#1D1D1D;}
	.st4{fill:#272727;}
	.st5{fill:#222222;}
	.st6{fill:#212121;}
	.st7{fill:#262626;}
	.st8{fill:#1E1E1E;}
</style>
<circle class="st0" cx="64" cy="64" r="62.7"/>
<g id="fyDqTT.tif">
	<g>
		<path class="st1" d="M26.7,47.7c0-3,2.4-5.4,5.3-5.4c3,0,5.5,2.4,5.5,5.4c0,3-2.6,5.5-5.5,5.4C29.1,53.1,26.7,50.6,26.7,47.7z"/>
		<path class="st1" d="M69.4,47.7c0,2.9-2.4,5.4-5.3,5.4c-2.9,0.1-5.6-2.5-5.5-5.4c0-2.9,2.4-5.4,5.4-5.4
			C67,42.3,69.4,44.6,69.4,47.7z"/>
		<path class="st1" d="M90.5,47.8c0-3,2.3-5.4,5.3-5.5c3-0.1,5.5,2.3,5.6,5.3c0,3-2.5,5.5-5.4,5.5C93,53.1,90.6,50.7,90.5,47.8z"/>
		<path class="st1" d="M64.1,58.1c2.9,0,5.3,2.4,5.3,5.4c0,3-2.4,5.5-5.4,5.4c-2.9,0-5.4-2.4-5.4-5.4C58.6,60.5,61,58.1,64.1,58.1z"
			/>
		<path class="st1" d="M64.2,26.4c3,0,5.3,2.3,5.2,5.4c0,3-2.5,5.4-5.5,5.3c-2.9-0.1-5.3-2.5-5.3-5.5C58.6,28.6,61,26.3,64.2,26.4z"
			/>
		<path class="st1" d="M53.5,55.6c0,3-2.5,5.4-5.5,5.3c-3-0.1-5.3-2.5-5.3-5.4c0-2.9,2.5-5.3,5.4-5.3C51.1,50.1,53.6,52.6,53.5,55.6
			z"/>
		<path class="st1" d="M80.1,45.1c-3,0-5.4-2.3-5.4-5.3c0-3.1,2.3-5.4,5.4-5.4c3.1,0,5.5,2.4,5.4,5.4C85.5,42.7,83,45.1,80.1,45.1z"
			/>
		<path class="st1" d="M80,60.9c-3.1,0-5.4-2.4-5.4-5.5c0-2.9,2.5-5.3,5.4-5.3c2.9,0,5.4,2.4,5.4,5.3C85.5,58.5,83.1,60.9,80,60.9z"
			/>
		<path class="st1" d="M48.1,45.1c-3,0-5.5-2.5-5.4-5.5c0.1-3,2.4-5.3,5.4-5.3c3.1,0,5.4,2.4,5.4,5.4C53.5,42.7,51.1,45.1,48.1,45.1
			z"/>
		<path class="st2" d="M48,74.5c-2.2,0-3.9-1.8-3.9-4c0-2.2,1.7-4,4-4c2.3,0,4.1,1.8,4.1,4.1C52,72.8,50.2,74.6,48,74.5z"/>
		<path class="st2" d="M32.2,66.5c-2.2,0-4-1.7-4-3.9c0-2.2,1.8-4.1,4.1-4.1c2.2,0,4,1.9,4,4C36.2,64.7,34.4,66.5,32.2,66.5z"/>
		<path class="st1" d="M80.2,66.6c2.2,0.1,3.9,2,3.8,4.2c-0.1,2.2-1.9,3.9-4.1,3.8c-2.3-0.1-3.9-2-3.8-4.3
			C76.1,68.1,78,66.5,80.2,66.6z"/>
		<path class="st1" d="M100,62.5c0,2.3-1.8,4-4.1,4c-2.2,0-3.9-1.8-3.9-4c0.1-2.2,1.9-4,4-3.9C98.2,58.6,100,60.4,100,62.5z"/>
		<path class="st1" d="M64,82.4c-2.2,0-3.9-1.8-3.9-4c0-2.2,1.8-4,4-4c2.3,0,4.1,1.8,4,4.1C68,80.7,66.3,82.4,64,82.4z"/>
		<path class="st3" d="M96,72c1.5,0,2.8,1.2,2.8,2.7c0,1.4-1.1,2.6-2.6,2.7c-1.5,0.1-2.8-1.1-2.9-2.6C93.2,73.4,94.5,72,96,72z"/>
		<path class="st3" d="M34.9,74.7c0,1.5-1.3,2.7-2.8,2.6c-1.5,0-2.7-1.3-2.6-2.8c0.1-1.4,1.3-2.6,2.7-2.5
			C33.7,72,34.9,73.2,34.9,74.7z"/>
		<path class="st3" d="M66.8,90.7c0,1.5-1.2,2.8-2.7,2.7c-1.4,0-2.6-1.2-2.6-2.6c0-1.5,1.2-2.8,2.6-2.8C65.5,88,66.8,89.2,66.8,90.7
			z"/>
		<path class="st3" d="M50.8,82.8c0,1.5-1.3,2.7-2.8,2.7c-1.4,0-2.6-1.3-2.7-2.6c0-1.5,1.3-2.8,2.7-2.8C49.5,80,50.8,81.3,50.8,82.8
			z"/>
		<path class="st2" d="M82.6,82.7c0,1.5-1.2,2.7-2.7,2.7c-1.5,0-2.6-1.1-2.7-2.6c-0.1-1.5,1.1-2.8,2.6-2.8
			C81.4,80,82.6,81.2,82.6,82.7z"/>
		<path class="st4" d="M95.9,85.6c-0.8-0.1-1.3-0.6-1.3-1.4c0-0.9,0.6-1.4,1.5-1.3c0.8,0.1,1.3,0.6,1.3,1.5
			C97.4,85.2,96.8,85.6,95.9,85.6z"/>
		<path class="st5" d="M65.5,100.2c0,1-0.5,1.5-1.3,1.5c-0.8,0-1.4-0.4-1.4-1.3c0-0.9,0.5-1.5,1.4-1.4C65,98.9,65.4,99.5,65.5,100.2
			z"/>
		<path class="st6" d="M32.3,85.6c-0.9,0-1.4-0.5-1.4-1.3c0-0.8,0.4-1.4,1.3-1.4c0.9,0,1.5,0.4,1.5,1.4C33.6,85.1,33,85.5,32.3,85.6
			z"/>
		<path class="st7" d="M48,90.9c0.9,0,1.4,0.5,1.5,1.3c0,0.8-0.4,1.4-1.3,1.4c-1,0.1-1.5-0.5-1.5-1.4C46.6,91.5,47.2,90.9,48,90.9z"
			/>
		<path class="st8" d="M81.3,92.3c-0.1,0.8-0.5,1.3-1.4,1.3c-0.8,0-1.3-0.5-1.3-1.3c0-0.9,0.5-1.4,1.4-1.4
			C80.9,91,81.3,91.5,81.3,92.3z"/>
	</g>
</g>
</svg>
