<?xml version="1.0" encoding="utf-8"?>
<!-- Generator: Adobe Illustrator 26.4.1, SVG Export Plug-In . SVG Version: 6.00 Build 0)  -->
<svg version="1.1" id="Layer_1" xmlns="http://www.w3.org/2000/svg" xmlns:xlink="http://www.w3.org/1999/xlink" x="0px" y="0px"
	 viewBox="0 0 128 128" style="enable-background:new 0 0 128 128;" xml:space="preserve">
<style type="text/css">
	.st0{fill:#EEF4F4;}
	.st1{fill:#FFFFFF;}
	.st2{fill:#0A2A50;}
</style>
<circle class="st0" cx="64.2" cy="64.2" r="63.8"/>
<path class="st1" d="M-0.1-0.1"/>
<g>
	<path class="st2" d="M99.5,91.6c-11.8,7.2-23.5,14.4-35.5,21.6C52.2,106,40.4,98.8,28.5,91.6c0-18.3,0-36.6,0-55.1
		C40.2,29.3,52,22.1,64,14.8C75.8,22,87.6,29.2,99.5,36.4C99.5,54.8,99.5,73,99.5,91.6z M60.5,103c0-26.3,0-51.9,0-78.1
		c-9,5.4-17.6,10.7-26.1,15.8c0,15.7,0,31.1,0,46.6C43.1,92.5,51.6,97.7,60.5,103z M67.5,25c0,26.2,0,51.9,0,78.1
		c8.9-5.4,17.5-10.6,26-15.7c0-7.1,0-14.1,0-21.1c-4.3,0-8.5,0-12.7,0c0,2.4,0,4.5,0,6.9c2,0,3.7,0,5.6,0c0,3.5,0,6.8,0,10.2
		c-3.9,2.3-7.7,4.6-11.7,7.1c0-17.7,0-35,0-52.7c4.2,2.5,8,4.8,12,7.3c0,4.7,0,9.4,0,14.2c2.4,0,4.5,0,6.8,0c0-6.2,0-12.3,0-18.4
		C84.9,35.5,76.3,30.3,67.5,25z"/>
	<path class="st2" d="M41.6,44.7c3.8-2.3,7.6-4.6,11.8-7.1c0,17.7,0,35,0,52.7c-4.1-2.5-7.9-4.8-11.8-7.1
		C41.6,70.4,41.6,57.6,41.6,44.7z"/>
</g>
<rect x="-14.7" y="-112.4" class="st2" width="78.7" height="53.4"/>
</svg>
