<?xml version="1.0" encoding="UTF-8"?><svg id="CIRCLE_OUTLINE_BLACK" xmlns="http://www.w3.org/2000/svg" viewBox="0 0 512 512"><circle cx="256" cy="255.99999" r="256.00001" fill="#1a82ff"/><path d="m378.51325,176.4842c3.54748,9.16525,6.91455,16.32593,9.09979,23.83072,4.54308,15.60239,7.49923,31.48876,7.1072,47.90678-.39464,16.52699.11738,32.96144-3.63899,49.38305-5.5664,24.33462-15.12465,46.54429-30.56379,66.13305-20.82657,26.42416-48.05444,41.76927-81.26608,46.97125-23.67586,3.70838-46.72599,2.03429-69.47767-5.6543-24.31824-8.21808-44.02755-22.56854-59.24743-43.11253-4.29682-5.79987-8.08094-11.97959-12.38727-18.414,55.88594-55.88104,111.39021-111.38042,167.00293-166.98829-6.34457-7.63101-13.95314-11.79253-22.09936-14.38239-24.99612-7.94686-48.95896-6.21042-71.07849,9.17154-11.02374,7.66593-17.88604,18.59041-23.26329,30.4217-5.37956,11.83639-7.28808,24.69941-8.87072,37.48848-1.48338,11.98682,1.99838,42.96729,3.2034,45.1665,0,0-2.10988,2.42547-5.02885,5.30028-13.70704,13.49976-42.96412,42.13667-44.50386,43.15663-6.86883-13.51309-10.80148-27.38432-13.45913-41.67336-3.60705-19.39353-3.20478-39.05711-1.68929-58.46859,1.33386-17.08497,5.72229-33.87267,12.80636-49.76015,7.76149-17.40675,17.54324-33.3817,31.24306-46.83157,17.76787-17.44369,38.91069-28.87292,63.18036-33.55036,26.70104-5.14604,53.39311-4.46977,79.26813,5.1807,21.882,8.16122,40.50993,20.96116,54.82348,39.61368,4.60449,6.00033,14.2159,19.87816,14.2159,19.87816,0,0-5.68934,5.56728-8.40322,8.28645-50.14614,50.24361-100.35508,100.42456-150.54392,150.62559-2.55504,2.55568-5.04836,5.17307-7.64703,7.84033,1.73152,4.85037,5.31036,7.14152,9.04307,9.28615,9.88839,5.68136,20.32459,8.94417,31.86401,10.08959,18.60481,1.84669,35.47326-1.9163,50.72702-12.44187,10.88546-7.51131,18.73928-17.76214,23.935-29.8952,6.17362-14.41651,10.24888-29.38997,10.00813-45.21804.17831-22.63766-4.27952-38.07066-3.62813-39.7344.51108-1.30536,33.26991-33.53706,49.26867-49.60556Z" fill="#fff"/></svg>