<svg id="Layer_1" data-name="Layer 1" xmlns="http://www.w3.org/2000/svg" viewBox="0 0 128 128"><defs><style>.cls-1{fill:#eeeeef;}.cls-2{fill:#101010;}.cls-3{fill:#fefefe;}</style></defs><circle class="cls-1" cx="64" cy="64" r="63.5"/><path class="cls-2" d="M13,64.92A51.27,51.27,0,1,1,64.2,116.26,51.19,51.19,0,0,1,13,64.92Z"/><path class="cls-3" d="M17.17,65a47.11,47.11,0,1,1,47.05,47.08A47.11,47.11,0,0,1,17.17,65Z"/><path class="cls-2" d="M71.61,60.59l-3.25,8.89q-1.31,3.58-2.59,7.17c-.12.34-.28.56-.68.5a1.47,1.47,0,0,0-.21,0c-1.13,0-2.51.34-3.32-.19s-.88-1.9-1.25-2.92Q58,67.58,55.61,61.1a1.1,1.1,0,0,0-.43-.55v.86c0,4.93,0,9.86,0,14.79,0,.82-.24,1-1,1a15.1,15.1,0,0,0-2.33,0c-.67.06-.83-.17-.82-.82,0-4.51,0-9,0-13.51,0-3.09,0-6.17,0-9.26,0-.71.21-.91.9-.88a33,33,0,0,0,3.72,0c.92-.07,1.28.29,1.57,1.11,2,5.62,4,11.23,6.05,16.83.07.19.17.36.32.67,1.26-3.47,2.48-6.81,3.69-10.16q1.39-3.89,2.78-7.77a.81.81,0,0,1,.9-.67c1.46,0,2.91,0,4.37,0,.55,0,.72.16.72.72q0,11.54,0,23.08c0,.5-.12.69-.65.67a25.41,25.41,0,0,0-2.76,0c-.74.06-.87-.23-.86-.9,0-4.82,0-9.64,0-14.47V60.63Z"/><path class="cls-2" d="M97.69,74.6a17.17,17.17,0,0,1-2.06,1.87A10.83,10.83,0,0,1,80.81,72c-2.34-4.57-2.11-12.27,1.93-16.41a10.73,10.73,0,0,1,6.41-3.22c3.65-.48,7.07,0,9.92,2.62a9,9,0,0,1,2.72,5.15c.11.53.06.87-.64.83-1.06-.06-2.13,0-3.19,0-.52,0-.78-.14-.87-.67a4.2,4.2,0,0,0-2.65-3.09c-3.57-1.65-8.84-.68-10.16,4.61-.78,3.14-.7,6.19,1.15,9C87.59,74,93,74.56,95.88,71.88a5.87,5.87,0,0,0,1.47-2.66c.22-.69.1-.93-.67-.91-1.81,0-3.62,0-5.43,0-.59,0-.8-.16-.77-.77,0-1,0-1.92,0-2.87,0-.45.11-.62.59-.62,3.4,0,6.81,0,10.21,0,.57,0,.63.26.63.71,0,3.91,0,7.81,0,11.71,0,.51-.17.67-.67.66-1,0-1.92,0-2.87,0-.6,0-.73-.2-.69-.73S97.69,75.32,97.69,74.6Z"/><path class="cls-2" d="M35.59,52.13c7.33,0,12.56,5.68,12.25,13.3-.17,3.92-1.46,7.31-4.59,9.85-5.48,4.45-17,3.51-19.44-6.61-1.13-4.74-.44-9.16,3-12.88A11.43,11.43,0,0,1,35.59,52.13Z"/><path class="cls-3" d="M43.24,65c-.14,3.23-1,6.06-4.16,7.67A7.52,7.52,0,0,1,28.15,67.1C27.66,64.16,28,61.36,30,59a7.12,7.12,0,0,1,7.7-2.24A7.09,7.09,0,0,1,43,62.65,7.81,7.81,0,0,1,43.24,65Z"/></svg>