<?xml version="1.0" encoding="UTF-8"?><svg id="Layer_1" xmlns="http://www.w3.org/2000/svg" viewBox="0 0 128 128"><defs><style>.cls-1{fill:#fff;}.cls-1,.cls-2{stroke-width:0px;}.cls-2{fill:#005df8;}</style></defs><circle class="cls-2" cx="64" cy="64" r="63.5"/><g id="OMNI"><path class="cls-1" d="m76.14,109.99c-4.11-7.1-8-13.84-12.2-21.08-4.18,7.18-8.13,13.97-12.24,21.04-7.24-4.17-14.25-8.21-21.5-12.38,4.01-6.96,7.91-13.75,12.11-21.05h-24.05v-24.85h23.46c.12-.19.23-.39.35-.58-3.89-6.78-7.77-13.55-11.85-20.66,7.15-4.12,14.19-8.19,21.5-12.4,4.08,7.03,8,13.8,12.21,21.06,4.18-7.21,8.13-14.01,12.22-21.07,7.25,4.18,14.26,8.23,21.49,12.4-4.01,6.99-7.92,13.79-12.1,21.08h24.21v24.9h-24.26c4.2,7.31,8.13,14.14,12.17,21.19-7.22,4.16-14.22,8.21-21.52,12.42Zm-33.04-58.3v24.6c6.97,4.02,13.88,8.01,20.86,12.03,7.1-4.11,14.07-8.13,20.97-12.12v-24.41c-7.01-4.05-13.92-8.04-20.98-12.12-6.96,4.02-13.88,8-20.84,12.02Z"/></g></svg>