<?xml version="1.0" encoding="UTF-8"?><svg id="Layer_1" xmlns="http://www.w3.org/2000/svg" viewBox="0 0 128 128"><defs><style>.cls-1{fill:#212121;}.cls-1,.cls-2{stroke-width:0px;}.cls-2{fill:#e9edf0;}</style></defs><circle class="cls-2" cx="64" cy="64" r="63.5"/><g id="ONDO"><path class="cls-1" d="m107.87,70.29h-5.9c0-.62-.04-1.17,0-1.71,1.38-16.18-4.8-28.68-18.47-37.37-12.31-7.82-29.93-6.97-41.61,1.76-14.7,10.99-19.84,27.94-13.29,45.1,4.09,10.72,11.95,17.88,22.65,21.94,3.75,1.42,7.63,2.15,11.65,2.14,7.16-.01,14.32,0,21.48,0,.49,0,.98.05,1.65.09-11.19,7.83-32.84,9.07-48.33-2.51-17.48-13.07-22.99-36.92-13.13-55.97,10.14-19.6,32.57-28,51.97-22.29,21.77,6.41,34.23,27.98,31.34,48.81Z"/><path class="cls-1" d="m100.64,89.47c-1.89,2.18-3.41,3.98-5,5.72-.25.27-.81.36-1.23.36-10.51.01-21.03.21-31.54-.04-16.13-.39-29.29-13.37-30.31-29.54-1.11-17.58,12.3-32.61,29.89-33.51,17.57-.89,32.28,12.43,33.15,30.04.07,1.35.03,2.72-.07,4.07-.09,1.23-.32,2.45-.5,3.72h-5.69c0-3.31.35-6.56-.06-9.72-2.29-17.68-21.68-27.49-37.38-19.03-13.88,7.49-17.65,25.7-7.86,38.14,5.09,6.47,11.81,9.73,20.03,9.78,11.37.06,22.74.01,34.1.01.62,0,1.24,0,2.45,0Z"/><path class="cls-1" d="m75.34,70.38c1.63-3.62,2.08-7.15.74-10.74-1.68-4.49-4.94-7.3-9.62-8.2-4.62-.89-8.72.44-11.85,3.98-3.65,4.13-4.37,8.92-2.09,13.9,2.33,5.1,6.61,7.45,12.16,7.46,13.18.02,26.37,0,39.55,0,.68,0,1.35,0,2.47,0-.8,2.04-1.43,3.88-2.29,5.61-.18.37-1.18.47-1.8.47-10.91.03-21.82.04-32.73,0-2.83,0-5.71.11-8.5-.28-13.79-1.92-20.68-17.43-13.02-29.11,4.17-6.36,12.06-9.6,19.56-8.03,7.55,1.57,13.78,7.79,14.74,15.3.36,2.79-.26,5.72-.54,8.57-.04.38-.66.98-1.03,1-1.85.1-3.71.05-5.74.05Z"/></g></svg>