<svg xmlns="http://www.w3.org/2000/svg" viewBox="0 0 32 32"><linearGradient id="a" gradientUnits="userSpaceOnUse" x1="4.65" y1="27.35" x2="27.31" y2="4.69"><stop offset="0" stop-color="#00aee9"/><stop offset="1" stop-color="#69fabd"/></linearGradient><circle cx="16" cy="16" r="16" fill="url(#a)"/><path d="M21.1 7a3.9 3.9 0 0 0-3.9 3.9v4.3h-2.4v-4.4C14.7 8.8 13 7 10.9 7S7 8.8 7 10.9v10.3c0 2.1 1.8 3.8 3.9 3.8s3.9-1.7 3.9-3.8v-4.3h2.4v4.4c0 2.1 1.8 3.8 3.9 3.8 2.1 0 3.9-1.7 3.9-3.8V10.9C25 8.7 23.3 7 21.1 7zM10.9 8.6c1.3 0 2.3 1 2.3 2.3v4.6c-1.1.2-2.3.5-3.3.9-.5.2-.9.5-1.3.8v-6.3c0-1.3 1-2.3 2.3-2.3zm2.3 12.6c0 1.3-1 2.3-2.3 2.3s-2.3-1-2.3-2.3v-1c0-.9.7-1.8 1.9-2.3.9-.4 1.7-.6 2.7-.8v4.1zm7.9 2.3c-1.3 0-2.3-1-2.3-2.3v-4.6c1.1-.2 2.3-.5 3.3-.9.5-.2.9-.5 1.3-.8v6.3c0 1.2-1 2.3-2.3 2.3zm.4-9.3c-.9.4-1.7.6-2.7.8v-4.1c0-1.3 1-2.3 2.3-2.3 1.3 0 2.3 1 2.3 2.3v1c0 .9-.7 1.8-1.9 2.3z" fill="#fff"/></svg>