<?xml version="1.0" encoding="UTF-8"?><svg id="Layer_1" xmlns="http://www.w3.org/2000/svg" viewBox="0 0 128 128"><defs><style>.cls-1{fill:#60a0f8;}.cls-1,.cls-2{stroke-width:0px;}.cls-2{fill:#e7ebee;}</style></defs><circle class="cls-2" cx="64" cy="64" r="63.5"/><g id="ONG"><path class="cls-1" d="m68.07,19.2c3.33.78,6.69,1.44,9.82,2.93,11.14,5.3,17.72,14.06,20,26.14.29,1.52.37,3.06.37,4.6,0,10.89,0,21.78-.01,32.67,0,.64.03,1.29-.28,1.9-.73,1.42-2.44,1.75-3.79.6-1.71-1.44-3.27-3.05-4.72-4.75-2.58-3.01-2.59-3.05-5.75-.84-6.19,4.32-13.06,6.64-20.59,6.29-14.12-.66-24.28-7.58-30.45-20.27-2.29-4.71-3.19-9.77-3.14-15.05.09-10.24.05-20.49,0-30.73,0-1.37.2-2.56,1.27-3.48h2.09c2.54,2.15,4.77,4.61,7.07,7,1.02,1.07,1.74,1.23,2.92.23,2.11-1.81,4.54-3.15,7.07-4.33,3.13-1.46,6.47-2.12,9.79-2.9h8.35Zm25.09,60.48c.36-.51.19-1.08.19-1.6.01-7.91,0-15.82.01-23.73,0-9.89-3.86-17.94-11.53-24.15-10.07-8.16-25.47-8.2-35.61-.2-1.05.83-1.11,1.38-.14,2.33,2.41,2.37,4.71,4.85,7.09,7.25,12.87,13.01,25.74,26.02,38.62,39.02.4.4.71.96,1.37,1.09ZM34.52,28.2c-.04.47-.08.81-.08,1.15,0,8.56-.2,17.12.04,25.67.26,9.1,4.17,16.59,11.21,22.35,10.24,8.39,25.46,8.52,35.98.44,1.06-.81,1.16-1.27.19-2.26-6.03-6.13-12.15-12.17-18.15-18.34-9.15-9.41-18.49-18.64-27.76-27.93-.38-.38-.67-.87-1.43-1.07Z"/><path class="cls-1" d="m98.49,101.81c0,.48-.18.97-.54,1.29-.75.66-1.67.85-2.71.5-1.34-.46-1.59-1.61-1.57-2.89.02-2.08,0-4.15,0-6.23,0-1.3-.06-2.63,1.36-3.35,1.08-.55,1.95-.21,2.75.36.46.33.72.87.72,1.44v8.89Z"/><path class="cls-1" d="m66.57,100.4c0,1.79.03,3.57,0,5.36-.05,1.96-.98,3.05-2.52,3.05-1.55,0-2.5-1.08-2.52-3.04-.04-3.67-.03-7.34,0-11.02.02-1.77,1.02-2.87,2.52-2.92,1.38-.05,2.42,1.01,2.5,2.77.09,1.93.02,3.87.02,5.8,0,0,0,0,.01,0Z"/><path class="cls-1" d="m29.55,88.17c0-1.99-.03-3.97.01-5.96.03-1.66.82-2.43,2.34-2.46,1.46-.02,2.45.82,2.48,2.37.06,4.02.06,8.04,0,12.06-.02,1.5-1.09,2.54-2.38,2.56-1.4.02-2.41-1.02-2.44-2.62-.04-1.98,0-3.97,0-5.96Z"/></g></svg>