<?xml version="1.0" encoding="UTF-8"?><svg id="Layer_1" xmlns="http://www.w3.org/2000/svg" xmlns:xlink="http://www.w3.org/1999/xlink" viewBox="0 0 128 128"><defs><style>.cls-1{clip-path:url(#clippath);}.cls-2{fill:none;}.cls-2,.cls-3,.cls-4,.cls-5,.cls-6,.cls-7,.cls-8,.cls-9,.cls-10,.cls-11,.cls-12,.cls-13,.cls-14,.cls-15,.cls-16,.cls-17,.cls-18,.cls-19{stroke-width:0px;}.cls-4{fill:#fdfdfd;}.cls-5{fill:#fbc643;}.cls-6{fill:#fde6b4;}.cls-7{fill:#fbc233;}.cls-8{fill:#fbc337;}.cls-9{fill:#fbc336;}.cls-10{fill:#fbc338;}.cls-11{fill:#fbc335;}.cls-12{fill:#fccb44;}.cls-13{fill:#fcd680;}.cls-14{fill:#fccc44;}.cls-15{fill:#fcce45;}.cls-16{fill:#fcce44;}.cls-17{fill:#fccf63;}.cls-18{fill:#fefefe;}.cls-19{fill:#fbc12f;}</style><clipPath id="clippath"><circle class="cls-2" cx="64" cy="64" r="58.07"/></clipPath></defs><circle class="cls-5" cx="64" cy="64" r="63.5"/><g id="ORCA"><g class="cls-1"><g id="_5PlDYC"><path class="cls-5" d="m61.61,4.17h4.79c.37.39.85.24,1.29.28.35,0,.7,0,1.03.13,1.18.18,2.35.23,3.52-.06.56-.06,1.14-.23,1.64.2.35,1.38,1.08-.15,1.56.2.46-.05.87.04,1.16.45.33.74.86.15,1.3.19.33-.03.63.05.91.21.35.18.73.23,1.12.19.42,0,.76.16.99.53.22.29.52.17.8.14.33-.03.62.08.9.23.27.12.56.2.86.25.3.05.57.18.83.33.38.17.79.17,1.19.22.95.27,1.89.57,2.69,1.17.18.2.04.83.64.48.32.01.54.17.69.44,0,.15.03.31.06.46.1-.11.12-.29.29-.34.32-.01.55.14.71.41,0,.15.04.3.08.44.12-.09.13-.29.31-.32.3,0,.53.15.68.39.02.43.24.27.46.13.3.03.5.19.67.41.18.38.51.02.74.14.74.27,1.38.67,1.81,1.35.09.18-.04.35,0,.53.12-.12.26-.23.42-.31.64-.02,1.01.34,1.25.88,0,.17.02.34.03.5.15-.08.19-.29.38-.32.61.02.96.37,1.19.89,0,.16.02.33.08.48.13-.09.16-.31.36-.31.59.03.93.41,1.24.85.12.17.22.34.32.52.05.09.09.18.14.26.23.44.42-.2.64-.03.93.25,1.46.96,1.98,1.69.12.17.23.35.34.53.06.08.11.17.17.25.12.15.24.31.37.46.07.07.13.14.19.21.14.13.26.27.39.41.07.06.13.13.2.2.13.12.26.26.38.39.19.19.37.39.56.59.19.19.38.38.57.57.2.18.39.38.58.57.14.12.27.25.39.38.07.06.13.13.2.2.14.13.27.26.4.39.07.06.14.13.21.2.16.12.31.25.46.37.09.06.17.12.26.17.19.11.37.22.55.34.65.45,1.25.96,1.58,1.69.12.27-.1.55.04.82.14.12.27.24.42.34.17.1.32.2.48.31.41.31.75.65.73,1.21-.04.18-.24.21-.32.35.16,0,.32.01.48.01.52.21.87.57.91,1.16,0,.21-.22.23-.31.36.15.06.32.09.49.09.54.23.89.6.89,1.22-.07.16-.17.3-.29.42.17.09.36-.05.53.05.69.43,1.09,1.06,1.34,1.81.12.23-.26.56.14.73.24.19.4.42.39.73-.04.18-.22.19-.34.28.14.05.29.08.45.08.27.16.43.38.42.7-.05.17-.22.19-.34.28.14.05.29.08.45.09.27.16.43.39.42.71-.06.17-.22.19-.35.27.15.06.3.08.46.08.27.15.43.38.45.69-.31.55.21.5.47.64.62.81.94,1.76,1.19,2.72.05.4.04.81.23,1.19.15.26.27.53.31.83.05.29.14.58.27.85.16.29.24.59.2.92-.03.28-.12.58.19.78.36.24.49.59.48,1-.03.39.03.77.22,1.12.15.29.22.58.18.9.02.44-.43.95.22,1.29.39.29.46.7.42,1.14.37.48-1.19,1.21.21,1.56.42.51.26,1.08.2,1.64-.29,1.17-.24,2.35-.06,3.53.13.33.13.68.14,1.03.04.44-.12.93.27,1.29v4.79c-.39.37-.24.85-.28,1.29,0,.35,0,.7-.13,1.03-.18,1.18-.23,2.35.06,3.52.06.56.23,1.14-.2,1.64-1.38.35.15,1.08-.2,1.56.05.46-.04.87-.45,1.16-.74.33-.15.86-.19,1.3.03.33-.05.63-.21.91-.18.35-.23.73-.19,1.12,0,.42-.16.76-.53.99-.29.22-.17.52-.14.8.03.33-.08.62-.23.9-.12.27-.2.56-.25.86-.05.3-.18.57-.33.83-.17.38-.17.79-.22,1.19-.27.95-.57,1.89-1.17,2.69-.2.18-.83.04-.48.64-.01.32-.17.54-.44.69-.15,0-.31.03-.46.06.11.1.29.12.34.29.01.32-.14.55-.41.71-.15,0-.3.04-.44.08.09.12.29.13.32.31,0,.3-.15.53-.39.68-.21-.05-.3.03-.27.26.02.13.07.19.14.2-.03.3-.19.5-.41.67-.38.18-.02.51-.14.74-.27.74-.67,1.38-1.35,1.81-.18.09-.35-.04-.53,0,.12.12.23.26.31.42.02.64-.34,1.01-.88,1.25-.17,0-.34.02-.5.03.08.15.29.19.32.38-.02.61-.37.96-.89,1.19-.16,0-.33.02-.48.08.09.13.31.16.31.36-.03.59-.41.93-.85,1.24-.17.12-.34.22-.52.32-.09.05-.18.09-.26.14-.44.23.2.42.03.64-.25.93-.96,1.46-1.69,1.98-.17.12-.35.23-.53.34-.08.06-.17.11-.25.17-.15.12-.31.24-.46.37-.07.07-.14.13-.21.19-.13.14-.27.26-.41.39-.06.07-.13.13-.2.2-.12.13-.26.26-.39.38-.19.19-.39.37-.59.56-.19.19-.38.38-.57.57-.18.2-.38.39-.57.58-.12.14-.25.27-.38.39-.06.07-.13.13-.2.2-.13.14-.26.27-.39.4-.06.07-.13.14-.2.21-.12.16-.25.31-.37.46-.06.09-.12.17-.17.26-.11.19-.22.37-.34.55-.45.65-.96,1.25-1.69,1.58-.27.12-.55-.1-.82.04-.12.14-.24.27-.34.42-.1.17-.2.32-.31.48-.31.41-.65.75-1.21.73-.18-.04-.21-.24-.35-.32,0,.16-.01.32-.01.48-.21.52-.57.87-1.16.91-.21,0-.23-.22-.36-.31-.06.15-.09.32-.09.49-.23.54-.6.89-1.22.89-.16-.07-.3-.17-.42-.29-.09.17.05.36-.05.53-.43.69-1.06,1.09-1.81,1.34-.23.12-.56-.26-.73.14-.19.24-.42.4-.73.39-.18-.04-.19-.22-.28-.34-.05.14-.08.29-.08.45-.16.27-.38.43-.7.42-.17-.05-.19-.22-.28-.34-.05.14-.08.29-.09.45-.16.27-.39.43-.71.42-.17-.06-.19-.22-.27-.35-.06.15-.08.3-.08.46-.15.27-.38.43-.69.45-.55-.31-.5.21-.64.47-.81.62-1.76.94-2.72,1.19-.4.05-.81.04-1.19.23-.26.15-.53.27-.83.31-.29.05-.58.14-.85.27-.29.16-.59.24-.92.2-.28-.03-.58-.12-.78.19-.24.36-.59.49-1,.48-.39-.03-.77.03-1.12.22-.29.15-.58.22-.9.18-.44.02-.95-.43-1.29.22-.29.39-.7.46-1.14.42-.48.37-1.21-1.19-1.56.21-.51.42-1.08.26-1.64.2-1.17-.29-2.35-.24-3.53-.06-.33.13-.68.13-1.03.14-.44.04-.93-.12-1.29.27h-4.79c-.37-.39-.85-.24-1.29-.28-.35,0-.7,0-1.03-.13-1.18-.18-2.35-.23-3.52.06-.56.06-1.14.23-1.64-.2-.35-1.38-1.08.15-1.56-.2-.46.05-.87-.04-1.16-.45-.33-.74-.86-.15-1.3-.19-.33.03-.63-.05-.91-.21-.35-.18-.73-.23-1.12-.19-.42,0-.76-.16-.99-.53-.22-.29-.52-.17-.8-.14-.33.03-.62-.08-.9-.23-.27-.12-.56-.2-.86-.25-.3-.05-.57-.18-.83-.33-.38-.17-.79-.17-1.19-.22-.95-.27-1.89-.57-2.69-1.17-.18-.2-.04-.83-.64-.48-.32-.01-.54-.17-.69-.44,0-.15-.03-.31-.06-.46-.1.11-.12.29-.29.34-.32.01-.55-.14-.71-.41,0-.15-.04-.3-.08-.44-.12.09-.13.29-.31.32-.3,0-.53-.15-.68-.39-.02-.43-.24-.27-.46-.13-.3-.03-.5-.19-.67-.41-.18-.38-.51-.02-.74-.14-.74-.27-1.38-.67-1.81-1.35-.09-.18.04-.35,0-.53-.12.12-.26.23-.42.31-.64.02-1.01-.34-1.25-.88,0-.17-.02-.34-.03-.5-.15.08-.19.29-.38.32-.61-.02-.96-.37-1.19-.89,0-.16-.02-.32-.07-.48-.13.09-.16.3-.36.31-.58-.02-.92-.4-1.23-.82-.12-.16-.23-.32-.34-.48-.06-.07-.11-.16-.18-.23-.13-.15-.26-.31-.38-.46-.22-.3-.54-.13-.81-.15-.65-.18-1.05-.66-1.41-1.19-.12-.16-.23-.34-.33-.51-.06-.08-.11-.16-.17-.24-.12-.15-.24-.3-.36-.45-.07-.07-.13-.14-.19-.21-.13-.13-.26-.27-.39-.4-.07-.06-.13-.13-.2-.2-.13-.12-.26-.26-.38-.39-.19-.19-.37-.39-.56-.58-.19-.19-.38-.38-.57-.57-.2-.18-.39-.38-.58-.57-.14-.12-.27-.25-.39-.38-.07-.06-.13-.13-.2-.2-.14-.13-.27-.26-.4-.39-.07-.06-.14-.13-.21-.2-.16-.12-.31-.25-.46-.37-.09-.06-.17-.12-.26-.17-.19-.11-.37-.22-.55-.34-.65-.45-1.25-.96-1.58-1.69-.12-.27.1-.55-.04-.82-.14-.12-.27-.24-.42-.34-.17-.1-.32-.2-.48-.31-.41-.31-.75-.65-.73-1.21.04-.18.24-.21.32-.35-.16,0-.32-.01-.48-.01-.52-.21-.87-.57-.91-1.16,0-.21.22-.23.31-.36-.15-.06-.32-.09-.49-.09-.54-.23-.89-.6-.89-1.22.07-.16.17-.3.29-.42-.17-.09-.36.05-.53-.05-.69-.43-1.09-1.06-1.34-1.81-.12-.23.26-.56-.14-.73-.24-.19-.4-.42-.39-.73.04-.18.22-.19.34-.28-.14-.05-.29-.08-.45-.08-.27-.16-.43-.38-.42-.7.05-.17.22-.19.34-.28-.14-.05-.29-.08-.45-.09-.27-.16-.43-.39-.42-.71.06-.17.22-.19.35-.27-.15-.06-.3-.08-.46-.08-.27-.15-.43-.38-.45-.69.31-.55-.21-.5-.47-.64-.62-.81-.94-1.76-1.19-2.72-.05-.4-.04-.81-.23-1.19-.15-.26-.27-.53-.31-.83-.05-.29-.14-.58-.27-.85-.16-.29-.24-.59-.2-.92.03-.28.12-.58-.19-.78-.36-.24-.49-.59-.48-1,.03-.39-.03-.77-.22-1.12-.15-.29-.22-.58-.18-.9-.02-.44.43-.95-.22-1.29-.39-.29-.46-.7-.42-1.14-.37-.48,1.19-1.21-.21-1.56-.42-.51-.26-1.08-.2-1.64.29-1.17.24-2.35.06-3.53-.13-.33-.13-.68-.14-1.03-.04-.44.12-.93-.27-1.29v-4.79c.39-.37.24-.85.28-1.29,0-.35,0-.7.13-1.03.18-1.18.23-2.35-.06-3.52-.06-.56-.23-1.14.2-1.64,1.38-.35-.15-1.08.2-1.56-.05-.46.04-.87.45-1.16.74-.33.15-.86.19-1.3-.03-.33.05-.63.21-.91.18-.35.23-.73.19-1.12,0-.42.16-.76.53-.99.29-.22.17-.52.14-.8-.03-.33.08-.62.23-.9.12-.27.2-.56.25-.86.05-.3.18-.57.33-.83.17-.38.17-.79.22-1.19.27-.95.57-1.89,1.17-2.69.2-.18.83-.04.48-.64.01-.32.17-.54.44-.69.15,0,.31-.03.46-.06-.11-.1-.29-.12-.34-.29-.01-.32.14-.55.41-.71.15,0,.3-.04.44-.08-.09-.12-.29-.13-.32-.31,0-.3.15-.53.39-.68.21.05.3-.03.27-.26-.02-.13-.07-.19-.14-.2.03-.3.19-.5.41-.67.38-.18.02-.51.14-.74.27-.74.67-1.38,1.35-1.81.18-.09.35.04.53,0-.12-.12-.23-.26-.31-.42-.02-.64.34-1.01.88-1.25.17,0,.34-.02.5-.03-.08-.15-.29-.19-.32-.38.02-.61.37-.96.89-1.19.16,0,.33-.02.48-.08-.09-.13-.31-.16-.31-.36.03-.59.41-.93.85-1.24.17-.12.34-.22.52-.32.09-.05.18-.09.26-.14.44-.23-.2-.42-.03-.64.25-.93.96-1.46,1.69-1.98.17-.12.35-.23.53-.34.08-.06.17-.11.25-.17.15-.12.31-.24.46-.37.07-.07.14-.13.21-.19.13-.14.27-.26.41-.39.06-.07.13-.13.2-.2.12-.13.26-.26.39-.38.19-.19.39-.37.59-.56.19-.19.38-.38.57-.57.18-.2.38-.39.57-.58.12-.14.25-.27.38-.39.06-.07.13-.13.2-.2.13-.14.26-.27.39-.4.06-.07.13-.14.2-.21.12-.16.25-.31.37-.46.06-.09.12-.17.17-.26.11-.19.22-.37.34-.55.45-.65.96-1.25,1.69-1.58.27-.12.55.1.82-.04.12-.14.24-.27.34-.42.1-.17.2-.32.31-.48.31-.41.65-.75,1.21-.73.18.04.21.24.35.32,0-.16.01-.32.01-.48.21-.52.57-.87,1.16-.91.21,0,.23.22.36.31.06-.15.09-.32.09-.49.23-.54.6-.89,1.22-.89.16.07.3.17.42.29.09-.17-.05-.36.05-.53.43-.69,1.06-1.09,1.81-1.34.23-.12.56.26.73-.14.19-.24.42-.4.73-.39.18.04.19.22.28.34.05-.14.08-.29.08-.45.16-.27.38-.43.7-.42.17.05.19.22.28.34.05-.14.08-.29.09-.45.16-.27.39-.43.71-.42.17.06.19.22.27.35.06-.15.08-.3.08-.46.15-.27.38-.43.69-.45.55.31.5-.21.64-.47.81-.62,1.76-.94,2.72-1.19.4-.05.81-.04,1.19-.23.26-.15.53-.27.83-.31.29-.05.58-.14.85-.27.29-.16.59-.24.92-.2.28.03.58.12.78-.19.24-.36.59-.49,1-.48.39.03.77-.03,1.12-.22.29-.15.58-.22.9-.18.44-.02.95.43,1.29-.22.29-.39.7-.46,1.14-.42.48-.37,1.21,1.19,1.56-.21.51-.42,1.08-.26,1.64-.2,1.17.29,2.35.24,3.53.06.33-.13.68-.13,1.03-.14.44-.04.93.12,1.29-.27Z"/><path class="cls-6" d="m70.69,123.39c-.01.14-.03.29-.05.43h-1.6c-.21-.26-.19-.5.08-.71.54-.04,1.12-.29,1.56.27Z"/><path class="cls-13" d="m69.09,123.35c-.02.16-.03.32-.04.47h-1.6c-.18-.12-.23-.23-.17-.34.06-.11.13-.16.19-.16.36-.03.72-.05,1.07-.08.22-.19.4-.16.53.1Z"/><path class="cls-13" d="m59.44,123.25c.36.03.72.05,1.07.08.19.1.25.21.2.33-.06.12-.11.18-.17.18h-1.6c-.13-.11-.19-.24-.19-.38.01-.15.03-.22.07-.22.21-.15.42-.13.61.02Z"/><path class="cls-6" d="m58.91,123.35c.02.16.03.32.03.47h-1.6c-.01-.14-.03-.29-.05-.43.52-.51,1.06-.47,1.61-.04Z"/><path class="cls-6" d="m57.31,4.61c.02-.14.03-.29.05-.43h1.6c.21.26.19.5-.08.71-.54.04-1.12.29-1.56-.27Z"/><path class="cls-13" d="m58.91,4.65c.02-.16.03-.32.04-.47h1.6c.18.12.23.23.17.34-.06.11-.13.16-.19.16-.36.03-.72.05-1.07.08-.22.18-.4.16-.53-.1Z"/><path class="cls-13" d="m68.56,4.75c-.36-.03-.72-.05-1.07-.08-.19-.1-.25-.21-.2-.33.06-.12.11-.18.17-.18h1.6c.13.11.19.24.19.38-.01.15-.03.22-.07.22-.21.15-.42.13-.61-.02Z"/><path class="cls-6" d="m69.09,4.65c-.02-.16-.03-.32-.03-.47h1.6c.01.14.03.29.05.43-.52.51-1.06.47-1.61.04Z"/><path class="cls-6" d="m4.61,70.69h-.22s-.21-.05-.21-.05v-1.6c.26-.21.5-.19.71.08.04.54.29,1.12-.27,1.56Z"/><path class="cls-13" d="m4.65,69.09c-.16,0-.32-.02-.47-.04v-1.6c.18-.25.35-.23.5.02.03.36.05.72.08,1.07.14.15.17.28.09.39-.07.1-.14.15-.2.15Z"/><path class="cls-13" d="m4.75,59.44c-.03.36-.05.72-.08,1.07-.16.25-.32.27-.5.02v-1.6c.17-.19.37-.23.6-.12.15.21.13.42-.02.61Z"/><path class="cls-6" d="m4.65,58.91c-.16,0-.32.02-.47.03v-1.6c.14-.05.29-.06.43-.05.51.52.47,1.06.04,1.61Z"/><path class="cls-17" d="m67.48,123.32c-.01.17-.02.33-.02.5h-1.06c.24-.44.64-.53,1.09-.5Z"/><path class="cls-17" d="m60.54,123.83c0-.17,0-.33-.02-.5.45-.02.85.06,1.09.5h-1.06Z"/><path class="cls-17" d="m60.52,4.68c.01-.17.02-.33.02-.5h1.06c-.24.44-.64.53-1.09.5Z"/><path class="cls-17" d="m67.46,4.17c0,.17,0,.33.02.5-.45.02-.85-.06-1.09-.5h1.06Z"/><path class="cls-17" d="m4.17,60.54c.17,0,.33-.01.5-.02.02.45-.06.85-.5,1.09v-1.06Z"/><path class="cls-17" d="m123.32,60.52c.17.01.33.02.5.02v1.06c-.44-.24-.53-.64-.5-1.09Z"/><path class="cls-17" d="m4.68,67.48c-.17-.01-.33-.02-.5-.02v-1.06c.44.24.53.64.5,1.09Z"/><path class="cls-3" d="m60.56,74.45c-1.88.11-3.67.56-5.37,1.36-.5.6-1,.58-1.51.02-.5-3.39,3.15-8.82,7.08-10.51.7-.3,1.44-.51,2.2-.77-.55-1.14-1.64-1.63-2.53-2.32-7.09-5.49-13-11.97-17.05-20.04-1.28-2.55-2.24-5.18-2.08-8.12.11-2.1,1.05-3.71,3.09-4.12,5.98-1.2,11.62-3.59,17.65-4.66,10.18-1.8,18.85,1.11,26.35,8,3.87,3.56,7.11,7.64,9.88,12.09.68,1.09,1.51,1.84,2.56,2.56,6.57,4.54,10.79,10.53,11.46,18.98-2.03-.51-3.07-2.39-4.95-2.57-.88.24-1.75-.09-2.63-.04-1.09,2.02-.4,4.25-.72,6.37-2.94,19.26-20.02,33.35-36.96,34.18-.43.02-.85.18-1.28.28-.62.49-1.24.49-1.86,0-8.97-.65-17.02-3.66-24-9.38-.89-.73-1.78-1.46-2.6-2.26-3.02-2.93-5.72-5.72-10.45-6.65-5.33-1.05-8.55-5.75-11.57-11.27,5.57,1.62,9.85-3.88,15.17-.43.25-2.99,1.98-4.73,4.23-6.06,2.15-1.26,3.94-2.92,5.59-5.07,1.76,2.67,1.85,5.63,2.67,8.34.55,1.51.55,3.01,0,4.52-.67,2.46-1.25,4.95-3.22,7.14,4.63,2.82,9.14,5.42,14.47,6.22,2.3.09,4.59.08,6.89,0,4.58-1,7.12-3.91,7.92-8.45-.21-.35-.26-.68.11-.96.9-3.97.37-5.49-2.19-6.36-.5.14-1.01.32-1.43-.18-1.15-.45-2.3-.44-3.45.02-.45.48-.96.33-1.47.13Z"/><path class="cls-12" d="m61.06,90.26c-2.3.8-4.59.65-6.89,0,2.3-.74,4.59-.75,6.89,0Z"/><path class="cls-15" d="m42.92,76.89c0-1.51,0-3.01,0-4.52,1.29,1.44.44,3.08.43,4.63,0,.01-.15.05-.22.03-.08-.02-.14-.09-.21-.15Z"/><path class="cls-14" d="m63.87,105.15c.62,0,1.24,0,1.86,0,.16.17,1.16.24.26.52-1,.31-2.18.07-3.41.07.39-.71.91-.45,1.29-.59Z"/><path class="cls-8" d="m58.91,123.35c-.54.01-1.07.03-1.61.04-.51-.06-1.01-.13-1.52-.19,1.23-.65,2.45-.71,3.65.05-.18.03-.35.07-.53.1Z"/><path class="cls-8" d="m4.65,58.91c-.01-.54-.03-1.07-.04-1.61.06-.51.13-1.01.19-1.52.65,1.23.71,2.45-.05,3.65-.03-.18-.07-.35-.1-.53Z"/><path class="cls-8" d="m123.39,57.31c-.01.54-.03,1.07-.04,1.61-.03.18-.07.36-.1.53-.76-1.21-.7-2.43-.05-3.65.06.5.13,1.01.19,1.51Z"/><path class="cls-8" d="m58.91,4.65c.18.03.36.07.53.1-1.21.76-2.43.7-3.65.05.5-.06,1.01-.13,1.51-.19.54.01,1.07.03,1.61.04Z"/><path class="cls-8" d="m69.09,4.65c.54-.01,1.07-.03,1.61-.04.51.06,1.01.13,1.52.19-1.23.65-2.45.71-3.65-.05.18-.03.35-.07.53-.1Z"/><path class="cls-16" d="m104.69,64.32c.89-.73,1.76-.28,2.63.04-.89.65-1.77.68-2.63-.04Z"/><path class="cls-8" d="m4.65,69.09c.03-.18.07-.36.1-.53.76,1.21.7,2.43.05,3.65-.06-.5-.13-1.01-.19-1.51.01-.54.03-1.07.04-1.61Z"/><path class="cls-8" d="m123.35,69.09c.01.54.03,1.07.04,1.61-.06.51-.13,1.01-.19,1.52-.65-1.23-.71-2.45.05-3.65.03.18.07.35.1.53Z"/><path class="cls-8" d="m69.09,123.35c-.18-.03-.36-.07-.53-.1,1.21-.76,2.43-.7,3.65-.05-.5.06-1.01.13-1.51.19-.54-.01-1.07-.03-1.61-.04Z"/><path class="cls-15" d="m60.56,74.45c.49-.04.98-.09,1.47-.13.41.06.82.12,1.82.26-1.53.38-2.45.58-3.29-.13Z"/><path class="cls-15" d="m65.47,74.3c.48.06.96.12,1.43.18-.64.59-1.36.47-2.11.3.02-.49.42-.38.68-.48Z"/><path class="cls-10" d="m122.3,76.6c-.07.48-.13.97-.2,1.45-.23-.52-1.07-1.13.2-1.45Z"/><path class="cls-9" d="m122.81,73.9c-.05.5-.09,1-.14,1.5-.33-.53-.99-1.1.14-1.5Z"/><path class="cls-11" d="m5.33,75.4c-.05-.5-.09-1-.14-1.5,1.12.4.48.96.14,1.5Z"/><path class="cls-16" d="m69.09,80.84c-.04.32-.07.64-.11.96-.56-.43-.47-1-.41-1.58.57-.04.42.39.52.63Z"/><path class="cls-8" d="m76.6,5.7c.48.06.97.13,1.45.19-.53.24-1.13,1.07-1.45-.19Z"/><path class="cls-10" d="m49.95,5.9c.48-.07.97-.13,1.45-.2-.32,1.27-.93.43-1.45.2Z"/><path class="cls-11" d="m73.9,5.2c.5.05,1,.09,1.5.14-.54.36-1.1.97-1.5-.14Z"/><path class="cls-11" d="m52.6,5.34c.5-.05,1-.1,1.5-.14-.4,1.12-.96.48-1.5.14Z"/><path class="cls-10" d="m51.4,122.3c-.48-.07-.97-.13-1.45-.2.53-.24,1.13-1.07,1.45.2Z"/><path class="cls-8" d="m78.05,122.1c-.48.06-.97.13-1.45.19.32-1.26.93-.43,1.45-.19Z"/><path class="cls-11" d="m122.67,52.6c.05.5.09,1,.14,1.5-1.12-.4-.48-.96-.14-1.5Z"/><path class="cls-11" d="m5.2,54.1c.05-.5.09-1,.14-1.5.36.54.97,1.1-.14,1.5Z"/><path class="cls-10" d="m122.1,49.95c.07.48.13.97.2,1.45-1.27-.32-.43-.93-.2-1.45Z"/><path class="cls-8" d="m5.7,51.4c.06-.48.13-.97.19-1.45.25.53,1.06,1.13-.19,1.45Z"/><path class="cls-9" d="m54.1,122.81c-.5-.05-1-.1-1.49-.15.54-.34,1.1-.97,1.49.15Z"/><path class="cls-11" d="m75.4,122.67c-.5.05-1,.09-1.5.14.4-1.12.96-.48,1.5-.14Z"/><path class="cls-8" d="m5.9,78.05c-.06-.48-.13-.97-.19-1.45,1.26.32.43.93.19,1.45Z"/><path class="cls-9" d="m81.78,121.06c-.31.06-.62.11-.93.17-.17-.15-.41-.35-.08-.5.39-.18.75-.02,1.01.33Z"/><path class="cls-9" d="m47.16,121.23c-.31-.06-.62-.11-.93-.17.26-.35.63-.51,1.01-.33.33.15.1.35-.08.5Z"/><path class="cls-7" d="m106.68,105.72l-.96.96c0-.12,0-.24.01-.36.19-.19.39-.39.58-.58.12,0,.24,0,.36-.01Z"/><path class="cls-7" d="m21.32,22.28l.96-.96c0,.12,0,.24-.01.36-.19.19-.39.39-.58.58-.12,0-.24,0-.36.01Z"/><path class="cls-7" d="m105.72,21.32c.32.32.64.64.96.96-.12,0-.24,0-.36-.01-.19-.19-.39-.39-.58-.58,0-.12,0-.24-.01-.36Z"/><path class="cls-7" d="m22.28,106.68c-.32-.32-.64-.64-.96-.96.12,0,.24,0,.36.01.19.19.39.39.58.58,0,.12,0,.24.01.36Z"/><path class="cls-9" d="m46.22,6.94c.31-.06.62-.11.93-.17.17.15.41.35.08.5-.39.18-.75.02-1.01-.33Z"/><path class="cls-9" d="m121.23,80.84c-.06.31-.11.62-.17.93-.35-.26-.51-.63-.33-1.01.15-.33.35-.1.5.08Z"/><path class="cls-9" d="m6.94,81.78c-.06-.31-.11-.62-.17-.93.15-.17.35-.41.5-.08.18.39.02.75-.33,1.01Z"/><path class="cls-9" d="m80.84,6.77c.31.06.62.11.93.17-.26.35-.63.51-1.01.33-.33-.15-.1-.35.08-.5Z"/><path class="cls-15" d="m53.67,75.83c.5,0,1.01-.01,1.51-.02-.49.88-1,.88-1.51.02Z"/><path class="cls-9" d="m121.06,46.22c.06.31.11.62.17.93-.15.17-.35.41-.5.08-.18-.39-.02-.75.33-1.01Z"/><path class="cls-9" d="m6.77,47.16c.06-.31.11-.62.17-.93.35.26.51.63.33,1.01-.15.33-.35.1-.5-.08Z"/><path class="cls-7" d="m7.47,83.38c-.08-.33-.16-.67-.23-1,.58.22.73.53.23,1Z"/><path class="cls-7" d="m22.27,21.69c0-.12,0-.24.01-.36.17-.17.34-.33.51-.5,0,.11,0,.21,0,.32-.18.18-.36.36-.54.54Z"/><path class="cls-11" d="m79.67,121.63c-.34.07-.68.13-1.02.2.23-.61.56-.73,1.02-.2Z"/><path class="cls-11" d="m49.35,121.83c-.34-.07-.68-.13-1.02-.2.46-.53.78-.41,1.02.2Z"/><path class="cls-7" d="m83.38,120.53c-.33.08-.67.16-1,.23.22-.58.53-.73,1-.23Z"/><path class="cls-7" d="m45.63,120.76c-.33-.08-.67-.16-1-.23.47-.5.79-.35,1,.23Z"/><path class="cls-11" d="m84.96,119.97c-.33.08-.67.16-1,.25.21-.57.53-.72,1-.25Z"/><path class="cls-11" d="m44.03,120.22c-.33-.08-.67-.16-1-.25.47-.47.79-.32,1,.25Z"/><path class="cls-7" d="m27.05,110.88c-.17-.14-.34-.27-.51-.41.24-.3.4-.18.52.1,0,.1,0,.2-.01.3Z"/><path class="cls-7" d="m105.73,106.31c0,.12,0,.24-.01.36-.17.17-.34.33-.51.5,0-.11,0-.21,0-.32.18-.18.36-.36.54-.54Z"/><path class="cls-7" d="m22.28,106.68c-.01-.12-.02-.24-.01-.36.18.18.36.36.54.54,0,.11,0,.21,0,.32-.17-.17-.34-.33-.51-.5Z"/><path class="cls-7" d="m105.72,21.32c.01.12.02.24.01.36-.18-.18-.36-.36-.54-.54,0-.11,0-.21,0-.32.17.17.34.33.51.5Z"/><path class="cls-7" d="m21.32,22.28c.12-.01.24-.02.36-.01-.18.18-.36.36-.54.54-.11,0-.21,0-.32,0,.17-.17.33-.34.5-.51Z"/><path class="cls-7" d="m106.68,105.72c-.12.01-.24.02-.36.01.18-.18.36-.36.54-.54.11,0,.21,0,.32,0-.17.17-.33.34-.5.51Z"/><path class="cls-11" d="m7.78,44.03c.08-.33.16-.67.25-1,.47.47.32.79-.25,1Z"/><path class="cls-11" d="m119.97,43.04c.08.33.16.67.25,1-.57-.21-.72-.53-.25-1Z"/><path class="cls-7" d="m7.24,45.63c.08-.33.16-.67.23-1,.5.47.35.79-.23,1Z"/><path class="cls-7" d="m120.53,44.62c.08.33.16.67.23,1-.58-.22-.73-.53-.23-1Z"/><path class="cls-11" d="m48.33,6.37c.34-.07.68-.13,1.02-.2-.23.61-.56.73-1.02.2Z"/><path class="cls-7" d="m21.69,105.73c-.12,0-.24,0-.36-.01-.17-.17-.33-.34-.5-.51.11,0,.21,0,.32,0,.18.18.36.36.54.54Z"/><path class="cls-11" d="m6.17,49.35c.07-.34.13-.68.2-1.02.54.46.41.78-.2,1.02Z"/><path class="cls-11" d="m121.63,48.33c.07.34.13.68.2,1.02-.61-.23-.73-.56-.2-1.02Z"/><path class="cls-11" d="m78.65,6.17c.34.07.68.13,1.02.2-.46.54-.78.41-1.02-.2Z"/><path class="cls-7" d="m106.31,22.27c.12,0,.24,0,.36.01.17.17.33.34.5.51-.11,0-.21,0-.32,0-.18-.18-.36-.36-.54-.54Z"/><path class="cls-11" d="m120.22,83.97c-.08.33-.16.67-.25,1-.47-.47-.32-.79.25-1Z"/><path class="cls-11" d="m8.03,84.96c-.08-.33-.16-.67-.25-1,.57.21.72.53.25,1Z"/><path class="cls-7" d="m120.76,82.37c-.08.33-.16.67-.23,1-.5-.47-.35-.79.23-1Z"/><path class="cls-11" d="m121.83,78.65c-.07.34-.13.68-.2,1.02-.54-.46-.41-.78.2-1.02Z"/><path class="cls-11" d="m6.37,79.67c-.07-.34-.13-.68-.2-1.02.61.23.73.56.2,1.02Z"/><path class="cls-7" d="m44.62,7.47c.33-.08.67-.16,1-.23-.22.58-.53.73-1,.23Z"/><path class="cls-7" d="m82.37,7.24c.33.08.67.16,1,.23-.47.5-.79.35-1-.23Z"/><path class="cls-11" d="m43.04,8.03c.33-.08.67-.16,1-.25-.21.57-.53.72-1,.25Z"/><path class="cls-11" d="m83.97,7.77c.33.09.66.17,1,.26-.48.47-.79.32-1-.26Z"/><path class="cls-19" d="m18.95,24.89c.21-.19.42-.38.63-.58-.21.19-.42.38-.63.58Z"/><path class="cls-19" d="m27.08,17.07c.12-.14.27-.21.45-.22-.05.27-.14.46-.45.22Z"/><path class="cls-19" d="m91.41,11c.18.01.34.07.48.18-.29.28-.4.09-.48-.18Z"/><path class="cls-19" d="m36.11,11.18c.14-.11.3-.17.48-.18-.08.27-.2.46-.48.18Z"/><path class="cls-19" d="m107.9,23.77c.19.2.38.39.58.59-.19-.2-.38-.39-.58-.59Z"/><path class="cls-19" d="m19.52,24.36c.19-.2.38-.39.58-.59-.19.2-.38.39-.58.59Z"/><path class="cls-19" d="m90.34,10.47c.18,0,.34.07.49.17-.28.28-.4.1-.49-.17Z"/><path class="cls-19" d="m37.17,10.64c.14-.11.31-.16.49-.17-.08.28-.2.46-.49.17Z"/><path class="cls-19" d="m89.28,9.95c.18,0,.34.06.49.16-.27.28-.4.11-.49-.16Z"/><path class="cls-19" d="m38.23,10.11c.15-.11.31-.16.49-.16-.09.28-.21.44-.49.16Z"/><path class="cls-19" d="m88.2,9.46c.18-.02.35.02.5.13-.25.27-.39.14-.5-.13Z"/><path class="cls-19" d="m39.3,9.6c.15-.11.31-.15.5-.13-.11.27-.25.4-.5.13Z"/><path class="cls-19" d="m35.06,11.75c.14-.12.3-.18.48-.19-.08.26-.2.43-.48.19Z"/><path class="cls-19" d="m108.43,24.31c.21.19.42.38.63.58-.21-.19-.42-.38-.63-.58Z"/><path class="cls-7" d="m99.91,16.34c.2.19.39.38.59.57-.2-.19-.39-.38-.59-.57Z"/><path class="cls-19" d="m107.38,23.23c.19.2.38.39.58.59-.19-.2-.39-.39-.58-.59Z"/><path class="cls-19" d="m16.85,27.53c0-.18.08-.33.22-.45,0,.13.03.26,0,.39,0,.03-.15.04-.23.06Z"/><path class="cls-19" d="m110.93,27.08c.14.12.21.27.22.45-.12-.08-.24-.16-.34-.26,0,0,.08-.13.12-.19Z"/><path class="cls-19" d="m92.46,11.56c.18,0,.34.06.48.18-.28.26-.4.09-.48-.18Z"/><path class="cls-19" d="m20.04,23.82c.19-.2.38-.39.58-.59-.19.2-.38.39-.58.59Z"/><path class="cls-19" d="m106.86,22.8c.11,0,.21,0,.32,0,.09.16.18.32.27.47-.2-.15-.39-.31-.59-.46Z"/><path class="cls-19" d="m20.82,22.79c.11,0,.21,0,.32,0-.2.16-.39.31-.59.47.09-.16.18-.32.27-.48Z"/><path class="cls-19" d="m15.2,29.67c.09-.15.18-.3.27-.46.24.35,0,.41-.27.46Z"/><path class="cls-19" d="m32.39,13.33c.14-.12.29-.2.47-.23-.07.27-.15.49-.47.23Z"/><path class="cls-19" d="m95.14,13.1c.18.03.34.11.47.23-.32.26-.4.04-.47-.23Z"/><path class="cls-19" d="m30.79,14.38c.13-.12.29-.2.46-.25-.05.27-.07.6-.46.25Z"/><path class="cls-19" d="m9.6,88.7c-.11-.15-.15-.31-.13-.5.1.1.2.2.28.32.01.02-.1.12-.15.18Z"/><path class="cls-19" d="m96.75,14.1c.15.09.31.18.46.27-.42.36-.41,0-.46-.27Z"/><path class="cls-19" d="m118.54,88.2c.02.18-.02.35-.13.5-.03-.13-.08-.26-.08-.39,0-.03.14-.07.21-.11Z"/><path class="cls-19" d="m10.11,89.77c-.11-.15-.16-.31-.16-.49.11.1.22.19.31.31,0,.01-.1.12-.15.18Z"/><path class="cls-19" d="m118.05,89.28c0,.18-.06.34-.16.49-.03-.13-.07-.26-.06-.4,0-.03.15-.06.23-.09Z"/><path class="cls-19" d="m29.21,15.47c.15-.09.3-.18.46-.27-.05.26-.11.51-.46.27Z"/><path class="cls-19" d="m10.64,90.83c-.11-.14-.16-.31-.17-.49.11.1.22.19.32.3,0,.01-.1.12-.15.19Z"/><path class="cls-19" d="m117.53,90.34c0,.18-.07.34-.17.49-.02-.13-.06-.27-.06-.4,0-.03.15-.06.23-.09Z"/><path class="cls-19" d="m11.18,91.89c-.11-.14-.17-.3-.18-.48.11.1.23.19.32.3,0,.01-.09.12-.14.19Z"/><path class="cls-19" d="m117,91.41c-.01.18-.07.34-.18.48-.02-.13-.06-.27-.05-.4,0-.03.15-.06.23-.09Z"/><path class="cls-19" d="m11.75,92.94c-.12-.14-.18-.3-.19-.48.11.1.22.18.31.29.01.02-.08.12-.13.19Z"/><path class="cls-19" d="m116.44,92.46c0,.18-.06.34-.19.48-.01-.13-.05-.26-.03-.39,0-.04.14-.06.22-.09Z"/><path class="cls-19" d="m13.33,95.61c-.12-.14-.2-.29-.23-.47.12.09.24.17.35.27.01,0-.08.13-.13.2Z"/><path class="cls-19" d="m114.9,95.14c-.03.18-.11.34-.23.47,0-.13-.03-.27,0-.4,0-.04.15-.05.24-.07Z"/><path class="cls-19" d="m14.38,97.21c-.12-.13-.2-.29-.25-.46.27.05.6.07.25.46Z"/><path class="cls-19" d="m113.88,96.74c-.05.17-.13.33-.25.46-.35-.39-.02-.41.25-.46Z"/><path class="cls-19" d="m15.47,98.79c-.09-.15-.18-.3-.27-.46.26.05.51.11.27.46Z"/><path class="cls-19" d="m112.8,98.33c-.09.15-.18.3-.27.46-.24-.35,0-.41.27-.46Z"/><path class="cls-7" d="m16.91,100.5c-.19-.2-.38-.4-.57-.59.19.2.38.4.57.59Z"/><path class="cls-7" d="m111.66,99.91c-.19.2-.38.39-.57.59.19-.2.38-.39.57-.59Z"/><path class="cls-19" d="m17.07,100.92c-.14-.12-.21-.27-.22-.45.12.08.24.16.34.26.01,0-.08.13-.12.19Z"/><path class="cls-19" d="m111.15,100.47c0,.18-.08.33-.22.45,0-.13-.03-.26,0-.39,0-.03.15-.04.23-.06Z"/><path class="cls-19" d="m19.57,103.69c-.21-.19-.42-.38-.63-.58.21.19.42.38.63.58Z"/><path class="cls-19" d="m109.05,103.11c-.21.19-.42.38-.63.58.21-.19.42-.38.63-.58Z"/><path class="cls-19" d="m20.1,104.23c-.19-.2-.38-.39-.58-.59.19.2.38.39.58.59Z"/><path class="cls-19" d="m108.48,103.64c-.19.2-.38.39-.58.59.19-.2.38-.39.58-.59Z"/><path class="cls-19" d="m20.62,104.77c-.19-.2-.38-.39-.58-.59.19.2.39.39.58.59Z"/><path class="cls-19" d="m107.96,104.18c-.19.2-.38.39-.58.59.19-.2.38-.39.58-.59Z"/><path class="cls-19" d="m21.14,105.2c-.11,0-.21,0-.32,0-.09-.16-.18-.32-.27-.47.2.15.39.31.59.46Z"/><path class="cls-19" d="m107.18,105.21c-.11,0-.21,0-.32,0,.2-.16.39-.31.59-.47-.09.16-.18.32-.27.48Z"/><path class="cls-7" d="m16.34,28.09c.19-.2.38-.39.57-.59-.19.2-.38.39-.57.59Z"/><path class="cls-7" d="m111.09,27.5c.19.2.38.4.57.59-.19-.2-.38-.4-.57-.59Z"/><path class="cls-19" d="m98.33,15.2c.15.09.31.17.46.26-.34.25-.41,0-.46-.26Z"/><path class="cls-19" d="m118.4,39.3c.11.15.15.31.13.5-.1-.1-.2-.2-.28-.32-.01-.02.1-.12.15-.18Z"/><path class="cls-19" d="m9.46,39.8c-.02-.18.02-.35.13-.5.03.13.08.26.08.39,0,.03-.14.07-.21.11Z"/><path class="cls-19" d="m117.89,38.23c.11.15.16.31.16.49-.11-.1-.22-.19-.31-.31,0-.01.1-.12.15-.18Z"/><path class="cls-19" d="m9.95,38.72c0-.18.06-.34.16-.49.03.13.07.26.06.4,0,.03-.15.06-.23.09Z"/><path class="cls-19" d="m22.79,107.18c0-.11,0-.21,0-.32.16.2.31.39.47.59-.16-.09-.32-.18-.48-.27Z"/><path class="cls-19" d="m105.2,106.86c0,.11,0,.21,0,.32-.16.09-.32.18-.47.27.15-.2.31-.39.46-.59Z"/><path class="cls-19" d="m23.82,107.96c-.2-.19-.39-.38-.59-.58.2.19.39.38.59.58Z"/><path class="cls-19" d="m104.77,107.38c-.2.19-.39.38-.59.58.2-.19.39-.39.59-.58Z"/><path class="cls-19" d="m24.36,108.48c-.2-.19-.39-.38-.59-.58.2.19.39.38.59.58Z"/><path class="cls-19" d="m104.23,107.9c-.2.19-.39.38-.59.58.2-.19.39-.38.59-.58Z"/><path class="cls-19" d="m24.89,109.05c-.19-.21-.38-.42-.58-.63.19.21.38.42.58.63Z"/><path class="cls-19" d="m103.69,108.43c-.19.21-.38.42-.58.63.19-.21.38-.42.58-.63Z"/><path class="cls-19" d="m117.36,37.17c.11.14.16.31.17.49-.11-.1-.22-.19-.32-.3,0-.01.1-.12.15-.19Z"/><path class="cls-19" d="m27.05,110.88c0-.1,0-.2.01-.3.16.19.32.38.49.57-.17-.09-.33-.18-.5-.26Z"/><path class="cls-19" d="m100.92,110.93c-.12.14-.27.21-.45.22.05-.27.14-.46.45-.22Z"/><path class="cls-7" d="m28.09,111.66c-.2-.19-.39-.38-.59-.57.2.19.39.38.59.57Z"/><path class="cls-7" d="m100.5,111.09c-.2.19-.4.38-.59.57.2-.19.4-.38.59-.57Z"/><path class="cls-19" d="m29.67,112.8c-.15-.09-.3-.18-.46-.27.35-.24.41,0,.46.27Z"/><path class="cls-19" d="m98.79,112.53c-.15.09-.3.18-.46.27.05-.26.11-.51.46-.27Z"/><path class="cls-19" d="m31.26,113.88c-.17-.05-.33-.13-.46-.25.39-.35.41-.02.46.25Z"/><path class="cls-19" d="m97.21,113.62c-.13.12-.29.2-.46.25.05-.27.07-.6.46-.25Z"/><path class="cls-19" d="m32.86,114.9c-.18-.03-.34-.11-.47-.23.32-.26.4-.04.47.23Z"/><path class="cls-19" d="m95.61,114.67c-.14.12-.29.2-.47.23.07-.27.15-.49.47-.23Z"/><path class="cls-19" d="m35.54,116.44c-.18,0-.34-.06-.48-.19.28-.25.4-.07.48.19Z"/><path class="cls-19" d="m92.94,116.25c-.14.12-.3.18-.48.19.08-.26.2-.43.48-.19Z"/><path class="cls-19" d="m36.59,117c-.18-.01-.34-.07-.48-.18.29-.28.4-.09.48.18Z"/><path class="cls-19" d="m91.89,116.82c-.14.11-.3.17-.48.18.08-.27.2-.46.48-.18Z"/><path class="cls-19" d="m37.66,117.53c-.18,0-.34-.07-.49-.17.28-.28.4-.1.49.17Z"/><path class="cls-19" d="m90.83,117.36c-.14.11-.31.16-.49.17.08-.28.2-.46.49-.17Z"/><path class="cls-19" d="m38.72,118.05c-.18,0-.34-.06-.49-.16.27-.28.4-.11.49.16Z"/><path class="cls-19" d="m89.77,117.89c-.15.11-.31.16-.49.16.09-.28.21-.44.49-.16Z"/><path class="cls-19" d="m39.8,118.54c-.18.02-.35-.02-.5-.13.25-.27.39-.14.5.13Z"/><path class="cls-19" d="m88.7,118.4c-.15.11-.31.15-.5.13.11-.27.25-.4.5-.13Z"/><path class="cls-19" d="m10.47,37.66c0-.18.07-.34.17-.49.02.13.06.27.06.4,0,.03-.15.06-.23.09Z"/><path class="cls-19" d="m116.82,36.11c.11.14.17.3.18.48-.11-.1-.23-.19-.32-.3,0-.01.09-.12.14-.19Z"/><path class="cls-19" d="m11,36.59c.01-.18.07-.34.18-.48.02.13.06.27.05.4,0,.03-.15.06-.23.09Z"/><path class="cls-19" d="m116.25,35.06c.12.14.18.3.19.48-.11-.1-.22-.18-.31-.29-.01-.02.08-.12.13-.19Z"/><path class="cls-19" d="m105.21,20.82c0,.11,0,.21,0,.32-.16-.2-.31-.39-.47-.59.16.09.32.18.48.27Z"/><path class="cls-19" d="m22.8,21.14c0-.11,0-.21,0-.32.16-.09.32-.18.47-.27-.15.2-.31.39-.46.59Z"/><path class="cls-7" d="m27.5,16.91c.2-.19.4-.38.59-.57-.2.19-.4.38-.59.57Z"/><path class="cls-19" d="m11.56,35.54c0-.18.06-.34.19-.48.01.13.05.26.03.39,0,.04-.14.06-.22.09Z"/><path class="cls-19" d="m114.67,32.39c.12.14.2.29.23.47-.12-.09-.24-.17-.35-.27-.01,0,.08-.13.13-.2Z"/><path class="cls-19" d="m104.18,20.04c.2.19.39.38.59.58-.2-.19-.39-.38-.59-.58Z"/><path class="cls-19" d="m13.1,32.86c.03-.18.11-.34.23-.47,0,.13.03.27,0,.4,0,.04-.15.05-.24.07Z"/><path class="cls-19" d="m113.62,30.79c.12.13.2.29.25.46-.27-.05-.6-.07-.25-.46Z"/><path class="cls-19" d="m23.23,20.62c.2-.19.39-.38.59-.58-.2.19-.39.39-.59.58Z"/><path class="cls-19" d="m103.64,19.52c.2.19.39.38.59.58-.2-.19-.39-.38-.59-.58Z"/><path class="cls-19" d="m23.77,20.1c.2-.19.39-.38.59-.58-.2.19-.39.38-.59.58Z"/><path class="cls-19" d="m103.11,18.95c.19.21.38.42.58.63-.19-.21-.38-.42-.58-.63Z"/><path class="cls-19" d="m14.12,31.26c.05-.17.13-.33.25-.46.35.39.02.41-.25.46Z"/><path class="cls-19" d="m112.53,29.21c.09.15.18.3.27.46-.26-.05-.51-.11-.27-.46Z"/><path class="cls-19" d="m24.31,19.57c.19-.21.38-.42.58-.63-.19.21-.38.42-.58.63Z"/><path class="cls-19" d="m100.47,16.85c.18,0,.33.08.45.22-.31.24-.4.05-.45-.22Z"/><path class="cls-18" d="m39.24,88.76c3.78,1.86,7.49,3.86,11.6,5.01,3.56,1,7.17,1.33,10.77.65,6.64-1.26,11.39-7.04,11.72-13.9.42-8.8-2.94-15.84-9.94-21.11-5.36-4.03-9.98-8.73-13.71-14.31-.2-.29-.41-.58-.59-.88-.66-1.13-1.52-2.38-.96-3.63.61-1.36,2.2-.88,3.36-.9,4.9-.08,9.36,1.59,13.6,3.86,10.22,5.48,18.41,13.06,23.78,23.46,7.25,14.03.98,26.69-12.67,31.75-13.11,4.86-28.02,1.02-37.46-9.52,0,0,.07-.24.07-.24,0,0,.18-.18.18-.18s.24-.07.24-.07Z"/><path class="cls-4" d="m83.64,41.65c-4.2,2-11.3.34-13.89-3.13-.59-.8-1.09-1.69-.6-2.68.46-.93,1.45-.87,2.33-.91,3.55-.17,9.58,3.11,12.16,6.72Z"/><path class="cls-18" d="m38.76,89.24c-.46-.12-.66-.47-.82-.88.59-.37.97-.06,1.3.4l-.12.11c-.08.08-.17.17-.25.25l-.12.12Z"/><path class="cls-18" d="m38.88,89.12c0-.17.08-.25.25-.25,0,.17-.08.25-.25.25Z"/></g></g></g></svg>