<?xml version="1.0" encoding="utf-8"?>
<!-- Generator: Adobe Illustrator 27.5.0, SVG Export Plug-In . SVG Version: 6.00 Build 0)  -->
<svg version="1.1" id="Layer_1" xmlns="http://www.w3.org/2000/svg" xmlns:xlink="http://www.w3.org/1999/xlink" x="0px" y="0px"
	 viewBox="0 0 128 128" style="enable-background:new 0 0 128 128;" xml:space="preserve">
<style type="text/css">
	.st0{fill:#FFFFFF;}
</style>
<circle cx="64" cy="64" r="63.5"/>
<g>
	<path class="st0" d="M42.4,58.9V42c0-1.8,1.5-3.3,3.3-3.3h12V30H42.2c-6,0-10.8,4.8-10.8,10.8v16.8c0,1.5-1.2,2.6-2.6,2.6h-2.5v3.3
		v1v3.3h2.5c1.5,0,2.6,1.2,2.6,2.6v16.8c0,6,4.8,10.8,10.8,10.8h15.5v-8.7h-12c-1.8,0-3.3-1.5-3.3-3.3V69.1c0-2.3-1.4-4.2-3.3-5.1
		C41,63.1,42.4,61.2,42.4,58.9z"/>
	<path class="st0" d="M85.6,58.9V42c0-1.8-1.5-3.3-3.3-3.3h-12V30h15.5c6,0,10.8,4.8,10.8,10.8v16.8c0,1.5,1.2,2.6,2.6,2.6h2.5v3.3
		v1v3.3h-2.5c-1.5,0-2.6,1.2-2.6,2.6v16.8c0,6-4.8,10.8-10.8,10.8H70.3v-8.7h12c1.8,0,3.3-1.5,3.3-3.3V69.1c0-2.3,1.4-4.2,3.3-5.1
		C87,63.1,85.6,61.2,85.6,58.9z"/>
	<path class="st0" d="M63.9,50c-7.7,0-14,6.2-14,14s6.2,14,14,14c7.7,0,14-6.2,14-14S71.6,50,63.9,50z M63.9,71.1
		c-3.9,0-7.1-3.2-7.1-7.1s3.2-7.1,7.1-7.1S71,60.1,71,64S67.8,71.1,63.9,71.1z"/>
</g>
</svg>
