<?xml version="1.0" encoding="utf-8"?>
<!-- Generator: Adobe Illustrator 27.0.0, SVG Export Plug-In . SVG Version: 6.00 Build 0)  -->
<svg version="1.1" id="Layer_1" xmlns="http://www.w3.org/2000/svg" xmlns:xlink="http://www.w3.org/1999/xlink" x="0px" y="0px"
	 viewBox="0 0 128 128" style="enable-background:new 0 0 128 128;" xml:space="preserve">
<style type="text/css">
	.st0{fill:#110B29;}
	.st1{fill:#5E12A0;}
	.st2{fill:url(#SVGID_1_);}
	.st3{fill:url(#SVGID_00000009550803297492341290000015677216649974831291_);}
	.st4{opacity:0.6;fill:#A98698;enable-background:new    ;}
	.st5{opacity:0.6;fill:url(#SVGID_00000097468162405986740250000001733078656521934776_);enable-background:new    ;}
	.st6{opacity:0.6;fill:url(#SVGID_00000174566008331167171370000009233373866591863171_);enable-background:new    ;}
	.st7{fill:url(#SVGID_00000081625278589205999980000012513134252071179940_);}
	.st8{opacity:0.6;}
	.st9{opacity:0.6;fill:url(#SVGID_00000013160477612990668250000014571410646179272382_);enable-background:new    ;}
	.st10{opacity:0.7;}
	.st11{opacity:0.7;fill:url(#SVGID_00000063608395348864644200000000331321235299040692_);enable-background:new    ;}
	.st12{fill:url(#SVGID_00000173129557408615856410000003466533632595776926_);}
	.st13{fill:#FFFFFF;}
	.st14{opacity:0.6;fill:url(#SVGID_00000175301839709707018220000003259982848204884403_);enable-background:new    ;}
	.st15{opacity:0.2;fill:#FFFFFF;enable-background:new    ;}
	.st16{opacity:0.4;}
	.st17{opacity:0.6;fill:url(#SVGID_00000168809325089200512310000013179039614183121074_);enable-background:new    ;}
	.st18{opacity:0.3;fill:#FFFFFF;enable-background:new    ;}
	.st19{opacity:0.6;fill:url(#SVGID_00000167353807636472551200000004000565421112741284_);enable-background:new    ;}
	.st20{opacity:0.6;fill:url(#SVGID_00000170254856409403721610000016073113905370415281_);enable-background:new    ;}
	.st21{opacity:0.6;fill:url(#SVGID_00000179642794262216002670000006002145213168899200_);enable-background:new    ;}
	.st22{opacity:0.6;fill:url(#SVGID_00000102532917429658124530000010884606625075094427_);enable-background:new    ;}
	.st23{opacity:0.6;fill:url(#SVGID_00000124876144931070637160000011843825696946668219_);enable-background:new    ;}
</style>
<circle class="st0" cx="64" cy="64" r="63.5"/>
<g>
	<path class="st1" d="M97.6,40.1c-0.8-2.9-3.2-5.8-7.5-9c-3.5-2.6-7.2-4-10.1-4c-0.6,0-1.1,0.1-1.7,0.2C77,27.5,75.8,28.5,75,30
		c-0.9,1.7-1.1,4.1-0.5,5.5c0.2,0.4,0.5,1,0.8,1.5c-2.8,1.7-4.5,2.2-4.7,2.3C78,41.8,84.2,47,88.1,53.8l0.1-0.7
		c0.2-1.8,0.7-3.9,1.4-6c0.8,0.2,1.5,0.3,2.3,0.3c2,0,3.7-0.8,4.8-2.3C97.7,43.7,98.1,41.8,97.6,40.1z"/>
	
		<radialGradient id="SVGID_1_" cx="-398.1967" cy="345.6141" r="1.8102" gradientTransform="matrix(13.2451 0 0 -13.4877 5369.2915 4698.6636)" gradientUnits="userSpaceOnUse">
		<stop  offset="0" style="stop-color:#FFEAFF;stop-opacity:0.6"/>
		<stop  offset="0.6807" style="stop-color:#A087C9"/>
		<stop  offset="1" style="stop-color:#10002F"/>
	</radialGradient>
	<path class="st2" d="M89.9,45.6c4.9,1.4,6.9-2.5,6.2-5c-0.7-2.6-3-5.2-6.9-8.1c-4-2.9-8-4.2-10.6-3.6c-2.6,0.5-3.3,4.5-2.7,6.1
		c0.3,0.6,0.9,1.5,1.7,2.5c-1,0.7-2,1.3-2.8,1.7c4.9,2.2,9.2,5.7,12.4,10.1c0.4-1.5,0.9-2.8,1.4-3.9C89,45.3,89.5,45.4,89.9,45.6z"
		/>
	
		<radialGradient id="SVGID_00000004548193347294226650000015752679088641681569_" cx="-420.1418" cy="356.9353" r="1.8102" gradientTransform="matrix(32.4059 0 0 -32.9994 13696.8701 11826.1865)" gradientUnits="userSpaceOnUse">
		<stop  offset="0" style="stop-color:#FFEAFF;stop-opacity:0.6"/>
		<stop  offset="0.6807" style="stop-color:#A087C9"/>
		<stop  offset="1" style="stop-color:#10002F"/>
	</radialGradient>
	<path style="fill:url(#SVGID_00000004548193347294226650000015752679088641681569_);" d="M61.9,99.1c16.6,0,30-13.7,30-30.5
		s-13.4-30.5-30-30.5c-16.6,0-30,13.7-30,30.5S45.4,99.1,61.9,99.1z"/>
	<path class="st4" d="M93.6,38.1c-4.1-4.4-7.5-5.5-11.6-6.4c-3.2-0.8-2.4-2.6,1.6-2.2c-1.9-0.7-3.6-0.8-4.9-0.5
		c-2.6,0.5-3.3,4.5-2.7,6.1c0.3,0.6,0.9,1.5,1.7,2.5c-1.4,1-2.7,1.7-3.7,2.2c0.5,0.2,1.1,0.5,1.8,0.9c1.8,1,3.8,2.6,3.8,2.6
		c-3-2.6-2.4-3.8,1.8-6.8c1.3-0.9,3.6-0.8,5.8,0.3c2.2,1.1,4.8,4,4.8,4l-2.5,4.8c0.2,0.1,0.3,0.1,0.5,0.2c1.6,0.4,2.8,0.3,3.8-0.1
		C94.8,44.9,97.7,42.5,93.6,38.1z"/>
	<path class="st1" d="M82,34.2c1.1,0.4,2.5,1.2,4.2,2.3c2,1.4,3.8,2.9,4.9,4.1c-1.9,2.5-3.1,6-3.9,8.4c0.4,0.5,0.8,1.1,1.2,1.6
		c0.4-1.4,1-3.4,1.9-5.4c0.2,0.1,0.5,0.1,0.8,0.1c0.6,0,1.4-0.1,2-0.6c0.4-0.3,0.9-0.9,0.9-2c0-1-0.8-2.3-2.5-3.9
		c-1.2-1.1-2.8-2.4-4.4-3.6c-4.6-3.1-7.8-4-9.3-2.5c-1,1-0.9,2.2-0.5,3.1c-1.7,1.1-3.2,2-4.1,2.5c0.6,0.2,1.2,0.5,1.9,0.8
		C76.6,38.1,79.1,36.5,82,34.2z M92.1,42c0.2,0.3,0.2,0.5,0.2,0.7c0,0.5-0.2,0.7-0.3,0.8c-0.2,0.2-0.6,0.3-1,0.3
		C91.3,43.1,91.7,42.6,92.1,42z M78.8,33.9c0.2-0.2,0.6-0.3,1.3-0.2c-0.5,0.4-1.1,0.8-1.6,1.2C78.5,34.6,78.5,34.2,78.8,33.9z"/>
	<path class="st1" d="M61.9,36.2c-17.5,0-31.8,14.5-31.8,32.3c0,17.9,14.2,32.3,31.8,32.3c17.5,0,31.8-14.5,31.8-32.3
		C93.7,50.7,79.4,36.2,61.9,36.2z M61.9,99.1c-16.6,0-30-13.7-30-30.5c0-16.9,13.4-30.5,30-30.5c16.6,0,30,13.7,30,30.5
		C91.9,85.5,78.5,99.1,61.9,99.1z"/>
	
		<linearGradient id="SVGID_00000096054826182869080170000004735390973368292509_" gradientUnits="userSpaceOnUse" x1="56.972" y1="31.2921" x2="66.915" y2="91.5305" gradientTransform="matrix(1 0 0 -1 0 130)">
		<stop  offset="0" style="stop-color:#81FFFF"/>
		<stop  offset="0.6202" style="stop-color:#FFFFFF;stop-opacity:0"/>
	</linearGradient>
	<path style="opacity:0.6;fill:url(#SVGID_00000096054826182869080170000004735390973368292509_);enable-background:new    ;" d="
		M61.9,99.1c16.6,0,30-13.7,30-30.5s-13.4-30.5-30-30.5c-16.6,0-30,13.7-30,30.5S45.4,99.1,61.9,99.1z"/>
	<path class="st4" d="M61.7,95.4c-16.4-2.7-27.5-18.4-24.8-35c1.2-7.4,4.8-13.7,10-18.2c-7.5,4.4-13.1,12.1-14.6,21.5
		c-2.6,16.7,8.5,32.3,24.8,35c9.1,1.5,17.9-1.4,24.4-7C75.8,95.1,68.8,96.6,61.7,95.4z"/>
	
		<linearGradient id="SVGID_00000083061823602135988860000006311030315297625510_" gradientUnits="userSpaceOnUse" x1="83.3503" y1="81.8462" x2="58.1428" y2="59.1335" gradientTransform="matrix(1 0 0 -1 0 130)">
		<stop  offset="0.2888" style="stop-color:#FFFFFF"/>
		<stop  offset="0.7796" style="stop-color:#FFFFFF;stop-opacity:0"/>
	</linearGradient>
	<path style="opacity:0.6;fill:url(#SVGID_00000083061823602135988860000006311030315297625510_);enable-background:new    ;" d="
		M66.7,38.5c-7.6-1.3-14.9,0.5-20.9,4.4c-0.1,0.1-0.2,0.2-0.2,0.2c2.3-1.4,5.7-2.7,5.7-2.7c-8.7,5.1-11.4,11-11.4,11
		C43.3,44.7,53.2,40,61,39.7c7.8-0.3,12.9,2,19.1,7.1c6.2,5.1,10,15.6,9.6,23.9c-0.3,8.3-4.6,15-4.6,15c3-3.9,4.7-6.7,5.8-9.6
		c0.2-0.9,0.4-1.7,0.5-2.7C94.1,56.8,83.1,41.2,66.7,38.5z"/>
	
		<linearGradient id="SVGID_00000145056548801633536710000015872492114830570881_" gradientUnits="userSpaceOnUse" x1="33.4045" y1="47.1811" x2="90.4288" y2="47.1811" gradientTransform="matrix(1 0 0 -1 0 130)">
		<stop  offset="0" style="stop-color:#0002E9"/>
		<stop  offset="0.9952" style="stop-color:#FF00C7"/>
	</linearGradient>
	<path style="fill:url(#SVGID_00000145056548801633536710000015872492114830570881_);" d="M90.4,68.3c0,16-12.8,29-28.5,29
		c-15.7,0-28.5-13-28.5-29H90.4z"/>
	<g class="st8">
		
			<linearGradient id="SVGID_00000176743091413563053450000016462542578250223537_" gradientUnits="userSpaceOnUse" x1="93.2716" y1="58.9681" x2="61.7235" y2="29.6898" gradientTransform="matrix(1 0 0 -1 0 130)">
			<stop  offset="0.2888" style="stop-color:#FFFFFF"/>
			<stop  offset="0.7796" style="stop-color:#FFFFFF;stop-opacity:0"/>
		</linearGradient>
		<path style="opacity:0.6;fill:url(#SVGID_00000176743091413563053450000016462542578250223537_);enable-background:new    ;" d="
			M88.2,68.3c0,15.6-12.1,28.4-27.4,29c0.4,0,0.8,0,1.1,0c15.7,0,28.5-13,28.5-29H88.2z"/>
	</g>
	<g class="st10">
		
			<linearGradient id="SVGID_00000121267260771285790910000008663392725256788906_" gradientUnits="userSpaceOnUse" x1="33.4045" y1="47.1811" x2="63.8747" y2="47.1811" gradientTransform="matrix(1 0 0 -1 0 130)">
			<stop  offset="0" style="stop-color:#000292"/>
			<stop  offset="0.9952" style="stop-color:#7D00C7"/>
		</linearGradient>
		<path style="opacity:0.7;fill:url(#SVGID_00000121267260771285790910000008663392725256788906_);enable-background:new    ;" d="
			M37.4,68.3h-4c0,16,12.8,29,28.5,29c0.7,0,1.3,0,2-0.1C49.1,96.2,37.4,83.6,37.4,68.3z"/>
	</g>
	
		<linearGradient id="SVGID_00000145750226533120328550000018089430398946150021_" gradientUnits="userSpaceOnUse" x1="33.4669" y1="59.0194" x2="90.3767" y2="59.0194" gradientTransform="matrix(1 0 0 -1 0 130)">
		<stop  offset="0" style="stop-color:#000292"/>
		<stop  offset="0.9952" style="stop-color:#BE00C7"/>
	</linearGradient>
	<path style="fill:url(#SVGID_00000145750226533120328550000018089430398946150021_);" d="M90.4,68.6c0-3.3-5.7-5.2-13.3-5.9
		c-5.5-0.4-11,0.1-17.3,2.1c-5.5,1.6-10.4,1.4-14,0.9c-8-0.9-12.4-1-12.4,2.9c0,5.7,11.4,12.8,28.4,10.3c8.6-1.3,13.1-3.8,18.2-5.6
		C85.5,71.5,90.4,71.5,90.4,68.6z"/>
	<path class="st13" d="M71.3,54.8c2.7,0,4.8-2.2,4.8-4.9c0-2.7-2.2-4.9-4.8-4.9s-4.8,2.2-4.8,4.9C66.4,52.6,68.6,54.8,71.3,54.8z"/>
	<path class="st13" d="M79.2,58.5c1.1,0,2-0.9,2-2.1c0-1.1-0.9-2.1-2-2.1c-1.1,0-2,0.9-2,2.1C77.1,57.6,78,58.5,79.2,58.5z"/>
	<g class="st8">
		
			<linearGradient id="SVGID_00000111178278413022088210000016509484831283205041_" gradientUnits="userSpaceOnUse" x1="89.5178" y1="90.0368" x2="85.319" y2="83.3365" gradientTransform="matrix(1 0 0 -1 0 130)">
			<stop  offset="0.2888" style="stop-color:#FFFFFF"/>
			<stop  offset="0.7796" style="stop-color:#FFFFFF;stop-opacity:0"/>
		</linearGradient>
		<path style="opacity:0.6;fill:url(#SVGID_00000111178278413022088210000016509484831283205041_);enable-background:new    ;" d="
			M86.5,46c-0.1,0-0.1,0-0.1,0c-0.3-0.1-0.5-0.4-0.5-0.8c0.5-2.5,2.5-4.9,2.6-5c0.2-0.3,0.6-0.3,0.9-0.1c0.3,0.2,0.3,0.7,0.1,0.9
			c-0.1,0.1-1.9,2.3-2.4,4.5C87,45.8,86.7,46,86.5,46z"/>
	</g>
	<path class="st15" d="M60,91.4c0.8,0,1.5-0.7,1.5-1.5c0-0.8-0.7-1.5-1.5-1.5c-0.8,0-1.5,0.7-1.5,1.5C58.5,90.7,59.1,91.4,60,91.4z"
		/>
	<g class="st16">
		
			<linearGradient id="SVGID_00000120519188848146768610000009675150607758524345_" gradientUnits="userSpaceOnUse" x1="58.4432" y1="40.1479" x2="60.7128" y2="40.1479" gradientTransform="matrix(1 0 0 -1 0 130)">
			<stop  offset="0.2888" style="stop-color:#FFFFFF"/>
			<stop  offset="0.7796" style="stop-color:#FFFFFF;stop-opacity:0"/>
		</linearGradient>
		<path style="opacity:0.6;fill:url(#SVGID_00000120519188848146768610000009675150607758524345_);enable-background:new    ;" d="
			M59.1,90.8c-0.6-0.6-0.6-1.6,0-2.2c0.1-0.1,0.2-0.2,0.3-0.3c-0.2,0.1-0.4,0.2-0.5,0.3c-0.6,0.6-0.6,1.6,0,2.2
			c0.5,0.5,1.2,0.6,1.8,0.3C60.2,91.4,59.5,91.3,59.1,90.8z"/>
	</g>
	<path class="st18" d="M60.5,89.4c0.2,0,0.3-0.1,0.3-0.3c0-0.2-0.1-0.3-0.3-0.3s-0.3,0.1-0.3,0.3C60.2,89.3,60.3,89.4,60.5,89.4z"/>
	<path class="st15" d="M67.8,90.6c0.8,0,1.5-0.7,1.5-1.5c0-0.8-0.7-1.5-1.5-1.5c-0.8,0-1.5,0.7-1.5,1.5C66.3,89.9,67,90.6,67.8,90.6
		z"/>
	<g class="st16">
		
			<linearGradient id="SVGID_00000093874930598247628480000004115624502221110686_" gradientUnits="userSpaceOnUse" x1="66.2683" y1="40.9129" x2="68.5379" y2="40.9129" gradientTransform="matrix(1 0 0 -1 0 130)">
			<stop  offset="0.2888" style="stop-color:#FFFFFF"/>
			<stop  offset="0.7796" style="stop-color:#FFFFFF;stop-opacity:0"/>
		</linearGradient>
		<path style="opacity:0.6;fill:url(#SVGID_00000093874930598247628480000004115624502221110686_);enable-background:new    ;" d="
			M66.9,90.1c-0.6-0.6-0.6-1.6,0-2.2c0.1-0.1,0.2-0.2,0.3-0.3c-0.2,0.1-0.4,0.2-0.5,0.3c-0.6,0.6-0.6,1.6,0,2.2
			c0.5,0.5,1.2,0.6,1.8,0.3C68,90.6,67.4,90.5,66.9,90.1z"/>
	</g>
	<path class="st18" d="M68.3,88.6c0.2,0,0.3-0.1,0.3-0.3S68.5,88,68.3,88c-0.2,0-0.3,0.1-0.3,0.3S68.1,88.6,68.3,88.6z"/>
	<path class="st15" d="M63.9,94.2c0.6,0,1.1-0.5,1.1-1.1c0-0.6-0.5-1.1-1.1-1.1c-0.6,0-1.1,0.5-1.1,1.1
		C62.8,93.6,63.3,94.2,63.9,94.2z"/>
	<g class="st16">
		
			<linearGradient id="SVGID_00000114788297485407566690000004528569033807731615_" gradientUnits="userSpaceOnUse" x1="62.7949" y1="36.9607" x2="64.4988" y2="36.9607" gradientTransform="matrix(1 0 0 -1 0 130)">
			<stop  offset="0.2888" style="stop-color:#FFFFFF"/>
			<stop  offset="0.7796" style="stop-color:#FFFFFF;stop-opacity:0"/>
		</linearGradient>
		<path style="opacity:0.6;fill:url(#SVGID_00000114788297485407566690000004528569033807731615_);enable-background:new    ;" d="
			M63.3,93.7c-0.4-0.4-0.4-1.2,0-1.6c0.1-0.1,0.2-0.1,0.2-0.2c-0.2,0.1-0.3,0.2-0.4,0.3c-0.4,0.4-0.4,1.2,0,1.6
			c0.4,0.4,0.9,0.4,1.4,0.2C64.1,94.2,63.6,94,63.3,93.7z"/>
	</g>
	<path class="st18" d="M64.3,92.6c0.1,0,0.2-0.1,0.2-0.2c0-0.1-0.1-0.2-0.2-0.2c-0.1,0-0.2,0.1-0.2,0.2
		C64.1,92.5,64.2,92.6,64.3,92.6z"/>
	<path class="st15" d="M70.8,93.3c0.6,0,1.1-0.5,1.1-1.1c0-0.6-0.5-1.1-1.1-1.1c-0.6,0-1.1,0.5-1.1,1.1
		C69.7,92.8,70.2,93.3,70.8,93.3z"/>
	<g class="st16">
		
			<linearGradient id="SVGID_00000143592011098940114210000016063858843807361687_" gradientUnits="userSpaceOnUse" x1="69.6921" y1="37.7801" x2="71.3959" y2="37.7801" gradientTransform="matrix(1 0 0 -1 0 130)">
			<stop  offset="0.2888" style="stop-color:#FFFFFF"/>
			<stop  offset="0.7796" style="stop-color:#FFFFFF;stop-opacity:0"/>
		</linearGradient>
		<path style="opacity:0.6;fill:url(#SVGID_00000143592011098940114210000016063858843807361687_);enable-background:new    ;" d="
			M70.2,92.9c-0.4-0.4-0.4-1.2,0-1.6c0.1-0.1,0.2-0.1,0.2-0.2c-0.2,0.1-0.3,0.2-0.4,0.3c-0.4,0.4-0.4,1.2,0,1.6
			c0.4,0.4,0.9,0.4,1.4,0.2C71,93.3,70.5,93.2,70.2,92.9z"/>
	</g>
	<path class="st18" d="M71.2,91.8c0.1,0,0.2-0.1,0.2-0.2c0-0.1-0.1-0.2-0.2-0.2c-0.1,0-0.2,0.1-0.2,0.2C71,91.7,71.1,91.8,71.2,91.8
		z"/>
	<path class="st15" d="M53.6,90.8c1.4,0,2.5-1.1,2.5-2.5c0-1.4-1.1-2.5-2.5-2.5c-1.4,0-2.5,1.1-2.5,2.5
		C51.1,89.7,52.2,90.8,53.6,90.8z"/>
	<g class="st16">
		
			<linearGradient id="SVGID_00000129915505228410082060000010862143566473905816_" gradientUnits="userSpaceOnUse" x1="51.1108" y1="41.6194" x2="54.8172" y2="41.6194" gradientTransform="matrix(1 0 0 -1 0 130)">
			<stop  offset="0.2888" style="stop-color:#FFFFFF"/>
			<stop  offset="0.7796" style="stop-color:#FFFFFF;stop-opacity:0"/>
		</linearGradient>
		<path style="opacity:0.6;fill:url(#SVGID_00000129915505228410082060000010862143566473905816_);enable-background:new    ;" d="
			M52.2,89.9c-1-1-1-2.6,0-3.6c0.2-0.2,0.3-0.3,0.5-0.4c-0.3,0.1-0.6,0.3-0.9,0.5c-1,1-1,2.6,0,3.6c0.8,0.8,2,1,3,0.4
			C54,90.8,52.9,90.7,52.2,89.9z"/>
	</g>
	<path class="st18" d="M54.4,87.5c0.3,0,0.5-0.2,0.5-0.5c0-0.3-0.2-0.5-0.5-0.5c-0.3,0-0.5,0.2-0.5,0.5
		C53.9,87.3,54.1,87.5,54.4,87.5z"/>
	<path class="st15" d="M75.6,84.6c1.4,0,2.5-1.1,2.5-2.5c0-1.4-1.1-2.5-2.5-2.5c-1.4,0-2.5,1.1-2.5,2.5
		C73.2,83.5,74.3,84.6,75.6,84.6z"/>
	<g class="st16">
		
			<linearGradient id="SVGID_00000116196980764297832610000007787447169321636502_" gradientUnits="userSpaceOnUse" x1="73.1244" y1="47.7924" x2="76.831" y2="47.7924" gradientTransform="matrix(1 0 0 -1 0 130)">
			<stop  offset="0.2888" style="stop-color:#FFFFFF"/>
			<stop  offset="0.7796" style="stop-color:#FFFFFF;stop-opacity:0"/>
		</linearGradient>
		<path style="opacity:0.6;fill:url(#SVGID_00000116196980764297832610000007787447169321636502_);enable-background:new    ;" d="
			M74.2,83.7c-1-1-1-2.6,0-3.6c0.2-0.2,0.3-0.3,0.5-0.4c-0.3,0.1-0.6,0.3-0.9,0.5c-1,1-1,2.6,0,3.6c0.8,0.8,2,1,3,0.4
			C75.9,84.6,74.9,84.5,74.2,83.7z"/>
	</g>
	<path class="st18" d="M76.5,81.4c0.3,0,0.5-0.2,0.5-0.5c0-0.3-0.2-0.5-0.5-0.5c-0.3,0-0.5,0.2-0.5,0.5
		C75.9,81.1,76.2,81.4,76.5,81.4z"/>
</g>
</svg>
