<?xml version="1.0" encoding="UTF-8"?><svg id="CIRCLE_OUTLINE_BLACK" xmlns="http://www.w3.org/2000/svg" viewBox="0 0 512 512"><circle cx="260.33099" cy="256.61037" r="220.27922" fill="#fff"/><path d="m256,0C114.61523,0,0,114.61523,0,256s114.61523,256,256,256,256-114.61523,256-256S397.38477,0,256,0Zm-98.97314,132.02246c4.78485-8.05469,15.19446-10.70947,23.24921-5.9248,8.05475,4.78491,10.70966,15.19458,5.9248,23.24927-4.78485,8.05493-15.19446,10.70972-23.24921,5.9248-8.05475-4.78491-10.70966-15.19458-5.9248-23.24927Zm-45.16351,13.97949c-5.68481-3.37476-7.55975-10.72461-4.18488-16.42432s10.73962-7.55981,16.42444-4.18481c5.69983,3.38989,7.57477,10.7395,4.18488,16.42456-3.37488,5.68457-10.73962,7.55957-16.42444,4.18457Zm18.83936,27.97412c6.20978-10.43945,19.70935-13.8894,30.14905-7.67969,10.43964,6.20996,13.87451,19.70947,7.67969,30.14893-6.20978,10.45483-19.70935,13.88965-30.14899,7.67993-10.43964-6.20972-13.88953-19.70947-7.67975-30.14917Zm275.03101,90.58203c-4.0799,64.67798-54.07324,115.49634-116.2312,122.80103-7.91974.94507-15.89948,1.16992-23.86426.67505-71.7876-4.51489-126.52081-65.60791-123.58093-137.12549-.10498-1.00488.255-8.5647.94501-11.14453,3.55487-13.12476,15.50946-22.79932,29.75897-22.79932,16.67944,0,30.224,13.22949,30.80902,29.77393.01501.375-3.2699,30.11914,10.94965,48.71851,11.89459,17.98438,31.76892,30.38892,54.94318,31.85889,39.23871,2.47485,73.03259-27.3291,75.50751-66.55298.87-13.55933-2.17493-27.07397-8.77472-38.95361-11.38458-20.50439-32.63892-34.96387-57.77808-36.55371-9.44971-.61499-18.92938.6748-27.86908,3.79492-2.3399.80981-12.17963,3.92969-15.02948,3.92969-17.00946,0-30.79401-13.79932-30.79401-30.80884,0-13.07959,7.72473-22.85938,19.69434-28.70923,0,0,14.77454-6.6748,32.26398-8.09961,8.47473-1.10986,17.03943-1.40991,25.57416-.87012,72.77759,4.57495,128.0658,67.28784,123.47595,140.06543Z" fill="#5f45ba"/></svg>