<?xml version="1.0" encoding="UTF-8"?><svg xmlns="http://www.w3.org/2000/svg" viewBox="0 0 512 512"><g id="BG_WHITE"><circle cx="264.97614" cy="264.60582" r="220.27922" fill="#fff"/></g><g id="CIRCLE_OUTLINE_BLACK"><path d="m206.53625,188.99854c-36.06177,25.48535-47.95483,73.35498-23.91382,110.43604,24.11353,37.12939,73.69568,47.79785,110.94604,23.87109,37.25098-23.82861,42.30554-70.25439,23.91357-110.43604-18.85913-41.24365-70.59424-52.54199-110.9458-23.87109Z" fill="#cca727"/><path d="m256,0C114.61511,0,0,114.61523,0,256s114.61511,256,256,256,256-114.61523,256-256S397.38489,0,256,0Zm114.19421,321.64941c-82.3175,35.4668-87.20215,105.33887-165.01721,67.70605-12.36353-6.05225-23.31799-14.6333-32.15393-25.18848-7.52417-8.9375-7.67944-8.94824-.16992,0-53.77393-8.66455-89.87817-36.40137-57.59668-109.2041,28.20361-63.16113,3.14307-125.3877,89.19849-122.62695.02338.02344.03613.02051.05469.03125,23.69836-22.03516,51.04852-29.08057,82.22021-7.42188,25.31543,17.66992,51.65015,19.66602,85.37573,25.8252,30.62476,5.60693,37.16602,36.61377,23.14917,76.11621-.00562.01416-.01172.02881-.01721.04297,21.33923,35.92236,21.15137,74.80664-25.04333,94.71973Z" fill="#cca727"/></g></svg>