<?xml version="1.0" encoding="UTF-8"?><svg id="Layer_1" xmlns="http://www.w3.org/2000/svg" viewBox="0 0 128 128"><defs><style>.cls-1{fill:#75f8d3;}.cls-1,.cls-2{stroke-width:0px;}.cls-2{fill:#5717de;}</style></defs><circle class="cls-2" cx="64" cy="64" r="63.5"/><g id="PLA"><path class="cls-1" d="m97.47,59.77c-2.42-3.92-7.55-5.13-11.47-2.71l-29.15,18c-.04,2.91,0,8.98.03,13.58l-.05-.5c0,4.73-.74,6.94-.64,6.94s.74-.49.74-.49l37.82-23.35c3.92-2.42,5.13-7.55,2.71-11.47Z"/><path class="cls-1" d="m56.94,73.35s0,0,0,0c.01,0,.01,0,0,0Z"/><path class="cls-1" d="m37.36,43.05v48.78c0,4.6,3.73,8.33,8.33,8.33s8.33-3.73,8.33-8.33v-37.36l-11.55-7.37c-1.98-1.27-5.11-4.05-5.11-4.05Zm.29.98s.1.07.16.1l-.16-.1Z"/><path class="cls-1" d="m88.5,53.06l-38.48-23.97c-3.91-2.43-9.05-1.23-11.48,2.68-2.43,3.91-1.23,9.05,2.68,11.48l30.52,18.98,10.2-6.14h0c2.83-1.7,6.56-3.02,6.56-3.02Z"/></g></svg>