<?xml version="1.0" encoding="utf-8"?>
<!-- Generator: Adobe Illustrator 27.2.0, SVG Export Plug-In . SVG Version: 6.00 Build 0)  -->
<svg version="1.1" id="Layer_1" xmlns="http://www.w3.org/2000/svg" xmlns:xlink="http://www.w3.org/1999/xlink" x="0px" y="0px"
	 viewBox="0 0 128 128" style="enable-background:new 0 0 128 128;" xml:space="preserve">
<style type="text/css">
	.st0{fill:#00EEA5;}
	.st1{fill:#006042;}
</style>
<circle class="st0" cx="64" cy="64" r="63.5"/>
<path class="st1" d="M105.2,50.6L92.6,38c-2.2-2.2-5.2-3.4-8.1-3.4c-2.9,0-5.9,1.1-8.1,3.4l-2.5,2.5L61.5,28.2
	c-2.2-2.2-5.2-3.4-8.1-3.4c-2.9,0-5.9,1.1-8.1,3.4L22.8,50.6c-2.2,2.2-3.4,5.1-3.4,8.1c0,3,1.2,6,3.4,8.1l33,33
	c2.2,2.2,5.2,3.4,8.1,3.4c2.9,0,5.9-1.1,8.1-3.4l33-33C109.6,62.3,109.6,55.1,105.2,50.6z M31,58.7l22.4-22.4l12.4,12.4L43.3,71.1
	L31,58.7z M64,91.7L51.6,79.3l0,0L64,67l12.4,12.4h0L64,91.7z M84.7,71.1L72.3,58.7l1.8-1.8c0.6-0.6,1-1.2,1.5-1.8l9-9L97,58.7
	L84.7,71.1z"/>
</svg>
