<?xml version="1.0" encoding="UTF-8"?>
<svg id="Layer_1" xmlns="http://www.w3.org/2000/svg" version="1.1" viewBox="0 0 500 500">
  <!-- Generator: Adobe Illustrator 29.0.1, SVG Export Plug-In . SVG Version: 2.1.0 Build 192)  -->
  <defs>
    <style>
      .st0 {
        fill: #cdfa50;
      }
    </style>
  </defs>
  <circle cx="250" cy="250" r="248.5"/>
  <g>
    <polygon class="st0" points="333.4 121.9 333.4 172.9 179.5 172.9 176.9 175.5 176.9 252 125.9 252 125.9 121.9 333.4 121.9"/>
    <path class="st0" d="M333.4,252c0-22-2.5-52.3,0-73,.3-2.6.2-4.5,2.7-6.1h50.1v79.1c-17.6,0-35.2,0-52.7,0,0,17.6,0,35.2,0,52.7h-154.7v-52.7c51.5,0,103.2.1,154.7,0Z"/>
    <path class="st0" d="M176.9,304.7v74.7c0,.5,2.2,1.3,1.8,2.6h-52.7v-77.4h51Z"/>
  </g>
</svg>