<?xml version="1.0" encoding="UTF-8"?>
<svg id="Layer_1" xmlns="http://www.w3.org/2000/svg" version="1.1" viewBox="0 0 500 500">
  <!-- Generator: Adobe Illustrator 29.0.1, SVG Export Plug-In . SVG Version: 2.1.0 Build 192)  -->
  <defs>
    <style>
      .st0 {
        fill: #704310;
      }

      .st1 {
        fill: #9c8263;
      }

      .st2 {
        fill: #d19363;
      }

      .st3 {
        fill: #88642c;
      }

      .st4 {
        fill: #9a522d;
      }

      .st5 {
        fill: #260d06;
      }

      .st6 {
        fill: #5b3f1d;
      }

      .st7 {
        fill: #5a370e;
      }

      .st8 {
        fill: #5a3616;
      }

      .st9 {
        fill: #553010;
      }

      .st10 {
        fill: #4e300f;
      }

      .st11 {
        fill: #725434;
      }

      .st12 {
        fill: #7d3819;
      }

      .st13 {
        fill: #795f48;
      }

      .st14 {
        fill: #b66c49;
      }

      .st15 {
        fill: #230a05;
      }

      .st16 {
        fill: #6c300c;
      }

      .st17 {
        fill: #603818;
      }

      .st18 {
        fill: #6a5132;
      }

      .st19 {
        fill: #3b1f0b;
      }

      .st20 {
        fill: #391f16;
      }

      .st21 {
        fill: #6b5639;
      }

      .st22 {
        fill: #81441c;
      }

      .st23 {
        fill: #d6a27d;
      }

      .st24 {
        fill: #513719;
      }

      .st25 {
        fill: #6f573a;
      }

      .st26 {
        fill: #e2ac82;
      }

      .st27 {
        fill: #e6a87d;
      }

      .st28 {
        fill: #fff;
      }

      .st29 {
        fill: #492a0b;
      }

      .st30 {
        fill: #f0b481;
      }

      .st31 {
        fill: #442310;
      }

      .st32 {
        fill: #ac6a49;
      }

      .st33 {
        fill: #73472b;
      }

      .st34 {
        fill: #723b17;
      }

      .st35 {
        fill: #efb581;
      }

      .st36 {
        fill: #70532f;
      }

      .st37 {
        fill: #a2683c;
      }

      .st38 {
        fill: #71482d;
      }

      .st39 {
        fill: #412510;
      }

      .st40 {
        fill: #080403;
      }

      .st41 {
        fill: #4d200a;
      }

      .st42 {
        fill: #a88d78;
      }

      .st43 {
        fill: #efb783;
      }

      .st44 {
        fill: #896423;
      }

      .st45 {
        fill: #734b28;
      }

      .st46 {
        fill: #431707;
      }

      .st47 {
        fill: #947959;
      }

      .st48 {
        fill: #997158;
      }

      .st49 {
        fill: #6c4b22;
      }

      .st50 {
        fill: #140704;
      }

      .st51 {
        fill: #7f4c2d;
      }

      .st52 {
        fill: #4f3114;
      }

      .st53 {
        fill: #765639;
      }

      .st54 {
        fill: #1d0b07;
      }

      .st55 {
        fill: #614e39;
      }

      .st56 {
        fill: #6d513a;
      }

      .st57 {
        fill: #402d1a;
      }

      .st58 {
        fill: #c68460;
      }

      .st59 {
        fill: #cf8e5f;
      }

      .st60 {
        fill: #674312;
      }

      .st61 {
        fill: #9f6743;
      }

      .st62 {
        fill: #f9c58f;
      }

      .st63 {
        fill: #592207;
      }

      .st64 {
        fill: #311507;
      }

      .st65 {
        fill: #df9d6f;
      }

      .st66 {
        fill: #f5c39c;
      }

      .st67 {
        fill: #f2c091;
      }

      .st68 {
        fill: #9d623e;
      }

      .st69 {
        fill: #7c5623;
      }

      .st70 {
        fill: #bd7e51;
      }

      .st71 {
        fill: #c07a48;
      }

      .st72 {
        fill: #8e5744;
      }

      .st73 {
        fill: #845041;
      }

      .st74 {
        fill: #180803;
      }

      .st75 {
        fill: #986e2e;
      }

      .st76 {
        fill: #f5bc86;
      }

      .st77 {
        fill: #f9c794;
      }

      .st78 {
        fill: #5c3516;
      }

      .st79 {
        fill: #cf8d64;
      }

      .st80 {
        fill: #2c1306;
      }

      .st81 {
        fill: #b77649;
      }

      .st82 {
        fill: #3b2108;
      }

      .st83 {
        fill: #dea76a;
      }

      .st84 {
        fill: #3f2a18;
      }

      .st85 {
        fill: #2a1106;
      }

      .st86 {
        fill: #f0af7c;
      }

      .st87 {
        fill: #66441b;
      }

      .st88 {
        fill: #cc9271;
      }

      .st89 {
        fill: #2c1209;
      }

      .st90 {
        fill: #a37652;
      }

      .st91 {
        fill: #967459;
      }

      .st92 {
        fill: #3a1e08;
      }

      .st93 {
        fill: #5e4a35;
      }

      .st94 {
        fill: #341709;
      }

      .st95 {
        fill: #351605;
      }

      .st96 {
        fill: #6c4f29;
      }

      .st97 {
        fill: #ba7b54;
      }

      .st98 {
        fill: #facf9a;
      }

      .st99 {
        fill: #8b6244;
      }

      .st100 {
        fill: #261209;
      }

      .st101 {
        fill: #b58968;
      }

      .st102 {
        fill: #955b34;
      }

      .st103 {
        fill: #0e0303;
      }

      .st104 {
        fill: #d3ab8d;
      }

      .st105 {
        fill: #945930;
      }

      .st106 {
        fill: #8e5025;
      }

      .st107 {
        fill: #f1ae7f;
      }

      .st108 {
        fill: #551809;
      }

      .st109 {
        fill: #240903;
      }

      .st110 {
        fill: #854f2c;
      }

      .st111 {
        fill: #764d13;
      }

      .st112 {
        fill: #120604;
      }

      .st113 {
        fill: #51280a;
      }

      .st114 {
        fill: #faca99;
      }

      .st115 {
        fill: #dfa372;
      }

      .st116 {
        fill: #4a2f1c;
      }

      .st117 {
        fill: #291307;
      }

      .st118 {
        fill: #713715;
      }

      .st119 {
        fill: #a3653d;
      }

      .st120 {
        fill: #f4b889;
      }

      .st121 {
        fill: #faca98;
      }

      .st122 {
        fill: #b07354;
      }

      .st123 {
        fill: #53140a;
      }

      .st124 {
        fill: #ce865f;
      }

      .st125 {
        fill: #eaa77f;
      }

      .st126 {
        fill: #bb7d51;
      }

      .st127 {
        fill: #f8d7b6;
      }

      .st128 {
        fill: #431a0e;
      }

      .st129 {
        fill: #2d1308;
      }

      .st130 {
        fill: #855a1e;
      }

      .st131 {
        fill: #b57b56;
      }

      .st132 {
        fill: #b27a54;
      }

      .st133 {
        fill: #573613;
      }

      .st134 {
        fill: #2c1c11;
      }

      .st135 {
        fill: #764528;
      }

      .st136 {
        fill: #80633e;
      }

      .st137 {
        fill: #a1805f;
      }

      .st138 {
        fill: #e19870;
      }

      .st139 {
        fill: #7f5720;
      }

      .st140 {
        fill: #4e3b29;
      }
    </style>
  </defs>
  <circle class="st28" cx="250" cy="250" r="248.5"/>
  <path class="st34" d="M259.4,69.6c.8.2,1.4,1.7,2.1,2.1,1,5.1,3.8,9.3,8.3,12.5,1.7,2.8,3.5,6.3.5,7.8,8.6,16.8,16.7,33.7,24.5,50.6.2.6-.2,1.4,0,2.1,8.3,5.5-1.4,6.7-8.3,4.2-.9,2-2.6,1.6-4.2,0l-18.8-2.6c-3.2-3.6-3.3-9.3-.3-17.2-5.7,4.1-11.8,3.6-18.1,1-3.2,1-23.2,11.5-19.3,18.3l-4,2.6c-2.3,1-6,.6-6.3-2.1-13.2-.8-7.4-9-1.6-16.1-4.4-4.8-4.3-12.1-.5-17.2-.9-1.8,0-2.4,2.1-2.1,1.3-5.2,3.6-9.2,6.9-12,4-22.2,10.3-38.4,36.9-31.8Z"/>
  <path class="st120" d="M328.2,307.3c3.9-3,6.1,4.4,6.3,8.3,7.2,13-23.7,14.7-30.8,4.6,5.7,9.6,9.7,20.2,11.9,31.7,6.2,17.1,22.2,18.8,34.1,4.8-6.7-5.7-10.2-19.3,1.5-18.1,3.9,1.2,8,4,12.5,8.3,5.3-2.6,6.9-1.1,4.2,4.2,1.8,2.9,1.8,5,0,6.3,1.5,2.5,2.7,5.2,3.6,8,10.7,5.4,15.1,11.1,13.1,17-9.7,9.9-13.8,13-25,20.9-5.5.7-9.8-4-12.5-8.3-1.5,2.8-11.7,0-10.4-4.2-3.1-4.4,7.7-2.2,7.1-2.1-4.7,1.2-16.6-.8-14.1-7.1-7.9-.8-12.5-3.2-13.8-7.5l-13.6,1c-3.2-5.6-3.5-12.8-1-21.8-3.5-3.2-4.9-8.8-4.2-16.7-5.6-1.8-5.6-4.3,0-6.3-2.3-10.2-9-18.4-16.6-26.1,0-4.9,4.2-5.3,8.6-5.6l24.7,6.9c6.6-1.4,11.5-.8,14.6,1.9Z"/>
  <path class="st62" d="M246.9,411.6c.7,21.4-.7,22.1-20.7,23.8l-4.3,1.3c-10.1-1.4-17.4-3.3-27.1-6.3-6.2-6.6-12.8-13.2-20.9-18-9.1-8.3-11-26.1-4.1-36.2-3.9-3.8,1.9-9.1,6.3-6.3,20-8.1,55.2,6.8,66.5,24.1,3.2,4.8,8.6,13.2,4.4,17.6Z"/>
  <path class="st63" d="M317.8,150.9c10.6,0,.9,5.5-6.6,5.7l-1.8,4.7c-3.6,2-6.4,4.7-8.3,8.3-3.1,4.7-4.9,3.4-4.2-2.1-2.7-.4-4.2-1.6-4.5-4.2l-45.4,6.6c-3.9-.1-10.7-2.1-10.6-6.6-9.4.1-16.4,2.9-20.9,8.3,6.4,3.5,3,5.8-2.1,8.3,2.9,2.9,1.6,4.1-2.1,2.1,1.9,4.6.6,6.5-4.2,4.2-.7,6-11,8.1-14.6,4.2-4.1,4.1-7.5,2-10.4-6.3-14,9.1-30.4-8.8-13.1-18.6,13.7,3.9,19,1.6,24.6-11.2,21.2-.6,42.4-1.1,63.6-1.5,9.7-2.7,21.3-3.4,31.3-2.1,9.1-1.6,20.4-2.5,29.2,0Z"/>
  <path class="st57" d="M309.4,176c.5,6.7-4.9,21.2-11.7,22.5-6.3,9.8-10.8,19.3,4.3,15.8,4.6,2.7,9.2,6.7,13.6,11.8,1.9,3.7,1.6,12.3-2.1,14.6l-4.6.5c-4.5-7.8-6.4-4.5-5.8,9.9-7.2,3-9.9-.1-11.3-7.6-5.4,2.7-13.3-.6-11.7-7-1.3-1.8-3.3-3.2-6.3-4.2-5.7,1.9-6.4-.2-2.1-6.3-4.5-.5-11.2-5.1-14.6-8.3-6.4.3-4-9.2,0-10.4l2.6-.5c-6.4-12.3-3.5-15.8,11.4-16.1,2.2-3.6,4.8-4.2,8.8-4.2-1.8-7.8,16.2-16.9,22.9-14.6,2.3,1.5,3.4-.4,6.3,4.2Z"/>
  <path class="st77" d="M384.5,303.2c1.7,3.5,7.2,7.8,9.4,14.6s2.1,15.9,3.7,23.4,6.1,10.7,5.7,17.1-13.4,18.7-18.7,24.1c-2.7-7-15.2-10.9-17.8-16.8s.9-5.7,1.1-8.3l1.6-1.8c2.5,2.9,5.5,4.9,8.9,6-10.6-13.9-12.3-25.8-5.4-35.7-10.1-10.9-.8-30.5,11.6-22.7Z"/>
  <path class="st136" d="M184.3,234.4c5.3-2.8,7-1.1,4.2,4.2-4.6,4.4-4.9,6.1-5.7,12.1-5.1,1.7-7.5,5-7.1,9.9-4.1,6.3-10,14.8-16.4,19.7,9.7,1.5-.7,12.6-8.6,4.8-6.7,7.5-8.1,17.5-4.1,29.8l-3.9,3c-.6,1.8-1.3,1.8-2.1,0-7.6-.8-9-10.5-6.3-16.7-.5-2.4.4-5.8,0-8.3.7-3.3,1.4-9.1,2-17.5,4.2-4.1,8.4-8.7,12.6-13.8-11.6,1.6-12.9-1.8-4.2-10.4,1.6-1.8,2.3-2.6,4.2-4.2,2.8-.4,6-2.3,9.6-5.6,2.4,2.5,4.8.9,7.1-4.8.9-6.1,10-9.7,12.5-12.5,3.4,2.8,5.5,6.3,6.3,10.4Z"/>
  <path class="st118" d="M257.3,153c-10.4,6.4-53.5-1.7-60.1,2.4s-2.3,15.1-16.1,16.3c-8,.7-16.6-8.7-14.6,8.5,5.3,3.6,9.6.4,15.8,4.1,5,5.8,5.7,9.3,2.1,10.4-.6,1.8-1.3,1.8-2.1,0-3.9,2.3-1.2,5.4-2.1,8.3-6.7,3.5-39.9-28.8-40.7-32.1s2-8.1,5.2-9.6c2.7-2.1,1.6-2.3,6.3-4.2,12.5-.3,25.1-1.7,37.5-4.2,22.9-2.7,45.8-2.7,68.8,0Z"/>
  <path class="st40" d="M296.9,167.6c1.2.2,2.8,1.6,4.2,2.1s1.3,1.6,2.1,2.1c-6.9,5.8-16.3,8.8-22.9,14.6-6.4,3.2-13.5,5.3-21.4,6.3-2.3,6.9-21.7-2-24.4-6.3-8.9.1-12.3-2.6-10.4-8.3l1.3-4.7c9-1.8,68-12.2,70.8-8.7s.8,1.8.8,2.9Z"/>
  <path class="st76" d="M169.7,376.2c.2,7.9-.5,22.2,3.2,29.1s25,13.9,21.9,25.1c-17.3-5.3-35-12.6-50-22.9-4.2-4.4-4.9-7.9-2.1-10.4,1-3.8,2.4-7.3,4.2-10.4-2.6-2.6-1.4-3.8,2.1-2.1,1.9-1.7,4-1.5,6.4.7,4.6-7.7,9.4-10.7,14.5-9Z"/>
  <path class="st105" d="M259.4,69.6c-2.3-.5-10.9-.5-13.2,0s-1.4,3.3-2,3.6c-1.6.9-4.2-1.4-5.7-.5-8.6,4.8-8.5,23.1-12.5,30.8s-8.7,8-10.4,9.8c-1.5-1.9-2.9-4-4.2-6.3l-4.4,3.5c-4.3,8.8-15.1,22.4-18.5,6.9,1.3-5.3.6-6.3,4.2-11.5,3.4-4.9,28.6-29.9,33.5-33.2,9.3-6.2,22.7-7.9,33.2-3.3Z"/>
  <path class="st30" d="M148.9,332.4c2.8,6.5-2.7,19.7-6.3,25,4.1.6,4.1,3.3,0,4.2-.9,2.7,1.6,5.3,7.4,7.8-1.4,6.1-2.5,11.8-3.2,17.3,2.8,2.3,2.6,11.8-4.2,10.4l-5-2c-1.7-6.7-3.8-13.1-7.5-18.9-1.1-12.1-6-26.4-4.2-37.5,2-7.6,6.8-14.5,14.6-20.9h2.1c4.8,2.3,6.9,7.2,6.3,14.6Z"/>
  <path class="st20" d="M359.5,265.6c.4.5,6.2,2.4,10.1,7.6,5.8,7.8,8.9,18,12.8,25.7-3.2,4.6-8.3,3.5-10.4-2.1-6.1-.3-11.6.4-16.7,2.1,2.6,4.9.5,5.6-6.3,2.1-6.1,4.5-10.5-5.4-4.2-8.3-4.2.6-5.1-1.2-2.1-4.2l.2-2.8c-2.5.8-12.7-4.6-8.5-11.8-5.4-4.8,1.7-10.9,6.3-4.2l1.1-3c2.5,1.8,5.6,2.1,9.3,1,1.6-4.6,4.7-5.4,8.3-2.1Z"/>
  <path class="st84" d="M211.4,182.2l5.2-.7c1.9,15.8,5.8,18.8,11.5,9,.6-1.8,1.3-1.8,2.1,0,4.9,2.6,4.9,6.7,0,12.5,6.5,3.6,2.6,19.5-9.5,14.2-.7,1.6-2.4,2.4-5.1,2.5-1.2,5.4-2.2,5.2-4.2,0l-1.7,2.3c-7.5-3.9-14.1-5.7-21.3-4.4-4.9,1.8-5.5.8-4.2-4.2-1.4-4.9-1.7-13.4-2.1-18.8.4-.2,1.3.1,2.1,0,.5-1.9,1.2-1.8,2.1,0,6.8,2.4,14.8,1.7,20.9-2.1-4.5-1.4-3-3.4,0-6.3.7-.4,1.7-2.9,4.2-4.2Z"/>
  <path class="st31" d="M336.5,390.8c.6.1,8.2,3.3,10.4,4.2,4.6.5,4.6,2.9,0,4.2-5.5,4.2-8.3,3.5-8.3-2.1-2.7,3.7-5.5,5.8-8.3,6.3-4.9,1.1-8.5,3.4-10.4,8.3,2.1-2.1,2.8-.7,2.1,4.2,4.8-3.8,11.9,1.4,6.3,6.3-.6,0-1.5.1-2.1,0-8.8-.6-17.2-.6-25,0-5.7.7-6.4-2.8-2.1-6.3-9.1-6.1-3.1-15.3,6.8-15.9l-.5-2.8c-4.6-17.8,25.1-14.4,31.3-6.3Z"/>
  <path class="st107" d="M382.4,299c.7,1.4,1.4,2.7,2.1,4.2-26.5,4-6.5,20.7-6.6,24s-6,3.8-6.1,10.4,9.2,15.3,6.4,24c-4-.4-9.9-6-10.4-10.4-1.4-1.4-2.8-2.7-4.2-4.2-6.4-3.3-9.9-7.5-10.4-12.5-1.7-3.6,1.2-7.1,8.6-10.5l3.9-16.6c-2.7-2.7-.6-5.5,6.3-8.3-1.8-.6-1.8-1.3,0-2.1,3.4.8,7.1.7,10.4,2.1Z"/>
  <path class="st51" d="M144.7,161.4c-6,10.1,2.4,11.2,6.2,15.6,7.7,9,9.7,8.5,16.7,14.7s6.6,10.8,12.6,11.4c-1.5,4.6-13.2.7-17.1-.6-14-4.4-34.7-22.5-24.4-37.9,2.2-3.3,5-2.4,6.1-3.2Z"/>
  <path class="st140" d="M311.5,184.3c-.8,7.9-1.8,16.1-3.1,24.4,6.6,2.3,8.1,11.1,7.2,17.3l-6.2,4.2c1.7-14.4-10.6-12.8-20.9-10.4-4.2-3.9,3.2-20.3,6.2-24.2,2.2-2.9,6.2-.8,7.3-2.8,1.9-3.5,0-10.6,5.3-9.3l2.1-7.5c2.9,4.5,1.3,5.8,2.1,8.3Z"/>
  <path class="st132" d="M355.3,125.9c.2,16.3-22.7,22.7-35.5,20.9l-2.1-4.6c5.2-3.7,8-9.1,8.3-16.2,9.2-4.5,22.2-13.2,29.2,0Z"/>
  <path class="st110" d="M294.8,142.6c-13.9-5.1-13.1-22-17.9-33.2s-9.5-13.7-11.3-17.9,7.8-2.9,4.1-7.2c15.5,22.5,18,31.8,25,58.4Z"/>
  <path class="st102" d="M326.1,125.9l8.3,8.3h-8.3c5.6,8.6-3.2,5.2-6.3,12.5-1.4,1.9-4.2,1.2-6.3,0-1.5,5.1-21.1,5-14.6-2.1,7.2-7.7,17.7-14.2,27.1-18.8Z"/>
  <path class="st37" d="M274,420l2.8-.8c3.7,5,7.6,10.2,11.8,15.4-5.1,1.1-7.3,1.4-12.5,2.1-7.8-3.5-13.4-11.1-16.7-22.9-4.6,1.6-7-2.6-4.2-6.3-4.3-6.6-8-13.6-11.1-20.8l2.8-2.1c9.7,6.6,20.3,20.7,27.5,31.3s.2,2.4-.4,4.1Z"/>
  <path class="st119" d="M211.4,107.2c2.5,1.3,2.6,2.9,1.3,5l-11.4,12.7,1.7,1.1c7,2.6,5.4,7.7-4.8,15.1,1.1,4.7.6,7.9-1.5,9.9-2,1.2-4.5,1.3-6.3,0-4-12-5-21.1-2.1-33.4l2.3,1.3,6-7.6-3.1,12.5c2.7-2.8,5.8-5.4,8.3-8.4,5.2-6.5-1-6.7,9.5-8.2Z"/>
  <path class="st103" d="M278.2,415.8c1.8-3.6,4.4-.6,6.3,2.1h3c2.6-6.1,8.6-9,11.6-2.1,0,.3,1.7,3.3,2.1,6.3,2.8-.3,2.8,2.5,0,8.3-4.1,1.2-6.7,2.9-12.5,4.2-9.7,1.3-10.7-8.7-14.6-14.6-3.3-7.5-3.1-8.9,4.2-4.2Z"/>
  <path class="st55" d="M317.8,217.7c5.5,1.1,4.8,8.8,0,10.4,1.9.4,1.8,1.1,0,2.1,2.8,5.6,2.8,10.5,0,14.6-3.2,4.6-5,3.4-4.2-2.1-1.8-.7-1.8-1.4,0-2.1.4-4.7,3-9,2.1-14.6s-5.3-7.9-4.2-12.5l-6.2,2.1c-2.5-11.9-.7-21.4,6.2-31.3.3.9,3.4,2.6,3.9,5.6.8,4.7,1.9,21.5,2.4,27.8Z"/>
  <path class="st27" d="M359.5,403.3c-6.6,4.6-23.7,17.8-31.3,18.8-.7-3.4-4.9-4.6-6.3-6.3-2.6-5.1,8.9-11.8,10.4-4.2,3.8-3.3,6.8-7.4,8.9-12.2l5.7-.3c.4-.7-.3-2.9,0-4.2.2,0,.8-2,4.7.1s6,5,7.8,8.2Z"/>
  <path class="st35" d="M249,438.7c-10.4,0-16.9-.6-27.1-2.1.3-9.9,11.3-5,17.3-6.7,8.7-2.4,3.1-12.9,7.7-18.4,5.5,6.6,10.7,21.3,2.1,27.1Z"/>
  <path class="st131" d="M215.6,148.9c1.1,0,4,2.1,6.3,2.1,17.9-7.8,41.2-5.7,60.5-2.1,1.4,0,2.8,0,4.2,0,1.4.3,2.3.5,2.1,2.1-9.9.5-20.6,1.9-31.3,2.1-21.5.4-48.2-2.3-68.8,0-5.2,1.6-10.1,1.6-14.6,0,3.5-3.7,11.5-2,16.7-2.1s4.2,0,6.3,0c2.3-7.1,14.6-7.1,18.8-2.1Z"/>
  <path class="st125" d="M330.3,230.2c7.7.8,25,33,24,35l-7.3,2.6-4,.8c-7.2-11-12.8-22.4-16.9-34.2-3.4-5.1-2.7-7.2,2.1-6.3.6.7,1.4,1.4,2.1,2.1Z"/>
  <path class="st67" d="M140.5,317.8c1.4,15.8-12.6,9-14.6,20.9-.8-.6-1.5-1.3-2.1-2.1.8-9,2.2-18,4.2-27.1,1.5-2.2,5.1-4.8,6.3-8.3,1.6,7.1,5.8,11.4,6.3,16.7Z"/>
  <path class="st18" d="M148.9,261.5c.4,1,2.5,3.3,2,4-1.4,1.8-13.2,3.5-2,7.5-1.3,3.1-9.3,3.1-11.6,7.3-3.2,6,5.6,13.5-3,12.5-2.1-13.1-3.8-9.2,0-22.9,3.3-7.3,7.2-12,14.6-8.3Z"/>
  <path class="st121" d="M142.6,397c1.3,3.5,2.8,6.4,2.1,10.4-19.2-13.1-12.7-10.3-14.6-31.3,8.6.7,9.5,12.8,12.5,20.9Z"/>
  <path class="st26" d="M332.4,148.9c-5.3,3.1-11.1,6.3-14.6,0-1.7,2.2-6.4,1.3-4.2-2.1,2-.3,4.4.4,6.3,0,12.3-2.5,31.3-7.5,35.5-20.9,6.9,13-12.1,21.4-22.9,22.9Z"/>
  <path class="st115" d="M265.6,436.6c1.4-5.3,4.9-5.3,10.4,0-8.9,1.1-17.1,2.2-27.1,2.1.7-9.7,0-17.7-2.1-27.1-.9-5.6.2-6.2,4.2-2.1,5.7,5.7,9.5,13.2,11.1,22.5l3.5,4.7Z"/>
  <path class="st22" d="M173.9,153c4.9-.1,9.7,0,14.6,0-2.4.3-7.8,3.6-12.2,2.4l-3.4,8-6.2-4.2c-3,10.7-7.4-3.8-15.6-2.1,9.7-3.9,12.6-3.9,22.9-4.2Z"/>
  <path class="st66" d="M359.5,265.6c-2.8.6-5.6,1.3-8.3,2.1h-4.2c8.1-3.5.4-5.2-1.2-10.3s-.3-8.6-2-12.6-10.9-11.7-13.5-14.6c14.8,5.4,20.6,24.1,29.2,35.5Z"/>
  <path class="st33" d="M332.4,148.9c-4.6,7.4-16.2,8.8-22.9,12.5-8.5-9.1,1.3-8.8,10.4-8.4l-2.1-2.1c-1.8-.6-1.8-1.3,0-2.1,4.2.2,10.7.6,14.6,0Z"/>
  <path class="st127" d="M123.8,336.5c-6.7-8.3-.7-20.1,4.2-27.1,7.7,12.8-1.4,15-4.2,27.1Z"/>
  <path class="st47" d="M165.5,236.4c-.2,1.6,2.3,5.1,1.8,7.1s-13.6,13.3-12.2,8.5c1.1-1.2,4.6-6.9,4.2-7.3-4.1-3.6-4.1,8.9-10.4,2.1,5-4.3,8.2-10,16.7-10.4Z"/>
  <path class="st21" d="M188.5,217.7c1.9.6,1.9,1.3,0,2.1,0,4.3.2,8.8.7,13.4l-4.9,1.2c-4-3.4-10.5-1.6-6.3-10.4,2.1-2.3,2.7-8.2,6.3-10.4,0,.3,3.6,1.4,4.2,4.2Z"/>
  <path class="st122" d="M326.1,422c-.9,1.8-3,1.5-4.2,2.1-9.1.4-15.3,2.5-18.8,6.3-.6.2-1.4-.2-2.1,0-.2-2.7.4-5.7,0-8.3,2.4-4.5,2-3.8,6.6-3.7,7.4.2,13.4,2.8,18.4,3.7Z"/>
  <path class="st1" d="M144.7,251l-4.2,8.3c2.2.9,7.3-2.9,8.3-2.1s-.4,3.1,0,4.2c-6.2.3-9.8,5.2-14.6,8.3,1.3-4.5.9-7,3.7-11.9s4.7-4.6,6.7-6.8Z"/>
  <path class="st104" d="M317.8,217.7l8.4,2.1c-4.3,7.5-.5,5.2,2.1,8.3l-2.1,6.3c-2.1.7-4.9-1.3-8.3-6.3-.2-3.5.3-7,0-10.4Z"/>
  <path class="st23" d="M299,144.7c.2.2-.8,3.7,1.3,4.2,5.4,1.4,9.4-1.6,13.3-2.1.6,2,2.4,2,4.2,2.1v2.1c-9.7.4-19.5-.5-29.2,0l-2.1-2.1c3.5-.1,7,0,10.4,0-.6-1.4-1.8-2.7-2.1-4.2,1.3.2,3.8-.3,4.2,0Z"/>
  <path class="st88" d="M321.9,424.1c-7.7,4-11.4,4-18.8,6.3-2.7-10.8,10.6-4.9,18.8-6.3Z"/>
  <path class="st90" d="M269.8,84.2c-1.7-2-14.9-.4-8.3-12.5,6.3,4,5.5,8.4,8.3,12.5Z"/>
  <path class="st16" d="M221.8,150.9c-1.7-20.3,10.3-13.1,20.8-24,1.3-3.5-16.6-12.7-16.6-14.6s12.6-13.3,6.2-21.9c4.2,6.7,12,1.6,12.5,2.1,1.5,1.6-2.2,10.4-2.1,13.6,0,4.7,2.8,7,3.8,10.9s-3.6,10.4,8,11,7.9-5.3,13.3-4.2c1.8,7.9-2,12-4.2,18.7,6.6-.2,13,3.3,18.8,6.3-20.8,1.5-39.6,1.9-60.5,2.1Z"/>
  <path class="st106" d="M213.5,115.5c2,3.9,1,9.6,2.2,13.1s4.1,1.3,4.1,2.5c0,5.2-15.2,12.9-4.2,17.7-4.8,0-12.3,1.9-18.8,2.1-8-13.9,2.6-14.6,5.8-19.3s0-5,.5-5.7c-.4-4.4,6.2-12,10.4-10.4Z"/>
  <path class="st126" d="M215.6,113.4c-.7.7-1.4,1.4-2.1,2.1-3.7,3.7-7.2,5-10.4,10.4l-12.5,7.3c6.9-8.3,17.7-15.7,20.8-26.1,1-.1,2.5-2.1,3.1-2,3.9.7,2.2,5.4,1,8.3Z"/>
  <path class="st114" d="M351.1,338.6c-7.7,7.5-1.2,11.8,4,18,.2,3.6-20.3,15.4-21.7,15.4s-16.6-8.2-17.2-8.9c-4.6-4.9-8.3-24.6-10.9-31.9s-6.9-9.6-6.3-12.4c2-10,14.2,4.2,15.6,4.4s19-3,19.8-3.5-2.3-4.1,0-4.1c.6-1.8,1.3-1.8,2.1,0,1.5-.6,2.2.8,2.1,4.2,5.6-2.1,7.6,1.6,4.2,6.3,4.2.9,8.7,8.4,8.3,12.5Z"/>
  <path class="st94" d="M288.6,365.7c3.8-1.4,6.9.3,8.3,4.2,3.5,4.6,9.8,6,18.8,4.2,6.4,1.5,12.4,1.6,18.7,5.3s-4.1,2.6-2,5.2l11.5,4.2-7.3,2.1c-3.3-.6-24.7-2.5-26-2.2s-.7,7.6-5.3,8.5c-12.1,18-22.1-11.4-22.9-22.9-2.8-5.2-.8-6.9,4.2-4.2-3.3-3.3-2.6-4.7,2.1-4.2Z"/>
  <path class="st86" d="M286.5,313.6c-5.6-2-16.3-9.1-14.7-15.7s28.5-7.6,33.1-6.1c6.4,6.7,11.3,7.7,14.9,3.1,4-3.6,6.9-.5,4.2,4.2,6.4-1.1,8.3,3.7,4.2,8.3-14.8,4.3-29.9-.9-43.8-6.2-.6,3,0,3.8,1.5,6.1,3.1,4.8,10.3,10.9,12.3,16.9,1.6,4.6-1.1,5.2-1.3,6.2-5.7,1.6-7.8-.6-6.3-6.3-4.7-3.5-6.1-6.9-4.2-10.4Z"/>
  <path class="st41" d="M290.7,324c2.4,1.4,4.4,4.1,6.3,6.3-.3,2,.4,4.4,0,6.3,2,5.7,2.3,14.7-4.2,16.7-.6,1.8-1.3,1.8-2.1,0-6.3-2.7-4.3-7-1.5-11.6l-1.3-6.8c-5.4-4-17.9-13.3-9.8-17.1,5.2-3,10.7.9,12.5,6.3Z"/>
  <path class="st108" d="M342.8,288.6c.6,1.4,1.6,2.7,2.1,4.2l-.5,4.7c-5.9,3.2-8.5,9.3-7.8,18.2h-2.1c-1.2-3.3-4.6-5.7-6.3-8.3s-2.6-6.4-4.2-8.3c-3.7-4.3-.9-6.6,4.2-6.3,2.2-1,4.3-2.4,6.3-4.2,1.5-6,5.6-5.4,8.3,0Z"/>
  <path class="st128" d="M301.1,353.2c-1.2,5.9-1.6,11.9-1,18l-3.2-1.3c-7.1-1.8-6.5-10.9-4.2-16.7.1-5.7,3.5-13.2,4.2-16.7,5.9,5.7,4,10.7,4.2,16.7Z"/>
  <path class="st78" d="M292.7,353.2c0,3,1.7,6.7,0,10.4l4.1-2.1c.4,2.7-.5,5.9,0,8.4,5.3-.7-1.1-13.1,4.2-16.7.2,6.2-.2,12.5,0,18.8,6-1.6,10.1,1,14.6,2.1-11.1,1.2-15.7,11.6-18.8-4.2-4.5.6-6.3-.2-8.3-4.2-5.9-2.1-4-12,2.1-12.5h2.1Z"/>
  <path class="st71" d="M349.1,328.2c5.6-1.2,7,1.4,4.2,6.3,3.3,4.1,6.8,8.7,10.4,12.5-4.1-.6-9.9-5.5-12.5-8.3s-5.9-8.8-8.3-12.5c-.6-4.2,1.2-5,4.2-2.1,5.2-.8,5.1,0,2.1,4.2Z"/>
  <path class="st83" d="M378.2,361.6c-1.9,5.9-7-2.9-10.4-4.2,0-1.1-2.6-3.9,0-6.3,3.2,3.2,7.8,6,10.4,10.4Z"/>
  <path class="st98" d="M192.7,382.5c.6-.6,14.7-.4,17.2.3s14.4,11.4,16.1,13.1c19.9,19.9-3.7,30.1-20.7,18.6-1.9-1.3-15.5-15.4-15.9-17.4s2.8-14.1,3.3-14.7Z"/>
  <path class="st70" d="M203.1,357.4c8-1.3,20.4,0,22.9,10.4,3.8-2.6,12.3.5,10.4,6.3,8.2-3,10.2,4.4,10.4,10.4-1.2,9.8,8.2,14.5,8.3,22.9-1.8,2.4-3.2,1-4.2-4.2l-3.2.3c-10.6-25-46-41.6-71.9-33.6-3.5,2.6-3.9,3.9-6.3,6.3-5.5,5.4-12.5,10.5-14.6,18.8l-6.2-10.4c-4.3-1.8-.2-9.9,4.2-6.3-1.6-5.4,5.3-10.4,10.4-8.3,5.7-6.5,10.6-13.5,14.9-21,3.1-2.6,18.4.6,20.5,5.7,2.3-3.8,3.5-.9,4.2,2.8Z"/>
  <path class="st43" d="M176,369.9c6.3-4.6,9.3-5.6,17.8-6.1s38.7,12.2,45.8,20.7c4.8,5.6,6.8,12.5,11.4,18.8,2.8,3.9,2.8,5.9,0,6.3-1.1.9-3.5,1.3-4.2,2.1-3-14-8.5-20.7-21.1-27.9-11.9-6.8-36.5-16-49.8-13.8Z"/>
  <path class="st46" d="M236.4,163.5c8.6.4,12.5,4.2,13.2,4.2,13.4-.8,30.2-6.8,44.3-8.2,5.6-.6,2.2,5.2,3,8.2-16-2.5-56.4,5.7-73,10.4.9,6.3-7.8,7.2-10.4,2.1.5-2.8,1.7-5.5,2.1-8.3,2.8-5.6,9.7-8.4,20.9-8.3Z"/>
  <path class="st100" d="M223.9,178.1l10.4,8.3c-.6,1.9-2.7,3.3-6.3,4.2-.5,10.4-1.9,19.1-14.6,18.8-1.8-5.5,5.8-5.6,6.2-6.3,2.1-3.4-4.1-5.8-5.1-8.2s2.2-9-3.3-12.6c.8-.4,1.5-1.8,2.1-2.1,2-.9,7.3-1.2,10.4-2.1Z"/>
  <path class="st135" d="M236.4,163.5l-20.9,8.3c.3-2-.5-7.9,0-8.4.8-.7,17.4-.1,20.9,0Z"/>
  <path class="st42" d="M207.3,186.4c0,2.1,0,4.2,0,6.3-1.8,4.3-10.3,3.7-14.6,2.1-5.5-.7-5.3-2.6,0-4.2,8,.6,8.4-.5,14.6-4.2Z"/>
  <path class="st91" d="M182.2,184.3c5.6,3.3,1,5.6,10.4,6.3v4.2c-.9,1.8-2.9,1.8-6.3,0-.7,0-1.4-.1-2.1,0l-2.1-10.4Z"/>
  <path class="st19" d="M280.2,236.4c-10.9,8-13.6,16.4,4.4,13.3,6.4,1.3,10.4,6.1,3.9,9.7-1.1,3.5-5.3,5.7-4.5,2.4s7.2,2.7.3,5.9c-2.1,17.5-20,2.1-22.9-6.3l-2.5,1.6c-5.4-5.8-10.3-6.6-14.7-2.4,6.1,17-9.1,18.5-22.4,17.5-13.1.2-20.5-7.5-8.3-18.8,4.7-5.2,9-11.2,12.9-17.9,1.5-11.2,15.8-7.6,12.2,1.2,8.5-2.4,16.9-1.6,21.7,6.7-.3-7,1.5-11.4,5.4-12.9,0-3.6,5.8-7,8.3-4.2,4.9-2.2,4.5-1,8.3,3.1l-2,1Z"/>
  <path class="st36" d="M240.6,217.7c7.8-5.1,21.2-.9,6.3,4.2,8.8,5.8,13.9,5.4,25,4.2.7,1.9.7,4.4,2.1,6.3-3,1.3-3.9,3.4-8.3,4.2-.6,3.8-3.2,4.8-7.7,3.1l-4.4,4.4c-5.1-1.6-10.1-2.7-15-3.3-3.3-7.3-10.2-9.7-10-.5-8.2,8.8-11.7,3.8-15.5-5.1-1-2.5-5.1-16.2-1.6-15.2,1,.4,3.7-.5,4.2,0,6.5.4,14.9-.3,25-2.1Z"/>
  <path class="st87" d="M280.2,236.4c4.3,1,9.1,9,11.5,0,7.2,4.4,2.1,13.5,11.5,14.6,1.8.6,1.8,1.3,0,2.1.8,3-4.6,3.8-4.8,2.6-.3-1.9,7.8-2.1.6,3.6-1.4,6.4-8.1,5.4-10.4,0,.3-10.3-12.9-2.8-16.7-5.1-8.2-4.9-3.8-20.7,8.3-17.9Z"/>
  <path class="st134" d="M234.4,186.4c3.8.4,18,5.6,19.8,5.5,3.7-.2,17.6-9.8,26.1-5.5-3.9,3.4-5.6,1.6-2.1,8.3h-18.8c4.5,6.8,5,26.9-2.1,12.5-2.1-3.7-3.3-1-3.5,8.2-1.4,2.6-6.2.7-6.9-1.9-2.5-3.5-1.4-8.9,0-12.5-2.5-7-10-5.5-15.1-4.3l-1.6-6.1h-2.1c0-.1-1.8-.6-1.7-1.1.5-3.2,5.2-3.4,8-3.1Z"/>
  <path class="st3" d="M271.9,226c-4.4,8.6-14.7,3-22.9,6.2,5.3-7.3-4-5.7-2.1-10.4l4.7-1.9c-1.7-4.3,2.4-6,5.7-2.2,8-1.6,11.9,1.4,14.6,8.3Z"/>
  <path class="st80" d="M313.6,240.6c0,.7,0,1.4,0,2.1,4.8,3.8,4,6.6-2.1,6.3,1,5.1-5.6,7.7-8.3,4.2v-2.1l-4.2-4.2c-1-14.3,6.2-19.9,14.6-6.3Z"/>
  <path class="st137" d="M257.3,207.3v10.4c-2.3.5-6,5.6-10.4,4.2.6-1.4,2.6-2.1,4.2-2.1v-2c-2.4.5-9.3-.8-10.4,0-4.7.5-4.7-1.1,0-2.1.4-4.3,3.6-6,6.3-2.1.7-.3,3.1.8,3.9-.3,1.1-1.6-.5-5.8.7-7.6s5.6-2.7,5.9-2.5c.5.5-.4,3.3,0,4.2Z"/>
  <path class="st49" d="M188.5,238.5c1.8-.9,2.4,0,2.1,2.1,6.8-4,11.9,6.7,14.6,12.5,3.9-1.4,5.3,0,4.2,4.2,1.1,7.8-14.3,12.7-19,6-4.9-12.2-16.7,6.9-10.7,12.4l-2.6,3.2c5.3,11.8-3.8,15.7-11.6,7.6-2.8-1.3-5.1-3.4-6.3-6.3.8-4.3,4.5-11.8,7.4-14.7,2.1-2,4.3.6,5.2-1,1.9-3.5,1.9-9.8,4-14.2s3.7-1.4,3.9-1.8c1.8-4-8.4-9.2,8.7-10.1Z"/>
  <path class="st11" d="M165.5,286.5c7.6,3.8,8.3,6.5,2.1,8.3-.8,5.9-6.4,5.9-16.7,0l-1,2.6c3.9,3.1,4.2,7.8,1,14.1,1.8.6,1.8,1.3,0,2.1,8.9,1.4,8.2,7.7-2.1,18.8-4.6-3.9-5.6-9-6.3-14.6s-1.6-23.9-1.2-25.1,6.9-12,7.5-12.4c2.4-1.7,6,4.2,9.3,4.2s.8-4,1.1-4.2,6.3,0,8.3-2.1c1.1,3.3-1.7,6.1-2.1,8.3Z"/>
  <path class="st52" d="M194.7,230.2c3-2.6,4.2-1.5,2.1,2.1,1.7,5.7.4,10.6-6.3,8.3-.7-.7-1.4-1.4-2.1-2.1-1.4-1.4-2.7-2.9-4.2-4.2,2.4-3.5-.7-7.4.3-11.1s3.8-3.3,3.9-3.5c4,.5,6.1,4,6.3,10.4Z"/>
  <path class="st39" d="M142.6,361.6c.9.9,2.3,1.6,4.2,2.1,3.1-5.1,6.2-6.1,8.3,0,.4-1.9,1.1-1.8,2.1,0l2.2,4.1c-3.3,3-4.8,6.4-6.4,10.5-4,3.4-2.5,2.3-4.2,6.3s-1.7,1.2-2.1,2.1c-.6-.5-3.7.5-4.2,0s5.8-11.9,4.2-16.6c-11.5,4.9-5-2.4-4.2-8.4Z"/>
  <path class="st39" d="M173.9,296.9c5.6-1.8,10.4,3.4,6.3,8.3,6,5.4-4.8,10.6-10.4,12.5,1.1,4.5-4.4,7.1-8.3,6.3l.7,2.8c-5.1,1.8-8.1,5.1-9,9.7,5.1-.4-5.9,22.7-6.9,23.6s-2.7-.8-3.5-2.8c2.1-9.1,4.3-15.5,6.3-25s4.1-8.4,6.2-13.6-2.5,0-4.2-5.2c1.4-2,3.7-3.6,6.8-4.7,3.3-7.7,7.4-14.8,16.2-12Z"/>
  <path class="st129" d="M153,336.5c8.4-8.3,21.7,8.3,14.6,16.7-2.4,5.5-5.1,9-8.3,10.4-.4,1.8-1.1,1.8-2.1,0-.7,0-1.4,0-2.1,0-5.1-.5-4.9-2.7,0-4.2-.2-3.4-1.6-5.5-4.2-6.3,1.7,5.3,2.5,9.6-4.2,10.4-1,0-5,6.2-4.2-2.1.2-1.3-.3-3,0-4.2,9.2,0,4-6.2,4.9-9,1.3-4.1,5.8-6.8,5.6-11.8Z"/>
  <path class="st112" d="M330.3,265.6c3.8,1.5,4.1,4.6,4.2,8.3,3.2,2.6,6.4,11,10.4,7.3l-4.2-5.2c8.3-1.6,12.6,6.8,20.8,6.3-2.4,4.1-13.9,5.6-18.8,6.2s-5.6-.2-8.3,0c-.8,2-2.9,3.4-6.3,4.2-.2,2.1-2.5,4.9-4.2,6.3-1.7-2.1-2.7-2.7-4.2-4.2-5,3.2-12.9-2.8-10.4-8.3v-4.2c-1.6-4.6-.9-8.1,2.1-10.4-5.6-10.8,14.2-15.1,18.8-6.3Z"/>
  <path class="st58" d="M326.1,234.4c1.2,1,5.6.4,7.3,4.1s.4,9.5,2.1,14.6,6.1,7.1,7.9,10.5-3.9,4.1,3.4,4.1h4.2c-4.5,1.2-6.5,1.3-10.4,2.1-5.8.8-9.2-4.7-10.4-16.7-6.1,1.1-7.4-3.2-2.1-6.3-6.7-3-10.2-8.5-10.4-16.7,0-.7,0-1.4,0-2.1,4.6-.4,5.6,4.1,8.3,6.3Z"/>
  <path class="st12" d="M344.9,292.7c1.1,3,.8,6.2,4.2,8.3,1.8.6,1.8,1.3,0,2.1-6.6,3-11.5,6.8-5.8,14.4l-4.6,2.3c-.8-1.5-1.4-2.3-2.1-4.2-4.1-10.7-4.6-18,8.3-22.9Z"/>
  <path class="st32" d="M340.7,269.8c-3.1.6-5.2.6-6.3,4.2-.5-.4-6.3-.9-6.2-3.1s2-.6,2-5.2c-4-1.9-4-4.3,0-6.3-4-1.9-4-4.3,0-6.3l10.4,16.7Z"/>
  <path class="st72" d="M372,296.9v2.1c-2.9,5-12.2,6.1-14.6,0-.6,1.8-1.3,1.8-2.1,0v-10.4s3.1,0,3.1,0c4.7,9.2,6.4,6.7,13.6,8.3Z"/>
  <path class="st123" d="M359.5,311.5c-7.6,11.3-16.3-1.8-4.2-6.3l-6.3-2.1v-2.1c3,1.1,4.7-1.5,6.3-2.1s1.4.1,2.1,0c8.1.4,7.7,8.3,2.1,12.5Z"/>
  <path class="st6" d="M211.4,219.8c.3,10.2,7.7,13.2,8.4,20.9,5.7,2,7.6-8.2,9.7-8.5,3.1-.5,9.1,3.3,13.2,2.3,1.1,4.5-1.2,4.2-4.2,6.2,1.8.6,1.8,1.3,0,2.1-2.7-.8-3.6-8-8.3-6.2,4.8,8-.9,5.3-2.1,7.6s-1.2,5.7-2.8,8.4-3.3.5-3.4.7c-.9,1.3,5.8,4.7,4.1,8.3-4-3-8.9-1.3-12.5-2.1-3.8,4.5-4.5,3.6-4.2-2.1-6.6-2.9-3.5-3.7-4.2-4.2-3.8-3.2-5.2-7.4-4.2-12.5l-2.2-8.1c17.5.1,2.4-13-4-2.4-2.1-3.5-4.2-7-6.3-10.4.2-.3,0-1.6,0-2.1l8.3-10.4c-1.1,8.5,8.4,9.7,14.6,12.5Z"/>
  <path class="st25" d="M230.2,203.1c.6-7.5,6.9-11.2,5.4-2.4,6.2.3,7.2,3.9,2.9,10.7,5.7-1.1,5.7-.2,2.1,4.2-.6.2-2,2.4,0,2.1-.2.1.9,3.8-1.4,4.3s-21.3,2.2-22.4,2.1c-2-.2-.9-3.9-1.2-4.3,0-2.9,2.8-7.4,5.2-8.3,4.5-1.7,2.1,9,7.4,1.1,2.9-4.3,1.2-7.2,2-9.4Z"/>
  <path class="st93" d="M246.9,201c-.3,3.6-1.3,3.3-3-.8-10.9-5,.9.1,1.3.6,3.4,4.2-.5,14.9-6.7,10.6-.8-.9-3-1.4-4.2-3.1-3.7-5.5,6.5,1.3,4.2-4.1s-5-1-4.2-5.2c-1.2-1.2-3.8,3.3-4.1,4.1v-12.5c4.4,5.2,9.9.9,15.4,4.3s1.2,5.7,1.2,6.1Z"/>
  <path class="st5" d="M207.3,192.7c0,2.1,0,4.2,0,6.3-6.9-4.7-15.1,2.2-20.8-4.2,2.1-.2,4.2.2,6.3,0,5-.4,9.7-1.3,14.6-2.1Z"/>
  <path class="st15" d="M282.3,374.1c7.6,6.8,11.3,23.3,12.4,24.2,3.2,2.4,7.6-1.3,10.5-1.2s8.1,2.4,6.3,6.2c-11.7-1.1-13.5,1.3-12.5,12.5-6.4-.9-8.7,2.1-8.4,8.3-5.7,1.8-5.2-5.4-6.2-6.3-13.5-10.2-16.5-19.1-8.8-26.6-3.4-11.4-1.9-17.1,4.6-17.2.5-1.8,1.2-1.7,2.1,0Z"/>
  <path class="st97" d="M338.6,397c5.6,2-1.3,13.2-6.3,14.6-6.1.7-12.1-1.7-10.4,4.2-1.5-1.8-1.5-3.3-2.1-4.2-1.1-4.3,2.4-7.1,10.4-8.3,2.7-2.2,2-5.9,8.3-6.3Z"/>
  <path class="st79" d="M347,399.1c-.5.9-3,1.9-4,3.8s-1.4,7.6-2.6,8.5-5.8,0-8,.2c-1.3-6.5,5.7-8.6,6.3-14.6,2.3-.1,5.8,1.8,8.3,2.1Z"/>
  <path class="st68" d="M330.3,403.3c-1.9,1.6-3.7,2.2-6.1,2.2,3.8,5.7-.1,2.8-4.3,6.1-.9-1.3-5-5.1-4.2-6.2l14.6-2.1Z"/>
  <path class="st124" d="M372,299l2.1,4.1c-3.7.2-5.9,1.4-8.3,4.2-1,11.5-3.5,25.1-16.7,20.9-.5-1.1-2.2-2.4-2.1-4.2-2.6-3.1-1.4-4.3,2.1-2.1,1.4-4.5,4.9-8,10.4-10.4.6-4.1,0-8.9-2.1-12.5,5.2-.8,9.4.2,14.6,0Z"/>
  <path class="st138" d="M365.7,307.3c3.2,8-3.1,14.1,4.2,20.8-6.8-.3-13.6-1.3-16.7,6.3-2.3-2.9-2.2-1.7-4.2-6.3,14.5-2.3,10.1-13.3,16.7-20.9Z"/>
  <path class="st15" d="M236.4,374.1c-10.1-10.2,25.8-2.7,27.2-1.1,5.4,6.7.1,9.1-7.5,8.9,7.1,10.3,14.5,20.4,22.3,30.4l-.2,3.5c-4.4-.5-4.7-.3-4.2,4.2-8.3-12.4-16.6-24.7-27.1-35.5s-7.2-8.1-10.4-10.4Z"/>
  <path class="st2" d="M255.2,407.4c1.4,2,3.6,3.5,4.2,6.3l9.4,19.2-3.1,3.8c-12.7-1.5-6.1-4.7-8.8-13.1-1.7-5.2-5.3-3.5-5.8-14-.1-2.1,0-4.2,0-6.3,1.1,1.5,3.1,2.7,4.2,4.2Z"/>
  <path class="st81" d="M259.4,413.7l16.7,22.9c-3.4-.3-7,.4-10.4,0l-6.3-22.9Z"/>
  <path class="st94" d="M236.4,365.7c1.6-4.4,6.7-4,15.4,1.5,3.4-3.6,16.2-.6,18,4.8.7-2.9,2.1-4.6,4.2-2.1,4.8-3.2,9.9-1,6.3,4.2-4.8,3,.8,19-.2,20.5s-5.5,1.4-6.1,3.5,10.6,14.9,10.4,19.8c-.3-.3-3.5.4-6.3-2.1-10.3-9-18.8-22-26.5-32.7s-1.8-3.3-4.8-2.7c-3.4-5.5,22.4.7,14.6-6.2s-24.1-7.3-25,0c-3.2-2.3-7-4.3-10.4-6.3-4.5-3.9-.9-7.2,4.2-4.2,3.8-3.5,5.7-3.1,6.3,2.1Z"/>
  <path class="st9" d="M317.8,244.8c1.8-6.1,7.2-1.4,10.4,2.1.8,1.4.5,4.6,2.1,6.3,0,2.1,0,4.2,0,6.3-2.3,2.4-5.7,2.9-10.3,1.5-4.9,3.8-12.5,5.8-8.5-1.5-5.5-.3-5.2-2.3,0-4.2-1.8-.4-1.8-2.5,0-6.3.3-1.8,1.8-3.8,2.1-6.3,1.3.4,3.1,2,4.2,2.1Z"/>
  <path class="st53" d="M317.8,230.2c4.3,1.2,2.1,7.3,2.6,7.9,2.2,2.9,3.7,1.4,7.8,8.7-4.5-3.2-7.4-1.8-10.4-2.1,0-4.9,0-9.7,0-14.6Z"/>
  <path class="st4" d="M355.3,305.3c-2,4.6-4.6,5.1-9,5.5,7.4,6,8.3,9.7,2.8,11.1-.7.4-1.3,1.6-2.1,2.1-1.3.8-2.8,1.3-4.2,2.1-1.5-2.2-2.7-3.5-4.2-6.3,2-8.6-1.9-15.7,10.4-16.7s3.5,0,5.2,0c1.2.4,1,1.1,1.1,2.1Z"/>
  <path class="st0" d="M278.2,317.8c0,0-1.5,1.2-.9,2.1,9.9,14.2,14.6,11.7,13.4,33.4,0,.7-1.7,9.8-2.1,12.5s-1,2.5-2.1,4.2c-4.2.5-8.4.5-12.5,0-1.1.6-3.4,2.1-4.2,2.1-5.5-1-5.3-2.3,0-4.2.7-3.9-5.9-8.4-13.3-11.8l.8-4.9c-4.4-7.1,1.2-9.6,16.8-7.6,1.2-6.7,5.9-7,9.6-6.6-8.1.7-12-1.5-11.8-6.6-2.8-4.4-2.8-7.9,0-10.4-7.9-4.6-9.3-8.1-4.2-10.4.6-1.1,1.3-1.1,2.1,0,3.4-.9,10.8,4.7,8.3,8.3Z"/>
  <path class="st116" d="M321.9,386.6l-22.9-1c5.4-3.7,22.9-9.8,22.9,1Z"/>
  <path class="st17" d="M286.5,369.9c-1,1.4-3.1,2.6-4.2,4.2-.4-.3-1.6.3-2.1,0-1.3-.8-2.3-5-6.3-4.2,4.4-2.4,3.9-8,12.5,0Z"/>
  <path class="st65" d="M319.9,294.8l2.1,6.2c-11.3,5.3-19-8-24.1-8.4s-17.8,7.3-23.9,6.4c.4,7.1,8.2,9.2,12.5,14.6-6,8.5-24.4-11.3-16.7-18.8,5.9-4.8,18.7-8.1,26.9-8.7,3-.2,5.9,1.1,8.6,2.5-2.1-3.8,1.2-5.3,4.2-2.1,4,3,6.7,4.6,10.4,8.3Z"/>
  <path class="st59" d="M286.5,313.6c2.7,3.4,4.8,5.3,4.2,10.4-3.7-2.2-9-2.9-12.5-6.3-2.8-4.1-7.1-6.5-8.3-8.3-5.7-1.9-7.1-4-4.2-6.3-4.2.4-2-3.4,0-6.3-1.9-2.8-1-3.9,2.1-2.1h2.1c-1.4,10.6,6.8,18.3,16.7,18.8Z"/>
  <path class="st73" d="M334.5,288.6c4.1,4.9-1.5,8.1-6.3,4.2,0-.3-2.8-2.3-2.1-4.2,2.8-.2,5.6.2,8.3,0Z"/>
  <path class="st17" d="M242.7,340.7l1.7,7.8c8.5-1.2,21.8,12.1,25.4,19.3-.3,1.1.2,2.9,0,4.2-3.8,0-28.3-4.9-33.4-6.3-4.6-6.1-6.7-6.8-6.3-2.1l-4.2,4.2c-5.3-3-17.2-8.4-22.9-10.4-4.7-3.9-5.1-5.8-1.1-5.6l-1-4.8c-9.9-2.9,2.2-13.1,6.3-4.2v-4.8c7.8,1.3,15.5.9,22.9-3.5,5.9,0,10.1,2.2,12.5,6.3Z"/>
  <path class="st129" d="M182.2,328.2c3.8,0,5.4,3.1,4.9,9.3,6.1,1.5,10.7,4.7,13.8,9.5,3.9,5-.8,10.2,8.3,8.4.8,3.4-3,1.8-6.2,2.1-3.4-1.2-23.9-7-24.9-6.2s-7,19.6-14.7,18.7c-4.1-3.8-3.5-4.1,2.1-4.2-3.1-3.8-2.7-4.8,2.1-4.2,0-5.8,1.3-9.3,4.2-10.4,1.9.9,1.9-1.2,0-6.3-2.9-2.7-1.8-5.6,3.4-8.7.2-7.4,2.6-11.4,7.1-12.1,4,1.2,4,3,0,4.2Z"/>
  <path class="st109" d="M165.5,365.7c-.7,1.3-1.3,3.2-2.1,4.2-4.6,5.7-6.6,5.1-10.4,8.3l-1.8-1.4c-2-6,3.2-8.7,6-13.2.7,0,1.4,0,2.1,0,2.8-6.6,8.5-5.1,6.3,2.1Z"/>
  <path class="st133" d="M165.5,286.5c10.1,3,11.9-.7,10.4-10.4-3.7-1.1-1,5-3.1,4.2-8.7-3.5.3-6.2.6-6.6.8-1-2.1-3.6-1.4-5.6s10.2-4.1,3.9-12.9c5.3,0,13-.8,17.7,2s-1.5,5,2.2,6.4l13.5-6.3c1.4.6,2.9,1.8,4.2,2.1l2.1,8.3c-12.4,2.7-1.1,8.2,6.3,10.5h2.1c7.7,2.5,9.1,4.6,4.2,6.3-4.3,3.6-10.6,2.4-18.8-3.5-3.3,4.3-12-1.2-16.5-4.2-2.5-5.9-5.3-6.8-8.5-2.6-.3,1.9.3,2.6,2.1,2.1-2.9-7.1,4.2-9.7,5-.8,3.9,2,7.1,4.3,9.6,7l-2.9,4.4c-1.2,11.7-7,18-18,18.6-.8-2.6-6.3-6.3-6.3-8.3-1.9-1-4-1.7-6.3-2.1,5.1-6.2-3-1.9-2.1-8.3Z"/>
  <path class="st74" d="M221.8,278.2c10.4-3.4,18.4-.8,20.8-14.6l-10.4,1.1c4-4,17.6-14.1,22.6-11.1s2.6,5,6.6,8c4,2.2,3.6,6.1-1.2,11.6,5.1.9,7.6,3.3,7.4,7.2.8,4.7.7,13.1-4.2,16.7,3.1,11.2-9.6,3.8-12.5-2.1-8.3-7.4-17.3-13-27.1-16.7-.6-.2-1.4.2-2.1,0Z"/>
  <path class="st89" d="M261.5,261.5c2.5,1.8,6.4,2.6,9.2,4.5s2.4,7.7,8.5,6-.6-4,5.2-4.2c9.3-11.7,19.6.8,14.6,12.5-3.2,6.8-9.2,3.4-12.5-2.1-.4,1.5-16.5,5.1-17.4,4.9s-1-1.3-1.3-2.8c-2-.1-8.1-4.2-12.5-2.1-1.2-6.7,5.3-10.5,6.3-16.7Z"/>
  <path class="st8" d="M311.5,255.2c-.3,1.2.3,3,0,4.2.5,4.6.7,7.9,0,12.5,1.7,5.4,4.1,7.7-2.1,10.4-1.4,3.7-4.9,3.7-10.4,0-1.9-.5-1.8-1.2,0-2.1-.9-1.7-2.9-3-3.2-5.1-1.1-7.2,5.3-8.1-11.4-7.4l-2.1-8.3c2.1-.1,4.2.2,6.2,0,3.4-.3,7.2.5,10.4,0-.5-4.7,9.3-6.3,12.5-4.2Z"/>
  <path class="st24" d="M265.6,236.4l-1.1,18.8c-7.1,1.4-10.8-9.2-15.7-11.4s-7.9-.3-10.3-1.1v-2.1h14.6s-2.1-6.2-2.1-6.2c.5-.5,13,2.4,14.6,2.1Z"/>
  <path class="st99" d="M311.5,255.2c-4.2,0-9.1,3.7-12.5,4.2l-2.1-6.2c2-.3,4.4.3,6.3,0,3.4-.7,7,.7,8.3-4.2,0,.4,1.6.4,0,6.3Z"/>
  <path class="st54" d="M246.9,201c.6,3.9,4.2,7.7,0,12.5-2.9,1.3-3.8,1.3-6.3,2.1-.9-1.2-1.2-3.2-2.1-4.2,4.7-2.7,5.4-5.4,6.2-10.4-2.5-2.6-10.3,2.9-8.3-4.2l10.4,4.2Z"/>
  <path class="st82" d="M201,240.6c.2.4,2.3.6,3,2s-1.4,7.3,3.3,9.5l-2,1c-6.1-4.5-8.7-6.9-14.6-12.5l6.3-8.3c4.5-2.6,5.9.2,4.2,8.3Z"/>
  <path class="st49" d="M150.9,294.8c1-.2,2.3-1.9,3.2-1.9s4.6,12.1,5.2-2.3c3.4,0,3.5,5.6,4.3,6.2s2.8-1.7,4-2c2-.5,7.3-2.8,8.3-2.1s-2.1,3.9-2.1,4.2c-15.7,2.5-6.2,20.6-22.9,16.7-.2-.6.2-1.4,0-2.1,1.3-6.4,1.8-11,0-16.7Z"/>
  <path class="st136" d="M150.9,294.8l8.3,4.2-8.3,12.5c-1.3-5.9,0-9.5-6.2-13.6,2.6-5.3,5.7-3,6.2-3.1Z"/>
  <path class="st96" d="M194.7,230.2v-8.3c7.5-3.4,18.2,3.5,16.7,11.4s-13.7-4.5-10.4,7.3c-1.5-2.7-2.9-6.3-4.2-8.3s-1.7-1.4-2.1-2.1Z"/>
  <path class="st56" d="M155.1,359.5c-.2,1.3.2,2.8,0,4.2-2.8.1-5.6-.2-8.3,0l4.2-10.4c3-3.1,4.3-1,4.2,6.3Z"/>
  <path class="st50" d="M184.3,315.7c4.4,3.6,4.1,8-2.1,8.3-1.8,5.3-1.9,10.2-3.4,14.1s-4.9,3.4-7,6.7c2.9,2.2,3,4.1,0,6.3-2.2,3.1-2.7,6.9-4.2,10.4-4.1-2.6-4.1-5.7,0-8.3,0-10-5.3-13.7-14.6-16.7,0-.9-4.3-4.1-1.2-8.4s7.1-2.4,9.5-4.1c6.9-1.5,13.2-4.3,18.8-8.3-5-6.4,8.4-8.5,4.2,0Z"/>
  <path class="st95" d="M201,282.3c10.5-5.1,8.6,10,1.9,15.3,3.1.4,4.4,2.1,4.4,5.5,1.8.6,1.8,1.3,0,2.1-.6,1.7-1.3,1.7-2.1,0-8.5-.1-12.1.5-15.5,8.5h-3.3c2.9,2.7,1.7,3.8-2.1,2l-1.3-2c-1.6-.3-2.3,1.8-2.9,2-3.2,3.6-8.5,8-10.4,2.1,4.5-2.2,8.2-10.2,10.4-12.5s3.4-4.3,4.7-5.6,4.8-.9,6.8-2.7c5.2-4.9-2.1-17.1,9.4-14.6Z"/>
  <path class="st117" d="M180.1,315.7c-2.4,7.7-11.9,12.8-18.8,8.3,3.3-2.2,1.7-4.5,8.3-6.3s4.9.3,10.4-2.1Z"/>
  <path class="st39" d="M167.6,353.2c0,2.8,0,5.6,0,8.3-.8,1.8-1.3,2.6-2.1,4.2-1.1-2.8-4-1.9-6.3-2.1,2.6-5.2,1.7-15.6,8.3-10.4Z"/>
  <path class="st39" d="M150.9,353.2l8.3-12.5c-.3,6.5-3,12.4-4.2,18.8l-4.2-6.3Z"/>
  <path class="st64" d="M330.3,259.4c0,2.1,0,4.2,0,6.3-8.4,1.1-17.3-5.7-18.8,6.3-.6-2-3.7-4.4-3.8-7.7s3.7-4.4,3.8-4.8c3.6,6.4,3.2-1.9,7.2-2.3s8.2.4,11.6,2.3Z"/>
  <path class="st48" d="M309.4,282.3c.5,0,5.4,2.3,6.3,3.1,0,2.2-4.4.5-6.3,1s-2.9,1.8-4.2,2.1c-7.1-.2-9.2-2.3-6.3-6.3,3.3.3,7.2-.5,10.4,0Z"/>
  <path class="st14" d="M355.3,305.3c.2,2.5-2.6,5.4-2.1,8.3l6.2-2.1c-1.2,8.3-5.4,7.4-10.4,10.4,5.7-7-4.2-2.1-6.1-7.5-3.2-9.2,5.2-7.8,12.3-9.2Z"/>
  <path class="st45" d="M230.2,363.6c-5.4-3.2-6.6-4.6-4.1-10.4,3.5-.9,1.2,2.8,2.4,3.9s10.1-5.2,8,8.6c-2.9-.8-2.9,0-6.3-2.1Z"/>
  <path class="st130" d="M228.1,326.1c5.4-2.4,11.4.1,18,7.6,1.2.4,20.7.4,20.8-4.2l5.1.8c7.3,4.7,15.5-1,16,7.7.8,13.6-7.2.5-9.8,2.8l2.1,6.2c-2.5,1.6-11.7.2-12.2.6-.8.7.6,2.8-1.4,3.6-5.3,2.2-.5-4-2.1-4.2-4.6-.7-5.2.6-7.3,4.2-4.6.2-16-3.6-14.6-10.4-5.2-1.9-9.3-.3-10.6-.9s-.3-4-1.9-5.3c-2,7.3-27.3-11.6-27.7-13.2-3.9-14.4,28.5-5.8,25.6,4.9Z"/>
  <path class="st113" d="M257.3,351.1c2.1,1.8,13.3,11.8,13.7,12.6,1.7,2.7-1,3.4-1.2,4.1-4.6-5.9-8.1-7.1-15.6-8.4l-1.1,6.3-6.2-2.1c-2.8-2.8,8.2-8,6.2-10.4-4-5-13.3,3.3-14.6,2l2.1-8.3-6.3-2.1,8.3-4.2c5.3,1.9,10.3,6.7,14.6,10.4Z"/>
  <path class="st61" d="M299,280.2c.3.6-.3,1.6,0,2.1,1.4,2.2,5.1,3.5,6.3,6.3-11.5,2.5-23.7,4.8-35.5,6.3h-2.1c-1.8-7.8-.5-15.7,8.3-12.5,4.4,1.9,7.7,2.7,12.5,0-3.4-1-5.4-1.6-2.1-4.2,4.2,0,8.3,2.1,12.5,2.1Z"/>
  <path class="st85" d="M232.3,294.8c6.4-8.1,12.7-8.1,18.8,0,4.4.3,8,3.9,11.5,6.2l1-4.2c.6-1.8,1.3-1.8,2.1,0-.2.9-.3,5.5,0,6.3,3.3,6.3-9.6,4.3-13.4.9-13.6,2.1-27.5,2.9-41.6,2.2l-1.3-3.1c-.8-5.4,3.7-7.7,13.7-7,3.7-3.9,6.8-4.3,9.3-1.3Z"/>
  <path class="st10" d="M209.3,303.2c18.8,4,30.3-3.7,44.6-2.2.7,0,4.3,9.7,11.7,2.2.1.4,3.5,5.3,4.2,6.3h-2.1l-3,3.5c-7.1-3.9-16.9-2.7-22-1.4.3,3.7-8.2,1.2-8.3-2.1l-6-.5c-3.3,6.8-27.6,7.7-21.2-3.7v-2.1c.5-1.8,1.2-1.7,2.1,0Z"/>
  <path class="st38" d="M286.5,278.2c.5,1.1,2.3,3.3,2.1,4.2-4.1,2-10.1,4.7-12.5,0-10.6,1.6-3.2,6.6-4.5,10s-3.3,1.5-3.8,2.5-2,1.8-2.1,2.1h-2.1c-.6-6.3-.4-11.9,4.2-16.7,7.3.5,12.6-2,18.8-2.1Z"/>
  <path class="st7" d="M242.7,315.7c8.3-11.2,21.3-4.5,29.2,4.2,1.1,2.7,4.4,7.9,4.2,8.3s-2.3.4-4.2,2.1c-6.4,5.9-6.2,12-14.6,4.2l-1.1,6.2c-2.7-6.1-9.6-2.1-11.6-3.2-4-2.2-7.8-6.8-16.6-11.4-7.8-5.5-.8-11.7,6.3-12.5,1.4-2.7,7.9-.9,8.3,2.1Z"/>
  <path class="st139" d="M267.7,309.4c-.6,4.1,4.2,6.2,5.2,8.4s-1,1.9-1,2c-7.7,3.3-10-5.8-11.9-6.3-6.3-1.6-12.6,2.2-17.3,2.1-2.8-2.8-2.8-4.2,0-4.2.2-.1-.8-3.8,1.4-4.3,3.5-.8,19.6.8,23.7,2.2Z"/>
  <path class="st111" d="M207.3,305.3c1.2.5,1.9,3.8,3.6,4.2,6.7,1.4,11.6-2.9,23.5,0v4.2c.8,5.9-8.4,4.8-6.3,12.5-4.8-2.5-8.4-6.3-14-7.9-1.9-.5-9.3-2.3-8.9,1.6,9.5,1.6,10,11.5,20.9,8.4l-2.1,4c2.7-.1,4.2.5,6.2,2.2v10.4c-6.5-7.9-12.8,0-17.9,0s-.6-3.7-.9-4.1c-.7-.7-2.8,1.7-4.1,2.1-3.7-.3-6.5-2.9-8.4-7.8-6.1,2.2-11.6,0-16.7-6.8,0-1.4,0-2.8,0-4.2,1-3,.2-5,2.1-8.3s1.5-1.3,2.1-2.1c3.3-.5,5.9-2.8,7.7-7l11.1-1.4c.6,0,1.7-.2,2.1,0Z"/>
  <path class="st69" d="M182.2,328.2c7.9-5.2,10.4,12.1,15.6,0,5.1,3.8,7.6,8.6,9.4,14.6-3.3.9-6-.2-6.2,0s0,2.9,0,4.2c-.1,2.3,1.5,6.8-2.1,6.2.2-11-7.6-4.4-8.4-12.5-2.8-1.1-1.9,8.5-6.2,4.2s-2.1-13.8-2.1-16.7Z"/>
  <path class="st13" d="M171.8,344.9l6.3,1.1c-.5,2.5-5.2,11.1-6.3,9.3-.2-1.3.3-3,0-4.2-1.1-3.9-2.6-2.1,0-6.3Z"/>
  <path class="st60" d="M184.3,274c.5-.5.5-5.2,3.1-6.2,6.9-2.7,4.3,3.6,6.4,6.1,3.8,4.7,12.7,11,12.4.2,5.6,4.1,15.5,8.5,21.9,10.4,9.4-8.4,18.2,5.1,4.2,10.4-2.6.8-5.3,4.5-8.2,5.3-5,1.5-11.2-.6-14.7,3-.7-.1-1.5.2-2.1,0-2.4-.8-7.9-1.9-8.2-2.2-1-1,.3-7.8-.1-10.3l4.1,2.1c.4-7.1,4-6.6-2.1-10.4-6.9-4.4-14.3-2-12.5-10.4-3-.6-2,1.3-2.1,4.2-3.1,2.7-4.3,1.5-2.1-2.1Z"/>
  <path class="st29" d="M251,294.8c-.3,0-1.6,2.3-2.9,2.2s-1.1-4.3-2.4-4.4-12.7,1.9-13.4,2.2l4.2-10.4c-2.4-2-7.9.1-8.3,0,.7-3.5-1.6-4.6-4.2-6.3,10.2,3,26.6,2.5,27.1,16.7Z"/>
  <path class="st92" d="M184.3,274c.4.8,2.1,1.8,2.1,2.1,0,.5-1.5,2-1.1,3.1,1,3.2,7.3,12.9-3.1,6.3-10.8-6.8,1.1-10.5,2.1-11.5Z"/>
  <path class="st10" d="M205.2,305.3c-.5,0-9.7,2.1-10.1,2.4-1.7,1.4.1,12.3-8.7,5.9,6.4-9.1,4.8-9.6,18.8-8.3Z"/>
  <path class="st101" d="M288.6,282.3c-.5,2.1-9.1,6.3-11.4,6.3l-1.1-6.3c3.8-.6,8.5.4,12.5,0Z"/>
  <path class="st75" d="M234.4,309.4c2,.5,7.4,2.8,8.3,2.1l2,1-2,3.1c-.4,0-7.2-1.7-8.3-2.1-2.5-.8-5.9-.6-6.3-4.1h6.3Z"/>
  <path class="st44" d="M215.6,282.3l-2.1,6.2,8.3-2.1c-.2,9.5-6.8,11.7-14.6,7.3-5.9-3.3,2.2-3,2.3-4.3.2-2.4-2.8-6.7-2.3-7.1h8.3Z"/>
</svg>