<?xml version="1.0" encoding="UTF-8"?><svg id="CIRCLE_OUTLINE_BLACK" xmlns="http://www.w3.org/2000/svg" viewBox="0 0 512 512"><circle cx="255.68584" cy="260.40435" r="220.27922" fill="#fff"/><path d="m256,.00002C114.616.00002,0,114.61598,0,255.99998s114.616,256,256,256,256-114.615,256-256S397.38599.00002,256,.00002m150,332.37097c0,7.05-3.91602,13.31601-9.39902,16.44901l-63.44699,36.81499c-6.26501,3.133-13.315,3.133-18.79901,0l-63.44598-36.81499c-6.26599-3.916-9.399-10.18199-9.399-16.44901v-25.84799l29.76399-17.233v25.065c0,7.05,3.91699,13.31599,9.39999,16.45l33.681,19.582c6.267,3.133,13.31702,3.133,18.79901,0l32.89899-19.582c6.26602-3.91699,9.39902-10.183,9.39902-16.45v-39.164c0-7.049-3.91602-13.31601-9.39902-16.44901l-33.68198-19.582c-6.26703-3.133-13.315-3.133-18.79901,0l-43.08099,25.065-29.76399,17.23199-43.08101,25.06601c-6.267,3.133-13.31599,3.133-18.799,0l-63.44701-36.815c-6.26599-3.91701-9.39999-10.183-9.39999-16.44901v-73.629c0-6.267,3.134-12.53299,9.39999-15.66599l64.23001-37.59802c6.26599-3.133,13.31599-3.133,18.799,0l62.66298,36.815c6.26602,3.91602,9.39902,10.18201,9.39902,16.44901v26.63202l-29.76399,17.23199v-25.849c0-7.04901-3.91701-13.31601-9.40001-16.44901l-33.681-20.366c-6.267-3.13202-13.31599-3.13202-18.799,0l-33.68199,19.58301c-6.267,3.91599-9.39902,10.18298-9.39902,16.44897v39.16501c0,7.04901,3.91602,13.315,9.39902,16.448l33.68199,20.366c6.26601,3.13301,13.315,3.13301,18.799,0l43.08101-25.84799,29.76399-16.45001,43.86398-25.84799c6.267-3.133,13.31702-3.133,18.79901,0l63.44699,36.815c6.26599,3.91602,9.39902,10.18201,9.39902,16.448v74.41299Z" fill="#8247e5"/></svg>