<?xml version="1.0" encoding="UTF-8"?>
<svg id="Layer_1" xmlns="http://www.w3.org/2000/svg" version="1.1" viewBox="0 0 500 500">
  <!-- Generator: Adobe Illustrator 29.0.1, SVG Export Plug-In . SVG Version: 2.1.0 Build 192)  -->
  <defs>
    <style>
      .st0 {
        fill: #fff;
      }

      .st1 {
        fill: #2db8e3;
      }

      .st1, .st2 {
        fill-rule: evenodd;
      }

      .st2 {
        fill: #3840c7;
      }
    </style>
  </defs>
  <circle class="st0" cx="250" cy="250" r="248.5"/>
  <g>
    <path class="st1" d="M284.9,158.7c-1.8-1.8-4-3.3-6.4-4.3-2.4-1-4.9-1.5-7.5-1.5h0c-2.6,0-5.1.5-7.5,1.5-2.4,1-4.5,2.5-6.4,4.3l-153.4,154.3c-1.8,1.8-3.3,4-4.3,6.4-1,2.4-1.5,5-1.5,7.5,0,5.3,2.1,10.2,5.8,13.9,1.8,1.8,4,3.3,6.4,4.3,2.4,1,4.9,1.5,7.5,1.5,5.3,0,10.2-2.1,14-5.8l153.4-154.3c3.7-3.7,5.7-8.7,5.7-13.9,0-5.2-2.1-10.2-5.8-13.9h0Z"/>
    <path class="st2" d="M374,154.8c-3.6-1.5-7.6-1.9-11.4-1.1-3.8.8-7.3,2.7-10.1,5.4l-153.5,154.4c-3.7,3.7-5.7,8.7-5.7,13.9,0,5.2,2.1,10.2,5.8,13.9,3.7,3.7,8.7,5.7,13.9,5.7,5.2,0,10.2-2.1,13.9-5.8l119.8-120.5v106.6c0,5.2,2.1,10.2,5.8,13.9,3.7,3.7,8.7,5.8,13.9,5.8,5.2,0,10.2-2.1,13.9-5.8,3.7-3.7,5.8-8.7,5.8-13.9v-154.3c0-3.9-1.1-7.7-3.3-11-2.2-3.2-5.2-5.8-8.9-7.2h0Z"/>
  </g>
</svg>