<?xml version="1.0" encoding="UTF-8"?><svg id="Layer_1" xmlns="http://www.w3.org/2000/svg" viewBox="0 0 128 128"><defs><style>.cls-1,.cls-2,.cls-3,.cls-4,.cls-5,.cls-6,.cls-7,.cls-8,.cls-9,.cls-10,.cls-11,.cls-12,.cls-13,.cls-14,.cls-15,.cls-16,.cls-17,.cls-18,.cls-19,.cls-20{stroke-width:0px;}.cls-2{fill:#343434;}.cls-3{fill:#5a3e19;}.cls-4{fill:#949494;}.cls-5{fill:#373737;}.cls-6{fill:#c84c3a;}.cls-7{fill:#dec290;}.cls-8{fill:#c0a87c;}.cls-9{fill:#ceb485;}.cls-10{fill:#939393;}.cls-11{fill:#8b6028;}.cls-12{fill:#93662b;}.cls-13{fill:#fdfdfd;}.cls-14{fill:#eeb63e;}.cls-15{fill:#e5c894;}.cls-16{fill:#fefefe;}.cls-17{fill:#fcfcfc;}.cls-18{fill:#010101;}.cls-19{fill:#020202;}.cls-20{fill:#020201;}</style></defs><circle class="cls-14" cx="64" cy="64" r="63.5"/><g id="PONKE"><path class="cls-1" d="m78.22,23.04h1.67c.33.22.7.06,1.04.11,2.59-.06,4.7,1.1,6.6,2.69,2.39,1.99,4.38,4.35,6.26,6.81.47.62,1,.95,1.79,1.07,3.43.54,6.35,2.16,8.91,4.47.23.21.44.45.74.57,2.12.86,3.28,2.61,4.2,4.57.35.76.61,1.55,1.33,2.06.3.21.34.59.38.94,0,.38,0,.76,0,1.13,0,.1.03.23-.02.31-.82,1.23-.8,2.68-1.06,4.06-.27,1.45-1.29,2.37-2.53,3.02-.72.37-1.19.88-1.54,1.62-.72,1.51-1.83,2.71-3.24,3.61-.59.38-.62.69-.19,1.23,1.07,1.33,2.2,2.61,3.3,3.91.34.4.75.72,1.28.86,1.22.33,2.04,1.16,2.35,2.32.39,1.44.84,2.86,1.15,4.31.64,2.98-.32,5.64-1.84,8.14-1.55,2.55-3.41,4.84-5.75,6.71-.44.36-.78.8-1.05,1.29-1.03,1.88-2.55,3.14-4.57,3.92-3.09,1.2-5.99,2.81-8.93,4.32-7.71,3.97-15.9,6.35-24.51,7.25-5.59.59-11.19.44-16.8.3-2.12-.05-4.24-.17-6.36-.27-3.42-.15-6.81-.63-10.07-1.7-3.04-.99-5.22-3.17-7.04-5.68-2.8-3.85-4.1-8.24-4.59-12.94-.45-4.38-.03-8.68.96-12.95.12-.54.04-.94-.35-1.32-.38-.36-.66-.81-1-1.21-1.86-2.18-2.23-4.74-1.8-7.45.23-1.44,1.21-2.51,2.27-3.42,3.19-2.75,6.69-5,10.71-6.36.57-.19.71-.58.78-1.1.39-2.78,1.21-5.42,2.48-7.94,1.77-3.52,4.13-6.6,6.84-9.44,1.08-1.13,2.18-2.24,3.39-3.25,3.6-3,7.67-3.7,12.17-2.74,2.89.62,5.49,1.81,7.8,3.61.71.55,1.14.44,1.77-.15,2.51-2.35,4.95-4.81,8.11-6.34,1.21-.59,2.47-.92,3.82-.89.36-.05.75.11,1.1-.11Z"/><path class="cls-4" d="m111.06,46.23c.06.02.13.03.19.01v1.25h-.1s-.09.01-.09.01c0-.43,0-.85,0-1.28Z"/><path class="cls-5" d="m77.13,23.22c.05-.06.06-.12.04-.19h1.05c-.31.33-.7.25-1.08.19Z"/><path class="cls-2" d="m80.93,23.04c-.01.07,0,.13.04.18-.38.06-.77.15-1.09-.18h1.05Z"/><path class="cls-12" d="m88.87,94.5c-6.74,3.62-13.87,6.08-21.45,7.24-6.77,1.03-13.58,1.15-20.41.78-2.88-.15-5.78-.18-8.65-.48-2.39-.25-4.76-.65-7.04-1.43-2.25-.77-3.88-2.43-5.34-4.21-2.76-3.36-4.02-7.36-4.59-11.59-.54-4.07-.25-8.12.56-12.14.15-.75.35-.8.88-.31,1.67,1.55,3.47,2.9,5.67,3.64,1.43.48,2.89.79,4.4.35.36-.11.72-.28,1.03-.49.38-.26.51-.67.3-1.11-.23-.48-.67-.68-1.13-.48-2.24,1-4.2.09-6.01-1.01-2.76-1.68-5.02-3.97-7-6.51-.87-1.12-1.27-2.45-1.27-3.9,0-1.04.31-1.92,1.02-2.65,2.86-2.95,6.31-5,10.06-6.6.53-.22.99-.12,1.44.24,1.07.85,1.55,2.03,1.89,3.29.18.64.29,1.29.44,1.93.15.62.55.89,1.16.74.57-.14.76-.59.65-1.13-.41-2.09-.86-4.18-2.41-5.78-.31-.32-.3-.66-.29-1.05.18-4.04,1.62-7.66,3.74-11.04,2.18-3.47,4.91-6.49,7.95-9.23,3.63-3.27,7.78-3.47,12.22-2.18,3.07.89,5.52,2.76,7.86,4.81,1.28,1.12,2.5,2.32,3.6,3.87-2.03-.62-3.94-1.04-5.9-1.13-7.47-.35-14.17,1.31-19.25,7.28-.9,1.06-1.83,2.1-2.53,3.31-.24.41-.4.82-.3,1.29,1.33,6.08,1.95,12.29,3.33,18.35.45,1.98.39,3.71-.35,5.68-2.03,5.32-2.06,10.77.1,16.09,2.11,5.2,5.99,8.11,11.69,8.51,5.63.39,11.18-.35,16.74-1,5.08-.59,10.15-1.23,15.21-1.96.58-.08,1.17-.15,1.76-.23.22-.07.27.03.22.22Z"/><path class="cls-15" d="m97.66,90.32c-2.04,1.08-4.3,1.34-6.53,1.68-7.71,1.19-15.44,2.17-23.18,3.04-4.22.47-8.45.77-12.71.61-5.36-.2-9.5-4-10.87-9.1-1.25-4.64-.95-9.15.7-13.62.37-1.01.81-1.98,1.7-2.69.61-.49.41-1.51-.3-1.54-.96-.04-.92-.67-1.02-1.23-.79-4.41-1.56-8.83-2.34-13.25-.29-1.64-.53-3.3-.87-4.93-.13-.65,0-1.12.37-1.64,4.77-6.83,11.5-9.33,19.56-8.85,2.84.17,5.58.8,8.01,2.39.48.31.97.63,1.42,1.22-3.83-.17-7.43.28-10.98,1.17-6.1,1.53-10.73,5.26-14.75,9.9-.43.5-.85,1.01-1.27,1.53-.39.49-.51,1.03.04,1.47.56.45,1.03.17,1.42-.32,1.71-2.12,3.58-4.08,5.64-5.87,3.93-3.4,8.57-5.07,13.65-5.72,2.6-.33,5.2-.58,7.79-.02,1.28.28,2.42.87,3.43,1.68.57.46,1,1.02,1.05,1.69-5.73-.04-11.41-.19-16.88,1.65-3.66,1.23-6.85,3.23-9.15,6.44-.42.59-.89,1.2-1.11,1.88-.31.93-.94,1.09-1.75,1.09-.94,0-1.87-.15-2.79-.36-.64-.14-1.16.03-1.31.68-.15.68.28,1.03.91,1.14,1.68.3,3.36.7,5.04.07.52-.19.99-.02,1.41.17,4.72,2.11,9.66,1.75,14.59,1.33,2.67-.23,5.3-.76,7.87-1.56,1.63-.51,3.22-1.11,4.78-2.07-.16.93-.76,1.45-1.34,1.96-1.74,1.5-3.89,1.95-6.06,2.32-5.45.92-10.92,1.28-16.44.71-.52-.05-1.04-.13-1.54-.28-.65-.2-1.14-.06-1.33.59-.19.67.22,1.02.84,1.2,1.21.36,2.46.48,3.71.53,4.71.22,9.4.03,14.11-.77-.05.38-.35.51-.56.68-1.95,1.63-3.88,3.28-6.19,4.41-.53.26-.82.68-.54,1.27.28.59.8.66,1.33.4.68-.34,1.35-.72,2-1.12,1.56-.99,3-2.15,4.39-3.36,1.8-1.56,3.53-3.15,5.83-4.1,1.96-.81,3.47-2.34,3.83-4.63.12-.73.6-.43.94-.41,4.84.32,9.59-.26,14.26-1.53,1.91-.52,3.77-1.2,5.58-2.02.41-.19.87-.52.74.42-.1.74.56.92,1.2,1.07-.94,1.66-2.36,2.69-3.96,3.49-3.04,1.53-6.31,2.36-9.6,3.09-2.27.5-4.55.98-6.84,1.44-.69.14-1.29.37-1.12,1.17.17.8.82.8,1.5.66,1.7-.35,3.41-.67,5.11-1,.07.07.12.16.14.26-.18.87.16,1.33,1.03,1.58,1.1.32,2.11.85,2.97,1.65.29.27.62.54.98.15.33-.35.17-.71-.1-1.02-.65-.74-1.45-1.27-2.35-1.66-.63-.27-1.33-.4-1.87-.87-.05-.1-.04-.19.03-.27,2.2-.64,4.47-1.01,6.63-1.78.29-.1.47-.06.54.26.18.79.82,1.05,1.48,1.33,1.79.76,3.6,1.48,5.24,2.56.52.35.72.58.15,1.15-1.66,1.65-2.68,3.71-3.32,5.95-.19.67-.57,1.01-1.2,1.28-4.63,1.93-9.49,2.93-14.45,3.48-3.46.38-6.89,1.01-10.38,1.08-3.92.08-7.4-.86-10.36-3.6-1.94-1.79-4.17-3.17-7.02-2.92-1.88.17-3.61.76-5.02,2.06-1.36,1.25-1.77,2.82-1.21,4.57,1.03,3.25,3.32,5.57,5.81,7.74,2.94,2.56,6.52,3.47,10.24,4.03,5.24.78,10.5.54,15.74.12,3.71-.29,7.44-.43,11.13-.95,1.17-.17,2.32-.44,3.48-.67.24-.09.29.03.26.24Z"/><path class="cls-6" d="m108.6,74.01c.13,1.2.02,2.39-.47,3.46-2.19,4.72-5.25,8.61-10.34,10.48-2.18.8-4.46,1.12-6.75,1.27-5.56.36-11.1,1.01-16.68.98-4.2-.02-8.38-.25-12.34-1.75-4.15-1.58-7.1-4.58-9.04-8.53-.81-1.66-.33-2.98,1.28-3.89,2.22-1.26,4.5-1.43,6.72,0,.96.62,1.9,1.3,2.76,2.06,2.72,2.42,5.96,3.34,9.5,3.47,3.36.12,6.66-.4,9.98-.83,4.45-.57,8.92-1.07,13.2-2.52,1.32-.45,2.6-1,3.92-1.42,1.07-.35,1.66-1.05,1.97-2.09.59-1.99,1.42-3.86,2.88-5.37.49-.5,1.02-1.35,1.77-.97.73.37.83,1.32.74,2.15-.14,1.39-.78,2.59-1.52,3.73-3.01,4.62-7.38,7.33-12.54,9.01-6.23,2.02-12.56,2.29-18.98,1.36-3.51-.51-7.01-1.1-10.34-2.41-1.5-.59-2.91-1.34-4.09-2.46-.45-.43-.94-.7-1.45-.17-.53.55-.28,1.07.2,1.54,1.89,1.82,4.22,2.84,6.67,3.53,6.72,1.88,13.56,2.91,20.54,2.11,5.83-.67,11.41-2.26,16.22-5.8,2.52-1.86,4.55-4.19,6.18-6.91Z"/><path class="cls-12" d="m92.36,34.42c-.42.17-.74.17-1.04.09-3.27-.84-6.5-.37-9.71.32-3.48.75-6.84,1.85-10.05,3.42-.44.22-.75.35-1.11-.21-1.14-1.76-2.55-3.31-4.09-4.72-.44-.4-.47-.63-.04-1.05,1.92-1.92,3.92-3.77,6.16-5.31,4.59-3.18,10.56-2.63,14.55,1.25,1.83,1.78,3.51,3.67,5.05,5.7.1.13.16.29.28.51Z"/><path class="cls-15" d="m100.86,38.06c-6.96-.72-13.08.76-18.58,4.62-1.06.74-2.05,1.56-2.94,2.5-.43.45-.7.63-1.18.04-.39-.47-.91-.94-1.47-1.14-2.04-.73-3.16-2.49-4.66-3.98,1.86-.93,3.74-1.67,5.68-2.28,3.03-.95,6.09-1.73,9.28-1.86.42-.02.84-.03,1.25,0,2.14.11,4.18.51,6.42-.04,2.08-.51,4.11.87,6.2,2.14Z"/><path class="cls-15" d="m106.92,43.15c-10.22-2.42-19.12-.13-26.71,7.14-1.06-1.36-1.02-2.39.21-3.59,5.54-5.38,12.2-7.54,19.85-6.82,1.08.1,2.14.24,3.19.52,1.79.47,2.61,1.14,3.47,2.75Z"/><path class="cls-16" d="m68.43,50.04c2.59-.13,5.01-.4,7.45-.3,1.58.07,2.49.84,2.99,2.28.33.97.42,1.97.52,2.97.07.66-.3,1.12-.77,1.51-.7.59-1.51.99-2.34,1.34-2.09.86-4.25,1.47-6.58,1.84,2.23-3.57,1.2-6.64-1.27-9.64Z"/><path class="cls-16" d="m100.18,52.79c1.08-3.03.94-5.95-1.16-8.77,3.67-.08,7.01.47,9.95,2.61.35.25.32.5.08.77-.35.38-.7.78-1.11,1.1-2.18,1.75-4.58,3.14-7.14,4.25-.18.08-.35.25-.62.04Z"/><path class="cls-16" d="m87.03,48.15c0,2.73.32,5.35,2.4,7.52-.78.29-1.54.18-2.27.26-1.77.18-3.55.13-5.32-.01-.48-.04-.69-.15-.59-.67.05-.3.02-.64-.07-.93-.45-1.47.23-2.47,1.24-3.45,1.33-1.29,2.77-2.43,4.36-3.37.53.05.26.41.25.66Z"/><path class="cls-13" d="m56.73,53.64c-.72,2.54.13,4.6,1.31,6.64-2.06.07-3.8-.77-5.59-1.39-.35-.12-.27-.32-.14-.55,1.06-1.87,2.47-3.4,4.42-4.7Z"/><path class="cls-17" d="m62.04,52.75c-.03,1.15-1.07,2.14-2.05,2.09-.8-.04-1.41-.63-1.4-1.37.01-.99.99-1.92,1.99-1.85.79.05,1.42.33,1.46,1.13Z"/><path class="cls-17" d="m91.31,47.61c.03,1.09-.85,2.22-1.75,2.24-.79.02-1.26-.51-1.26-1.44,0-1.24.71-2.11,1.77-2.16.7-.03,1.21.54,1.23,1.35Z"/><path class="cls-7" d="m108.04,50.8c-.18,1.8-2.17,3.03-4.86,2.94,1.77-.96,3.34-1.86,4.86-2.94Z"/><path class="cls-11" d="m101.18,63.3c-.6-.25-1.21-.51-1.81-.77-.25-.11-.57-.21-.55-.54.01-.3.35-.3.55-.4.28-.14.56-.31.82.06.36.51.73,1.02,1.09,1.53.01.02.02.07,0,.08-.02.02-.06.03-.1.05Z"/><path class="cls-8" d="m97.66,90.32c-.09-.08-.18-.16-.26-.24.26-.22.56-.27.93-.28-.09.43-.41.44-.67.52Z"/><path class="cls-10" d="m87.03,48.15c-.14-.2.06-.52-.25-.66.08-.12.23-.24.31-.14.21.26.08.54-.06.8Z"/><path class="cls-9" d="m89.08,64.81c0-.07,0-.15,0-.22.23-.26.55-.18.84-.19,0,.07.01.13.01.2-.23.28-.5.4-.85.21Z"/><path class="cls-3" d="m88.87,94.5c-.07-.07-.14-.15-.22-.22.19-.18.41-.21.73-.13-.13.21-.29.31-.51.35Z"/><path class="cls-1" d="m33.28,64.28c-.07,1.97-.17,3.42-.43,4.86-.12.64-.4,1.18-1.15,1.05-.75-.13-.83-.74-.7-1.38.46-2.27.46-4.55.17-6.84-.13-1.02-.57-1.61-1.66-1.81-1.24-.22-2.42-.04-3.62.15-.7.11-1.22-.05-1.36-.75-.13-.7.4-.98,1-1.08,1.4-.23,2.8-.46,4.24-.17,2.06.42,2.95,1.26,3.24,3.37.14,1.03.31,2.06.26,2.6Z"/><path class="cls-1" d="m48.68,74.91c.78,0,1.26.82.81,1.43-2.01,2.73-1.92,5.66-1.06,8.74.48,1.74,1.43,3.06,2.95,3.99.41.25.82.52,1.24.77.58.34.78.82.44,1.39-.33.55-.85.46-1.38.22-6.46-2.94-6.75-11.66-4.24-15.46.33-.49.64-1,1.24-1.09Z"/><path class="cls-18" d="m89.08,64.81c.28-.07.57-.14.85-.21,1.05.36,2.1.71,3.06,1.29.6.36,1.15.77,1.55,1.37.32.48.27.94-.17,1.29-.41.33-.89.3-1.21-.1-.89-1.09-2.14-1.49-3.39-1.93-1.01-.36-1.14-.67-.69-1.71Z"/><path class="cls-19" d="m89.49,72.62c-.04.49-.24.85-.7.97-.51.14-.97-.06-1.1-.55-.24-.89-.79-1.53-1.39-2.17-.41-.44-.52-.93-.05-1.38.46-.45.96-.34,1.39.08.89.86,1.6,1.83,1.84,3.05Z"/><path class="cls-20" d="m80.44,72.28c.01-.13.02-.4.06-.68.08-.53.43-.8.93-.79.57.01.92.38.9.94-.03.8.03,1.58.29,2.34.17.48,0,.91-.48,1.12-.53.23-.95.02-1.22-.47-.39-.72-.44-1.52-.48-2.46Z"/></g></svg>