<?xml version="1.0" encoding="UTF-8"?><svg id="Layer_1" xmlns="http://www.w3.org/2000/svg" viewBox="0 0 128 128"><defs><style>.cls-1,.cls-2,.cls-3,.cls-4,.cls-5,.cls-6,.cls-7,.cls-8,.cls-9,.cls-10,.cls-11,.cls-12,.cls-13,.cls-14,.cls-15,.cls-16,.cls-17,.cls-18,.cls-19,.cls-20,.cls-21,.cls-22,.cls-23,.cls-24,.cls-25,.cls-26,.cls-27,.cls-28{stroke-width:0px;}.cls-2{fill:#5f3634;}.cls-3{fill:#5f3a36;}.cls-4{fill:#7a6058;}.cls-5{fill:#26110e;}.cls-6{fill:#4f2b2a;}.cls-7{fill:#2e0402;}.cls-8{fill:#873a37;}.cls-9{fill:#461f1e;}.cls-10{fill:#a36b6a;}.cls-11{fill:#6f4b46;}.cls-12{fill:#341915;}.cls-13{fill:#582f2c;}.cls-14{fill:#110201;}.cls-15{fill:#1e0c06;}.cls-16{fill:#a87673;}.cls-17{fill:#d3c4be;}.cls-18{fill:#b58581;}.cls-19{fill:#c1afaa;}.cls-20{fill:#9f8982;}.cls-21{fill:#73443f;}.cls-22{fill:#ececec;}.cls-23{fill:#e8e8e8;}.cls-24{fill:#e9d7d6;}.cls-25{fill:#e6706b;}.cls-26{fill:#e5dad7;}.cls-27{fill:#ebd8d7;}.cls-28{fill:#ebebeb;}</style></defs><circle class="cls-26" cx="64" cy="64" r="63.5"/><g id="POPCAT"><path class="cls-2" d="m64.85,99.53c3.46.73,6.96,1.05,10.49.84,4.74-.28,9.05-1.81,12.94-4.53,2.77-1.93,4.91-4.42,6.6-7.33,1.99-3.43,3.72-6.97,5.14-10.68,1.02-2.66,1.36-5.42,1.21-8.25-.14-2.74-.43-5.46-1.09-8.13-.68-2.75-1.71-5.37-3.33-7.7-.91-1.3-1.09-2.72-1.21-4.2-.22-2.83-.13-5.65.12-8.48.16-1.82-.23-3.54-1.44-4.99-1.28-1.55-2.92-1.96-4.79-1.37-1.79.56-3.43,1.47-4.99,2.52-2.22,1.49-4.61,2.63-7.18,3.36-.3.09-.61.13-.93.07-4.14-.81-8.28-.75-12.43-.02-2.92.51-5.83.39-8.69-.39-2.81-.76-5.35-2.07-7.72-3.75-1.19-.85-2.26-1.85-3.36-2.81-1.55-1.35-3.23-2.54-4.99-3.6-1.05-.63-2.16-1.04-3.39-.91-1.52.16-2.87.68-3.65,2.13-.3.55-.49,1.16-.69,1.76-1.05,3.11-.99,6.27-.54,9.49.85,6.08,2.12,12.07,3.36,18.07.54,2.63,1.01,5.27,1.7,7.87,1.38,5.23,3.38,10.19,6.2,14.82,2,3.28,4.33,6.27,7.27,8.77,2.54,2.15,5.34,3.87,8.39,5.2,2.25.98,4.59,1.72,6.99,2.23Z"/><path class="cls-17" d="m99.32,72.72c.01-1.12-.09-2.24-.14-3.35-.08-1.8-.18-3.6-.27-5.4,0-.14-.02-.27-.07-.39-.14-.34-.32-.67-.52-.98-.46-.74-.98-1.45-1.4-2.22-.06-.11-.12-.25-.29-.24-1.04.58-2.56.12-3.31-.65-.43-.44-.8-.94-1.23-1.38-.18-.18-.31-.45-.63-.44-.07.18.08.27.17.37,1.1,1.14,2.07,2.38,2.91,3.72,1.96,3.16,2.93,6.58,2.64,10.32-.11,1.45-.45,2.86-.83,4.26-.49,1.84-1.21,3.58-2.15,5.23-1.36,2.37-3.06,4.44-5.27,6.08-3.51,2.61-7.47,3.89-11.8,4.14-1.73.1-3.44-.01-5.15-.21-1.05-.12-2.1-.3-3.11-.59-1.89-.54-3.69-1.3-5.36-2.36-2.15-1.37-4.06-3.01-5.73-4.94-1.9-2.2-3.36-4.65-4.31-7.39-.76-2.2-1.09-4.46-.86-6.78.23-2.36,1.03-4.5,2.45-6.41,1.26-1.7,2.81-3.09,4.58-4.24,2.17-1.42,4.5-2.51,6.93-3.38,2.27-.81,4.61-1.4,6.95-1.95.6-.14,1.18-.38,1.69-.75.25-.18.51-.33.78-.47.15-.08.35-.11.39-.33-.14-.23-.39-.24-.61-.33-.31-.13-.64-.26-.65-.64-.01-.41.3-.6.64-.73.43-.17.89-.13,1.34-.09.55.05,1.09.16,1.64.21.62.05,1.24,0,1.86-.03.08,0,.16-.02.21-.08.05-.19-.12-.22-.23-.27-1.02-.55-2.12-.79-3.28-.74-.78.03-1.54.15-2.27.45-.23.1-.45.22-.64.37-.33.27-.55.6-.48,1.05.07.41-.11.72-.39.99-.42.4-.94.61-1.46.82-1.3.5-2.66.77-4.02,1.02-1.04.19-2.09.36-3.13.51-1.3.19-2.5.65-3.66,1.24-1.12.56-2.22,1.15-3.41,1.54-1.67.55-3.36.54-5.06.09-.11-.03-.2-.1-.31-.13-.16,0-.24.12-.32.22-1.37,1.56-2.63,3.2-3.52,5.09-.18.39-.34.78-.46,1.2-.33,1.2.08,2.16.96,2.97.21.19.41.39.64.55.21.15.22.27.01.44-.82.69-1.66,1.34-2.46,2.05-.4.36-.81.72-1.16,1.13-.55.65-1,1.35-1.14,2.22-.11.71.09,1.04.79,1.2.13.03.26.05.4.08.47.11.59.29.52.77-.06.39-.2.76-.33,1.13-.3.88-.77,1.67-1.31,2.42-.08.11-.17.21-.2.35-.03.16.06.28.13.41.69,1.32,1.39,2.62,2.15,3.9.71,1.19,1.45,2.36,2.3,3.45,1.76,2.26,3.98,3.89,6.65,4.91,1.57.6,3.18,1.05,4.81,1.45,2.26.56,4.55,1.01,6.83,1.49,1.47.31,2.97.49,4.47.63,1.71.15,3.42.16,5.12-.06,2.44-.32,4.73-1.09,6.87-2.3,2.1-1.19,4-2.65,5.75-4.29,1.57-1.48,2.92-3.15,4.15-4.92,1.71-2.47,3.13-5.1,4.23-7.9.3-.76.58-1.54.84-2.32.08-.25.03-.52.15-.75Z"/><path class="cls-11" d="m44.95,79.03c.59-.82,1.14-1.66,1.49-2.62.15-.42.3-.85.37-1.29.09-.51-.06-.73-.56-.84-.17-.04-.33-.07-.5-.11-.57-.13-.74-.39-.68-.96.09-.75.43-1.39.88-1.97.71-.92,1.63-1.64,2.52-2.38.55-.46,1.11-.92,1.68-1.39-.28-.24-.55-.46-.81-.69-1.28-1.13-1.54-2.19-.85-3.77.94-2.18,2.36-4.04,3.96-5.78.17-.02.26-.17.37-.28.5-.52,1.02-1.02,1.6-1.44.28-.2.29-.29,0-.46-.73-.44-.92-1.07-.75-1.88.41-1.93,1.23-3.64,2.77-4.93,1.04-.88,2.24-1.5,3.47-2.06,1.35-.61,2.73-1.17,4.03-1.9.99-.56,1.92-1.21,2.74-2.01.08-.08.17-.16.15-.29-.88.08-1.76.16-2.63.25-1.31.14-2.62.28-3.94.42-.18.02-.35.06-.53.09-.26.06-.48.18-.7.32-1.49.97-3.05,1.82-4.56,2.76-1.52.94-3.01,1.93-4.28,3.23.01-.4.08-.78.09-1.18.06-2.04-.14-4.05-.59-6.03-.13-.59-.26-1.19-.46-1.76-.04-.13-.1-.25-.18-.36-.4-.37-.9-.59-1.34-.89-1.79-1.22-3.52-2.52-5.14-3.98-.69-.62-1.26-1.34-1.96-1.94-.84-.71-1.76-1.25-2.82-1.59-.75-.24-1.5-.34-2.27-.4-.05,0-.1.02-.16.04.14.17.36.18.54.26,1.33.62,2.41,1.57,3.38,2.64.1.11.2.22.3.32,1.53,1.81,3.08,3.61,4.5,5.5.75.99,1.43,2.04,1.91,3.2.28.7.56,1.4.69,2.15.18,1.06.03,2.05-.54,2.98-.3.5-.62.99-.91,1.5-.05.09-.1.17-.15.26-.45.83-.56,1.24.43,1.77.59.32.57.85.01,1.22-.45.3-.94.53-1.39.83-.45.3-.71.65-.56,1.24.12.47.14.96.19,1.44.08.8-.26,1.29-1.05,1.48-.61.15-1.21.06-1.81-.04-.64-.11-1.28-.26-1.92-.4-.24-.05-.49-.07-.74-.05-.52.04-.88.3-1.11.77-.12.25-.23.51-.31.78-.14.47-.37.86-.78,1.14.2,1.16.4,2.31.6,3.47.02.12.03.25.12.35.03.02.06.05.09.04.92-.08,1.82-.21,2.53-.88.4-.38.57-.94.45-1.46.5.12,1.01.16,1.5.26,1.44.3,2.61-.11,3.56-1.22.63-.73,1.19-1.52,1.81-2.19-.28.75-.55,1.56-.82,2.37-.75,2.23-1.5,4.45-2.22,6.69-.35,1.08-.71,2.16-.99,3.26-.13.49-.18.99-.17,1.5,0,.21-.02.43,0,.64.09,1.14-.23,2.19-.58,3.26-.28.83-.54,1.69-.43,2.6.42.71.84,1.43,1.25,2.14.07.12.14.25.21.38.69-.54,1.28-1.18,1.84-1.84.08-.09.05-.22.13-.3Z"/><path class="cls-22" d="m66.84,41.97c-.98,1.05-2.17,1.82-3.42,2.49-1.58.84-3.27,1.45-4.85,2.29-1.66.88-3.11,1.98-4,3.69-.47.89-.78,1.84-.98,2.83-.16.78.06,1.4.77,1.81.09.05.17.1.29.18-.83.57-1.52,1.24-2.17,1.96.03.13.14.16.25.19,1.66.45,3.33.47,4.98-.03.99-.3,1.92-.76,2.84-1.22,1.07-.53,2.12-1.15,3.31-1.4,1.28-.27,2.59-.45,3.88-.67,1.53-.26,3.05-.57,4.5-1.13.51-.2,1.01-.43,1.41-.83.22-.22.46-.49.38-.82-.19-.75.31-1.22.9-1.47,1.19-.51,2.44-.65,3.72-.43.78.13,1.52.36,2.19.81.11.14.26.1.4.1.63,0,1.25.08,1.84.33.63.27.72.45.66,1.13,0,.04,0,.09,0,.13.04.12.15.16.24.22,1.72.95,3.36,2.03,4.88,3.29.69.57,1.37,1.16,2.01,1.79.18.18.34.39.61.45.54.33.89.84,1.28,1.31.76.94,1.69,1.53,2.93,1.5.36,0,.72-.05,1-.33.08-.17-.05-.27-.12-.39-.54-.84-1.08-1.68-1.64-2.52-.17-.25-.2-.44-.03-.7.21-.32.18-.45-.1-.78-1.15-1.36-2.4-2.62-3.68-3.86-.52-.51-1.04-1.03-1.59-1.51-.1-.09-.2-.23-.37-.11-.04.13,0,.24.03.37.11.72-.42,1.25-1.15,1.14-.55-.08-1.07-.26-1.56-.51-.85-.44-1.7-.88-2.55-1.32-.7-.36-.84-1.03-.72-1.62.11-.54.69-.93,1.33-.96.37-.02.71.1,1.07.13.04,0,.07-.01.1-.03.04-.24-.16-.3-.29-.39-1.33-.98-2.61-2.03-3.98-2.95-.84-.56-1.71-1.07-2.62-1.51-.3-.15-.61-.2-.94-.22-2.49-.11-4.98-.22-7.48-.32-1.11-.05-2.22-.1-3.33-.15-.06,0-.13.02-.19.04Z"/><path class="cls-19" d="m44.95,79.03c-.54.69-1.13,1.33-1.8,1.91-.08.06-.16.13-.17.24.64.99,1.27,1.99,1.91,2.98.95,1.48,1.98,2.9,3.15,4.21,2.26,2.52,4.92,4.51,7.92,6.04,2.1,1.07,4.26,1.97,6.52,2.64,1.24.37,2.48.74,3.75.98,3.2.6,6.42.8,9.67.49,2.4-.23,4.74-.69,6.96-1.65,3.4-1.46,6.26-3.65,8.64-6.48,1.46-1.74,2.51-3.72,3.56-5.71.75-1.42,1.59-2.79,2.24-4.26,1.09-2.46,1.78-5.02,2.01-7.7-.21.46-.32.95-.48,1.42-.45,1.28-.94,2.53-1.52,3.76-.86,1.84-1.85,3.61-2.99,5.3-1.19,1.76-2.5,3.43-4.02,4.93-1.15,1.14-2.4,2.16-3.7,3.11-1.6,1.17-3.3,2.16-5.17,2.86-2.27.85-4.61,1.22-7.02,1.19-1.43-.02-2.85-.17-4.27-.35-2.28-.29-4.5-.85-6.75-1.29-1.25-.24-2.48-.55-3.71-.88-2.07-.56-4.12-1.22-5.99-2.33-1.63-.97-2.99-2.23-4.18-3.71-.75-.93-1.4-1.93-2.01-2.95-.91-1.49-1.73-3.04-2.54-4.59-.02-.05-.02-.11-.03-.16Z"/><path class="cls-18" d="m46.05,42.81c-.48-1.18-1.17-2.23-1.93-3.23-1.41-1.87-2.96-3.64-4.46-5.44-.15-.02-.28-.09-.41-.15-1.09-.44-2.06-.21-2.89.59-.77.74-1.28,1.65-1.53,2.69-.63,2.65-.86,5.35-1.05,8.06-.04.64-.09,1.28-.16,1.92-.04.33,0,.67-.04,1,0,.16.06.3.11.44.28.52.69.94,1.03,1.42.53.74,1.07,1.47,1.56,2.24.18.29.41.54.6.82.07.09.14.18.28.16.18-.07.18-.24.22-.39.52-1.93.89-3.9,1.31-5.86.16-.77.22-1.56.33-2.34.16-1.08.37-2.15.87-3.14.3-.59.71-1.04,1.43-1.08.22-.01.43.02.62.12,1.42.74,2.74,1.6,3.74,2.88.05.06.09.16.18.13.14-.04.13-.19.18-.3.05-.18.05-.36.01-.54Z"/><path class="cls-3" d="m41.51,78.65c.06-.46.13-.91.21-1.36.16-.83.44-1.62.71-2.41.29-.83.19-1.71.18-2.57-.02-1.07.26-2.06.59-3.05.25-.74.46-1.5.7-2.24.23-.71.47-1.42.71-2.13.21-.65.42-1.3.64-1.94.27-.82.55-1.63.82-2.45.21-.62.44-1.24.64-1.87.06-.2.21-.37.18-.66-.34.41-.66.78-.97,1.16-.54.66-1.06,1.34-1.7,1.91-.61.53-1.3.73-2.08.68-.84-.06-1.67-.19-2.53-.37.34.29.21.62.11.93-.15.43-.46.74-.86.95-.65.35-1.37.41-2.07.54,0,.48.13.95.22,1.42.27,1.42.55,2.84.94,4.24.75,2.73,1.71,5.38,2.93,7.93.21.43.42.86.64,1.29Z"/><path class="cls-4" d="m46.05,42.81c-.04.18-.07.35-.11.53.03.32-.16.59-.2.91-.09.8-.17,1.61-.48,2.37-.26.65-.46.78-1.15.66-.42-.07-.58.02-.78.4-.21.41-.2.85-.23,1.29-.04.6.07,1.19.1,1.79,0,.12.02.25,0,.37-.06.48-.2.6-.68.59-.22,0-.45-.03-.67.03-.38.1-.6.35-.62.74-.02.32,0,.63.13.93.05.11.09.23.12.35.05.3-.04.4-.34.34-.29-.05-.57-.13-.86-.18-.8-.15-1.21.24-1.13,1.05,0,.03.01.07.01.1.02.14.1.32-.06.4-.18.09-.36,0-.48-.15-.2-.23-.4-.46-.55-.72-.24-.38-.53-.72-.78-1.1-.06-.1-.15-.16-.24-.23-.66-.83-1.19-1.76-1.83-2.61-.5-.67-.96-1.37-1.54-1.98.15.76.3,1.51.46,2.27.4,1.89.8,3.77,1.2,5.66.24,1.12.48,2.24.72,3.35.55-.11.66-.58.83-1,.13-.31.23-.63.37-.93.27-.56.86-.8,1.58-.65.72.15,1.43.33,2.15.45.62.1,1.24.18,1.86,0,.72-.21,1.1-.74,1.02-1.49-.07-.61-.15-1.22-.24-1.83-.06-.39.2-.58.46-.75.46-.3.94-.58,1.41-.86.27-.16.55-.32.55-.7,0-.38-.23-.6-.55-.78-.6-.34-.78-.6-.63-.95.11-.26.23-.51.37-.75.36-.62.75-1.23,1.11-1.85.71-1.22.6-2.49.21-3.77-.13-.44-.3-.87-.51-1.28Z"/><path class="cls-11" d="m81.38,44.22c1.46,1,2.83,2.12,4.25,3.17.02.02.04.05.05.08-.01.2.16.18.27.22.58.22,1.07.57,1.44,1.06.31.14.49.41.72.64.14.02.18.17.28.24.26.21.49.46.77.65.22.04.33.22.47.36,1.76,1.64,3.47,3.32,5.04,5.14.25.29.35.53.06.84-.18.19-.12.37.02.57.64.99,1.28,1.98,1.91,2.97.66,1.05,1.32,2.1,1.99,3.15.06.09.13.18.19.27.05-.3-.08-.58-.14-.85-.33-1.36-.66-2.73-1.29-3.99-.12-.25-.3-.48-.45-.71-1.16-1.78-2.1-3.67-2.77-5.69-.15-.47-.26-.95-.39-1.42-.27.22-.39.58-.68.79-.07.06-.14.11-.22.16-.4.25-.81.12-1-.31-.12-.26-.11-.55-.12-.83-.01-.41-.12-.54-.51-.64-.09-.02-.18-.03-.26-.06-.3-.09-.37-.24-.24-.54.08-.2.21-.37.27-.58.15-.51-.04-.77-.56-.74-.36.02-.72.06-1.07.14-1.03.25-1.24.11-1.45-.94-.05-.25-.09-.51-.21-.74-.22-.42-.57-.55-1.02-.37-.51.21-.6.17-.8-.34-.24-.59-.41-1.21-.58-1.83-.19-.7-.4-1.41-.59-2.11-.22-.43-.16-.85.03-1.28.24-.53.44-1.07.7-1.59.07-.23.33-.37.27-.66-.85.43-1.62,1.01-2.44,1.49-.09.09-.14.2-.19.32-.53,1.3-1.09,2.59-1.73,3.85-.02.04-.03.08-.04.13Z"/><path class="cls-3" d="m49.06,39.72c.19.71.41,1.42.57,2.14.44,2,.64,4.03.58,6.08-.01.42-.07.84-.12,1.32.36-.34.67-.66,1.01-.94,1.15-.95,2.36-1.82,3.67-2.55.46-.26.9-.56,1.35-.83,1.06-.64,2.15-1.23,3.16-1.93.15-.1.35-.11.46-.27-.63-.07-1.27-.04-1.9-.1-1.16-.12-2.3-.26-3.43-.59-1.35-.4-2.66-.9-3.92-1.54-.49-.25-.96-.52-1.44-.79Z"/><path class="cls-27" d="m33.58,48.25c.18-.2.1-.45.12-.67.16-1.82.25-3.64.44-5.46.18-1.73.38-3.47.88-5.14.36-1.2,1.01-2.25,2.19-2.87.64-.34,1.28-.26,1.92-.05.17.06.34.17.54.08-.96-1.1-2.01-2.1-3.31-2.8-.31-.17-.61-.37-.99-.39-1.05.39-1.65,1.25-2.17,2.16-.72,1.25-.82,2.64-.77,4.05.13,3.72.51,7.42,1.15,11.08Z"/><path class="cls-18" d="m85.45,39.06c-.38.68-.66,1.41-.92,2.15-.1.28.11.54.17.81.13.05.19-.06.24-.13.9-1.28,2.83-.87,3.66.02.99,1.06,1.67,2.32,2.24,3.63.83,1.89,1.42,3.86,2.08,5.82.05.16.06.37.28.41.25-.24.48-.51.61-.84-.03-.28-.07-.57-.1-.85-.39-.78-.68-1.59-.84-2.45-.24-1.27-.58-2.52-.65-3.82-.05-.88.14-1.75.21-2.62.03-.45.03-.9-.03-1.35-.14-.97-.76-1.45-1.63-1.73-.98-.31-1.91-.17-2.82.25-.79.37-1.58.78-2.5.71Z"/><path class="cls-24" d="m85.45,39.06c.49.19.95.05,1.4-.13.53-.22,1.05-.47,1.58-.68,1.03-.4,2.02-.29,2.99.22.59.31.82.83.91,1.45.08.56.08,1.13-.03,1.68-.33,1.66-.09,3.28.25,4.9.25,1.15.44,2.32.99,3.38.03.07,0,.23.18.17-.01-1.99-.05-3.98.04-5.96.06-1.23.16-2.47.19-3.7.04-1.49-.55-2.73-1.6-3.77-.21-.2-.47-.3-.77-.3-2.19,0-4.11.73-5.79,2.12-.11.21-.22.41-.34.62Z"/><path class="cls-3" d="m81.38,44.22c.2-.09.23-.3.31-.46.58-1.14,1.07-2.32,1.57-3.51.04-.1.06-.22.08-.32-1.67.79-3.35,1.58-5.02,2.39-.17.08-.33.02-.48.09.75.15,1.39.54,2.04.91.51.28.99.6,1.49.9Z"/><path class="cls-20" d="m91.46,57.67c-1.13-1.09-2.28-2.15-3.55-3.09-1.26-.93-2.57-1.8-3.96-2.55-.06-.03-.12-.05-.18-.08-.1-.05-.15.03-.21.08-.73.71-1.65,1.12-2.56,1.54-.24.11-.47.21-.57.49q0,.74.73.89c3.68.78,6.83,2.54,9.5,5.16.94.92,1.77,1.95,2.44,3.09.26.47.53.94.72,1.44,1.36,3.12,1.88,6.37,1.5,9.75-.2,1-.3,2.02-.59,3.01-.33,1.13-.72,2.23-1.24,3.28-.4.8-.87,1.55-1.38,2.28-1.11,1.58-2.4,2.97-3.98,4.09-1.81,1.16-3.76,2.03-5.81,2.69-2.92.93-5.92,1.25-8.97.99-1.64-.14-3.24-.48-4.83-.92-.83-.23-1.63-.5-2.44-.79-1.32-.55-2.55-1.27-3.7-2.12-1.67-1.24-3.13-2.69-4.46-4.28-.42-.5-.78-1.04-1.12-1.6-.97-1.66-1.62-3.44-1.92-5.35-.17-1.3-.24-2.61-.11-3.92.1-1.02.33-2.01.66-2.97.24-.81.6-1.57.94-2.33.43-.95.83-1.91,1.35-2.82.58-1.02,1.28-1.95,2.08-2.81,1.56-1.67,3.51-2.75,5.56-3.67,2.01-.89,4.09-1.58,6.23-2.08,2.34-.54,4.7-.81,7.1-.51.15.02.29.01.44.03.42.06.46,0,.41-.44-.74-1.14-1.78-1.87-3.08-2.21-.04,0-.07.02-.1.04-.51.28-.99.62-1.49.9-.65.36-1.38.57-2.12.73-1.7.36-3.37.82-5.02,1.35-1.54.49-3.05,1.08-4.52,1.77-1.55.73-3.05,1.56-4.43,2.57-2.18,1.59-4,3.51-5.14,5.99-.64,1.39-1,2.85-1.13,4.37-.27,3.33.55,6.41,2.04,9.36,1.55,3.07,3.72,5.63,6.36,7.81,1.73,1.42,3.6,2.61,5.68,3.45,1.5.61,3.06,1.01,4.67,1.24,1.47.21,2.94.35,4.42.36,2.46.01,4.86-.32,7.2-1.07,1.93-.62,3.74-1.48,5.41-2.62,2-1.37,3.66-3.07,5.02-5.07.98-1.45,1.79-2.98,2.42-4.61.69-1.78,1.18-3.62,1.44-5.5.46-3.34-.09-6.53-1.58-9.56-.99-2.03-2.31-3.82-3.86-5.46-.1-.1-.23-.19-.28-.33Z"/><path class="cls-25" d="m83.6,52.07c.06-.04.12-.08.17-.12.03-.11.05-.22.08-.33.08-.3,0-.55-.24-.75-.55-.46-1.22-.55-1.89-.63-.3-.04-.6-.01-.91-.02-.99.08-1.97.12-2.95-.06-.49-.09-1-.15-1.51-.12-.3.01-.58.07-.84.22-.32.17-.55.48-.51.76.05.36.31.53.61.65.25.1.51.16.74.31.03,0,.06,0,.08,0,.81-.23,1.61-.16,2.37.2.55.26.97.65,1.05,1.3.01.11.02.24.16.26.13.01.19-.1.25-.2.09-.17.19-.33.29-.5.43-.74,1.02-1.22,1.93-1.16.33,0,.64.09.95.19.06.02.11.01.16-.01Z"/><path class="cls-14" d="m64.83,49.77c.08-.37.1-.74-.05-1.09-.16-.37-.45-.61-.83-.68-1.55-.3-3.1-.54-4.62.16-.67.31-1.29.68-1.83,1.18-.64.59-.61,1.92.02,2.51.33.3.74.31,1.14.31,1.53,0,3.04-.22,4.5-.7.59-.19,1.09-.53,1.45-1.05.13-.19.17-.41.22-.63Z"/><path class="cls-1" d="m87.42,48.72c.13-.13-.03-.18-.08-.23-.47-.4-.91-.84-1.55-.95-.04,0-.07-.05-.1-.08-.02,0-.05,0-.07,0-.09.01-.18-.02-.26-.04-.54-.15-.94.07-1.28.47-.34.4-.33.83-.11,1.29.19.4.48.71.84.94.83.54,1.72.94,2.74.9.44-.01.64-.22.68-.63-.02-.1-.11-.1-.18-.11-.18-.03-.31-.13-.4-.28-.13-.22-.28-.43-.45-.62-.2-.22-.12-.41.24-.66Z"/><path class="cls-7" d="m88.18,50.33c-.11.52-.36.71-1,.61-1.08-.16-2.09-.53-2.85-1.36-.32-.35-.58-.79-.39-1.29.19-.5.58-.81,1.15-.86.18-.02.35.11.53.03-.53-.13-1.07-.27-1.61-.08-.49.17-.85.49-.92,1.02-.07.54-.05,1.12.47,1.42,1.37.79,2.73,1.64,4.29,2.04.49.12.89,0,1.22-.35.31-.34.27-.74.12-1.14-.01-.03-.01-.06-.01-.1-.18-.31-.49-.49-.74-.72-.06-.03-.09,0-.12.05,0,.25-.01.5-.12.73Z"/><path class="cls-16" d="m37.07,53.27c.45.74.99,1.42,1.49,2.12.14.19.37.24.58.23.27-.01.21-.26.18-.41-.04-.19-.08-.37-.05-.56.08-.54.35-.75.91-.65.37.06.73.14,1.09.23.27.07.35-.04.36-.27.01-.17-.04-.33-.11-.49-.13-.29-.19-.59-.17-.91.03-.49.29-.77.78-.77.11,0,.23-.01.34,0,.7.11.88-.12.86-.93-.02-.65-.15-1.29-.11-1.95.03-.41.02-.83.21-1.21.14-.29.32-.43.67-.35.77.17.95.07,1.26-.67.32-.79.4-1.63.5-2.46.03-.3.19-.58.1-.89-.02.09-.04.17-.06.26-1.09-1.39-2.49-2.36-4.05-3.1-.61-.29-1.35-.04-1.87.75-.35.53-.56,1.12-.72,1.73-.3,1.2-.46,2.42-.58,3.65,0,.09-.03.18-.05.27-.3,1.42-.61,2.84-.9,4.26-.13.65-.39,1.27-.48,1.93-.01.11-.04.2-.18.19Z"/><path class="cls-10" d="m93.2,51.75c-.32-.54-.44-1.15-.63-1.73-.64-1.94-1.27-3.88-2.19-5.7-.47-.93-1.02-1.82-1.78-2.56-.84-.81-1.9-.97-2.93-.62-.27.09-.47.33-.68.54-.1.1-.16.25-.29.32.4,1.34.69,2.72,1.21,4.03.19.49.35.57.78.33.48-.27.95-.06,1.1.51.11.41.13.84.33,1.23.18.33.39.45.76.39.51-.09,1.01-.21,1.53-.25.6-.04.78.19.53.74-.08.18-.2.35-.28.53-.13.27-.02.48.27.56q.73.21.79.98c.05.62.29.95.74,1.01.32.05.52-.15.74-.33Z"/><path class="cls-28" d="m88.18,50.33c.26-.19.27-.44.15-.71-.02-.1-.06-.19-.16-.24-.21-.26-.35-.61-.75-.66-.21-.03-.34.06-.42.25-.07.19-.04.36.11.48.2.17.34.38.46.6.13.24.33.35.61.28Z"/><path class="cls-6" d="m88.17,49.38c.05.08.1.16.16.24.03-.02.06-.05.09-.07-.07-.07-.1-.2-.25-.17Z"/><path class="cls-12" d="m55.36,68.74c-.8,2.29-.94,4.62-.53,7,.2.08.32-.07.45-.16.5-.32,1.04-.47,1.63-.45.19,0,.38.05.56.12,1.02.39,1.93.97,2.84,1.56,1.97,1.28,3.9,2.63,5.95,3.79,1.27.73,2.57,1.39,3.94,1.92,1.02.39,2.08.63,3.17.77,1.28.16,2.55.23,3.84.1,1.92-.19,3.72-.75,5.42-1.65,1.98-1.05,3.66-2.48,5.33-3.95,1-.88,1.99-1.76,3.12-2.46.83-.51,1.72-.89,2.73-.87.42,0,.82.14,1.23.21.25.04.41,0,.36-.3.23-1.5.18-3-.02-4.49-.24-1.84-.7-3.61-1.5-5.29-.14.02-.2.14-.27.24-1.29,1.71-3.03,2.52-5.16,2.55-1.09.01-2.16-.1-3.21-.34-1.43-.32-2.86-.62-4.31-.83-2.22-.32-4.35,0-6.32,1.15-1.05.61-2.03,1.34-3,2.07-2.48,1.88-5.26,2.7-8.36,2.41-.85-.08-1.7-.16-2.54-.33-1.42-.28-2.68-.89-3.84-1.75-.39-.29-.78-.57-1.16-.88-.1-.08-.2-.2-.35-.14Z"/><path class="cls-15" d="m93.2,63.21c-.72-1.33-1.71-2.44-2.8-3.48-1.84-1.75-3.95-3.1-6.32-4.02-.99-.38-1.99-.71-3.04-.88-.35-.06-.6-.16-.51-.58.01-.07-.02-.15-.04-.23-.07-.37-.39-.29-.61-.29-.22,0-.38.16-.37.42.03.33-.09.39-.42.34-2.86-.38-5.67-.03-8.44.71-2.66.7-5.23,1.67-7.63,3.01-2.24,1.25-4,2.99-5.28,5.22-.02.04-.03.08-.05.13.34,1.06.6,2.2,1.63,2.82,1.22.73,2.57.88,3.98.61,1.76-.34,3.26-1.25,4.78-2.13,1.44-.83,2.89-1.66,4.45-2.26,1.51-.57,3.07-.87,4.68-.9,1.27-.02,2.5.19,3.74.43,2.34.46,4.51,1.39,6.71,2.24.51.2,1.04.37,1.56.55.36.12.74.11,1.1.04.98-.19,1.85-.62,2.59-1.3.13-.12.33-.22.28-.46Z"/><path class="cls-5" d="m93.2,63.21c-.35.54-.87.88-1.42,1.16-.63.32-1.28.57-2.02.56-.46,0-.86-.18-1.26-.32-1.16-.41-2.29-.89-3.44-1.32-1.25-.47-2.5-.9-3.82-1.16-1.13-.22-2.25-.51-3.42-.5-.94,0-1.88.04-2.81.2-1.64.29-3.16.9-4.63,1.66-1.13.58-2.21,1.24-3.31,1.86-.89.5-1.79.95-2.76,1.29-1.42.51-2.81.49-4.22.06-.87-.27-1.46-.87-1.81-1.72-.2-.47-.33-.97-.61-1.41-.42.6-.68,1.29-.98,1.94-.44.96-.89,1.91-1.25,2.9-.04.1-.06.21-.09.32.72.51,1.4,1.09,2.15,1.56,1.23.77,2.56,1.26,4.02,1.42.82.09,1.64.21,2.47.23,1.48.04,2.93-.12,4.33-.62,1.3-.46,2.41-1.22,3.53-2.01,1.33-.94,2.59-1.97,4.14-2.55,1.26-.47,2.56-.64,3.9-.59.67.03,1.31.19,1.96.27,1.42.19,2.79.6,4.2.82,1.41.21,2.83.32,4.23-.07,1.53-.42,2.71-1.32,3.58-2.63-.17-.49-.42-.93-.68-1.37Z"/><path class="cls-9" d="m95.4,74.37c-.02.22-.14.27-.35.21-.7-.18-1.4-.29-2.13-.14-.66.14-1.26.42-1.82.76-1.2.73-2.24,1.67-3.3,2.6-1.11.96-2.22,1.92-3.43,2.76-1.01.7-2.07,1.29-3.2,1.77-1.27.53-2.6.85-3.97.98-.89.09-1.79.1-2.68.02-1.17-.1-2.33-.26-3.46-.62-2.45-.78-4.64-2.06-6.78-3.43-1.69-1.08-3.36-2.2-5.05-3.27-.58-.37-1.21-.7-1.87-.9-.69-.2-1.35-.04-1.98.3-.19.1-.37.22-.55.33.2,1.52.69,2.94,1.36,4.31.17.34.37.67.55,1,.1.1.22.06.31,0,.87-.45,1.7-.25,2.53.11,1.47.63,2.87,1.41,4.29,2.13,1.82.94,3.68,1.8,5.62,2.46,1.38.47,2.8.66,4.24.72,2.92.13,5.7-.52,8.4-1.57,1.88-.73,3.66-1.67,5.48-2.54.69-.33,1.39-.66,2.15-.76.99-.13,1.61.24,2.09,1.18.06.12.05.34.29.3,1.23-1.71,2.12-3.58,2.68-5.61.26-.95.38-1.91.57-2.87.01-.07,0-.15,0-.23Z"/><path class="cls-13" d="m92.15,83.08c-.2-.14-.22-.38-.32-.57-.59-1.04-1.6-1.22-2.64-.88-1.43.47-2.74,1.22-4.09,1.87-1.92.93-3.88,1.75-5.95,2.29-1.83.48-3.7.7-5.59.6-1.04-.06-2.08-.16-3.09-.44-.9-.25-1.79-.57-2.66-.92-2.51-1.01-4.85-2.35-7.27-3.54-.54-.27-1.1-.5-1.68-.68-.6-.18-1.17-.14-1.74.13-.12.06-.24.13-.38.11.62,1.1,1.44,2.06,2.3,2.97,1.4,1.47,2.9,2.82,4.65,3.87.75.45,1.5.9,2.33,1.19.69.07,1.37-.07,2.05-.12,2.97-.26,5.94-.53,8.91-.8,2.55-.23,5.09-.46,7.63-.69,1.03-.09,2.06-.18,3.09-.28.17-.02.33-.05.5-.09.8-.52,1.49-1.19,2.16-1.86.66-.66,1.22-1.4,1.77-2.15Z"/><path class="cls-21" d="m88.22,87.09c-.47-.06-.94.04-1.4.08-2.61.23-5.22.47-7.83.71-2.8.26-5.6.51-8.4.76-1.45.13-2.9.26-4.35.39-.07,0-.13.03-.19.04.62.28,1.28.48,1.93.68,1.07.33,2.17.57,3.28.78,2.79.51,5.58.49,8.36-.02,2.69-.5,5.21-1.45,7.59-2.78.35-.2.71-.39,1.03-.64Z"/><path class="cls-8" d="m79.51,54.16c.3-.47.6-.51.99-.13.35-.41.89-.49,1.33-.74.57-.33,1.17-.62,1.67-1.06.05-.05.1-.09.11-.16-.04-.01-.08-.02-.12-.03-.32-.12-.66-.19-1-.21-.93-.1-1.51.39-1.96,1.13-.13.21-.24.43-.35.65-.03.05-.07.1-.12.1-.07,0-.07-.07-.08-.12-.07-.87-.64-1.31-1.37-1.57-.63-.23-1.28-.36-1.95-.12-.07.03-.15.04-.2.11.52.23,1.06.41,1.55.71.49.3.86.71,1.21,1.15.09.11.2.21.3.32Z"/><path class="cls-8" d="m82.47,51.82c.33.07.67.14,1,.21-.31-.17-.65-.24-1-.21Z"/><path class="cls-22" d="m63.05,48.26c-.57-.1-1.14-.24-1.73-.22-.09,0-.18,0-.27.02-.27.05-.48.19-.45.49.03.29.27.39.52.36.65-.08,1.27.08,1.9.2.28.05.5.02.6-.27.08-.24-.1-.46-.41-.55-.05-.01-.11-.02-.16-.04Z"/><path class="cls-23" d="m59.82,48.97c.25.06.42-.02.49-.27.07-.27-.06-.44-.31-.5-.26-.07-.43.09-.48.31-.05.22.04.42.3.47Z"/></g></svg>