<?xml version="1.0" encoding="UTF-8"?><svg id="Layer_1" xmlns="http://www.w3.org/2000/svg" viewBox="0 0 128 128"><defs><style>.cls-1{fill:#13061c;}.cls-1,.cls-2{stroke-width:0px;}.cls-2{fill:#fff;}</style></defs><circle class="cls-1" cx="64" cy="64" r="63.5"/><g id="PORTAL"><path class="cls-2" d="m111.97,92.06c-16.23,9.47-32.09,18.74-48.1,28.08-8.28-4.82-16.58-9.66-24.96-14.53v-26.88c-7.74,4.52-15.21,8.87-22.89,13.35v-56.23c8.27-4.87,16.51-9.71,24.8-14.59,7.62,4.46,15.2,8.9,23.04,13.49-8.43,4.94-16.62,9.73-24.85,14.56v29.37c8.22,4.82,16.51,9.68,24.84,14.56,8.35-4.88,16.66-9.74,25.08-14.66,7.57,4.43,15.15,8.86,23.04,13.48Z"/><path class="cls-2" d="m111.94,35.98v29.17c-7.52,4.4-15.06,8.8-22.85,13.35v-28.97c-8.38-4.91-16.67-9.77-25.07-14.69V7.86c16.08,9.43,31.95,18.75,47.92,28.12Z"/></g></svg>