<?xml version="1.0" encoding="utf-8"?>
<!-- Generator: Adobe Illustrator 26.5.0, SVG Export Plug-In . SVG Version: 6.00 Build 0)  -->
<svg version="1.1" id="Layer_1" xmlns="http://www.w3.org/2000/svg" xmlns:xlink="http://www.w3.org/1999/xlink" x="0px" y="0px"
	 viewBox="0 0 128 128" style="enable-background:new 0 0 128 128;" xml:space="preserve">
<style type="text/css">
	.st0{fill:#6200FF;}
	.st1{fill:#333333;}
	.st2{fill:url(#SVGID_1_);}
	.st3{fill:url(#SVGID_00000026161896608276530220000002506616586538225570_);}
</style>
<g>
	<circle class="st0" cx="64" cy="64" r="63.5"/>
	<path class="st1" d="M108.9,19.1c24.8,24.8,24.8,65,0,89.8s-65,24.8-89.8,0L108.9,19.1z"/>
</g>
<g>
	
		<linearGradient id="SVGID_1_" gradientUnits="userSpaceOnUse" x1="65.5268" y1="34.2334" x2="112.7026" y2="77.8719" gradientTransform="matrix(1 0 0 -1 0 129.2756)">
		<stop  offset="0" style="stop-color:#00FFFF"/>
		<stop  offset="1" style="stop-color:#5900F7;stop-opacity:0"/>
	</linearGradient>
	<path class="st2" d="M86.5,41.8l-0.2-0.2c-0.1-0.1-0.1-0.1-0.2-0.2L73.9,53.5c0.1,0.1,0.1,0.1,0.2,0.2l0.2,0.2
		C88.1,68,90.8,82.8,86.8,86.8c-1.4,1.4-3.9,1.8-5.7,1.7c-7.7-0.1-18.2-5.7-26.8-14.2L54,74.1c-0.1-0.1-0.1-0.1-0.2-0.2L41.6,86.1
		c0.1,0.1,0.1,0.1,0.2,0.2l0.2,0.2c11.9,11.9,26.3,19.1,38.6,19.2c0.1,0,0.4,0,0.5,0c7.2,0,13.2-2.4,17.6-6.9
		c6.6-6.6,8.5-16.7,5.2-28.4C101.4,60.8,95.1,50.4,86.5,41.8z"/>
	
		<linearGradient id="SVGID_00000141418488280521249050000002389295446921218230_" gradientUnits="userSpaceOnUse" x1="7.8334" y1="48.8302" x2="66.9633" y2="97.8874" gradientTransform="matrix(1 0 0 -1 0 129.2756)">
		<stop  offset="0" style="stop-color:#5900F7;stop-opacity:0"/>
		<stop  offset="1" style="stop-color:#FFFFFF"/>
	</linearGradient>
	<path style="fill:url(#SVGID_00000141418488280521249050000002389295446921218230_);" d="M39.7,46.8c0-1.8,0.2-4.3,1.7-5.8
		c1.2-1.2,3.1-1.7,5.5-1.7c1.8,0,3.8,0.4,6,1c6.9,1.9,14.5,6.7,21.1,13.3l12.2-12.3c-8.7-8.7-18.8-14.9-28.6-17.7
		c-11.6-3.2-21.6-1.4-28.3,5.3c-4.5,4.6-6.8,10.8-6.8,18.3c0.2,12.5,7.3,27,19.1,39.1l12.3-12.6C45.3,65.2,39.8,54.6,39.7,46.8z"/>
</g>
</svg>
