<?xml version="1.0" encoding="UTF-8"?><svg id="CIRCLE_OUTLINE_BLACK" xmlns="http://www.w3.org/2000/svg" xmlns:xlink="http://www.w3.org/1999/xlink" viewBox="0 0 512 512"><defs><linearGradient id="Degradado_sin_nombre_17" x1="72.83563" y1="72.83563" x2="434.87429" y2="434.87429" gradientUnits="userSpaceOnUse"><stop offset="0" stop-color="#fccb15"/><stop offset=".20905" stop-color="#f8ad1e"/><stop offset=".77117" stop-color="#f3772f"/><stop offset="1" stop-color="#f16037"/></linearGradient></defs><circle cx="256" cy="256" r="256" fill="url(#Degradado_sin_nombre_17)"/><path d="m337.90407,138.67256c-3.29966,19.56397-16.74622,30.16947-32.29747,38.8539-9.09083,5.07672-18.69991,9.14769-28.67344,12.04654-24.59082,7.14832-47.98015,17.19549-70.99292,28.27357-8.31345,4.002-16.03875,9.04376-24.73996,15.06097-.26099-5.57399,1.66194-8.43742,3.39939-11.31903,5.28784-8.76785,13.93592-14.18106,21.1616-21.00454,23.62516-22.31042,48.77151-43.07774,66.07979-71.38627,9.95769-16.28576,4.96067-31.46883-.1016-47.27036-11.07435,29.13577-32.11385,48.11857-57.79989,64.11864-30.78932,19.17855-60.22523,40.62164-84.90646,67.65551-10.49645,11.49706-19.5938,23.98402-20.25093,40.53449,1.28817,25.45768,14.59958,43.47389,35.20937,57.01226,2.33679,1.53471,3.73868,1.51281,4.91872-1.37905,9.82533-24.07769,29.12365-38.92195,50.57327-51.64147,37.43337-17.31853,74.8826-34.66036,109.21765-57.76494,11.74267-7.90193,22.91955-16.81845,30.64764-29.07891,7.53794-11.95985,7.16417-21.92593-1.44476-32.71133Z" fill="#fff"/><path d="m402.18769,246.67335c-4.0472-21.27485-15.84394-37.10993-34.01161-48.48069-2.13918-1.3385-4.02763-3.32529-5.61873.86686-7.06443,18.61928-21.21846,31.39985-36.24867,43.41283-27.43095,13.99044-54.94671,27.81684-82.26394,42.02539-20.16611,10.48945-39.77296,21.95389-56.94422,37.07312-8.36938,7.3697-15.90825,15.45432-19.03174,26.56502-2.32467,8.27244-.89948,15.67243,6.0009,22.43486.95075-10.54025,5.57679-18.24737,12.31685-24.80194,10.97834-10.67541,24.24314-17.72493,38.40463-22.95497,11.40525-4.21265,23.40891-6.84399,34.71815-11.27103,24.18629-9.4674,48.353-19.10957,70.19131-34.39005,1.3646,6.44458-2.2007,10.38133-5.51714,13.94524-5.36613,5.76508-11.32509,10.97834-17.02398,16.43443-23.43408,22.43299-48.64195,42.95284-66.30163,71.10104-10.79658,17.20901-5.47146,32.72857-1.25741,51.4392,1.48391-3.59187,2.08699-5.01799,2.66396-6.45483,7.53514-18.79452,18.89938-34.73726,35.55611-46.47154,14.55949-10.2555,29.55242-19.8958,44.08768-30.18392,24.10146-17.05894,48.02769-34.44924,66.50203-57.90941,9.67526-12.28609,17.73611-25.48098,13.77746-42.3796Z" fill="#fff"/></svg>