<?xml version="1.0" encoding="UTF-8"?><svg id="Layer_1" xmlns="http://www.w3.org/2000/svg" viewBox="0 0 128 128"><defs><style>.cls-1{fill:#110f24;}.cls-1,.cls-2{stroke-width:0px;}.cls-2{fill:#e3d4fb;}</style></defs><circle class="cls-1" cx="64" cy="64" r="63.5"/><g id="PYTH"><path class="cls-2" d="m71.35,56.65c0,4.06-3.29,7.35-7.35,7.35v7.35c8.12,0,14.7-6.59,14.7-14.71s-6.58-14.71-14.7-14.71c-2.68,0-5.19.72-7.35,1.97-4.39,2.54-7.35,7.3-7.35,12.74v36.77l6.61,6.61.74.74v-44.13c0-4.06,3.29-7.35,7.35-7.35s7.35,3.29,7.35,7.35Z"/><path class="cls-2" d="m64,27.22c-5.35,0-10.37,1.43-14.7,3.94-2.77,1.6-5.25,3.64-7.35,6.02-4.57,5.19-7.35,12-7.35,19.46v22.06l7.35,7.35v-29.42c0-6.53,2.84-12.4,7.35-16.45,2.12-1.9,4.61-3.39,7.35-4.36,2.3-.82,4.77-1.26,7.35-1.26,12.18,0,22.05,9.88,22.05,22.06s-9.87,22.06-22.05,22.06v7.35c16.24,0,29.4-13.17,29.4-29.42s-13.16-29.42-29.4-29.42Z"/></g></svg>