<svg id="Layer_1" data-name="Layer 1" xmlns="http://www.w3.org/2000/svg" viewBox="0 0 398.2 398.2"><defs><style>.cls-2{fill:#fff}</style><linearGradient id="linear-gradient" x1="199.1" x2="199.1" y2="398.2" gradientUnits="userSpaceOnUse"><stop offset="0" stop-color="#41a4dc"/><stop offset=".1" stop-color="#3d95ce"/><stop offset=".7" stop-color="#2d5494"/><stop offset="1" stop-color="#263b7d"/></linearGradient></defs><circle cx="199.1" cy="199.1" r="199.1" fill="url(#linear-gradient)"/><path class="cls-2" d="M329.2 281.8c0 6.3-.1 13-8.1 15.5-7.6 2.4-12.3-1.2-16.8-7v-154L265.1 186l-7.5 9.6-.4.5-19.8 25.4-.4.4-1.3 1.8a476.6 476.6 0 0 1-24.1 30.9c-8.5 10.2-16.4 10.1-25-.2l-25-32-1.9-2.4-18.4-23.7-.8-1a12420 12420 0 0 0-46.7-59.2v154.2c-4.3 5.5-8.9 9.5-16.6 6.9-8.5-2.9-8-10.2-8-17V119.5c0-6.4-2.3-15 5.6-18.2 9-3.9 15.6 2.5 20.8 9.1 14.6 18.4 29.3 36.8 43.6 55.5l28.1 37.4a13 13 0 0 0 1.4 1.8l22 26.6c2.8 3.3 5.2 7.2 10.6 5.6 3.7-1.1 85-105.9 101.9-128 4.8-6.3 9.7-11 18-8.3 8.7 2.9 8 10.4 8 17 .3 37.7.3 146.9 0 163.8z"/><path class="cls-2" d="M154 212.8l-60.2 77.6V263l49.9-63.4 10.2 13.2zm.9-26c7.6-11 22.8-31.6 31.2-42 9-11.1 17-11.2 26-.1 0 0 23.8 30.8 31.3 41.4l-10.3 13c-8.2-10.5-19.9-25.7-28.6-35.9-4.9-5.7-9.5-2.2-13.2 2.3l-26.7 34.2zm89.2 26.2c16.8 22.5 43 54.7 60 77a3 3 0 0 0 .2.3V263l-49.6-63.6z" opacity=".8"/></svg>