<?xml version="1.0" encoding="utf-8"?>
<!-- Generator: Adobe Illustrator 25.2.3, SVG Export Plug-In . SVG Version: 6.00 Build 0)  -->
<svg version="1.1" id="Layer_1" xmlns="http://www.w3.org/2000/svg" xmlns:xlink="http://www.w3.org/1999/xlink" x="0px" y="0px"
	 width="128px" height="128px" viewBox="0 0 128 128" style="enable-background:new 0 0 128 128;" xml:space="preserve">
<style type="text/css">
	.st0{fill-rule:evenodd;clip-rule:evenodd;fill:#1C2951;}
	.st1{fill:#FFFFFF;}
</style>
<circle class="st0" cx="64" cy="64" r="63.5"/>
<g>
	<path class="st1" d="M39.4,21.1l24.7,29l16.6-9.8c0,0-20-26.8-25.3-24.9C50.4,17.3,39.4,21.1,39.4,21.1z"/>
	<path class="st1" d="M81.4,40.3c0,0,3.8-6.6,5.6-15.4c0,0,18.8,7.6,11.6,26.4L81.4,40.3z"/>
	<path class="st1" d="M98.6,51.3l1.6,19.8l7.2-0.9c0,0,1.9-0.6,1.6-4.1c-0.3-3.8-0.9-11.6-0.9-11.6s0.3-1.9-4.1-2.5
		C98.6,51,98.6,51.3,98.6,51.3z"/>
	<path class="st1" d="M100.1,71.2L85.7,82.8l6.6,12.9c0,0,1.6,5,6.3-0.6c4.4-5.7,6.3-6.6,5.9-10.1C104.2,81.6,103.3,73.4,100.1,71.2
		z"/>
	<path class="st1" d="M85.4,82.8L65.7,74l-17.2,34.9c0,0-1.3,2.5,3.1,2.8c4.4,0.6,11.6,2.2,15.3-1.6C70.7,106.7,85.4,82.8,85.4,82.8
		z"/>
	<path class="st1" d="M65.7,73.7l-1.9-23.3l-42.6,2.8c0,0-2.5,0.3-2.2,5c0.3,6.3,0.9,13.2,0.9,13.2s-0.3,2.8,5.3,3.1
		C31,74.9,65.1,74.9,65.7,73.7z"/>
</g>
</svg>
