<svg id="Layer_1" data-name="Layer 1" xmlns="http://www.w3.org/2000/svg" viewBox="0 0 128 128"><defs><style>.cls-1{fill:#3746f6;}.cls-2{fill:none;}.cls-3{fill:#fff;fill-rule:evenodd;}</style></defs><circle class="cls-1" cx="64" cy="64" r="63.5"/><polyline class="cls-2" points="192.15 94.76 7.74 94.76 7.74 36.76 192.15 36.76"/><path class="cls-3" d="M104.2,107a3.32,3.32,0,1,1,3.34-3.31A3.32,3.32,0,0,1,104.2,107Zm-1.68-35.86a3.34,3.34,0,1,1,3.36-3.34A3.36,3.36,0,0,1,102.52,71.18Zm0-10.05a3.35,3.35,0,1,1,3.36-3.35A3.37,3.37,0,0,1,102.52,61.13Zm-6.82-6v6.13H88.88V53.77a3.28,3.28,0,0,1,1-2.37l8-7.86a3.49,3.49,0,0,1,4-.72,3.34,3.34,0,0,1,.9,5.41Zm6.14,28a3.51,3.51,0,0,1-4-.73l-8-7.86a3.26,3.26,0,0,1-1-2.36V64.66H95.7v6.13l7,6.94A3.34,3.34,0,0,1,101.84,83.14ZM85.49,50.62V74.86l19.35,19.23a3.38,3.38,0,0,1,.73,3.92,3.43,3.43,0,0,1-5.49.92L79.68,78.65a3.38,3.38,0,0,1-1-2.4v-27a3.38,3.38,0,0,1,1-2.4L92.16,34.41a3.48,3.48,0,0,1,4-.73,3.39,3.39,0,0,1,.89,5.43Zm-7.86-6.1a3.39,3.39,0,0,1-2.41,1H48.06a3.39,3.39,0,0,1-2.41-1L33.14,32.07a3.39,3.39,0,0,1-.73-3.93,3.43,3.43,0,0,1,5.47-.92l11.56,11.5H73.79L85.26,27.3a3.45,3.45,0,0,1,4-.72,3.4,3.4,0,0,1,.9,5.43Zm-3.7-10.17a3.41,3.41,0,0,1-2.41,1H63.88V28.58h6.23l7-6.91a3.45,3.45,0,0,1,4-.72,3.4,3.4,0,0,1,.9,5.43Zm-7.24-8.83a3.35,3.35,0,1,1,3.37-3.35A3.37,3.37,0,0,1,66.69,25.52ZM52.86,35.35a3.39,3.39,0,0,1-2.41-1l-8-7.94a3.39,3.39,0,1,1,4.74-4.85l7,7h6.23v6.77H52.86Zm3.7-9.83a3.35,3.35,0,1,1,3.37-3.35A3.37,3.37,0,0,1,56.56,25.52Zm-12,23.74v27a3.34,3.34,0,0,1-1,2.4L31.09,91.1a3.45,3.45,0,0,1-4,.73,3.4,3.4,0,0,1-.9-5.43L37.77,74.89V50.65L26.23,39.23A3.4,3.4,0,1,1,31,34.38L43.57,46.89A3.22,3.22,0,0,1,44.58,49.26ZM33.36,51.4a3.28,3.28,0,0,1,1,2.37v7.52H27.53V55.16l-7-6.85a3.35,3.35,0,0,1-.73-4,3.44,3.44,0,0,1,5.47-.86Zm-12.6,3a3.35,3.35,0,1,1-3.36,3.34A3.37,3.37,0,0,1,20.76,54.41Zm0,10.06a3.35,3.35,0,1,1-3.36,3.34A3.36,3.36,0,0,1,20.76,64.47Zm6.77,6.32V64.66h6.81v7.53a3.22,3.22,0,0,1-1,2.36l-8,7.86a3.5,3.5,0,0,1-4,.73,3.34,3.34,0,0,1-.9-5.41Zm18.09,9.56a3.39,3.39,0,0,1,2.41-1H75.19a3.39,3.39,0,0,1,2.41,1l20.32,20.2a3.39,3.39,0,1,1-4.75,4.85L73.79,86.12H49.44L38,97.54a3.44,3.44,0,0,1-4,.72,3.4,3.4,0,0,1-.9-5.43Zm4.83,10.14a3.39,3.39,0,0,1,2.41-1h7.63v6.77H54.26l-7,6.91a3.44,3.44,0,0,1-4,.72,3.4,3.4,0,0,1-.9-5.43Zm6.11,9.59a3.34,3.34,0,1,1-3.36,3.34A3.37,3.37,0,0,1,56.56,100.08Zm15-10.56a3.41,3.41,0,0,1,2.41,1l8,7.94a3.39,3.39,0,0,1,.73,3.93,3.44,3.44,0,0,1-5.47.92l-7-7H63.91V89.54h7.61Zm-4.83,10.56a3.34,3.34,0,1,1-3.37,3.34A3.37,3.37,0,0,1,66.69,100.08Z"/><path class="cls-3" d="M95.7,55.16v6.13H88.88V53.77a3.28,3.28,0,0,1,1-2.37l8-7.86a3.49,3.49,0,0,1,4-.72,3.34,3.34,0,0,1,.9,5.41Zm6.14,28a3.51,3.51,0,0,1-4-.73l-8-7.86a3.26,3.26,0,0,1-1-2.36V64.66H95.7v6.13l7,6.94A3.34,3.34,0,0,1,101.84,83.14ZM77.63,44.52a3.39,3.39,0,0,1-2.41,1H48.06a3.39,3.39,0,0,1-2.41-1L33.14,32.07a3.39,3.39,0,0,1-.73-3.93,3.43,3.43,0,0,1,5.47-.92l11.56,11.5H73.79L85.26,27.3a3.45,3.45,0,0,1,4-.72,3.4,3.4,0,0,1,.9,5.43Zm-3.7-10.17a3.41,3.41,0,0,1-2.41,1H63.88V28.58h6.23l7-6.91a3.45,3.45,0,0,1,4-.72,3.4,3.4,0,0,1,.9,5.43Zm-7.24-8.83a3.35,3.35,0,1,1,3.37-3.35A3.37,3.37,0,0,1,66.69,25.52ZM52.86,35.35a3.39,3.39,0,0,1-2.41-1l-8-7.94a3.39,3.39,0,1,1,4.74-4.85l7,7h6.23v6.77H52.86Zm3.7-9.83a3.35,3.35,0,1,1,3.37-3.35A3.37,3.37,0,0,1,56.56,25.52Zm-12,23.74v27a3.34,3.34,0,0,1-1,2.4L31.09,91.1a3.45,3.45,0,0,1-4,.73,3.4,3.4,0,0,1-.9-5.43L37.77,74.89V50.65L26.23,39.23A3.4,3.4,0,1,1,31,34.38L43.57,46.89A3.22,3.22,0,0,1,44.58,49.26ZM33.36,51.4a3.28,3.28,0,0,1,1,2.37v7.52H27.53V55.16l-7-6.85a3.35,3.35,0,0,1-.73-4,3.44,3.44,0,0,1,5.47-.86Zm-12.6,3a3.35,3.35,0,1,1-3.36,3.34A3.37,3.37,0,0,1,20.76,54.41Zm0,10.06a3.35,3.35,0,1,1-3.36,3.34A3.36,3.36,0,0,1,20.76,64.47Zm6.77,6.32V64.66h6.81v7.53a3.22,3.22,0,0,1-1,2.36l-8,7.86a3.5,3.5,0,0,1-4,.73,3.34,3.34,0,0,1-.9-5.41Zm18.09,9.56a3.39,3.39,0,0,1,2.41-1H75.19a3.39,3.39,0,0,1,2.41,1l20.32,20.2a3.39,3.39,0,1,1-4.75,4.85L73.79,86.12H49.44L38,97.54a3.44,3.44,0,0,1-4,.72,3.4,3.4,0,0,1-.9-5.43Zm4.83,10.14a3.39,3.39,0,0,1,2.41-1h7.63v6.77H54.26l-7,6.91a3.44,3.44,0,0,1-4,.72,3.4,3.4,0,0,1-.9-5.43Zm6.11,9.59a3.34,3.34,0,1,1-3.36,3.34A3.37,3.37,0,0,1,56.56,100.08Zm15-10.56a3.41,3.41,0,0,1,2.41,1l8,7.94a3.39,3.39,0,0,1,.73,3.93,3.44,3.44,0,0,1-5.47.92l-7-7H63.91V89.54h7.61Zm-4.83,10.56a3.34,3.34,0,1,1-3.37,3.34A3.37,3.37,0,0,1,66.69,100.08Z"/></svg>