<?xml version="1.0" encoding="utf-8"?>
<!-- Generator: Adobe Illustrator 27.0.0, SVG Export Plug-In . SVG Version: 6.00 Build 0)  -->
<svg version="1.1" id="Layer_1" xmlns="http://www.w3.org/2000/svg" xmlns:xlink="http://www.w3.org/1999/xlink" x="0px" y="0px"
	 viewBox="0 0 128 128" style="enable-background:new 0 0 128 128;" xml:space="preserve">
<style type="text/css">
	.st0{fill:#1B2142;}
	.st1{fill:#1D2C51;}
	.st2{fill:#158ECF;}
	.st3{fill:#FFFFFF;}
	.st4{fill:#232D5F;}
	.st5{fill:#28397C;}
	.st6{fill:url(#SVGID_1_);}
	.st7{opacity:0.6;fill:url(#SVGID_00000029043251542957462290000003030158889315860621_);}
</style>
<g>
	<g>
		<path class="st0" d="M6.3,54.2c0,0,5.4,59,41.8,63.4s33.6-33.4,33.6-33.4L6.3,54.2z"/>
		<circle class="st1" cx="63.4" cy="63.8" r="47.4"/>
		<path class="st2" d="M64.8,61.2c0,0,8.1,6.2,5.5,15.2s-23.9,24-47.1,6.1S16,29.6,16,29.6S39.3,7.1,56.6,6.1s41.3,5.7,53.6,19.2
			s8.2,57.3,8.2,57.3L64.8,61.2z"/>
		<path class="st3" d="M64,0.5C28.9,0.5,0.5,28.9,0.5,64s28.4,63.5,63.5,63.5s63.5-28.4,63.5-63.5S99.1,0.5,64,0.5z M64,116.4
			c-28.9,0-52.4-23.5-52.4-52.4S35.1,11.6,64,11.6s52.4,23.5,52.4,52.4S92.9,116.4,64,116.4z"/>
		<path class="st1" d="M58.6,32c0,0,0.5,6.1-8.1,7.7l-1,0.3l4.5,3.7l10.8-10.2v-7L58.6,32z"/>
		<path class="st1" d="M34.4,51.7c0,0-0.1-3-2.2-2.2c-2,0.8-3.6,4.7-3.6,4.7s-1.8-3.2-0.2-5.4c1.6-2.2,5.6-1.6,5.6-1.6
			S36.9,48.8,34.4,51.7z"/>
		<path class="st4" d="M71.3,82.6c0,0,5.6-11.3-4.8-19.5s7.6-8.9,7.6-8.9l16.6,24.1l11.9,17.9c0,0-11.4,26.3-41.7,22.2
			s-30.7-13.9-30.7-13.9s15.4,12.4,34.1,1.8s17.8-22.4,13.9-29C78.1,77.3,75.1,81.2,71.3,82.6z"/>
		<path class="st5" d="M28.6,60.4c0,0,2.7,5.6,12.6,6.6c0,0-6.3-7,9.7-7.5s23.6,9.4,24.5,13.9c0.9,4.4-0.5,11.1-0.5,11.1
			s7.5-4.6,7.9-10c0,0,13,25.5-27.1,35.9c0,0,24.1,5.6,42-13.3l4.9-9.8l-11-32c0,0-23.9-7.5-30.9-6.7S31,55.8,28.6,60.4z"/>
		<path class="st1" d="M28.6,60.4c0,0,17-11.1,39.4-1.2c0,0-1.4-3.9-5.8-7.6l0.7-1c0,0,19.2-0.2,30.2,17.2s4.8,32.2,0,38
			c-4.8,5.9,1.8,2.2,1.8,2.2l13.6-21.1L91.6,52.5l-26.8-8.8l-17.5,4.5C47.3,48.2,28.4,55.7,28.6,60.4z"/>
		<path class="st1" d="M112,51.9c0,0-10.3-4.9-15.8-3.5S78.1,40,78.1,40l5-1.8l17.2,4.5C100.2,42.7,109.8,49.5,112,51.9z"/>
		<path class="st3" d="M113.9,78.3c-2.5-20.6-12-32.3-32.7-37.4c0,0,8.8-0.2,17.5,4.7l-1.2-2.7c0,0,7,2.7,14.4,9.1
			c0,0-12-16.8-36.6-19.4c0,0-4,3.8-11.3,6.2c0,0,3.3-3.3,4-6.9c0,0,8.9-2.8,15-12.1c0,0-2.5,0.9-3.9,1.1c0,0,6-5.6,8.4-15.7
			c0,0-5.1,12.8-18.8,21c0,0-0.6-4.8-2.4-6.2c0,0-1.5,5.6-14,10.3c0,0-7.7,1.9-7.7,7.2c0,4,4.2,4.3,4.2,4.3s-2.3,1.1-4.6-0.6
			c0,0-4.2,5.1-8.9,5.3c-4.1,0.2-1.8-5.2-1.8-5.2s-5.7,3.6-7.8,8.9c-2.1,5.4,0,12.5,0,12.5s14.2-15.2,41.4-7.5c0,0-1.9-4.5-8.9-7.8
			c0,0,15.5-2.2,28.8,8.5c13.4,10.7,16.8,29.4,12.2,40.1c-4.6,10.7-13.1,19.9-36.2,20.7l2.1,7.6l21.3-6.6
			C86.6,117.5,116.5,98.9,113.9,78.3z M33.8,52c0,0-0.4-2.9-4.5,0.8c0,0,0.9-4.7,4.1-4.7C35.5,48.1,33.8,52,33.8,52z M50.5,39.7
			c-0.3-0.7-0.7-3.4,5.1-5.3c5.8-1.9,7.3-3.7,7.3-3.7C61.1,40.9,50.5,39.7,50.5,39.7z"/>
		<path class="st1" d="M87.7,5c0,0,1.4,17.4-12.2,27.7c-5.6,4.2-12.6,7-12.6,7l3-10.1C65.9,29.6,80.9,23.6,87.7,5z"/>
		<radialGradient id="SVGID_1_" cx="28.1078" cy="34.47" r="52.5621" gradientUnits="userSpaceOnUse">
			<stop  offset="0" style="stop-color:#D6EDF7"/>
			<stop  offset="1" style="stop-color:#FFFFFF"/>
		</radialGradient>
		<path class="st6" d="M113.9,78.3c-2.5-20.6-12-32.3-32.7-37.4c0,0,8.8-0.2,17.5,4.7l-1.2-2.7c0,0,7,2.7,14.4,9.1
			c0,0-12-16.8-36.6-19.4c0,0-4,3.8-11.3,6.2c0,0,3.3-3.3,4-6.9c0,0,8.9-2.8,15-12.1c0,0-2.5,0.9-3.9,1.1c0,0,6-5.6,8.4-15.7
			c0,0-5.1,12.8-18.8,21c0,0-0.6-4.8-2.4-6.2c0,0-1.5,5.6-14,10.3c0,0-7.7,1.9-7.7,7.2c0,4,4.2,4.3,4.2,4.3s-2.3,1.1-4.6-0.6
			c0,0-4.2,5.1-8.9,5.3c-4.1,0.2-1.8-5.2-1.8-5.2s-5.7,3.6-7.8,8.9c-2.1,5.4,0,12.5,0,12.5s14.2-15.2,41.4-7.5c0,0-1.9-4.5-8.9-7.8
			c0,0,15.5-2.2,28.8,8.5c13.4,10.7,16.8,29.4,12.2,40.1c-4.6,10.7-13.1,19.9-36.2,20.7l2.1,7.6l21.3-6.6
			C86.6,117.5,116.5,98.9,113.9,78.3z M33.8,52c0,0-0.4-2.9-4.5,0.8c0,0,0.9-4.7,4.1-4.7C35.5,48.1,33.8,52,33.8,52z M50.5,39.7
			c-0.3-0.7-0.7-3.4,5.1-5.3c5.8-1.9,7.3-3.7,7.3-3.7C61.1,40.9,50.5,39.7,50.5,39.7z"/>
		<path class="st3" d="M111.8,85.5c-8.2,18.2-26.5,31-47.8,31c-20.6,0-38.4-11.9-47-29.1c-3,2.4-5.9,4.8-8.6,7.5
			c10.8,19.5,31.6,32.7,55.5,32.7c25.1,0,46.8-14.5,57.1-35.7C118.1,89.5,115.1,87.3,111.8,85.5z"/>
		
			<linearGradient id="SVGID_00000076600329659396864370000015550377561251097008_" gradientUnits="userSpaceOnUse" x1="8.6894" y1="12.8206" x2="53.325" y2="54.3685">
			<stop  offset="0" style="stop-color:#FFFFFF"/>
			<stop  offset="1" style="stop-color:#FFFFFF;stop-opacity:0"/>
		</linearGradient>
		
			<circle style="opacity:0.6;fill:url(#SVGID_00000076600329659396864370000015550377561251097008_);" cx="63.4" cy="63.8" r="47.4"/>
	</g>
</g>
</svg>
