<svg width="280" height="280" viewBox="0 0 280 280" fill="none" xmlns="http://www.w3.org/2000/svg">
<g clip-path="url(#clip0_580_445)">
<path d="M280 140.029C280 217.333 217.333 280 140.029 280C62.7256 280 0.0585938 217.333 0.0585938 140.029C0.0585938 62.7257 62.7256 0.0587158 140.029 0.0587158C217.333 0.0587158 280 62.7257 280 140.029Z" fill="#5555FF"/>
<path d="M140.732 199.784C138.618 176.78 141.97 145.777 155.53 130.756C169.811 133.922 198.373 124.151 208.759 104.333C218.177 86.3621 216.47 59.9897 221.741 52.8091C159.64 52.8086 149.337 117.001 131.554 165.074C118.405 129.529 77.1405 105.578 41.2832 120.187C55.8611 130.264 64.9509 155.113 84.7031 157.337C90.9175 158.037 102.203 157.337 109.637 143.289C127.226 157.577 124.663 174.904 122.376 199.784C121.453 209.826 117.979 219.376 118.489 227.342C119.222 241.412 143.886 241.412 144.618 227.342C145.129 219.376 141.655 209.826 140.732 199.784Z" fill="#53DB53"/>
</g>
<defs>
<clipPath id="clip0_580_445">
<rect width="279.941" height="279.941" fill="white" transform="translate(0.0585938 0.0587158)"/>
</clipPath>
</defs>
</svg>
