<?xml version="1.0" encoding="UTF-8"?><svg id="Layer_1" xmlns="http://www.w3.org/2000/svg" viewBox="0 0 128 128"><defs><style>.cls-1{fill:#d0fd71;}.cls-1,.cls-2{stroke-width:0px;}.cls-2{fill:#050719;}</style></defs><circle class="cls-2" cx="64" cy="64" r="63.5"/><g id="REZ"><path class="cls-1" d="m104.85,67.8v.24c-1.76,19.54-17.3,34.84-36.28,36.76h-.4l36.68-37Z"/><path class="cls-1" d="m82.02,27.36c-1.04-.48-2.08-.96-3.12-1.36-2.08-.8-4.25-1.44-6.49-1.92-2.72-.56-5.45-.88-8.33-.88-1.36,0-2.72.08-4.08.16-9.45.96-17.86,5.05-24.35,11.29-.4.4-.88.88-1.28,1.28-6.17,6.49-10.17,15.06-11.05,24.43-.08,1.2-.16,2.4-.16,3.68,0,3.04.32,6.01.96,8.89.48,2.16,1.12,4.25,1.92,6.33.48,1.12.96,2.24,1.44,3.28.96,1.84,2,3.6,3.2,5.29l6.73-6.81,43.25-43.73,6.73-6.81c-1.6-1.12-3.44-2.16-5.37-3.12Zm-48.54,44.45c-.08-.24-.16-.56-.16-.8-.48-2.24-.72-4.57-.72-6.89,0-8.09,3.04-15.7,8.57-21.55l1.12-1.12c5.93-5.69,13.62-8.81,21.87-8.81,2.16,0,4.33.24,6.41.64.32.08.64.16.96.24l-38.04,38.28Z"/><path class="cls-1" d="m49.98,102.56c-1.04-.4-2-.8-2.96-1.2-2-.96-3.93-2-5.77-3.28l56.55-57.11c1.2,1.76,2.32,3.6,3.2,5.61.48,1.04.96,2.08,1.36,3.12l-52.38,52.86Z"/></g></svg>