<?xml version="1.0" encoding="UTF-8"?><svg id="CIRCLE_OUTLINE_BLACK" xmlns="http://www.w3.org/2000/svg" viewBox="0 0 512 512"><circle cx="256" cy="256" r="256" fill="#4b5cf0" stroke-width="0"/><circle cx="158.78465" cy="356.42437" r="35.70269" transform="translate(-231.27278 366.7246) rotate(-67.50001)" fill="#fff" stroke-width="0"/><path d="M122.47722,118.15893v60.35407h141.46727v53.89957c-3.18289,16.38797-20.11818,16.65604-20.11818,16.65604,0,0,.04122.09114.11272.24769h-35.15148c-8.33271,0-15.15037,6.81746-15.15037,15.15058v41.10423c0,8.33258,6.81767,15.15058,15.15037,15.15058h41.63654c8.33271,0,15.15037-6.818,15.15037-15.15058v-26.48549c.21526-1.3607.25252-3.2999.0701-5.93231-.04215-.60851-.05355-1.18164-.0701-1.76066v-2.23246c.43976-15.0219,9.97944-19.13887,17.15317-20.09158h51.77206v141.96045h60.35441V118.15893H122.47722Z" fill="#fff" stroke-width="0"/></svg>