<?xml version="1.0" encoding="UTF-8"?><svg id="Layer_1" xmlns="http://www.w3.org/2000/svg" xmlns:xlink="http://www.w3.org/1999/xlink" viewBox="0 0 128 128"><defs><style>.cls-1{fill:url(#linear-gradient);}.cls-1,.cls-2,.cls-3{stroke-width:0px;}.cls-2{fill:#1373ea;fill-rule:evenodd;}.cls-3{fill:#e9edf0;}</style><linearGradient id="linear-gradient" x1="64" y1="-4592.16" x2="64" y2="-4655.31" gradientTransform="translate(0 -4560.79) scale(1 -1)" gradientUnits="userSpaceOnUse"><stop offset="0" stop-color="#fff"/><stop offset=".46" stop-color="#fff"/><stop offset="1" stop-color="#fff"/></linearGradient></defs><circle class="cls-3" cx="64" cy="64" r="63.5"/><g id="RON"><path class="cls-2" d="m26.11,23.12v65.45c0,1.22.28,2.43.81,3.53.53,1.1,1.31,2.07,2.26,2.83l30.98,24.77c1.09.87,2.44,1.34,3.84,1.34s2.75-.47,3.84-1.34l30.98-24.77c.96-.76,1.73-1.73,2.26-2.83.53-1.1.81-2.31.81-3.53V23.12c0-2.16-.86-4.24-2.4-5.77-1.54-1.53-3.62-2.39-5.79-2.39h-59.39c-2.17,0-4.26.86-5.79,2.39-1.54,1.53-2.4,3.61-2.4,5.77Z"/><path class="cls-1" d="m86.09,52.77v-14.26c0-1.89-.75-3.71-2.07-5.04-1.33-1.34-3.12-2.09-5-2.09h-30.05c-1.88,0-3.67.75-5,2.09-1.33,1.34-2.07,3.15-2.07,5.04v41.39c0,1.07.24,2.12.7,3.09.46.96,1.13,1.81,1.95,2.48l10.94,8.86c.13.11.29.17.45.19.17.02.33,0,.49-.08.15-.07.28-.19.37-.33.09-.14.14-.31.14-.48v-29.27c0-.24.09-.46.26-.63.17-.17.39-.26.62-.26h7.95c1.41,0,2.76.56,3.75,1.57.99,1,1.55,2.36,1.55,3.78v24.81c0,.17.05.33.14.47.09.14.22.26.37.33.15.07.32.1.48.08.17-.02.32-.08.45-.19l10.94-8.86c.83-.67,1.49-1.51,1.95-2.48.46-.96.7-2.02.7-3.09v-12.86c0-1.89-.74-3.71-2.07-5.04-1.33-1.34-3.12-2.09-5-2.09,1.87,0,3.67-.76,4.99-2.09,1.32-1.34,2.07-3.15,2.07-5.04Zm-20.33,3.57h-7.95c-.23,0-.46-.09-.62-.26-.17-.17-.26-.39-.26-.63v-16.05c0-.24.09-.46.26-.63.17-.17.39-.26.62-.26h12.37c.23,0,.46.09.62.26.17.17.26.39.26.63v11.59c0,1.42-.56,2.78-1.55,3.78-.99,1-2.34,1.57-3.75,1.57Z"/></g></svg>