<?xml version="1.0" encoding="utf-8"?>
<!-- Generator: Adobe Illustrator 25.2.1, SVG Export Plug-In . SVG Version: 6.00 Build 0)  -->
<svg version="1.1" id="Layer_1" xmlns="http://www.w3.org/2000/svg" xmlns:xlink="http://www.w3.org/1999/xlink" x="0px" y="0px"
	 width="128px" height="128px" viewBox="0 0 128 128" style="enable-background:new 0 0 128 128;" xml:space="preserve">
<style type="text/css">
	.st0{fill-rule:evenodd;clip-rule:evenodd;fill:#3B8BED;}
	.st1{fill-rule:evenodd;clip-rule:evenodd;fill:#FFFFFF;}
</style>
<circle class="st0" cx="64" cy="64" r="63.5"/>
<path class="st1" d="M98.8,37.6c-6.6-8.5-16.3-13.8-27.1-13.8c-20.8,0-36,19.3-36,40.2c0,14.6,9.7,25.5,20.4,25.5c1,0,2-0.1,3-0.3
	C52,84,47.4,74.4,47.4,64c0-16.5,11.2-29.4,24.4-29.4c14.4,0,24.4,14.3,24.4,29.4c0,11.2-4,22.3-11,30.5c-6.1,7.2-14,11.7-22.8,13.1
	c0,0,0.7,0.1,1.7,0.1c24.1,0,43.7-19.6,43.7-43.7C107.7,54.1,104.4,44.9,98.8,37.6z M92.2,64c0-14.6-9.7-25.5-20.4-25.5
	c-1,0-2,0.1-3,0.3C76,44,80.6,53.6,80.6,64c0,16.5-11.2,29.4-24.4,29.4c-14.4,0-24.4-14.3-24.4-29.4c0-11.2,4-22.3,11-30.5
	C49,26.3,57,21.8,65.7,20.4c0,0-0.7-0.1-1.7-0.1c-24.1,0-43.7,19.6-43.7,43.7c0,9.9,3.3,19.1,8.9,26.4c6.6,8.5,16.3,13.8,27.1,13.8
	C77,104.2,92.2,84.9,92.2,64z"/>
</svg>
