<?xml version="1.0" encoding="utf-8"?>
<!-- Generator: Adobe Illustrator 27.1.1, SVG Export Plug-In . SVG Version: 6.00 Build 0)  -->
<svg version="1.1" id="Layer_1" xmlns="http://www.w3.org/2000/svg" xmlns:xlink="http://www.w3.org/1999/xlink" x="0px" y="0px"
	 viewBox="0 0 128 128" style="enable-background:new 0 0 128 128;" xml:space="preserve">
<style type="text/css">
	.st0{fill:#FFD485;}
	.st1{fill:#FF7A21;}
	.st2{opacity:0.2;}
	.st3{fill:#FFFFFF;}
</style>
<g>
	<circle class="st0" cx="64" cy="64" r="63.5"/>
	<circle class="st1" cx="64" cy="64" r="58.4"/>
	<path class="st2" d="M90.9,38.4c0,0-15.1-2.6-34.4,18.4l-8.6,2.1l-6.3,7.6l8.6,2.7c0,0-0.1,3.5,1.4,5l-3,3.7l2.9,2.6l3.1-3
		c0,0,3.6,1,5.6,0.2l3.3,8.9l7.4-6.5l1.8-8.6C72.6,71.5,93.2,56.3,90.9,38.4z M70.8,63.4c-2.9,0-5.2-2.3-5.2-5.2s2.3-5.2,5.2-5.2
		c2.9,0,5.2,2.3,5.2,5.2S73.7,63.4,70.8,63.4z"/>
	<path class="st2" d="M19.9,102.3l20-18.5l-1.7-1.8l-19.8,18.4C18.8,101,19.4,101.6,19.9,102.3z"/>
	<path class="st2" d="M21.6,104.2c0.6,0.6,1.1,1.2,1.7,1.8l24.9-23.2L46.6,81L21.6,104.2z"/>
	<path class="st2" d="M24.9,107.5c0.6,0.6,1.2,1.1,1.9,1.7l20.3-18.8l-1.7-1.8L24.9,107.5z"/>
	<path class="st3" d="M90.3,37.8c0,0-15.1-2.6-34.4,18.4l-8.6,2.1L41,66l8.6,2.7c0,0-0.1,3.5,1.4,5l-3,3.7l2.9,2.6l3.1-3
		c0,0,3.6,1,5.6,0.2l3.3,8.9l7.4-6.5L72,71C72,71,92.7,55.7,90.3,37.8z M70.2,62.9c-2.9,0-5.2-2.3-5.2-5.2c0-2.9,2.3-5.2,5.2-5.2
		s5.2,2.3,5.2,5.2C75.4,60.5,73.1,62.9,70.2,62.9z"/>
	<path class="st3" d="M19.3,101.7l20-18.5l-1.7-1.8L17.8,99.7C18.3,100.4,18.8,101.1,19.3,101.7z"/>
	<path class="st3" d="M21,103.6c0.6,0.6,1.1,1.2,1.7,1.8l24.9-23.2L46,80.4L21,103.6z"/>
	<path class="st3" d="M24.3,106.9c0.6,0.6,1.2,1.1,1.9,1.7l20.3-18.8l-1.7-1.8L24.3,106.9z"/>
</g>
</svg>
