<?xml version="1.0" encoding="UTF-8"?>
<svg id="Layer_1" xmlns="http://www.w3.org/2000/svg" version="1.1" viewBox="0 0 500 500">
  <!-- Generator: Adobe Illustrator 29.0.1, SVG Export Plug-In . SVG Version: 2.1.0 Build 192)  -->
  <defs>
    <style>
      .st0 {
        fill: #fff;
      }

      .st1 {
        fill: #0151af;
      }

      .st2 {
        display: none;
        fill: #c2b59b;
      }
    </style>
  </defs>
  <circle class="st2" cx="250" cy="250" r="248.5"/>
  <circle class="st1" cx="250" cy="250" r="249"/>
  <path class="st0" d="M364.8,221.4v-35.1c0-1.5-1.2-2.8-2.8-2.8h-43.4c-1.5,0-2.8-1.2-2.8-2.8v-52.3c0-1.5-1.2-2.8-2.8-2.8h-35.1c-1.5,0-2.8,1.2-2.8,2.8v52.5c0,1.5-1.2,2.8-2.8,2.8h-45c-1.5,0-2.8-1.2-2.8-2.8v-52.5c0-1.5-1.2-2.8-2.8-2.8h-35.1c-1.5,0-2.8,1.2-2.8,2.8v52.5c0,1.5-1.2,2.8-2.8,2.8h-43.4c-1.5,0-2.8,1.2-2.8,2.8v35.1c0,1.5,1.2,2.8,2.8,2.8h43.4c1.5,0,2.8,1.2,2.8,2.8v54.5c0,1.5-1.2,2.8-2.8,2.8h-43.4c-1.5,0-2.8,1.2-2.8,2.8v35.1c0,1.5,1.2,2.8,2.8,2.8h43.4c1.5,0,2.8,1.2,2.8,2.8v52.5c0,1.5,1.2,2.8,2.8,2.8h35.1c1.5,0,2.8-1.2,2.8-2.8v-52.5c0-1.5,1.2-2.8,2.8-2.8h45c1.5,0,2.8,1.2,2.8,2.8v52.5c0,1.5,1.2,2.8,2.8,2.8h35.1c1.5,0,2.8-1.2,2.8-2.8v-52.5c0-1.5,1.2-2.8,2.8-2.8h43.4c1.5,0,2.8-1.2,2.8-2.8v-35.1c0-1.5-1.2-2.8-2.8-2.8h-43.4c-1.5,0-2.8-1.2-2.8-2.8v-54.5c0-1.5,1.2-2.8,2.8-2.8h43.4c1.6-.2,2.8-1.4,2.8-3ZM272.6,284.3h-45c-1.5,0-2.8-1.2-2.8-2.8v-54.5c0-1.5,1.2-2.8,2.8-2.8h45c1.5,0,2.8,1.2,2.8,2.8v54.5c0,1.5-1.3,2.8-2.8,2.8Z"/>
</svg>