<?xml version="1.0" encoding="UTF-8"?><svg xmlns="http://www.w3.org/2000/svg" viewBox="0 0 512 512"><g id="BG_WHITE"><circle cx="258.78261" cy="273.57921" r="220.27922" fill="#fff"/></g><g id="CIRCLE_OUTLINE_BLACK"><path d="m255.01758.98242C113.63281.98242-.98242,115.59766-.98242,256.98242s114.61523,256,256,256,256-114.61523,256-256S396.40259.98242,255.01758.98242Zm-41.53174,156.54736l71.16943-47.93213,32.82349,14.27539-103.99292,33.65674Zm104.51392-31.05176l11.25366,47.93262-113.89185-15.63037,102.63818-32.30225Zm-13.54614-10.83691l5.73096-17.08887,5.73096,22.61133-11.46191-5.52246Zm-2.18823-1.45898l-26.57129-31.26025,32.82324,14.27539-6.25195,16.98486Zm-5.93945-34.69873l13.12915,14.37988-37.09546-14.37988h23.96631Zm-25.42505,1.35449l28.55103,32.71924-50.8501-22.40332,22.29907-10.31592Zm-24.59155,12.0874l32.61499,14.37988-46.68213,1.146,14.06714-15.52588Zm-14.79663,18.13086l44.1814-1.4585-50.64185,19.90234,6.46045-18.44385Zm-6.5647,20.52783l56.2688-21.98633-69.81494,46.99463,13.54614-25.0083Zm-75.8584,300.93262l58.87378-270.92285,33.86523,204.33838-92.73901,66.58447Zm94.61475-67.20947l-33.55298-202.67139,90.02979,203.40039-56.47681-.729Zm-32.30249-204.54688l118.9978,16.67236-27.71753,187.56152-91.28027-204.23389Zm94.09375,200.06592l26.88379-180.26758,16.35962,20.00635-43.24341,160.26123Zm13.65039-238.62061l-7.39844-26.67529,51.16284,15.10938-43.7644,11.56592Z" fill="#384182"/></g></svg>