<?xml version="1.0" encoding="UTF-8"?>
<svg id="Layer_1" xmlns="http://www.w3.org/2000/svg" version="1.1" viewBox="0 0 500 500">
  <!-- Generator: Adobe Illustrator 29.0.1, SVG Export Plug-In . SVG Version: 2.1.0 Build 192)  -->
  <defs>
    <style>
      .st0 {
        fill: #31ff84;
      }
    </style>
  </defs>
  <circle class="st0" cx="250" cy="250" r="248.5"/>
  <g>
    <path d="M414.4,250h-40.4c-12.1,0-21.8,9.8-21.8,21.8v58.6c0,12.1-9.8,21.8-21.8,21.8h-160.7c-12.1,0-21.8,9.8-21.8,21.8v40.4c0,12.1,9.8,21.8,21.8,21.8h169.9c12.1,0,21.7-9.8,21.7-21.8v-32.4c0-12.1,9.8-20.6,21.8-20.6h31.3c12.1,0,21.8-9.8,21.8-21.8v-68.1c0-12.2-9.8-21.7-21.8-21.7h0Z"/>
    <path d="M147.9,169.7c0-12.1,9.8-21.8,21.8-21.8h160.5c12.1,0,21.8-9.8,21.8-21.8v-40.4c0-12.1-9.8-21.8-21.8-21.8h-169.9c-12.1,0-21.8,9.8-21.8,21.8v31.1c0,12.1-9.8,21.8-21.8,21.8h-31c-12.1,0-21.8,9.8-21.8,21.8v68.1c0,12.1,9.8,21.3,21.9,21.3h40.4c12.1,0,21.8-9.8,21.8-21.8v-58.4h0Z"/>
    <path d="M231,207.6h38.8c12.7,0,22.9,10.3,22.9,22.9v38.8c0,12.7-10.3,22.9-22.9,22.9h-38.8c-12.7,0-22.9-10.3-22.9-22.9v-38.8c0-12.7,10.3-22.9,22.9-22.9Z"/>
  </g>
</svg>