<?xml version="1.0" encoding="utf-8"?>
<!-- Generator: Adobe Illustrator 27.0.0, SVG Export Plug-In . SVG Version: 6.00 Build 0)  -->
<svg version="1.1" id="Layer_1" xmlns="http://www.w3.org/2000/svg" xmlns:xlink="http://www.w3.org/1999/xlink" x="0px" y="0px"
	 viewBox="0 0 128 128" style="enable-background:new 0 0 128 128;" xml:space="preserve">
<style type="text/css">
	.st0{fill:#F2F2F2;}
	.st1{fill:#030303;}
	.st2{fill:#E0B112;}
	.st3{fill:#F7F7F7;}
	.st4{fill:#FDFDFD;}
</style>
<circle class="st0" cx="64" cy="64" r="63.5"/>
<g id="GhstwR.tif">
	<g>
		<path class="st1" d="M29.1,42.7c3.8-4.1,7.5-8.1,11.1-11.9C56,38,71.8,38,87.8,30.7c3.6,3.8,7.3,7.8,11.1,12
			c-3.5,2.7-5.2,6.1-4.8,10.4c0.2,2.2,0.9,4.2,1.7,6.2c1.1,2.7,2.7,5.1,4.2,7.6c3.7,5.9,4.8,12.2,2.9,18.9
			c-2.5,8.9-8.5,13.7-17.5,15.2c-2.8,0.4-5.6,0.6-8.3,1.1c-4.9,0.9-7.9,2.5-13.2,6.6c-1.8-1.5-3.6-2.9-5.7-4
			c-4.2-2.2-8.7-3.1-13.4-3.4c-4.8-0.4-9.3-1.6-13-4.7c-5.5-4.5-7.7-10.5-7.7-17.4c0-4.9,1.8-9.2,4.4-13.3c2.4-3.7,4.5-7.6,5.2-12.1
			c0.6-4.2-0.7-7.6-3.9-10.4C29.6,43.2,29.4,43,29.1,42.7z M40.6,32.4c-3.1,3.4-6.2,6.7-9.4,10.1c0.2,0.3,0.4,0.5,0.7,0.7
			c2.7,2.6,3.7,5.9,3.4,9.6c-0.3,4.3-2.1,8-4.2,11.7c-0.7,1.3-1.6,2.5-2.3,3.8c0.1,0.1,0.1,0.1,0.2,0.2
			c16.8-10.9,33.6-21.8,50.5-32.7C66.1,38.6,53.2,38.4,40.6,32.4z M82.6,54.5c0,15.2,0,30.3,0,45.4c2.5-0.3,5-0.6,7.1-1.6
			c0-16.2,0-32.3,0-48.4C87.2,51.5,84.9,53,82.6,54.5z M67.8,64.1c0,13.4,0,26.6,0,40c2.4-1.3,4.7-2.3,7.1-3c0-13.9,0-27.7,0-41.6
			C72.4,61.1,70.1,62.6,67.8,64.1z M60.2,69c-2.5,1.6-4.9,3.2-7.2,4.7c0,9.3,0,18.4,0,27.5c2.6,0.7,4.8,1.8,7.2,3
			C60.2,92.3,60.2,80.8,60.2,69z M45.5,100c0-7.2,0-14.2,0-21.4c-2.6,1.7-5,3.2-7.3,4.7c0,5.1,0,10,0,15
			C40.5,99.3,42.9,99.7,45.5,100z M72.8,57.7c0.2-0.1,0.4-0.1,0.6-0.2c2.9-1.8,5.9-3.6,8.8-5.5c0.8-0.5,1.3-1.5,1.4-2.5
			c0.1-1.6,0-3.2,0-5.1c-1.5,0.9-2.9,1.7-4.2,2.6c0,1.1,0,2.1,0,3.2c-1,0.4-1.6,1.5-3,1.5c0-2.3,0-4.6,0-7c1-0.7,2.1-1.5,3-2.2
			c0.6-0.1,0.5,0.6,1,0.5c1-0.7,2.1-1.4,3.2-2.1c-0.1-1.3,0.2-2.5-0.2-3.6c-0.7-0.3-1.1,0-1.5,0.3c-2.9,1.9-5.8,3.8-8.7,5.7
			c-1,0.7-1.5,1.6-1.5,2.8c0,3.2,0,6.3,0,9.5C71.8,56.4,71.9,57.2,72.8,57.7z M36.2,69.8c0.9-0.8,1.9-1.5,3-2
			c0.7,0.2,0.3,0.9,0.8,1.1c1.2-0.8,2.4-1.5,3.7-2.3c-0.1-1.1,0.4-2.3-0.4-3.2c-0.8-0.3-1.3,0-1.9,0.4c-1.8,1.1-3.6,2.3-5.5,3.4
			c-5,3.1-3.9,1.6-4,7.3c0,0.7-0.2,1.6,0.8,2.1c2.4-0.6,4.1-2.9,6.8-3.6c0,1.3,0,2.4,0,3.5c-1.1,0.6-2.1,1.6-3.4,2.1
			c-0.1-0.8-0.1-1.5-0.2-2.4c-1.5,0.9-2.7,1.7-4.1,2.6c0.3,1.5-0.3,3,0.4,4.4c0.9,0.3,1.5-0.2,2-0.5c1.8-1.1,3.5-2.3,5.3-3.4
			c4.8-3.1,4.2-1.7,4.2-7.9c0-1.6-1-2.4-2.5-1.7c-1.2,0.5-2.3,1.3-3.4,2c-0.5,0.3-0.9,0.8-1.5,0.5C36,71.3,36.1,70.6,36.2,69.8z
			 M52.2,68.6c0,0.7,0,1.5,0,2.5c2.9-1.8,5.5-3.5,8.1-5.1c0-0.9,0-1.6,0-2.4c-0.8,0.1-1.2,1-2,0.8c0-1,0-2.1,0-3.1
			c0.6-0.5,1.2-0.9,1.9-1.2c0.4,0.4-0.1,0.9,0.5,1.4c0.6-0.4,1.3-0.9,1.9-1.3c0-1.8,0-3.6,0-5.4c-1.1,0.6-2.2,1-2.1,2.3
			c-0.8,0.4-1.5,0.8-2.3,1.3c0-1.1,0-2,0-3c1.3-0.4,2.1-2.1,3.9-1.6c0.8-0.5,1.7-1.1,2.4-1.6c0-1.3,0-2.3,0-3.5
			c-4.2,2.8-8.3,5.4-12.3,8c0,0.9,0,1.7,0,2.5c0.7,0,1-0.7,1.7-0.5c0,2.9,0,5.8,0,8.7C53.4,67.8,52.9,68.1,52.2,68.6z M97.3,65.5
			c0,9.4,0,18.5,0,27.8C102.8,87.8,105.3,75.4,97.3,65.5z M46,75.1c1.4-0.9,2.5-1.6,3.5-2.3c0-1.1,0-2.1,0-3.3
			c-1.3,0.8-2.4,1.5-3.5,2.2C46,72.8,46,73.8,46,75.1z M86.2,49.5c1.3-0.8,2.4-1.6,3.5-2.3c0-1.1,0-2.1,0-3.4
			c-1.3,0.8-2.4,1.5-3.5,2.2C86.2,47.1,86.2,48.2,86.2,49.5z M65.8,58.9c0,1.2,0,2.3,0,3.5c1.2-0.8,2.3-1.5,3.4-2.3
			c0-1.1,0.2-2.1-0.2-3.3C67.9,57.6,66.8,58.3,65.8,58.9z M30.6,93.4c0-1.8,0-3.5,0-5.3c-0.9,0.6-1.7,1.1-2.5,1.6
			C28.8,91.1,29.6,92.3,30.6,93.4z M79.9,35.5L79.9,35.5L79.9,35.5L79.9,35.5z"/>
		<path class="st2" d="M86,24.2c0.3,0.9,0.5,1.8,0.8,2.7c-1-0.2-1.6-1.1-2.5-1.4c-0.7,0.5-1.5,1-2.5,1.7c0.3-1.1,0.5-2,0.8-2.8
			c-0.5-0.9-1.5-1.1-2.1-1.9c1-0.1,1.9-0.2,2.8-0.3c0.3-0.8,0.6-1.6,1-2.8c0.4,1.1,0.8,1.9,1.1,2.9c0.9,0,1.8,0,3,0
			C87.4,23.1,86.8,23.6,86,24.2z"/>
		<path class="st2" d="M46.3,27.2c-1-0.7-1.8-1.2-2.6-1.8c-0.8,0.5-1.5,1-2.3,1.6c-0.2-1,0.5-1.8,0.5-2.7c-0.5-0.8-1.5-0.9-2.1-1.8
			c1-0.1,1.9-0.2,2.8-0.3c0.3-0.9,0.6-1.7,1-2.8c0.4,1.1,0.7,1.9,1.1,2.8c0.9,0.1,1.8,0.1,3.1,0.2c-1,0.7-1.6,1.3-2.4,1.9
			C45.6,25.1,45.9,26,46.3,27.2z"/>
		<path class="st3" d="M40.6,32.4c12.6,6,25.6,6.2,38.8,3.4C62.6,46.7,45.8,57.6,29,68.5c-0.1-0.1-0.1-0.1-0.2-0.2
			c0.8-1.3,1.6-2.5,2.3-3.8c2.1-3.6,3.9-7.4,4.2-11.7c0.3-3.7-0.7-6.9-3.4-9.6c-0.2-0.2-0.4-0.5-0.7-0.7
			C34.4,39.1,37.5,35.8,40.6,32.4z M45.8,36.8c-4.8,0-8.6,3.8-8.6,8.6c0,4.8,3.9,8.6,8.7,8.6c4.8,0,8.6-3.8,8.6-8.7
			C54.4,40.6,50.7,36.8,45.8,36.8z"/>
		<path class="st4" d="M82.6,54.5c2.4-1.5,4.7-3,7.1-4.6c0,16.2,0,32.2,0,48.4c-2.2,0.9-4.6,1.3-7.1,1.6
			C82.6,84.8,82.6,69.7,82.6,54.5z"/>
		<path class="st4" d="M67.8,64.1c2.3-1.5,4.6-3,7.1-4.6c0,13.9,0,27.7,0,41.6c-2.4,0.7-4.8,1.7-7.1,3
			C67.8,90.7,67.8,77.4,67.8,64.1z"/>
		<path class="st4" d="M60.2,69c0,11.8,0,23.3,0,35.1c-2.4-1.2-4.7-2.3-7.2-3c0-9.1,0-18.2,0-27.5C55.3,72.2,57.7,70.6,60.2,69z"/>
		<path class="st3" d="M45.5,100c-2.6-0.3-5-0.6-7.3-1.6c0-5,0-9.9,0-15c2.3-1.5,4.8-3.1,7.3-4.7C45.5,85.7,45.5,92.8,45.5,100z"/>
		<path class="st3" d="M72.8,57.7c-0.9-0.5-1-1.3-1-2.1c0-3.2,0-6.3,0-9.5c0-1.2,0.4-2.2,1.5-2.8c2.9-1.9,5.8-3.8,8.7-5.7
			c0.4-0.3,0.9-0.6,1.5-0.3c0.4,1.1,0.1,2.3,0.2,3.6c-1.1,0.7-2.2,1.5-3.2,2.1c-0.5,0-0.4-0.7-1-0.5c-0.9,0.7-2,1.5-3,2.2
			c0,2.4,0,4.6,0,7c1.4,0,2-1.1,3-1.5c0-1.1,0-2.1,0-3.2c1.4-0.8,2.7-1.6,4.2-2.6c0,1.8,0.1,3.5,0,5.1c-0.1,1-0.6,1.9-1.4,2.5
			c-2.9,1.9-5.9,3.7-8.8,5.5C73.2,57.6,73,57.7,72.8,57.7z"/>
		<path class="st3" d="M36.2,69.8c-0.1,0.8-0.2,1.6,0,2.3c0.7,0.3,1.1-0.2,1.5-0.5c1.2-0.6,2.2-1.4,3.4-2c1.5-0.7,2.5,0.1,2.5,1.7
			c0,6.2,0.5,4.8-4.2,7.9c-1.7,1.2-3.5,2.3-5.3,3.4c-0.5,0.4-1.1,0.8-2,0.5c-0.7-1.3-0.1-2.9-0.4-4.4c1.4-0.9,2.7-1.7,4.1-2.6
			c0.1,0.9,0.1,1.6,0.2,2.4c1.3-0.5,2.3-1.4,3.4-2.1c0-1.2,0-2.3,0-3.5c-2.7,0.7-4.4,3-6.8,3.6c-1-0.6-0.8-1.4-0.8-2.1
			c0.1-5.6-1-4.1,4-7.3c1.8-1.1,3.6-2.2,5.5-3.4c0.6-0.4,1.1-0.7,1.9-0.4c0.8,0.9,0.3,2.1,0.4,3.2c-1.2,0.8-2.4,1.5-3.7,2.3
			c-0.5-0.2-0.1-0.9-0.8-1.1C38.2,68.2,37.1,69,36.2,69.8z"/>
		<path class="st3" d="M52.2,68.6c0.7-0.5,1.2-0.8,1.6-1.2c0-2.9,0-5.8,0-8.7c-0.7-0.1-1,0.6-1.7,0.5c0-0.8,0-1.6,0-2.5
			c4-2.6,8.1-5.3,12.3-8c0,1.2,0,2.3,0,3.5c-0.7,0.5-1.6,1-2.4,1.6c-1.8-0.5-2.6,1.2-3.9,1.6c0,1,0,1.9,0,3c0.8-0.5,1.5-0.8,2.3-1.3
			c-0.1-1.4,1-1.7,2.1-2.3c0,1.9,0,3.6,0,5.4c-0.6,0.4-1.2,0.8-1.9,1.3c-0.5-0.4-0.1-1-0.5-1.4c-0.7,0.2-1.3,0.7-1.9,1.2
			c0,1,0,2,0,3.1c0.8,0.2,1.2-0.7,2-0.8c0,0.7,0,1.5,0,2.4c-2.6,1.6-5.3,3.3-8.1,5.1C52.2,70.1,52.2,69.3,52.2,68.6z"/>
		<path class="st3" d="M97.3,65.5c8,9.9,5.5,22.3,0,27.8C97.3,84,97.3,74.8,97.3,65.5z"/>
		<path class="st3" d="M46,75.1c0-1.3,0-2.4,0-3.5c1.1-0.7,2.2-1.4,3.5-2.2c0,1.2,0,2.2,0,3.3C48.5,73.5,47.4,74.3,46,75.1z"/>
		<path class="st3" d="M86.2,49.5c0-1.3,0-2.4,0-3.5c1.1-0.7,2.2-1.4,3.5-2.2c0,1.3,0,2.3,0,3.4C88.6,47.9,87.5,48.6,86.2,49.5z"/>
		<path class="st3" d="M65.8,58.9c1-0.6,2.1-1.3,3.3-2.1c0.3,1.2,0.1,2.2,0.2,3.3c-1.1,0.7-2.2,1.4-3.4,2.3
			C65.8,61.2,65.8,60.2,65.8,58.9z"/>
		<path class="st3" d="M30.6,93.4c-1.1-1.2-1.8-2.3-2.5-3.6c0.8-0.5,1.6-1,2.5-1.6C30.6,89.9,30.6,91.6,30.6,93.4z"/>
		<polygon class="st2" points="79.9,35.5 79.8,35.5 79.8,35.4 		"/>
		<path class="st1" d="M45.8,36.8c4.9,0,8.7,3.7,8.7,8.6c0,4.8-3.8,8.7-8.6,8.7c-4.8,0-8.7-3.8-8.7-8.6
			C37.2,40.6,40.9,36.8,45.8,36.8z M39.1,49.3c0.1,0.1,0.2,0.2,0.2,0.3c0.3,0.4,0.7,0.9,1,1.3c2.1,0.5,4,0.5,5.8-0.8
			c-2.2,0.3-4.4,0-6.4-0.9c-0.2-0.1-0.3-0.2-0.5-0.3c-0.1,0-0.1,0-0.2,0C39,49,39,49.2,39.1,49.3z M50.4,39.2
			c-0.1-0.1-0.2-0.3-0.5-0.1c0,0.1,0.1,0.2,0.1,0.4c1.1,2.8,1.4,5.6-0.2,8.6c3.4-1.3,4.3-4.2,2.4-6.9C51.8,40.3,51.2,39.6,50.4,39.2
			z M48,47.5c0.4-3.9-1-7.1-3.7-9.7c-1.5,0.4-2.8,1-3.8,2.1c0.1,2.6,0.5,5,2.5,6.8C44.7,48.2,46.2,48.5,48,47.5z M38.3,47.4
			c2.9,1.9,5.4,2.4,7.1,1.6c-3.8-1.5-5-3-5.8-8.2C38.1,42.9,37.6,45,38.3,47.4z M49.1,47.1c1.8-3.2,0.8-6.1-0.9-9.1
			c-0.8-0.1-1.7-0.3-2.9-0.5C47.9,40.4,49.2,43.5,49.1,47.1z M47.8,50c-1.5,1.8-3.5,2-5.8,2.2c1.8,0.9,3.3,1.2,4.8,0.9
			C47.7,52.3,48,51.4,47.8,50z M53.5,46.4c-1,1.3-2.1,2.3-4,2.7c0.9,0.7,1.6,1,2.6,1C53,49,53.3,47.8,53.5,46.4z M48.7,49.7
			c0.3,1.1-0.1,2-0.2,3c1.1-0.3,1.9-0.9,2.8-1.8C50.3,50.7,49.6,50.2,48.7,49.7z M49.1,48.3c-1.1-0.2-1.8-0.1-2.3,1
			C47.9,49.7,48.6,49.4,49.1,48.3z"/>
		<path class="st3" d="M48,47.5c-1.8,1-3.3,0.7-5-0.8c-2-1.8-2.3-4.3-2.5-6.8c1-1.1,2.3-1.7,3.8-2.1C47,40.4,48.4,43.6,48,47.5z"/>
		<path class="st3" d="M38.3,47.4c-0.7-2.4-0.2-4.5,1.3-6.6c0.9,5.2,2,6.8,5.8,8.2C43.7,49.8,41.3,49.3,38.3,47.4z"/>
		<path class="st3" d="M50.4,39.2c0.8,0.4,1.4,1.1,1.9,1.9c1.8,2.7,0.9,5.6-2.4,6.9c1.6-2.9,1.3-5.8,0.2-8.6
			C50.2,39.4,50.3,39.3,50.4,39.2z"/>
		<path class="st3" d="M49.1,47.1c0-3.6-1.2-6.6-3.7-9.6c1.2,0.2,2.1,0.3,2.9,0.5C49.9,40.9,50.9,43.9,49.1,47.1z"/>
		<path class="st3" d="M47.8,50c0.1,1.4-0.1,2.4-1,3.1c-1.5,0.3-3,0-4.8-0.9C44.3,52,46.3,51.7,47.8,50z"/>
		<path class="st3" d="M39.7,49.2c2,0.9,4.2,1.2,6.4,0.9c-1.8,1.3-3.7,1.3-5.8,0.8c-0.3-0.4-0.7-0.9-1-1.3
			C39.4,49.5,39.6,49.3,39.7,49.2z"/>
		<path class="st3" d="M53.5,46.4C53.3,47.8,53,49,52,50c-0.9,0.1-1.7-0.3-2.6-1C51.3,48.7,52.5,47.7,53.5,46.4z"/>
		<path class="st3" d="M48.7,49.7c0.9,0.5,1.6,1,2.6,1.2c-0.9,0.9-1.7,1.4-2.8,1.8C48.5,51.7,48.9,50.8,48.7,49.7z"/>
		<path class="st3" d="M49.1,48.3c-0.5,1-1.2,1.3-2.3,1C47.3,48.2,48.1,48.1,49.1,48.3z"/>
		<path class="st2" d="M39.1,49.3c0-0.1-0.1-0.2-0.1-0.3c0.1,0,0.1,0,0.2,0C39.2,49.1,39.1,49.2,39.1,49.3z"/>
		<path class="st3" d="M39.1,49.3c0-0.1,0.1-0.2,0.1-0.3c0.2,0.1,0.3,0.2,0.5,0.3c-0.1,0.1-0.2,0.3-0.4,0.4
			C39.2,49.5,39.1,49.4,39.1,49.3z"/>
		<path class="st3" d="M50.1,39.5c0-0.1-0.1-0.2-0.1-0.4c0.2-0.2,0.3,0,0.5,0.1C50.3,39.3,50.2,39.4,50.1,39.5z"/>
	</g>
</g>
</svg>
