<?xml version="1.0" encoding="UTF-8"?><svg id="Layer_1" xmlns="http://www.w3.org/2000/svg" viewBox="0 0 128 128"><defs><style>.cls-1{fill:#f7f0e3;}.cls-1,.cls-2,.cls-3,.cls-4,.cls-5,.cls-6,.cls-7,.cls-8,.cls-9,.cls-10,.cls-11,.cls-12,.cls-13,.cls-14,.cls-15,.cls-16,.cls-17,.cls-18,.cls-19,.cls-20,.cls-21,.cls-22,.cls-23,.cls-24,.cls-25,.cls-26,.cls-27,.cls-28,.cls-29,.cls-30,.cls-31,.cls-32,.cls-33,.cls-34,.cls-35,.cls-36,.cls-37,.cls-38,.cls-39,.cls-40,.cls-41,.cls-42,.cls-43,.cls-44,.cls-45,.cls-46,.cls-47,.cls-48,.cls-49,.cls-50,.cls-51,.cls-52,.cls-53,.cls-54,.cls-55,.cls-56,.cls-57,.cls-58,.cls-59,.cls-60,.cls-61,.cls-62,.cls-63,.cls-64,.cls-65,.cls-66,.cls-67,.cls-68,.cls-69,.cls-70,.cls-71,.cls-72,.cls-73,.cls-74,.cls-75,.cls-76,.cls-77,.cls-78,.cls-79,.cls-80,.cls-81,.cls-82,.cls-83,.cls-84,.cls-85,.cls-86,.cls-87,.cls-88,.cls-89,.cls-90,.cls-91,.cls-92,.cls-93,.cls-94,.cls-95,.cls-96,.cls-97,.cls-98,.cls-99,.cls-100,.cls-101,.cls-102,.cls-103,.cls-104,.cls-105,.cls-106,.cls-107,.cls-108,.cls-109,.cls-110,.cls-111,.cls-112,.cls-113,.cls-114,.cls-115,.cls-116,.cls-117,.cls-118,.cls-119,.cls-120,.cls-121,.cls-122,.cls-123,.cls-124,.cls-125,.cls-126,.cls-127,.cls-128,.cls-129{stroke-width:0px;}.cls-2{fill:#f7efe3;}.cls-3{fill:#f7efe5;}.cls-4{fill:#f7efe2;}.cls-5{fill:#f2e8da;}.cls-6{fill:#f6efe3;}.cls-7{fill:#f6eee3;}.cls-8{fill:#f9ede6;}.cls-9{fill:#f8efe2;}.cls-10{fill:#f8f1e8;}.cls-11{fill:#f8f0e4;}.cls-12{fill:#28241e;}.cls-13{fill:#4a4640;}.cls-14{fill:#2b2722;}.cls-15{fill:#888073;}.cls-16{fill:#382516;}.cls-17{fill:#1d0f02;}.cls-18{fill:#1d0f01;}.cls-19{fill:#1b0e03;}.cls-20{fill:#1b0e01;}.cls-21{fill:#1c0f03;}.cls-22{fill:#0e1110;}.cls-23{fill:#0e110e;}.cls-24{fill:#110e0c;}.cls-25{fill:#111208;}.cls-26{fill:#111;}.cls-27{fill:#111013;}.cls-28{fill:#110f0f;}.cls-29{fill:#110f12;}.cls-30{fill:#11100f;}.cls-31{fill:#111010;}.cls-32{fill:#110f15;}.cls-33{fill:#1a0d04;}.cls-34{fill:#1c1519;}.cls-35{fill:#0f110d;}.cls-36{fill:#0f1109;}.cls-37{fill:#0f0f17;}.cls-38{fill:#101111;}.cls-39{fill:#101118;}.cls-40{fill:#10110a;}.cls-41{fill:#100e17;}.cls-42{fill:#101012;}.cls-43{fill:#101014;}.cls-44{fill:#101005;}.cls-45{fill:#101109;}.cls-46{fill:#101011;}.cls-47{fill:#101010;}.cls-48{fill:#120f1a;}.cls-49{fill:#0d1307;}.cls-50{fill:#0d1110;}.cls-51{fill:#0c1116;}.cls-52{fill:#141916;}.cls-53{fill:#161313;}.cls-54{fill:#161004;}.cls-55{fill:#161213;}.cls-56{fill:#160f05;}.cls-57{fill:#160e0f;}.cls-58{fill:#0d1017;}.cls-59{fill:#0d120a;}.cls-60{fill:#1f1c17;}.cls-61{fill:#1e1916;}.cls-62{fill:#200f00;}.cls-63{fill:#141211;}.cls-64{fill:#14110f;}.cls-65{fill:#130f08;}.cls-66{fill:#130f0e;}.cls-67{fill:#13130f;}.cls-68{fill:#130d16;}.cls-69{fill:#121111;}.cls-70{fill:#180d07;}.cls-71{fill:#151212;}.cls-72{fill:#151210;}.cls-73{fill:#150e0a;}.cls-74{fill:#150e0b;}.cls-75{fill:#150e0d;}.cls-76{fill:#150e08;}.cls-77{fill:#e2c299;}.cls-78{fill:#e2c48f;}.cls-79{fill:#e2c491;}.cls-80{fill:#ddd0b7;}.cls-81{fill:#cac3be;}.cls-82{fill:#cac8c0;}.cls-83{fill:#d8c4aa;}.cls-84{fill:#d8c5af;}.cls-85{fill:#dbc08f;}.cls-86{fill:#dec39b;}.cls-87{fill:#e1c295;}.cls-88{fill:#e1d9cb;}.cls-89{fill:#e1c091;}.cls-90{fill:#dcc3a4;}.cls-91{fill:#d6c1ac;}.cls-92{fill:#e0c497;}.cls-93{fill:#d4c3b2;}.cls-94{fill:#d3cabc;}.cls-95{fill:#d3c3ae;}.cls-96{fill:#dfcfb8;}.cls-97{fill:#ad956f;}.cls-98{fill:#d7c3b0;}.cls-99{fill:#fdefda;}.cls-100{fill:#fdeedd;}.cls-101{fill:#fdeed9;}.cls-102{fill:#e7c190;}.cls-103{fill:#e4c394;}.cls-104{fill:#e3c394;}.cls-105{fill:#e4c48c;}.cls-106{fill:#e5c29d;}.cls-107{fill:#efe5d3;}.cls-108{fill:#faefe4;}.cls-109{fill:#faefdf;}.cls-110{fill:#faefde;}.cls-111{fill:#e6c488;}.cls-112{fill:#fceddf;}.cls-113{fill:#fcf7f3;}.cls-114{fill:#fceedd;}.cls-115{fill:#fceed9;}.cls-116{fill:#fcefd7;}.cls-117{fill:#fef8f3;}.cls-118{fill:#fbeeda;}.cls-119{fill:#fef8eb;}.cls-120{fill:#fbefd8;}.cls-121{fill:#fbefd7;}.cls-122{fill:#fbeedb;}.cls-123{fill:#eae0d3;}.cls-124{fill:#eee6d6;}.cls-125{fill:#f0e7d9;}.cls-126{fill:#f0e7d8;}.cls-127{fill:#f5efe8;}.cls-128{fill:#f5ecdf;}.cls-129{fill:#e7d7bb;}</style></defs><circle class="cls-117" cx="64" cy="64" r="63.5"/><g id="SCR"><path class="cls-122" d="m33.61,60.23c-.25-.22-.5-.43-.75-.65,0-.22.11-.37.27-.5.11-.06.23-.09.35-.1.11,0,.22,0,.33-.01.1-.04.19-.09.27-.16.07-.09.14-.17.22-.25.07-.09.15-.18.23-.26,0,0,.12-.13.11-.13.07-.1.14-.2.21-.31.02-.07.05-.13.08-.19.05-.21.07-.42.08-.63,0-.14-.01-.28-.01-.42-.01-.36-.18-.64-.46-.88-.88-.93-1.8-1.81-2.51-2.88-.08-.12-.16-.25-.23-.37-.04-.06-.07-.12-.11-.18-.08-.11-.15-.22-.23-.33-.08-.1-.14-.21-.2-.33-.09-.16-.17-.33-.27-.48-.08-.09-.15-.19-.22-.28-.08-.09-.15-.19-.21-.3-.06-.11-.12-.22-.17-.33-.09-.17-.17-.34-.25-.52-.05-.12-.1-.25-.14-.38-.07-.19-.13-.38-.2-.57-.05-.13-.09-.26-.13-.39-.08-.26-.16-.52-.26-.78-.08-.2-.14-.4-.21-.61-.08-.21-.15-.43-.21-.65-.08-.32-.1-.64-.05-.97.09-.34.21-.66.64-.67.2.18.45.22.69.29.63.23.72.92,1.16,1.42.95-1.76-1.86-2.46-1.08-3.93-.1.65.29,1.52-.26,2.29-.17.12-.34.1-.49-.04-.95-.51-.74-1.42-.8-2.25,0-.36.02-.71.07-1.06.02-.17.06-.33.11-.49.12-.38.23-.76.31-1.15.03-.15.07-.3.11-.45.09-.3.14-.61.19-.92.33-1.68,1.34-2.99,2.35-4.28.1-.12.21-.24.31-.35.14-.19.28-.38.41-.57.09-.13.19-.25.31-.37.71-.66,1.45-1.28,2.28-1.78.13-.09.27-.17.41-.25.29-.15.59-.27.92-.17.54.33,1.09.67,1.78.49.2-.02.39-.01.58,0,1.26.12,2.52.1,3.78.1,14.81,0,29.61,0,44.42,0,1.07,0,2.16-.11,3.19.31.15.06.29,0,.44-.04-.1-.05-.2.1-.31,0-.34-.31-.38-.7-.34-1.12.04-.18.11-.35.21-.5.83-.84,1.76-.52,2.69-.25,1.04.88.73,2.12.86,3.24.12,11.99.02,23.98.05,35.96,0,.78-.05,1.56.08,2.33.17.99,1.76,2.04,2.72,1.86.46-.09.55-.4.61-.76.1-.65.06-1.32.06-1.97,0-12.05,0-24.1.02-36.14,0-1.04-.28-2.19.68-3.03.47.58.27,1.27.27,1.91.01,13.24.01,26.49,0,39.73,0,1.74-.29,3.45-.73,5.13-.57.3-.98-.12-1.45-.29-.25-.12-.49-.26-.74-.38-.12-.05-.24-.11-.36-.17-.18-.08-.36-.16-.54-.22-.19-.05-.38-.11-.56-.18-.19-.06-.38-.13-.58-.18-.21-.05-.41-.1-.62-.16-.3-.08-.6-.11-.9-.12-.52-.02-1.03-.04-1.5-.32-.17-.1-.33-.2-.5-.29-6.88-.14-13.75-.04-20.62-.05-5.2-.01-10.4-.05-15.59.03-.18.04-.36.06-.55.09-.82.04-1.67-.48-2.48.09-.08.11-.17.22-.27.32-.09.1-.2.19-.31.26-.1.08-.21.15-.32.21-.05.04-.1.07-.15.11-.09.08-.19.16-.29.24-.04.04-.09.08-.13.12-.08.09-.17.17-.26.25-.04.04-.09.08-.13.13-.08.09-.16.18-.24.27-.03.05-.07.1-.1.15-.06.11-.12.22-.17.33-.05.12-.09.24-.14.37-.05.21-.09.42-.12.63-.04.32-.08.64-.15.96-.17,1.92-.2,3.83.03,5.74.07.25.11.51.15.76.06.32.11.65.26.94.54,1.09,1.45,1.76,2.53,2.25.22.09.45.18.68.25.24.06.48.12.73.19.83.27,1.75-.02,2.55.39.83.49.41,1.2.17,1.88,1.07-.08,1.14-.73,1.15-1.42.03-1.31,0-2.63.02-3.94.02-1,.36-1.87.98-2.63.38-.47.91-.56,1.46-.36.49.18.89.59.73,1.09-.55,1.75.28,3.4.29,5.1.18.38-.82-.3-.33.36.13.48.16.99-.05,1.41-.59,1.18-.11,2.06.68,2.88.06.14.08.3.06.45-.25.26-.46.53-.42.93-1.6,2.2-3.9,2.91-6.47,3.03-.58-.2-1.17-.09-1.75,0-4.63-.62-8.33-4.34-8.29-8.33.15-.59.11-1.19.11-1.79,0-15.19,0-30.37,0-45.56,0-.59.06-1.2-.14-1.77-.1-.15-.22-.29-.36-.4-.19-.16-.37-.34-.53-.54-.24-.37-.4-.8-.77-1.08-.12-.09-.23-.19-.34-.29-.06-.05-.11-.1-.17-.15-.17-.15-.34-.31-.52-.46-1.36-.42-2.71-.38-4.07-.03-.05.06-.11.11-.16.16-.05.06-.1.11-.15.18-.08.13-.17.26-.25.39-.36,1.08-.17,2.18-.12,3.28.02.16.01.31-.03.47-.07.15-.18.22-.35.18.16.05.29,0,.41-.12.17-.03.34-.03.51,0,.54.11,1.1.2,1.38.77.39,2.66.49,5.27-1.07,7.7.34-.4.62-1.41,1.1-.18.35.9.22,1.87.08,2.81.14,2.44-1.56,4.37-1.85,6.69-.6-.35-1.33-.5-1.8-1.08,0,0,.04-.12.04-.12,0,0-.07-.1-.07-.1,0,0-.09.08-.09.08-.09.02-.16.06-.22.13Z"/><path class="cls-31" d="m53.02,99.01c2.65-.04,4.81-1.1,6.5-3.14.08-.14.18-.27.3-.38l.02-.04c.19-.22.13-.55.35-.75.13-.16.27-.32.4-.5.07-.13.15-.25.23-.37.12-.2.25-.38.43-.52.16-.06.31-.04.46.05.59.92.46,2.1,1.06,3.01.1.29.24.55.42.79.08.13.14.26.18.41.09.66-.26.94-.85,1.03-.19.11-.25.3-.26.51,0,.15,0,.29,0,.44-.03.45.05.87.36,1.22.37.47.9.4,1.4.41.4,0,.8-.01,1.19-.02.63.08,1.14-.25,1.65-.54.26-.11.53-.16.81-.18,6.74,0,13.48-.15,20.22.13-.97-.02-1.95.08-2.88-.32-.23-.46-.06-.8.35-1.05,1.42-.43,2.88-.14,4.31-.23.85-.05,1.73.19,2.55-.22.25-.17.52-.31.79-.45.12-.07.25-.13.38-.19.12-.06.24-.12.37-.17.06-.03.12-.06.18-.08.11-.06.23-.11.35-.17.17-.1.33-.2.48-.31.15-.12.31-.22.48-.32.15-.11.3-.23.43-.37.11-.16.22-.32.33-.49.11-.17.25-.33.39-.48.14-.16.3-.31.46-.45.23-.19.47-.35.74-.46.5-.23.99-.08,1.47.06.4,0,.51-.43.82-.57.48.02,1.08.32,1.22-.5.35-.36.75-.31,1.17-.15.08.04.15.08.22.12.13.11.24.24.31.39.05.25.03.5-.11.73.03.12,0,.22-.1.29-.06.08-.13.11-.21.12.02.02.02.05.02.06.02.1,0,.18-.06.25.04.13,0,.23-.11.3-.09.14-.17.28-.25.42-1.99,4.39-5.54,6.66-10.16,7.5-2.5.45-5.01.18-7.52.17-10.9-.03-21.81-.07-32.71-.13-7.01-.04-12.42-4.88-12.97-11.54-.3-.56-.16-1.17-.16-1.76-.01-6.04-.05-12.08,0-18.12.08-8.6-.61-17.19-.35-25.8.03-.95-.12-1.93.46-2.78.12-.15.26-.29.4-.43.4-.35.84-.29,1.29-.13.7.26.92-.22,1.1-.74.4-.58.19-1.47.94-1.88.11.11.23.22.34.33.06.27.27.44.4.67.02.06.05.12.07.18.03.13.03.26.02.39-.05.27.06.53.11.79.03.32-.04.62-.19.91-.21.32-.3.67-.29,1.05-.02,14.25,0,28.5,0,42.74,0,.48-.01.96.06,1.43.06.19.14.37.25.54.16.24.27.51.37.77.07.36.09.72-.02,1.08.96,4.24,3.7,6.74,8.19,7.48.47-.12.95-.12,1.42,0Z"/><path class="cls-69" d="m98.11,31.1v43.19c-1.49-.5-2.8-1.01-4.16-1.38-1.04-.28-.59-1.05-.59-1.59-.03-9.52-.03-19.03-.02-28.55,0-3.41.04-6.82.06-10.23.62-2.12.32-3-1.45-4.16-.34-.24-.43-.67-.72-.95-.16-.08-.32-.14-.51-.15-15.31.02-30.61.06-45.9-.01-.87-.15-1.63-.39-2.03-1.35-.36-.85-1.83-.49-2-1.66.91-.38,1.88-.29,2.82-.29,15.51,0,31.03,0,46.54,0,4.72,0,7.4,2.41,7.95,7.14Z"/><path class="cls-46" d="m40.79,24.25c.68,0,.96,1.22,1.94.57.46-.31.16.23.21.42.16.64.54,1.17,1.1,1.54-.04.11-.11.19-.22.23,0,0-.13.1-.13.1,0,0,.16.01.16.01.12.06.2.14.26.26.05.13.07.26.06.39-.06.21-.18.38-.36.52-.07.03-.14.05-.21.08-.15.01-.3-.01-.45-.06-.4-.18-.91-.19-1.08-.71-.37-.71-.57.17-.87.11-.29.12-.59.15-.89.11-.28-.04-.56-.1-.84-.1-.13,0-.26-.03-.38-.09-.04-.07-.07-.18-.19-.09.1-.06.16-.02.2.11-.03.25-.03.49.12.72.1.28.09.55,0,.83-.06.14-.13.26-.22.38-.1.11-.21.21-.34.29-.26.15-.54.28-.83.35-.15.03-.31.03-.47.02-.69-.04-1.37-.28-2.07-.12-.13,0-.17-.09-.19-.2-.08.1-.04.18.11.24.3.21.64.4.51.86l-.05.05c-.44.3-.91.41-1.43.28-.44.19-.06-1.02-.74-.43-.19.15.05-.08-.13.08.06,0,.11-.05.17-.07.26-.03.41.11.51.33-.46.64-.85,1.32-1.12,2.06h.01c-.08.04-.16.08-.26.1,0,0-.08.12-.08.12,0,0,.08.12.08.12-.04.11-.1.18-.2.23l-.05.05c-.36.39-.63.2-.88-.13-.05-.03,0-.27-.16-.08.12-.02.17.05.16.2.15.87-.49,1.34-.92,1.92-.11-.02-.2-.03-.24-.04.07.06.12.15.16.28-.11.84-1.29,1.32-.78,2.36.02.15.02.31,0,.47-.08.14-.19.23-.35.25-.25-.05-.35-.25-.47-.44-.15-.16-.32-.26-.55-.2-.11.06-.21.13-.29.22,0,0-.15-.09-.15-.09,0,0,.11.14.11.13.06-.11.15-.19.26-.24.19-.08.36-.06.52.07.09.09.15.21.17.34-.02.06-.03.13-.05.19-.06.12-.13.23-.21.33-.04.05-.08.1-.12.15-.07.1-.15.19-.23.28-.06.09-.12.18-.16.27,0,0,.02.13.02.13,0,0,.14-.01.14-.01.12,0,.23.02.33.06.18.06.33.15.47.26.04.05.07.1.1.16l-.15.4c-.12.36-.33.6-.75.5-.11-.02-.15-.11-.2-.2-.02.11.04.17.18.18.25.14.5.27.62.55.07.2.07.41.05.62-.04.14-.12.23-.26.27-.2-.05-.32-.21-.46-.33-.05-.06-.08-.09-.08-.09-.03-.03,0,0,.08.09.13.13.28.26.37.43.03.29-.07.5-.38.56-.11-.04-.2-.09-.25-.18.06.1.15.16.27.2.36.11.58.36.72.7.09.34-.14.73.16,1.03.03.35.07.71.1,1.06.07.18.22.32.21.53.03.18.06.37.1.55.17.22.11.54.3.76.05.11.11.23.16.34.03.24,0,.49.22.67,0,.13,0,.27-.01.4.12.08.2.19.23.33.04.13.09.26.13.39.13.1.22.22.28.37l.05.05c.27.14.19.46.35.66l.02.04c.14.07.24.18.3.33l.06.05c.14.04.22.13.25.27.99,1.09,1.97,2.18,2.96,3.26.39.34.16.86.37,1.25v-.02c-.18.41-.07.88-.28,1.28l-.02.04c-.15.07-.24.18-.29.33l-.06.07c-.15.04-.25.14-.3.29l-.06.06c-.18.07-.23.28-.39.38-.12.04-.24.03-.35-.04-.13,0-.25.02-.38.03-.36.11-.72.12-1.07-.02-3.26-2.67-5.9-5.76-6.91-9.98-.13-.29.15-.7-.28-.89h0c-.23-.7-.11-1.39-.08-2.08,0-.16.41.05.25-.27-.04-.11-.04-.22,0-.32.14-.18.18.11.07-.1-.03-.07-.19-.07-.3-.1-.36-.27-.39-.71-.58-1.07-.01-.24-.02-.48-.03-.73.55-.72,1.53-1.02,1.88-1.94.08-.1.17-.21.25-.31.09-.16.14-.34.14-.53-.02-.12-.02-.24-.02-.36,0-.18,0-.35,0-.52-.04-.24-.27-.17-.41-.26-.69-1.36-.34-2.68.18-3.98.14-.09.28-.04.43-.01.04,0-.11-.13-.09-.23.08-.38.33-.59.68-.71.11-.04.2-.11.27-.22.06-.11.14-.21.24-.29.26-.15.44-.04.57.16-.01-.02-.02-.05-.03-.07-.08-.24-.04-.45.06-.65.19-.15-.11,0,.09-.12-.04.03-.06.09-.09.13-.17.33-.48.5-.8.65-.42-.13-.53-.48-.61-.85.06-.11.12-.22.18-.33.09-.14.17-.28.25-.42.06-.1.11-.2.17-.31.03-.14.11-.23.24-.28l.03-.05c.42-.39.71-.19.96.2.12.21.29.37.48.52.36.18.75.01,1.12.09.13.02.21-.03.23-.14-.08.06-.16.13-.27.11-.34-.1-.68.06-1.02-.01-.18-.12-.32-.27-.47-.43-.14-.32,0-.53.28-.68.03-.06.23-.06.07-.18.05.1.01.17-.13.21-.42-.06-.69-.22-.54-.71l.06-.06c.05-.15.14-.24.29-.29l.06-.06c.37-.33.74-.67,1-1.09h0c.63-.56,1.36-.7,2.16-.57.46.47.27-.19.43-.26,1.63-.79,2.33-2.62,3.88-3.49h.01c1.32.1,2.37-.74,3.57-1.03.12,0,.25-.01.37-.02.14.11.25.08.35-.05h0Z"/><path class="cls-22" d="m102.33,94.06c-.36-.12-.72-.24-1.08-.36-.08,0-.16,0-.24,0-.33-.06-.59-.22-.78-.5-.31-.55-.81-1.06-.52-1.79.52-1.19.53-2.36-.16-3.5-.21-.48-.22-.99-.23-1.51,0-.56.04-1.12-.05-1.67-.03-.15-.05-.3-.05-.44,0-.07.02-.14.03-.21.04-.13.11-.25.19-.35.04-.04.09-.09.14-.13.09-.08.2-.12.32-.13,0,0,.15.03.15.03,0,0,.01.16.01.15,0,0,.14-.06.14-.06-.12-.02-.19-.09-.2-.22,0,0,.03-.16.03-.17,0,0,.06-.16.06-.16.07-.18.14-.35.22-.52.06-.13.13-.25.21-.36.19-.21.35-.49.71-.32h0c.23.19.16.52.35.72h0c.11.4.24.81.17,1.2-.26,1.36.32,2.23,1.52,2.77.05.35.09.7.14,1.06-.56.69-.33,1.28.26,1.81,0,.24,0,.47,0,.71-.57.54.14,1.27-.26,1.83.06.12.05.23-.03.33-.3.33-.05.81-.31,1.15-.03.22-.07.43-.1.65-.09.16-.18.17-.28,0h-.02c-.12-.14-.24-.13-.35,0Z"/><path class="cls-68" d="m39.36,43.33c-.57.93-.74,1.91-.74,3.02.03,15.31.02,30.62.01,45.94-.32-1.16-.29-2.35-.29-3.54-.03-8.9-.06-17.81-.08-26.71-.22-.27-.39-.57-.45-.92-.13-3.97-.07-7.94-.06-11.92.13-1.77-.21-3.57.23-5.33.32-.52.7-.91,1.38-.54Z"/><path class="cls-69" d="m36.49,25.35c.05.17.18.47.15.49-1.56.92-2.27,2.87-4.11,3.45-.83.12-1.67.24-2.5.37,1.75-2.04,3.91-3.48,6.47-4.31Z"/><path class="cls-69" d="m27.03,33.58c.27.25.54.51.81.76h0c0,.24,0,.48,0,.72h0c-.52,0-.88.24-1.08.72h0c-.68,1.13-.68,3.45,0,3.96h0c.22.36.22.72,0,1.08-.25.14-.54.08-.8.12-.14,0-.27-.03-.39-.09-.17-.11-.33-.23-.49-.35-.17-.11-.31-.25-.43-.4.02-.24.03-.48.05-.72.11-.08.21-.07.3.03-.04-.05-.08-.08-.12-.13-.02-.12,0-.24.06-.34.13-2.01,1.03-3.72,2.09-5.36Z"/><path class="cls-67" d="m101.24,81.84c-.24.24-.47.47-.71.71-.31-.2-.4-.56-.6-.85-.1-.11-.2-.21-.31-.3-.9-.24-1.71-.61-2.01-1.59-.2-.65-.69-.73-1.26-.77-.63-.05-1.53.13-1.66-.69-.16-1.06.96-.8,1.52-1.12.48.21.96.43,1.44.64,1.26,1.26,2.78,2.29,3.59,3.96Z"/><path class="cls-101" d="m35.76,61.31c-.18-1.27-.52-2.44.88-3.48.76-.56-.23-2.07.56-2.99.95,2.09.65,4.23.2,6.36-.27.33-.58.32-.92.12-.24,0-.48,0-.72,0Z"/><path class="cls-71" d="m103.29,86.52c-1.6.1-2.23-.7-2.02-2.22.08-.58.22-1.16.33-1.74,1.09,1.09,1.34,2.54,1.69,3.96Z"/><path class="cls-46" d="m25.69,40.81c.36-.49.72-.49,1.08,0h0c.2.24.2.48,0,.72h0c-.24.43-.62.59-1.08.55-.44-.23-.16.14-.19.25-.16.41-.43.38-.75.19-.44-.55-.41-1.14-.15-1.74-.06-.12-.05-.23.03-.33.17-.24.53-.12.7-.36.28.16.35.42.36.72,0,0-.08.05-.08.05s.09.04.09.04c0,0,0-.1,0-.1Z"/><path class="cls-63" d="m24.34,44.42c.33.36.66.71.99,1.07,0,0,0,0,0,0,0,.24,0,.48,0,.72h0c-.12.71-.23,1.43-.35,2.14-.52-1.26-.67-2.58-.64-3.93Z"/><path class="cls-71" d="m103.68,89.39c-1.3.64-.58-1.28-1.48-1.16.11-.78.73-.6,1.22-.65.3.57.26,1.2.26,1.81Z"/><path class="cls-69" d="m40.08,24.32c-.52.87-2.35.27-2.12,1.99-.56-.29-.73-1.05-1.46-.96,1.11-.64,2.31-.96,3.57-1.03Z"/><path class="cls-69" d="m24.97,42.61c.28-.16.35-.42.36-.72h0c.52.05.99-.12,1.44-.36-.34,1.27-1.31,1.82-2.46,2.16,0-.12,0-.24,0-.37.06-.1.11-.2.14-.31,0,0,.08-.15.08-.15.07-.1.16-.18.27-.22,0,0,.17-.02.17-.02Z"/><path class="cls-10" d="m36.48,61.32c.24,0,.48,0,.72,0,.35-.29.7-.3,1.06,0,0,.24,0,.48,0,.72-.69,0-1.42.1-1.78-.72Z"/><path class="cls-71" d="m103.42,91.93c.15-.6-1.03-1.39.26-1.83.07.63.06,1.25-.26,1.83Z"/><path class="cls-69" d="m28.6,31.18c.23.21.46.43.69.64h0c-.12.24-.24.48-.36.72h0c-.34-.11-.69-.23-1.03-.34.12-.42.28-.81.71-1.02Z"/><path class="cls-63" d="m24.6,40.78c-.01.64.02,1.26.37,1.83,0,0,0,0,0,0-.13.11-.25.23-.36.36h0c-.1.11-.2.1-.3,0,.05-.74-.21-1.51.29-2.19Z"/><path class="cls-69" d="m30.01,29.67c-.04.64-.38,1-1,1.09.24-.46.51-.87,1-1.09Z"/><path class="cls-63" d="m24.98,48.36c.26-.06.68-.4.73-.15.06.31-.28.69-.45,1.04-.29-.24-.29-.56-.28-.89Z"/><path class="cls-71" d="m103.08,93.41c-.02-.42-.09-.85.31-1.15.06.43.1.85-.31,1.15Z"/><path class="cls-125" d="m32.17,59.23c.36,0,.71.01,1.07.02-.13.11-.25.22-.38.32-.23-.11-.46-.23-.69-.34Z"/><path class="cls-63" d="m25.33,40.09c-.15.28-.41.35-.7.36,0-.12.01-.24.02-.36.23,0,.45,0,.68,0Z"/><path class="cls-71" d="m102.7,94.06c.09,0,.19,0,.28,0,.02.3.1.62-.26.79,0-.26-.01-.52-.02-.78Z"/><path class="cls-67" d="m101.59,82.55c-.27-.16-.34-.42-.35-.7.24.17.37.4.35.7Z"/><path class="cls-69" d="m28.95,30.83c-.1.1-.19.19-.29.29.1-.1.19-.19.29-.29Z"/><path class="cls-69" d="m27.87,32.24c-.08.09-.16.18-.24.28.08-.09.16-.18.24-.28Z"/><path class="cls-69" d="m27.46,32.82c-.08.14-.17.28-.25.42.08-.14.17-.28.25-.42Z"/><path class="cls-125" d="m33.61,60.23c.12-.12.23-.23.35-.35.07.08.1.16.07.24-.02.08-.05.12-.07.12,0,0,0,0,0,0-.12,0-.24,0-.35,0Z"/><path class="cls-71" d="m102.34,95.13c.09,0,.18,0,.27,0-.09.14-.17.29-.26.43-.01-.14-.03-.28-.04-.42l.02-.02Z"/><path class="cls-71" d="m102,96.29c.08-.14.17-.28.25-.42-.08.14-.17.28-.25.42Z"/><path class="cls-46" d="m24.31,42.97c.1,0,.2,0,.3,0-.1.12-.2.24-.3.35,0-.12,0-.24,0-.35Z"/><path class="cls-63" d="m24.94,38.94c.01.14.03.28.04.42l-.02.02c-.09,0-.17,0-.26,0,.08-.14.16-.29.24-.43Z"/><path class="cls-69" d="m40.8,24.25c-.09.2-.2.24-.35.05.12-.02.23-.03.35-.05Z"/><path class="cls-26" d="m86.8,52.14l.14.54c.13.48.14.96,0,1.44-.32,1.13-1.32,1.44-2.25,1.82-.39.23-.81.15-1.23.15-9.85,0-19.71,0-29.56,0-.41,0-.84.07-1.23-.15-.36,0-.73,0-1.09,0-.34.12-.44-.08-.48-.35.23-1.36.11-2.74.15-4.11-.02-.07-.05-.15-.07-.22.04-.11.08-.23.13-.34.93-.76,1.97-.18,2.95-.18,9.71-.05,19.42-.03,29.12-.03.84,0,1.68-.05,2.4.52.12.09.25.18.37.28.45-.02.59.27.65.64Z"/><path class="cls-30" d="m47.92,78.23c.1-.08.14-.17.1-.29.07-.16.21-.29.29-.45l.03-.04c.14-.07.24-.17.29-.33l.15.05c.07-.15.17-.25.32-.31l.04-.04c.06-.15.17-.25.32-.32l.04-.04c.06-.14.15-.23.3-.27.12-.04.24-.08.36-.11.29-.3.56-.63,1.01-.68.33-.04.66-.03.99-.01,3.95-.04,7.89-.03,11.83-.03,8.08,0,16.17,0,24.25,0,.77,0,1.57-.16,2.27.33.59.04,1.18.08,1.76.12.25.11.53.08.77.24.22.04.45.08.67.12.14.08.28.15.41.24.22.04.44.08.66.12.14.08.28.16.41.24.12-.04.21,0,.28.1-.37.97-1.25.99-1.93.7-1.86-.78-3.76-.56-5.67-.56-11.57,0-23.14.02-34.71,0-.45,0-.9-.03-1.34.14,9.35.24,18.7.11,28.04.15,2.76.01,5.52,0,8.27,0,.97,0,1.92.07,2.81.51.43.21.95.43.92.98-.03.54-.53.76-1,.91-.46.15-.95.13-1.43.16-1.19.37-2.36-.05-3.55-.04-5.3.03-10.61.01-15.91.02-.83,0-1.68-.08-2.41.45-1.18.34-2.37.43-3.54-.03-.27-.2-.39-.46-.3-.8.28-.43.71-.49,1.15-.49-.02,0,.16,0,.16,0,0,0,0,0-.03,0-.5,0-.97-.02-1.27.46-.27.41-1.54.16-.8,1.23-.01.69-.79.63-1.05,1.08-.08.42-1.24.54-.32,1.23.13.1.23.23.32.36.08.15.13.31.17.47.05.25.07.51.08.76-.03.59.05,1.22-.51,1.64-.29.09-.45-.09-.58-.3-.08-.13-.14-.27-.2-.42-.07-.13-.12-.27-.18-.41-.13-.27-.31-.52-.52-.74-.91-.92-1.8-1.88-2.93-2.55-.54-.44-1.31-.53-1.76-1.11-.93-.5-1.84-1.21-2.88-.2-.05.14-.13.26-.24.37-.62,1.21.02,2.57-.44,3.79-.8,1.84-.72,2.19.78,3.2-.09.94.8.31,1.06.66.11,0,.36.36.3,0-.06-.36.45-.97-.35-1.12-.49-.42-1.25-.45-1.55-1.11,0-.32.14-.55.41-.73.86-.31,1.7-.39,2.46.26.5,1.55.57,3.1-.04,4.64-.99.35-1.99.2-2.99.1-.25-.06-.49-.12-.74-.17-.14-.08-.28-.16-.42-.25-1.48-.29-2.2-1.45-2.96-2.57-.02-.24,0-.5-.22-.68-.03-.25-.06-.5-.08-.75-.14-2.15-.14-4.31,0-6.46.04-.34.08-.68.12-1.02.09-.14.17-.28.26-.42Z"/><path class="cls-47" d="m51.26,39.74c9.7-.03,19.4-.19,29.1.08.15.06.29.14.42.24.11.05.23.11.34.16.15.01.23.1.25.25,1.04,1.96.85,2.69-1.01,3.96-.11,0-.23-.01-.34-.02-8.54-.02-17.07,0-25.61,0-3.27,0-3.26.12-3.21-2.88,0-.18-.08-.35-.14-.52-.2-.47-.13-.89.2-1.28Z"/><path class="cls-114" d="m37.56,30c.13-.04.26-.09.39-.13.24-.02.49-.01.67-.22h.02c.13-.1.26-.17.41-.23.29-.16.55-.36.87-.44.17-.06.34-.1.52-.13.59-.04,1.13-.32,1.72-.37,7.71-.09,15.42-.05,23.13-.05,8.49,0,16.98-.03,25.47.01.21,0,.42.03.63.07.29.08.58.17.84.35.24.18.43.39.43.72-.61.73-1.58-.29-2.19.45-15.86,0-31.73,0-47.59,0,15.05,0,30.11,0,45.16.01.82,0,1.69-.21,2.43.35.01.4-.05.82.36,1.08h0c-.1.23.7.95-.17.65-.84-.29-1.64-.28-2.45-.28-15.76-.01-31.51-.01-47.27,0-1.03,0-2.03-.06-3-.37-.07-.06-.13-.13-.19-.19.06.07.12.14.19.19-.88.64-1.03-.29-1.44-.66.08-.64.67-.6,1.07-.8Z"/><path class="cls-42" d="m89.38,79.31c.77-.02,1.58.13,2.36-.59-1.15-.42-2.14-.88-3.41-.88-11.09.05-22.19.04-33.28.02-1.42,0-2.85-.02-4.24-.35-.27-.06-.68.08-.71-.33-.03-.4.25-.68.66-.71.54-.05,1.08-.04,1.62-.04,11.81,0,23.63-.01,35.44.01,2.02,0,4.12-.64,6.01.79.3.23,1.16.05,1.65-.37.24.12.49.24.73.36,0,.81-1,.47-1.27,1,.45.58,1.03.31,1.52.35.79.07,1.77-.28,1.59,1.22-.04.36.46,1.26,1.37.96.64-.21.5.46.75.7h0c.41.26.35.68.36,1.08-.23.19-.15.52-.36.72h0c-.08.16-.2.28-.36.36h0c-.12.12-.24.24-.36.36h0c-.09.08-.15.18-.16.3,0,.04.07.06.16.06.59.51.28,1.19.36,1.8-.19.2-.43.24-.7.2-1.54-.46-1.01-2.15-1.83-3.04-.12-.11-.23-.21-.35-.31-.38-.33-.88-.37-1.31-.55-.15-.07-.29-.16-.41-.27-.33-.43-.94-.79-.4-1.46.24-.34,1.05-.29.78-.94-.18-.44-.67-.34-1.06-.18-.09.17-.31.07-.42.22.23-.04.39-.22.6-.31.27.01.65-.1.76.22.21.6-.47.67-.7,1.03-.82.76-1.55-.05-2.32-.12-.67-.17-1.37-.1-2.03-.31-.44-.24-1.12-.23-1.05-1.01Z"/><path class="cls-47" d="m80.36,62.53c1.32.39,1.76,1.39,1.57,2.62-.21,1.4-1.2,1.98-2.56,1.97-8.54-.03-17.08-.05-25.62-.08-.58-1.61-.3-2.26,1.24-2.6,1.17-.26,2.35-.43,3.56-.43,6.05,0,12.09,0,18.14,0,.78,0,1.54.07,2.29.34.72.27.62-.25.54-.69-.2-.74.09-1.11.84-1.14Z"/><path class="cls-118" d="m61.26,85.61c.06.17.12.34.18.51.65.42.89,1.05.93,1.78,0,.17-.02.34-.06.51-.26.84-.16,1.68,0,2.52-.06.91-.05,1.84-.94,2.42-.1.07-.13.16-.1.28-.09.14-.17.28-.26.42-.1.08-.14.18-.1.31-.08.16-.22.27-.28.43-.27.22-.54.43-.8.65-2.13-1.4-1.06-3.24-.69-4.98.3-1.1-.57-2.03-.45-3.15.06-.59-.38-1.22.16-1.83.36-.4.17-.81-.28-1-.47-.2-.94-.22-1.19.37-.31.75-.84,1.4-.78,2.32.09,1.42.03,2.86.02,4.29,0,.48.05,1.02-.43,1.29-.51.29-1.15.66-1.63.19-.18-.18-.28-.98.43-1.3.32-.15-.09-.5-.17-.77.07-.13.18-.21.32-.24.57-.36-.35-.48-.13-.78,0-.59-.02-1.17,0-1.76.13-.39.39-.75.37-1.19,0-.77.13-1.65-1.09-1.49-1.57.2-1.96-.59-1.77-1.97.08-.63-.02-1.29.25-1.9.47-.65.95-1.29,1.91-.94.36-.12-.3.79.37.36.45.02.87.14,1.31.22.21.14.39.36.68.14.14,0,.26.04.38.1,1.48.52,2.19,1.91,3.23,2.92.14.2.04.51.32.65l.03.04c.1.18.26.33.26.56Z"/><path class="cls-42" d="m79.66,63.48c.29.09.96-.12.78.36-.21.58.13,1.37-.56,1.73-.32.16-.74.03-.89-.37-.33-.86-1.06-.63-1.68-.63-6.39-.01-12.78-.03-19.17,0-1.12,0-2.24.21-3.36.37-1.35.19-.94,1.28-1.02,2.11-.83,0-1.67,0-2.5.01-.41-.96-.09-1.98-.2-2.96-.02-.17-.02-.35.02-.52.1-.16.24-.25.42-.28.27-.04.53-.11.79-.19.1-.03.19-.05.29-.07.21-.04.41-.06.62-.06,8.52,0,17.03-.08,25.55.04.36.05.65.23.92.46Z"/><path class="cls-121" d="m90.46,30.38h-50.17c.18-.98.79-.7,1.18-.7,15.89-.02,31.77-.01,47.66-.01.47,0,.97-.08,1.33.36v.36Z"/><path class="cls-120" d="m78.94,46.21c2.28.96,1.28,1.92,0,2.88-.51.43-1.13.35-1.72.35-6.53,0-13.06,0-19.59,0-.59,0-1.21.07-1.72-.36v-1.44c.8-.71,1.78-.59,2.72-.59,5.72-.02,11.44,0,17.15-.01,1.12,0,2.28.12,3.15-.83Z"/><path class="cls-100" d="m78.94,46.21c.21,1.45-.71,1.45-1.76,1.45-7.09-.02-14.18-.01-21.27-.01v-1.44c.51-.43,1.13-.35,1.72-.36,6.53,0,13.06,0,19.59,0,.59,0,1.21-.07,1.72.36Z"/><path class="cls-75" d="m92.65,29.57c-.13-.09-.25-.18-.38-.28-.11-.11-.23-.2-.37-.26-.13-.06-.26-.13-.39-.19-.65-.16-1.31-.08-1.97-.08-14.69,0-29.38,0-44.06-.04-.58,0-1.47.57-1.8-.5h0c.9-.64,1.94-.51,2.95-.51,14.4-.01,28.8,0,43.2-.01.73,0,1.57-.4,2.07.53,1.41-.64,1.71.76,1.93,1.39.31.9.86,2.14-.43,2.93-.21-1,.27-2.17-.74-2.97Z"/><path class="cls-27" d="m39.36,43.33c-.35.12-.71.24-1.06.35-.11.02-.21.04-.32.06-2.76-.15-3.34-1.4-2.2-4.69l.02-.02c1.12-.74,2.37-.23,3.55-.38.29,0,.58,0,.87.07.34.16.58.47.9.66h.02c.15.12.28.25.46.3.54.09.65.51.71.96-.47.57.37,1.67-.79,1.95-.23-.07-.42-.22-.61-.37-.4-.33-.76-.94-1.35-.64-.73.38.11.94-.03,1.43-.03.11-.08.22-.17.3h0Z"/><path class="cls-2" d="m43.41,91.53c-.06-.34-.12-.67-.18-1.01-.35-.84-.44-1.72-.44-2.63,0-13.99.02-27.97-.02-41.96,0-1.37.74-2.68.21-4.06l-.07.03c-.14-.25-.18-.49.03-.73.27-.04.62-.28.7.19.07.41.03.83.03,1.25,0,15.73,0,31.45,0,47.18,0,.58.16,1.2-.26,1.73Z"/><path class="cls-109" d="m38.26,61.32c-.35,0-.7,0-1.06,0,0-2.16,0-4.32,0-6.48v-3.19c-.54-.03-.22.52-.98.74,1.16-2.83.99-5.59.98-8.35,1.05-.38.85.42.89.96.1,1.35-.18,2.72.17,4.06,0,4.08,0,8.16,0,12.24Z"/><path class="cls-99" d="m78.67,38.94h-24.69v-.44h24.69c0,.15,0,.29,0,.44Z"/><path class="cls-115" d="m46.47,88.02c-1.11-.88-1.31-1.66-1.37-2.62-.15-2.35.28-4.68-.31-7.07-.25-1.02,1.32-1.92,2.97-2.57-1.75,4.04-.96,8.05-1.28,12.26Z"/><path class="cls-116" d="m78.94,46.21c-7.68,0-15.35,0-23.03,0,.14-.88.82-.71,1.39-.72,6.75,0,13.5,0,20.24,0,.57,0,1.26-.16,1.39.71Z"/><path class="cls-112" d="m55.91,49.09c7.68,0,15.35,0,23.03,0-.14.88-.82.71-1.39.71-6.75,0-13.5,0-20.24,0-.57,0-1.26.16-1.39-.72Z"/><path class="cls-14" d="m90.51,75.69c-11.91.02-23.82.05-35.73.07-1.08,0-2.15-.04-3.23-.07.2-.78.66-.55,1.13-.3.12,0,.23,0,.35,0,.36-.31.8-.2,1.2-.2,11.64,0,23.29,0,34.93,0,.4,0,.85-.12,1.19.23.04.1.1.19.16.28Z"/><path class="cls-1" d="m90.35,75.41c-12.44.11-24.88.16-37.32-.03.39-.52.97-.39,1.49-.39,11.63,0,23.25,0,34.88,0,.34,0,.68.07,1.02.11.02,0,.04.1.03.15-.01.05-.06.1-.1.15Z"/><path class="cls-11" d="m85.78,51.22c-.93-.26-1.88-.29-2.84-.29-10.54,0-21.09,0-31.63-.01.05-.61.32-1.26.97-.85,1.2.75,2.44.43,3.66.43,9.19.04,18.38.02,27.58.02.77,0,1.56-.08,2.26.36h0c0,.11,0,.23,0,.34Z"/><path class="cls-108" d="m52.68,55.94c10.67,0,21.34,0,32.01,0-.48.52-1.12.33-1.69.33-9.54.01-19.09.01-28.63,0-.57,0-1.21.18-1.69-.33Z"/><path class="cls-56" d="m51.59,63.48c-.1,0-.19,0-.29,0-.31-.19-.26-.45-.13-.72.2-.54.68-.39,1.07-.39,9.08,0,18.16,0,27.24,0,.29,0,.58.1.87.15-.31.26-.75.42-.7.94-.24,0-.48,0-.72,0-.55-.52-1.24-.35-1.89-.35-7.86-.01-15.71,0-23.57,0-.65,0-1.33-.11-1.9.35Z"/><path class="cls-124" d="m80.37,44.43c-.48.52-1.12.34-1.69.34-9.15,0-18.3,0-27.46,0-.09-.27,0-.44.27-.53,9.63,0,19.26-.05,28.89.03v.16Z"/><path class="cls-115" d="m30.01,44.77v-3.78c1.03.25.66.91.71,1.36.08.74-.16,1.51.95,1.82.61.17.76,2.59.25,3.08-.61.59-1.04.19-1.11-.42-.08-.69-.25-1.26-.79-1.7-.11-.08-.15-.16-.11-.24.04-.08.07-.12.11-.12Z"/><path class="cls-69" d="m30.37,35.77c.53-.63.86-1.37,1.08-2.16h0c.33.11.67.22,1,.33-.87,1.52-2.22,2.79-2.46,4.64-.05.17-.15.22-.3.13-1.1-1.29.56-1.94.69-2.94h0Z"/><path class="cls-9" d="m51.33,55.55c.09.13.18.26.27.39-.65.44-1.19.53-.93-.51.25-.98.38-1.86-.18-2.82-.34-.58-.54-1.44.71-1.35,0,0,.14-.04.14-.04.16,1.44.12,2.89,0,4.33Z"/><path class="cls-4" d="m51.25,44.38c0,.13-.02.26-.03.39-.17-.04-.49-.09-.49-.11.14-1.52.22-3.01-.35-4.49-.08-.21.51-.4.88-.42.02.36.03.72.05,1.08.13,1.19.23,2.38-.06,3.56Z"/><path class="cls-109" d="m51.81,61.63c1.32-.33,2.59-.48,4.3.01-1.75.67-3.05.22-4.3-.01Z"/><path class="cls-3" d="m38.26,49.08c-.67-1.1-.19-2.32-.34-3.47-.08-.6.27-1.39-.72-1.56-.5-.05-1.06.15-1.44-.36.84-.29,1.68-.27,2.52,0,0,0,.02,0,.02,0-.01,1.8-.03,3.6-.04,5.4Z"/><path class="cls-12" d="m38.28,43.69c-.84,0-1.68,0-2.52,0,0,0-.1-.1-.1-.1h-.14s-.14.12-.14.12l.11-.14c.06-.1.05-.18-.05-.24-.33-1.32-.33-2.65,0-3.97.12-.1.23-.21.35-.31,0,.24.03.47.02.71-.14,1.92-.38,3.9,2.48,3.92Z"/><path class="cls-69" d="m32.94,33.32c-.13-.96.44-1.6,1.03-2.23h0c.57,0,1.14-.02,1.72-.03-.91.75-1.83,1.5-2.74,2.25Z"/><path class="cls-69" d="m37.56,30c-.36.27-.71.53-1.07.8-.25.08-.51.15-.76.23-.25-.32-.74-.48-.68-1h0c.83-.99,1.67-.07,2.51-.02Z"/><path class="cls-126" d="m47.55,79.68c0,2.15,0,4.31,0,6.46-.45-2.15-.45-4.31,0-6.46Z"/><path class="cls-6" d="m40.44,39.09c-.22-.03-.45-.07-.67-.1-1.3-.42-2.66.04-3.97-.25,1.58-.77,4.11-.63,5,.26-.09.15-.21.17-.36.09Z"/><path class="cls-7" d="m51.18,62.76c.04.24.08.48.13.72-.02,1.2-.04,2.39-.06,3.59-.5-1.43-.79-2.86-.07-4.3Z"/><path class="cls-12" d="m35.8,38.74c1.31.22,2.67-.21,3.97.25-1.32.01-2.64.03-3.96.04-.02-.1-.02-.19,0-.29Z"/><path class="cls-3" d="m35.44,39.37c.17,1.32.17,2.65,0,3.97-.64-1.32-.64-2.65,0-3.97Z"/><path class="cls-1" d="m52.68,75.38c-.38.1-.76.2-1.13.3-.22.04-.45.07-.67.11-.21.1-.43.1-.66.06.54-1.64,1.55-.81,2.46-.47Z"/><path class="cls-5" d="m28.9,42.97c.01-.24.02-.48.03-.72.05-.14.14-.19.28-.15.17.88-.09,1.84.43,2.66h0c-.12.25-.25.5-.37.75-.12-.37-.25-.74-.37-1.11-.28-.48-.24-.96,0-1.44Z"/><path class="cls-123" d="m55.21,90.83c-.13.02-.25.03-.38.05-.94-.21-1.97.27-2.87-.33.95-.05,1.91-.1,2.86-.14.14-.09.29-.1.43,0,.08.15.06.3-.05.43Z"/><path class="cls-55" d="m29.22,42.11c-.1.04-.19.08-.28.15-.34-.14-.59-.38-.73-.72.33-.12.65-.23.98-.35,0,.31.02.61.02.92Z"/><path class="cls-114" d="m90.82,31.46c.03-.32.09-.61.52-.42.09.04.24.19.23.22-.16.34-.49.15-.74.2h0Z"/><path class="cls-88" d="m86.94,54.12c0-.48,0-.96,0-1.44.42.48.45.96,0,1.44Z"/><path class="cls-127" d="m53.02,99.01c-.47,0-.95,0-1.42,0,.47-.38.95-.38,1.42,0Z"/><path class="cls-11" d="m86.8,52.14c-.22-.21-.43-.43-.65-.64.76-.34.64.22.65.64Z"/><path class="cls-5" d="m29.62,39.67c.02.4.1.81-.28,1.11,0,0-.12.05-.12.05-.09-.13-.16-.27-.21-.43-.02-.16,0-.32.04-.48.04-.07.08-.14.12-.21.07-.04.14-.08.21-.12.08.02.15.04.23.06Z"/><path class="cls-125" d="m35.36,56.83c-.12-.42-.25-.83-.37-1.25.53.29.41.78.37,1.25Z"/><path class="cls-125" d="m35.09,58.1c.09-.43.18-.85.27-1.28.04.45.14.92-.27,1.28Z"/><path class="cls-126" d="m47.63,86.88c.07.23.15.45.22.68-.07-.23-.15-.45-.22-.68Z"/><path class="cls-12" d="m40.44,39.09c.12-.03.24-.06.36-.09.11.13.22.26.33.39-.28.02-.52-.05-.69-.3Z"/><path class="cls-14" d="m50.22,75.86c.22-.02.44-.04.66-.06-.17.26-.43.32-.72.28.03-.07.05-.14.06-.21Z"/><path class="cls-42" d="m93.04,76.05c-.26-.08-.51-.16-.77-.24.29-.04.59-.08.77.24Z"/><path class="cls-125" d="m33.97,59.18c.13-.1.26-.2.39-.3-.13.21-.26.43-.39.64-.09-.08-.12-.15-.09-.22.03-.07.06-.11.09-.11Z"/><path class="cls-69" d="m32.53,33.26c.14.02.28.03.43.05-.15.2-.3.39-.46.59,0-.21.02-.42.03-.64h0Z"/><path class="cls-27" d="m42.95,41.18c-.01.24-.02.48-.03.73-.3-.25-.3-.57-.26-.92.1.05.2.12.29.19Z"/><path class="cls-60" d="m31.4,51.62c-.12-.22-.23-.44-.35-.66.3.12.32.39.35.66Z"/><path class="cls-5" d="m30.37,49.42c-.07-.22-.15-.45-.22-.67.07.22.15.45.22.67Z"/><path class="cls-5" d="m29.99,48.41c-.1-.25-.2-.5-.3-.76.27.19.33.45.3.76Z"/><path class="cls-118" d="m59.82,95.48c-.1.13-.2.26-.3.38-.35-.48.16-.29.3-.38Z"/><path class="cls-5" d="m29.67,38.71c.1-.05.2-.09.3-.13.03.29.01.56-.24.76-.07-.04-.14-.08-.2-.12.03-.07.06-.14.1-.22.07-.09.09-.19.05-.3Z"/><path class="cls-126" d="m47.92,78.23c-.09.14-.17.28-.26.42.09-.14.17-.28.26-.42Z"/><path class="cls-126" d="m48.31,77.49c-.1.15-.19.3-.29.45.1-.15.19-.3.29-.45Z"/><path class="cls-126" d="m48.63,77.13c-.1.11-.2.22-.29.33.1-.11.2-.22.29-.33Z"/><path class="cls-14" d="m49.1,76.86c-.11.1-.21.21-.32.31.11-.1.21-.21.32-.31Z"/><path class="cls-42" d="m95.2,76.77c-.14-.08-.28-.16-.41-.24.14.08.28.16.41.24Z"/><path class="cls-14" d="m49.46,76.5c-.11.11-.21.21-.32.32.11-.11.21-.21.32-.32Z"/><path class="cls-42" d="m94.12,76.41c-.14-.08-.28-.16-.41-.24.14.08.28.16.41.24Z"/><path class="cls-14" d="m49.8,76.19c-.1.09-.2.18-.3.27.1-.09.2-.18.3-.27Z"/><path class="cls-113" d="m33.96,60.24c0-.12,0-.24,0-.36.05.09.1.17.13.26,0,.02-.09.07-.13.1Z"/><path class="cls-113" d="m33.97,59.18c0,.11,0,.22,0,.34-.12-.1-.23-.2-.35-.3.11-.06.23-.07.35-.04Z"/><path class="cls-61" d="m50.81,90.13c.14.08.28.16.42.25-.14-.08-.28-.16-.42-.25Z"/><path class="cls-125" d="m34.41,58.82c.1-.1.2-.2.3-.29-.1.1-.2.2-.3.29Z"/><polygon class="cls-118" points="59.15 90.46 59.01 90.38 59.07 90.32 59.15 90.46"/><path class="cls-125" d="m34.77,58.46c.1-.11.19-.22.29-.33-.1.11-.19.22-.29.33Z"/><path class="cls-60" d="m32.03,52.32c-.08-.09-.16-.18-.25-.27.08.09.16.18.25.27Z"/><path class="cls-60" d="m31.73,51.99c-.1-.11-.2-.22-.3-.33.1.11.2.22.3.33Z"/><path class="cls-11" d="m85.78,50.89s.05-.1.08-.14c-.03.05-.05.1-.08.14h0Z"/><path class="cls-60" d="m31.01,50.91c-.09-.12-.19-.24-.28-.37.09.12.19.24.28.37Z"/><path class="cls-60" d="m30.59,50.16c-.08-.11-.15-.22-.23-.33.08.11.15.22.23.33Z"/><path class="cls-5" d="m29.59,47.1c-.07-.18-.14-.35-.21-.53.07.18.14.35.21.53Z"/><path class="cls-5" d="m30.01,44.77c0,.12,0,.24,0,.36-.12-.12-.24-.24-.36-.36,0,0,0,0,0,0,.12,0,.24,0,.36,0Z"/><path class="cls-3" d="m35.52,43.6c-.06.06-.13.11-.19.17.05-.06.11-.13.16-.19,0,0,.03.03.03.03Z"/><path class="cls-13" d="m81.38,40.47c-.08-.08-.17-.16-.25-.25,0,0-.1-.09-.1-.09l.06-.12c.17-.01.28.06.33.23,0,.08-.01.15-.04.23Z"/><path class="cls-119" d="m81.42,40.24c-.11-.08-.22-.15-.33-.23.3-.19.31.03.33.23Z"/><path class="cls-13" d="m80.78,40.06c-.14-.08-.28-.16-.42-.24.14.08.28.16.42.24Z"/><path class="cls-55" d="m29.62,39.67c-.1.04-.19.08-.29.1-.14-.26-.11-.41.23-.37.05-.05.11-.07.18-.06-.11.08-.14.19-.11.32Z"/><path class="cls-12" d="m41.61,39.7c-.15-.1-.31-.19-.46-.29.15.1.31.19.46.29Z"/><path class="cls-104" d="m93.68,98.3c-.1.06-.2.09-.32.1-.23.17-.5.15-.76.2-.9-.15-1.74.05-2.55.47-1.73-.02-3.47.18-5.19-.12-.51-.36-.57-.85-.43-1.41.07-.2.2-.35.38-.46,1.6-.3,3.23-.07,4.83-.14.16,0,.33,0,.48.02.12,0,.23.05.3.12-.23-.28-.52-.08-.77-.14-1.71.03-3.42-.06-5.13.05-5.41.21-10.82.1-16.22.06-.54,0-1.02-.54-1.6-.18-.44.28-.81.82-1.45.47-.19-.18-.29-.4-.32-.65-.02-.25.01-.49.1-.73.06-.15.14-.29.23-.43.17-.29.22-.62.26-.95.52-2.06.84-4.14.62-6.26-.09-.77-.24-1.52-.41-2.28-.13-.45-.23-.92-.41-1.36-.09-.21-.18-.41-.27-.62-.06-.13-.11-.27-.15-.41-.08-.28-.14-.55-.15-.84-.05-.16.28-.32,0-.48-.11-.1-.2-.22-.29-.34-.08-.14-.14-.29-.18-.45-.02-.18,0-.35.04-.52.07-.18.18-.32.33-.44.93-.27,1.86-.33,2.78.05.39.93-.17,1.11-.9,1.16-.19-.01-.35-.16-.56-.12.26.09.52.2.74.38.47,1.12,1.11,1.77,2.51,1.76,6.76-.06,13.52-.02,20.28-.04.4,0,.85.11,1.14-.32.14-.4.13-.85.37-1.22.18-.21.41-.28.68-.26.53.19,1.04.46,1.63.41.23.13.38.14.31-.22.17-.38.47-.58.89-.61.43.06.8.22.94.69l-.02-.02c.28.1.53.25.79.36.12.08.24.17.34.27.31.31.62.63.92.95.15.17.3.33.41.53.28.52.11,1.21.6,1.66.19.14.35.31.44.53.07.23.08.46.03.7-.09.38-.17.75-.27,1.12-.04.15-.11.28-.18.42-.56.6-.02,1.09.18,1.61.16.6.18,1.19-.11,1.77-.15.22-.37.32-.62.34-.34-.02-.7-.2-.99.16-.85.93.5,1.9-.05,2.84-.1.14-.2.27-.3.41-.18.09-.31.22-.37.42-.14.23-.27.47-.41.7-.14.09-.27.17-.41.26-.23.12-.46.25-.69.37-.09.11-.2.17-.34.19-.13.02-.25.08-.36.17l.03.04c-.13.09-.26.18-.4.25Z"/><path class="cls-38" d="m66.65,87.94c.42,2.45-.26,4.79-.7,7.15-.17.23-.1.57-.38.75-.09,0-.17.02-.26.04-.21.2-.44.18-.68.04-.16-.17.02.07-.13-.11-.07-.09-.15-.17-.2-.27.02.08.09.14.13.21.17.16.37.28.51.46.07.14.07.29.01.44-.2.14-.4.17-.63.08-.06-.06-.1-.2-.23-.07.11-.06.17-.01.19.15-.06.33-.24.56-.55.69-.25.05-.47,0-.64-.19h0c-.19-.22-.52-.15-.72-.36-.34-1.19-.67-2.39-1.01-3.58.18-.85.37-1.7.55-2.55-.08-.2-.08-.41-.06-.62.06-.2.13-.39.19-.59.06-.12.14-.23.24-.31.27-.18-.14-.18-.08-.31-.07-.19-.09-.37,0-.56-.08-.14.35-.1.1-.29-.13,0-.23-.07-.29-.19-.19-.61-.39-1.22-.58-1.82.4-.55.17-1.18.23-1.78.21-.2.43-.22.67-.05.15.18-.02-.07.12.12.07.09.14.18.19.29,0-.08-.07-.12-.11-.19-.21-.22-.42-.42-.56-.68-.1-.19-.16-.4-.32-.56.28-1.18,1.19-.74,1.93-.75.27.08.51.21.67.45.25,1.13.83,2.18.84,3.38,0,.5.32.72.79.76.31.22.39.66.75.84Z"/><path class="cls-28" d="m63.11,97.3c.24,0,.48,0,.72,0,.09.09.14.21.14.34-.01.19.01.37.08.55.04.06.06.11.1.17.05.05.1.09.16.14.16.05.32.08.49.09,5.8.01,11.6,0,17.39,0,.71,0,1.43-.06,2.14.12.3.11.6.22.92.24.23.11.29.27.18.5-.29.16-.37.43-.38.73-.61.55-1.36.35-2.05.35-5.06.02-10.12,0-15.18.01-1.74-.04-3.63.71-5.08-.93-.22-.21-.36-.49-.51-.76-.09-.3-.05-.58.16-.83.87.39.69-.26.72-.72Z"/><path class="cls-15" d="m42.99,41.87c.43.44.34,1,.34,1.53,0,15.41,0,30.81,0,46.22,0,.3-.05.59-.08.89-.11-.14-.22-.28-.33-.42-.43-.65-.29-1.39-.29-2.1,0-14.07,0-28.14,0-42.21,0-.71-.13-1.45.29-2.1,0-.36,0-.73,0-1.09-.09-.11-.1-.22-.02-.34.04-.13.07-.26.11-.39Z"/><path class="cls-24" d="m42.9,43.69c.02,10.51.05,21.03.06,31.54,0,4.96-.04,9.91-.06,14.87-.1,0-.2,0-.3,0-.33-.62-.17-1.29-.17-1.94-.01-14.06,0-28.12-.02-42.18,0-.64.17-1.32-.18-1.93.14-.27.38-.35.66-.36Z"/><path class="cls-64" d="m42.24,44.05c.61.6.35,1.36.35,2.05.02,14.67.01,29.34.01,44.01-.61-.6-.35-1.36-.35-2.05-.02-14.67-.01-29.34-.01-44.01Z"/><path class="cls-50" d="m67.43,100.18h17.63c1.58.11,3.19-.25,4.73.25,0,.16,0,.31,0,.47h-22.36c-.21-.24-.21-.48,0-.72Z"/><path class="cls-27" d="m67.43,100.18c0,.24,0,.48,0,.72-.24,0-.48,0-.72,0-.35.49-1.09.22-1.44.72h-1.44c-.35-.5-1.08-.23-1.44-.72-1.12-.23-.5-.9-.36-1.44.11-.16.16-.38.36-.47.14-.03.26,0,.36.11,1.3,1.48,3.05,1.03,4.68,1.08Z"/><path class="cls-35" d="m39.36,43.33c.16-.77-1.65-1.16-.48-2.06.85-.65,1.68-.35,2.23.58.14.25.27.5.41.76.03,1.65-.24,1.74-2.16.72Z"/><path class="cls-40" d="m99.81,91.54c.04.68.95,1.01.72,1.8.19.21.52.16.72.36,0,0,0,0,0,0-.07.63.17,1.3-.22,1.93-.78-.05-.32-1.34-1.22-1.21-.3-.08-.52-.28-.73-.48-.25-.27-.41-.59-.49-.95-.01-.14,0-.27.06-.4.3-.19-.11-.27-.07-.42,0-.15.03-.28.1-.41.24-.33.55-.49.96-.36.06.05.11.1.17.15Z"/><path class="cls-86" d="m96.93,95.48c-.31-1.07-1.71-2.15,0-3.22.24.18.48.18.72,0,.24,0,.47,0,.71,0,.14.14.2.3.2.5.3,1.08-.25,1.77-1.08,2.34-.19.13-.37.26-.56.39Z"/><path class="cls-71" d="m97.48,95.09c.25-.82,1.04-1.43.92-2.39.05-.2.15-.23.31-.1.13.37.25.74.38,1.1.4.48.25.96,0,1.44-.53-.09-1.06-.25-1.61-.05Z"/><path class="cls-16" d="m85.44,99.45c-.01-.1-.02-.2-.03-.3,1.49-.46,3.01-.13,4.51-.2.24.1.31.27.2.51-1.56,0-3.12,0-4.68-.01Z"/><path class="cls-37" d="m99.09,95.14c-.34-.48-.02-.96,0-1.44.46.02.7.26.72.72-.1.43.26,1.03-.37,1.24-.23.08-.31-.28-.35-.52Z"/><path class="cls-45" d="m65.27,101.62c.12-.95.87-.66,1.44-.72-.12.95-.87.66-1.44.72Z"/><path class="cls-25" d="m62.39,100.9c.57.06,1.31-.23,1.44.72-.57-.06-1.31.23-1.44-.72Z"/><path class="cls-41" d="m96.02,100.53c-.04.31-.28.33-.51.32-.23,0-.5-.01-.5-.32,0-.31.28-.32.5-.32.23,0,.47.01.51.32Z"/><path class="cls-59" d="m95.43,98.73c.32.09.65.1.54.42-.05.14-.35.25-.55.26-.21.02-.53-.05-.43-.37.05-.15.33-.23.44-.31Z"/><path class="cls-18" d="m90.11,99.46c0-.1,0-.19,0-.29.09-.27.37-.24.56-.36.44-.16.91-.15,1.36-.23.15-.01.31,0,.46.03.04.07.07.13.11.2-.55,1.27-1.67.39-2.48.65Z"/><path class="cls-36" d="m62.39,98.02v.72c-.03.12-.1.22-.19.3-.06.02-.11.04-.17.06-.58-.59-.4-.93.36-1.08Z"/><path class="cls-97" d="m92.6,98.37c.25,0,.51.02.76.03-.26.14-.51.27-.77.41,0,0-.04-.09-.04-.09l.07-.07c-.13-.05-.18-.11-.14-.17.04-.07.08-.1.12-.1Z"/><path class="cls-53" d="m62.39,96.94c.3,0,.56.08.72.36-.29,0-.56-.08-.72-.36Z"/><path class="cls-38" d="m61.03,94.05c.09-.14.17-.28.26-.42-.09.14-.17.28-.26.42Z"/><path class="cls-71" d="m102.33,94.06c.11-.19.23-.21.35,0-.12,0-.23,0-.35,0Z"/><path class="cls-38" d="m60.65,94.79c.09-.14.19-.29.28-.43-.09.14-.19.29-.28.43Z"/><path class="cls-71" d="m102.32,95.15l-.14-.09c.05.02.1.05.16.07,0,0-.02.02-.02.02Z"/><path class="cls-81" d="m96.26,96.31c.12-.14.25-.28.37-.42-.12.14-.25.28-.37.42Z"/><path class="cls-34" d="m95.44,97.28c.14-.09.27-.18.41-.26-.14.09-.27.18-.41.26Z"/><path class="cls-27" d="m42.87,42.26c.06.11.06.22.02.34-.04-.08-.09-.15-.12-.23,0-.02.06-.07.1-.1Z"/><path class="cls-129" d="m94.05,98c.12-.12.23-.23.35-.35.1.07.13.14.09.2-.04.06-.07.09-.11.09l-.16.06h-.17Z"/><path class="cls-97" d="m94.38,97.94c0-.1,0-.19.02-.29.12-.01.23-.01.35,0-.04.2-.15.32-.37.3Z"/><path class="cls-97" d="m93.68,98.3c.13-.08.27-.17.4-.25-.13.08-.27.17-.4.25Z"/><path class="cls-36" d="m62.39,99.1c-.12.12-.24.24-.36.36,0-.12,0-.24,0-.36h0c.12-.13.24-.13.36,0Z"/><path class="cls-23" d="m91.9,28.22c-.48-.32-.96-.32-1.44,0-.75-.57-1.62-.35-2.44-.35-13.61-.01-27.22,0-40.84-.01-.78,0-1.56.03-2.34-.04-.48-.07-.74-.51-1.17-.67h0c-.07-.08-.09-.16-.07-.24.02-.08.05-.12.07-.12.12,0,.24,0,.36,0,14.93,0,29.86,0,44.79,0,.83,0,1.65.07,2.49-.2.51-.17.24.33.21.57h0c.41.26.35.68.36,1.08Z"/><path class="cls-29" d="m44.4,27.5c14.71,0,29.42,0,44.12.02.67,0,1.63-.47,1.93.7-15.59,0-31.18,0-46.78,0,.12-.24.24-.48.36-.72.12-.14.24-.14.36,0Z"/><path class="cls-69" d="m43.68,28.22c.6.61,1.36.35,2.05.35,14.56.02,29.13,0,43.69.02.7,0,1.44-.21,2.09.25-15.65.01-31.29.02-46.94.04-1.02,0-2.03.08-3.05.12-.45.26-1.02-.09-1.45.29l-.35.12c-.2.05-.4.06-.6.03-.05-.05-.09-.1-.14-.15,0-.36,0-.72.01-1.08,1.44-.71,2.88-.39,4.32,0,.12,0,.24,0,.36,0Z"/><path class="cls-29" d="m43.32,28.22c-1.44,0-2.88,0-4.32,0-.39-.24-.04-.48,0-.72h0c.12,0,.24,0,.36,0,.24-.21.48-.21.72,0h1.08c.36-.25.72-.32,1.08,0,.13.59,1.16-.17,1.08.72Z"/><path class="cls-69" d="m29.56,39.41c-.08.12-.15.25-.23.37,0,0,.01-.02.01-.02-.18.09-.23.27-.31.43-.07.1-.16.18-.28.24-.06,0-.12.02-.18.03-.12,0-.24,0-.36,0-.12.11-.24.11-.36,0,0-.3.08-.56.36-.72.11-.13.25-.23.36-.36h0c.12-.12.24-.24.36-.36h0c.12-.14.24-.15.36,0,.11,0,.23,0,.34,0-.02.13-.05.26-.07.39Z"/><path class="cls-69" d="m29.29,32.9c.48-.73.96-.33,1.44,0h0c-.48.5-.96.92-1.44,0h0Z"/><path class="cls-69" d="m42.24,27.5c-.36,0-.72,0-1.08,0,.27-.29.52-.63.84-.85.11-.08.51.05.6.2.22.35-.33.38-.36.65Z"/><path class="cls-69" d="m33.25,31.1c.09-.15.15-.37.29-.43.31-.15.28-.96.78-.55.49.4-.2.65-.34.98,0,0,0,0,0,0-.24,0-.48,0-.72,0h0Z"/><path class="cls-55" d="m28.9,42.97c0,.48,0,.96,0,1.44l-.7-.72c.28-.16.35-.42.36-.72h0c.11,0,.22,0,.34,0Z"/><path class="cls-69" d="m28.57,33.62v1.08h0c-.24-.12-.48-.24-.72-.36,0,0,0,0,0,0,.24-.24.48-.48.72-.72h0Z"/><path class="cls-69" d="m35.04,28.22c-.02.46-.26.7-.72.72h0c.24-.24.48-.48.72-.72h0Z"/><path class="cls-69" d="m41.16,26.06c0,.3-.08.56-.36.72-.18-.39-.27-.73.36-.72Z"/><path class="cls-69" d="m29.33,34.09c.07.08.13.15.2.23-.08.04-.16.09-.24.11-.03,0-.11-.09-.1-.12.03-.08.09-.14.14-.22Z"/><path class="cls-69" d="m32.53,33.26c-.09-.12-.18-.25-.26-.37.42-.11.17.25.26.37h0Z"/><path class="cls-69" d="m26.77,41.53c0-.24,0-.48,0-.72.36.24.36.48,0,.72Z"/><path class="cls-69" d="m44.4,27.5c-.12,0-.24,0-.36,0-.12-.12-.24-.24-.36-.36.3,0,.56.08.72.36Z"/><path class="cls-55" d="m29.24,40.45c0,.13-.01.25-.02.38-.22-.13-.44-.25-.66-.38,0,0,0,0,0,0,.22-.19.45-.22.68,0Z"/><path class="cls-69" d="m40.08,27.5h-.72c.24-.36.48-.36.72,0Z"/><path class="cls-69" d="m40.71,25.57s.07-.13.08-.13c.1.03.21.06.28.12.15.13.12.18-.07.12-.1-.03-.2-.08-.29-.12Z"/><path class="cls-69" d="m35.04,30.02c-.09-.12-.18-.25-.26-.37.42-.11.17.25.26.37h0Z"/><path class="cls-69" d="m30.2,34.21s.07.09.07.14c0,.04-.06.08-.09.12,0-.08.02-.17.02-.25Z"/><path class="cls-69" d="m29.29,31.82l.13-.46c.32.26,0,.33-.13.46,0,0,0,0,0,0Z"/><path class="cls-69" d="m39.49,25.55c-.09.03-.14.04-.19.06-.01-.04-.02-.09-.04-.13.06.02.13.04.23.07Z"/><path class="cls-69" d="m39.72,26.42h-.72c.24-.36.48-.36.72,0h0Z"/><path class="cls-69" d="m30.37,35.77c-.09-.12-.18-.25-.26-.37.42-.11.17.25.26.37,0,0,0,0,0,0Z"/><path class="cls-63" d="m25.33,46.21c.15.04.3.09.46.13-.26.32-.33,0-.46-.13h0Z"/><path class="cls-69" d="m28.21,38.65c.24-.36.48-.36.72,0h0c-.24,0-.48,0-.72,0h0Z"/><path class="cls-69" d="m38.62,29.65c-.22.07-.45.15-.67.22.22-.07.45-.15.67-.22Z"/><path class="cls-69" d="m39,29.66c-.12,0-.24,0-.36-.01.12-.12.24-.23.35-.35,0,0,.11.1.11.1.07.12.04.21-.1.26Z"/><path class="cls-69" d="m33.25,31.1s-.05.1-.08.14c.03-.05.05-.1.08-.14h0Z"/><polygon class="cls-69" points="32.53 29.3 32.67 29.38 32.61 29.44 32.53 29.3"/><path class="cls-69" d="m34.32,28.94l-.08.14s.05-.1.08-.14h0Z"/><path class="cls-69" d="m29.29,32.9c-.12-.12-.24-.24-.36-.36,0,0,0,0,0,0,.12.12.24.24.36.36,0,0,0,0,0,0Z"/><path class="cls-69" d="m30.73,32.9s.05-.1.08-.14c-.03.05-.05.1-.08.14h0Z"/><path class="cls-69" d="m35.04,28.22s.05-.1.08-.14c-.03.05-.05.1-.08.14h0Z"/><path class="cls-69" d="m28.57,33.62s.05-.1.08-.14c-.03.05-.05.1-.08.14,0,0,0,0,0,0Z"/><path class="cls-69" d="m39,27.5s-.1-.05-.14-.08c.05.03.1.05.14.08h0Z"/><path class="cls-69" d="m43.68,26.78c0,.12,0,.24,0,.36-.05-.09-.1-.17-.13-.26,0-.02.08-.07.13-.1Z"/><path class="cls-69" d="m31.45,33.62s-.1-.05-.14-.08c.05.03.1.05.14.08,0,0,0,0,0,0Z"/><polygon class="cls-69" points="40.8 26.78 40.72 26.92 40.66 26.86 40.8 26.78"/><path class="cls-69" d="m28.57,34.7s.1.05.14.08c-.05-.03-.1-.05-.14-.08h0Z"/><path class="cls-69" d="m39.72,26.42s.1.05.14.08c-.05-.03-.1-.05-.14-.08h0Z"/><path class="cls-69" d="m27.85,35.05s.1.05.14.08l-.14-.08s0,0,0,0Z"/><path class="cls-69" d="m26.77,35.77s.1.05.14.08c-.05-.03-.1-.05-.14-.08,0,0,0,0,0,0Z"/><path class="cls-63" d="m25.33,45.49s.05-.1.08-.14c-.03.05-.05.1-.08.14,0,0,0,0,0,0Z"/><path class="cls-69" d="m27.85,39.01c-.05-.09-.1-.17-.13-.26,0-.02.08-.07.13-.1.08.08.11.16.08.24-.03.08-.05.12-.08.12Z"/><path class="cls-55" d="m27.85,39.01c0-.12,0-.24,0-.36.12,0,.24,0,.36,0,0,0,0,0,0,0-.12.12-.24.24-.36.36Z"/><path class="cls-55" d="m29.29,39.01c-.12,0-.24,0-.36,0,0-.12,0-.24,0-.36,0,0,0,0,0,0,.12.12.24.24.36.36Z"/><polygon class="cls-55" points="28.21 43.69 28.06 43.61 28.13 43.55 28.21 43.69"/><path class="cls-69" d="m39,26.42s-.05.1-.08.14c.03-.05.05-.1.08-.14h0Z"/><path class="cls-55" d="m28.57,42.97c-.12-.12-.24-.24-.36-.36h0c.12.12.24.24.36.36,0,0,0,0,0,0Z"/><path class="cls-55" d="m28.21,42.61s-.1-.05-.14-.08c.05.03.1.05.14.08h0Z"/><path class="cls-69" d="m41.16,26.06c0-.12,0-.24,0-.36.05.09.1.17.13.26,0,.02-.08.07-.13.1Z"/><polygon class="cls-55" points="28.21 41.53 28.06 41.45 28.13 41.39 28.21 41.53"/><path class="cls-55" d="m28.93,39.01c-.12.12-.24.24-.36.36.12-.12.24-.24.36-.36Z"/><path class="cls-55" d="m27.85,40.45c.12,0,.24,0,.36,0-.12.2-.24.2-.36,0Z"/><path class="cls-69" d="m26.77,39.73s.05-.1.08-.14c-.03.05-.05.1-.08.14,0,0,0,0,0,0Z"/><path class="cls-55" d="m28.57,39.37c-.12.12-.24.24-.36.36.12-.12.24-.24.36-.36Z"/><path class="cls-67" d="m99.09,86.14c.24,0,.48,0,.72,0,0,.6,0,1.2,0,1.8.48.66.43,1.37.16,2.09-.23.26-.51.3-.83.2-.66-.51-.43-1.22-.41-1.88,0-.18,0-.36.02-.53.03-.34.19-.66.17-1,0-.16,0-.33,0-.49.06-.06.11-.12.17-.18Z"/><path class="cls-51" d="m99.81,90.1c0-.72,0-1.44,0-2.16,1.03.97,1.03,2.62,0,3.6,0,0,0,0,0,0-.39-.48-.39-.96,0-1.44Z"/><path class="cls-71" d="m101.99,91.47c-.53.03-.71-.23-.7-.64,0-.23,0-.54.31-.52.45.02.36.52.58.77.35.38-.31.17-.2.39Z"/><path class="cls-67" d="m99.45,84.35c-.08.03-.23.1-.23.1-.12-.25.05-.36.23-.46,0,.12,0,.24,0,.36Z"/><path class="cls-71" d="m101.25,93.7c-.3,0-.56-.08-.72-.36.3,0,.56.08.72.36Z"/><path class="cls-67" d="m100.17,83.27c0-.3.08-.56.36-.72,0,.3-.08.56-.36.72Z"/><path class="cls-67" d="m99.81,83.63c.12-.12.24-.24.36-.36,0,.12,0,.24,0,.36h0c-.12,0-.24,0-.36,0Z"/><path class="cls-67" d="m99.45,83.98c.12-.12.24-.24.36-.36-.12.12-.24.24-.36.36Z"/><path class="cls-67" d="m100.17,83.63l.36.36h0c-.12-.12-.24-.24-.36-.36,0,0,0,0,0,0Z"/><path class="cls-67" d="m100.53,83.99s.1.05.14.08c-.05-.03-.1-.05-.14-.08,0,0,0,0,0,0Z"/><polygon class="cls-71" points="102.33 91.18 102.41 91.04 102.47 91.1 102.33 91.18"/><polygon class="cls-71" points="102.33 92.62 102.41 92.48 102.47 92.54 102.33 92.62"/><polygon class="cls-71" points="102.33 92.62 102.25 92.76 102.19 92.7 102.33 92.62"/><path class="cls-63" d="m24.98,39.36s.09.06.14.09c-.05-.02-.1-.05-.16-.07,0,0,.02-.02.02-.02Z"/><path class="cls-63" d="m25.33,41.89s-.1-.05-.14-.08c.05.03.1.05.14.08h0Z"/><path class="cls-63" d="m25.69,41.17s.1.05.14.08l-.14-.08h0Z"/><path class="cls-63" d="m25.69,41.17c-.05-.09-.1-.17-.13-.26,0-.02.08-.07.13-.1h0c0,.12,0,.24,0,.36h0Z"/><path class="cls-46" d="m24.61,42.97c.12-.12.24-.24.36-.36-.12.12-.24.24-.36.36Z"/><path class="cls-54" d="m51.33,55.55c-.15-1.44-.15-2.89,0-4.33.28.16.56.32.84.47-1.19,1.09-.08,2.67-.84,3.85Z"/><path class="cls-50" d="m89.38,79.31c.36.24.72.48,1.08.71-.62.65-1.43.51-2.19.51-6.21.02-12.43.02-18.64,0-.76,0-1.58.14-2.19-.51.14-.88.83-.72,1.4-.71,6.44.14,12.89-.31,19.33.21.4.03.81-.14,1.22-.22Z"/><path class="cls-17" d="m67.43,80.02c7.68,0,15.35,0,23.03,0,.72.12,1.53-.28,2.16.37.08.09.11.18.09.28-.02.1-.04.15-.07.15-.07.03-.15.06-.22.1-.08,0-.16,0-.24.01-.33-.03-.66-.07-.99-.07-.45,0-.9.04-1.36.03-.31,0-.61,0-.92.01-6.22,0-12.44-.03-18.65.02-1.97.02-3.89-.67-5.87-.29-.24-.01-.44-.1-.61-.27.02-.11.04-.22.06-.34,1.2,0,2.4,0,3.6,0Z"/><path class="cls-110" d="m53.04,81.47c0,.41,0,.83,0,1.24-.03,1.34-.56,2.82,1.97,2.3,1.32-.27.74,1.39.91,2.22-.22.21-.46.22-.73.11-.37-.42.06-1.05-.36-1.46-.83-.04-1.66-.08-2.49-.12-.07-.07-.14-.13-.22-.2-.16-.26-.2-.54-.17-.84.09-1.16-.17-2.33.17-3.48.44-.44.68-.12.91.23Z"/><path class="cls-43" d="m63.83,82.91c-.72.11-1.53-.28-2.16.36-.57-.1-1.34-.2-1.3-.83.02-.35.84-.65,1.3-.97.11-.13.25-.15.41-.1.53.46,1.26.05,1.82.4.11.13.18.29.21.45.01.27-.07.5-.27.68Z"/><path class="cls-128" d="m53.04,81.47l-.66-.36c-.15-.09-.18-.21-.12-.37.04-.1.07-.21.08-.32,1.04-.63,2.06-.49,3.09.04.61.44,1.5.32,2.01.98-.14.01-.28.02-.42.03-.12.12-.25.12-.37,0-.63.03-1.25-.02-1.81-.36h0c-.81-.94-1.14.51-1.8.36Z"/><path class="cls-32" d="m52.34,85.75c0,.25-.02.5-.02.75.2.46.3.94.36,1.44-.75.05-1.47-.01-1.67-.9-.19-.85-.43-1.77.59-2.34.13.08.23.19.3.32.08.29.18.57.45.74h-.01Z"/><path class="cls-74" d="m51.6,85.07c0-.12,0-.24,0-.36,0-1.28-.02-2.56,0-3.84.02-.99.4-.25.65-.12.04.12.08.25.12.37-.04,1.32-.08,2.64-.12,3.96-.22.21-.44.21-.66,0Z"/><path class="cls-50" d="m52.67,87.94c-.51-.38-.52-.89-.36-1.44.63-.06,1.23-.05,1.44.72.38.48.43.96,0,1.44-.36-.24-1.44.6-1.08-.72Z"/><path class="cls-65" d="m55.42,80.46c-1.03-.01-2.06-.03-3.09-.04.35-1.09,1.59-1.19,3.24-.24.02.01,0,.11-.03.16-.03.05-.08.08-.13.12Z"/><path class="cls-32" d="m53.75,88.66v-1.44c.25.05.57-.82.68-.07.12.88.2,1.85-.15,2.79-.76-.32-.43-.87-.53-1.28Z"/><path class="cls-48" d="m62.75,80.75c-.05-.48-.94-.61-.68-1,.36-.54,1.12-.45,1.76-.43h0c0,.24,0,.48,0,.72,0,0,0,0,0,0-.29.22-.35.64-.69.82-.15.05-.28.01-.39-.11Z"/><path class="cls-61" d="m54.83,85.87c.63.31.14.94.39,1.35.19.24.19.48,0,.72,0,.72,0,1.44,0,2.16.08.08.09.15.05.22-.04.05-.07.08-.11.08l-.17.04s-.17-.04-.17-.04c0-1.51,0-3.02,0-4.53Z"/><path class="cls-44" d="m62.75,80.75c.12,0,.24,0,.36,0,.12-.12.27-.18.44-.19.26.08.42.25.47.52,0,.17-.05.32-.15.46-.61.01-1.25.44-1.84-.07-.12,0-.24,0-.36,0-.09-.91.8-.37,1.08-.72Z"/><path class="cls-49" d="m65.27,79.31c-.48,0-.96,0-1.44,0,0,0,0,0,0,0-.09-1.38.99-.41,1.44-.72.21.24.21.48,0,.72Z"/><path class="cls-58" d="m65.27,79.31c0-.24,0-.48,0-.72.42.09.94-.21,1.24.36-.3.57-.83.27-1.24.36Z"/><path class="cls-42" d="m50.14,78.26c-.26.08-.43.2-.52.16-.12-.06-.18-.24-.27-.37.1-.04.22-.14.3-.11.14.04.25.17.48.33Z"/><path class="cls-57" d="m62.03,83.63c.28.16.35.42.36.72h0c-.24,0-.48,0-.72,0,0-.24,0-.48,0-.72.12-.13.24-.13.36,0Z"/><path class="cls-38" d="m60.98,85.01c-.27-.13-.3-.39-.32-.65.11.22.21.43.32.65Z"/><path class="cls-43" d="m62.03,83.63c-.12,0-.24,0-.36,0,0-.12,0-.24,0-.36.12.12.24.24.36.36Z"/><path class="cls-38" d="m61.26,85.61c-.09-.19-.17-.37-.26-.56.09.19.17.37.26.56Z"/><path class="cls-76" d="m51.25,44.38c.02-1.19.04-2.37.06-3.56.07.1.17.19.19.3q.49,2.93,3.61,2.93c7.78,0,15.56,0,23.34,0,.65,0,1.32-.16,1.93.22-.23.05-.46.16-.69.16-9.48-.01-18.96-.03-28.45-.05Z"/><path class="cls-94" d="m40.08,29.3c.43-.37.96-.22,1.45-.29-.41.49-.94.34-1.45.29Z"/><path class="cls-94" d="m39,29.66c.04-.08.08-.17.1-.26.21,0,.42.01.63.02-.16.31-.44.29-.73.24Z"/><path class="cls-122" d="m37.56,31.1s-.1-.05-.14-.08c.05.03.1.05.14.08,0,0,0,0,0,0Z"/><path class="cls-122" d="m37.56,31.1c.12.12.24.24.36.36,0,0,0,0,0,0-.12-.12-.24-.24-.36-.36,0,0,0,0,0,0Z"/><path class="cls-122" d="m91.9,29.03c.12.09.24.17.37.26-.12-.09-.24-.17-.37-.26Z"/><path class="cls-71" d="m98.39,86.14c-.4-.46-.67-.99-.77-1.6-.04-.3-.21-.48-.51-.51-.29-.38-.58-.75-.87-1.13h-.01c-.34-.13-.67-.28-.79-.66.72-.06,1.47-.18,1.86.67h0c.69.46,1.03,1.16,1.05,1.94.02.62.43.91.75,1.3,0,0,0,0,0,0-.24.22-.47.21-.7,0Z"/><path class="cls-72" d="m92.61,80.71c0-.11,0-.22,0-.33.79-.32,1.36.69,2.16.36h0c-.05.63.82.84.67,1.5-.32-.15-.64-.31-.96-.46-.36-.16-.79-.02-1.14-.24-.15-.06-.28-.14-.41-.23-.19-.16-.32-.35-.33-.6Z"/><path class="cls-72" d="m94.77,80.75c-.24-.32,1.17-1.19-.36-1.08.5-.53,1.03-.46,1.51,0,.14.13.24.45.18.62-.23.69-.86.38-1.34.46h0Z"/><path class="cls-39" d="m97.33,82.1c.7-.76,1.25-.75,1.79-.46.1.05.07.68-.08.78-.68.45-.93-.44-1.71-.32Z"/><path class="cls-72" d="m94.32,79.82c-.09.04-.21.13-.28.11-.15-.06-.12-.17.04-.21.1-.03.22-.03.32-.04-.03.05-.06.09-.09.15Z"/><path class="cls-67" d="m100.17,81.47s-.05.1-.08.14c.03-.05.05-.1.08-.14,0,0,0,0,0,0Z"/><path class="cls-110" d="m56.43,83.76c.05.39-.1.52-.37.55-.47.04-.81-.11-.83-.64,0-.23.03-.59.3-.51.35.11.65.42.9.6Z"/><path class="cls-8" d="m62.12,90.09c-.06.24-.12.48-.19.72-.41-.84-.4-1.67,0-2.51.44.22.21.64.29.97-.02.27,0,.55-.1.81Z"/><path class="cls-122" d="m55.16,90.4c-.03-.11-.01-.21.06-.3.63.07.86.53.61.99-.21.39-.37-.24-.62-.26-.02-.14-.03-.29-.05-.43Z"/><path class="cls-122" d="m55.22,87.94c0-.24,0-.48,0-.72.23,0,.46,0,.69,0-.01.45-.24.7-.69.72Z"/><path class="cls-70" d="m62.12,89.39c-.06-.36-.12-.72-.18-1.09.03-.12.06-.24.08-.35.12,0,.25,0,.37,0,.08.08.11.16.08.24-.03.08-.05.12-.08.12,0,.24,0,.48,0,.73.08.08.11.15.08.23-.03.08-.05.12-.08.12h-.01c-.09.17-.18.17-.27.01Z"/><path class="cls-107" d="m56.64,81.47c.12,0,.25,0,.37,0-.12.18-.25.21-.37,0Z"/><path class="cls-128" d="m54.83,81.11s-.05.1-.08.14l.08-.14h0Z"/><path class="cls-28" d="m51.59,63.48c.14-.87.82-.71,1.39-.71,8.35,0,16.69,0,25.04,0,.41,0,1.25-.35.92.71-8.88,0-17.75,0-26.63,0-.12-.12-.24-.13-.36,0h0c-.12.1-.24.1-.36,0h0Z"/><path class="cls-56" d="m51.96,63.48c.12-.2.24-.2.36,0-.12,0-.24,0-.36,0Z"/><path class="cls-56" d="m51.6,63.48c.12,0,.24,0,.36,0-.12.2-.24.2-.36,0Z"/><path class="cls-46" d="m29.24,40.45c-.23,0-.45,0-.68,0,.12-.12.24-.24.36-.36.11-.13.23-.13.34,0,0,.12-.02.24-.02.36Z"/><path class="cls-55" d="m29.27,40.09c-.11,0-.23,0-.34,0,.14-.11.27-.22.41-.33.03.12,0,.23-.07.34Z"/><path class="cls-103" d="m93.06,81.07c.11-.03.2,0,.26.1-.1.86-.74.97-1.42,1.02-.24,0-.48,0-.72,0-.33.31-.73.36-1.16.36-7.05,0-14.1,0-21.16,0,6.63.01,13.26.01,19.89,0,1.01,0,1.92.05,2.43,1.09.31.11.89.24.29.59-.41.24-1.04.12-1.58.12-6.86,0-13.73,0-20.59.01-1.36,0-2.87.32-2.74-1.87.01-.21-.37-.44-.57-.66-.11-.08-.15-.16-.11-.24.04-.08.07-.12.11-.12.57-.06,1.31.23,1.44-.71.62-.35,1.29-.17,1.94-.17,6.47-.02,12.94,0,19.41,0,.44-.02.88.05,1.31-.08.43-.02.86-.04,1.29-.06.29.09.6.15.89.23l-.02.15c.25.15.55.12.81.26Z"/><path class="cls-79" d="m84.7,97.3c0,.48,0,.95,0,1.43-.1.05-.2.11-.3.16-5.8.04-11.6.02-17.41,0-.46-.08-.48-.41-.45-.77.24-.56.64-.95,1.23-1.13,5.2-.14,10.39-.03,15.59-.05.47,0,.97-.04,1.34.35Z"/><path class="cls-92" d="m91.18,83.63c-.93-.57-1.91-.75-3.02-.74-6.22.05-12.44.03-18.67.01-.6,0-1.27.18-1.8-.71h23.49v1.44Z"/><path class="cls-77" d="m84.7,97.3c-5.76,0-11.51,0-17.27,0-.05-.05-.1-.1-.14-.15-.04-.14-.04-.27,0-.41.05-.05.1-.1.14-.15h17.27c.21.24.21.48,0,.72h0Z"/><path class="cls-95" d="m89.38,80.74c-7.32,0-14.64.01-21.95.02-.96.14-2-.36-2.88.36-.11.12-.24.18-.4.18-.15-.06-.24-.16-.26-.33-.1-.08-.2-.17-.29-.25-.1-.07-.18-.16-.15-.23.08-.18.24-.16.4-.13,8.52.03,17.03.06,25.55.1.12.06.16.13.12.19-.04.06-.08.1-.12.1Z"/><path class="cls-43" d="m65.99,87.22c-.39,0-.89.94-1.06.21-.32-1.36-.8-2.72-.73-4.16.1-.12.23-.17.39-.15.29.1.5.33.73.51.08.07.08.14.01.21.02.22.14.36.3.49.33.37.48.8.41,1.3.16.53.25,1.07-.04,1.59Z"/><path class="cls-78" d="m84.7,97.3c0-.24,0-.48,0-.72,1.92,0,3.84,0,5.76,0,.21.24.19.48,0,.72h-5.76Z"/><path class="cls-90" d="m99.04,88.07c.02.68.05,1.36.07,2.03.61.71-.07,1.21-.28,1.79-.02.13-.03.25-.05.38.07.14.04.25-.08.34,0,0,0-.01,0-.01-.1.03-.21.07-.31.1-.01-.15-.03-.3-.04-.44,0-.72,0-1.44,0-2.15-.38-.48-.38-.96,0-1.44,0-.12,0-.24,0-.37.14-.15.2-.37.4-.47.16,0,.25.08.27.24Z"/><path class="cls-89" d="m91.9,82.19c.47-.34.95-.68,1.42-1.02.44.12.87.24,1.17.62-.37.14-.64.38-.79.76h0c-.66.21-1.43.92-1.8-.36Z"/><path class="cls-83" d="m90.81,99.05c-.23.04-.47.08-.7.13-1.57,0-3.14-.02-4.71-.03-.23-.04-.47-.07-.7-.11-.12-.07-.16-.13-.12-.2.04-.06.08-.1.12-.1,0,0,0-.01,0-.01,1.92,0,3.84,0,5.76,0,.11-.12.23-.15.38-.07.09.14.09.26-.03.38Z"/><path class="cls-102" d="m67.43,97.3c-.02.46-.26.7-.72.72-.69.43-1.31.59-1.58-.45.05-.09.09-.18.14-.27.48-.24.96-.48,1.44-.72.06.03.13.06.19.09.2.19.31.46.53.63h0Z"/><path class="cls-111" d="m97.66,92.26c-.09.41.2.94-.36,1.24-.57-.3-.27-.83-.36-1.24.09-.19.16-.5.28-.53.38-.08.38.27.44.53Z"/><path class="cls-87" d="m90.86,98.75c-.13,0-.27-.01-.4-.02.52-1.3,1.36-.63,2.14-.36,0,.09,0,.19.02.28-.1.07-.21.11-.34.12-.48.22-.95.24-1.42-.01Z"/><path class="cls-105" d="m98.37,88.66c0,.48,0,.96,0,1.44-.49-.04-.72-.31-.69-.8.03-.43.31-.58.69-.63Z"/><path class="cls-20" d="m65.99,87.22c.01-.53.03-1.06.04-1.59.57.67.33,1.56.62,2.31-.45-.03-.65-.29-.66-.72Z"/><path class="cls-33" d="m65.31,83.63c-.31,0-.59-.07-.76-.36-.25-.3-.3-.63-.11-.98.13-.13.29-.18.47-.12v.02c.09.11.13.23.12.36l.27,1.09Z"/><path class="cls-106" d="m90.46,97.3c0-.24,0-.48,0-.72.36.11,1.01-.05.72.72-.24.21-.48.2-.72,0h0Z"/><path class="cls-77" d="m66.71,96.58c.05-.26.05-.61.44-.53.13.03.19.34.28.53-.24.21-.48.21-.72,0h0Z"/><path class="cls-85" d="m65.99,81.47c0,.12,0,.24,0,.36-.21-.15-.61-.17-.41-.61.14.08.27.17.41.25Z"/><path class="cls-53" d="m64.94,96.61c-.13-.25-.26-.5-.39-.75h0c.25,0,.51.01.76.02-.02.21-.05.43-.07.64-.06.18-.16.21-.3.09Z"/><path class="cls-21" d="m99.09,86.5c0,.36,0,.72,0,1.08-.11.13-.24.16-.39.07-.11-.12-.13-.26-.09-.42,0-.23,0-.45,0-.68.14-.2.31-.22.49-.05Z"/><path class="cls-84" d="m98.61,87.24c.07.12.15.23.22.35.07.13.05.24-.08.32-.12.13-.25.26-.37.39,0-.37-.06-.75.23-1.06Z"/><path class="cls-42" d="m99.09,86.5c-.16.02-.33.04-.49.05-.07-.14-.14-.28-.21-.42.23,0,.47,0,.7,0,0,.12,0,.24,0,.36Z"/><path class="cls-87" d="m90.46,97.3c.24,0,.48,0,.72,0-.24.36-.48.36-.72,0Z"/><path class="cls-82" d="m65.58,95.84c.02-.3.09-.58.38-.75,0,.31-.02.61-.38.75Z"/><path class="cls-91" d="m64.94,96.61c.1-.03.2-.06.3-.09,0,.26.02.52.03.78,0,0,0,0,0,0-.15.12-.3.11-.45-.01-.12-.26-.12-.49.12-.69h0Z"/><path class="cls-85" d="m64.91,82.16c-.08-.04-.16-.06-.25-.07-.06,0-.13-.01-.19-.02,0-.06,0-.13-.01-.19.05-.04.1-.08.15-.12.1.13.2.26.3.39Z"/><path class="cls-85" d="m64.53,81.44c.02.11.05.22.08.33,0,0-.05.05-.05.05-.34.14-.45-.02-.45-.33.13-.14.27-.16.43-.05Z"/><path class="cls-93" d="m65.03,82.54c-.04-.12-.07-.24-.11-.36.06.07.13.14.18.22.01.02-.05.09-.08.13Z"/><path class="cls-89" d="m93.7,82.54s.09.05.14.08c-.05-.03-.1-.05-.15-.08,0,0,0,0,0,0Z"/><path class="cls-80" d="m64.53,81.44c-.08,0-.15.02-.22.03-.26-.06-.29-.18-.1-.37.11,0,.23,0,.34,0,0,.11,0,.22-.02.33Z"/><path class="cls-62" d="m65.62,84.33c-.1-.16-.2-.33-.3-.49.1.16.2.33.3.49Z"/><path class="cls-42" d="m97.11,84.03c.28.07.44.24.51.51-.17-.17-.34-.34-.51-.51Z"/><path class="cls-66" d="m65.24,90.85c-.11.36.34,1.07-.39,1.09-.66.01-.31-.6-.33-.97-.03-.38-.02-1.01-.6-.43-.34.34-.53.53-.7.02-.2-.62-.27-1.29.15-1.88.26-.36.59-.3.92-.04.71.56,1.27,1.19.95,2.21Z"/><path class="cls-57" d="m62.39,84.35c1.16.43.68,1.19.46,2.22-.66-.85-.37-1.57-.46-2.22h0Z"/><path class="cls-73" d="m64.55,95.86c-1.16-.43-.68-1.19-.46-2.22.66.85.37,1.57.46,2.22,0,0,0,0,0,0Z"/><path class="cls-53" d="m64.94,96.6c-.04.22-.07.43-.11.65-.03.12-.1.22-.2.3-.1.08-.2.14-.31.2-.06.02-.12.04-.18.06-.13,0-.24-.05-.31-.16,0-.12,0-.24,0-.36.12-.24.24-.48.36-.72.25,0,.5.02.75.03Z"/><path class="cls-30" d="m64.67,82.1c-.04.39-.08.78-.12,1.17-.12,0-.24,0-.36,0-.12-.12-.24-.24-.36-.36,0-.24,0-.48,0-.72.26-.21.53-.2.82-.08h.01Z"/><path class="cls-52" d="m62.12,89.39c.09,0,.18,0,.27,0-.09.23-.17.47-.26.7,0-.23,0-.47,0-.7Z"/><path class="cls-52" d="m62.39,88.3c0-.12,0-.24,0-.36.05.08.1.17.13.26,0,.02-.08.07-.13.1Z"/><path class="cls-52" d="m62.39,89.38c0-.12,0-.23,0-.35.05.08.1.16.13.25,0,.01-.08.06-.13.1Z"/><polygon class="cls-53" points="64.19 96.58 64.05 96.5 64.11 96.43 64.19 96.58"/><path class="cls-98" d="m84.7,98.74c0,.1,0,.2,0,.3-6.8.02-13.61.04-20.41.05-.3,0-.6.01-.78-.3.08-.15.2-.28.29-.43v-.02c.13-.11.23-.23.32-.36.15-.08.3-.1.46-.05.57.64,1.55.21,2.14.81,6,0,11.99,0,17.99.01Z"/><path class="cls-31" d="m62.39,99.1c-.12,0-.24,0-.36,0,.12-.12.24-.24.36-.36.12.12.24.24.36.36-.12,0-.24,0-.36,0Z"/><path class="cls-31" d="m63.83,97.66c.13,0,.26.02.38.02.07.08.1.16.08.24-.02.08-.04.12-.07.12l-.12-.06c-.09.17-.2.18-.32.03-.03-.09-.07-.18-.08-.27,0-.02.09-.06.13-.09Z"/><path class="cls-16" d="m63.78,98.01c.11-.02.22-.03.32-.03-.1.12-.2.24-.29.36-.01-.11-.02-.22-.03-.33Z"/><path class="cls-16" d="m63.8,98.36c-.1.14-.19.29-.29.43.1-.14.19-.29.29-.43Z"/><path class="cls-71" d="m98.84,91.89c.09-.6.19-1.19.28-1.79.23,0,.46,0,.69,0,0,.48,0,.96,0,1.44-.33.12-.65.23-.98.35Z"/><path class="cls-71" d="m98.7,92.61c-.02-.12,0-.24.08-.34.02.09.06.18.07.27,0,.02-.09.05-.15.07Z"/><path class="cls-97" d="m90.86,98.75c.47,0,.95,0,1.42.01-.43.44-.96.34-1.48.28.02-.1.03-.2.05-.3Z"/><path class="cls-69" d="m91.54,27.14s-.05.1-.08.14c.03-.05.05-.1.08-.14,0,0,0,0,0,0Z"/><path class="cls-71" d="m98.75,87.9c.03-.11.05-.21.08-.32.09,0,.17,0,.26,0-.01.16-.03.32-.04.48-.1-.05-.2-.1-.3-.16Z"/><path class="cls-30" d="m63.84,80.35c-.08.12-.16.24-.25.35-.16.01-.32.03-.48.04.02-.46.26-.7.72-.72,0,.11,0,.22,0,.32Z"/><path class="cls-96" d="m89.38,80.74c0-.1,0-.19,0-.29.23.01.47.03.7.04-.23.08-.47.17-.7.25Z"/><path class="cls-72" d="m92.27,80.67c-.32,0-.65.06-.89-.23.33-.03.64-.03.89.23Z"/><path class="cls-89" d="m93.06,81.07c-.31.03-.59,0-.81-.26.12-.03.24-.07.35-.1.15.12.3.24.45.35Z"/><path class="cls-30" d="m51.6,85.07c.22,0,.44,0,.66,0,.03.23.06.47.1.7-.48.01-.73-.22-.75-.7Z"/><path class="cls-30" d="m62.03,81.47c.6.11,1.2-.39,1.8,0,.09.08.12.16.09.24-.03.08-.06.12-.09.12-.62,0-1.43.94-1.8-.36Z"/><path class="cls-19" d="m63.83,81.83c0-.12,0-.24,0-.36.02-.17.04-.34.06-.51.11.03.22.08.32.14.03.12.07.24.1.37.08.12.17.23.25.35.06.08.09.18.1.28-.27.03-.55.06-.82.08,0-.12,0-.24,0-.36Z"/><path class="cls-42" d="m96.22,82.89s.05-.09.08-.13c-.02.05-.05.1-.07.15,0,0-.01-.01-.01-.01Z"/><path class="cls-42" d="m97.29,82.91s-.05.09-.08.14c.03-.05.05-.1.08-.15,0,0,0,0,0,0Z"/><path class="cls-92" d="m64.22,98.04c0-.12,0-.24,0-.36,0,0,.01.03.01.03.07-.16.21-.27.32-.41.09-.03.19-.04.29-.04.15.02.29.03.44.05.12.95.87.65,1.44.72,0,.24,0,.48,0,.71-.89-.02-1.86.25-2.49-.69Z"/><path class="cls-104" d="m66.71,96.58h.72c0,.24,0,.48,0,.72-.46-.02-.7-.26-.72-.72Z"/><path class="cls-16" d="m64.54,97.3c-.11.14-.21.27-.32.41.11-.14.21-.27.32-.41Z"/></g></svg>