<?xml version="1.0" encoding="utf-8"?>
<!-- Generator: Adobe Illustrator 24.3.0, SVG Export Plug-In . SVG Version: 6.00 Build 0)  -->
<svg version="1.1" id="Layer_1" xmlns="http://www.w3.org/2000/svg" xmlns:xlink="http://www.w3.org/1999/xlink" x="0px" y="0px"
	 viewBox="0 0 128 128" style="enable-background:new 0 0 128 128;" xml:space="preserve">
<style type="text/css">
	.st0{fill:#1B1B1B;}
	.st1{fill:#F2F2F2;}
</style>
<circle class="st0" cx="64" cy="64" r="61.9"/>
<g>
	<path class="st1" d="M85.3,46.8c-0.7,0.9-2,1-2.9,0.2c-5.6-5.7-11.2-8.9-20-8.4c-3.7,0.2-8.8,3.3-8.6,7.6c0.7,13,32.6,10,33.5,28.9
		C88,87,75.7,92.6,65.6,93.1c-10,0.5-16.9-2.8-23.6-9.4c-0.8-0.8-0.7-2,0.1-2.8c0.7-0.7,1.9-0.6,2.6,0.1c5.9,5.7,11.3,8.9,20.3,8.5
		c4.8-0.2,10.3-3.5,10-8.9c-0.6-11.2-31.9-8.9-32.9-27.6C41.6,41,51,35.4,61.9,34.9c10.1-0.5,16.4,2.8,23.2,9.4
		C85.8,44.9,85.9,46,85.3,46.8z M77.3,86.1c3.8-2.3,6.3-6.3,6.3-10.8c0-15.5-33.5-12.7-33.5-27.7c0-2.2,0.4-4.3,1.4-6.3L51.4,41
		c-3.6,2.1-5.5,6.6-5.5,10.7c0,17.4,32.9,13.6,32.9,27.8c0,2.2-0.3,4.7-1.6,6.5L77.3,86.1z"/>
	<g>
		<path class="st1" d="M64,115c-28.1,0-51-22.9-51-51c0-28.1,22.9-51,51-51c28.1,0,51,22.9,51,51C115,92.1,92.1,115,64,115z
			 M64,15.8c-26.6,0-48.2,21.6-48.2,48.2c0,26.6,21.6,48.2,48.2,48.2s48.2-21.6,48.2-48.2C112.2,37.4,90.6,15.8,64,15.8z"/>
	</g>
</g>
</svg>
