<?xml version="1.0" encoding="UTF-8"?><svg id="CIRCLE_OUTLINE_BLACK" xmlns="http://www.w3.org/2000/svg" xmlns:xlink="http://www.w3.org/1999/xlink" viewBox="0 0 512 512"><defs><linearGradient id="Degradado_sin_nombre_3" x1="206.38929" y1="-279.8267" x2="308.09645" y2="-794.4061" gradientTransform="translate(0 -271.41475) scale(1 -1)" gradientUnits="userSpaceOnUse"><stop offset="0" stop-color="#780000"/><stop offset="1" stop-color="#c1121f"/></linearGradient></defs><circle cx="256" cy="256" r="256" fill="#fff" stroke-width="0"/><path d="m255.32528,513.39367c75.17868,0,142.80943-32.41064,189.75188-84.05838l-12.48995-13.82389c-15.45872-17.10678-41.81021-18.56903-59.06517-3.27624l-26.64573,23.61502c-36.24874,32.12747-91.34528,30.10111-125.13853-4.60134l-16.66014-17.10898c-15.99892-16.42986-42.21458-17.00059-58.91586-1.2853l-48.86948,45.98238c43.56731,34.18258,98.42737,54.55673,158.03298,54.55673Zm213.37132-130.51192l6.0658,6.71397c23.62828-38.9454,37.23759-84.6756,37.23759-133.59572,0-59.3178-20.00916-113.94933-53.62985-157.47706-6.2494,1.60648-12.22231,4.68097-17.38111,9.25288l-26.64347,23.61479c-36.24877,32.12748-91.34532,30.10244-125.13857-4.59978l-16.6599-17.10922c-16.0007-16.42941-42.21501-17.00214-58.91675-1.28704l-68.55477,64.50692-33.35125-35.44376,68.55476-64.50714c36.03972-33.9116,92.6109-32.67565,127.13417,2.77761l16.6599,17.10922c15.66223,16.08144,41.19299,17.01984,57.9923,2.13144l26.64347-23.61479c4.47303-3.96312,9.22701-7.40461,14.19115-10.32911C377.93309,22.12733,319.36786-1.39367,255.32528-1.39367,126.56164-1.39367,19.94344,93.68756,1.47939,217.65586c35.13638-20.28235,80.75859-14.97977,110.27083,15.32642l19.26786,19.78573c14.97645,15.38129,39.13545,17.00282,56.03383,3.76293l57.11737-44.74707c34.28214-26.85806,82.81515-25.55886,115.61069,3.09461l77.77358,67.95085-32.01908,36.64917-77.7758-67.9493c-15.19766-13.27971-37.6889-13.88143-53.57454-1.4335l-57.11802,44.74797c-36.46489,28.56808-88.59755,25.06619-120.91528-8.12092l-19.26763-19.78573c-15.99915-16.42984-42.21458-17.0028-58.91588-1.28749L0,282.55499c5.55657,54.36652,27.98672,103.72023,61.9523,142.70989l50.85844-47.85606c36.03971-33.91048,92.60978-32.67609,127.13326,2.77849l16.66214,17.10901c15.66,16.08032,41.19297,17.02051,57.99006,2.13252l26.64569-23.61498c37.23321-33.00132,94.09947-29.84673,127.45471,7.06789Z" fill="url(#Degradado_sin_nombre_3)" fill-rule="evenodd" stroke-width="0"/></svg>