<?xml version="1.0" encoding="utf-8"?>
<!-- Generator: Adobe Illustrator 27.0.1, SVG Export Plug-In . SVG Version: 6.00 Build 0)  -->
<svg version="1.1" id="Layer_1" xmlns="http://www.w3.org/2000/svg" xmlns:xlink="http://www.w3.org/1999/xlink" x="0px" y="0px"
	 viewBox="0 0 128 128" style="enable-background:new 0 0 128 128;" xml:space="preserve">
<style type="text/css">
	.st0{fill:#501EF9;}
	.st1{fill:#F7F6FF;}
</style>
<circle class="st0" cx="64" cy="64" r="63.5"/>
<g>
	<path class="st1" d="M60,31.4c-2,0-3.9,0.8-5.3,2.2L32.6,55.6c-0.8,0.8-1.3,1.9-1.3,3c0,1.1,0.4,2.2,1.3,3l14.5,14.5V50.5
		c0-1.9,1.5-3.5,3.4-3.5c8.1,0,27.7,0,30.4,0l15.7-15.7L60,31.4z"/>
	<path class="st1" d="M47.1,80.9h30.4c1.9,0,3.5-1.5,3.5-3.5V51.9l14.5,14.5c0.8,0.8,1.3,1.9,1.3,3c0,1.1-0.4,2.2-1.3,3L73.3,94.5
		c-1.4,1.4-3.3,2.2-5.3,2.2l-36.7,0L47.1,80.9z"/>
</g>
</svg>
