<?xml version="1.0" encoding="UTF-8"?><svg id="Layer_1" xmlns="http://www.w3.org/2000/svg" xmlns:xlink="http://www.w3.org/1999/xlink" viewBox="0 0 128 128"><defs><style>.cls-1{fill:none;stroke:#fff;stroke-miterlimit:10;stroke-width:6px;}.cls-2{fill:url(#linear-gradient);stroke-width:0px;}</style><linearGradient id="linear-gradient" x1=".34" y1="1.08" x2="129.47" y2="128.71" gradientUnits="userSpaceOnUse"><stop offset=".15" stop-color="#f1c4d2"/><stop offset=".31" stop-color="#e0ace1"/><stop offset=".5" stop-color="#bd85eb"/><stop offset=".67" stop-color="#a567f3"/><stop offset=".84" stop-color="#8442fb"/></linearGradient></defs><g id="SLF"><circle class="cls-2" cx="64" cy="64" r="63.5"/><path class="cls-1" d="m79.84,78.99c1.87-.89,4.39-2.27,5.71-3.88,3.44-4.19,3.66-10.33,3.16-15.48-.58-5.85-2.8-9.3-9.04-10.05-3.83-.46-6.77,1.37-7.71,1.97-8.56,5.49-7.91,19.52-16.67,24.92-2.34,1.44-5.11,2.33-7.87,2.09-2.37-.21-5.76-1.46-6.94-3.71-1.74-3.34-1.36-8.25-1.33-11.95.03-3.64.33-8.03,2.85-10.9,1.81-2.06,4.65-3.26,7.37-3.32"/><path class="cls-1" d="m77.12,48.96c.9-1.55.11-4.81-2.15-6.63-4.22-3.4-9.78-3.45-14.93-2.95-5.85.58-9.3,2.8-10.05,9.04-.46,3.83,1.37,6.77,1.97,7.71,5.49,8.56,19.52,7.91,24.92,16.67.94,1.53,1.66,3.26,2.01,5.03.52,2.7-.37,5.58-2.18,7.62-2.2,2.48-5.34,2.85-8.46,2.96-2.8.1-5.62-.06-8.39-.48-2.45-.37-5.11-.73-7.23-2.13-2.43-1.6-2.56-4.2-2.15-6.86"/></g></svg>