<?xml version="1.0" encoding="utf-8"?>
<!-- Generator: Adobe Illustrator 27.2.0, SVG Export Plug-In . SVG Version: 6.00 Build 0)  -->
<svg version="1.1" id="Layer_1" xmlns="http://www.w3.org/2000/svg" xmlns:xlink="http://www.w3.org/1999/xlink" x="0px" y="0px"
	 viewBox="0 0 128 128" style="enable-background:new 0 0 128 128;" xml:space="preserve">
<style type="text/css">
	.st0{fill:#F2F2F2;}
	.st1{fill:#00422A;}
	.st2{fill:#FFAF00;}
	.st3{fill:#82B967;}
	.st4{fill:#63BBA0;}
	.st5{fill:#FFABBB;}
	.st6{fill:#FFD2DB;}
	.st7{fill:#FF8C9F;}
	.st8{fill:#FFFFFF;}
	.st9{fill:#A0ECD3;}
</style>
<circle class="st0" cx="64" cy="64" r="63.5"/>
<g>
	<g>
		<path class="st1" d="M65.1,112.5c-9.8,0-24.6-3.4-33.7-13c-6-6.4-8.8-14.5-8.3-24.2c1.4-26.5,21.1-41,27.7-45.2l-1.6-6.4
			c-0.2-0.8-0.1-1.6,0.3-2.3c1.1-1.9,4.4-5.3,10.1-5.8c0.7-0.1,1.3-0.1,1.9-0.1c5.6,0,9.9,2.3,10.1,2.4c1,0.6,1.7,1.7,1.6,2.8
			l-0.2,8c8.9,5.1,31.7,22.2,31.8,46.2c0.1,26.1-23.8,35.8-36.4,37.3C67.5,112.4,66.3,112.5,65.1,112.5L65.1,112.5z"/>
	</g>
	<g>
		<path class="st2" d="M70.2,20.7l-0.3,9.9c0,0-3,4.6-7.9,4.5c0,0-4.2,0.1-7.7-3.5L52.3,23c0,0,2.1-3.7,7.7-4.2
			C65.7,18.2,70.2,20.7,70.2,20.7z"/>
	</g>
	<g>
		<path class="st3" d="M69.9,30.6l-0.2,8.8c0,0-3.7,3.2-7,3.2c-3.3,0-6.2-2.4-6.2-2.4l-2.1-8.6c3.4,3.5,7.7,3.5,7.7,3.5
			C67,35.2,69.9,30.6,69.9,30.6z"/>
	</g>
	<g>
		<path class="st4" d="M101.8,75c0.1,24.7-23.3,33-33.6,34.2c-10.3,1.2-43.5-3.9-41.9-33.8c1.6-29.8,28.1-43.8,28.1-43.8l2.1,8.6
			c0,0,3,2.4,6.2,2.4c3.3,0,7-3.2,7-3.2l0.2-8.8C75.4,33.2,101.7,50.3,101.8,75z"/>
	</g>
	<g>
		<path class="st5" d="M63.9,103.4c0,0-25.9,0.1-29.5-21.6c-2.4-14.1,2.9-20.6,2.9-20.6l53.3-1.8c0,0,5.1,13.3,2.2,23.9
			C89.8,93.8,76.1,103.4,63.9,103.4z"/>
	</g>
	<g>
		
			<ellipse transform="matrix(0.9994 -3.386164e-02 3.386164e-02 0.9994 -2.0047 2.199)" class="st6" cx="63.9" cy="60.3" rx="26.6" ry="4.3"/>
	</g>
	<g>
		<ellipse transform="matrix(0.8047 -0.5937 0.5937 0.8047 -36.7457 38.4901)" class="st7" cx="40.1" cy="75.1" rx="3.6" ry="2.9"/>
	</g>
	<g>
		<path class="st7" d="M64.2,76.6c0,0,10.9-10.2,21.1-6c10.2,4.2,4.5,21.1-5.8,26s-27,4.2-27.9-2.1S60.3,79.5,64.2,76.6z"/>
	</g>
	<g>
		<path class="st8" d="M90,91.4c0,0-0.1,2.9-5.2,6.3c-5.1,3.4-4.5-0.3-1.3-3.8C86.7,90.3,90.8,88,90,91.4z"/>
	</g>
	<g>
		<path class="st9" d="M56.4,84c-0.4,0-0.7-0.1-1-0.4L42.1,72l-10.5,8.8c-0.7,0.6-1.6,0.5-2.2-0.2c-0.6-0.7-0.5-1.6,0.2-2.2
			l11.5-9.7c0.6-0.5,1.5-0.5,2,0l13.3,11.6l15-12.5c0.5-0.4,1.2-0.5,1.7-0.2l13.5,7.3l6.6-9.5c0.3-0.4,0.7-0.6,1.2-0.7
			c0.5,0,0.9,0.1,1.2,0.5l2.7,2.8c0.6,0.6,0.6,1.6,0,2.2c-0.6,0.6-1.6,0.6-2.2,0l-1.4-1.5l-6.3,9.1c-0.5,0.7-1.3,0.9-2,0.5
			l-13.8-7.4L57.4,83.6C57.1,83.9,56.8,84,56.4,84z"/>
	</g>
	<g>
		<path class="st8" d="M40.9,62.2c-1.8-0.4-5.6-1.5-2.8-7c2.7-5.4,10.6-12.2,13-10.5S46.3,63.3,40.9,62.2z"/>
	</g>
</g>
</svg>
