<?xml version="1.0" encoding="UTF-8"?><svg id="Layer_1" xmlns="http://www.w3.org/2000/svg" viewBox="0 0 128 128"><defs><style>.cls-1{fill:#1627c1;}.cls-1,.cls-2{stroke-width:0px;}.cls-2{fill:#fff;}</style></defs><circle class="cls-1" cx="64" cy="64" r="63.5"/><g id="STEEM"><path class="cls-2" d="m64.09,103.58c-.51-.33.86-4.98.98-5.7.35-2.02.39-4.1.22-6.14-.36-4.49-1.78-8.84-3.57-12.96-3.27-7.52-6.54-15.05-9.59-22.66-1.22-3.03-2.03-6.26-2.72-9.46-1.15-5.33.58-9.96,4.3-13.74,2.9-2.94,6.13-5.55,9.98-8.99,0,4.24-1.36,8.34-1.12,12.57.26,4.53,1.72,8.9,3.5,13.05,3.41,7.93,7.01,15.79,10,23.87,1.52,4.1,2.51,8.62,2.58,12.97.09,5.78-4.03,9.64-8.18,13.14-1.84,1.55-3.74,3.03-5.62,4.54-.25-.16-.51-.33-.76-.49Z"/><path class="cls-2" d="m89.57,95.35c1.3.17,1.42-9.17,1.32-10.09-.45-4.46-2.35-8.67-4.11-12.74-2.07-4.79-4.12-9.58-6.08-14.42-.99-2.45-2.01-5.01-2.27-7.6-.74-7.34,3.75-14.01,11.51-17.34,0,3.08-.89,6.05-.74,9.14.16,3.51,1.17,6.93,2.58,10.13,2.92,6.63,5.76,13.29,8.45,20.01,4.35,10.9.77,16.33-9.22,23.1-.13.09-.4-.04-1.45-.18Z"/><path class="cls-2" d="m38.02,95.68c0-1.08-.16-1.85.02-2.53,1.57-5.86.5-11.36-1.87-16.8-2.98-6.83-5.91-13.69-8.62-20.63-4.14-10.6-.09-16.06,9.45-22.46,1.08-.72.02,5.32-.06,5.93-.57,4.65.96,9.38,2.78,13.59,2.83,6.55,5.76,13.06,8.34,19.71,3.95,10.16,1.37,16.55-10.04,23.19Z"/></g></svg>