<?xml version="1.0" encoding="utf-8"?>
<!-- Generator: Adobe Illustrator 24.3.0, SVG Export Plug-In . SVG Version: 6.00 Build 0)  -->
<svg version="1.1" id="Layer_1" xmlns="http://www.w3.org/2000/svg" xmlns:xlink="http://www.w3.org/1999/xlink" x="0px" y="0px"
	 viewBox="0 0 128 128" style="enable-background:new 0 0 128 128;" xml:space="preserve">
<style type="text/css">
	.st0{fill:#EFF4F4;}
	.st1{fill:url(#SVGID_1_);}
</style>
<circle class="st0" cx="64" cy="64" r="64"/>
<linearGradient id="SVGID_1_" gradientUnits="userSpaceOnUse" x1="4.4827" y1="-16.2524" x2="123.4506" y2="-16.2524" gradientTransform="matrix(1 0 0 -1 0 47.76)">
	<stop  offset="0" style="stop-color:#FFFFFF"/>
	<stop  offset="0" style="stop-color:#21BBC0"/>
	<stop  offset="0.34" style="stop-color:#20B9C0"/>
	<stop  offset="1" style="stop-color:#1387C9"/>
</linearGradient>
<path class="st1" d="M12.6,48l52.1,32.8c0,0,0.1,0,0.1,0l53.1-33.5c0,0,0.1-0.1,0-0.1c0,0,0,0,0,0c0,0,0,0,0,0L65.2,13.6
	c0,0-0.1,0-0.1,0L12.6,47.8C12.5,47.9,12.5,47.9,12.6,48C12.5,48,12.5,48,12.6,48C12.5,48,12.6,48,12.6,48z M64.6,119.3
	c-0.7,0-1.4-0.2-1.9-0.6L6.9,82.8c0,0,0-0.1,0-0.1L9.3,79c0,0,0.1,0,0.1,0l55.2,35.5c0,0,0.1,0,0.1,0L117,80.9
	c1.2-0.8,1.9-2.1,1.9-3.5v-8.3c0-0.1-0.1-0.1-0.1-0.1c0,0,0,0,0,0l-52.8,33.6c-1.2,0.7-2.7,0.7-3.9,0L8.7,68.7
	c-2.6-1.7-4.2-4.6-4.2-7.7V49.5c0-0.9,0.4-1.8,1-2.5l0.2-0.1l1-0.7L63.3,9.3l0.1,0c1.2-0.7,2.6-0.6,3.7,0.1l54.7,34.9
	c1.7,1.1,2.2,3.3,1.1,5c-0.3,0.4-0.7,0.8-1.1,1.1L66.6,85.1c-1.2,0.7-2.7,0.7-3.8,0L9.2,51.4c0,0-0.1,0-0.1,0c0,0,0,0,0,0.1V61
	c0,1.5,0.8,3,2.1,3.8L64,98.4c0,0,0.1,0,0.1,0L117.9,64c1.4-0.9,3.1-0.7,4.3,0.4c0.8,0.7,1.2,1.8,1.2,2.8v10.1c0,3-1.5,5.8-4,7.4
	l-52.9,34C66,119.1,65.3,119.3,64.6,119.3L64.6,119.3L64.6,119.3z"/>
</svg>
