<?xml version="1.0" encoding="UTF-8"?><svg id="Layer_1" xmlns="http://www.w3.org/2000/svg" xmlns:xlink="http://www.w3.org/1999/xlink" viewBox="0 0 128 128"><defs><style>.cls-1{fill:url(#linear-gradient);}.cls-1,.cls-2,.cls-3,.cls-4{fill-rule:evenodd;}.cls-1,.cls-2,.cls-3,.cls-4,.cls-5{stroke-width:0px;}.cls-2{fill:url(#linear-gradient-2);}.cls-3{fill:#0c0c4c;}.cls-4{fill:#f9f9f9;}.cls-5{fill:#e9edf0;}</style><linearGradient id="linear-gradient" x1="799.16" y1="-4882.29" x2="710.2" y2="-4931.72" gradientTransform="translate(816.2 -4840.51) rotate(-180)" gradientUnits="userSpaceOnUse"><stop offset="0" stop-color="#dc7f70"/><stop offset="1" stop-color="#d27bae"/></linearGradient><linearGradient id="linear-gradient-2" x1="792.09" y1="-4931.1" x2="777.62" y2="-4932.63" xlink:href="#linear-gradient"/></defs><circle class="cls-5" cx="64" cy="64" r="63.5"/><g id="STRK"><path class="cls-3" d="m127.5,64c0,35.07-28.43,63.5-63.5,63.5S.5,99.07.5,64,28.93.5,64,.5s63.5,28.43,63.5,63.5Z"/><path class="cls-4" d="m92.01,49.04l-1.57-4.84c-.32-.98-1.1-1.75-2.08-2.05l-4.87-1.5c-.67-.21-.68-1.16-.01-1.37l4.84-1.57c.98-.32,1.75-1.1,2.05-2.08l1.49-4.87c.21-.67,1.16-.68,1.37,0l1.57,4.84c.32.98,1.1,1.75,2.08,2.05l4.87,1.49c.67.21.68,1.16.01,1.37l-4.84,1.57c-.98.32-1.75,1.1-2.05,2.09l-1.49,4.86c-.21.67-1.16.68-1.37.01Z"/><path class="cls-1" d="m15.09,46.22c2.01-2.24,5.14-3.51,8.18-4.02,3.07-.5,6.29-.45,9.31.09,6.13,1.04,11.7,3.57,16.55,6.71,2.52,1.54,4.67,3.31,6.9,5.12,1.07.92,2.05,1.89,3.07,2.85l2.79,2.77c3.03,3.16,6.01,6.05,8.9,8.43,2.9,2.38,5.61,4.18,8.28,5.44,2.67,1.27,5.52,2.01,9.25,2.13,3.69.13,8.05-.54,12.72-1.63,4.69-1.09,9.62-2.65,15.13-4-1.92,5.33-4.82,10.04-8.53,14.35-3.76,4.23-8.45,8.09-14.48,10.63-5.94,2.59-13.41,3.52-20.39,2.12-7-1.35-13.15-4.59-18.11-8.33-4.98-3.79-9.01-8.1-12.4-12.58-.94-1.24-1.43-1.93-2.11-2.9l-1.88-2.78c-1.3-1.72-2.49-3.67-3.78-5.38-2.53-3.57-5.02-7.13-7.92-10.41-1.46-1.66-3-3.26-4.81-4.79-.91-.75-1.88-1.48-2.97-2.14-1.1-.71-2.26-1.27-3.69-1.7h0Z"/><path class="cls-4" d="m15.09,46.22c2.15-5.44,6.16-10.02,11.54-13.39,5.35-3.34,12.77-5.05,20.13-3.59,3.63.7,7.16,2.06,10.25,3.86,3.08,1.79,5.83,3.96,8.22,6.27,1.19,1.16,2.27,2.38,3.35,3.6l2.78,3.55,4.3,5.71c5.48,7.35,11.39,15.97,21.07,18.52,9.51,2.51,13.64.29,19.44-.63-1.06,2.74-2.38,5.4-4.16,7.74-1.75,2.39-3.82,4.63-6.38,6.55-1.3.92-2.67,1.84-4.19,2.61-1.52.75-3.15,1.4-4.89,1.9-3.47.95-7.37,1.28-11.16.77-3.78-.5-7.4-1.7-10.56-3.3-3.18-1.58-5.96-3.5-8.44-5.53-4.92-4.09-8.75-8.61-11.99-13.17-1.63-2.28-3.1-4.61-4.47-6.94l-1.61-2.77c-.49-.81-.99-1.62-1.49-2.38-2.04-3.05-4.03-5.49-6.45-7.33-2.39-1.88-5.71-3.27-10.15-3.6-4.42-.33-9.53.28-15.14,1.54Z"/><path class="cls-2" d="m39.02,91.41c0,3.99-3.24,7.23-7.23,7.23s-7.23-3.24-7.23-7.23,3.24-7.23,7.23-7.23,7.23,3.24,7.23,7.23Z"/></g></svg>