<?xml version="1.0"?>
<svg width="1080" height="1080" xmlns="http://www.w3.org/2000/svg" xmlns:svg="http://www.w3.org/2000/svg" enable-background="new 0 0 159.8 159.8" version="1.1" xml:space="preserve">
 <style type="text/css">.st0{fill:#5546FF;}
	.st1{fill:#FFFFFF;}</style>
 <g class="layer">
  <title>Layer 1</title>
  <ellipse cx="540" cy="540" fill="#fe5412" id="svg_3" rx="535" ry="535" transform="matrix(1 0 0 1 0 0)"/>
  <path class="st1" d="m759.59,864.92l-114.45,-208.88l164.36,0l0,-78.91l-539,0l0,78.91l164.36,0l-114.45,208.88l85.18,0l134.42,-245.24l134.42,245.24l85.18,0zm49.91,-364.38l0,-78.91l-161.03,0l113.12,-206.56l-85.84,0l-135.75,249.11l-135.75,-249.11l-85.84,0l113.12,206.56l-161.03,0l0,79.68l539,-0.77l0,0z" id="svg_2"/>
 </g>
</svg>