<?xml version="1.0" encoding="utf-8"?>
<!-- Generator: Adobe Illustrator 27.4.0, SVG Export Plug-In . SVG Version: 6.00 Build 0)  -->
<svg version="1.1" id="Layer_1" xmlns="http://www.w3.org/2000/svg" xmlns:xlink="http://www.w3.org/1999/xlink" x="0px" y="0px"
	 viewBox="0 0 128 128" style="enable-background:new 0 0 128 128;" xml:space="preserve">
<style type="text/css">
	.st0{fill:#63A1F8;}
	.st1{fill-rule:evenodd;clip-rule:evenodd;fill:#FFFFFF;}
</style>
<g id="Group_40313" transform="translate(347.682 127.304)">
	<g id="Group_40312" transform="translate(0)">
		<g id="Group_39074" transform="translate(0)">
			<path id="Path_32914" class="st0" d="M-284.5-126.8c-35.1,0.4-63.1,29.2-62.7,64.3c0.4,35.1,29.2,63.1,64.3,62.7
				c34.8-0.4,62.7-28.7,62.7-63.5C-220.4-98.6-249.2-127-284.5-126.8z"/>
		</g>
	</g>
</g>
<path class="st1" d="M83.1,57.3L83.1,57.3c3.3,4.2,5.3,9.4,5.3,15.1c0,5.8-2,11.1-5.4,15.3l-0.3,0.4l-0.1-0.5
	c-0.1-0.4-0.1-0.8-0.2-1.2c-1.7-7.5-7.2-13.9-16.4-19.1c-6.2-3.5-9.7-7.7-10.6-12.5c-0.6-3.1-0.2-6.2,0.7-8.9
	c0.9-2.7,2.1-4.9,3.2-6.2l0,0l3.5-4.3c0.6-0.8,1.8-0.8,2.4,0L83.1,57.3z M88.7,52.9L88.7,52.9L64.9,23.8c-0.5-0.6-1.3-0.6-1.8,0
	L39.3,52.9l0,0L39.2,53c-4.4,5.4-7,12.3-7,19.9c0,17.5,14.2,31.7,31.7,31.7c17.5,0,31.7-14.2,31.7-31.7
	C95.7,65.4,93.1,58.5,88.7,52.9L88.7,52.9z M45,57.2L45,57.2l2.1-2.6l0.1,0.5c0.1,0.4,0.1,0.8,0.2,1.1c1.4,7.2,6.3,13.2,14.5,17.9
	c7.1,4.1,11.3,8.7,12.5,13.9c0.5,2.1,0.6,4.2,0.4,6.1l0,0.1l-0.1,0.1c-3.2,1.6-6.9,2.5-10.7,2.5c-13.4,0-24.3-10.9-24.3-24.3
	C39.7,66.6,41.7,61.3,45,57.2z"/>
</svg>
