<?xml version="1.0" encoding="utf-8"?>
<!-- Generator: Adobe Illustrator 27.2.0, SVG Export Plug-In . SVG Version: 6.00 Build 0)  -->
<svg version="1.1" id="Layer_1" xmlns="http://www.w3.org/2000/svg" xmlns:xlink="http://www.w3.org/1999/xlink" x="0px" y="0px"
	 viewBox="0 0 128 128" style="enable-background:new 0 0 128 128;" xml:space="preserve">
<style type="text/css">
	.st0{fill:url(#SVGID_1_);}
	.st1{fill:#FFFFFF;}
	.st2{fill:#F8BA3A;}
	.st3{fill:#FFFFFF;filter:url(#Adobe_OpacityMaskFilter);stroke:#FFFFFF;stroke-width:1.9107;}
	.st4{mask:url(#mask1_00000082352096027983808030000018374326329986988691_);}
	.st5{fill-rule:evenodd;clip-rule:evenodd;fill:#FFFFFF;}
	.st6{fill:#01C1AE;}
	.st7{fill:#FE9D51;}
	.st8{fill:#FE9A54;}
</style>
<g>
	
		<linearGradient id="SVGID_1_" gradientUnits="userSpaceOnUse" x1="64" y1="129.5" x2="64" y2="2.5" gradientTransform="matrix(1 0 0 -1 0 130)">
		<stop  offset="0" style="stop-color:#F5B745"/>
		<stop  offset="1" style="stop-color:#FC8B47"/>
	</linearGradient>
	<circle class="st0" cx="64" cy="64" r="63.5"/>
	<g>
		<path class="st1" d="M63.8,29.6V0.5c-0.7,0-1.5,0-2.2,0.1v29H63.8z"/>
		<path class="st1" d="M57.2,29.6V0.9C56.5,0.9,55.7,1,55,1.1v28.4H57.2z"/>
		<path class="st1" d="M72.4,29.6V1.1c-0.7-0.1-1.5-0.2-2.2-0.3v28.8H72.4z"/>
		<path class="st1" d="M50.4,20.7V2c-0.7,0.2-1.5,0.3-2.2,0.5v13.8L41.8,4.5c-0.7,0.3-1.4,0.5-2.1,0.8l8.5,15.9L50.4,20.7z"/>
		<path class="st1" d="M78.9,20.4l8.3-15.5c-0.7-0.3-1.4-0.5-2.1-0.8L79,15.5V2.3c-0.7-0.2-1.5-0.4-2.2-0.5v18.1L78.9,20.4z"/>
		<path class="st1" d="M63.8,104.1v23.3c0.1,0,0.1,0,0.2,0c0.7,0,1.4,0,2-0.1v-23.3H63.8z"/>
		<path class="st1" d="M70.4,104.1v23c0.7-0.1,1.5-0.2,2.2-0.3v-22.8H70.4z"/>
		<path class="st1" d="M55.2,104.1v22.7c0.7,0.1,1.5,0.2,2.2,0.3v-23H55.2z"/>
		<path class="st1" d="M77.6,113.6V126c0.7-0.2,1.5-0.3,2.2-0.5V118l3.5,6.5c0.7-0.2,1.4-0.5,2.1-0.7L79.7,113L77.6,113.6z"/>
		<path class="st1" d="M48.3,113.5l-5.6,10.4c0.7,0.3,1.4,0.5,2.1,0.7l3.3-6.1v7.1c0.7,0.2,1.5,0.4,2.2,0.5v-12L48.3,113.5z"/>
		<path class="st1" d="M26.5,66.9H0.6c0,0.7,0.1,1.5,0.2,2.2h25.8V66.9z"/>
		<path class="st1" d="M26.5,73.4H1.2c0.1,0.7,0.2,1.5,0.4,2.2h24.9V73.4z"/>
		<path class="st1" d="M26.5,58.3H0.8c-0.1,0.7-0.1,1.5-0.2,2.2h25.9V58.3z"/>
		<path class="st1" d="M16.6,80.5H2.7c0.2,0.7,0.4,1.5,0.6,2.2h8.9l-7.5,4c0.3,0.7,0.5,1.4,0.8,2.1l11.6-6.2L16.6,80.5z"/>
		<path class="st1" d="M20,52.8L3.7,44c-0.2,0.7-0.5,1.4-0.7,2.2l12,6.4H1.5c-0.1,0.7-0.3,1.5-0.4,2.2h18.3L20,52.8z"/>
		<path class="st1" d="M101.1,66.8h26.4c0-0.7,0-1.5,0.1-2.2h-26.4V66.8z"/>
		<path class="st1" d="M101.1,60.3h26.3c0-0.7-0.1-1.5-0.2-2.2h-26.1V60.3z"/>
		<path class="st1" d="M101.1,75.4h25.4c0.1-0.7,0.3-1.5,0.4-2.2h-25.7V75.4z"/>
		<path class="st1" d="M109.5,53.2h17.1c-0.1-0.7-0.3-1.5-0.4-2.2h-12.3l10.8-5.8c-0.2-0.7-0.5-1.4-0.7-2.1l-15,8L109.5,53.2z"/>
		<path class="st1" d="M110.6,82.2l12,6.4c0.3-0.7,0.6-1.4,0.8-2.1l-7.8-4.2h9.3c0.2-0.7,0.4-1.5,0.6-2.2h-14.3L110.6,82.2z"/>
		<path class="st1" d="M37.5,93.2l-17,17c0.5,0.5,1.1,1,1.7,1.5L39,94.8L37.5,93.2z"/>
		<path class="st1" d="M42.1,97.9l-16.6,16.6c0.6,0.5,1.2,0.9,1.8,1.3l16.4-16.4L42.1,97.9z"/>
		<path class="st1" d="M31.4,87.2l-16.7,16.7c0.5,0.6,1,1.1,1.4,1.7l16.9-16.9L31.4,87.2z"/>
		<path class="st1" d="M41.7,109.9l-9.2,9.2c0.7,0.4,1.3,0.8,2,1.1l5.6-5.6l-2.2,7.3c0.7,0.3,1.4,0.6,2.1,0.9l3.6-11.8L41.7,109.9z"
			/>
		<path class="st1" d="M20,87.8l-13.1,4c0.3,0.7,0.7,1.4,1,2l8.5-2.6l-6.3,6.3c0.4,0.6,0.8,1.3,1.2,1.9l9.8-9.8L20,87.8z"/>
		<path class="st1" d="M90.1,40.5l20-20c-0.5-0.5-1-1.1-1.6-1.6L88.6,38.9L90.1,40.5z"/>
		<path class="st1" d="M85.5,35.9l19.9-19.9c-0.6-0.5-1.1-1-1.7-1.4L83.9,34.3L85.5,35.9z"/>
		<path class="st1" d="M96.2,46.6l19.5-19.5c-0.4-0.6-0.9-1.2-1.3-1.8L94.7,45L96.2,46.6z"/>
		<path class="st1" d="M86.8,24.8l13.1-13.1c-0.6-0.4-1.3-0.8-1.9-1.3l-9.7,9.7l3.9-12.9c-0.7-0.3-1.4-0.7-2-1L85,23.7L86.8,24.8z"
			/>
		<path class="st1" d="M107.3,45.2l15.6-4.7c-0.3-0.7-0.6-1.4-0.9-2.1l-11.2,3.4l8.6-8.6c-0.4-0.7-0.8-1.3-1.2-2l-12.2,12.2
			L107.3,45.2z"/>
		<path class="st1" d="M90.2,93.2l17.2,17.2c0.5-0.5,1.1-1,1.6-1.5L91.7,91.6L90.2,93.2z"/>
		<path class="st1" d="M94.8,88.6l17.1,17.1c0.5-0.6,1-1.1,1.4-1.7l-17-17L94.8,88.6z"/>
		<path class="st1" d="M84.1,99.3l16.6,16.6c0.6-0.4,1.2-0.9,1.8-1.3L85.7,97.7L84.1,99.3z"/>
		<path class="st1" d="M107,89.7l9.7,9.7c0.4-0.6,0.8-1.3,1.2-1.9l-6.2-6.2l8.3,2.5c0.4-0.7,0.7-1.3,1-2l-13-3.9L107,89.7z"/>
		<path class="st1" d="M85.4,110.6l3.6,11.8c0.7-0.3,1.4-0.6,2-0.9l-2.2-7.3l5.6,5.6c0.7-0.4,1.3-0.8,2-1.2l-9.1-9.1L85.4,110.6z"/>
		<path class="st1" d="M37.4,40.5L17.6,20.7c-0.5,0.5-1,1.1-1.5,1.7l19.7,19.8L37.4,40.5z"/>
		<path class="st1" d="M32.8,45.2L13.3,25.7c-0.5,0.6-0.9,1.2-1.3,1.8l19.2,19.2L32.8,45.2z"/>
		<path class="st1" d="M43.5,34.4L23.9,14.8c-0.6,0.5-1.1,1-1.7,1.5L41.9,36L43.5,34.4z"/>
		<path class="st1" d="M23.1,45.4L9.4,31.6c-0.4,0.7-0.8,1.3-1.2,2l10.2,10.2l-13.2-4C5,40.6,4.7,41.3,4.4,42L22,47.3L23.1,45.4z"/>
		<path class="st1" d="M43.2,24.9L37.6,6.3c-0.7,0.3-1.4,0.6-2,1l4.2,14L29.3,10.8c-0.6,0.4-1.3,0.8-1.9,1.3L41.3,26L43.2,24.9z"/>
	</g>
	<g>
		<circle class="st2" cx="63.8" cy="64.2" r="43.4"/>
		<path class="st1" d="M63.8,108.5c-24.4,0-44.3-19.9-44.3-44.3s19.9-44.3,44.3-44.3s44.3,19.9,44.3,44.3S88.2,108.5,63.8,108.5z
			 M63.8,21.8c-23.4,0-42.4,19-42.4,42.4s19,42.4,42.4,42.4s42.4-19,42.4-42.4S87.2,21.8,63.8,21.8z"/>
	</g>
	<defs>
		<filter id="Adobe_OpacityMaskFilter" filterUnits="userSpaceOnUse" x="60.5" y="18.9" width="52.9" height="88.6">
			<feColorMatrix  type="matrix" values="1 0 0 0 0  0 1 0 0 0  0 0 1 0 0  0 0 0 1 0"/>
		</filter>
	</defs>
	
		<mask maskUnits="userSpaceOnUse" x="60.5" y="18.9" width="52.9" height="88.6" id="mask1_00000082352096027983808030000018374326329986988691_">
		<circle class="st3" cx="64.2" cy="64.2" r="43.4"/>
	</mask>
	<g class="st4">
		<path class="st5" d="M66.3,18.9L60.5,65h5.7L64,107.5l41.8-7.5l7.6-58.4L95,25.5L66.3,18.9z"/>
	</g>
	<g>
		<path class="st6" d="M23.7,58.4c1,8,6.2,16.4,14.2,15.4C65.2,70.5,61.4,53,61,47.3c2,16.1,14.2,22,34.6,19.5
			c6.1-0.7,8.6-12.6,7.9-18.1c-0.8-6.9-19-7.9-41.7-5.1C39.2,46.3,22.4,48.4,23.7,58.4z"/>
		<path class="st6" d="M36.7,75.7c-3.7,0-7.2-1.8-9.9-5c-2.5-3.1-4.3-7.5-4.9-12l0,0c-1-8.2,8.3-11.1,11.4-12.1
			c7-2.2,16.9-3.4,28.4-4.8c11.9-1.5,22-1.8,29.4-1.1c8.9,0.9,13.7,3.5,14.2,7.7c0.4,3.2-0.2,7.9-1.5,11.6c-1.7,5-4.6,8-7.9,8.5
			C79.1,70.6,68,67.1,62.6,58.1c-1.4,7.2-6.8,15.3-24.5,17.5C37.6,75.6,37.1,75.7,36.7,75.7z M82.7,43.9c-5.9,0-12.9,0.5-20.6,1.4
			c-11.3,1.4-21,2.6-27.8,4.7c-8.5,2.6-9.2,5.8-8.9,8.3l0,0c0.5,3.9,2,7.6,4.1,10.2c1.6,1.9,4.3,4.2,8.2,3.7
			C61.3,69.2,60,55.5,59.4,48.9c-0.1-0.5-0.1-1-0.1-1.5c-0.1-0.9,0.6-1.8,1.6-1.9c1-0.1,1.8,0.6,1.9,1.5
			C64.5,61.6,75.2,67.5,95.4,65c1.9-0.2,3.8-2.5,5-6.1c1.3-3.8,1.6-7.9,1.3-10.1c-0.3-2.3-4.3-3.9-11.1-4.6
			C88.3,44,85.6,43.9,82.7,43.9z"/>
	</g>
	<g>
		<path class="st1" d="M64.5,91.8C74,91,81.1,83.3,80.4,74.7L46,77.5C46.7,86.1,55,92.6,64.5,91.8z"/>
		<path class="st7" d="M62.9,92.6c-9.2,0-17-6.5-17.7-15.1c0-0.2,0-0.4,0.2-0.6c0.1-0.2,0.3-0.3,0.5-0.3l34.4-2.8
			c0.4,0,0.8,0.3,0.9,0.7c0.4,4.4-1.2,8.7-4.3,12.1c-3.1,3.4-7.5,5.5-12.3,5.8l0,0C64,92.6,63.4,92.6,62.9,92.6z M46.9,78.2
			C48,86,55.6,91.7,64.4,91l0,0c4.4-0.4,8.4-2.3,11.3-5.3c2.7-2.9,4.1-6.4,4-10.1L46.9,78.2z"/>
	</g>
	<g>
		<path class="st8" d="M78.3,83.1h-9.4c-0.4,0-0.6-0.3-0.6-0.6c0-0.4,0.3-0.6,0.6-0.6h9.4c0.4,0,0.6,0.3,0.6,0.6
			C79,82.8,78.7,83.1,78.3,83.1z"/>
	</g>
	<g>
		<path d="M74,63c-7.4-2.8-10.3-10.2-10.9-13.5c0-4.5,5.1-5.1,17.6-5.1s20.1,1,20.7,4.3c0.6,5.7-1.4,14.3-4.3,15.8
			C94.3,65.8,83.3,66.5,74,63z"/>
		<path d="M89.1,65.7C84.6,65.7,79,65,74,63.1l0,0C66.6,60.3,63.6,53,63,49.5c0-4.8,5.7-5.3,17.8-5.3c14,0,20.3,1.3,20.8,4.4
			c0.6,5.7-1.4,14.5-4.4,15.9C95.9,65.2,92.9,65.7,89.1,65.7z M74.1,62.8c9.2,3.5,20.1,2.9,23,1.4c2.8-1.4,4.8-10.1,4.2-15.6
			c-0.5-2.9-6.9-4.2-20.5-4.2c-6.2,0-10.6,0.1-13.5,0.9c-2.8,0.7-4,1.9-4,4.1C63.9,52.9,66.9,60.1,74.1,62.8z"/>
	</g>
	<g>
		<path d="M52.3,66.8c5.9-3.9,9-11.4,7.1-17.8c-1.1-3.6-6.8-2.7-17.6-1c-9.6,1.5-17,5.7-16.2,9.4c0.4,6,5.1,12.4,7.8,13.5
			C36.2,72.1,45,71.7,52.3,66.8z"/>
		<path d="M37.2,71.6c-1.6,0-2.9-0.2-3.8-0.5c-2.8-1.1-7.5-7.5-7.9-13.7c-0.2-0.8,0-1.7,0.6-2.6c2-3,8.3-5.8,15.7-7
			c10.8-1.7,16.7-2.6,17.8,1.1c1.9,6.4-1.2,14-7.2,17.9C47.2,70.4,41.2,71.6,37.2,71.6z M54.2,46.7c-2.9,0-7,0.6-12.3,1.5
			c-7.2,1.1-13.5,3.9-15.5,6.8c-0.6,0.8-0.8,1.6-0.6,2.4c0.4,5.9,4.9,12.3,7.7,13.4c2.8,1.1,11.4,0.7,18.7-4.1l0,0
			c5.9-3.9,8.9-11.3,7.1-17.6C58.8,47.3,57.1,46.7,54.2,46.7z"/>
	</g>
	<path class="st1" d="M103.5,30l3.6,9.7l9.7,3.6l-9.7,3.6l-3.6,9.7l-3.6-9.7l-9.7-3.6l9.7-3.6L103.5,30z"/>
</g>
</svg>
