<?xml version="1.0" encoding="utf-8"?>
<!-- Generator: Adobe Illustrator 24.3.0, SVG Export Plug-In . SVG Version: 6.00 Build 0)  -->
<svg version="1.1" id="Layer_1" xmlns="http://www.w3.org/2000/svg" xmlns:xlink="http://www.w3.org/1999/xlink" x="0px" y="0px"
	 width="50px" height="50px" viewBox="0 0 50 50" style="enable-background:new 0 0 50 50;" xml:space="preserve">
<style type="text/css">
	.st0{fill:#1C2951;}
	.st1{fill:#F10A00;}
	.st2{fill:#F6A500;}
	.st3{fill:#F3FF08;}
	.st4{fill:#00FD52;}
	.st5{fill:#0BA6FF;}
	.st6{fill:#7E38F3;}
	.st7{fill:#C7D5E0;}
	.st8{fill:#F1EBF5;}
	.st9{fill:#AC0117;}
	.st10{fill:#F0013D;}
	.st11{fill:#272F32;}
	.st12{fill:#DFE8ED;}
	.st13{fill:#FE8E00;}
	.st14{fill:#5AB647;}
	.st15{fill:#FD4766;}
</style>
<circle class="st0" cx="25" cy="25" r="25"/>
<g>
	<rect x="39.2" y="21.1" transform="matrix(0.5736 0.8192 -0.8192 0.5736 36.2614 -22.715)" class="st1" width="1.5" height="4.6"/>
	<rect x="43.4" y="19.1" transform="matrix(0.5736 0.8192 -0.8192 0.5736 36.3878 -27.062)" class="st1" width="1.5" height="4.6"/>
	
		<rect x="35.8" y="24.4" transform="matrix(0.5736 0.8192 -0.8192 0.5736 37.5085 -18.5488)" class="st1" width="1.5" height="4.6"/>
	
		<rect x="38.3" y="19.9" transform="matrix(0.5736 0.8192 -0.8192 0.5736 34.8881 -22.5342)" class="st2" width="1.5" height="4.6"/>
	
		<rect x="42.6" y="17.9" transform="matrix(0.5736 0.8192 -0.8192 0.5736 35.0144 -26.8812)" class="st2" width="1.5" height="4.6"/>
	<rect x="35" y="23.2" transform="matrix(0.5736 0.8192 -0.8192 0.5736 36.1351 -18.368)" class="st2" width="1.5" height="4.6"/>
	
		<rect x="37.5" y="18.7" transform="matrix(0.5736 0.8192 -0.8192 0.5736 33.5147 -22.3533)" class="st3" width="1.5" height="4.6"/>
	<rect x="41.7" y="16.6" transform="matrix(0.5736 0.8192 -0.8192 0.5736 33.641 -26.7004)" class="st3" width="1.5" height="4.6"/>
	<rect x="34.1" y="22" transform="matrix(0.5736 0.8192 -0.8192 0.5736 34.7617 -18.1871)" class="st3" width="1.5" height="4.6"/>
	
		<rect x="36.6" y="17.5" transform="matrix(0.5736 0.8192 -0.8192 0.5736 32.1413 -22.1725)" class="st4" width="1.5" height="4.6"/>
	
		<rect x="44.2" y="12.1" transform="matrix(0.5736 0.8192 -0.8192 0.5736 31.0205 -30.6858)" class="st4" width="1.5" height="4.6"/>
	
		<rect x="40.9" y="15.4" transform="matrix(0.5736 0.8192 -0.8192 0.5736 32.2676 -26.5196)" class="st4" width="1.5" height="4.6"/>
	
		<rect x="33.2" y="20.7" transform="matrix(0.5736 0.8192 -0.8192 0.5736 33.3884 -18.0063)" class="st4" width="1.5" height="4.6"/>
	
		<rect x="35.8" y="16.2" transform="matrix(0.5736 0.8192 -0.8192 0.5736 30.7679 -21.9917)" class="st5" width="1.5" height="4.6"/>
	
		<rect x="43.4" y="10.9" transform="matrix(0.5736 0.8192 -0.8192 0.5736 29.6471 -30.5049)" class="st5" width="1.5" height="4.6"/>
	<rect x="40" y="14.2" transform="matrix(0.5736 0.8192 -0.8192 0.5736 30.8942 -26.3387)" class="st5" width="1.5" height="4.6"/>
	<rect x="32.4" y="19.5" transform="matrix(0.5736 0.8192 -0.8192 0.5736 32.015 -17.8255)" class="st5" width="1.5" height="4.6"/>
	<rect x="34.9" y="15" transform="matrix(0.5736 0.8192 -0.8192 0.5736 29.3945 -21.8109)" class="st6" width="1.5" height="4.6"/>
	<rect x="42.5" y="9.7" transform="matrix(0.5736 0.8192 -0.8192 0.5736 28.2737 -30.3241)" class="st6" width="1.5" height="4.6"/>
	<rect x="39.1" y="13" transform="matrix(0.5736 0.8192 -0.8192 0.5736 29.5208 -26.1579)" class="st6" width="1.5" height="4.6"/>
	
		<rect x="31.5" y="18.3" transform="matrix(0.5736 0.8192 -0.8192 0.5736 30.6416 -17.6447)" class="st6" width="1.5" height="4.6"/>
	<path class="st6" d="M46.2,11.8c-0.3-0.4-0.5-0.8-0.8-1.2l-0.2,0.1l0.9,1.2L46.2,11.8z"/>
	<path class="st5" d="M46.2,11.8L46,11.9l0.9,1.2l0.1-0.1C46.7,12.6,46.5,12.2,46.2,11.8z"/>
	<path class="st4" d="M47,13.1L47,13.1l0.4,0.7C47.2,13.5,47.1,13.3,47,13.1z"/>
	<path class="st3" d="M48,15.1c-0.2-0.5-0.4-0.9-0.6-1.3l0,0l-3.8,2.7l0.9,1.2L48,15.1z"/>
	<path class="st2" d="M48.5,16.5c-0.2-0.5-0.4-1-0.6-1.4l-3.6,2.5l0.9,1.2L48.5,16.5z"/>
	<path class="st1" d="M49,18c-0.1-0.5-0.3-1-0.5-1.5l-3.3,2.3l0.9,1.2L49,18z"/>
</g>
<g>
	<path class="st7" d="M19.5,37.3l16.8-9.6l0.3-10.1h-15c-1.3,0-2.5,1.1-2.5,2.5v17.3C19.2,37.4,19.4,37.4,19.5,37.3z"/>
	<path class="st8" d="M9.7,20.7c0.1,1.6,0,3.8,0,5.1c0,2.2-0.1,5,3.1,8.4c2,2.2,4.9,3,6,3.2c0.1,0.1,0.3,0,0.5,0V20.1
		c0-1.3-1.1-2.5-2.5-2.5h-4c-0.9,0.7-1.9,1.5-2.8,2.3C9.8,20.1,9.7,20.4,9.7,20.7z"/>
	<path class="st9" d="M18.4,30.2c0.7,0.4,1.5,0.4,2.2,0l16-10.9l0.1-2.3c0-0.5-0.3-1-0.7-1.2l-8.4-4.7c-0.4-0.2-1-0.1-1.2,0
		c0,0-9.1,2.1-16.4,8.8c-0.2,0.2-0.3,0.5-0.3,0.8c0.1,1.1,0,2.5,0,3.7L18.4,30.2z"/>
	<path class="st10" d="M20.6,26.9l16-10.3c-0.1-0.3-0.3-0.6-0.6-0.7l-8.4-4.7c-0.4-0.2-1-0.1-1.2,0c0,0-9.1,2.1-16.4,8.8
		c-0.2,0.2-0.3,0.5-0.3,0.8c0,0.1,0,0.2,0,0.2l8.7,5.9C19.1,27.3,19.9,27.3,20.6,26.9z"/>
	<g>
		<path class="st11" d="M30.4,24.2c-4.5,0-8.2,2.8-8.2,6.3l0,0v4.1l0,0c0.2,3.3,3.8,6,8.2,6s8.1-2.7,8.2-6l0,0v-4.2
			C38.6,27,34.9,24.2,30.4,24.2z"/>
		<ellipse class="st12" cx="30.4" cy="30.4" rx="7" ry="5.1"/>
		<ellipse class="st13" cx="30.4" cy="29.9" rx="4.3" ry="3"/>
		<path class="st14" d="M34.7,29.9c0-1.7-1.9,0-4.3,0s-4.3-1.7-4.3,0s1.9,3,4.3,3C32.8,32.9,34.7,31.6,34.7,29.9z"/>
	</g>
	<path class="st15" d="M16.7,25L16.7,25c-0.4,0.1-0.8-0.2-0.9-0.6l-1.2-6.8c-0.1-0.4,0.2-0.8,0.6-0.9l0,0c0.4-0.1,0.8,0.2,0.9,0.6
		l1.2,6.8C17.4,24.6,17.1,25,16.7,25z"/>
	<path class="st15" d="M22,24.6L22,24.6c-0.4,0.1-0.8-0.2-0.9-0.6l-1.7-9.5c-0.1-0.4,0.2-0.8,0.6-0.9l0,0c0.4-0.1,0.8,0.2,0.9,0.6
		l1.7,9.5C22.7,24.2,22.4,24.6,22,24.6z"/>
	<path class="st15" d="M26.4,22L26.4,22c-0.4,0.1-0.8-0.2-0.9-0.6L24,13.2c-0.1-0.4,0.2-0.8,0.6-0.9l0,0c0.4-0.1,0.8,0.2,0.9,0.6
		l1.5,8.2C27.1,21.5,26.8,21.9,26.4,22z"/>
	<path class="st15" d="M31,18.8L31,18.8c-0.4,0.1-0.8-0.2-0.9-0.6l-1-4.3c-0.1-0.4,0.2-0.8,0.6-0.9l0,0c0.4-0.1,0.8,0.2,0.9,0.6
		l1,4.3C31.7,18.2,31.5,18.7,31,18.8z"/>
</g>
</svg>
