<?xml version="1.0" encoding="UTF-8"?><svg id="Layer_1" xmlns="http://www.w3.org/2000/svg" xmlns:xlink="http://www.w3.org/1999/xlink" viewBox="0 0 128 128"><defs><style>.cls-1{fill:url(#linear-gradient);}.cls-1,.cls-2{stroke-width:0px;}.cls-2{fill:#ddd;}</style><linearGradient id="linear-gradient" x1="64.26" y1="-9841.59" x2="63.39" y2="-9991.9" gradientTransform="translate(0 -9822.15) scale(1 -1)" gradientUnits="userSpaceOnUse"><stop offset="0" stop-color="#3e67e6"/><stop offset="1" stop-color="#1622a4"/></linearGradient></defs><circle class="cls-2" cx="64" cy="64" r="63.5"/><path id="SWELL" class="cls-1" d="m104.82,73.44l-.11.12c-.05.05-.11.11-.16.16l-30.87,30.82c-5.38,5.37-14.1,5.37-19.47,0l-8.53-8.51c-.6-.6-.61-1.58,0-2.18.18-.18.39-.31.63-.38,9.14-2.82,16.56-6.08,22.27-9.77,13.6-8.79,25.68-12.21,36.24-10.26Zm-6.47-25.35c11.4,3.59,10.07,11.98,10.22,15.28-12.48-6.55-27.5-4.15-45.05,7.2-13.08,8.45-24.04,11.94-32.87,10.46-8.83-1.48-10.82-12.27-11.22-15.14,9.71,4.91,22.72,2.09,39.03-8.45,15.2-9.82,28.5-12.94,39.89-9.35Zm-24.67-24.63l8.01,8c.6.6.6,1.58,0,2.18-.21.22-.49.36-.79.42-11.6,2.34-20.87,5.75-27.82,10.24-11.91,7.7-22.06,11.28-30.45,10.74h0s31.58-31.58,31.58-31.58c5.38-5.37,14.1-5.37,19.47,0Z"/></svg>