<?xml version="1.0" encoding="utf-8"?>
<!-- Generator: Adobe Illustrator 27.2.0, SVG Export Plug-In . SVG Version: 6.00 Build 0)  -->
<svg version="1.1" id="Layer_1" xmlns="http://www.w3.org/2000/svg" xmlns:xlink="http://www.w3.org/1999/xlink" x="0px" y="0px"
	 viewBox="0 0 128 128" style="enable-background:new 0 0 128 128;" xml:space="preserve">
<style type="text/css">
	.st0{fill:#EEEEEF;}
	.st1{fill:url(#SVGID_1_);}
	.st2{fill:url(#SVGID_00000121975650550885900760000011225092719236130208_);}
	.st3{fill:url(#SVGID_00000070100826031350464260000006985739027263002559_);}
	.st4{fill:url(#SVGID_00000073681599083051608770000012836076345677418924_);}
	.st5{fill:url(#SVGID_00000120534551866324021930000011521391785384042136_);}
	.st6{fill:url(#SVGID_00000067924294544300543850000005964520010854715012_);}
</style>
<circle class="st0" cx="64" cy="64" r="63.5"/>
<g>
	
		<linearGradient id="SVGID_1_" gradientUnits="userSpaceOnUse" x1="-140.226" y1="-295.31" x2="-117.3019" y2="-295.31" gradientTransform="matrix(1.4058 0 0 -0.5704 244.9974 -66.511)">
		<stop  offset="0" style="stop-color:#EF4136"/>
		<stop  offset="1" style="stop-color:#FBB040"/>
	</linearGradient>
	<path class="st1" d="M57.3,107c0.6,0.3,1.3,0.6,2,0.8l0.3,0.1c0.6,0.2,1.3,0.3,2,0.5h0.3c1.4,0.2,2.8,0.2,4.1,0h0.3
		c0.7-0.1,1.3-0.2,1.9-0.4l0.4-0.1c0.6-0.2,1.3-0.5,1.9-0.7l0.3-0.1c0.6-0.3,1.2-0.6,1.8-1l0.1-0.1c0.6-0.4,1.2-0.8,1.8-1.3l0.3-0.3
		c0.5-0.5,1.1-1,1.6-1.5l0.3-0.4c0.5-0.5,1.1-1.1,1.6-1.7l0.2-0.3c0.5-0.6,0.9-1.2,1.4-1.8l0.2-0.2C75,98.1,69.9,97.1,65,95.5
		c-0.7-0.2-1.4-0.2-2.1,0c-4.9,1.6-10,2.6-15.1,2.9C50.2,102,53.5,105,57.3,107z"/>
	
		<linearGradient id="SVGID_00000079469595969383992270000005787662131128128414_" gradientUnits="userSpaceOnUse" x1="39.0263" y1="-47.1939" x2="73.2311" y2="-47.1939" gradientTransform="matrix(0.9852 0 0 -0.8139 -14.9816 42.842)">
		<stop  offset="0" style="stop-color:#EF4136"/>
		<stop  offset="1" style="stop-color:#FBB040"/>
	</linearGradient>
	<path style="fill:url(#SVGID_00000079469595969383992270000005787662131128128414_);" d="M23.5,79.9c0.1,0.7,0.2,1.3,0.3,2l0.1,0.4
		c0.2,0.6,0.3,1.3,0.6,1.9l0.1,0.3c0.5,1.3,1.2,2.5,2.1,3.6l0.2,0.3c0.4,0.5,0.9,1,1.3,1.4l0.3,0.3c0.5,0.4,1,0.9,1.6,1.2l0.2,0.2
		c0.5,0.4,1.1,0.7,1.7,1l0.2,0.1c0.6,0.3,1.3,0.6,1.9,0.9l0.4,0.2c0.7,0.2,1.3,0.5,2,0.7l0.5,0.1c0.7,0.2,1.4,0.3,2.2,0.5h0.4
		c0.7,0.1,1.4,0.2,2.2,0.3h0.3c-0.6-1.1-1.1-2.3-1.6-3.5c-0.3-0.6-0.2-1.4,0.4-1.8c0.5-0.5,1.3-0.6,1.9-0.2c0.3,0.2,0.6,0.4,0.7,0.8
		c0.4,1,0.9,2,1.4,2.9c0.6,1.2,1.9,2,3.3,1.9c2.8-0.2,5.6-0.6,8.3-1.2c0.3-0.1,0.6-0.4,0.6-0.7c0-0.4-0.1-0.7-0.5-0.9
		c-2.4-1.1-4.7-2.2-7-3.6c-9.4-5.2-17.5-12.5-23.6-21.4L26,67.5c-0.4,0.8-0.7,1.5-0.9,2.3V70c-0.3,0.8-0.5,1.6-0.7,2.3l-0.1,0.4
		c-0.2,0.7-0.3,1.5-0.5,2.2v0.4c-0.1,0.7-0.2,1.4-0.2,2.2v0.2c0,0.7,0,1.4,0,2.1C23.5,79.7,23.5,79.8,23.5,79.9z"/>
	
		<linearGradient id="SVGID_00000036935903123991994220000011955438767077155996_" gradientUnits="userSpaceOnUse" x1="41.0685" y1="-27.904" x2="118.297" y2="-27.904" gradientTransform="matrix(0.9892 0 0 -0.8106 -12.4694 41.3419)">
		<stop  offset="0" style="stop-color:#EF4136"/>
		<stop  offset="1" style="stop-color:#FBB040"/>
	</linearGradient>
	<path style="fill:url(#SVGID_00000036935903123991994220000011955438767077155996_);" d="M64.2,36.2H64c-4.4,1.5-8.7,3.5-12.7,5.8
		c-9.2,5.1-17,12.3-22.8,21c-0.4,0.6-0.4,1.3,0,1.9c2.2,3.5,4.7,6.7,7.6,9.5c-0.5-3.5-0.7-7-0.7-10.5v-2.9c0-0.4,0.2-0.7,0.4-1
		c0.5-0.5,1.2-0.6,1.8-0.4c0.6,0.2,1,0.8,1,1.5v2.8c0,4.3,0.4,8.6,1.1,12.9c0.1,0.7,0.5,1.4,1.1,1.8c3.3,2.7,6.9,5.2,10.6,7.3
		c8.7,5.2,18.5,8.3,28.5,9.2c1.4,0.1,2.6-0.7,3.3-1.9c1.3-2.6,2.3-5.3,3.2-8.1c0.1-0.3,0-0.7-0.3-0.9c-0.3-0.2-0.7-0.2-0.9,0
		c-2.2,1.6-4.4,3.1-6.7,4.4c-0.7,0.4-1.4,0.8-2.2,1.2c-0.4,0.2-0.8,0.2-1.2,0.1c-0.6-0.2-1-0.7-1.1-1.4c-0.1-0.6,0.3-1.2,0.8-1.5
		c0.7-0.4,1.4-0.8,2.1-1.2c3.8-2.2,7.3-4.7,10.7-7.5c0.5-0.4,0.8-1,1-1.6c0.7-4.3,1.1-8.6,1-13v-3.5c0-0.6,0.3-1.1,0.8-1.4
		s1.2-0.2,1.7,0.1c0.3,0.3,0.5,0.7,0.6,1.1c0,1.2,0.1,2.4,0.1,3.5c0.2,10.8-2.1,21.5-6.8,31.2h0.3c0.7-0.1,1.4-0.2,2.1-0.3h0.4
		c0.8-0.1,1.5-0.3,2.2-0.5l0.5-0.1c0.7-0.2,1.4-0.4,2-0.7l0.4-0.2c0.7-0.3,1.3-0.6,1.9-0.9l0.2-0.1c0.6-0.3,1.2-0.7,1.7-1l0.2-0.2
		c0.6-0.4,1.1-0.8,1.6-1.3l0.3-0.3c0.5-0.5,0.9-0.9,1.3-1.4l0.2-0.2c0.9-1.1,1.6-2.3,2.1-3.6l0.1-0.3c0.2-0.6,0.4-1.2,0.6-1.9
		l0.1-0.4c0.1-0.6,0.2-1.3,0.3-1.9v-0.3c0-0.7,0-1.4,0-2.1v-0.2c0-0.8-0.1-1.5-0.2-2.3v-0.4c-0.1-0.7-0.3-1.4-0.5-2.2l-0.1-0.4
		c-0.2-0.7-0.5-1.5-0.7-2.3v-0.2c-0.3-0.7-0.6-1.5-0.9-2.2l-0.1-0.2c-1.1,1.7-2.2,3.2-3.4,4.8c-0.3,0.4-0.9,0.5-1.4,0.4
		c-0.5-0.2-0.8-0.6-0.9-1.1v-1.1c0-0.3,0.1-0.6,0.3-0.8c2.5-3.2,2.4-7.8-0.2-10.9C90.9,51.8,84.3,46.2,76.7,42c-2-1.1-4-2.2-6-3.2
		c1.3-0.5,2.8-1,4.4-1.4c1.1,0.5,2.1,1.1,3.2,1.7c3,1.7,5.9,3.7,8.7,5.8c-1-3.7-2.3-7.3-4.1-10.7c-0.5-1-1.6-1.6-2.7-1.6
		c-5.5,0.3-10.8,1.4-16,3.3L64.2,36.2z M51.3,50.4l5.2,1.8c0.2,0.1,0.4,0.3,0.4,0.5c0.1,0.2,0,0.5-0.2,0.6l-3.4,3.4
		C53.2,57,52.9,57,52.7,57c-0.2-0.1-0.4-0.2-0.5-0.4l-1.8-5.2c-0.1-0.3,0-0.5,0.2-0.7C50.7,50.4,51,50.3,51.3,50.4z M45.4,64.7
		c-0.2-0.1-0.4-0.4-0.4-0.6c0-0.3,0.2-0.5,0.4-0.6l5-2.4c0.2-0.1,0.5-0.1,0.7,0c0.2,0.1,0.3,0.3,0.3,0.6v4.9c0,0.2-0.1,0.5-0.3,0.6
		c-0.2,0.1-0.5,0.1-0.7,0L45.4,64.7z M56.5,75.9l-5.2,1.8c-0.2,0.1-0.5,0-0.7-0.2c-0.2-0.2-0.2-0.4-0.2-0.7l1.8-5.2
		c0.1-0.2,0.3-0.4,0.5-0.4c0.2,0,0.5,0,0.6,0.2l3.4,3.4c0.2,0.2,0.2,0.4,0.2,0.7C56.9,75.6,56.7,75.8,56.5,75.9z M67.1,77.8l-2.4,5
		c-0.1,0.2-0.4,0.4-0.6,0.4c-0.3,0-0.5-0.1-0.6-0.4l-2.4-5c-0.1-0.2-0.1-0.5,0-0.7c0.1-0.2,0.3-0.3,0.6-0.3h4.9
		c0.2,0,0.5,0.1,0.6,0.3C67.1,77.3,67.1,77.5,67.1,77.8L67.1,77.8z M76.8,77.8L71.5,76c-0.2-0.1-0.4-0.3-0.4-0.5
		c-0.1-0.2,0-0.5,0.2-0.6l3.4-3.4c0.2-0.2,0.4-0.2,0.6-0.2c0.2,0.1,0.4,0.2,0.5,0.4l1.8,5.1c0.1,0.3,0.1,0.6-0.1,0.8
		C77.3,77.7,77,77.8,76.8,77.8L76.8,77.8z M82.7,63.5c0.2,0.1,0.4,0.4,0.4,0.6c0,0.3-0.1,0.5-0.4,0.6l-5,2.4c-0.2,0.1-0.5,0.1-0.7,0
		c-0.2-0.1-0.3-0.3-0.3-0.6v-4.9c0-0.2,0.1-0.5,0.3-0.6c0.2-0.1,0.5-0.1,0.7,0L82.7,63.5z M71.5,52.3l5.2-1.9c0.2-0.1,0.5,0,0.7,0.2
		c0.2,0.2,0.2,0.5,0.2,0.7l-1.8,5.2c-0.1,0.2-0.3,0.4-0.5,0.4c-0.2,0-0.5,0-0.6-0.2l-3.4-3.4c-0.2-0.2-0.2-0.4-0.2-0.6
		C71.1,52.5,71.3,52.3,71.5,52.3L71.5,52.3z M73.5,64c0,5.3-4.3,9.5-9.5,9.5c-5.3,0-9.5-4.3-9.5-9.5c0-5.3,4.3-9.5,9.5-9.5
		C69.3,54.5,73.5,58.8,73.5,64z M64.6,45.4l2.4,5c0.1,0.2,0.1,0.5,0,0.7c-0.1,0.2-0.3,0.3-0.6,0.3h-4.9c-0.2,0-0.5-0.1-0.6-0.3
		c-0.1-0.2-0.1-0.5,0-0.7l2.4-5c0.1-0.2,0.4-0.4,0.6-0.4C64.3,45,64.5,45.2,64.6,45.4z"/>
	
		<linearGradient id="SVGID_00000170264055154052789080000007991825724497854357_" gradientUnits="userSpaceOnUse" x1="262.4748" y1="110.3234" x2="288.0345" y2="110.3234" gradientTransform="matrix(0.7351 0 0 -1.0908 -169.5051 167.1459)">
		<stop  offset="0" style="stop-color:#EF4136"/>
		<stop  offset="1" style="stop-color:#FBB040"/>
	</linearGradient>
	<path style="fill:url(#SVGID_00000170264055154052789080000007991825724497854357_);" d="M23.6,52.9v0.4c0.1,0.7,0.3,1.4,0.5,2.2
		l0.1,0.4c0.2,0.8,0.4,1.6,0.7,2.3v0.2c0.3,0.7,0.6,1.5,0.9,2.3l0.1,0.2c3.1-4.6,6.8-8.8,11-12.4c1-5.4,2.8-10.6,5.3-15.5
		c-5.1,0.2-9.9,2.1-13.9,5.3l-0.2,0.2c-0.5,0.5-1,1-1.4,1.5L26.6,40c-0.9,1.1-1.6,2.3-2.1,3.6l-0.1,0.3c-0.2,0.6-0.4,1.2-0.6,1.9
		l-0.1,0.4c-0.1,0.6-0.2,1.3-0.3,1.9v0.2c0,0.7,0,1.4,0,2.1v0.2C23.5,51.4,23.5,52.1,23.6,52.9z"/>
	
		<linearGradient id="SVGID_00000005970093530614132290000011252759462773778092_" gradientUnits="userSpaceOnUse" x1="-19.3126" y1="-42.4278" x2="15.9583" y2="-42.4278" gradientTransform="matrix(1.1104 0 0 -0.7221 62.4044 1.6324)">
		<stop  offset="0" style="stop-color:#EF4136"/>
		<stop  offset="1" style="stop-color:#FBB040"/>
	</linearGradient>
	<path style="fill:url(#SVGID_00000005970093530614132290000011252759462773778092_);" d="M49.7,39.2c2.3-1.3,4.6-2.5,7-3.6
		c0.3-0.2,0.4-0.5,0.4-0.9c0-0.3-0.3-0.6-0.6-0.7c-1.3-0.3-2.6-0.5-3.9-0.7c-0.5-0.1-1-0.5-1.2-1c-0.2-0.5-0.1-1.1,0.2-1.5
		c0.3-0.5,0.9-0.7,1.5-0.6c3.4,0.5,6.8,1.3,10.1,2.4c0.6,0.2,1.2,0.2,1.8,0c4.9-1.6,10.1-2.6,15.2-2.9L80,29.6c-0.5-0.7-1-1.4-1.5-2
		l-0.1-0.2c-0.5-0.6-1.1-1.2-1.6-1.8l-0.3-0.3c-0.5-0.5-1.1-1-1.6-1.5l-0.3-0.2c-0.6-0.5-1.2-1-1.8-1.4h-0.1
		c-0.6-0.4-1.2-0.8-1.8-1.1L70.6,21c-0.6-0.3-1.2-0.5-1.9-0.7l-0.4-0.1c-0.6-0.2-1.3-0.3-1.9-0.4h-0.3c-1.2-0.2-2.5-0.2-3.8,0h-0.4
		c-0.5,0-0.9,0.2-1.4,0.3h-0.3c-0.5,0.1-1.1,0.3-1.6,0.5l-0.4,0.2c-0.4,0.2-0.9,0.4-1.3,0.6l-0.3,0.2c-0.5,0.3-1.1,0.6-1.6,0.9
		l-0.2,0.2c-0.4,0.3-0.9,0.6-1.3,1l-0.3,0.2c-1,0.9-2,1.8-2.9,2.8l-0.2,0.3c-1,1.1-1.9,2.3-2.7,3.5l-0.1,0.2
		c-2.9,4.5-5,9.4-6.4,14.6C43.7,42.9,46.7,41,49.7,39.2z"/>
	
		<linearGradient id="SVGID_00000134945747537079369290000007699817784690418834_" gradientUnits="userSpaceOnUse" x1="346.5915" y1="110.0911" x2="372.0943" y2="110.0911" gradientTransform="matrix(0.7356 0 0 -1.09 -169.206 166.8239)">
		<stop  offset="0" style="stop-color:#EF4136"/>
		<stop  offset="1" style="stop-color:#FBB040"/>
	</linearGradient>
	<path style="fill:url(#SVGID_00000134945747537079369290000007699817784690418834_);" d="M91.5,48.8c4,3.5,7.5,7.5,10.4,12
		c0.8-1.6,1.4-3.3,1.8-5v-0.2c0.2-0.8,0.4-1.5,0.5-2.3v-0.3c0.1-0.8,0.2-1.5,0.2-2.3c0-0.7,0-1.4,0-2.2v-0.2c-0.1-0.7-0.2-1.4-0.3-2
		v-0.3c-0.2-0.6-0.3-1.3-0.6-1.9l-0.1-0.3c-0.5-1.3-1.2-2.5-2.1-3.6l-0.2-0.3c-0.4-0.5-0.9-1-1.4-1.4l-0.3-0.3
		c-0.5-0.5-1-0.9-1.6-1.3l-0.3-0.2c-0.6-0.4-1.1-0.7-1.7-1l-0.2-0.2c-0.6-0.3-1.3-0.6-2-0.9l-0.4-0.2c-0.7-0.2-1.3-0.5-2.1-0.7
		l-0.5-0.1c-0.7-0.2-1.5-0.3-2.2-0.5h-0.4c-0.7-0.1-1.4-0.2-2.2-0.3h-0.3c2.4,4.7,4.1,9.7,5.2,14.9C91,48.2,91.2,48.5,91.5,48.8z"/>
</g>
</svg>
