<svg id="Layer_1" data-name="Layer 1" xmlns="http://www.w3.org/2000/svg" viewBox="0 0 128 128"><defs><style>.cls-1{fill:#fff;}.cls-2{fill:#1f5eff;fill-rule:evenodd;}</style></defs><circle class="cls-1" cx="64" cy="64" r="63.5"/><g id="Layer_4" data-name="Layer 4"><path class="cls-2" d="M104.16,98.84a52.09,52.09,0,0,1-9.29,6.42c.63-.5-1.36-2.59-.74-3.13,15-13,18.44-29.86,12.38-44.6-.82-2,.91-2.79.91-4.63C121.39,65.93,119.91,85.24,104.16,98.84Z"/><path class="cls-2" d="M107.57,52.84A50,50,0,0,0,86.13,41.56h0c3.05.8,3.28,4.31,5.38,6.1,4.48,3.71,5.68,8.64,6.15,15.07.69,9.55.63,19-6.34,27.42a37.81,37.81,0,0,1-13.75,10.78l-1.29.52H76.1A46.24,46.24,0,0,1,67.33,104C56,106.11,41,105.22,22.94,99.46a65.43,65.43,0,0,0,48.18,13.29h0c1.22-.13,2.41-.32,3.6-.52a65.45,65.45,0,0,0,13.53-3.89h0a57.65,57.65,0,0,0,6.64-3.16c.63-.5,1.26-1,1.86-1.56C113.92,88.88,117.79,68.77,107.57,52.84Z"/><path class="cls-2" d="M76.28,101.45C97.51,92.84,98.59,71,74.05,58.7c-17.88-8.94-10-23.14,12.08-17.1C110.8,48.05,103.51,91,76.28,101.45Z"/><path class="cls-2" d="M109.2,29.76C85.93,22.32,67.88,23,56,27.75h-.18c-17.6,7.25-21.36,23.51-8,36-3.53-2.92-7.54-6-9.29-10a30.31,30.31,0,0,1-2-16.56,24.43,24.43,0,0,1,13-17.44A38.58,38.58,0,0,1,61,16.45,65.23,65.23,0,0,1,109.2,29.76Z"/><path class="cls-2" d="M51.82,88.9c-1.52-.5-3.25-.72-4.66-1.3-18-7.23-27.57-20.67-27.23-33.94.26-9.42,5.78-19,14.87-26.84a62.5,62.5,0,0,1,9.05-5.95h0A64.93,64.93,0,0,1,57.38,17c1.21-.23,2.44-.39,3.72-.54a32.33,32.33,0,0,0-4.16.87c-23.28,6.32-24.65,33.46-9,46.47h0A44.54,44.54,0,0,0,58.18,70.7C74.43,78.73,69.37,91.17,51.82,88.9Z"/><path class="cls-2" d="M51.82,88.9a42.05,42.05,0,0,1-5.76-1.19C11.6,78.31,6.55,49,28,30.43a56.92,56.92,0,0,1,15.87-9.56A57.86,57.86,0,0,0,35.28,27C12.48,46.8,17,77.62,51.82,88.9Z"/></g></svg>