<?xml version="1.0"?>
<svg width="1080" height="1080" xmlns="http://www.w3.org/2000/svg" xmlns:svg="http://www.w3.org/2000/svg" enable-background="new 0 0 21.6 23.1" version="1.1" xml:space="preserve">
 <style type="text/css">.st0{fill:#292929;}</style>
 <g class="layer">
  <title>Layer 1</title>
  <ellipse cx="540" cy="540" fill="#ffffff" id="svg_4" rx="536" ry="535"/>
  <g id="svg_3">
   <path class="st0" d="m600.83,698.97l0,-243.35c0,-62.13 -49.19,-111.32 -111.32,-111.32l0,390.91c0,56.95 44.01,103.55 100.96,103.55c2.59,0 2.59,0 5.18,0c25.89,2.59 54.37,-5.18 75.08,-23.3c-64.72,-5.18 -69.9,-44.01 -69.9,-116.5l0,0z" id="svg_1"/>
   <path class="st0" d="m362.66,240.75c-54.37,0 -100.96,46.6 -100.96,103.55l455.63,0c56.95,0 100.96,-46.6 100.96,-103.55c2.59,0 -455.63,0 -455.63,0z" id="svg_2"/>
  </g>
 </g>
</svg>