<?xml version="1.0" encoding="UTF-8"?><svg id="CIRCLE_OUTLINE_BLACK" xmlns="http://www.w3.org/2000/svg" xmlns:xlink="http://www.w3.org/1999/xlink" viewBox="0 0 512 512"><defs><linearGradient id="Degradado_sin_nombre_79" x1="0" y1="336" x2="512" y2="336" gradientTransform="translate(0 -80)" gradientUnits="userSpaceOnUse"><stop offset="0" stop-color="#ffa50d"/><stop offset="1" stop-color="#fe5413"/></linearGradient><linearGradient id="Degradado_sin_nombre_79-2" x1="178.688" y1="-4163.54897" x2="333.824" y2="-4163.54897" gradientTransform="translate(0 -3845.08497) scale(1 -1)" xlink:href="#Degradado_sin_nombre_79"/></defs><path id="SVGID" d="m256,0c141.36319,0,256,114.6368,256,256s-114.63681,256-256,256S0,397.36319,0,256,114.6368,0,256,0h0Z" fill="url(#Degradado_sin_nombre_79)"/><path id="SVGID-2" d="m354.304,177.664c-3.22559,3.84-3.02081,12.3392-8.192,9.728,0,0-35.99359-13.7728-13.824-54.272,5.99041-9.3696,12.18559-9.984,11.264-32.768,5.52959,8.3968,23.65441,25.2416,25.088,51.712,1.43359,17.664-9.11359,20.0192-14.336,25.6h0Z" fill="#fff"/><path id="SVGID-3" d="m325.632,240.64c8.85759-2.96959,23.19359-7.68,24.064-37.888,13.67041,20.9408,60.05759,50.32959,37.888,140.288-9.01119,35.072-42.59841,52.12159-74.24,65.024-19.76319,8.39681-39.936,22.42559-48.128,43.52,0,0-149.5552-18.89281-144.896-167.424,3.7376-77.056,75.92959-106.496,106.496-162.816,16.28159-35.5328,10.752-71.168,10.752-71.168,0,0,95.232,59.2384,52.224,150.528-13.97759,32.256,19.40481,43.16159,35.84,39.936h0Z" fill="#fff"/><polygon id="SVGID-4" points="178.688 267.264 178.688 316.928 231.424 316.928 231.424 369.664 281.088 369.664 281.088 316.928 333.824 316.928 333.824 267.264 178.688 267.264" fill="url(#Degradado_sin_nombre_79-2)"/></svg>