<svg id="Layer_1" data-name="Layer 1" xmlns="http://www.w3.org/2000/svg" viewBox="0 0 128 128"><defs><style>.cls-1{fill:#eeeeef;}.cls-2{fill:#077fa1;}.cls-3{fill:#17a74b;}.cls-4{fill:#0b80a3;}.cls-5{fill:#1aa94d;}</style></defs><circle class="cls-1" cx="64" cy="64" r="63.5"/><path class="cls-2" d="M63.68,74.1c5.95-.86,9.23,2.17,9.69,7.71.41,5,2.27,3.92,5.23,2.17a25.07,25.07,0,0,0,5.59-39.11,69.94,69.94,0,0,0-7-6c-4.24-3.41-4.81-7.62-2.05-12C78,22.23,82.27,22,86.85,24.67c14.41,8.49,23,20.78,22.26,37.8-.79,18.44-8.78,32.89-26.75,40.07-4.72,1.88-8.89,3-9.76,9.3-.57,4.08-4.57,5.76-8.94,5a6.29,6.29,0,0,1-2-4.4c-.56-11-.42-22.11-.08-33.16A8.57,8.57,0,0,1,63.68,74.1Z"/><path class="cls-3" d="M63.68,74.1q0,21.36,0,42.72c-4.74.68-8.4-1.31-9.06-5.86-.7-4.92-3.53-6.41-7.55-7.89-17.63-6.53-25.7-20.31-27.33-38.16C18.17,48,25.46,35.06,39.42,25.69,43.73,22.8,48,21.25,52,26c3.42,4,2.57,9.67-2.52,13.62-9.6,7.44-15,16.42-11.8,29,2.06,8.19,7.4,13.5,15.38,17.37C54.78,80.24,54.72,72.81,63.68,74.1Z"/><path class="cls-4" d="M63.66,51.7c6.18.11,9.66,3.64,9.83,9.42.19,6.18-3.36,9.84-9.83,10.09A20.43,20.43,0,0,1,63.66,51.7Z"/><path class="cls-5" d="M63.66,51.7V71.21c-6.5-.09-8.4-4.44-8.48-9.81S57.23,51.78,63.66,51.7Z"/></svg>