<?xml version="1.0" encoding="UTF-8"?>
<svg id="Layer_1" xmlns="http://www.w3.org/2000/svg" version="1.1" viewBox="0 0 500 500">
  <!-- Generator: Adobe Illustrator 29.0.1, SVG Export Plug-In . SVG Version: 2.1.0 Build 192)  -->
  <defs>
    <style>
      .st0 {
        fill: #fff;
      }
    </style>
  </defs>
  <circle id="bg" class="st0" cx="250" cy="250" r="248.5"/>
  <g>
    <path d="M228.4,243.4v147.8c-72.5-10.4-102-80.3-80.8-147.8h80.8Z"/>
    <path d="M271.5,391.2v-147.8c36.8,5.8,81.6-19.7,86.5,29.8,5.7,56.9-27.3,113.2-86.5,118Z"/>
    <path d="M237.2,68.8c31.6-11.3,56,49.8,44.4,72.5-17.3,33.8-65.9,23.3-72.2-12.5-1.2-6.7,23-58.3,27.8-60Z"/>
    <polygon points="336.2 227 255.4 227 255.4 396.7 244.6 396.7 244.6 227 158.3 227 171.6 210.1 322.7 210.6 336.2 227"/>
    <path d="M411.5,391c-38.3,22.8-92.1-9.9-54.1-46.7,36-34.8,49.1,16.2,54.1,46.7Z"/>
    <path d="M88.5,390.9l16.7-53.7c36.5-23.1,87.5,90.3-16.7,53.7Z"/>
    <path d="M190.7,194.1c1.5-8.2,24.6-14.2,30.9-15.1,20-2.8,41.1-2.8,60.8,1.4,3.9.8,22.2,7.2,21.5,13.8h-113.2Z"/>
  </g>
</svg>