<?xml version="1.0" encoding="UTF-8"?><svg id="Layer_1" xmlns="http://www.w3.org/2000/svg" viewBox="0 0 128 128"><defs><style>.cls-1,.cls-2{stroke-width:0px;}.cls-2{fill:#e9edf0;}</style></defs><circle class="cls-2" cx="64" cy="64" r="63.5"/><g id="TNSR"><path class="cls-1" d="m71.96,14.92c.44.44.89.87,1.33,1.31s.89.87,1.33,1.31.89.87,1.33,1.31.89.87,1.33,1.31.89.87,1.34,1.31.89.87,1.34,1.31.89.87,1.34,1.31.89.87,1.34,1.31.89.87,1.34,1.31.89.87,1.34,1.31.89.87,1.34,1.31.89.87,1.34,1.31.89.87,1.34,1.31.89.87,1.34,1.31.89.87,1.34,1.31.89.87,1.34,1.31.89.87,1.34,1.31.89.87,1.34,1.31.89.87,1.34,1.31.89.88,1.34,1.31.89.88,1.34,1.31.89.88,1.34,1.31.89.88,1.34,1.31.89.88,1.34,1.31.89.88,1.34,1.31.89.88,1.34,1.31.89.88,1.34,1.31.89.88,1.34,1.31.89.88,1.34,1.31.89.88,1.34,1.31.89.88,1.34,1.31.9.88,1.34,1.32.9.88,1.34,1.32.9.88,1.34,1.32.9.88,1.34,1.32.9.88,1.34,1.32c.22.22.45.43.66.65s.4.44.6.67c.25.29.49.59.73.89-.11,0-.23,0-.34,0h-21.2l-.72-.72-4.57-4.57c-1.81-1.81-3.62-3.62-5.43-5.43l-1.79-1.79c-.08-.08-.17-.21-.27-.27-.43-.26-.72.42-.87.78-.36.86-.15,1.73-.15,2.63-.04,13.21-.07,26.41.02,39.62,0,.3.04.62,0,.91v1.25c0,.31-.03.63,0,.94,0,.26.03.55,0,.81-.02.17-.16.27-.29.39l-.82.82-2.3,2.3-2.83,2.83c-.98.98-1.95,1.95-2.93,2.93-.87.87-1.74,1.74-2.62,2.62l-1.88,1.88c-.24.24-.48.48-.73.73.02.23-.21.42-.44.42v-1.66c-.22-.55-.05-1.41-.05-2V14.92Z"/><path class="cls-1" d="m7.21,62.62s-.02.03-.04.04c1.2,1.23,2.3.88,3.29.89,4.92.04,9.83-.08,14.75.06,2.39.07,4.18-.63,5.8-2.39,3.07-3.35,6.31-6.54,9.58-9.91,1.11,1.56.76,2.74.76,3.83.03,14.42.02,27.43.03,39.03,0,1.34-.1,4.36.68,5.33,1.87,2.34,9.06,9.1,14.19,14.23V14.39c-.27-.12-.51-.06-.78-.11-.18-.03-2.25,1.97-2.48,2.21-.85.86-1.71,1.72-2.56,2.57-1.71,1.71-3.43,3.42-5.15,5.12-3.44,3.41-6.88,6.81-10.33,10.22-6.89,6.81-13.76,13.64-20.49,20.61-1.58,1.64-3.16,3.28-4.72,4.94-1.27,1.34-2.6,2.53-3.89,3.83h23.44l11.81-11.81c.03-.39.11-.78.13-1.17,0-.14.01-.3-.07-.41-.12-.15-.34-.15-.53-.12-.72.11-1.39.54-1.8,1.14s-.56,1.38-.4,2.09"/></g></svg>