<?xml version="1.0" encoding="utf-8"?>
<!-- Generator: Adobe Illustrator 26.4.1, SVG Export Plug-In . SVG Version: 6.00 Build 0)  -->
<svg version="1.1" id="Layer_1" xmlns="http://www.w3.org/2000/svg" xmlns:xlink="http://www.w3.org/1999/xlink" x="0px" y="0px"
	 width="128px" height="128px" viewBox="0 0 128 128" style="enable-background:new 0 0 128 128;" xml:space="preserve">
<style type="text/css">
	.st0{fill:#0088CC;}
	.st1{fill-rule:evenodd;clip-rule:evenodd;fill:#FFFFFF;}
</style>
<g>
	<circle class="st0" cx="64" cy="64" r="63.5"/>
	<path class="st1" d="M46.3,42.5l35.6,0c1.3,0,2.5,0.2,3.8,0.8c1.6,0.7,2.4,1.9,3,2.8c0,0.1,0.1,0.1,0.1,0.2c0.7,1.2,1,2.6,1,4
		c0,1.4-0.3,2.8-1,4.1c0,0,0,0,0,0L66.4,93c-0.5,0.9-1.4,1.4-2.4,1.4c-1,0-1.9-0.5-2.4-1.4L39.5,54.4c0,0,0,0,0,0
		c-0.5-0.8-1.3-2.1-1.4-3.8c-0.1-1.5,0.2-3.1,1-4.4c0.8-1.3,1.9-2.4,3.3-3C43.9,42.5,45.4,42.5,46.3,42.5z M61.2,48H46.3
		c-1,0-1.4,0.1-1.6,0.2c-0.4,0.2-0.7,0.4-0.9,0.8c-0.2,0.4-0.3,0.8-0.3,1.2c0,0.2,0.1,0.5,0.7,1.4c0,0,0,0,0,0.1l16.9,29.6V48z
		 M66.8,48v33.4l17.3-29.8c0.2-0.4,0.3-0.9,0.3-1.4c0-0.4-0.1-0.8-0.3-1.2c-0.2-0.3-0.3-0.5-0.4-0.6c-0.1-0.1-0.2-0.1-0.3-0.2
		C83,48.1,82.6,48,81.9,48H66.8z"/>
</g>
</svg>
