<svg version="1.1" id="Layer_1" xmlns="http://www.w3.org/2000/svg" x="0" y="0" viewBox="0 0 50 50" xml:space="preserve"><style>.st1{fill:#a1dbfc}</style><circle cx="25" cy="25" r="24" fill="#202022"/><path class="st1" d="M22.5 25.6c1.1 0 1.8-.7 1.8-1.8v-2c0-.9-.6-1.5-1.5-1.7-.6-.1-1.3-.1-1.9 0-1.7 0-3.3-.1-5 0-.8.1-1.5.9-1.5 1.6V29c0 .4.3.7.6.8.4 0 .6-.3.6-.7V22c0-.5.1-.6.6-.6h6.1c.5 0 .6.1.6.6v1.9c0 .4-.2.6-.6.6h-2.8c-.3 0-.6.1-.7.4-.1.2-.1.5.1.8.4.5.9.9 1.4 1.4.9.8 1.7 1.7 2.6 2.5.2.2.4.3.7.2.5-.2.7-.6.2-1l-3.1-3.1c.8-.1 1.3-.1 1.8-.1zM47.5 21c0-.1 0-.2-.1-.4-.2-.3-.5-.3-.7-.2-.2.1-.4.3-.4.6v2.6c0 .6-.1.7-.7.7h-5.8c-.6 0-.8-.2-.8-.8V21c0-.5-.2-.7-.6-.7-.4 0-.6.2-.6.7v2.9c0 .4.2.7.4.9.4.5 1 .8 1.6.8h1.9c.3 0 .4.1.4.4v3.2c0 .3.3.7.7.7.3 0 .6-.3.6-.6v-3.2c0-.3.1-.4.4-.4.9 0 1.7.2 2.6-.2.5-.2 1.1-.8 1.1-1.3V21zM12 20.2H3.1c-.4 0-.7.3-.7.6s.2.5.7.5h3c.8 0 .8 0 .8.8V29c0 .5.3.7.7.6.3-.1.4-.3.4-.6v-7.3c0-.3.1-.4.4-.4H12c.3 0 .5-.1.5-.5.2-.4 0-.6-.5-.6zM35.8 21.3c0-.4-.3-1-1.8-1-2.1 0-4.3.1-6.4.1-1.4 0-1.3 1-1.3 1.4v6.5c0 .2-.2 1.4 1.4 1.4h6.6c1.6 0 1.5-.9 1.5-.9v-1-4.7c.1-.5 0-1.2 0-1.8zm-1.1 6.3c0 .7-.2 1-1 1H28c-.5-.1-.6-.2-.6-.7v-2.8-2.6c0-.8.3-1 1-1h5.2c.8 0 1.1.3 1.1 1.1v5z"/></svg>