<?xml version="1.0" encoding="UTF-8"?>
<svg id="Layer_1" xmlns="http://www.w3.org/2000/svg" version="1.1" viewBox="0 0 500 500">
  <!-- Generator: Adobe Illustrator 29.0.1, SVG Export Plug-In . SVG Version: 2.1.0 Build 192)  -->
  <defs>
    <style>
      .st0 {
        fill: #003cb2;
      }

      .st0, .st1, .st2, .st3, .st4 {
        fill-rule: evenodd;
      }

      .st5, .st1 {
        fill: #fff;
      }

      .st2 {
        fill: #0cc19b;
        fill-opacity: .5;
      }

      .st3 {
        fill: #2bbdf7;
      }

      .st4 {
        fill: #2b6def;
      }
    </style>
  </defs>
  <circle class="st5" cx="250" cy="250" r="249"/>
  <g>
    <path class="st3" d="M338.4,195.6h0s18.5.1,18.5.1c2.1-.2,4.2-.1,6.4,0l45.2.2c6.9.4,12.3,6.1,12.3,13.1s-1.2,6.3-3.2,8.6l-22,38.3c-.2.3-.4.6-.5,1l-54.4,95c-7.4,12.9-20.6,20.2-34.4,20.5h0s-.6,0-.6,0c-.4,0-.7,0-1.1,0l-161.1-.8h-17.9v-.3c13.6-1.9,25.1-10.6,30.9-22.6h.1s78.9-138.2,78.9-138.2c4.4-8.8,13.5-14.8,23.9-14.8h-.7s0,0,0,0h79.7Z"/>
    <path class="st4" d="M212.3,127.7h142.2c6.9.4,12.3,6.1,12.3,13.1s-.9,5.4-2.4,7.5l-38.4,67.1-40.8,71.3h0s.3,0,.3,0l-13,22.8c-11,19.2-4.8,43.6,13.7,55.2l1.2.7c5.2,3,10.8,4.8,16.5,5.3v1s-67.2,0-67.2,0h0c0,0-116.6,0-116.6,0-6.6-.1-13.3-1.8-19.6-5.3-20-11.2-27.2-36.5-16.1-56.7l88.5-160.8c8.1-14.7,23.8-22.6,39.4-21.4Z"/>
    <path class="st1" d="M258.9,195.6h78.3c0,0-11.3,19.9-11.3,19.9l-40.8,71.3h0s.3,0,.3,0l-13,22.8c-11,19.2-4.8,43.6,13.7,55.2l1.2.7c5.2,3,10.8,4.8,16.5,5.3v1s-67.2,0-67.2,0h0c0,0-111.3,0-111.3,0,12.3-1.3,23.9-8.1,30.9-19.5l.8-1.3,82.3-145c4.7-6.1,11.9-10.1,20-10.5h-.3Z"/>
    <path class="st2" d="M258.9,195.6h78.3c0,0-11.3,19.9-11.3,19.9l-40.8,71.3h0s.3,0,.3,0l-13,22.8c-11,19.2-4.8,43.6,13.7,55.2l1.2.7c5.2,3,10.8,4.8,16.5,5.3v1s-67.2,0-67.2,0h0c0,0-111.3,0-111.3,0,12.3-1.3,23.9-8.1,30.9-19.5l.8-1.3,82.3-145c4.7-6.1,11.9-10.1,20-10.5h-.3Z"/>
    <path class="st0" d="M258.9,195.6h78.3c0,0-11.3,19.9-11.3,19.9l-40.8,71.3h0s.3,0,.3,0l-13,22.8c-11,19.2-4.8,43.6,13.7,55.2l1.2.7c5.2,3,10.8,4.8,16.5,5.3v1s-67.2,0-67.2,0h0c0,0-111.3,0-111.3,0,12.3-1.3,23.9-8.1,30.9-19.5l.8-1.3,82.3-145c4.7-6.1,11.9-10.1,20-10.5h-.3Z"/>
  </g>
</svg>