<?xml version="1.0" encoding="utf-8"?>
<!-- Generator: Adobe Illustrator 24.3.0, SVG Export Plug-In . SVG Version: 6.00 Build 0)  -->
<svg version="1.1" id="Layer_1" xmlns="http://www.w3.org/2000/svg" xmlns:xlink="http://www.w3.org/1999/xlink" x="0px" y="0px"
	 width="50px" height="50px" viewBox="0 0 50 50" style="enable-background:new 0 0 50 50;" xml:space="preserve">
<style type="text/css">
	.st0{fill:#EEF4F4;}
	.st1{fill:#FF4A4A;}
</style>
<g>
	<circle class="st0" cx="25" cy="25" r="25"/>
	<g>
		<path class="st1" d="M29.8,29.3h-1.5c-0.3,0-0.5-0.2-0.5-0.5V25l-2.5,1.6c-0.2,0.1-0.5,0.1-0.7,0L22.1,25v3.8
			c0,0.3-0.2,0.5-0.5,0.5h-1.4c-0.3,0-0.5-0.2-0.5-0.5l0,0v-7.4c0-0.4,0.3-0.7,0.7-0.7c0.1,0,0.3,0,0.4,0.1l4,2.8
			c0.2,0.1,0.4,0.1,0.6,0l4-2.8c0.3-0.2,0.7-0.1,0.9,0.2c0.1,0.1,0.1,0.2,0.1,0.4v7.4C30.3,29.1,30.1,29.3,29.8,29.3L29.8,29.3z"/>
		<path class="st1" d="M17.5,29.3h-9c-0.4,0-0.7-0.3-0.7-0.7l0,0v-7.4c0-0.3,0.2-0.5,0.5-0.5h1.5c0.3,0,0.5,0.2,0.5,0.5l0,0v5.6h5.5
			v-5.6c0-0.3,0.2-0.5,0.5-0.5h1.4c0.3,0,0.5,0.2,0.5,0.5v7.4C18.2,29,17.9,29.3,17.5,29.3L17.5,29.3z"/>
		<path class="st1" d="M32.5,20.7h9c0.4,0,0.7,0.3,0.7,0.7v7.4c0,0.3-0.2,0.5-0.5,0.5l0,0h-1.5c-0.3,0-0.5-0.2-0.5-0.5l0,0v-5.3
			c0-0.2-0.1-0.3-0.3-0.3l0,0h-4.8c-0.2,0-0.3,0.1-0.3,0.3l0,0v5.3c0,0.3-0.2,0.5-0.5,0.5h-1.5c-0.3,0-0.5-0.2-0.5-0.5l0,0v-7.4
			C31.8,21,32.1,20.7,32.5,20.7L32.5,20.7L32.5,20.7z"/>
		<path class="st1" d="M36.3,24.7h1.4c0.3,0,0.5,0.2,0.5,0.5v1.5c0,0.3-0.2,0.5-0.5,0.5h-1.4c-0.3,0-0.5-0.2-0.5-0.5v-1.5
			C35.8,24.9,36,24.7,36.3,24.7z"/>
	</g>
</g>
</svg>
