<?xml version="1.0"?>
<svg width="1080" height="1080" xmlns="http://www.w3.org/2000/svg" xmlns:svg="http://www.w3.org/2000/svg" enable-background="new 0 0 168.3 193.8" version="1.1" xml:space="preserve">
 <style type="text/css">.st0{fill:#FF007A;}
	.st1{fill-rule:evenodd;clip-rule:evenodd;fill:#FF007A;}</style>
 <g class="layer">
  <title>Layer 1</title>
  <ellipse cx="540" cy="539" fill="#ffffff" id="svg_41" rx="540" ry="540" stroke="#ffffff"/>
  <g id="svg_10">
   <path class="st0" d="m464.2,319.51c-8.76,-1.25 -9.18,-1.67 -5.01,-2.09c7.93,-1.25 26.28,0.42 39.22,3.34c30.04,7.09 57.16,25.45 85.94,57.57l7.51,8.76l10.85,-1.67c46.31,-7.51 93.87,-1.67 133.5,16.69c10.85,5.01 27.95,15.02 30.04,17.52c0.83,0.83 2.09,6.26 2.92,11.68c2.92,19.61 1.67,34.21 -4.59,45.47c-3.34,6.26 -3.34,7.93 -1.25,13.35c1.67,4.17 6.68,7.09 11.26,7.09c10.01,0 20.44,-15.85 25.45,-37.97l2.09,-8.76l3.75,4.17c21.28,23.78 37.97,56.74 40.47,80.1l0.83,6.26l-3.75,-5.42c-6.26,-9.6 -12.1,-15.85 -20.03,-21.28c-14.18,-9.6 -29.2,-12.52 -68.84,-14.6c-35.88,-2.09 -56.32,-5.01 -76.35,-11.68c-34.21,-11.26 -51.73,-25.87 -92.2,-79.68c-17.94,-23.78 -29.2,-36.71 -40.47,-47.56c-24.61,-23.78 -49.23,-36.3 -81.35,-41.3z" id="svg_1"/>
   <path class="st0" d="m775.01,372.49c0.83,-15.85 2.92,-26.28 7.51,-35.88c1.67,-3.75 3.34,-7.09 3.75,-7.09c0.42,0 -0.42,2.92 -1.67,6.26c-3.34,9.18 -3.75,22.11 -1.67,36.71c2.92,18.77 4.17,21.28 24.2,41.72c9.18,9.6 20.03,21.69 24.2,26.7l7.09,9.18l-7.09,-6.68c-8.76,-8.34 -28.79,-24.2 -33.38,-26.28c-2.92,-1.67 -3.34,-1.67 -5.42,0.42c-1.67,1.67 -2.09,4.17 -2.09,16.27c-0.42,18.77 -2.92,30.46 -9.18,42.55c-3.34,6.26 -3.75,5.01 -0.83,-2.09c2.09,-5.42 2.5,-7.93 2.5,-25.87c0,-36.3 -4.17,-45.06 -29.62,-59.66c-6.26,-3.75 -17.11,-9.18 -23.36,-12.1c-6.68,-2.92 -11.68,-5.42 -11.26,-5.42c0.83,-0.83 25.45,6.26 35.04,10.43c14.6,5.84 17.11,6.26 18.77,5.84c1.25,-1.25 2.09,-4.59 2.5,-15.02z" id="svg_2"/>
   <path class="st0" d="m481.3,434.66c-17.52,-24.2 -28.79,-61.75 -26.28,-89.7l0.83,-8.76l4.17,0.83c7.51,1.25 20.44,6.26 26.7,10.01c16.69,10.01 24.2,23.78 31.29,57.99c2.09,10.01 5.01,21.69 6.26,25.45c2.09,6.26 10.01,20.86 16.69,30.04c4.59,6.68 1.67,10.01 -8.76,9.18c-15.85,-1.67 -37.13,-16.27 -50.9,-35.04z" id="svg_3"/>
   <path class="st0" d="m753.73,616.14c-82.61,-33.38 -111.81,-62.16 -111.81,-110.97c0,-7.09 0.42,-12.93 0.42,-12.93c0.42,0 3.34,2.5 7.09,5.42c16.69,13.35 35.46,19.19 87.61,26.7c30.46,4.59 47.98,7.93 63.83,13.35c50.48,16.69 81.77,50.9 89.28,97.21c2.09,13.35 0.83,38.8 -2.5,52.15c-2.92,10.43 -11.26,29.62 -13.35,30.04c-0.42,0 -1.25,-2.09 -1.25,-5.42c-0.83,-17.52 -9.6,-34.21 -24.2,-47.14c-17.52,-15.02 -40.05,-26.28 -95.12,-48.4z" id="svg_4"/>
   <path class="st0" d="m695.32,629.91c-0.83,-6.26 -2.92,-14.18 -4.17,-17.52l-2.09,-6.26l3.75,4.59c5.42,6.26 9.6,13.77 13.35,24.2c2.92,7.93 2.92,10.43 2.92,23.36c0,12.52 -0.42,15.44 -2.92,22.53c-4.17,11.26 -9.18,19.19 -17.52,27.95c-15.02,15.44 -34.63,23.78 -62.58,27.54c-5.01,0.42 -19.19,1.67 -31.71,2.5c-31.29,1.67 -52.15,5.01 -70.92,11.68c-2.5,0.83 -5.01,1.67 -5.42,1.25c-0.83,-0.83 12.1,-8.34 22.53,-13.35c14.6,-7.09 29.62,-10.85 62.58,-16.69c16.27,-2.5 32.96,-5.84 37.13,-7.51c41.3,-12.93 61.75,-45.06 55.07,-84.27z" id="svg_5"/>
   <path class="st0" d="m733.29,697.08c-10.85,-23.78 -13.35,-46.31 -7.51,-67.59c0.83,-2.09 1.67,-4.17 2.5,-4.17c0.83,0 3.34,1.25 5.84,2.92c5.01,3.34 15.44,9.18 42.14,23.78c33.79,18.36 52.98,32.54 66.33,48.81c11.68,14.18 18.77,30.46 22.11,50.48c2.09,11.26 0.83,38.38 -2.09,49.65c-9.18,35.46 -30.04,63.83 -60.49,80.1c-4.59,2.5 -8.34,4.17 -8.76,4.17c-0.42,0 1.25,-4.17 3.75,-9.18c10.01,-21.28 11.26,-41.72 3.75,-64.67c-4.59,-14.18 -14.18,-31.29 -33.38,-60.08c-22.95,-33.38 -28.37,-42.14 -34.21,-54.24z" id="svg_6"/>
   <path class="st0" d="m422.48,824.74c30.87,-25.87 68.84,-44.22 103.88,-50.06c15.02,-2.5 40.05,-1.67 53.82,2.09c22.11,5.84 42.14,18.36 52.57,33.79c10.01,15.02 14.6,27.95 19.19,56.74c1.67,11.26 3.75,22.95 4.17,25.45c3.34,15.02 10.01,26.7 18.36,32.96c12.93,9.6 35.46,10.01 57.57,1.67c3.75,-1.25 7.09,-2.5 7.09,-2.09c0.83,0.83 -10.43,8.34 -17.94,12.1c-10.43,5.42 -18.77,7.09 -30.04,7.09c-20.03,0 -37.13,-10.43 -50.9,-31.29c-2.92,-4.17 -8.76,-16.27 -13.77,-27.54c-14.6,-33.79 -22.11,-43.81 -39.22,-55.07c-15.02,-9.6 -34.21,-11.68 -48.81,-4.59c-19.19,9.18 -24.2,33.79 -10.85,48.81c5.42,6.26 15.44,11.26 23.78,12.52c15.44,2.09 28.79,-10.01 28.79,-25.45c0,-10.01 -3.75,-15.85 -13.77,-20.44c-13.35,-5.84 -27.95,0.83 -27.54,13.77c0,5.42 2.5,8.76 7.93,11.26c3.34,1.67 3.34,1.67 0.83,1.25c-12.1,-2.5 -15.02,-17.52 -5.42,-27.12c11.68,-11.68 36.3,-6.68 44.64,9.6c3.34,6.68 3.75,20.03 0.83,28.37c-7.09,18.36 -27.12,27.95 -47.56,22.53c-13.77,-3.75 -19.61,-7.51 -36.3,-24.61c-29.2,-30.04 -40.47,-35.88 -82.19,-42.14l-7.93,-1.25l8.76,-8.34z" id="svg_7"/>
   <path class="st1" d="m203.03,153.47c97.21,118.07 246.98,301.63 254.49,311.65c6.26,8.34 3.75,16.27 -6.68,22.11c-5.84,3.34 -17.94,6.68 -23.78,6.68c-6.68,0 -14.6,-3.34 -20.03,-8.76c-3.75,-3.75 -20.03,-27.54 -56.74,-84.69c-27.95,-43.81 -51.73,-80.1 -52.15,-80.52c-1.67,-0.83 -1.67,-0.83 49.23,90.11c32.12,57.16 42.55,77.6 42.55,80.1c0,5.42 -1.67,8.34 -8.34,15.85c-11.26,12.52 -16.27,26.7 -20.03,56.32c-4.17,32.96 -15.44,56.32 -47.56,95.96c-18.77,23.36 -21.69,27.54 -26.28,37.13c-5.84,11.68 -7.51,18.36 -8.34,33.38c-0.83,15.85 0.83,25.87 5.42,40.89c4.17,13.35 8.76,22.11 20.03,39.22c9.6,15.02 15.44,26.28 15.44,30.46c0,3.34 0.83,3.34 15.85,0c35.88,-8.34 65.5,-22.53 81.77,-40.05c10.01,-10.85 12.52,-16.69 12.52,-31.71c0,-9.6 -0.42,-11.68 -2.92,-17.52c-4.17,-9.18 -12.1,-16.69 -29.2,-28.37c-22.53,-15.44 -32.12,-27.95 -34.63,-44.64c-2.09,-14.18 0.42,-23.78 12.93,-50.06c12.93,-27.12 16.27,-38.38 18.36,-65.92c1.25,-17.52 3.34,-24.61 8.34,-30.04c5.42,-5.84 10.01,-7.93 22.95,-9.6c21.28,-2.92 35.04,-8.34 45.89,-18.77c9.6,-8.76 13.77,-17.52 14.18,-30.46l0.42,-9.6l-5.42,-5.84c-19.61,-22.53 -291.2,-321.24 -292.46,-321.24c-0.42,0 6.26,7.93 14.18,17.94zm128.08,593.26c4.59,-7.93 2.09,-17.94 -5.42,-22.95c-7.09,-4.59 -17.94,-2.5 -17.94,3.75c0,1.67 0.83,3.34 3.34,4.17c3.75,2.09 4.17,4.17 1.25,8.76c-2.92,4.59 -2.92,8.76 0.83,11.68c5.84,4.59 13.77,2.09 17.94,-5.42z" id="svg_8"/>
   <path class="st1" d="m500.07,527.28c-10.01,2.92 -19.61,13.77 -22.53,24.61c-1.67,6.68 -0.83,18.77 2.09,22.53c4.59,5.84 8.76,7.51 20.44,7.51c22.95,0 42.55,-10.01 44.64,-22.11c2.09,-10.01 -6.68,-23.78 -18.77,-30.04c-6.26,-3.34 -19.19,-4.59 -25.87,-2.5zm26.7,20.86c3.34,-5.01 2.09,-10.43 -4.17,-14.18c-11.26,-7.09 -28.37,-1.25 -28.37,9.6c0,5.42 8.76,11.26 17.11,11.26c5.42,0 12.93,-3.34 15.44,-6.68z" id="svg_9"/>
  </g>
 </g>
</svg>