<?xml version="1.0" encoding="UTF-8"?>
<svg version="1.1" xmlns="http://www.w3.org/2000/svg" width="534" height="534">
<path d="M0 0 C0.81960205 0.66733154 0.81960205 0.66733154 1.65576172 1.34814453 C15.04981744 12.32494112 27.34229564 24.336823 38 38 C38.90492188 39.06927734 38.90492188 39.06927734 39.828125 40.16015625 C83.47099531 92.14651648 102.49097816 162.63909159 97.48657227 229.64086914 C92.15861468 289.80995047 67.67686563 344.52840222 27 389 C26.08911758 390.01497377 25.178991 391.03062626 24.26953125 392.046875 C19.13909038 397.75466811 13.90997944 403.09081922 8 408 C7.08089844 408.80695313 6.16179687 409.61390625 5.21484375 410.4453125 C-38.48246693 448.66918642 -98.01286841 473.92849638 -156.44921875 474.203125 C-157.42373489 474.20882507 -158.39825104 474.21452515 -159.40229797 474.22039795 C-161.4586989 474.22978908 -163.51511448 474.2363583 -165.5715332 474.24023438 C-168.63456509 474.2498341 -171.6968936 474.2808705 -174.75976562 474.3125 C-233.54217565 474.62755632 -291.44271616 452.84557328 -337 416 C-337.53383301 415.57058105 -338.06766602 415.14116211 -338.61767578 414.69873047 C-353.37855654 402.72175799 -367.5393573 389.19500942 -379 374 C-379.92338055 372.82725915 -380.84794863 371.65545275 -381.7734375 370.484375 C-389.79957607 360.20329235 -396.57599538 349.33986082 -403 338 C-403.44617676 337.21753906 -403.89235352 336.43507813 -404.35205078 335.62890625 C-425.75888051 297.72147802 -436.41033596 254.29070753 -436.31567383 210.90039062 C-436.31252556 207.89936524 -436.33603409 204.89934128 -436.36132812 201.8984375 C-436.41958548 184.1663677 -434.67413672 166.61602046 -430.6875 149.3125 C-430.47440186 148.37011475 -430.26130371 147.42772949 -430.04174805 146.45678711 C-419.66760513 101.70491976 -397.94947224 60.19041177 -366.4765625 26.6640625 C-364.4540171 24.48839063 -362.52831736 22.27835527 -360.625 20 C-351.67951302 9.73712539 -340.87702057 1.11562821 -330 -7 C-329.34515625 -7.49000488 -328.6903125 -7.98000977 -328.015625 -8.48486328 C-317.49432843 -16.29301062 -306.60163136 -22.92806921 -295 -29 C-294.33145996 -29.35545898 -293.66291992 -29.71091797 -292.97412109 -30.07714844 C-263.05155257 -45.93558859 -230.55839152 -55.09786145 -197 -59 C-195.86433594 -59.13277344 -194.72867188 -59.26554687 -193.55859375 -59.40234375 C-123.94937992 -65.76213425 -54.04442007 -44.14208762 0 0 Z " fill="#EFF3F3" transform="translate(436,60)"/>
<path d="M0 0 C1.72628074 1.18255107 3.43770255 2.3874623 5.125 3.625 C24.86799432 18.03204991 51.83261149 22.29013466 75.375 26.0625 C108.69206575 31.44129064 108.69206575 31.44129064 117.76171875 43.16796875 C127.0291924 56.87915216 128.05538278 74.16331684 125.16796875 90.11328125 C122.95665251 100.83268724 122.95665251 100.83268724 120.8671875 105.56640625 C119.21599795 110.2001499 119.52389708 113.84986372 121.390625 118.359375 C122.31101562 120.03773438 122.31101562 120.03773438 123.25 121.75 C126.3907353 127.68821221 129.03670205 133.5674861 131 140 C131.22558594 140.73734375 131.45117188 141.4746875 131.68359375 142.234375 C135.47937334 157.41749336 134.00011087 174.36654611 126.28515625 188.0390625 C123.29274695 192.47856688 119.97460974 196.40392452 116 200 C115.35417969 200.61488281 114.70835937 201.22976563 114.04296875 201.86328125 C107.26057322 208.17055275 100.25110363 212.7904409 91.625 216.1875 C65.5276175 226.63994002 42.5787934 244.37630528 22.41894531 263.65771484 C19.97985978 265.96502596 17.44250901 268.15391629 14.8984375 270.34375 C12.68675509 272.27328362 10.53597026 274.26386552 8.375 276.25 C-10.07725786 292.80609025 -26.59673201 302.19055747 -51.984375 301.625 C-63.81561783 300.91314806 -77.47372296 297.2876142 -87 290 C-88.010625 289.5875 -89.02125 289.175 -90.0625 288.75 C-99.48311212 284.84487446 -108.04479584 278.40782048 -115 271 C-115 270.34 -115 269.68 -115 269 C-115.99 268.67 -116.98 268.34 -118 268 C-118.75410156 266.80503906 -118.75410156 266.80503906 -119.5234375 265.5859375 C-123.26719303 261.67684261 -127.42332294 261.51173111 -132.625 260.625 C-143.34058587 258.57604469 -153.00961486 255.32791965 -163 251 C-163 250.34 -163 249.68 -163 249 C-163.99 248.938125 -163.99 248.938125 -165 248.875 C-168.7601871 247.77827876 -171.11580677 245.81677895 -174.1328125 243.375 C-176.05775029 241.80969136 -176.05775029 241.80969136 -179 241 C-189.16040049 231.57764313 -196.95263442 216.7439223 -198.19042969 202.86474609 C-198.26727368 200.65573082 -198.27819427 198.46014418 -198.25 196.25 C-198.24178223 195.45706543 -198.23356445 194.66413086 -198.22509766 193.84716797 C-197.85647799 174.34996213 -191.02052994 154.39228789 -182.5625 136.9375 C-176.53176734 123.85194801 -173.46361499 109.55123321 -170.859375 95.453125 C-170.32940298 92.58795415 -169.70798011 89.78197781 -168.96484375 86.96484375 C-168.07759661 83.52899408 -167.56374053 80.12468173 -167.11425781 76.60791016 C-164.77573464 58.81924118 -158.97787681 41.96681521 -149 27 C-148.34 27 -147.68 27 -147 27 C-147 26.34 -147 25.68 -147 25 C-135.61924994 15.19922392 -121.63017232 10.26152075 -106.77734375 9.7265625 C-92.72049332 9.90622874 -92.72049332 9.90622874 -81.0625 3.4375 C-79.92554688 2.10525391 -79.92554688 2.10525391 -78.765625 0.74609375 C-75.06059838 -2.93276743 -71.02065789 -4.8351701 -66.3125 -7 C-65.51529541 -7.37326416 -64.71809082 -7.74652832 -63.89672852 -8.13110352 C-41.61781316 -18.16345514 -19.89277692 -12.24869427 0 0 Z " fill="#ECE64F" transform="translate(299,123)"/>
<path d="M0 0 C19.00110406 16.1112023 29.89731476 39.96575041 32.125 64.6875 C33.81886036 91.55974538 28.79613957 114.66667295 11.0625 135.75 C-3.62720477 151.40907615 -24.38361761 161.07224295 -45.796875 162.03125 C-70.99088674 162.64309047 -91.73988083 155.8342172 -111.18359375 139.27734375 C-128.12929932 122.97109877 -137.53516194 101.53585857 -138.21313477 78.14038086 C-138.40116595 64.35433256 -136.47020722 50.98128507 -129.875 38.6875 C-129.29363281 37.51058594 -128.71226562 36.33367187 -128.11328125 35.12109375 C-116.424443 12.24272447 -95.80167471 -4.53376903 -71.4140625 -12.43359375 C-46.3322092 -19.03574405 -21.09940266 -15.42592532 0 0 Z " fill="#EFF2F2" transform="translate(311.875,192.3125)"/>
<path d="M0 0 C0.67375671 0.09058685 1.34751343 0.18117371 2.04168701 0.27450562 C21.06904994 2.83975626 38.80758088 6.66019254 56.875 13.25 C57.97070312 13.63800781 59.06640625 14.02601563 60.1953125 14.42578125 C75.34521116 20.22831904 89.08217177 29.19843526 100.875 40.25 C101.65359375 40.971875 102.4321875 41.69375 103.234375 42.4375 C107.65198245 46.68903198 111.36001094 51.23681889 114.875 56.25 C115.36742187 56.90226562 115.85984375 57.55453125 116.3671875 58.2265625 C121.26142203 64.99734291 123.96077798 72.49044498 126.875 80.25 C127.21789062 81.02472656 127.56078125 81.79945313 127.9140625 82.59765625 C138.46152868 111.71037794 134.50526685 147.63804718 122.0234375 175.47265625 C116.34129338 187.58519859 109.10079191 198.26300096 99.91796875 208.03125 C97.81538422 210.26065729 97.81538422 210.26065729 95.82421875 212.83203125 C79.24278773 233.40098076 50.04441922 245.39362523 24.890625 250.81201172 C22.94209126 251.2354213 21.00200377 251.69713947 19.0625 252.16015625 C-4.62487809 257.31211732 -31.2616111 254.71879031 -55.125 252.25 C-56.43210938 252.14945313 -57.73921875 252.04890625 -59.0859375 251.9453125 C-64.73821903 250.65211698 -67.05859197 245.86723508 -70.125 241.25 C-74.90506409 233.46637074 -79.12931362 225.38816977 -83.40625 217.3203125 C-85.03558256 214.40973206 -86.81181015 211.69344781 -88.6875 208.9375 C-104.99351541 183.80058636 -105.63555786 148.17670157 -99.67285156 119.69677734 C-96.44941275 105.3004744 -92.1543059 91.70965835 -86.125 78.25 C-85.47724609 76.74759766 -85.47724609 76.74759766 -84.81640625 75.21484375 C-74.03399204 50.64508022 -58.12648157 28.49775986 -39.734375 9.06640625 C-37.154746 6.36028661 -37.154746 6.36028661 -35.140625 3.71484375 C-26.90990842 -6.25698595 -11.43836311 -1.5650002 0 0 Z M-44.05493164 75.24267578 C-52.18489082 84.60958043 -58.85044743 96.2779586 -62.125 108.25 C-62.56779297 109.75626953 -62.56779297 109.75626953 -63.01953125 111.29296875 C-68.85488551 134.02154035 -65.22333843 157.86248125 -53.375 177.9375 C-40.85832891 197.24487922 -22.64680885 212.70621152 0.28759766 217.78417969 C24.10883922 222.43417107 48.25819211 219.20124225 68.81835938 206.00244141 C85.37427333 194.62346738 95.50643994 179.17501179 101.875 160.25 C102.19726562 159.31414062 102.51953125 158.37828125 102.8515625 157.4140625 C110.00237602 132.48646024 103.93873947 103.16960007 92.03125 80.66015625 C80.80275961 61.30941768 64.01567864 49.10622889 42.5 43.3125 C9.50896707 36.75502308 -21.8783852 51.03496199 -44.05493164 75.24267578 Z " fill="#C6A743" transform="translate(239.125,134.75)"/>
<path d="M0 0 C17.72922424 1.64923016 33.76683108 10.88485467 48 21 C49.31484375 21.88558594 49.31484375 21.88558594 50.65625 22.7890625 C57.90039804 27.79604717 64.17280278 33.66027692 70.51953125 39.73046875 C72.66692117 41.78153931 74.84593045 43.72199244 77.16015625 45.58203125 C80.03285565 48.02797476 82.28039532 50.5506033 84.625 53.5 C85.72714844 54.87671875 85.72714844 54.87671875 86.8515625 56.28125 C87.91503906 57.62703125 87.91503906 57.62703125 89 59 C89.65355469 59.804375 90.30710937 60.60875 90.98046875 61.4375 C93.3106688 64.39419484 95.5207286 67.42297043 97.6875 70.5 C98.09033203 71.05558594 98.49316406 71.61117187 98.90820312 72.18359375 C100.65459192 74.67007696 101.93176615 76.65113522 102.51953125 79.65625 C103.1596434 82.7787483 104.72811151 83.81581309 107 86 C116.20457349 101.53271776 120.09107662 121.69496862 116.1171875 139.40625 C113.31269481 149.99446573 108.14723189 158.62869495 100 166 C99.35417969 166.61488281 98.70835937 167.22976563 98.04296875 167.86328125 C91.26057322 174.17055275 84.25110363 178.7904409 75.625 182.1875 C49.5276175 192.63994002 26.5787934 210.37630528 6.41894531 229.65771484 C3.97985978 231.96502596 1.44250901 234.15391629 -1.1015625 236.34375 C-3.31324491 238.27328362 -5.46402974 240.26386552 -7.625 242.25 C-26.07725786 258.80609025 -42.59673201 268.19055747 -67.984375 267.625 C-79.81561783 266.91314806 -93.47372296 263.2876142 -103 256 C-104.5159375 255.38125 -104.5159375 255.38125 -106.0625 254.75 C-115.48311212 250.84487446 -124.04479584 244.40782048 -131 237 C-131 236.34 -131 235.68 -131 235 C-131.99 234.67 -132.98 234.34 -134 234 C-135.6875 231.4375 -135.6875 231.4375 -137 229 C-133.35416667 229.22786458 -129.70833333 229.45572917 -126.0625 229.68359375 C-125.30130859 229.7302417 -124.54011719 229.77688965 -123.75585938 229.82495117 C-121.65252598 229.95855235 -119.5497498 230.10095543 -117.44726562 230.24731445 C-79.50204615 232.80633484 -44.02235484 230.76573589 -10 212 C-8.91074219 211.4121875 -7.82148438 210.824375 -6.69921875 210.21875 C0.09485135 206.42028641 6.0839209 202.04518421 12 197 C12.71027344 196.4121875 13.42054688 195.824375 14.15234375 195.21875 C28.2276774 183.33171199 38.58199183 167.7277398 46 151 C46.72316406 149.38351562 46.72316406 149.38351562 47.4609375 147.734375 C59.18145807 119.46305873 60.47282153 83.08510399 49 54.625 C48.02514851 52.40545034 47.02883994 50.19504544 46 48 C45.66097656 47.22785156 45.32195312 46.45570313 44.97265625 45.66015625 C36.4792805 27.25176675 19.74656044 11.83626691 2.203125 2.27734375 C1.47609375 1.85582031 0.7490625 1.43429688 0 1 C0 0.67 0 0.34 0 0 Z " fill="#EAE54F" transform="translate(315,157)"/>
<path d="M0 0 C0.67375671 0.09058685 1.34751343 0.18117371 2.04168701 0.27450562 C59.20997531 7.9818789 59.20997531 7.9818789 71.875 21.25 C70.27567627 21.2185791 70.27567627 21.2185791 68.64404297 21.18652344 C26.37051603 20.43075642 -10.57515079 26.36988788 -44.125 54.25 C-44.65569092 54.68787842 -45.18638184 55.12575684 -45.7331543 55.5769043 C-72.96809335 78.11059874 -88.38386853 111.06230619 -91.9440918 145.84936523 C-93.65651747 168.57309219 -90.62210261 189.56183015 -84.125 211.25 C-83.78534844 212.58173785 -83.45036889 213.91470079 -83.125 215.25 C-95.44447852 204.29935242 -100.85169319 183.1123018 -102.125 167.25 C-103.39343028 135.80666846 -99.04483688 107.09189214 -86.125 78.25 C-85.47724609 76.74759766 -85.47724609 76.74759766 -84.81640625 75.21484375 C-74.03399204 50.64508022 -58.12648157 28.49775986 -39.734375 9.06640625 C-37.154746 6.36028661 -37.154746 6.36028661 -35.140625 3.71484375 C-26.90990842 -6.25698595 -11.43836311 -1.5650002 0 0 Z " fill="#D8C145" transform="translate(239.125,134.75)"/>
<path d="M0 0 C17.72922424 1.64923016 33.76683108 10.88485467 48 21 C48.8765625 21.59039062 49.753125 22.18078125 50.65625 22.7890625 C57.90039804 27.79604717 64.17280278 33.66027692 70.51953125 39.73046875 C72.66692117 41.78153931 74.84593045 43.72199244 77.16015625 45.58203125 C80.03285565 48.02797476 82.28039532 50.5506033 84.625 53.5 C85.35976563 54.4178125 86.09453125 55.335625 86.8515625 56.28125 C87.91503906 57.62703125 87.91503906 57.62703125 89 59 C89.65097656 59.80566406 90.30195313 60.61132812 90.97265625 61.44140625 C93.31471278 64.39718087 95.59662611 67.38665913 97.8125 70.4375 C98.23208984 70.98470703 98.65167969 71.53191406 99.08398438 72.09570312 C101.11664789 74.92535826 102.01637427 76.56826514 101.8828125 80.08984375 C97.01237405 96.14505016 88.43880196 112.2048279 79 126 C77.58211719 128.12418874 76.16547863 130.24920846 74.75 132.375 C74.10546875 133.33148438 73.4609375 134.28796875 72.796875 135.2734375 C71.59802615 137.09256032 70.46143849 138.95424733 69.390625 140.8515625 C68.93171875 141.56054688 68.4728125 142.26953125 68 143 C67.34 143 66.68 143 66 143 C65.7834375 143.68449219 65.566875 144.36898437 65.34375 145.07421875 C63.60454681 148.86103034 61.20751735 151.67471826 58.5 154.8125 C58.00113281 155.40998047 57.50226563 156.00746094 56.98828125 156.62304688 C55.70769135 158.12507926 54.35853858 159.56808356 53 161 C52.34 161 51.68 161 51 161 C50.74476563 161.56074219 50.48953125 162.12148438 50.2265625 162.69921875 C46.49802193 169.69320091 40.84228775 175.46215321 34.796875 180.48828125 C32.8279079 182.09441859 32.8279079 182.09441859 30.5625 184.5 C25.7907064 189.15540839 20.33055406 193.01115003 15 197 C14.34 196.67 13.68 196.34 13 196 C14.010625 195.175 15.02125 194.35 16.0625 193.5 C29.28871715 182.06895803 38.97036619 166.85194873 46 151 C46.48210937 149.92234375 46.96421875 148.8446875 47.4609375 147.734375 C59.18145807 119.46305873 60.47282153 83.08510399 49 54.625 C48.02514851 52.40545034 47.02883994 50.19504544 46 48 C45.66097656 47.22785156 45.32195312 46.45570313 44.97265625 45.66015625 C36.4792805 27.25176675 19.74656044 11.83626691 2.203125 2.27734375 C1.47609375 1.85582031 0.7490625 1.43429688 0 1 C0 0.67 0 0.34 0 0 Z " fill="#E1CA4D" transform="translate(315,157)"/>
<path d="M0 0 C0.66 0.33 1.32 0.66 2 1 C-3.81272411 6.96348641 -9.47906015 12.23953007 -17 16 C-17 15.34 -17 14.68 -17 14 C-20.79247962 14.08197263 -24.58347719 14.19470943 -28.375 14.3125 C-29.43589844 14.33505859 -30.49679688 14.35761719 -31.58984375 14.38085938 C-37.76916047 14.58936393 -43.05150864 15.31620828 -48.86572266 17.46557617 C-51.29239235 18.07321515 -52.6588573 17.79864513 -55 17 C-44.64725846 12.9608622 -33.92749078 10.8742563 -22.80859375 11.01171875 C-15.08805594 11.03533451 -10.11318131 10.3380397 -4.5 4.9375 C-2.96312753 3.32604402 -1.44869551 1.69116785 0 0 Z " fill="#EAE677" transform="translate(223,121)"/>
<path d="M0 0 C0.33 0 0.66 0 1 0 C1.33770791 4.50277219 0.43973367 7.49812214 -1.265625 11.6328125 C-2.70618842 16.27633075 -2.76648507 21.16865655 -3 26 C-3.66 26 -4.32 26 -5 26 C-4.98839844 26.63808594 -4.97679687 27.27617187 -4.96484375 27.93359375 C-4.95582031 28.75988281 -4.94679687 29.58617187 -4.9375 30.4375 C-4.92589844 31.26121094 -4.91429687 32.08492187 -4.90234375 32.93359375 C-5 35 -5 35 -6 36 C-6.20775561 37.66204487 -6.36718255 39.33029491 -6.5 41 C-6.88888889 45.88888889 -6.88888889 45.88888889 -8 47 C-8.185625 48.794375 -8.185625 48.794375 -8.375 50.625 C-8.84411507 54.88548769 -10.15389572 58.14726063 -12 62 C-13.26985024 59.46029953 -12.86063149 58.46440176 -12.29296875 55.7109375 C-12.11830078 54.85113281 -11.94363281 53.99132812 -11.76367188 53.10546875 C-11.57353516 52.20441406 -11.38339844 51.30335938 -11.1875 50.375 C-10.91969727 49.05822266 -10.91969727 49.05822266 -10.64648438 47.71484375 C-9.83249369 43.75949549 -8.97441693 39.83192223 -7.94921875 35.92578125 C-6.84179543 31.59859687 -6.24575785 27.23104807 -5.625 22.8125 C-4.45626881 14.90245913 -2.67180765 7.55429878 0 0 Z " fill="#EAE674" transform="translate(138,174)"/>
<path d="M0 0 C0.66 0 1.32 0 2 0 C1.54927492 3.50102287 1.08802697 7.00058461 0.625 10.5 C0.49867188 11.48226562 0.37234375 12.46453125 0.2421875 13.4765625 C-0.51028035 19.12007134 -1.55590354 24.49586186 -3 30 C-3.3160217 31.8710491 -3.60967856 33.74609101 -3.875 35.625 C-4.98240949 42.60882436 -6.94156772 49.24514456 -9 56 C-9.33 56 -9.66 56 -10 56 C-10.2919519 50.45291384 -9.19088986 45.38027025 -8 40 C-7.34 40 -6.68 40 -6 40 C-6.01160156 39.21753906 -6.02320312 38.43507812 -6.03515625 37.62890625 C-6.04417969 36.61699219 -6.05320312 35.60507813 -6.0625 34.5625 C-6.07410156 33.55316406 -6.08570312 32.54382813 -6.09765625 31.50390625 C-6 29 -6 29 -5 28 C-4.79300437 26.50503158 -4.63320741 25.0033408 -4.5 23.5 C-4.11111111 19.11111111 -4.11111111 19.11111111 -3 18 C-2.79300437 16.50503158 -2.63320741 15.0033408 -2.5 13.5 C-2.11111111 9.11111111 -2.11111111 9.11111111 -1 8 C-0.76924918 6.65252916 -0.58846937 5.29622435 -0.4375 3.9375 C-0.293125 2.638125 -0.14875 1.33875 0 0 Z " fill="#F3F4CE" transform="translate(133,184)"/>
<path d="M0 0 C4.20871148 6.31306722 4.38831027 14.02663987 4.375 21.4375 C4.37483887 22.29134277 4.37467773 23.14518555 4.37451172 24.02490234 C4.23345891 32.08569926 3.97264602 46.02735398 -2 52 C-1.34 46.72 -0.68 41.44 0 36 C0.66 36 1.32 36 2 36 C1.88182083 32.04878772 1.75757767 28.09781771 1.62768555 24.14697266 C1.56301749 22.14105193 1.50316894 20.13497772 1.44335938 18.12890625 C1.40146484 16.87207031 1.35957031 15.61523438 1.31640625 14.3203125 C1.27974854 13.15773926 1.24309082 11.99516602 1.20532227 10.79736328 C1.18178341 8.0464499 1.18178341 8.0464499 0 6 C-0.039992 4.00039988 -0.04346799 1.99952758 0 0 Z " fill="#E8E67B" transform="translate(421,176)"/>
<path d="M0 0 C2.04711914 -0.35644531 2.04711914 -0.35644531 4.53515625 -0.328125 C5.87223633 -0.32039062 5.87223633 -0.32039062 7.23632812 -0.3125 C8.16896484 -0.291875 9.10160156 -0.27125 10.0625 -0.25 C11.46725586 -0.24226562 11.46725586 -0.24226562 12.90039062 -0.234375 C19.84609661 -0.15390339 19.84609661 -0.15390339 21 1 C22.47174679 1.32705484 23.95314372 1.61101152 25.4375 1.875 C29.16830423 2.59968859 32.8376443 3.41929048 36.5 4.4375 C37.3146875 4.66308594 38.129375 4.88867188 38.96875 5.12109375 C41 6 41 6 43 9 C42.42894531 8.81824219 41.85789062 8.63648438 41.26953125 8.44921875 C38.52258743 7.5976225 35.76307503 6.79766275 33 6 C32.08089844 5.71382812 31.16179687 5.42765625 30.21484375 5.1328125 C19.60321042 2.19678747 8.92281735 2.71321538 -2 3 C-1.34 2.01 -0.68 1.02 0 0 Z " fill="#C3AC5F" transform="translate(255,175)"/>
<path d="M0 0 C1.12148437 0.00322266 2.24296875 0.00644531 3.3984375 0.00976562 C4.5740625 0.01814453 5.7496875 0.02652344 6.9609375 0.03515625 C8.14429688 0.03966797 9.32765625 0.04417969 10.546875 0.04882812 C13.47661257 0.06064158 16.40625022 0.07711367 19.3359375 0.09765625 C19.3359375 0.42765625 19.3359375 0.75765625 19.3359375 1.09765625 C18.26448486 1.16496948 18.26448486 1.16496948 17.17138672 1.23364258 C-1.93318808 2.3853141 -1.93318808 2.3853141 -20.6640625 6.09765625 C-20.6640625 5.43765625 -20.6640625 4.77765625 -20.6640625 4.09765625 C-19.3440625 4.09765625 -18.0240625 4.09765625 -16.6640625 4.09765625 C-16.6640625 3.43765625 -16.6640625 2.77765625 -16.6640625 2.09765625 C-15.72433594 2.00677734 -15.72433594 2.00677734 -14.765625 1.9140625 C-13.53972656 1.78837891 -13.53972656 1.78837891 -12.2890625 1.66015625 C-11.47695312 1.57894531 -10.66484375 1.49773437 -9.828125 1.4140625 C-0.1514058 -0.00076468 -0.1514058 -0.00076468 0 0 Z " fill="#F3F6D3" transform="translate(192.6640625,130.90234375)"/>
<path d="M0 0 C2.97 0 5.94 0 9 0 C9 0.66 9 1.32 9 2 C10.299375 1.979375 11.59875 1.95875 12.9375 1.9375 C14.29165633 1.91600546 15.64756083 1.92851801 17 2 C17.33 2.33 17.66 2.66 18 3 C20.99741857 3.53962604 24.00554327 3.96548069 27.01953125 4.40234375 C29.71202687 4.9422544 31.64147486 5.6351392 34 7 C26.49356506 7.44592683 19.76551252 5.77246569 12.5 4 C11.29601562 3.71382812 10.09203125 3.42765625 8.8515625 3.1328125 C5.89903728 2.4298303 2.94872995 1.71870514 0 1 C0 0.67 0 0.34 0 0 Z " fill="#F3F5CD" transform="translate(336,141)"/>
<path d="M0 0 C1.32 0 2.64 0 4 0 C4 0.66 4 1.32 4 2 C5.1446875 2.2165625 5.1446875 2.2165625 6.3125 2.4375 C9 3 9 3 12 4 C12 4.66 12 5.32 12 6 C12.70511719 5.9484375 13.41023438 5.896875 14.13671875 5.84375 C17.54017061 6.02947725 19.75171201 7.02492145 22.8125 8.5 C24.27623047 9.19609375 24.27623047 9.19609375 25.76953125 9.90625 C26.50558594 10.2671875 27.24164063 10.628125 28 11 C24.61416018 12.16994097 22.88768882 11.86190819 19.62890625 10.453125 C18.80712891 10.1025 17.98535156 9.751875 17.13867188 9.390625 C15.8634668 8.82601562 15.8634668 8.82601562 14.5625 8.25 C13.2930957 7.70859375 13.2930957 7.70859375 11.99804688 7.15625 C7.83515749 5.35678646 3.76129756 3.56417 0 1 C0 0.67 0 0.34 0 0 Z " fill="#F2F3C8" transform="translate(308,129)"/>
<path d="M0 0 C2.52108103 0.14224587 5.04180403 0.28870121 7.5625 0.4375 C8.26697266 0.47681641 8.97144531 0.51613281 9.69726562 0.55664062 C14.1798541 0.82518279 18.56293497 1.30616197 23 2 C23 2.33 23 2.66 23 3 C17.06 3 11.12 3 5 3 C5 3.66 5 4.32 5 5 C5.66 5 6.32 5 7 5 C8.37310707 6.29233607 9.71034824 7.62437146 11 9 C10.67 9.66 10.34 10.32 10 11 C8 9.625 8 9.625 6 8 C6 7.34 6 6.68 6 6 C5.01 5.67 4.02 5.34 3 5 C1.3125 2.4375 1.3125 2.4375 0 0 Z " fill="#E9E161" transform="translate(178,386)"/>
<path d="M0 0 C0.66 0 1.32 0 2 0 C2.07420211 4.07502794 2.1286257 8.14979392 2.16479492 12.2253418 C2.17987397 13.61147919 2.2003405 14.99756894 2.22631836 16.38354492 C2.26273716 18.37658146 2.27813018 20.36996723 2.29296875 22.36328125 C2.3086792 23.56251221 2.32438965 24.76174316 2.34057617 25.99731445 C2 29 2 29 0.48168945 30.91479492 C-0.00726807 31.2729126 -0.49622559 31.63103027 -1 32 C-0.83628906 30.9378125 -0.67257812 29.875625 -0.50390625 28.78125 C0.2151081 23.0291352 0.10749889 17.28754902 0.0625 11.5 C0.05798828 10.39140625 0.05347656 9.2828125 0.04882812 8.140625 C0.03713158 5.42702601 0.02074086 2.71354239 0 0 Z " fill="#F3F6CF" transform="translate(431,268)"/>
<path d="M0 0 C-3 2 -3 2 -6 2 C-6 2.66 -6 3.32 -6 4 C-6.68707031 4.26554687 -7.37414062 4.53109375 -8.08203125 4.8046875 C-8.98308594 5.15789062 -9.88414062 5.51109375 -10.8125 5.875 C-11.70582031 6.22304688 -12.59914063 6.57109375 -13.51953125 6.9296875 C-16.17711591 7.98832155 -16.17711591 7.98832155 -19 10 C-21.1875 9.625 -21.1875 9.625 -23 9 C-20.43873936 7.705826 -17.87606642 6.41459216 -15.3125 5.125 C-14.59126953 4.76019531 -13.87003906 4.39539063 -13.12695312 4.01953125 C-2.56805239 -1.2840262 -2.56805239 -1.2840262 0 0 Z " fill="#F3F3CA" transform="translate(398,337)"/>
<path d="M0 0 C0.33 0.99 0.66 1.98 1 3 C-0.24513047 5.12709789 -1.55458263 7.01255111 -3 9 C-3.556875 9.85078125 -4.11375 10.7015625 -4.6875 11.578125 C-5.285625 12.48046875 -5.88375 13.3828125 -6.5 14.3125 C-7.35078125 15.60607422 -7.35078125 15.60607422 -8.21875 16.92578125 C-10.15163613 19.17657629 -11.10441654 19.66345192 -14 20 C-13.48953125 19.34257812 -13.48953125 19.34257812 -12.96875 18.671875 C-8.35702949 12.63738965 -4.16766281 6.34669464 0 0 Z " fill="#C3AE5E" transform="translate(334,311)"/>
<path d="M0 0 C9.37579682 1.11843262 18.70030388 2.34437228 28 4 C28 4.33 28 4.66 28 5 C25.18711295 4.85980308 22.37483115 4.71312045 19.5625 4.5625 C18.76005859 4.52318359 17.95761719 4.48386719 17.13085938 4.44335938 C11.11328125 4.11328125 11.11328125 4.11328125 10 3 C8.31816052 2.76712992 6.6287584 2.58735834 4.9375 2.4375 C3.55884766 2.31181641 3.55884766 2.31181641 2.15234375 2.18359375 C1.08693359 2.09271484 1.08693359 2.09271484 0 2 C0 1.34 0 0.68 0 0 Z " fill="#E8E474" transform="translate(358,147)"/>
<path d="M0 0 C-1.61170625 4.19043626 -4.53646186 7.23567378 -8 10 C-11.375 11.375 -11.375 11.375 -14 12 C-4.24783862 0 -4.24783862 0 0 0 Z " fill="#F1EDD9" transform="translate(212,196)"/>
<path d="M0 0 C2.64 0 5.28 0 8 0 C8 0.66 8 1.32 8 2 C15.92 2 23.84 2 32 2 C32 2.33 32 2.66 32 3 C27.79172527 3.05828635 23.58355511 3.093693 19.375 3.125 C17.59029297 3.15013672 17.59029297 3.15013672 15.76953125 3.17578125 C14.03896484 3.18544922 14.03896484 3.18544922 12.2734375 3.1953125 C10.68668213 3.21102295 10.68668213 3.21102295 9.06787109 3.22705078 C5.76636112 2.98270857 3.08587237 2.16882977 0 1 C0 0.67 0 0.34 0 0 Z " fill="#E8E472" transform="translate(234,421)"/>
<path d="M0 0 C1.5665453 3.1330906 0.14155695 5.35098554 -0.875 8.625 C-2.42064553 13.80557743 -3.56956392 18.619549 -4 24 C-4.33 24 -4.66 24 -5 24 C-5.23668569 16.96517526 -4.7879537 10.8165735 -3 4 C-2.34 4 -1.68 4 -1 4 C-0.67 2.68 -0.34 1.36 0 0 Z " fill="#F2F4CC" transform="translate(106,286)"/>
<path d="M0 0 C0 0.66 0 1.32 0 2 C-0.99 2 -1.98 2 -3 2 C-3.226875 2.5775 -3.45375 3.155 -3.6875 3.75 C-5.73758279 7.26442764 -8.43333277 9.49189171 -12.3125 10.75 C-13.1478125 10.87375 -13.1478125 10.87375 -14 11 C-14 10.34 -14 9.68 -14 9 C-13.34 9 -12.68 9 -12 9 C-12 8.34 -12 7.68 -12 7 C-9.8828125 5.2734375 -9.8828125 5.2734375 -7.125 3.375 C-6.22007812 2.74335938 -5.31515625 2.11171875 -4.3828125 1.4609375 C-2 0 -2 0 0 0 Z " fill="#EAE778" transform="translate(164,141)"/>
<path d="M0 0 C0.99 0.495 0.99 0.495 2 1 C2 1.66 2 2.32 2 3 C2.5775 3.103125 3.155 3.20625 3.75 3.3125 C7.0906763 4.3332622 9.31917383 6.44682874 12 8.625 C14.03734305 10.02567335 15.58566636 10.56886899 18 11 C18 11.66 18 12.32 18 13 C13.76570244 11.68938409 9.92592596 10.05643741 6 8 C6 7.34 6 6.68 6 6 C5.195625 5.7525 4.39125 5.505 3.5625 5.25 C1 4 1 4 0.1875 1.875 C0.125625 1.25625 0.06375 0.6375 0 0 Z " fill="#F2F3CA" transform="translate(118,361)"/>
<path d="M0 0 C0.66 0 1.32 0 2 0 C-1.07517084 12.66970387 -1.07517084 12.66970387 -3 18 C-3.33 18 -3.66 18 -4 18 C-4 15.36 -4 12.72 -4 10 C-3.34 10 -2.68 10 -2 10 C-2 8.02 -2 6.04 -2 4 C-1.34 4 -0.68 4 0 4 C0 2.68 0 1.36 0 0 Z " fill="#F3F4D0" transform="translate(139,166)"/>
<path d="M0 0 C0.99 0.33 1.98 0.66 3 1 C1.42353449 2.32074115 -0.16145531 3.63131224 -1.75 4.9375 C-2.63171875 5.66839844 -3.5134375 6.39929688 -4.421875 7.15234375 C-6.76330955 8.83037185 -8.19661127 9.58735166 -11 10 C-11 9.34 -11 8.68 -11 8 C-10.01 8 -9.02 8 -8 8 C-8 7.34 -8 6.68 -8 6 C-7.01 6 -6.02 6 -5 6 C-4.34 4.68 -3.68 3.36 -3 2 C-2.01 2 -1.02 2 0 2 C0 1.34 0 0.68 0 0 Z " fill="#F1EED3" transform="translate(313,333)"/>
<path d="M0 0 C0.33 0 0.66 0 1 0 C1.28571429 7.42857143 1.28571429 7.42857143 -1 11 C-0.34 11 0.32 11 1 11 C1.33 12.98 1.66 14.96 2 17 C-0.80338174 14.10901258 -1.93963039 12.56344968 -2.375 8.5 C-2.02749962 5.25666309 -1.41415461 2.91669389 0 0 Z " fill="#F2F4CA" transform="translate(420,226)"/>
<path d="M0 0 C2.93912216 0.44940706 5.87598754 0.90910023 8.8125 1.375 C10.06256836 1.56449219 10.06256836 1.56449219 11.33789062 1.7578125 C12.14033203 1.88671875 12.94277344 2.015625 13.76953125 2.1484375 C14.50792236 2.26364746 15.24631348 2.37885742 16.00708008 2.49755859 C18 3 18 3 21 5 C16.05 4.67 11.1 4.34 6 4 C6 3.34 6 2.68 6 2 C4.35 2 2.7 2 1 2 C0.67 1.34 0.34 0.68 0 0 Z " fill="#F2F3C1" transform="translate(156,381)"/>
<path d="M0 0 C1.07868195 3.3048979 0.90419019 5.61763479 0.1875 9 C-0.06966797 10.2684375 -0.06966797 10.2684375 -0.33203125 11.5625 C-0.97664732 13.9147832 -1.82997719 15.8673002 -3 18 C-3.66 18 -4.32 18 -5 18 C-3.36959185 11.98922864 -1.72852643 5.98336072 0 0 Z " fill="#C3B067" transform="translate(342,288)"/>
<path d="M0 0 C1.14266516 3.35897545 0.85911331 5.30450352 -0.3125 8.625 C-0.70888672 9.78902344 -0.70888672 9.78902344 -1.11328125 10.9765625 C-2 13 -2 13 -4 15 C-3.50341703 9.33895411 -2.45489316 5.12325529 0 0 Z " fill="#E9E679" transform="translate(111,273)"/>
<path d="M0 0 C0.66 0.33 1.32 0.66 2 1 C-1.96 3.97 -5.92 6.94 -10 10 C-10 9.01 -10 8.02 -10 7 C-6.66666667 4 -6.66666667 4 -4 4 C-4 3.34 -4 2.68 -4 2 C-2.125 0.9375 -2.125 0.9375 0 0 Z " fill="#C3AE62" transform="translate(215,191)"/>
<path d="M0 0 C0.33 0.99 0.66 1.98 1 3 C-1.25 5.5625 -1.25 5.5625 -4 8 C-5.32 7.67 -6.64 7.34 -8 7 C-5.36 4.69 -2.72 2.38 0 0 Z " fill="#F2F2CD" transform="translate(314,392)"/>
<path d="M0 0 C-1 3 -1 3 -3.8125 4.5 C-5.3903125 5.2425 -5.3903125 5.2425 -7 6 C-8.35863401 6.96534522 -9.70343137 7.95277149 -11 9 C-11.66 8.67 -12.32 8.34 -13 8 C-11.2126038 6.66094733 -9.41995047 5.32890934 -7.625 4 C-6.62726563 3.2575 -5.62953125 2.515 -4.6015625 1.75 C-2 0 -2 0 0 0 Z " fill="#F1F4C5" transform="translate(360,356)"/>
<path d="M0 0 C2.4375 0.375 2.4375 0.375 5 1 C5.33 1.66 5.66 2.32 6 3 C6.66 3.144375 7.32 3.28875 8 3.4375 C8.66 3.623125 9.32 3.80875 10 4 C10.33 4.99 10.66 5.98 11 7 C6.00724943 5.72278474 3.42388092 3.82669043 0 0 Z " fill="#E9E778" transform="translate(196,403)"/>
<path d="M0 0 C0.75 1.5625 0.75 1.5625 1 4 C-0.13084437 6.50286409 -1.52139516 8.67007722 -3 11 C-3.66 11 -4.32 11 -5 11 C-3.77472971 6.94718288 -2.30119506 3.55639236 0 0 Z " fill="#F3F0DA" transform="translate(188,220)"/>
<path d="M0 0 C0.33 0 0.66 0 1 0 C1.17835515 4.54805635 0.99785435 7.8794254 -1 12 C-1.66 12 -2.32 12 -3 12 C-2.01 8.04 -1.02 4.08 0 0 Z " fill="#E9E46F" transform="translate(122,244)"/>
<path d="M0 0 C2.2344598 4.03292745 2.54496743 7.44967434 3 12 C0.89366282 10.29171079 0.06198392 9.47851584 -0.29296875 6.73828125 C-0.25816406 5.93777344 -0.22335938 5.13726562 -0.1875 4.3125 C-0.16042969 3.50425781 -0.13335937 2.69601562 -0.10546875 1.86328125 C-0.07066406 1.24839844 -0.03585938 0.63351562 0 0 Z " fill="#F1F4CC" transform="translate(101,328)"/>
<path d="M0 0 C0.66 0 1.32 0 2 0 C2 0.66 2 1.32 2 2 C2.66 2 3.32 2 4 2 C4 4.64 4 7.28 4 10 C2.26337666 6.77484237 1.1094072 3.48670834 0 0 Z " fill="#F2F5D8" transform="translate(425,250)"/>
<path d="M0 0 C1.99097846 2.98646769 2.94124926 5.59687262 4 9 C3.34 9 2.68 9 2 9 C2 8.34 2 7.68 2 7 C1.34 7 0.68 7 0 7 C0 4.69 0 2.38 0 0 Z " fill="#F1F2C1" transform="translate(105,341)"/>
</svg>
