<?xml version="1.0" encoding="utf-8"?>
<!-- Generator: Adobe Illustrator 27.1.1, SVG Export Plug-In . SVG Version: 6.00 Build 0)  -->
<svg version="1.1" id="Layer_1" xmlns="http://www.w3.org/2000/svg" xmlns:xlink="http://www.w3.org/1999/xlink" x="0px" y="0px"
	 viewBox="0 0 128 128" style="enable-background:new 0 0 128 128;" xml:space="preserve">
<style type="text/css">
	.st0{fill-rule:evenodd;clip-rule:evenodd;fill:#F2F2F2;}
	.st1{fill:#5492F6;}
	.st2{fill:#0E3CA4;}
	.st3{fill:#0727A5;}
	.st4{fill:#6A0000;}
	.st5{fill:#01219F;}
	.st6{fill:#E5E5E5;}
	.st7{fill:#BD1010;}
	.st8{fill:#C51616;}
	.st9{fill:#E4E4E4;}
	.st10{fill:#C71F1F;}
	.st11{fill:#AB0909;}
	.st12{fill:#C21B1B;}
	.st13{fill:#C82020;}
	.st14{fill:#CD2323;}
	.st15{fill:#CD2424;}
	.st16{fill:#CC2222;}
	.st17{fill:#DBDADA;}
	.st18{fill:#E7E6E6;}
	.st19{fill:#E6E5E5;}
	.st20{fill:#E5E4E4;}
	.st21{fill:#EBEAEA;}
	.st22{fill:#E2E1E1;}
	.st23{fill:#D42828;}
	.st24{fill:#DBDBDB;}
	.st25{fill:#C31515;}
	.st26{fill:#E2E2E2;}
	.st27{fill:#1939B8;}
	.st28{fill:#1232B1;}
	.st29{fill:#DD2F2F;}
	.st30{fill:#EBEBEB;}
	.st31{fill:#E9E9EB;}
	.st32{fill:#E2E2E4;}
	.st33{fill:#E3E3E4;}
	.st34{fill:#DFDFE1;}
	.st35{fill:#E6E7E8;}
	.st36{fill:#E2E3E4;}
	.st37{fill:#DFE0E1;}
	.st38{fill:#DFDFE0;}
	.st39{fill:#E6E6E7;}
	.st40{fill:#E0E0E1;}
	.st41{fill:#7C0000;}
	.st42{fill:#CE2020;}
	.st43{fill:#960A0A;}
	.st44{fill:#9D0B0B;}
	.st45{fill:#F2F2F2;}
	.st46{fill:#CA1B1B;}
	.st47{fill:#C21414;}
	.st48{fill:#D62828;}
	.st49{fill:#CB2222;}
	.st50{fill:#D9D9D9;}
	.st51{fill:#A70707;}
	.st52{fill:#C5C5C5;}
	.st53{fill:#EEEDED;}
	.st54{fill:#CC1E1E;}
	.st55{fill:#F4F4F4;}
	.st56{fill:#CACACA;}
	.st57{fill:#A50505;}
	.st58{fill:#C7C7C7;}
	.st59{fill:#C6C6C6;}
	.st60{fill:#AC0A0A;}
	.st61{fill:#C8C8C8;}
	.st62{fill:#AA0909;}
	.st63{fill:#AE0C0C;}
	.st64{fill:#FCFCFC;}
	.st65{fill:#DE2F2F;}
	.st66{fill:#FDFDFD;}
	.st67{fill:#FEFEFE;}
	.st68{fill:#F5F5F6;}
	.st69{fill:#F3F3F4;}
	.st70{fill:#F7F8F9;}
	.st71{fill:#F8F8F9;}
	.st72{fill:#F7F7F8;}
	.st73{fill:#F4F5F6;}
	.st74{fill:#F3F3F5;}
	.st75{fill:#F1F1F2;}
	.st76{fill:#EFEFF0;}
	.st77{fill:#EEEFF0;}
	.st78{fill:#ECECEE;}
	.st79{fill:#F1F1F3;}
	.st80{fill:#EBECED;}
	.st81{fill:#ECECED;}
	.st82{fill:#F9F9F9;}
	.st83{fill:#D82A2A;}
	.st84{fill:#D12323;}
	.st85{fill:#D52727;}
	.st86{fill:#F5F5F5;}
	.st87{fill:#D32828;}
	.st88{fill:#BE1818;}
	.st89{fill:#C92020;}
	.st90{fill:#E1E1E1;}
	.st91{fill:#B61111;}
	.st92{fill:#D4D4D4;}
	.st93{fill:#B81414;}
	.st94{fill:#D3D3D3;}
	.st95{fill:#DCDCDC;}
	.st96{fill:#EEEEEE;}
	.st97{fill:#EDEDED;}
	.st98{fill:#EFEFEF;}
</style>
<g id="楕円形_1_のコピー_8">
	<g>
		<circle class="st0" cx="64" cy="64" r="63.5"/>
	</g>
</g>
<g>
	<path class="st1" d="M24.5,59.4c0.1-0.8,0.2-1.7,0.3-2.5c0.3-2.7,1-5.3,1.9-7.9c0-0.1,0.1-0.2,0.2-0.3c0.6,0.8,1.3,1.6,1.9,2.3
		c1.8,2.2,3.6,4.2,5.3,6.5c2.3,3,4.3,6.1,6.3,9.4c0.1,0.2,0.2,0.4,0.4,0.4s0.2,0.3,0.2,0.4c0,4.9,0,9.9,0,14.8c0,1.1,0,2.2,0,3.2
		c0,1.1,0,2.2,0,3.2c0,0.7,0,1.4,0,2.2c0,0.2,0,0.4-0.2,0.5c-8.2-5.7-13.4-13.4-15.4-23.2c-0.4-1.6-0.5-3.2-0.6-4.9
		c0-0.1,0-0.3-0.1-0.4C24.5,61.9,24.5,60.7,24.5,59.4z"/>
	<path class="st1" d="M48.2,59.9c0.2-0.2,0-0.3-0.1-0.4c-1-1.1-2-2.2-2.6-3.5c-1.5-2.9-1.7-5.8-0.2-8.8c0-0.1,0.1-0.2,0.1-0.3
		c0-0.4,0.3-0.5,0.4-0.8c1.4-2.2,3.3-3.9,5.4-5.3c3.6-2.5,7.6-4.3,11.7-5.8c2.9-1,5.8-1.9,8.8-2.4c2.1-0.4,4.1-0.7,6.3-0.7
		c2.2,0,4.3,0.3,6.2,1.3c1,0.7,2,1.6,2.8,2.5c4,4,6.8,8.5,8.6,13.8c0.4,1.3,0.9,2.7,1.2,4.1c-0.1,0.2-0.3,0.2-0.4,0.2
		c-0.2,0-0.4,0-0.5,0.1c-4.7,0.6-9.3,1.5-14.1,2.3c-3.4,0.5-6.8,1.1-10.2,1.7c-0.1,0-0.3,0-0.4,0c-1.9,0.3-3.7,0.5-5.6,0.8
		c-1.8,0.3-3.7,0.4-5.5,0.6c-0.1,0-0.2,0-0.3,0c-0.3,0-0.5,0-0.7,0.1c-1.9,0.2-3.8,0.4-5.7,0.4c-1.1,0.1-2.2,0.2-3.2,0.2
		c-0.3,0-0.5,0-0.8,0s-0.6,0-0.9,0C48.3,59.9,48.2,59.9,48.2,59.9z"/>
	<path class="st2" d="M84.1,33c-0.1,0.1-0.2,0-0.3-0.1c-2.4-1.1-5-1.3-7.6-1c-4.3,0.4-8.5,1.4-12.6,2.9c-4,1.3-7.8,3.1-11.4,5.4
		c-2.5,1.6-4.8,3.5-6.4,6c-0.2,0.3-0.3,0.4-0.4,0.7c-1.5-1.1-3-2.2-4.1-3.7c-0.4-0.4-0.6-0.9-0.9-1.3c0-0.3,0.3-0.3,0.4-0.4
		c1.6-0.8,3.2-1.7,4.8-2.7c1.6-1.1,3.1-2.3,4.3-3.8c0.6-0.8,1.1-1.6,1.4-2.6c0.2-0.5,0.2-1,0.1-1.5c-0.1-0.9-0.6-1.4-1.4-1.8
		c-0.3-0.1-0.5-0.2-0.9-0.3c-0.2,0-0.4-0.1-0.4-0.3c4.1-1.8,8.5-2.8,13-2.9C70.1,25.4,77.6,27.9,84.1,33z"/>
	<path class="st1" d="M48.8,28.5c0.1,0.2,0.3,0.2,0.4,0.2c0.9,0.3,1.7,0.5,2.2,1.4c0.4,0.7,0.3,1.5,0.1,2.2
		c-0.4,1.3-1.1,2.2-1.9,3.2c-1.6,1.8-3.6,3.1-5.7,4.4c-1,0.5-2,1.1-3.1,1.6c-0.1,0.1-0.3,0.1-0.4,0.3c-0.9,0.4-1.8,0.7-2.7,1.1
		c-2.3,0.9-4.7,1.7-7.1,2.2c-0.6,0.1-1.3,0.2-2,0.2c-0.4,0-0.4-0.1-0.3-0.4c1.1-2.2,2.4-4.2,4-6.1c2.8-3.5,6-6.4,9.9-8.7
		c1.9-1.1,4-1.5,6.1-1.3C48.5,28.6,48.7,28.6,48.8,28.5z"/>
	<path class="st3" d="M49.2,59.9c0.3,0,0.5,0,0.8,0c0.1,0.1,0.1,0.2,0.1,0.4c0,1.3,0.1,2.4,0,3.7c0,0.3-0.3,0.3-0.4,0.3
		c0,0.1,0.1,0.2,0.2,0.2c0.3,0.2,0.4,0.4,0.2,0.6C50,65.2,50,65.2,50,65.4c0.4,1,0.2,2,0.2,3c-0.1,0.3-0.3,0.2-0.4,0.2
		c0.1,0.1,0.3,0.2,0.3,0.4c0.1,0.2,0.1,0.4,0.1,0.5c0,0.2-0.1,0.3-0.1,0.4c0.4,1,0.2,2,0.2,3c-0.1,0.3-0.3,0.2-0.4,0.2
		c0.1,0.1,0.3,0.2,0.3,0.4c0.1,0.2,0.1,0.4,0.1,0.4c0,0.2-0.2,0.4,0,0.6c0.2,0.4,0.1,0.8,0.1,1.2c0,0.5,0.1,1.1,0,1.7
		c-0.1,0.2-0.3,0.2-0.5,0.2c0.8,0.3,0.4,0.8,0.4,1.3c0.2,0.3,0.2,0.6,0.2,0.9c0,0.6,0,1.3,0,2c0,0.2,0,0.4-0.1,0.5
		c-0.1,0.1-0.3,0.1-0.4,0.1c-0.3,0-0.6,0-0.9,0.1c-0.7,0-1.3,0.1-2.1,0.1c-0.9,0-1.8,0-2.7,0.1c-0.2,0-0.4,0-0.6-0.1
		c-0.1,0-0.1-0.1-0.1-0.1c0.3-0.4,0.1-1,0.2-1.4c0-0.2-0.1-0.4-0.3-0.4c-0.2-0.2,0-0.3,0.1-0.4c0.2-0.1,0.3-0.3,0.2-0.4
		c-0.1-1,0-2,0-3c0-0.3,0-0.5-0.2-0.6c-0.3-0.2,0-0.3,0.1-0.4c0.2-0.1,0.3-0.3,0.2-0.4c-0.1-1,0-2,0-3c0-0.3,0.1-0.5-0.2-0.6
		c-0.4-0.4,0.1-0.4,0.2-0.6c-0.2,0-0.3,0-0.4-0.1c-0.1-0.1-0.2-0.1,0-0.2c0.4,0,0.5-0.3,0.5-0.6c0-0.8,0-1.6,0-2.5
		c0-0.2,0-0.4-0.3-0.5c-0.2-0.1-0.2-0.2,0-0.4c0.2-0.2,0.4-0.3,0.5-0.4c-0.2,0.1-0.4,0.2-0.6-0.1c0.4-0.2,0.4-0.6,0.4-1
		c0-0.4,0-0.9,0-1.3c0-0.3-0.1-0.4-0.2-0.5c-0.1-0.1-0.1-0.3-0.1-0.4c-0.2-0.4-0.2-0.7,0.3-0.9c0.2-0.1,0.2-0.2,0.1-0.4
		c-0.1-0.4,0-1,0-1.4c0-0.2,0-0.3,0.1-0.4c1.5,0,3.1-0.1,4.7-0.1c0.1,0,0.1,0,0.2,0C48.6,59.8,49,59.9,49.2,59.9z"/>
	<path class="st4" d="M50.1,102.3c-0.4,0-0.9,0-1.3,0c-1.9,0-3.8,0-5.8,0c-0.8,0-1.4-0.4-1.9-1.1c0.1-0.2,0.3-0.1,0.4,0
		c0.6,0.4,1.3,0.5,2.1,0.5c1.6,0,3.2-0.1,4.9-0.2c0.5,0,1,0.1,1.5-0.1c0.8,0,1.6-0.1,2.5-0.1c1.4,0.2,2.9-0.1,4.2-0.2
		c1.4-0.1,2.8-0.3,4.2-0.4c1.9-0.2,3.8-0.4,5.7-0.6c0.3,0,0.4,0,0.7-0.1c2.1-0.3,4.1-0.5,6.2-0.9c3.1-0.4,6.2-0.9,9.3-1.4
		c0.4-0.1,0.6-0.2,1-0.1c0.3,0.1,0.3,0.4,0.3,0.6c0,0.6,0,1.3,0,2c0,0.3-0.1,0.5-0.4,0.7c-0.2,0.1-0.4,0.1-0.5,0.1
		c-0.3-0.1-0.4,0-0.6,0.1c-1.4,0.2-2.8,0.2-4.2,0.3c-0.6,0-1.2,0.1-1.8,0.1c-0.3,0-0.4,0.2-0.6,0.3c-0.3,0.1-0.5,0.2-0.8,0.1
		c-1.2,0-2.2,0.1-3.4,0.1c-2.5,0.1-4.9,0.1-7.5,0.2c-1.9,0.1-3.9,0.1-5.8,0c-1.3,0-2.7,0.1-4,0.1c-0.7,0-1.4,0-2.2-0.1
		C51.6,102.3,50.9,102.4,50.1,102.3z"/>
	<path class="st5" d="M43,71.5c0.4-0.1,0.4,0.1,0.4,0.4c0,1.1,0,2.2,0,3.3c-0.4,0.4-0.7,0.2-1-0.5c-0.1,0.2-0.1,0.4-0.3,0.5
		c-0.2,0.2-0.4,0.1-0.6,0.2c0.4,0.3,0.5,0.5,0.4,1c0.4-0.4,0.7-0.4,1.1,0.1c0.1-0.3-0.3-0.4,0-0.6c0.4,0,0.4,0.1,0.4,0.4
		c0,1.2,0,2.3,0,3.4c-0.6,0.3-0.7,0.2-1-0.5c-0.1,0.5-0.4,0.7-0.8,0.7c0.1,0.2,0.4,0.3,0.4,0.4c0.1,0.2-0.1,0.4-0.1,0.6
		c0.4-0.3,0.7-0.4,1.1,0.1c0.1-0.3-0.3-0.4,0-0.7c0.4,0,0.4,0.1,0.4,0.4c0,0.4,0,0.8,0,1.2c0,0.2-0.1,0.4-0.3,0.4l-0.1,0.1
		c-0.8,0.1-1.7,0.2-2.5-0.1c0-3.1,0-6.1,0-9.2c0-2.1,0-4,0-6.1c0-1.5,0.1-3.1,0-4.5c-0.1-1.7,1.2-3,2.9-2.7c0,0.6,0,1.3,0,2
		c-0.5,0.3-0.8,0.2-1-0.5c-0.1,0.2-0.1,0.4-0.3,0.5c-0.2,0.2-0.4,0.1-0.7,0.1c0.5,0.3,0.6,0.6,0.4,1.1c0.6-0.4,0.8-0.4,1.3,0.2
		c0.3,0.1,0.4,0.3,0.4,0.5c0,0.6,0,1.2,0,1.8c0,0.4,0,0.7-0.5,0.7c-0.1,0.1-0.2,0-0.3-0.1c-0.1-0.2-0.2-0.3-0.2-0.5
		c-0.1,0.5-0.3,0.8-0.9,0.7c0.4,0.3,0.6,0.6,0.3,1.1c0.4-0.4,0.7-0.4,1.1,0c0-0.2-0.1-0.4,0-0.5c0.4-0.1,0.4,0.1,0.4,0.4
		c0,0.9,0,1.8,0,2.7c0,0.8,0.1,0.7-0.6,0.7c-0.3-0.1-0.3-0.4-0.3-0.5c-0.2,0.6-0.2,0.7-0.9,0.7c0.2,0.2,0.4,0.3,0.4,0.4
		c0.1,0.2-0.1,0.4-0.1,0.7c0.4-0.4,0.7-0.4,1.1,0c0.1-0.1,0-0.2,0-0.3C43,71.7,43,71.6,43,71.5z"/>
	<path class="st6" d="M40.7,98.6c0-1.1,0-2.2,0-3.1c0,0,0,0,0.1-0.1c0.1-0.1,0.3-0.1,0.4-0.1c1.3,0.1,2.8-0.2,4.1-0.1
		c1.1,0,2.1-0.1,3.1-0.2c0.7,0,1.4,0,2.2-0.1c0.1,0,0.3,0,0.4,0.1c-0.2,0.8-0.1,1.6-0.1,2.5c0,0.4,0.1,0.6,0.4,0.7
		c0,0.2-0.2,0.2-0.4,0.2c-0.6,0-1.3,0.1-2,0.1c-0.2,0-0.4,0-0.5,0c-0.4,0-0.8-0.1-1.3,0.1c-0.1,0-0.2,0-0.3,0
		c-1.8,0-3.7,0.2-5.5,0.1C41.1,98.8,40.9,98.8,40.7,98.6z"/>
	<path class="st7" d="M99.3,99.2c-1.3,0.3-2.6,0.6-3.9,0.8c-0.8,0.1-1.7,0.3-2.5,0.4c-0.1-0.1-0.2-0.1-0.4-0.1
		c-0.2-0.1-0.2-0.2-0.1-0.3c0.4-0.2,0.8-0.2,1.3-0.3c2.2-0.4,4.5-0.7,6.7-1.4c0.5-0.2,1.1-0.4,1.5-0.7c0.2-0.1,0.4-0.3,0.4-0.4
		c0.6-0.6,0.4-1.3-0.4-1.4c-0.8-0.2-1.6-0.2-2.5-0.2c-1.6,0.1-3.2,0.3-4.9,0.5c-3.3,0.4-6.7,1.1-10.1,1.6c-0.3,0-0.5,0.1-0.8,0
		c-2.1,0.4-4.2,0.7-6.3,1c-1.9,0.3-3.8,0.5-5.6,0.8c-1.3,0.2-2.7,0.4-4.1,0.6c-0.1,0-0.3,0-0.4,0c-0.3,0.1-0.4,0-0.4-0.2
		c0.2-0.3,0.4-0.2,0.6-0.2c0.3-0.1,0.5-0.1,0.8-0.1c4.1-0.5,8.3-1.3,12.4-2c3.6-0.6,7.1-1.3,10.7-1.8c1.3-0.2,2.6-0.4,3.9-0.5
		c0.7-0.1,1.4-0.2,2.2-0.3c0.4-0.1,0.5-0.2,0.6-0.7c0-0.6,0-1.3,0-1.9c0-0.3,0-0.4,0.2-0.7c0.5-0.1,1.2-0.2,1.7-0.2
		c0.3,0,0.5,0,0.8,0c0.2,0,0.4,0,0.4,0.2c-0.2,0.3-0.5,0.2-0.8,0.2c-0.3,0-0.4,0.1-0.4,0.4c0,0.6,0,1.3,0,2c0,0.3,0.1,0.4,0.4,0.4
		c0.3,0,0.4,0.1,0.7,0.1c0.4,0,0.5-0.1,0.5-0.4c0-0.6,0-1.3,0-1.9c0-0.2,0-0.4,0.1-0.6c0-0.1,0.1-0.1,0.1-0.1c0.4-0.1,0.6,0,0.8,0.4
		c0.1,0.8,0,1.6,0.1,2.3c0,0.4,0.1,0.7,0.4,1c0.2,0.1,0.2,0.4,0.3,0.5c0.1,0.5-0.1,1-0.5,1.3c-0.8,0.8-1.9,1.2-2.9,1.5
		C99.8,99.1,99.5,99.1,99.3,99.2z"/>
	<path class="st8" d="M40.7,98.6c2.2,0,4.3-0.1,6.5-0.1c0.4-0.1,0.8,0,1.3-0.1c0.2,0,0.4,0,0.5,0c0.2,0.2,0.1,0.4,0.1,0.5
		c0,0.6,0,1.3,0,1.9c0,0.4,0.1,0.5,0.5,0.5c0.2,0,0.4,0,0.4,0.2c-0.1,0.1-0.2,0.1-0.3,0.1c-1.1,0-2.2,0-3.3,0.1
		c-1.1,0.1-2.2,0.1-3.2,0.1c-0.7,0-1.3-0.2-1.8-0.6c-0.1,0-0.1-0.1-0.2,0c-0.4-0.5-0.5-1.1-0.5-1.7C40.7,99.1,40.7,98.9,40.7,98.6z"
		/>
	<path class="st9" d="M40.6,91.6c0.2-0.4,0.1-0.7,0.1-1.1c0-0.5,0-1,0-1.5c0.2-0.2,0.4-0.2,0.5-0.2c0.4,0,0.6,0,1,0
		c1.5,0.1,3.1-0.1,4.6-0.1c0.4,0.1,0.6,0,0.9-0.1c0.3,0,0.5-0.1,0.8,0.1c-0.4,0.7-0.2,1.5-0.2,2.2c0,0.4,0,0.8,0.5,0.9
		c-0.1,0.3-0.4,0.2-0.5,0.2c-0.8,0-1.6,0-2.4,0.1c-0.8,0-1.7,0-2.5,0c-0.7,0-1.4,0.1-2.2,0.1c-0.3,0-0.4,0.2-0.4,0.4
		c0,0.7,0,1.3,0,2.1c0,0.2,0,0.4-0.1,0.5c-0.1-0.2-0.1-0.3-0.1-0.4c0-1-0.1-2.1,0.1-3.1C40.7,91.8,40.7,91.7,40.6,91.6z"/>
	<path class="st10" d="M95.7,53.6c0.4-0.1,0.6-0.1,1-0.2c0.8,0,1.5-0.2,2.3-0.2c0.1,0.1,0.1,0.2,0.1,0.4c0,0.8,0,1.7,0,2.5
		c0,0.1,0,0.2-0.1,0.3c-0.3,0.3-0.5,0.3-0.9,0.3c-0.5,0-1,0.1-1.5,0.2c-0.4,0-0.7,0.3-1,0c-0.1-0.3-0.1-0.4-0.1-0.7
		c0-0.6,0-1.3,0-1.9C95.6,53.9,95.6,53.7,95.7,53.6z"/>
	<path class="st11" d="M99,56.4c0-1.1,0-2.2,0-3.1c1.1-0.1,2.2-0.1,3.2,0.2c0.1,0.1,0.1,0.2,0.1,0.4c0,0.8,0,1.7,0,2.5
		c0,0.1,0,0.2-0.1,0.3c-0.1,0.1-0.3,0.1-0.4,0.1c-0.9-0.2-1.7-0.1-2.6-0.1C99.2,56.5,99.1,56.5,99,56.4z"/>
	<path class="st12" d="M102.9,73.1c0.3,0.3,0.4,0.5,0.4,0.9c0.1,0.9,0,1.8,0,2.7c0,0.1,0,0.2-0.1,0.1c-0.1-0.1-0.2-0.3-0.3-0.4
		c-0.3-0.1-0.5-0.3-0.8-0.3c-0.2-0.1-0.4-0.1-0.4-0.3c0-0.8,0-1.6,0-2.4c0-0.2,0-0.4,0.1-0.5C102.3,72.5,102.6,72.6,102.9,73.1z"/>
	<path class="st10" d="M103.3,70.3c-0.1-0.1-0.1-0.2-0.2-0.3c-0.4-0.2-0.7-0.4-1.1-0.5c-0.1-0.1-0.1-0.1-0.1-0.2c0-0.8,0-1.6,0-2.5
		c0-0.2,0-0.3,0.1-0.4c0-0.1,0.1-0.1,0.1-0.1c0.4-0.1,0.7,0.1,0.9,0.4c0.2,0.3,0.4,0.5,0.4,0.8c0.1,0.9,0,1.7,0,2.6
		C103.4,70.2,103.4,70.3,103.3,70.3z"/>
	<path class="st13" d="M103.3,83.1c-0.1-0.1-0.1-0.2-0.2-0.3c-0.4-0.3-0.7-0.3-1-0.5c0-0.1,0-0.1,0-0.2c0-0.8,0-1.6,0-2.4
		c0-0.2,0-0.4,0.1-0.4c0.4-0.3,0.5,0,0.7,0.2c0.3,0.3,0.4,0.5,0.5,0.9c0.1,0.9,0,1.8,0,2.7C103.4,83.1,103.4,83.1,103.3,83.1z"/>
	<path class="st14" d="M102.2,56.6c0-1.1,0-2.2,0-3.1c0.5,0.1,1,0.4,1.2,0.9c0.1,1,0,1.9,0,2.9c0,0.1,0,0.2-0.1,0.2
		c-0.1-0.1-0.1-0.2-0.2-0.3c-0.3-0.1-0.5-0.3-0.7-0.4C102.3,56.7,102.3,56.6,102.2,56.6z"/>
	<path class="st15" d="M103.3,63.8c0-0.1-0.1-0.1-0.1-0.2c-0.4-0.3-0.7-0.4-1.1-0.6c0-0.1,0-0.1,0-0.2c0-0.8,0-1.5,0-2.3
		c0-0.2,0-0.4,0.1-0.6c0.4-0.3,0.5,0,0.7,0.2c0.3,0.3,0.4,0.5,0.4,0.8c0.1,0.9,0,1.8,0,2.7C103.4,63.8,103.4,63.9,103.3,63.8z"/>
	<path class="st16" d="M102.9,85.9c0.4,0.3,0.4,0.6,0.4,1.1c0,0.8,0,1.7,0,2.6c-0.2-0.3-0.3-0.4-0.5-0.5c-0.3,0-0.5-0.1-0.7-0.4
		c-0.1-0.9,0-1.7,0-2.6c0-0.1,0-0.3,0.1-0.4C102.5,85.5,102.7,85.7,102.9,85.9z"/>
	<path class="st17" d="M102.2,88.8c0.2,0.2,0.4,0.1,0.6,0.3c-0.1,0.3-0.1,0.5-0.1,0.8c0,0.8,0,1.5,0,2.3c-0.1,0.1-0.1,0.1-0.2,0
		c-0.2-0.1-0.4-0.2-0.7-0.3c-0.2-0.1-0.2-0.3-0.2-0.4c0-0.8,0-1.6,0-2.4c0-0.2,0.1-0.4,0.3-0.4C102,88.6,102.1,88.7,102.2,88.8z"/>
	<path class="st18" d="M102.9,60.1c-0.3-0.1-0.4-0.3-0.7-0.3c-0.1,0-0.2-0.1-0.3-0.2c-0.1-0.9-0.1-1.8,0-2.7c0-0.2,0.1-0.4,0.4-0.4
		c0.3,0.1,0.6,0.2,0.7,0.4c-0.2,0.3-0.1,0.6-0.1,0.9C103,58.7,103.1,59.4,102.9,60.1z"/>
	<path class="st19" d="M102.1,69.5c0.4,0.1,0.8,0.2,1,0.5c-0.2,0.2-0.2,0.4-0.2,0.5c0,0.8,0,1.6,0,2.5c-0.3-0.2-0.6-0.4-1-0.4
		c0,0,0,0-0.1-0.1c0-1,0-1.9,0-2.9C101.9,69.7,102,69.6,102.1,69.5z"/>
	<path class="st20" d="M102.9,85.9c-0.2-0.1-0.4-0.3-0.6-0.3c-0.2,0-0.3,0-0.4-0.1c-0.1-1,0-2,0-3c0-0.1,0-0.3,0.2-0.3
		c0.4,0.1,0.7,0.2,0.9,0.5c-0.2,0.2-0.2,0.4-0.2,0.5C102.9,84.2,102.9,85.1,102.9,85.9z"/>
	<path class="st21" d="M102.2,63.1c0.4,0.1,0.8,0.2,1,0.6c-0.2,0.2-0.2,0.4-0.2,0.5c0,0.8,0,1.6,0,2.4c-0.3-0.2-0.5-0.3-0.8-0.4
		c-0.2-0.1-0.2-0.2-0.2-0.4c0-0.8,0-1.6,0-2.4C102,63.4,102,63.2,102.2,63.1z"/>
	<path class="st22" d="M102.8,79.5c-0.2-0.1-0.4-0.2-0.6-0.3c-0.2,0.1-0.2,0-0.3-0.2c-0.1-0.9,0-1.8,0-2.8c0-0.2,0-0.4,0.3-0.4
		c0.3,0.1,0.5,0.1,0.7,0.4c-0.2,0.8,0,1.6-0.1,2.3C102.9,78.9,102.9,79.2,102.8,79.5z"/>
	<path class="st23" d="M102.5,92.2c0.1,0,0.1,0,0.2,0c0.4,0.3,0.6,0.7,0.6,1.3c0,0.9,0,1.8,0,2.7c-0.1-0.2-0.2-0.4-0.4-0.5
		c-0.4-0.2-0.4-0.5-0.4-0.9C102.6,93.8,102.5,93,102.5,92.2z"/>
	<path class="st18" d="M103.3,57.3c0.2-0.1,0.1-0.3,0.1-0.4c0-0.9,0-1.8,0-2.6c0.2,0.2,0.1,0.4,0.1,0.5c0,0.8,0,1.6,0,2.4
		c0,0.1,0.1,0.2-0.1,0.2C103.3,57.5,103.3,57.4,103.3,57.3z"/>
	<path class="st20" d="M103.3,83.1c0.2-0.2,0.1-0.4,0.1-0.4c0-0.8,0-1.5,0-2.3c0.2,0.2,0.1,0.4,0.1,0.6c0,0.7,0,1.4,0,2.2
		c0,0.1,0.1,0.2-0.1,0.2C103.3,83.3,103.3,83.2,103.3,83.1z"/>
	<path class="st21" d="M103.3,63.8c0.2-0.1,0.1-0.3,0.1-0.4c0-0.8,0-1.6,0-2.4c0.2,0.3,0.1,0.5,0.1,0.8c0,0.7,0,1.4,0,2.2
		C103.3,64,103.3,63.9,103.3,63.8z"/>
	<path class="st19" d="M103.3,70.3c0.2-0.1,0.1-0.3,0.1-0.4c0-0.8,0-1.6,0-2.3c0.2,0.4,0.1,0.6,0.1,1c0,0.6,0,1.2,0,1.8
		c0,0.1,0.1,0.2-0.1,0.2C103.3,70.5,103.3,70.3,103.3,70.3z"/>
	<path class="st22" d="M103.3,76.7c0.2-0.4,0.1-0.7,0.1-1.1c0-0.6,0-1.2,0-1.8c0.2,0.3,0.1,0.6,0.1,0.9c0,0.6,0,1.3,0,1.9
		C103.4,76.7,103.4,76.8,103.3,76.7C103.4,76.8,103.3,76.8,103.3,76.7z"/>
	<path class="st24" d="M52.4,102.2L52.4,102.2c-0.6,0.1-1.3,0.1-2,0.1c-0.1,0-0.3,0-0.4-0.1C50.9,102.2,51.6,102.2,52.4,102.2z"/>
	<path class="st25" d="M46.8,88.8c-2.1,0.1-4,0.1-6.1,0.1c0-1.1,0-2.2,0-3.2c0.2-0.2,0.4-0.2,0.6-0.2c1.2,0,2.3,0,3.6,0
		c0.6,0,1.2-0.2,1.8-0.1c0.3,0,0.5-0.1,0.7,0.1c0.1,0.2,0.1,0.4,0.1,0.5c0,0.7,0,1.3,0,2.1c0,0.5,0,0.5-0.5,0.6
		C46.9,88.8,46.9,88.8,46.8,88.8z"/>
	<path class="st26" d="M46.7,85.7c-2,0.1-4,0.1-6,0.1c0-1.1,0-2.2,0-3.2c0.9,0,1.7,0,2.6,0c1.2,0,2.3,0,3.4-0.1
		c0.1,0.1,0.1,0.3,0.1,0.4c0,0.8,0,1.5,0,2.3C46.9,85.4,46.8,85.5,46.7,85.7z"/>
	<path class="st27" d="M59.9,59c0.5-0.2,1.2-0.2,1.7-0.3c1.3-0.2,2.8-0.4,4.1-0.5c1.6-0.2,3.1-0.4,4.8-0.6c0.2,0,0.3,0,0.4-0.1
		c0.1,0.2,0.1,0.4,0.1,0.5c0,0.9,0,1.8,0,2.7c0,1.1,0,2.2,0,3.2c0,1.1,0,2.2,0,3.2c0,1.1,0,2.2,0,3.2c0,1.1,0,2.2,0,3.2
		c-0.1,1.1,0,2.2,0,3.2c0,1.1,0,2.2,0,3.1c-0.1,0.2-0.3,0.2-0.4,0.2c-2,0.3-4,0.5-6,0.8h-0.1c-1.3,0.2-2.7,0.4-4,0.4
		c-0.2,0-0.4,0.1-0.4-0.1c-0.2-0.3-0.2-0.5-0.2-0.8c0-2.3,0-4.6,0-6.9c0-1.7,0-3.4,0-5.1c0-0.3,0-0.5,0.1-0.8c0.2-0.2,0.4-0.1,0.4,0
		c0.2,0.1,0.4,0.3,0.3,0.5c0,0.1-0.1,0.3-0.1,0.4c0.4-0.4,0.6-0.4,1.1-0.1c-0.2-0.4-0.1-0.8,0.4-1.1c-0.6,0.1-0.6,0.1-0.8-0.5
		c-0.1,0.8-0.7,0.8-1.3,0.7c-0.1-0.2-0.1-0.4-0.1-0.6c0-1.1,0-2.1,0-3.1c0-0.2,0-0.4,0.1-0.6c0.1-0.3,0.3-0.1,0.4,0
		c0.2,0.1,0.4,0.3,0.4,0.5c0,0.1-0.1,0.3-0.1,0.4c0.4-0.4,0.7-0.5,1.1-0.1c-0.3-0.5-0.1-0.9,0.4-1.2c-0.7,0.1-0.7,0.1-1-0.4
		c-0.2,0.2-0.1,0.5-0.4,0.6c-0.3,0-0.5,0.2-0.8-0.1c-0.1-0.2-0.1-0.3-0.1-0.4c0-1.2,0-2.2,0-3.4C59.9,59.1,59.9,59,59.9,59z"/>
	<path class="st28" d="M60.1,67.8c-0.2,1.3-0.1,2.7-0.1,4c0,1.5,0.1,3.1,0,4.7c0,1.5,0,3.1,0,4.6c0,0.2,0.1,0.3,0.1,0.4
		c-0.3,0.3-0.5,0.2-0.8,0.3c-1.9,0.2-3.8,0.4-5.7,0.5c-0.9,0.1-1.7,0.1-2.6,0.2c-0.4,0-0.7,0.1-1.1-0.1c0-0.9,0-1.7,0-2.6
		c0-0.3-0.1-0.6-0.2-0.9c0.1,0,0.1-0.1,0.2-0.2c0.4-0.4,0.5-0.4,1.2-0.1c-0.3-0.5-0.2-0.8,0.3-1.1c-0.4,0.1-0.8-0.1-0.9-0.7
		c-0.1,0.2-0.1,0.4-0.2,0.5c-0.1,0.2-0.2,0.3-0.4,0.2c0-0.7,0-1.5,0-2.2c0-0.3,0-0.5-0.1-0.7c0.3-0.5,0.5-0.6,1.2-0.4
		c-0.2-0.5-0.2-0.5,0.4-1.1c-0.4,0.1-0.8-0.1-0.9-0.6c-0.1,0.2-0.1,0.4-0.2,0.4c-0.1,0.2-0.2,0.3-0.4,0.2c0-0.5,0-1.1,0-1.6
		c0-0.5,0-1-0.2-1.5c0.1,0,0.2-0.2,0.2-0.2c0.4-0.4,0.5-0.4,1.1,0c-0.2-0.6-0.2-0.6,0.4-1.1c-0.3,0-0.4,0.1-0.6,0
		c-0.2-0.2-0.2-0.4-0.3-0.5c-0.3,0.6-0.3,0.6-0.5,0.5c0-0.5,0-1.1,0-1.6c0-0.5,0-1-0.2-1.5c0.1,0,0.1-0.1,0.2-0.2
		c0.5-0.4,0.6-0.4,1.2-0.1c-0.2-0.7-0.2-0.7,0.4-1.1c-0.3,0-0.4,0.1-0.6,0c-0.2-0.2-0.2-0.4-0.3-0.5c-0.2,0.2,0,0.7-0.5,0.5
		c0-1.3,0-2.8,0-4.1c0.5-0.2,1.2-0.1,1.7-0.2c1.4-0.2,2.9-0.2,4.3-0.3c1-0.1,2-0.2,3-0.3c0.3-0.1,0.4,0.2,0.7-0.1c0.1,0,0.2,0,0.3,0
		c0.2,0.1,0.1,0.3,0.1,0.4c0,1,0,2.1,0,3.1c0,0.2,0,0.4,0.1,0.6v0.1c-0.2,1.4-0.1,2.9-0.1,4.4C60,67.7,60.1,67.8,60.1,67.8z"/>
	<path class="st29" d="M71.1,60.8c-0.1-1.1,0-2.2,0-3.2c3.1-0.5,6.1-1,9.2-1.5c3.1-0.5,6.2-1.1,9.4-1.6c1.9-0.4,3.9-0.6,5.8-0.9
		c0.1,0,0.3,0,0.4,0c0,1.1,0,2.2,0,3.1c-0.2,0.3-0.4,0.2-0.6,0.3c-0.4,0.1-0.6,0.1-1,0.2c-2.5,0.4-5.1,0.8-7.6,1.3
		c-4.2,0.7-8.5,1.5-12.9,2.2c-0.7,0.1-1.4,0.2-2.2,0.4C71.4,60.9,71.2,60.9,71.1,60.8z"/>
	<path class="st27" d="M59.7,59c-0.2,0.5-0.4,0.1-0.7,0.1C59.2,59,59.5,59,59.7,59z"/>
	<path class="st28" d="M49.2,59.9c-0.3,0.2-0.5,0-0.9,0.1C48.6,59.8,49,59.9,49.2,59.9z"/>
	<path class="st30" d="M50,82.2c1.2-0.1,2.4-0.1,3.6-0.2c0.2,0.2,0.1,0.4,0.1,0.5c0,0.6,0,1.3,0,1.9c0,0.3,0.1,0.5,0.4,0.7
		c-0.1,0.3-0.3,0.2-0.4,0.2c-2,0.2-3.9,0.3-5.8,0.3c-0.1,0-0.3,0-0.4-0.1c-0.3,0-0.4,0-0.7,0c0-1.1,0-2.2,0-3.1
		c0.7,0,1.3-0.1,2.1-0.1c0.3-0.1,0.6,0,0.9-0.1C49.8,82.2,49.9,82.2,50,82.2z"/>
	<path class="st31" d="M50,77.4c0.2,0.1,0.3-0.1,0.4-0.3c0.1-0.2,0.1-0.4,0.3-0.6c0.1,0.7,0.4,1,1.2,0.8c-0.6,0.4-0.8,0.8-0.4,1.3
		c0,0.1,0,0.1-0.1,0.1c-0.4-0.5-1-0.3-1.4,0.1c0-0.1,0-0.1,0-0.2c0.2-0.4,0.1-0.8-0.4-1.1c0,0,0-0.1-0.1-0.1
		C49.6,77.5,49.8,77.5,50,77.4z"/>
	<path class="st31" d="M50,72.9c0.2,0.1,0.3,0,0.4-0.2c0.1-0.2,0.1-0.4,0.3-0.6c0.1,0.7,0.4,1,1.2,0.8c-0.6,0.4-0.8,0.8-0.4,1.4
		c-0.4-0.1-0.5-0.4-0.8-0.4s-0.4,0.3-0.6,0.4c-0.2-0.2,0.1-0.3,0-0.4c0.1-0.2,0-0.4-0.1-0.5c-0.1-0.2-0.4-0.2-0.4-0.4
		C49.6,73,49.8,73,50,72.9z"/>
	<path class="st31" d="M50,68.4c0.2,0.1,0.3,0,0.4-0.2c0.1-0.2,0.1-0.4,0.3-0.6c0.1,0.7,0.4,1,1.2,0.8c-0.6,0.4-0.9,0.8-0.4,1.4
		c-0.1,0-0.1,0-0.1,0c-0.6-0.4-0.6-0.4-1.2,0c-0.1,0-0.1,0.1-0.2,0c0-0.2,0.1-0.3,0.1-0.4c0.1-0.2,0-0.4-0.1-0.5
		c-0.1-0.2-0.4-0.2-0.4-0.4C49.6,68.5,49.8,68.5,50,68.4z"/>
	<path class="st31" d="M50,63.9c0.2,0.1,0.3-0.1,0.4-0.2c0.1-0.2,0.1-0.4,0.3-0.6c0.1,0.7,0.4,1,1.2,0.8c-0.6,0.4-0.9,0.8-0.4,1.4
		c-0.1,0-0.1,0-0.2,0c-0.6-0.4-0.6-0.4-1.2,0c-0.1,0-0.1,0.1-0.2,0c0.2-0.5,0.4-1-0.4-1.2C49.6,64,49.8,64,50,63.9z"/>
	<path class="st32" d="M44.5,70.1c0.4-0.6,0.3-1.1-0.4-1.4c0.8,0.2,1.1-0.2,1.2-0.9c0.2,0.6,0.4,1.1,1.2,0.8
		c-0.6,0.4-0.9,0.8-0.4,1.4C45.5,69.5,44.9,69.6,44.5,70.1z"/>
	<path class="st33" d="M46.4,64.2c-0.6,0.6-0.6,0.6-0.4,1.4c-0.5-0.5-1-0.6-1.5,0c0.4-0.6,0.3-1.1-0.4-1.4c0.7,0.1,1.2-0.2,1.2-0.9
		c0.1,0.3,0.1,0.5,0.3,0.7C45.7,64.3,46.1,64.1,46.4,64.2z"/>
	<path class="st34" d="M43.1,80.4c-0.1,0.4,0.3,0.6,0.2,0.9c-0.3-0.2-0.4-0.4-0.7-0.5c-0.3,0-0.4,0.4-0.8,0.4
		c0.4-0.6,0.4-1.1-0.4-1.3c0.7,0.1,1.1-0.2,1.2-0.9c0.2,0,0.2,0.1,0.2,0.2c0.3,0.6,0.2,0.6,0.9,0.5c0.1,0.1,0.3,0,0.1,0.2
		C43.4,80.2,43.2,80.4,43.1,80.4z"/>
	<path class="st35" d="M48.6,63.3c-0.5-0.4-1-0.5-1.4,0.1c0.3-0.6,0.3-1.1-0.4-1.3c0.8,0.1,1.1-0.3,1.2-1c0.4,0.9,0.4,0.9,1.3,0.9
		C48.4,62.1,48.2,62.6,48.6,63.3z"/>
	<path class="st36" d="M45.9,74.5c-0.5-0.5-1-0.4-1.4,0.1c0.3-0.6,0.3-1.1-0.4-1.4c0.8,0.2,1.1-0.3,1.2-1c0.2,0.4,0.2,0.7,0.4,0.9
		s0.5,0,0.8,0.1c-0.2,0.3-0.5,0.4-0.6,0.5C45.7,74,45.8,74.2,45.9,74.5z"/>
	<path class="st37" d="M43.1,75.9c-0.1,0.4,0.3,0.6,0.2,0.9c-0.3-0.2-0.4-0.4-0.7-0.4c-0.3,0-0.4,0.4-0.8,0.4
		c0.4-0.6,0.3-1.1-0.4-1.3c0.7,0.2,1.1-0.2,1.1-0.9c0.3,0.3,0.2,0.7,0.4,0.9c0.2,0.1,0.4,0.1,0.6,0c0.1,0.1,0.3,0,0.1,0.2
		C43.4,75.7,43.3,75.9,43.1,75.9z"/>
	<path class="st38" d="M43.2,63.4c-0.3-0.1-0.4-0.4-0.7-0.4c-0.3,0.1-0.4,0.3-0.7,0.4c0.1-0.4,0.3-0.6,0.2-0.9
		c-0.1-0.2-0.4-0.4-0.6-0.5c0.4-0.1,0.6,0.1,0.8-0.1c0.2-0.2,0.2-0.4,0.4-0.8c0.2,0.5,0.3,1.1,1,0.8c0.1,0,0.2,0,0.2,0.1
		c0,0.1-0.1,0.1-0.2,0.2c-0.4,0.2-0.5,0.5-0.3,1C43.2,63.2,43.3,63.3,43.2,63.4z"/>
	<path class="st35" d="M47.2,67.8c0.4-0.5,0.3-1.1-0.4-1.3c0.7,0,1.2-0.1,1.1-1c0.2,0.6,0.4,1.2,1.3,0.9c-0.6,0.4-0.9,0.8-0.4,1.3
		c-0.1,0.2-0.2,0.1-0.2,0C48.1,67.2,47.6,67.3,47.2,67.8L47.2,67.8z"/>
	<path class="st39" d="M46.7,79.8c0.8,0.2,1.1-0.3,1.2-1c0.2,0.4,0.2,0.7,0.4,0.9c0.2,0.2,0.5,0.1,0.8,0.1c-0.7,0.4-0.7,0.8-0.4,1.5
		c-0.5-0.6-1-0.6-1.5,0C47.4,80.6,47.4,80.2,46.7,79.8z"/>
	<path class="st39" d="M49,75.3c-0.6,0.3-0.7,0.7-0.4,1.3c0,0.1-0.1,0.1-0.1,0.1c-0.4-0.4-0.9-0.4-1.3,0.1c0.1-0.3,0.3-0.5,0.2-0.8
		c-0.1-0.2-0.4-0.4-0.7-0.6c0.8,0.2,1.2-0.2,1.3-1C48.2,75.2,48.2,75.2,49,75.3z"/>
	<path class="st37" d="M43,71.5c0.1,0.3,0.1,0.5,0.2,0.8c-0.7-0.5-0.7-0.5-1.5,0c0.4-0.6,0.4-1.2-0.4-1.4c0.7,0.1,1.2-0.2,1.3-0.9
		c0.1,0.3,0.2,0.5,0.3,0.7c0.3,0.2,0.5,0,0.8,0.1C43.6,71.3,43.1,71.3,43,71.5z"/>
	<path class="st35" d="M49.1,70.8c-0.6,0.4-0.7,0.8-0.4,1.3c-0.5-0.4-1-0.5-1.4,0.1c0.3-0.6,0.4-1.1-0.4-1.3c0.7,0,1.2-0.2,1.2-1
		C48,70.6,48.2,71,49.1,70.8z"/>
	<path class="st36" d="M44.1,77.7c0.8,0.1,1.1-0.3,1.2-0.9c0.2,0.6,0.4,1.2,1.2,0.8c-0.6,0.4-0.8,0.8-0.4,1.4
		c-0.5-0.5-1-0.4-1.4,0.1C44.7,78.5,44.8,78,44.1,77.7z"/>
	<path class="st40" d="M43,67c0.1,0.3,0.1,0.4,0.2,0.9c-0.5-0.6-1-0.6-1.4,0c0.3-0.6,0.3-1.2-0.4-1.4c0.7,0.1,1.2-0.1,1.2-1
		c0.2,0.3,0.2,0.4,0.3,0.7c0,0.1,0,0.3,0.3,0.2c0.2,0,0.4,0,0.6,0C43.6,66.8,43.1,66.8,43,67z"/>
	<path class="st28" d="M49.9,73.4c0.4,0.1,0.2,0.4,0.1,0.5C49.9,73.7,49.8,73.6,49.9,73.4z"/>
	<path class="st28" d="M49.9,68.9c0.4,0.1,0.2,0.4,0.1,0.5C49.9,69.2,49.8,69.1,49.9,68.9z"/>
	<path class="st28" d="M49.7,82.3c-0.3,0.1-0.6,0.1-0.9,0.1C49.1,82.2,49.4,82.3,49.7,82.3z"/>
	<path class="st41" d="M83.8,97.8c0.7-0.3,1.5-0.3,2.3-0.4c1.6-0.3,3.3-0.5,5-0.8c1.3-0.2,2.6-0.4,3.9-0.5c1.2-0.2,2.2-0.4,3.4-0.4
		c1.2-0.1,2.3-0.2,3.5,0.1c0.7,0.2,1.1,0.5,1,1.1c-0.1,0.4-0.4,0.6-0.7,0.9c-0.8,0.6-1.8,0.9-2.8,1.2c-2.1,0.5-4.2,1-6.4,1.3
		c-0.2,0-0.4,0.1-0.5,0.1c-0.2,0.1-0.4,0.2-0.5,0.2c-1.7,0.2-3.5,0.4-5.2,0.5c-0.8,0.1-1.6,0.2-2.3,0.2c-0.2,0-0.4,0.1-0.6-0.1
		c0.5-0.8,0.2-1.6,0.3-2.4C84,98.2,84,98,83.8,97.8z"/>
	<path class="st42" d="M50,101.6c-1.2,0-1.2,0-1.2-1.2c0-0.6,0-1.3,0-2c0.8-0.1,1.5-0.1,2.3-0.2c0.4-0.3,0.9-0.2,1.3-0.2
		c1.3-0.1,2.4-0.2,3.7-0.3c0.2,0,0.4,0,0.5,0c0.3,0.1,0.3,0.3,0.3,0.5c0,0.4,0,0.7,0,1.1c0,0.5,0.1,1.1,0.2,1.6
		c-0.1,0.2-0.3,0.2-0.4,0.2c-1.1,0.1-2.1,0.2-3.1,0.3c-0.4,0-0.7-0.1-1.1,0C51.7,101.5,50.9,101.7,50,101.6z"/>
	<path class="st43" d="M83.8,100.9c0.9-0.1,1.8-0.2,2.7-0.3c0.7-0.1,1.3-0.1,2.1-0.2c1.3-0.1,2.4-0.3,3.7-0.4c0.1,0,0.2,0,0.3,0
		c0,0.3,0.4,0.1,0.4,0.4h-0.1c-1.3,0.2-2.6,0.3-4,0.4c-1,0.1-2.1,0.2-3.1,0.3c-0.4,0.3-1,0.2-1.5,0.2c-1.6,0.2-3.2,0.3-4.9,0.4
		c-0.6,0-1.3,0-2,0.1c-0.2,0-0.4,0-0.5-0.1c-0.3,0-0.5,0-0.9,0c0.1-0.2,0.3-0.4,0.5-0.4c1.8,0,3.6-0.2,5.4-0.3c0.3,0,0.4,0,0.7,0
		c0.2-0.1,0.4-0.1,0.5-0.1S83.6,100.9,83.8,100.9z"/>
	<path class="st44" d="M52.5,101.5c0.2-0.2,0.4-0.1,0.4-0.1c1.4-0.1,2.8-0.2,4.1-0.4c0.1-0.1,0.1-0.1,0.2-0.1c0.2,0,0.4,0,0.6-0.1
		c2.8-0.3,5.7-0.6,8.5-0.9c0.2,0,0.4-0.1,0.4,0.1c0.1,0.1,0.3,0.2,0.4,0.2c-0.5,0.2-1.1,0.2-1.7,0.3c-1.3,0.2-2.4,0.3-3.7,0.4
		c-1,0.1-2.1,0.2-3.1,0.3c-1.2,0.1-2.3,0.3-3.5,0.4C54.5,101.5,53.5,101.7,52.5,101.5z"/>
	<path class="st41" d="M83.2,100.9c-0.2,0.2-0.4,0.1-0.5,0.1C82.9,100.8,83,100.9,83.2,100.9z"/>
	<path class="st45" d="M56.8,97.9c-1.4,0.1-2.9,0.2-4.3,0.3c-0.4,0-0.8,0-1.2,0.1c-0.4,0.1-0.5-0.2-0.5-0.6c0-0.7,0-1.4,0-2.2
		c0-0.2,0.1-0.4,0.3-0.4c0.4-0.3,0.8-0.1,1.3-0.3c0.1,0,0.3,0,0.4,0c1.5-0.1,3.1-0.3,4.7-0.4c1-0.1,2-0.2,3-0.3
		c0.3,0,0.5-0.1,0.9-0.1c0.2,0,0.4,0,0.4,0.1c0.1,0.1,0.1,0.3,0.1,0.4c0,0.8,0,1.6,0,2.3c0,0.1,0,0.3-0.1,0.4
		c-0.2,0.2-0.4,0.2-0.5,0.3c-1.3,0.2-2.4,0.3-3.7,0.4C57.2,98,57,97.9,56.8,97.9z"/>
	<path class="st46" d="M52.6,95c-0.5,0-1.1,0.1-1.6,0.1c-1.7,0.1-3.3,0.2-5,0.2c-0.3,0-0.4,0-0.7,0v-0.1c0.6-0.1,0.5-0.5,0.5-1
		c0-0.5,0-1.1,0-1.6c0-0.2,0-0.4,0.1-0.5c0.9-0.1,1.8-0.1,2.7-0.1c0.1,0,0.2,0,0.3,0c0.1-0.1,0.2-0.2,0.4-0.2c0.9,0,1.7-0.1,2.6-0.1
		c0.8,0,0.9,0.2,0.9,1c0,0.5,0,1.2,0,1.7C52.7,94.6,52.7,94.8,52.6,95z"/>
	<path class="st47" d="M45.9,92.1c0,0.9,0,1.7,0,2.6c0,0.4-0.1,0.6-0.5,0.5c-0.1,0-0.1,0-0.2,0.1c-1.5,0-3.1,0.1-4.6,0.1
		c0-1,0-2,0-3c0-0.2,0-0.3,0.3-0.3C42.6,92.2,44.3,92.1,45.9,92.1z"/>
	<path class="st42" d="M48.3,98.4c-0.4,0.2-0.8,0.1-1.3,0.1C47.5,98.4,48,98.4,48.3,98.4z"/>
	<path class="st29" d="M95.4,95.5c-1.5,0.3-3.1,0.4-4.7,0.7c-1.5,0.3-3.1,0.5-4.6,0.7c-1.3,0.3-2.7,0.4-4,0.7
		c-1.7,0.3-3.4,0.5-5,0.8c-1.2,0.2-2.2,0.4-3.4,0.5c-1.3,0.2-2.6,0.4-3.9,0.5c-0.4,0.1-0.9,0.1-1.3,0.2c-0.2-0.2-0.2-0.4-0.2-0.7
		c0-0.5,0-1.1,0-1.6c0-0.4-0.1-0.5-0.4-0.7c0-0.3,0.3-0.3,0.4-0.3c1.6-0.2,3.1-0.4,4.8-0.6c0.1,0,0.2,0,0.3-0.1
		c3.9-0.5,7.6-1.3,11.4-1.9c2.7-0.4,5.4-1,8-1.3c0.8-0.1,1.7-0.3,2.6-0.4c0.1,0,0.2,0,0.2,0.1c0.1,0.3,0.1,0.5,0.1,0.7
		c0,0.5,0,1.2,0,1.7C95.5,95,95.5,95.3,95.4,95.5z"/>
	<path class="st48" d="M67.8,96.7c0.4-0.1,0.5,0.1,0.5,0.5c0,0.8-0.1,1.6,0.1,2.5c-0.4,0.2-0.9,0.1-1.3,0.3
		c-1.1,0.1-2.2,0.3-3.2,0.4c-0.8,0.1-1.6,0.2-2.4,0.3c-1.1,0.1-2.2,0.2-3.3,0.3c-0.2,0.1-0.4-0.3-0.6,0.1c-0.1,0-0.1,0-0.2,0
		c-0.4-0.6-0.2-1.3-0.3-2c0-0.3,0-0.5,0-0.8c0-0.2,0-0.3-0.2-0.4c1.1-0.1,2.2-0.3,3.2-0.4c0.5-0.1,1.1-0.1,1.6-0.2
		c0.4-0.3,0.9-0.2,1.3-0.3c1.4-0.2,2.8-0.4,4.2-0.4C67.4,96.6,67.6,96.5,67.8,96.7z"/>
	<path class="st49" d="M95.4,95.5c0.2-1.1,0-2.2,0.1-3.1c0.1-0.2,0.3-0.2,0.4-0.2c0.7-0.1,1.5-0.3,2.2-0.3c0.1,0,0.2,0,0.2,0.1
		c-0.2,0.4-0.1,1-0.1,1.5c0,0.4,0,0.8,0,1.2s-0.2,0.5-0.4,0.6C96.9,95.3,96.1,95.4,95.4,95.5z"/>
	<path class="st50" d="M98.2,91.9c-0.1,0-0.1,0-0.2,0C98,91.8,98,91.7,98,91.5c0-0.8,0-1.7,0-2.5c0-0.1,0-0.2,0.1-0.3
		c0.2-0.2,0.4-0.2,0.7-0.3c0.4,0,0.9-0.1,1.3,0.1c0.1,0.2,0.1,0.3,0.1,0.4c0,0.7,0,1.5,0,2.2c0,0.2,0,0.4-0.2,0.4
		C99.4,91.9,98.9,91.9,98.2,91.9z"/>
	<path class="st51" d="M101.8,92c0,0.9,0,1.8,0,2.7c0,0.4-0.1,0.4-0.4,0.4c-0.4,0-0.7-0.1-1.1-0.1c-0.3,0-0.4-0.2-0.4-0.4
		c0-0.8,0-1.6,0-2.4c0-0.3,0.1-0.3,0.4-0.3c0.4,0,0.6,0,1,0C101.5,91.7,101.7,91.7,101.8,92z"/>
	<path class="st52" d="M101.8,92c-0.2-0.1-0.4-0.1-0.6-0.1c-0.4-0.1-0.8,0-1.3-0.1c0-1.1,0-2.2,0-3.1c0.5-0.3,1.7-0.2,2,0.2
		c-0.1,0.1-0.2,0.2-0.2,0.3c0,0.9,0,1.8,0,2.7C101.8,91.8,101.8,91.9,101.8,92z"/>
	<path class="st53" d="M51.8,91.9c-1,0-2,0.1-2.9,0.1c-0.7,0-0.7,0-0.7-0.7c0-0.6,0-1.3,0-1.9c0-0.3,0.1-0.4,0.4-0.5
		c0.2-0.2,0.4-0.2,0.6-0.2c0.8-0.1,1.6-0.1,2.4-0.2c1.3-0.1,2.7-0.2,4-0.3c0.4,0,0.6-0.2,0.9,0.1c0.1,0.1,0.1,0.3,0.1,0.4
		c0,0.9,0,1.9,0,2.8c-0.1,0.2-0.3,0.2-0.4,0.2c-1.1,0.1-2.2,0.2-3.3,0.3C52.5,92,52.2,91.8,51.8,91.9z"/>
	<path class="st54" d="M55.6,88.3c-2.3,0.3-4.8,0.4-7.1,0.4c-0.5,0-1.2,0-1.7,0.1c0.6-0.2,0.6-0.2,0.6-0.9s0-1.5,0-2.2
		c1.1-0.1,2.2-0.1,3.2-0.2c1.2-0.1,2.2-0.1,3.4-0.3c0.5-0.2,1-0.3,1.5-0.1c0.1,0.1,0.1,0.3,0.1,0.4c0,0.8,0,1.7,0,2.5
		C55.8,88.2,55.8,88.3,55.6,88.3z"/>
	<path class="st55" d="M94.1,57.1c0.5-0.1,1.1-0.2,1.6-0.3c0.4,0.1,0.6-0.1,1-0.1c0.2,0,0.2,0.1,0.2,0.3c0,1,0.1,2,0,3
		c-0.1,0.2-0.4,0.2-0.4,0.2c-0.6,0.1-1.3,0.3-2,0.3c-0.1,0-0.2,0-0.2-0.1C93.9,59.8,93.9,57.5,94.1,57.1z"/>
	<path class="st9" d="M96.8,59.9c0-0.9,0-1.9,0-2.8c0-0.2,0-0.3-0.1-0.4c0.8-0.2,1.5-0.2,2.3-0.3c0.1,0,0.2,0,0.3,0
		c0.1,0.1,0.1,0.2,0.1,0.4c0,0.8,0,1.7,0,2.5c0,0.1,0,0.2-0.1,0.3c-0.1,0.2-0.3,0.2-0.4,0.2c-0.4,0-0.9,0.1-1.3,0.1
		C97.2,59.9,97,60,96.8,59.9z"/>
	<path class="st56" d="M99.3,59.6c0-1.1,0-2.2,0-3.1c1-0.1,2,0,3,0.2l0.1,0.1c-0.3,0-0.3,0.3-0.3,0.4c0,0.9,0,1.8,0,2.7
		c-0.4,0.2-0.6,0-1,0c-0.4-0.1-0.8,0-1.3-0.1C99.7,59.8,99.4,59.8,99.3,59.6z"/>
	<path class="st56" d="M102.3,75.9c-0.3,0.1-0.2,0.3-0.2,0.4c0,0.9,0,1.8,0,2.7c-0.1,0.1-0.2,0.1-0.4,0.1c-0.8-0.2-1.7-0.2-2.6-0.1
		c-0.1,0-0.2,0-0.2,0c-0.1,0-0.2-0.1-0.2-0.1c0.6-0.3,0.4-0.8,0.4-1.3c0-0.5,0-1,0-1.5c0-0.2,0-0.4,0.1-0.4c0.2-0.2,0.4-0.1,0.7-0.1
		c0.4,0,1,0,1.4,0.1c0.2,0,0.3,0,0.4,0.2C102,75.9,102.1,75.9,102.3,75.9z"/>
	<path class="st57" d="M101.8,75.8c-0.6,0-1.2-0.1-1.8-0.1c-0.1-0.1-0.1-0.2-0.1-0.4c0-0.9,0-1.7,0-2.6c0-0.1,0-0.2,0.1-0.2
		c0-0.1,0.1-0.1,0.1-0.1c0.6-0.1,1.3-0.1,1.9,0.2c0,0.9,0,1.8,0,2.7C102,75.5,102,75.7,101.8,75.8z"/>
	<path class="st57" d="M102.1,66.3c0,0.9,0,1.8,0,2.6c0,0.2,0,0.3-0.1,0.4c-0.3,0.3-0.6,0-0.9,0c-0.3-0.1-0.4-0.1-0.7-0.1
		c-0.3,0-0.4-0.2-0.4-0.4c0-0.8,0-1.6,0-2.4c0-0.4,0.3-0.4,0.6-0.4c0.4,0,0.8,0,1.2,0.1C101.8,66.1,101.9,66.1,102.1,66.3z"/>
	<path class="st58" d="M102.1,66.3c-0.5-0.2-1-0.2-1.5-0.2c-0.1-0.1-0.4,0-0.4-0.1c-0.1-0.4-0.1-0.7-0.1-1.1c0-0.7-0.1-1.3,0-2.1
		c0,0,0-0.1,0.1-0.1c0.7-0.1,1.3-0.1,2.1,0.3c0,0,0,0,0,0.1C102.2,64.3,102.2,65.3,102.1,66.3C102.1,66.2,102.1,66.2,102.1,66.3z"/>
	<path class="st59" d="M101.1,69.3c0.3,0,0.5,0.2,0.9,0.1l0.1,0.1c0,0.7,0,1.4,0,2.2c0,0.4,0,0.6-0.1,1c-0.6-0.1-1.2-0.2-1.8-0.2
		c-0.1-0.1-0.1-0.3-0.1-0.4c0-0.8,0-1.6,0-2.4c0-0.1,0-0.3,0.1-0.4C100.5,69.2,100.8,69.3,101.1,69.3z"/>
	<path class="st60" d="M99,79c1.1-0.1,2.1-0.1,3.1,0.1c0.1,0,0.1,0.1,0.2,0.1c-0.2,0.5-0.1,1.2-0.1,1.7c0,0.4,0,0.9,0,1.4
		c-0.4,0.2-0.9,0-1.3,0c-0.4,0-0.9-0.1-1.3-0.1c-0.6,0-0.7-0.1-0.7-0.7c0-0.6,0-1.3,0-2C98.8,79.4,98.8,79.2,99,79z"/>
	<path class="st61" d="M99.6,82.2c0.9,0,1.7,0.1,2.6,0.2c0,0,0,0,0,0.1s-0.1,0.1-0.1,0.2c0,1,0,2,0,3c-0.1,0.1-0.2,0.1-0.3,0.1
		c-0.7-0.2-1.4-0.1-2.1-0.1c-0.1,0-0.3,0-0.4-0.1c0.4-1.1,0.2-2.2,0.1-3.1C99.5,82.2,99.5,82.2,99.6,82.2z"/>
	<path class="st62" d="M102.1,63c-0.7-0.1-1.3-0.2-2.1-0.2c-0.2,0.1-0.4,0.1-0.5,0c-0.1-0.2-0.1-0.3-0.1-0.4c0-0.7,0-1.5,0-2.2
		c0-0.3,0.1-0.4,0.4-0.4c0.4,0,0.8,0,1.3,0c0.4-0.1,0.6,0.1,0.9,0.1c0.1,0,0.1,0.1,0.2,0.1c0,0.9,0,1.8,0,2.7
		C102.2,62.7,102.3,62.9,102.1,63z"/>
	<path class="st63" d="M99.4,85.4c0.9,0,1.8-0.1,2.7,0.2c0.1,0,0.2,0.1,0.3,0.1c-0.1,0.2-0.1,0.4-0.1,0.5c0,0.8,0,1.7,0,2.5
		c-0.1,0-0.2,0-0.3,0c-0.6-0.2-1.3-0.2-2-0.2c-0.4,0-0.9,0-1.3,0c-0.1-0.1-0.1-0.3-0.1-0.4c0-0.7,0-1.5,0-2.2c0-0.3,0.1-0.5,0.4-0.6
		C99.1,85.3,99.2,85.3,99.4,85.4z"/>
	<path class="st64" d="M64.6,81c2-0.3,4-0.5,6-0.8c0.2,0,0.3-0.1,0.4-0.1c0.3-0.2,0.5-0.2,0.9-0.3c3.8-0.5,7.5-1.2,11.2-1.8
		c3.8-0.6,7.5-1.3,11.2-1.9c0.2,0,0.4-0.1,0.6,0c0.2,0.1,0.3,0.3,0.3,0.4c0,0.9,0.1,1.8,0,2.7c-0.1,0.3-0.3,0.3-0.5,0.3
		c-2.5,0.4-5,0.8-7.6,1.3c-3.6,0.6-7.3,1.3-10.9,1.9c-2.6,0.4-5.2,0.8-7.8,1.2c-0.2,0-0.4,0-0.6,0.1c-0.9,0.2-1.9,0.2-2.8,0.4
		c-0.2,0-0.4,0-0.4-0.1c-0.1-0.2-0.1-0.4-0.1-0.5c0-0.7,0-1.3,0-2.1C64.4,81.3,64.3,81.2,64.6,81z"/>
	<path class="st65" d="M71.1,73.7c-0.1-1.1-0.1-2.2,0-3.1c0.2-0.3,0.4-0.2,0.6-0.3c1.9-0.3,3.9-0.5,5.8-0.9
		c4.8-0.8,9.5-1.6,14.3-2.4c1.1-0.2,2.2-0.4,3.2-0.4c0.2,0,0.4-0.1,0.6,0.1c0.1,0.3,0.1,0.5,0.1,0.8c0,0.7,0.1,1.5-0.1,2.2
		c-0.3,0.4-0.7,0.2-1,0.3c-3.1,0.4-6.2,1-9.3,1.5c-3.8,0.6-7.5,1.3-11.2,1.9c-0.8,0.1-1.6,0.3-2.4,0.4
		C71.4,73.8,71.3,73.8,71.1,73.7z"/>
	<path class="st29" d="M94.9,76.2c-1.3,0.1-2.6,0.4-3.9,0.5c-5.9,1-11.9,2.2-17.9,3c-0.7,0.1-1.3,0.2-2.1,0.4c0-1.1-0.1-2.2,0-3.1
		c0.1-0.2,0.3-0.2,0.5-0.2c2.9-0.4,5.8-0.9,8.5-1.3c3.8-0.6,7.6-1.3,11.3-2c1.1-0.2,2.2-0.4,3.2-0.4c0.3,0,0.6-0.2,0.9,0.1
		c0.1,0.2,0.1,0.4,0.1,0.5c0,0.8,0.1,1.7,0,2.5C95.5,76.4,95.2,76.1,94.9,76.2z"/>
	<path class="st66" d="M95.1,66.5c-5.7,0.9-11.2,2-16.8,2.9c-2.4,0.4-4.8,0.7-7.2,1.1c-0.1-1.1-0.1-2.2,0-3.2
		c0.1-0.2,0.3-0.2,0.4-0.2c3.3-0.4,6.7-1.1,10-1.6c3.3-0.5,6.7-1.2,10-1.7c1-0.2,1.9-0.4,2.9-0.4c0.3,0,0.4-0.1,0.7,0
		c0.1,0.1,0.2,0.3,0.2,0.4c0,0.8,0,1.5,0,2.3C95.3,66.2,95.3,66.4,95.1,66.5z"/>
	<path class="st67" d="M94.7,73c-5,0.7-10,1.7-15,2.5c-2.9,0.4-5.8,0.9-8.6,1.3c-0.1-1.1-0.1-2.2,0-3.2c3.4-0.4,6.8-1.1,10.2-1.6
		c4.3-0.7,8.6-1.5,13-2.2c0.1,0,0.3,0,0.4,0c0.3-0.1,0.3,0.1,0.3,0.3c0.1,0.9,0,1.7,0,2.6C94.9,72.8,94.8,73,94.7,73z"/>
	<path class="st67" d="M94.1,57.1c0,0.7,0,1.4,0,2.2c0,0.4,0,0.6,0.1,1c-0.1,0.2-0.3,0.2-0.4,0.2c-4.2,0.6-8.4,1.4-12.5,2.2
		c-3.2,0.5-6.4,1.1-9.6,1.5c-0.2,0-0.4,0.1-0.5-0.1c-0.1-1.1-0.1-2.2,0-3.2c6.8-1,13.7-2.2,20.5-3.4C92.4,57.2,93.3,57.2,94.1,57.1z
		"/>
	<path class="st29" d="M71.1,64.1c2.5-0.4,5-0.7,7.5-1.2c5-0.8,10.2-1.8,15.2-2.6c0.1,0,0.3-0.1,0.4-0.1c0.1,0,0.1,0,0.2,0
		c0.1,0.1,0.1,0.3,0.1,0.4c0,0.9,0,1.7,0,2.6c0,0.1,0,0.2-0.1,0.2c-2.6,0.4-5.2,0.8-7.8,1.3c-4,0.7-8.2,1.4-12.2,2.1
		c-1.1,0.2-2.2,0.4-3.3,0.5C71,66.1,71,65.1,71.1,64.1z"/>
	<path class="st45" d="M64.6,81c-0.1,0.2-0.1,0.4-0.1,0.4c0,0.9,0,1.8,0,2.7c0,0.2-0.3,0.2-0.4,0.2c-2,0.2-4,0.4-5.8,0.6
		c-0.7,0.1-1.4,0.2-2.2,0.2c-0.2,0-0.4,0.1-0.4-0.1c-0.5,0-1,0.1-1.5,0.1c-0.4,0-0.4-0.1-0.4-0.4c0-0.9,0-1.8,0-2.7
		c1.5-0.2,3.1-0.3,4.7-0.4c0.6-0.1,1.2-0.1,1.8-0.2c1.4-0.2,2.8-0.3,4.2-0.4C64.4,81,64.5,81,64.6,81z"/>
	<path class="st68" d="M63.9,77.7c0.4,0.8,0.4,0.8,1.2,0.7c-0.2,0.3-0.4,0.4-0.6,0.6c-0.2,0.3,0.2,0.5,0.2,0.9
		c-0.5-0.5-1-0.4-1.3,0.1c0.3-0.6,0.3-1.1-0.5-1.3C63.5,78.6,63.8,78.3,63.9,77.7z"/>
	<path class="st69" d="M60.1,63.3C60,63.3,60,63.2,60.1,63.3c0.6,0,1.1-0.3,1.2-1c0.1,0.7,0.5,0.9,1.2,0.7c-0.5,0.4-1,0.7-0.4,1.5
		c-0.6-0.6-1.1-0.4-1.4,0.2c0-0.4,0.3-0.6,0.2-0.9C60.7,63.5,60.4,63.4,60.1,63.3z"/>
	<path class="st69" d="M60.1,67.8c0.1-0.2,0.3-0.2,0.4-0.2c0.4,0,0.5-0.2,0.6-0.5c0-0.1,0-0.3,0.2-0.4c0.1,0.7,0.4,0.9,1.2,0.6
		c-0.5,0.4-0.9,0.8-0.4,1.5c-0.5-0.5-1-0.4-1.4,0.2c0-0.4,0.3-0.6,0.2-0.9C60.7,67.9,60.4,67.9,60.1,67.8z"/>
	<path class="st70" d="M68.1,77.9c0.8,0.1,1.1-0.4,1.2-1c0.3,0.3,0.2,0.6,0.4,0.7c0.3,0.1,0.5-0.1,0.9-0.1c-0.6,0.4-1,0.8-0.5,1.5
		c-0.6-0.6-1.1-0.3-1.4,0.2C68.7,78.7,68.9,78.2,68.1,77.9z"/>
	<path class="st70" d="M68.1,64.5c0.7,0,1.2-0.3,1.2-1c0.3,0.3,0.2,0.6,0.4,0.7c0.2,0.1,0.5,0,0.9-0.1c-0.5,0.4-1,0.8-0.5,1.5
		c-0.5-0.5-1-0.4-1.4,0.2C68.8,65.2,68.8,64.7,68.1,64.5z"/>
	<path class="st70" d="M68,68.9c0.7,0.1,1.1-0.3,1.2-1c0.3,0.3,0.2,0.6,0.4,0.7c0.3,0.1,0.5,0,0.9-0.1c-0.3,0.3-0.5,0.4-0.6,0.6
		c-0.2,0.3,0.2,0.5,0.1,0.9c-0.5-0.5-0.9-0.4-1.3,0.2C68.8,69.7,68.8,69.2,68,68.9z"/>
	<path class="st71" d="M68.7,61.3c0.2-0.8,0.2-0.8-0.5-1.3c0.7,0,1.2-0.2,1.2-1c0.3,0.3,0.2,0.6,0.4,0.7c0.3,0.1,0.5,0,0.9-0.1
		c-0.5,0.4-1,0.7-0.5,1.4C69.5,60.6,69,60.8,68.7,61.3z"/>
	<path class="st68" d="M64.7,70.8c-0.5-0.5-1-0.4-1.4,0.2c0.3-0.6,0.3-1.1-0.4-1.3c0.7,0.1,1.1-0.3,1.2-1c0.1,0.8,0.5,0.9,1.2,0.7
		C64.6,69.7,64.2,70.1,64.7,70.8z"/>
	<path class="st72" d="M67.3,77.2c-0.5-0.6-1-0.3-1.4,0.2c0.3-0.6,0.3-1.1-0.4-1.3c0.7,0,1.1-0.3,1.2-1c0.3,0.3,0.2,0.6,0.4,0.7
		s0.5,0,0.9-0.1C67.3,76.1,66.9,76.5,67.3,77.2z"/>
	<path class="st70" d="M69.3,72.4c0.1,0.8,0.5,0.9,1.2,0.7c-0.5,0.4-0.9,0.8-0.4,1.5c-0.5-0.5-1-0.4-1.3,0.3c-0.1-0.3,0-0.4,0.1-0.6
		c0.1-0.2,0.1-0.4-0.1-0.4c-0.2-0.1-0.3-0.2-0.6-0.4C68.8,73.5,69.2,73.3,69.3,72.4z"/>
	<path class="st69" d="M60.6,73.5c0.3-0.6,0.3-1.1-0.4-1.3c0.7,0.1,1.1-0.4,1.2-1c0.1,0.8,0.5,0.9,1.2,0.8c-0.2,0.2-0.4,0.4-0.6,0.5
		c-0.1,0.3,0.2,0.5,0.2,0.9C61.5,72.8,61,73,60.6,73.5z"/>
	<path class="st72" d="M67.8,71.3c-0.5,0.4-0.8,0.8-0.4,1.4c-0.5-0.5-1-0.4-1.4,0.2c0.3-0.6,0.3-1.1-0.4-1.3c0.3-0.2,0.6,0,0.8-0.3
		c0.2-0.2,0.2-0.5,0.4-0.8C66.7,71.3,67,71.5,67.8,71.3z"/>
	<path class="st73" d="M62.7,60.7c0.7,0.1,1.1-0.3,1.2-1c0.1,0.7,0.5,0.9,1.2,0.7c-0.5,0.4-0.8,0.8-0.4,1.4c-0.5-0.5-1-0.3-1.4,0.2
		C63.4,61.4,63.5,60.9,62.7,60.7z"/>
	<path class="st72" d="M67.8,62.3c-0.5,0.4-0.9,0.8-0.4,1.4c-0.4,0-0.5-0.4-0.8-0.3c-0.3,0.1-0.4,0.3-0.6,0.4
		c0.2-0.5,0.3-1.1-0.5-1.3c0.7,0,1.2-0.3,1.2-1.1C66.8,62.2,67,62.6,67.8,62.3z"/>
	<path class="st72" d="M66.6,66.1c0.4,0.7,0.4,0.7,1.3,0.6c-0.5,0.4-1,0.8-0.5,1.4c-0.5-0.5-1-0.4-1.4,0.2c0.2-0.5,0.3-1.1-0.5-1.3
		C66,67,66.6,66.9,66.6,66.1z"/>
	<path class="st68" d="M63.3,66.5c0.2-0.6,0.4-1.1-0.5-1.3c0.7,0,1.1-0.3,1.2-1c0.3,0.3,0.2,0.6,0.4,0.8c0.2,0.1,0.5,0,0.8,0
		c-0.2,0.3-0.4,0.4-0.6,0.5c-0.2,0.3,0.2,0.5,0.1,0.9C64.2,65.9,63.6,65.9,63.3,66.5z"/>
	<path class="st68" d="M63.3,75.5c0.3-0.6,0.3-1.1-0.4-1.3c0.7,0.1,1.1-0.3,1.1-1c0.3,0.3,0.2,0.6,0.4,0.7c0.3,0.1,0.5,0,0.9-0.1
		c-0.5,0.4-1,0.8-0.5,1.5C64.1,74.8,63.6,75,63.3,75.5z"/>
	<path class="st74" d="M60.6,77.9c0.2-0.5,0.3-1.1-0.5-1.3c0.7,0.1,1.1-0.3,1.2-0.9c0.1,0.3,0.1,0.5,0.3,0.7c0.2,0.2,0.5-0.1,0.8,0
		c-0.2,0.2-0.4,0.4-0.6,0.5c-0.2,0.3,0.2,0.4,0.1,0.8c-0.3,0-0.4-0.4-0.7-0.3C61,77.6,60.8,77.8,60.6,77.9z"/>
	<path class="st75" d="M59.1,79.8c0,0.2,0.2,0.4,0.1,0.5c-0.2,0.1-0.4-0.2-0.5-0.3c-0.1-0.1-0.3-0.1-0.4,0.1
		c-0.2,0.1-0.3,0.3-0.5,0.4c0.1-0.3,0.3-0.5,0.2-0.7c0-0.3-0.4-0.3-0.6-0.5c0.3-0.2,0.6,0,0.8-0.2c0.2-0.2,0.2-0.5,0.4-0.8
		c0.3,0.8,0.3,0.8,1.2,0.7c0.1,0.2-0.1,0.3-0.2,0.4C59.4,79.4,59.2,79.5,59.1,79.8z"/>
	<path class="st76" d="M55.3,78.5c0.3-0.6,0.2-1.1-0.5-1.3c0.8,0.1,1.1-0.3,1.2-1c0.2,0.3,0.2,0.7,0.4,0.8c0.2,0.1,0.5,0,0.9,0
		c-0.6,0.4-1,0.8-0.4,1.4c-0.4-0.1-0.5-0.4-0.8-0.4C55.6,78.1,55.4,78.3,55.3,78.5z"/>
	<path class="st75" d="M59.2,62.4c-0.4-0.5-0.9-0.3-1.3,0.2c0.3-0.6,0.3-1.1-0.4-1.3c0.7,0.1,1.1-0.3,1.3-0.9
		c0.1,0.2,0.1,0.4,0.2,0.4c0.1,0.1,0.1,0.3,0.3,0.3c0.2-0.2,0.4,0,0.5-0.1c0.1,0,0.1,0,0.2,0c0,0.1,0,0.1-0.1,0.2
		c-0.4,0.4-0.5,0.7-0.4,1.2C59.5,62.5,59.3,62.6,59.2,62.4z"/>
	<path class="st75" d="M59.1,75.3c-0.1,0.2,0.3,0.4,0.1,0.5c-0.2,0.1-0.3-0.2-0.4-0.3c-0.1-0.1-0.2-0.1-0.4,0
		c-0.2,0.2-0.4,0.3-0.5,0.4c0.2-0.5,0.4-1.1-0.4-1.3c0.4-0.2,0.7,0,0.9-0.2c0.2-0.2,0.2-0.5,0.3-0.8l0.1,0.1
		c0.3,0.7,0.3,0.7,1.1,0.6c0.1,0.4-0.3,0.4-0.4,0.4C59.2,75,59.2,75.1,59.1,75.3z"/>
	<path class="st76" d="M55.9,71.7c0.4,0.8,0.4,0.8,1.3,0.7c-0.6,0.4-1,0.8-0.4,1.4c-0.5-0.4-1-0.4-1.4,0.2c0-0.4,0.2-0.6,0.2-0.9
		c0-0.3-0.4-0.3-0.6-0.6C55.5,72.7,55.8,72.4,55.9,71.7z"/>
	<path class="st77" d="M55.9,67.1c0.4,0.8,0.4,0.8,1.3,0.8c-0.6,0.4-1,0.8-0.5,1.4c-0.5-0.5-1-0.4-1.4,0.1c0.1-0.3,0.2-0.5,0.2-0.8
		c0-0.3-0.4-0.3-0.6-0.5C55.4,68.2,55.9,67.9,55.9,67.1z"/>
	<path class="st78" d="M54.4,61.5c-0.6,0.6-0.6,0.6-0.4,1.5c-0.5-0.6-1-0.5-1.4,0c0.1-0.3,0.2-0.5,0.2-0.8c0-0.3-0.4-0.3-0.6-0.5
		c0.7,0.1,1.1-0.2,1.2-1C53.3,61.4,53.7,61.7,54.4,61.5z"/>
	<path class="st76" d="M57.1,63.5c-0.6,0.4-0.8,0.8-0.4,1.5c-0.5-0.5-1-0.4-1.4,0.2c0-0.4,0.2-0.6,0.2-0.8c-0.1-0.3-0.4-0.3-0.6-0.5
		c0.3-0.2,0.6,0,0.8-0.2c0.2-0.2,0.2-0.5,0.4-0.9C56.1,63.4,56.3,63.7,57.1,63.5z"/>
	<path class="st79" d="M59.3,71.4L59.3,71.4c-0.5-0.5-1-0.3-1.4,0.2c0-0.4,0.2-0.6,0.2-0.9c-0.1-0.3-0.4-0.3-0.6-0.6
		c0.7,0.1,1.1-0.3,1.1-1c0.2,0.4,0.2,0.7,0.4,0.8c0.3,0.1,0.5,0,0.8-0.1c0.1,0.2-0.1,0.3-0.2,0.4c-0.4,0.2-0.4,0.4-0.3,0.7
		C59.4,71.1,59.4,71.3,59.3,71.4z"/>
	<path class="st80" d="M54,71.9c-0.7-0.4-0.7-0.4-1.4,0.1c0-0.3,0.3-0.5,0.2-0.8c-0.1-0.3-0.4-0.3-0.6-0.6c0.7,0.2,1.1-0.3,1.1-1
		c0.4,0.8,0.4,0.8,1.2,0.8c-0.3,0.2-0.5,0.4-0.6,0.6C53.7,71.3,53.9,71.5,54,71.9z"/>
	<path class="st78" d="M52.4,67.6c0.4-0.6,0.4-1.2-0.4-1.4c0.7,0,1.2-0.2,1.2-1c0.1,0.7,0.4,1,1.2,0.8c-0.7,0.4-0.8,0.8-0.4,1.4
		c-0.4-0.1-0.5-0.4-0.8-0.4C52.9,67,52.7,67.3,52.4,67.6z"/>
	<path class="st81" d="M54,80.8c-0.5-0.5-1-0.4-1.4,0.1c0.3-0.6,0.3-1.1-0.4-1.3c0.7,0.1,1.1-0.3,1.2-1c0.1,0.7,0.4,1,1.2,0.8
		c-0.2,0.2-0.5,0.4-0.6,0.5C53.7,80.3,53.9,80.5,54,80.8z"/>
	<path class="st81" d="M54.5,75c-0.8,0.3-0.8,0.8-0.4,1.4c-0.5-0.6-1-0.4-1.5,0.1c0.3-0.6,0.3-1.1-0.4-1.3c0.7,0.1,1.1-0.3,1.2-0.9
		c0.1,0.3,0.2,0.5,0.4,0.7C53.7,75,54.1,74.9,54.5,75z"/>
	<path class="st79" d="M59.3,66.9C59.3,66.9,59.2,66.9,59.3,66.9c-0.5-0.4-1-0.4-1.4,0.2c0.3-0.6,0.3-1.1-0.4-1.3
		c0.3,0,0.6,0,0.8-0.2c0.2-0.2,0.2-0.5,0.3-0.8c0.3,0.2,0,0.9,0.7,0.7c0.1,0,0.2,0,0.3,0c0.2,0,0.3,0.2,0.1,0.3
		C59.1,66,59.3,66.4,59.3,66.9C59.4,66.9,59.3,66.9,59.3,66.9z"/>
	<path class="st27" d="M59.2,62.4C59.2,62.4,59.4,62.4,59.2,62.4c-0.4-0.7,0.1-1.1,0.5-1.4c0,0.3,0.1,0.4-0.2,0.6
		c-0.2,0.1-0.1,0.2-0.1,0.4c0.1,0.2,0,0.4-0.1,0.6c0,0.1-0.1,0.2-0.2,0.1C59.1,62.6,59.2,62.5,59.2,62.4z"/>
	<path class="st27" d="M59.3,66.9c-0.3-0.5-0.3-1.1,0.4-1.3c-0.2-0.1-0.4,0-0.4-0.1c0.2-0.1,0.4-0.2,0.5,0c0.1,0.1,0.1,0.4-0.3,0.4
		c-0.2,0.1-0.1,0.3-0.1,0.4C59.5,66.6,59.7,66.8,59.3,66.9z"/>
	<path class="st27" d="M59.3,71.4c-0.3-0.5-0.3-1,0.4-1.3c0,0,0.1-0.1,0.1-0.2c0.2,0.2,0.2,0.4-0.1,0.4c-0.3,0.1-0.3,0.3-0.2,0.4
		C59.5,71.1,59.7,71.3,59.3,71.4z"/>
	<path class="st27" d="M59.1,79.8c-0.2-0.2-0.1-0.3,0.1-0.4c0.2-0.2,0.4-0.3,0.5-0.4c0.3,0,0.2,0.3,0.1,0.4
		C59.6,79.3,59.5,79.6,59.1,79.8z"/>
	<path class="st27" d="M59.4,74.9c0.1-0.2,0.4-0.3,0.4-0.4C59.9,74.8,59.9,74.9,59.4,74.9z"/>
	<path class="st27" d="M59.7,60.9C59.5,61,59.3,61,59.1,61C59.2,60.7,59.4,60.8,59.7,60.9z"/>
	<path class="st27" d="M59.1,75.3c-0.2-0.3,0-0.4,0.2-0.4C59.3,75,59.5,75.2,59.1,75.3z"/>
	<path class="st42" d="M57.3,101c0.1-0.4,0.2-0.4,0.6-0.1C57.8,101.1,57.6,101,57.3,101z"/>
	<path class="st82" d="M67.8,96.7c-1.3,0.2-2.8,0.4-4.1,0.4c-0.6,0.1-1.3,0.2-2,0.2c0-1.1,0-2.2,0-3.1c0.1-0.2,0.3-0.2,0.4-0.2
		c2.4-0.3,4.9-0.5,7.2-0.9c0.4-0.1,0.9-0.1,1.3-0.2c0.7-0.1,1.3-0.2,2.1-0.3c0.2,0,0.4-0.1,0.5,0c-0.1,0.8,0,1.6-0.1,2.4
		c0,0.3,0,0.5,0.2,0.7c-1.1,0.3-2.2,0.4-3.2,0.5C69.2,96.4,68.5,96.6,67.8,96.7z"/>
	<path class="st83" d="M70.5,93c-1.2,0.3-2.3,0.4-3.4,0.5c-1.5,0.2-3.1,0.4-4.6,0.5c-0.3,0-0.6-0.1-0.9,0.1
		c-0.4-0.1-0.9,0.1-1.3,0.1c-0.2-0.2-0.1-0.4-0.1-0.5c0-0.6,0-1.3,0-1.9c0-0.3,0-0.4-0.2-0.6c0-0.3,0.3-0.2,0.4-0.2
		c1.8-0.2,3.7-0.4,5.5-0.6c0.1,0,0.3,0,0.4-0.1c1.3-0.1,2.5-0.3,3.8-0.4c0.2,0,0.4-0.1,0.6,0.1c0.1,0.3,0.1,0.4,0.1,0.7
		c0,0.6,0,1.2,0,1.8C70.7,92.7,70.7,92.9,70.5,93z"/>
	<path class="st84" d="M60,91.1c0.3,0,0.3,0.2,0.3,0.4c0,0.9,0,1.8,0,2.7c-2.5,0.3-5.1,0.5-7.7,0.7c0-0.7,0-1.5,0-2.2
		c0-0.8,0-0.8-0.8-0.8c1.1-0.1,2.1-0.2,3.1-0.3c0.5-0.1,1.1,0,1.6-0.2c0.3-0.2,0.6-0.2,0.9-0.2c0.7-0.1,1.3-0.1,2.1-0.2
		C59.8,91.1,59.9,91.1,60,91.1z"/>
	<path class="st67" d="M73.2,95.8c-0.2,0-0.3-0.1-0.3-0.3c0-0.9,0-1.7,0-2.6c0-0.2,0.1-0.3,0.2-0.4c0.1-0.2,0.3-0.2,0.4-0.2
		c6-0.9,12-2.1,18-3.1c1.1-0.2,2.2-0.4,3.2-0.4c0.2,0,0.4-0.1,0.5,0.1c0.1,0.3,0.1,0.6,0.1,0.9c0,0.5,0,1.2,0,1.7
		c0,0.2,0,0.4-0.2,0.5c-1.4,0.3-2.8,0.4-4.2,0.7c-3,0.5-5.9,1-8.9,1.5c-2.9,0.4-5.8,1-8.6,1.4C73.4,95.8,73.3,95.8,73.2,95.8z"/>
	<path class="st30" d="M95.3,92.2c0-1.1,0-2.2,0-3.1c0-0.1,0.1-0.2,0.2-0.2c0.7-0.2,1.5-0.2,2.3-0.3c0.2,0,0.3,0,0.4,0.1
		c0,1.1,0,2.2,0,3.1c-0.9,0.1-1.8,0.3-2.7,0.4C95.4,92.2,95.3,92.2,95.3,92.2z"/>
	<path class="st16" d="M98.1,88.7c-0.9,0.1-1.8,0.2-2.7,0.3c-0.2,0-0.2-0.1-0.2-0.3c0-0.9-0.1-1.8,0-2.7c0-0.1,0-0.1,0.1-0.2
		c0.1-0.1,0.2-0.2,0.3-0.2c0.8-0.1,1.6-0.3,2.4-0.3c0.3,0,0.4-0.1,0.7-0.1c0.2,0,0.4,0,0.4,0.1c-0.3,0.1-0.4,0.2-0.4,0.5
		c0,0.9,0,1.8,0,2.7C98.5,88.6,98.3,88.6,98.1,88.7z"/>
	<path class="st85" d="M55.6,85.1c2.1-0.2,4.1-0.4,6.2-0.6c0.9-0.1,1.8-0.2,2.7-0.4c0.9-0.1,1.9-0.2,2.8-0.4c0.2,0,0.3,0,0.4,0
		c0.4-0.1,0.4,0,0.4,0.4c0,0.9,0,1.8,0,2.6c-0.2,0.3-0.5,0.3-0.8,0.3c-0.4,0-0.9,0.1-1.3,0.2c-3.1,0.4-6.1,0.7-9.3,1.1
		c-0.2,0-0.4,0-0.4-0.1c-0.3,0-0.5,0-0.9,0.1C55.6,87.3,55.6,86.2,55.6,85.1z"/>
	<path class="st86" d="M56.5,88.3c3.1-0.3,6.4-0.6,9.5-1.1c0.1,0,0.2,0,0.3,0c0.1,0.1,0.1,0.3,0.1,0.4c0,0.8,0,1.5,0,2.3
		c0,0.2,0,0.3-0.2,0.4c-1.1,0.2-2.2,0.3-3.3,0.4c-1,0.1-2,0.3-2.9,0.4c-1,0.1-2,0.2-3,0.3c-0.2,0-0.4,0-0.5,0
		c-0.2-0.1-0.1-0.3-0.1-0.4C56.5,90.1,56.5,89.2,56.5,88.3z"/>
	<path class="st87" d="M94.5,63.4c-0.2-1.1-0.1-2.1-0.1-3.1c0.8-0.1,1.6-0.3,2.4-0.4c0.3,0,0.4,0,0.7-0.1c-0.1,0.9,0,1.7,0,2.6
		c0,0.2,0,0.4-0.1,0.6c-0.1,0.1-0.2,0.2-0.4,0.2c-0.6,0.1-1.3,0.3-2,0.2C94.8,63.4,94.6,63.4,94.5,63.4z"/>
	<path class="st88" d="M97.3,63c0-0.9,0-1.8,0-2.7c0-0.2,0-0.4,0.2-0.4c0.6-0.1,1.2-0.1,1.8-0.2c0.6,0.1,1.3-0.1,1.8,0.1
		c-0.4,0-0.8,0-1.2,0c-0.4,0-0.4,0.1-0.4,0.4c0,0.9,0,1.8,0,2.7c-0.4,0.2-0.8,0.2-1.2,0.2c-0.2,0-0.4,0-0.6,0.1
		C97.6,63.1,97.4,63.1,97.3,63z"/>
	<path class="st89" d="M99.6,82.2C99.6,82.2,99.5,82.2,99.6,82.2c-0.2,0.3-0.4,0.2-0.5,0.2c-0.4,0-0.7,0-1.1,0.1
		c-0.7,0-1.4,0.3-2.2,0.2c-0.2-0.1-0.3-0.2-0.3-0.4c-0.1-0.9-0.1-1.9,0-2.8c0.2-0.2,0.4-0.2,0.7-0.3c0.4-0.1,0.8-0.1,1.3-0.2
		c0.4,0,0.9-0.3,1.3,0c0.1,0,0.1,0,0.2,0c0,0.8,0,1.6,0,2.4C99,82.1,99,82.1,99.6,82.2z"/>
	<path class="st90" d="M98.8,79c-0.4,0-0.9,0.1-1.3,0.1c-0.1-0.1-0.1-0.2-0.1-0.3c0-1,0-1.9,0-2.9c0.4-0.4,0.7-0.2,1.2-0.3
		c0.3,0.1,0.6-0.2,0.9,0.1c0,0.9,0,1.8,0,2.7c0,0.4-0.1,0.5-0.4,0.4C98.9,78.9,98.9,78.9,98.8,79z"/>
	<path class="st91" d="M99.4,75.7c-0.3,0-0.5,0.2-0.9,0.1c-0.2-0.1-0.2-0.2-0.2-0.4c0-0.9,0-1.7,0-2.6c0-0.1,0-0.2,0.1-0.2
		c0.5-0.2,1.1-0.4,1.7-0.1c0,1.1,0,2.2,0,3.1C99.9,75.7,99.6,75.7,99.4,75.7z"/>
	<path class="st92" d="M100,72.5c-0.5,0-1.1,0-1.6,0.1c-0.1,0-0.1,0-0.1-0.1c0.4-0.2,0.4-0.4,0.4-0.9c0-0.6,0-1.2,0-1.8
		c0-0.2,0-0.4,0.1-0.5c0.4-0.2,0.9-0.1,1.3,0C100.1,70.4,100.1,71.5,100,72.5C100.1,72.5,100.1,72.5,100,72.5z"/>
	<path class="st93" d="M100.1,69.3c-0.4-0.1-0.9,0-1.3,0c-0.2,0.1-0.4,0.1-0.5,0c-0.1-0.1-0.2-0.3-0.2-0.4c0-0.8,0-1.7,0-2.5
		c0-0.1,0-0.2,0.1-0.3c0.1-0.1,0.2-0.2,0.3-0.2c0.5-0.1,1-0.1,1.5-0.1c0.1,0,0.1,0.1,0.2,0.1c0.1,0,0.3,0.1,0.4,0.1
		c-0.4-0.1-0.5,0.1-0.5,0.5c0,0.7,0,1.4,0,2.2c0,0.3,0.1,0.4,0.4,0.4c0.3,0,0.5-0.1,0.7,0.1C100.8,69.3,100.5,69.3,100.1,69.3z"/>
	<path class="st94" d="M100.1,66.1c-0.6,0.1-1.3,0-1.9,0.2c-0.1,0.1-0.2,0.1-0.3,0c0.3-0.3,0.3-0.6,0.3-1c0-0.4,0-0.9,0-1.3
		c0-0.4,0-0.7-0.4-0.9c0.6-0.2,1.2-0.1,1.8-0.2c0.2,0,0.4,0,0.5,0C100.2,63.9,100.1,65,100.1,66.1z"/>
	<path class="st95" d="M97.9,82.2c0.5-0.1,1.1-0.1,1.6-0.1c0.2,0,0.2,0.2,0.2,0.4c0,0.8,0,1.6,0,2.5c0,0.3-0.2,0.3-0.4,0.4
		c-0.1,0-0.3,0-0.4,0c-0.4,0-0.7,0-1.2,0.1c-0.1-0.1-0.1-0.3-0.1-0.4c0-0.8,0-1.5,0-2.3C97.8,82.6,97.8,82.4,97.9,82.2z"/>
	<path class="st65" d="M95.5,79.4c0,0.9,0,1.7,0,2.6c0,0.2,0,0.4,0.3,0.5c-0.1,0.4-0.4,0.1-0.6,0.3c-4.8,0.6-9.4,1.6-14.2,2.3
		c-2.3,0.4-4.8,0.8-7.1,1.2c-1.5,0.3-3.1,0.5-4.7,0.7c-0.4,0-0.6,0.2-1,0c-0.2-0.2-0.1-0.4-0.1-0.6c0-0.7,0-1.4,0-2.1
		c0-0.3-0.1-0.4-0.4-0.4c0.9-0.2,1.8-0.3,2.7-0.4c3.6-0.5,7.1-1.1,10.6-1.7c4.7-0.8,9.3-1.7,13.9-2.3h0.1
		C95.3,79.2,95.4,79.2,95.5,79.4z"/>
	<path class="st96" d="M95.5,79.4c-0.2,0-0.3,0-0.4,0c0-0.9,0-1.7,0-2.6c0-0.2,0-0.4-0.3-0.5c0.2-0.2,0.4,0,0.7-0.2
		c0.6-0.2,1.2-0.4,1.8-0.2c0.2,0.5,0.1,1.1,0.1,1.6c0,0.5,0,1.1,0,1.6C96.9,79.2,96.2,79.3,95.5,79.4z"/>
	<path class="st97" d="M97.7,63c0.6,0,0.6,0,0.6,0.6c0,0.7,0,1.3,0,2c0,0.3-0.1,0.4-0.4,0.5c0,0.1-0.1,0.1-0.1,0.1
		c-0.7,0.2-1.4,0.2-2.2,0.3c-0.1,0-0.1,0-0.2-0.1c-0.2,0-0.4,0-0.5,0.1c0.1-0.2,0.1-0.4,0.1-0.5c0-0.7,0-1.5,0-2.2
		c0-0.2,0.1-0.4-0.1-0.4c0.6-0.2,1.2-0.2,1.8-0.3c0.2,0,0.3-0.1,0.4-0.1C97.4,63,97.6,63,97.7,63z"/>
	<path class="st89" d="M95.5,66.5c0.8-0.1,1.6-0.2,2.4-0.3c0.1,0,0.2,0,0.3,0c0,0.9,0,1.8,0,2.7c0,0.2-0.1,0.4,0.1,0.4
		c-0.1,0.3-0.3,0.2-0.4,0.2c-0.3,0-0.4,0-0.7,0.1c-0.4,0-0.8,0.1-1.3,0.2c-0.2,0-0.3,0.1-0.4-0.1C95.5,68.6,95.5,67.5,95.5,66.5z"/>
	<path class="st98" d="M95.5,69.7c0.5,0,1.1-0.2,1.6-0.2c0.1,0.1,0.1,0.2,0.1,0.4c0,0.8,0,1.7,0,2.5c0,0.1,0,0.2-0.1,0.3
		c-0.5,0.4-1.1,0.4-1.7,0.3c-0.3,0-0.5,0.1-0.9,0.1c0.1-0.2,0.1-0.4,0.1-0.5c0-0.7,0-1.5,0-2.2c0-0.2,0.1-0.4-0.2-0.4
		C94.9,69.7,95.3,69.7,95.5,69.7z"/>
	<path class="st89" d="M95.5,72.9c0.5-0.1,1.1-0.2,1.6-0.3c0.4-0.2,0.7-0.3,1.2-0.1h0.1c0,0.9,0,1.8,0,2.7c0,0.2,0,0.4,0.1,0.4
		c-0.4,0-0.7,0-1.1,0.1c-0.6,0.1-1.2,0.1-1.8,0.2C95.5,75,95.5,74,95.5,72.9z"/>
	<path class="st65" d="M95.4,85.8c-0.1,0.2-0.1,0.4-0.1,0.6c0,0.6,0,1.3,0,2c0,0.2-0.1,0.4,0.1,0.4L95.3,89
		c-1.4,0.2-2.9,0.4-4.3,0.6c-5.8,1-11.5,2.1-17.4,2.9c-0.2,0-0.4,0.1-0.5,0.1c-0.8,0.1-1.7,0.2-2.5,0.4c0-1.1,0-2.1,0-3.1
		c0.1-0.3,0.4-0.2,0.5-0.3c2.8-0.4,5.6-0.8,8.5-1.3c4.1-0.7,8.3-1.4,12.4-2.2c0.9-0.2,1.9-0.3,2.8-0.4
		C94.9,85.7,95.2,85.7,95.4,85.8z"/>
	<path class="st64" d="M95.4,85.8c-1.3,0.1-2.5,0.4-3.8,0.5c-6.4,1.1-12.7,2.2-19.1,3.1c-0.6,0.1-1.3,0.2-1.9,0.4
		c-1.3,0.2-2.5,0.4-3.8,0.4c-0.2,0-0.4,0-0.5,0.1c0-1.1,0-2.2,0-3.1c0.6-0.2,1.3-0.2,2-0.3c2.4-0.3,4.8-0.7,7.2-1.1
		c4.9-0.7,9.7-1.6,14.6-2.4c1.5-0.3,3.1-0.5,4.7-0.7c0.2,0,0.4,0,0.5,0c0.2-0.1,0.4,0,0.4,0.2c0.1,0.9,0.1,1.9,0,2.9
		c0,0,0,0.1-0.1,0.1C95.4,85.7,95.4,85.8,95.4,85.8z"/>
	<path class="st30" d="M95.4,85.7c0-0.9,0-1.8,0-2.7c0-0.2,0-0.4-0.3-0.4c0.2-0.1,0.4-0.1,0.6-0.2c0.7,0,1.3-0.2,2.1-0.2
		c0,1.1,0,2.2,0,3.1C97.1,85.6,96.3,85.7,95.4,85.7z"/>
	<path class="st26" d="M98.3,72.5c-0.4,0-0.7,0.1-1.2,0.1c0-1.1,0-2.2,0-3.1c0.4-0.2,0.8,0,1.2-0.2c0.2,0,0.4,0,0.5,0
		c0,0.8,0,1.7,0,2.5C98.9,72.3,98.9,72.5,98.3,72.5z"/>
</g>
</svg>
