<?xml version="1.0" encoding="UTF-8"?>
<svg id="Layer_1" xmlns="http://www.w3.org/2000/svg" version="1.1" xmlns:xlink="http://www.w3.org/1999/xlink" viewBox="0 0 500 500">
  <!-- Generator: Adobe Illustrator 29.0.1, SVG Export Plug-In . SVG Version: 2.1.0 Build 192)  -->
  <defs>
    <style>
      .st0 {
        fill: url(#linear-gradient1);
      }

      .st1 {
        display: none;
      }

      .st2 {
        fill: #f9cbff;
      }

      .st3 {
        fill: url(#linear-gradient);
      }
    </style>
    <linearGradient id="linear-gradient" x1="421.2" y1="78.8" x2="78.8" y2="421.2" gradientUnits="userSpaceOnUse">
      <stop offset="0" stop-color="#fff"/>
      <stop offset="0" stop-color="#fcecff"/>
      <stop offset=".2" stop-color="#fad9ff"/>
      <stop offset=".4" stop-color="#f8ccff"/>
      <stop offset=".6" stop-color="#f7c5ff"/>
      <stop offset="1" stop-color="#f7c3ff"/>
    </linearGradient>
    <linearGradient id="linear-gradient1" x1="425.1" y1="75.3" x2="75" y2="425.4" gradientUnits="userSpaceOnUse">
      <stop offset="0" stop-color="#363635"/>
      <stop offset=".2" stop-color="#363635"/>
      <stop offset=".3" stop-color="#262625"/>
      <stop offset=".6" stop-color="#111110"/>
      <stop offset=".8" stop-color="#040404"/>
      <stop offset="1" stop-color="#000"/>
    </linearGradient>
  </defs>
  <ellipse class="st3" cx="250" cy="250" rx="242.1" ry="242.2"/>
  <path class="st0" d="M264.5,2.5l36.7,5.3c176.5,37.5,256.8,249.3,144.3,394C317,567.1,56.1,507.4,9,306.1l-6.3-39.7c.5-10.8-.7-22.1,0-32.9C10.3,110.7,113,9.3,235.5,2.5h29ZM365,393.1c.7.8,16-9.5,17.7-10.8,94.7-69.5,88.3-203.3-6.2-270-3.1-2.2-9.7-4.8-11.9-7.4-3.4-4-8.6-20.3-12.7-26.9-35-57.4-103.2-53.8-159.6-33.2C50.3,96.7,3.7,275.4,101.7,391.2c41.4,48.9,110.3,80.6,174.9,76.4,41.2-2.6,75.5-33.5,86.4-72.6-7.2,3.3-14.3,7-21.7,9.7-119.7,43.6-248.3-51.1-229.2-180.1,17.1-115.2,150.3-176,250.9-120.1,35.8,91.6,33.8,196.1,2,288.6Z"/>
  <g class="st1">
    <ellipse class="st2" cx="562.3" cy="247.5" rx="242.1" ry="242.2"/>
    <path d="M576.8,0l36.7,5.3c176.5,37.5,256.8,249.3,144.3,394-128.6,165.4-389.5,105.6-436.6-95.6l-6.3-39.7c.5-10.8-.7-22.1,0-32.9C322.5,108.2,425.2,6.8,547.8,0h29ZM677.3,390.6c.7.8,16-9.5,17.7-10.8,94.7-69.5,88.3-203.3-6.2-270-3.1-2.2-9.7-4.8-11.9-7.4-3.4-4-8.6-20.3-12.7-26.9-35-57.4-103.2-53.8-159.6-33.2-142,51.9-188.6,230.6-90.6,346.4,41.4,48.9,110.3,80.6,174.9,76.4,41.2-2.6,75.5-33.5,86.4-72.6-7.2,3.3-14.3,7-21.7,9.7-119.7,43.6-248.3-51.1-229.2-180.1,17.1-115.2,150.3-176,250.9-120.1,35.8,91.6,33.8,196.1,2,288.6Z"/>
  </g>
</svg>