<?xml version="1.0" encoding="UTF-8"?><svg id="Layer_1" xmlns="http://www.w3.org/2000/svg" viewBox="0 0 128 128"><defs><style>.cls-1{fill:#34cb57;}.cls-1,.cls-2{stroke-width:0px;}.cls-2{fill:#fff;}</style></defs><circle class="cls-1" cx="64" cy="64" r="63.5"/><g id="UXLINK"><path class="cls-2" d="m41.93,97.16c-.22,3.12-2.09,4.95-5.23,5.05-1.53.05-3-.19-4.26-1.15-1.17-.89-1.76-2.14-1.81-3.55-.09-2.34-.03-4.68-.02-7.03,0-.15,0-.28.01-.54,0,0,.19,0,.2,0h2.32s.2,0,.21,0c.02.41.02.6.02.87,0,1.93,0,3.87,0,5.8,0,.39.06.77.13,1.15.49,2.52,3.62,2.66,4.85,1.42.63-.64.83-1.45.84-2.3.03-1.98.01-3.95.02-5.93,0-.3-.05-.6.14-.95.08-.02.16-.04.23-.05h2.17c.25.22.24.44.24.65-.04,2.19.08,4.38-.07,6.57Z"/><path class="cls-2" d="m55.28,101.9h-3.22c-.97-1.34-1.96-2.7-3.02-4.15-1.2,1.35-2,2.86-3.11,4.17h-3.15c1.57-2.07,3.07-4.06,4.61-6.1-1.44-1.95-2.85-3.85-4.35-5.88h3.04c.24.06.36.3.5.5.66.9,1.32,1.8,1.98,2.7.15.21.3.42.65.55.4-.54.82-1.1,1.23-1.66.41-.56.8-1.12,1.2-1.68.13-.18.26-.38.48-.41,0,0,0,0,.01,0h2.61s.05.09.08.14c-1.38,1.86-2.77,3.73-4.16,5.61,1.55,2.08,3.04,4.09,4.61,6.21Z"/><path class="cls-2" d="m41.92,76.45c.17-.43.51-.59.78-.83,2.79-2.51,5.6-5.01,8.35-7.57,1.52-1.41,1.22-3.7-.55-4.8-.84-.52-1.73-.59-2.65-.26-3.44,1.22-6.88,2.44-10.32,3.65-.44.16-.89.3-1.44.48-1.42-3.7-2.28-7.43-2.11-11.4.66-.26,1.29-.17,1.89-.13,2.06.16,4.12.04,6.18.1,4.08.11,8.16.1,12.24.16,1.29.02,2.58.07,3.86.09,3.7.06,5.77,3.67,3.98,6.91-1.67,3.02-3.3,6.07-4.94,9.11-1.89,3.52-3.77,7.04-5.66,10.56-.1.19-.18.4-.5.56-2.48-1.05-4.69-2.64-6.78-4.43-.02-.02-.03-.03-.05-.05-.11-.11-.22-.23-.34-.34-.02-.02-.03-.03-.05-.05-.73-.5-1.28-1.19-1.9-1.79Z"/><path class="cls-2" d="m65.11,101.89h-9.03v-11.91c.08-.02.17-.03.25-.04h2.26s.1,0,.14.01v9.83h6.39c.1.77.02,1.42-.01,2.11Z"/><path class="cls-2" d="m69,89.95v11.93c-.91.13-1.78.07-2.71.05v-11.95c.09-.02.18-.03.27-.04h2.33s.07,0,.11.01Z"/><path class="cls-2" d="m47.97,30.9c-.11-.18-.27-.34-.25-.69,3.29-2.19,6.93-3.65,10.99-4.42.29,1.37.57,2.65.83,3.92.63,3,1.28,6,1.87,9.01.37,1.86,1.82,2.74,3.2,2.69,1.56-.06,2.69-1.19,3.01-2.92.61-3.33,1.24-6.66,1.87-9.99.16-.84.32-1.68.5-2.61,3.99.73,7.56,2.29,10.97,4.52-.58.99-1.12,1.91-1.67,2.82-3.51,5.88-7.03,11.76-10.52,17.65-.88,1.49-1.99,2.56-3.8,2.72-1.87.16-3.32-.56-4.31-2.13-2.21-3.53-4.39-7.08-6.58-10.62-2.04-3.31-4.07-6.63-6.11-9.94Z"/><path class="cls-2" d="m82.98,89.94v11.91c-.75.19-1.47.08-2.25.09-2.05-2.39-4.11-4.79-6.17-7.2l-.21.05c-.15,2.34.03,4.7-.1,7.07-.95.17-1.78.09-2.69.06v-11.97s.07,0,.1,0h1.71c.52.1,1,.36,1.43.94,1.52,2.02,3.25,3.89,4.89,5.82.12.14.22.33.58.29v-6.97c.13-.03.26-.05.39-.07h2.29s.03,0,.04,0Z"/><path class="cls-2" d="m77.24,55.7c3.05-.11,6.09-.23,9.14-.27,2.38-.03,4.76-.15,7.14-.23.27,0,.56-.04.95.17.02,3.79-.59,7.47-1.91,10.99-.35.11-.58-.03-.82-.11-3.44-1.14-6.88-2.28-10.33-3.41-1.62-.53-3.02.02-3.82,1.5-.73,1.35-.35,2.85.91,3.91,2.32,1.96,4.62,3.96,6.93,5.94.52.45,1.04.88,1.56,1.31-.43,1.42-6.32,6.27-8.81,7.11-.41-.7-.83-1.42-1.24-2.14-3.24-5.81-6.48-11.62-9.73-17.43-1.15-2.05-1.07-4.04.29-5.63.88-1.02,2.03-1.5,3.35-1.55,2.12-.08,4.25-.08,6.38-.16Z"/><path class="cls-2" d="m97.42,101.94c-1.11,0-2.05.01-2.98,0-.36,0-.54-.31-.75-.56-1.02-1.22-2.04-2.43-3.07-3.64-.15-.17-.29-.38-.64-.42-.79.78-1.91,1.38-1.68,2.87.08.53.11,1.11-.11,1.7-.85.14-1.69.07-2.6.03v-11.91c.1-.02.21-.05.31-.06h2.41v5.35c.47-.03.61-.3.8-.48,1.46-1.46,2.92-2.91,4.36-4.39.23-.23.46-.39.73-.47h2.78c-1.71,1.86-3.33,3.56-5.08,5.28,1.83,2.23,3.61,4.4,5.51,6.72Z"/></g></svg>