<?xml version="1.0" encoding="UTF-8"?><svg id="Layer_1" xmlns="http://www.w3.org/2000/svg" viewBox="0 0 128 128"><defs><style>.cls-1,.cls-2{stroke-width:0px;}.cls-2{fill:#d4d8db;}</style></defs><circle class="cls-2" cx="64" cy="64" r="63.5"/><g id="VANA"><path class="cls-1" d="m33.92,48.73c-.22,1.19-.47,2.38-.66,3.57-.24,1.48-.51,2.94-1.51,4.14-1.45,1.73-3.75,1.54-4.81-.44-.27-.5-.44-1.06-.65-1.59-.49-1.23-.87-2.52-1.48-3.68-1.17-2.26-.1-3.99,1.34-4.91.92-.59,1.97-1.04,3.01-1.4,4.88-1.69,8.6-4.76,11.13-9.26.2-.36.42-.71.69-1.03.26-.31.58-.57.83-.81-.61-.63-1.28-1.23-1.82-1.93-.92-1.18-1.1-2.53-.52-3.92.33-.79.74-1.56,1.15-2.31.61-1.11.91-2.3.97-3.55.07-1.51.09-3.02.22-4.52.11-1.18.56-2.26,1.4-3.14,1.43-1.5,3.4-1.44,4.73.16.32.39.62.79.93,1.19,1.3,1.66,2.56,1.98,4.49,1.11,1.11-.5,2.19-1.07,3.32-1.54,1.08-.45,2.26-.52,3.32-.08,1.59.67,3.16.63,4.8.35.74-.13,1.54-.06,2.3.04.99.13,1.76.68,2.3,1.53.52.82.86,1.7.95,2.66.1.98-.27,1.76-1.12,2.28-.61.37-1.26.69-1.86,1.08-1.09.69-1.33,1.7-.59,2.76.34.49.83.89,1.28,1.29.31.27.68.47.99.74.71.6.8,1.26.22,1.98-.4.5-.89.94-1.36,1.38-.87.82-1.02,1.23-.3,2.16.69.9,1.54,1.7,2.41,2.44,1.25,1.06,2.58,2.01,3.86,3.02.58.46,1.27.55,1.97.6.77.06,1.55.09,2.3.23,1.43.27,2.21,1.11,2.35,2.56.41,4.49-2.12,8.7-5.53,10.68-2.98,1.72-5.87.05-7.26-2.14-.89-1.41-1.15-2.94-.64-4.54.31-.98.17-1.78-.61-2.48-.72-.65-.77-1.54-.83-2.43-.07-1.2-.41-2.3-1.24-3.2-.67-.73-1.5-1.11-2.51-.87-.64.15-.83.45-.84,1.11-.01.53-.05,1.08-.2,1.59-.19.65-.8.96-1.41.7-1.16-.5-2.27-.37-3.39.09-.11.05-.24.07-.36.09-.05,0-.1-.02-.23-.05.1-.19.16-.37.28-.5.46-.51.56-1.1.47-1.76-.06-.46-.14-.93-.14-1.39,0-.88.4-1.41,1.24-1.67.29-.09.59-.16.89-.23.91-.21,1.65-.66,2.21-1.42.26-.36.56-.71.9-.99.76-.65,1.41-.67,2.28-.19.12.06.32.1.42.05.8-.45,1.62-.53,2.49-.24.06.02.13.01.2.02.25-1.37-.81-2.58-2.32-2.72-1.31-.13-2.27.37-2.93,1.49-.14.23-.28.46-.4.7-.91,1.74-2.41,2.25-4.27,2.19-1.06-.03-2.17.03-3.19.29-1.37.36-1.58,1.42-.61,2.44.43.45.94.83,1.41,1.24.98.84.69,2.6-.51,3.1-.52.21-1.08-.11-1.16-.68-.14-.94-.56-1.22-1.48-.99-.17.04-.35.09-.53.12-.7.11-1.25-.29-1.21-1,.02-.47.19-.98.43-1.4.34-.59.81-1.1,1.21-1.65.18-.25.33-.52.44-.8.33-.78.06-1.17-.8-1.13-.48.02-.97.1-1.45.1-1.27,0-1.83-.74-1.64-2.01.23-1.52,1.04-2.59,2.34-3.36,1.32-.78,2.75-1.2,4.25-1.45.39-.06.75-.28,1.12-.43-.2-.32-.39-.64-.6-.96-.12-.18-.27-.34-.37-.53-.29-.49-.22-.71.26-1.02.78-.49.75-1.06-.08-1.5-1.1-.58-2.27-.44-3.43-.25-.96.16-1.9.36-2.86.51-.24.04-.51.02-.75-.04-.62-.15-.81-.79-.37-1.24.33-.33.7-.61,1.05-.93,1.19-1.1,1.38-2.38.47-3.71-.46-.67-1.02-1.3-1.63-1.85-1.16-1.04-2.65-.81-3.52.5-.64.96-.81,2.07-.86,3.19-.04.86.06,1.72.12,2.58.06.83.51,1.46,1.14,1.94.87.67,1.01,1.52.72,2.5-.09.33-.21.65-.28.98-.08.34-.13.72.25.9.41.19.68-.12.8-.44.23-.59.38-1.22.55-1.84.04-.17,0-.36.02-.54.04-.29-.16-.79.27-.8.25,0,.67.41.74.7.36,1.41.32,2.81-.43,4.12-.45.79-.94,1.57-1.36,2.38-.72,1.4-.54,2.54.54,3.7.48.51.99.99,1.46,1.52.1.11.06.33.09.5-.16-.04-.33-.04-.47-.11-.64-.35-1.24-.84-1.92-1.06-1.73-.57-3.2-.09-4.25,1.43-.56.82-.93,1.77-1.37,2.67-.4.84-.71,1.73-1.18,2.53-.7,1.22-1.8,1.98-3.14,2.38-.25.08-.62.13-.48.48.07.15.49.27.71.23,2.35-.51,3.72-2.15,4.73-4.2.37-.76.7-1.54,1.14-2.25.84-1.33,1.76-1.64,3.27-1.17.32.1.66.22.94.4.92.59,1.82,1.21,2.71,1.88-.46-.1-.92-.22-1.38-.31-1.89-.37-3.4.27-4.55,1.76-.46.6-.85,1.25-1.28,1.86-.44.63-.89,1.26-1.38,1.95h8.45c.48-1.21-.65-2.03-1.65-2.24-.34-.07-.66-.21-.99-.32,0-.09,0-.18,0-.27.4-.12.78-.3,1.19-.35,1.78-.2,3.33.37,4.66,1.55.61.54.85,1.3.96,2.06.28,2.01.58,4.02.72,6.04.16,2.31.16,4.63.24,6.95.02.48.06.97.13,1.45.04.27.17.52.27.78.07,0,.14,0,.22,0,.09-.3.24-.6.25-.91.09-1.72.17-3.45.22-5.17.08-2.64.11-5.28.23-7.92.06-1.41.39-2.79,1.27-3.94,1.24-1.63,3.47-1.83,5.06-.53,1.72,1.42,2.45,3.29,2.72,5.44.33,2.69-.13,5.3-.78,7.89-.17.67-.69.84-1.29.44-.87-.58-1.49-1.39-2.02-2.28-.09-.16-.19-.32-.29-.47-.06.03-.12.05-.18.08.23.64.45,1.28.7,1.91.26.67.57,1.32.78,2,.09.29.05.64-.02.95-.1.46-.39.83-.87.93-.52.1-.89-.21-1.1-.62-.44-.88-.9-1.77-1.17-2.71-.29-1.01-.38-2.07-.55-3.12-.03-.18-.05-.37-.08-.55-.06,0-.12,0-.18,0-.03.56-.08,1.12-.08,1.69-.02,1.96.55,3.82,1.01,5.7.14.57.23,1.16.29,1.75.07.71-.22,1.23-.9,1.55-.69.33-1.34.76-2.01,1.14-.68.38-1.37.74-2.12,1.15.25,1.42.52,2.96.79,4.49.27,1.54.54,3.07.83,4.72.78-.84,1.51-1.6,2.21-2.39,2.24-2.52,4.29-5.17,5.96-8.1,1.01-1.76,1.98-3.55,2.34-5.58.13-.73.31-1.58-.19-2.13-.66-.72-.37-1.39-.28-2.13.16-1.44.27-2.89.41-4.34.02-.24.06-.49.1-.82.83.46,1.4,1.06,1.88,1.74.84,1.19,1.24,2.56,1.32,3.99.2,3.47-.53,6.75-2.57,9.59-1.43,1.99-3.03,3.88-4.69,5.69-1.87,2.04-3.89,3.94-5.85,5.88-.22.22-.31.41-.25.74.96,5.24,1.9,10.49,2.84,15.74.02.12.07.24.12.42,4.49-2.6,9.13-4.78,14.02-6.45-1.72-.19-3.34-.61-4.73-1.64-2.36-1.76-3.61-4.07-3.35-7.05.15-1.72,1.08-3.1,2.26-4.31,1.88-1.94,4.17-3.24,6.69-4.1,2.1-.71,4.25-1.27,6.48-1.93.33-1.89.7-3.94,1.06-5.99.71-4.07,1.4-8.14,2.11-12.21.11-.62.19-1.24.34-1.85.37-1.49.93-1.95,2.46-1.97,1.98-.04,3.96-.03,5.93-.03,1.44,0,2.88,0,4.32,0,.23,0,.47,0,.7.02,1.27.12,1.94.8,1.82,2.06-.15,1.52-.42,3.02-.67,4.53-.4,2.41-.83,4.81-1.24,7.22-.01.07,0,.14,0,.4.58-.65,1.09-1.16,1.54-1.73,2.21-2.78,3.66-5.95,4.82-9.27.11-.3.15-.65.33-.91.15-.21.44-.41.69-.45.34-.06.51.22.52.55.06,1.52.18,3.05.16,4.57-.04,2.2-.33,4.36-1,6.47-1.26,3.98-3.99,6.52-7.79,8.01-.45.18-.67.38-.75.89-.82,4.85-1.68,9.69-2.52,14.54-.15.88-.31,1.76-.46,2.63,1.17.33,2.29.62,3.4.98,1.58.52,3.04,1.29,4.32,2.38,2.96,2.51,3.4,5.89,1.18,9.07-1.54,2.21-3.55,3.96-5.71,5.53-2.22,1.61-4.53,3.11-6.81,4.64-.28.19-.41.37-.47.71-.29,1.75-.59,3.51-.94,5.25-.32,1.58-.96,2.07-2.59,2.07-11.89,0-23.77,0-35.66,0-1.53,0-2.13-.46-2.42-1.97-.53-2.82-1.01-5.65-1.51-8.48-.04-.21-.08-.42-.14-.7-.42.29-.79.56-1.17.81-1.53.98-3.14,1.75-5,1.82-2.83.1-4.9-1.86-5.03-4.7-.09-1.98.6-3.73,1.48-5.44,1.64-3.19,3.75-6.04,6.13-8.7.48-.54.6-1.02.48-1.72-1.6-9.07-3.17-18.14-4.75-27.22-.57-3.29-1.16-6.58-1.74-9.87-.01-.07-.05-.13-.07-.2-.07-.01-.15-.03-.22-.04Zm23.94,45.81c.09.27.16.5.25.71,1.39,3.4,4.83,5.45,8.49,5.04,3.63-.41,6.41-2.75,7.29-6.22.4-1.6.7-3.23,1.02-4.84.15-.73.25-1.47.38-2.29-6.26,1.64-11.93,4.36-17.42,7.6Zm20.41-24.45c-.23.04-.39.05-.54.09-1.83.45-3.62,1.03-5.3,1.91-1.63.85-3.11,1.88-4.18,3.4-1.34,1.91-1.77,3.96-.68,6.13.7,1.4,1.91,2.27,3.32,2.85,1.28.52,2.63.7,4.01.69.45,0,.72-.13.81-.68.33-2.06.72-4.1,1.09-6.15.49-2.72.97-5.44,1.47-8.25Zm9.31,34.72s.09.08.14.12c1.17-.85,2.38-1.66,3.52-2.55,2.1-1.63,3.98-3.47,5.16-5.91,1.39-2.86.8-5.98-1.47-7.82-1.12-.91-2.37-1.55-3.71-2.03-.12-.04-.26-.06-.42-.09-1.08,6.13-2.15,12.2-3.22,18.28Zm-46.29-15.16c-1.84,2.32-3.52,4.57-4.62,7.19-.42,1-.7,2.03-.63,3.13.1,1.39,1,2.29,2.38,2.36,1.77.09,3.29-.69,4.87-1.36-.67-3.76-1.32-7.48-2-11.32Zm15-73.24c-.13,0-.26-.03-.38,0-.46.12-.94.22-1.38.41-.15.06-.21.34-.3.52.17.06.34.18.5.18.45,0,.9-.08,1.34-.07,1.47.01,2.06.43,1.99,1.75-.04.81.6,1.26,1.42,1.06.41-.1.8-.32,1.2-.46.78-.26,1.55-.56,2.35-.73.33-.07.84.06,1.05.3.31.34-.05.71-.32.96-.51.48-1.03.96-1.59,1.36-1.37.98-2.57,2.14-3.62,3.45-.93,1.15-1.77,2.36-2.18,3.8-.19.67-.32,1.35.06,1.99.13.21.43.45.65.44.22,0,.49-.26.63-.47.14-.21.16-.51.22-.77.15-.65.23-1.31.44-1.94,1.26-3.7,3.58-6.28,7.52-7.21.68-.16,1.37-.45,1.96-.83.95-.6,1.24-1.79.84-2.82-.39-.99-1.38-1.64-2.44-1.46-.6.11-1.2.38-1.74.68-.72.4-1.37.92-2.08,1.35-1.09.67-2.05.64-2.83-.23-.92-1.03-2.07-1.27-3.35-1.29Zm20.22,24.97c-.07-.25-.19-.7-.33-1.14-.05-.15-.19-.27-.29-.4-.08.16-.21.31-.23.47-.11.93-.62,1.29-1.53,1.03-.26-.07-.51-.18-.75-.3-1.07-.54-1.99-1.28-2.72-2.24-.35-.46-.77-.59-1.16-.38-.43.23-.58.72-.37,1.26.08.2.19.38.29.58.23.45.49.88.66,1.35.06.17-.05.55-.18.6-.69.31-.74.91-.81,1.52-.07.59-.18,1.17-.2,1.75-.03.62,0,1.24.06,1.86.01.16.22.31.34.46.04-.17.14-.35.12-.52-.05-.73,0-1.45.38-2.08.26-.43.59-.81.91-1.2.5-.6.72-1.27.57-2.05-.02-.11-.03-.21-.03-.32.02-.5.24-.63.64-.36.34.23.65.51.96.78.63.54,1.35.87,2.19.93.85.06,1.49-.55,1.48-1.6Z"/></g></svg>