<?xml version="1.0"?>
<svg width="1080" height="1080" xmlns="http://www.w3.org/2000/svg" xmlns:svg="http://www.w3.org/2000/svg" enable-background="new 0 0 500.9 456.3" version="1.1" xml:space="preserve">
 <style type="text/css">.st0{fill:#82BE00;}</style>
 <g class="layer">
  <title>Layer 1</title>
  <ellipse cx="540" cy="539" fill="#ffffff" id="svg_2" rx="535" ry="535" stroke="#000000" stroke-opacity="0"/>
  <g id="Livello_2">
   <g id="Livello_1-2">
    <path class="st0" d="m911.45,201.62l-66.3,0c-16.17,0 -31,9.34 -37.97,23.88l-174.42,362.92l-0.15,-0.44l-46.42,96.7l0.15,0.44l-46.42,96.7l-231.96,-483.35l66.15,0c16.17,0 31,9.34 37.97,23.88l151.43,313.53l46.42,-96.7l-122.21,-253.02c-24.77,-51.61 -76.97,-84.54 -134.22,-84.54l-184.95,0l46.27,96.85l0.15,0l278.38,579.9l92.84,0l325.25,-676.75z" id="svg_1"/>
   </g>
  </g>
 </g>
</svg>