<?xml version="1.0" encoding="utf-8"?>
<!-- Generator: Adobe Illustrator 27.0.0, SVG Export Plug-In . SVG Version: 6.00 Build 0)  -->
<svg version="1.1" id="Layer_1" xmlns="http://www.w3.org/2000/svg" xmlns:xlink="http://www.w3.org/1999/xlink" x="0px" y="0px"
	 viewBox="0 0 128 128" style="enable-background:new 0 0 128 128;" xml:space="preserve">
<style type="text/css">
	.st0{fill:#01C6D2;}
	.st1{fill:#FDFEFE;}
</style>
<circle class="st0" cx="64" cy="64" r="63.5"/>
<path class="st1" d="M37.2,64.1c0-10.9,0-21.7,0-32.6c0-2.2,1-3.9,3-4.9c2-1,3.9-0.8,5.7,0.6c1.3,1.1,2,2.5,2,4.2
	c0,18,0,35.9,0,53.9c0,0.2,0,0.5,0,0.7c0,0.9,0.5,1.2,1.2,0.7c3.2-1.9,6.5-3.7,9.7-5.6c0.5-0.3,0.6-0.8,0.6-1.3c0-8.2,0-16.3,0-24.5
	c0-3.7,0-7.4,0-11.1c0-4.3,4.1-6.8,7.8-4.8c3.8,2,7.5,4.3,11.3,6.4c7.6,4.4,15.3,8.8,22.9,13.2c3.4,1.9,4.2,5.4,2,8.3
	c-0.4,0.6-1,1-1.6,1.3C84,78.8,66.3,89,48.6,99.2c-1.1,0.6-2.2,1.3-3.3,2c-1.8,1-3.6,1.2-5.4,0.1c-1.8-1-2.7-2.7-2.7-4.8
	C37.2,85.7,37.2,74.9,37.2,64.1z M69.9,63.9c0,3,0,6.1,0,9.1c0,1.2,0.4,1.4,1.4,0.9c5.3-3.1,10.6-6.1,15.9-9.2c1-0.6,1-1,0-1.6
	C82,60.1,76.6,57,71.3,54c-1-0.6-1.4-0.4-1.4,0.9C69.9,57.9,69.9,60.9,69.9,63.9z"/>
</svg>
