<?xml version="1.0" encoding="UTF-8"?><svg id="Layer_1" xmlns="http://www.w3.org/2000/svg" xmlns:xlink="http://www.w3.org/1999/xlink" viewBox="0 0 128 128"><defs><style>.cls-1{fill:url(#linear-gradient);}.cls-1,.cls-2,.cls-3{stroke-width:0px;}.cls-2{fill:url(#linear-gradient-2);fill-rule:evenodd;}.cls-3{fill:url(#linear-gradient-3);}</style><linearGradient id="linear-gradient" x1="107.99" y1="111.42" x2="21.02" y2="17.67" gradientUnits="userSpaceOnUse"><stop offset="0" stop-color="#efffcb"/><stop offset=".5" stop-color="#d4f7de"/><stop offset="1" stop-color="#bdefef"/></linearGradient><linearGradient id="linear-gradient-2" x1="54.16" y1="-10132.55" x2="75.62" y2="-10260.34" gradientTransform="translate(0 -10111.29) scale(1 -1)" gradientUnits="userSpaceOnUse"><stop offset="0" stop-color="#42afb6"/><stop offset="1" stop-color="#225b53"/></linearGradient><linearGradient id="linear-gradient-3" x1="99.4" y1="-10124.95" x2="120.86" y2="-10252.74" xlink:href="#linear-gradient-2"/></defs><circle class="cls-1" cx="64" cy="64" r="63.5"/><g id="VIRTUAL"><path class="cls-2" d="m80.22,66.12c7.07-2.47,13.73-6.68,18.83-11.25h0c.2-.18.32-.43.34-.7.02-.27-.06-.54-.22-.76-.16-.22-.4-.36-.67-.42-.27-.05-.54,0-.78.14-5.11,3.06-10.75,5.48-16.53,6.95.17-2.2.14-4.41-.15-6.61-.65-4.89-2.31-9.77-5.76-13.49-3.82-4.23-10.09-5.81-15.5-4.12-6.5,1.93-11.92,7.8-12.13,14.79-.26,9.21,8.31,16.72,17.04,17.56,1.02.11,2.04.17,3.08.17-1.61,3.52-3.7,6.88-5.93,9.99-6.86-11.32-17.15-20.59-29.37-25.67-2.85-1.2-5.8-2.15-8.82-2.82-1.03-.21-2.01-.4-3.09-.52-.26-.02-.53.05-.74.2-.22.15-.37.38-.44.63-.07.26-.04.53.08.76.12.24.32.42.56.53,6.83,3.38,13.09,7.79,18.56,13.07,7.09,6.83,12.68,15.05,16.4,24.14,1.64,3.92,6.8,5.35,10.25,2.83.53-.39,1.01-.84,1.44-1.34,3.09-3.35,5.81-7.03,8.12-10.96,2.36-4.02,4.29-8.48,5.43-13.12Zm-15.3,17.95h0s.09.18.09.18c-.03-.06-.06-.12-.09-.18Zm5.26-22.59c.54-2.31.81-4.65.72-7.01-.23-4.24-1.86-10.23-6.9-10.32-4.34-.05-8.33,4.05-7.09,8.4,1.84,6.35,7.32,8.67,13.26,8.93Z"/><path class="cls-3" d="m102.4,50.54c.44,2.07,1.13,3.39,3.13,3.12,1.72-.23,3.13-1.95,3.13-3.67s-1.42-2.84-3.13-2.57c-2.17.34-3.49,1.43-3.13,3.12Z"/></g></svg>