<?xml version="1.0" encoding="utf-8"?>
<!-- Generator: Adobe Illustrator 26.0.3, SVG Export Plug-In . SVG Version: 6.00 Build 0)  -->
<svg version="1.1" id="Layer_1" xmlns="http://www.w3.org/2000/svg" xmlns:xlink="http://www.w3.org/1999/xlink" x="0px" y="0px"
	 viewBox="0 0 128 128" style="enable-background:new 0 0 128 128;" xml:space="preserve">
<style type="text/css">
	.st0{fill:#0028BB;}
	.st1{fill:#D0D7E2;}
	.st2{fill:#FFFFFF;}
	.st3{fill:#F4CE30;}
	.st4{fill:#E5BA39;}
</style>
<circle class="st0" cx="64" cy="64" r="64"/>
<g>
	<path class="st1" d="M64,112.1V43.5c0,0,14.3,2.5,28.4,13.9C92.4,57.3,99.8,94.4,64,112.1z"/>
	<path class="st2" d="M64,112.1V43.5c0,0-14.3,2.5-28.4,13.9C35.6,57.3,28.2,94.4,64,112.1z"/>
	<polygon class="st0" points="68.8,36.1 59.2,36.1 57.1,85.8 64,99.5 70.8,85.8 	"/>
	<path class="st3" d="M68,34.6l-1.2-10.7c1-0.8,1.7-2.1,1.7-3.5c0-2.5-2-4.5-4.5-4.5c-2.5,0-4.5,2-4.5,4.5c0,1.4,0.6,2.6,1.6,3.5
		l-1.2,10.7c-3.3,1-8.5,3-14.8,6.5l1.9,3.1c0,0,12.5-5.4,16.9-7.1c4.3,1.7,16.9,7.1,16.9,7.1l1.9-3.1C76.5,37.6,71.3,35.6,68,34.6z"
		/>
	<path class="st4" d="M80.8,44.1l1.9-3.1c-6.2-3.5-11.4-5.4-14.7-6.5l-1.2-10.7c1-0.8,1.7-2.1,1.7-3.5c0-2.5-2-4.5-4.5-4.5v21.2
		C68.4,38.7,80.8,44.1,80.8,44.1z"/>
</g>
</svg>
