<svg id="Layer_1" xmlns="http://www.w3.org/2000/svg" viewBox="0 0 32 32"><style>.st1{fill:#1269ab}.st2{fill:#3fbced}</style><circle cx="16" cy="16" r="16" fill="#fff"/><path class="st1" d="M16 14.8l-9.5 5.5v3.1l9.5-5.6 9.5 5.6v-3L16 14.8z"/><path class="st2" d="M9.3 11.4l6.7-4 6.7 4 2.6-1L16 5l-9.3 5.3 2.6 1z"/><path class="st1" d="M22.7 12v8.6l-1 .6 2.2 1.3 1.6-1V10.9L22.7 12zm-12.4 9.2l-1-.6V12L6.5 11v10.6l1.6 1 2.2-1.3z"/><path class="st2" d="M21.1 21.6l-5.1 3-5.2-3-2 1.2L16 27l7.3-4.2-2.2-1.3z"/></svg>