<?xml version="1.0" encoding="UTF-8"?><svg id="CIRCLE_OUTLINE_BLACK" xmlns="http://www.w3.org/2000/svg" viewBox="0 0 512 512"><circle cx="256" cy="256" r="256" fill="#fff"/><g id="Layer_2"><g id="Layer_1-2"><g id="Page-1"><g id="wbtc_colour"><path id="Shape" d="m404.71235,119.19845l-12.94652,12.94652c64.03202,70.02359,64.03202,177.34123,0,247.36482l12.94652,12.94652c71.23963-77.27266,71.23963-196.2873,0-273.55994v.30208Z" fill="#5a5564"/><path id="Shape-2" d="m132.44708,120.32048c70.02359-64.03203,177.34123-64.03203,247.36482,0l12.94652-12.94652c-77.27266-71.23963-196.2873-71.23962-273.55994,0l13.2486,12.94652Z" fill="#5a5564"/><path id="Shape-3" d="m120.32051,379.63924c-63.95315-70.00456-63.95315-177.2308,0-247.23536l-12.94652-12.94652c-71.23963,77.27264-71.23962,196.28728,0,273.55994l12.94652-13.37806Z" fill="#5a5564"/><path id="Shape-4" d="m379.63927,391.59321c-70.02359,64.03202-177.34123,64.03202-247.36482,0l-12.94652,12.94652c77.27264,71.23963,196.28728,71.23963,273.55994,0l-13.2486-12.94652Z" fill="#5a5564"/><path id="Shape-5" d="m337.73571,212.80177c-2.5893-27.01506-25.89304-36.07764-55.36795-38.83956v-37.19966h-22.78587v36.50918h-18.21144v-36.50918h-22.61324v37.4586h-46.21907v24.38262s16.83048-.30208,16.57154,0c6.30758-.6939,12.03156,3.73264,12.94652,10.01197v102.53644c-.13099,2.15252-1.12719,4.16053-2.76192,5.56701-1.60429,1.43354-3.724,2.15048-5.86909,1.98513.30208.25892-16.57154,0-16.57154,0l-4.31551,27.23083h45.78752v38.06276h22.78587v-37.50176h18.21144v37.32914h22.82903v-37.63122c38.49431-2.33038,65.33676-11.82448,68.70285-47.85895,2.71876-29.00021-10.91823-41.94673-32.71155-47.16848,13.2486-6.51642,21.44807-18.59984,19.5924-38.36486Zm-31.93475,81.04522c0,28.30971-48.50628,25.07308-63.9558,25.07308v-50.23249c15.44952.04316,63.9558-4.40182,63.9558,25.15941Zm-10.57298-70.77431c0,25.89304-40.47945,22.74272-53.33966,22.74272v-45.65806c12.86021,0,53.33966-4.05657,53.33966,22.91534Z" fill="#f09242"/><path id="Shape-6" d="m255.95686,491.75611c-130.2045-.02384-235.7368-105.59475-235.71297-235.79924.02382-130.2045,105.59474-235.7368,235.79925-235.71297,130.1708.02382,235.68913,105.54214,235.71296,235.71296.02384,130.20451-105.50845,235.77542-235.71295,235.79926h-.0863Zm0-453.12816c-119.97973.09534-217.16523,97.43543-217.06988,217.41516.09535,119.97971,97.43542,217.16523,217.41516,217.06988,119.87859-.09525,217.02225-97.27754,217.06993-217.15616.04771-119.97976-97.17646-217.28124-217.15621-217.32894-.08633-.00003-.17267-.00002-.259.00006Z" fill="#282138"/></g></g></g></g></svg>