<?xml version="1.0" encoding="UTF-8"?>
<svg id="Layer_1" xmlns="http://www.w3.org/2000/svg" version="1.1" viewBox="0 0 500 500">
  <!-- Generator: Adobe Illustrator 29.0.1, SVG Export Plug-In . SVG Version: 2.1.0 Build 192)  -->
  <defs>
    <style>
      .st0 {
        fill: #d19e89;
      }

      .st1 {
        fill: #dca78e;
      }

      .st2 {
        fill: #673222;
      }

      .st3 {
        fill: #f6b89b;
      }

      .st4 {
        fill: #bfb18b;
      }

      .st5 {
        fill: #bd8670;
      }

      .st6 {
        fill: #3c240f;
      }

      .st7 {
        fill: #3d2307;
      }

      .st8 {
        fill: #bca471;
      }

      .st9 {
        fill: #a77865;
      }

      .st10 {
        fill: #c89078;
      }

      .st11 {
        fill: #9b733d;
      }

      .st12 {
        fill: #663f33;
      }

      .st13 {
        fill: #f1bc9c;
      }

      .st14 {
        fill: #ad735f;
      }

      .st15 {
        fill: #aa7060;
      }

      .st16 {
        fill: #8b5c50;
      }

      .st17 {
        fill: #baae8c;
      }

      .st18 {
        fill: #d4a589;
      }

      .st19 {
        fill: #8c5d4e;
      }

      .st20 {
        fill: #867a64;
      }

      .st21 {
        fill: #a16e58;
      }

      .st22 {
        fill: #804a3b;
      }

      .st23 {
        fill: #b48977;
      }

      .st24 {
        fill: #945944;
      }

      .st25 {
        fill: #7e6c4f;
      }

      .st26 {
        fill: #7b5928;
      }

      .st27 {
        fill: #c0a572;
      }

      .st28 {
        fill: #8d5743;
      }

      .st29 {
        fill: #ba7f6c;
      }

      .st30 {
        fill: #ce937c;
      }

      .st31 {
        fill: #786a50;
      }

      .st32 {
        fill: #dbaa96;
      }

      .st33 {
        fill: #b67a60;
      }

      .st34 {
        fill: #f3b79c;
      }

      .st35 {
        fill: #5d3830;
      }

      .st36 {
        fill: #b19e78;
      }

      .st37 {
        fill: #c69b84;
      }

      .st38 {
        fill: #8d6f43;
      }

      .st39 {
        fill: #371e0b;
      }

      .st40 {
        fill: #d89b7e;
      }

      .st41 {
        fill: #685128;
      }

      .st42 {
        fill: #553e1f;
      }

      .st43 {
        fill: #a38f69;
      }

      .st44 {
        fill: #caa86d;
      }

      .st45 {
        fill: #b1925d;
      }

      .st46 {
        fill: #c38b72;
      }

      .st47 {
        fill: #f8ba9e;
      }

      .st48 {
        fill: #713c2b;
      }

      .st49 {
        fill: #be8b7c;
      }

      .st50 {
        fill: #c38c75;
      }

      .st51 {
        fill: #422a16;
      }

      .st52 {
        fill: #493318;
      }

      .st53 {
        fill: #90784d;
      }

      .st54 {
        fill: #534935;
      }

      .st55 {
        fill: #694b22;
      }

      .st56 {
        fill: #ca9982;
      }

      .st57 {
        fill: #6c3928;
      }

      .st58 {
        fill: #a8816f;
      }

      .st59 {
        fill: #482511;
      }

      .st60 {
        fill: #9a6352;
      }

      .st61 {
        fill: #553a18;
      }

      .st62 {
        fill: #c3856c;
      }

      .st63 {
        fill: #9d6c5a;
      }

      .st64 {
        fill: #58401e;
      }

      .st65 {
        fill: #e2b19e;
      }

      .st66 {
        fill: #f0cbb2;
      }

      .st67 {
        fill: #ba8875;
      }

      .st68 {
        fill: #6a3a2c;
      }

      .st69 {
        fill: #e6a68a;
      }

      .st70 {
        fill: #8c5f4d;
      }

      .st71 {
        fill: #8d5b4d;
      }

      .st72 {
        fill: #d6a087;
      }

      .st73 {
        fill: #f6bd9b;
      }

      .st74 {
        fill: #694f2c;
      }

      .st75 {
        fill: #c7a974;
      }

      .st76 {
        fill: #7e5d2d;
      }

      .st77 {
        fill: #efb69b;
      }

      .st78 {
        fill: #30200a;
      }

      .st79 {
        fill: #dcb299;
      }

      .st80 {
        fill: #5f563f;
      }

      .st81 {
        fill: #f1b497;
      }

      .st82 {
        fill: #db9d7d;
      }

      .st83 {
        fill: #bf9758;
      }

      .st84 {
        fill: #debaa8;
      }

      .st85 {
        fill: #65382b;
      }

      .st86 {
        fill: #8c5946;
      }

      .st87 {
        fill: #917f5b;
      }

      .st88 {
        fill: #9c6a56;
      }

      .st89 {
        fill: #c69680;
      }

      .st90 {
        fill: #484231;
      }

      .st91 {
        fill: #987060;
      }

      .st92 {
        fill: #bc8a77;
      }

      .st93 {
        fill: #cf9b87;
      }

      .st94 {
        fill: #be886e;
      }

      .st95 {
        fill: #5e2f20;
      }

      .st96 {
        fill: #8d4f3a;
      }

      .st97 {
        fill: #c5a061;
      }

      .st98 {
        fill: #6e453a;
      }

      .st99 {
        fill: #0b0604;
      }

      .st100 {
        fill: #695941;
      }

      .st101 {
        fill: #9a664f;
      }

      .st102 {
        fill: #9b6d59;
      }

      .st103 {
        fill: #a98958;
      }

      .st104 {
        fill: #e4a581;
      }

      .st105 {
        fill: #d2967a;
      }

      .st106 {
        fill: #826d47;
      }

      .st107 {
        fill: #7b4030;
      }

      .st108 {
        fill: #6f562f;
      }

      .st109 {
        fill: #ad7c69;
      }

      .st110 {
        fill: #624225;
      }

      .st111 {
        fill: #88594d;
      }

      .st112 {
        fill: #a28d6e;
      }

      .st113 {
        fill: #0b0a07;
      }

      .st114 {
        fill: #a08961;
      }

      .st115 {
        fill: #a06e5c;
      }

      .st116 {
        fill: #cc9887;
      }

      .st117 {
        fill: #653f2f;
      }

      .st118 {
        fill: #ecaf94;
      }

      .st119 {
        fill: #684035;
      }

      .st120 {
        fill: #ca907a;
      }

      .st121 {
        fill: #4c4236;
      }

      .st122 {
        fill: #b5836a;
      }

      .st123 {
        fill: #877659;
      }

      .st124 {
        fill: #b97b65;
      }

      .st125 {
        fill: #da9c80;
      }

      .st126 {
        fill: #532f1e;
      }

      .st127 {
        fill: #e4ab92;
      }

      .st128 {
        fill: #a2715b;
      }

      .st129 {
        fill: #f5b898;
      }

      .st130 {
        fill: #d2a08d;
      }

      .st131 {
        fill: #775d31;
      }

      .st132 {
        fill: #a8674b;
      }

      .st133 {
        fill: #cf957b;
      }

      .st134 {
        fill: #6d4d22;
      }

      .st135 {
        fill: #735735;
      }

      .st136 {
        fill: #69413a;
      }

      .st137 {
        fill: #5f431c;
      }

      .st138 {
        fill: #3b1f0c;
      }

      .st139 {
        fill: #5d352c;
      }

      .st140 {
        fill: #976755;
      }

      .st141 {
        fill: #dac69f;
      }

      .st142 {
        fill: #dc997d;
      }

      .st143 {
        fill: #b47963;
      }

      .st144 {
        fill: #e7ab94;
      }

      .st145 {
        fill: #a39269;
      }

      .st146 {
        fill: #a0776b;
      }

      .st147 {
        fill: #c18f74;
      }

      .st148 {
        fill: #b98471;
      }

      .st149 {
        fill: #dca68e;
      }

      .st150 {
        fill: #49281f;
      }

      .st151 {
        fill: #7c4d3c;
      }

      .st152 {
        fill: #1c150d;
      }

      .st153 {
        fill: #aa7b66;
      }

      .st154 {
        fill: #401e15;
      }

      .st155 {
        fill: #cbbc95;
      }

      .st156 {
        fill: #c78568;
      }

      .st157 {
        fill: #a87666;
      }

      .st158 {
        fill: #b7795f;
      }

      .st159 {
        fill: #d0977e;
      }

      .st160 {
        fill: #62553c;
      }

      .st161 {
        fill: #794e3e;
      }

      .st162 {
        fill: #e2a685;
      }

      .st163 {
        fill: #d29171;
      }

      .st164 {
        fill: #9c7f49;
      }

      .st165 {
        fill: #af8749;
      }

      .st166 {
        fill: #7d4735;
      }

      .st167 {
        fill: #554018;
      }

      .st168 {
        fill: #b37d65;
      }

      .st169 {
        fill: #58352a;
      }

      .st170 {
        fill: #e2a88f;
      }

      .st171 {
        fill: #220c02;
      }

      .st172 {
        fill: #0c0806;
      }

      .st173 {
        fill: #432616;
      }

      .st174 {
        fill: #6f614c;
      }

      .st175 {
        fill: #7f4632;
      }

      .st176 {
        fill: #43220e;
      }

      .st177 {
        fill: #d9a498;
      }

      .st178 {
        fill: #e9c1ac;
      }

      .st179 {
        fill: #816332;
      }

      .st180 {
        fill: #282516;
      }

      .st181 {
        fill: #925e4d;
      }

      .st182 {
        fill: #5d3930;
      }

      .st183 {
        fill: #fabfa0;
      }

      .st184 {
        fill: #e0bdaa;
      }

      .st185 {
        fill: #827255;
      }

      .st186 {
        fill: #8c744b;
      }

      .st187 {
        fill: #ab844c;
      }

      .st188 {
        fill: #ce937b;
      }

      .st189 {
        fill: #d3a08a;
      }

      .st190 {
        fill: #9e6c5d;
      }

      .st191 {
        fill: #916950;
      }

      .st192 {
        fill: #d2a18c;
      }

      .st193 {
        fill: #5f5444;
      }

      .st194 {
        fill: #9b7f4d;
      }

      .st195 {
        fill: #9b8258;
      }

      .st196 {
        fill: #5c4b2f;
      }

      .st197 {
        fill: #e8b096;
      }

      .st198 {
        fill: #754636;
      }

      .st199 {
        fill: #f2d0b7;
      }

      .st200 {
        fill: #e0af9a;
      }

      .st201 {
        fill: #96644f;
      }

      .st202 {
        fill: #471708;
      }

      .st203 {
        fill: #e1ad9b;
      }

      .st204 {
        fill: #643b2d;
      }

      .st205 {
        fill: #8e6453;
      }

      .st206 {
        fill: #ecb598;
      }

      .st207 {
        fill: #522e23;
      }

      .st208 {
        fill: #6d3f33;
      }

      .st209 {
        fill: #7e5140;
      }

      .st210 {
        fill: #936051;
      }

      .st211 {
        fill: #7c5342;
      }

      .st212 {
        fill: #d7a692;
      }

      .st213 {
        fill: #6f3726;
      }

      .st214 {
        fill: #594a31;
      }

      .st215 {
        fill: #724941;
      }

      .st216 {
        fill: #a38d65;
      }

      .st217 {
        fill: #ddcfaa;
      }

      .st218 {
        fill: #b4755c;
      }

      .st219 {
        fill: #754438;
      }

      .st220 {
        fill: #49271f;
      }

      .st221 {
        fill: #cf987f;
      }

      .st222 {
        fill: #dbbc8a;
      }

      .st223 {
        fill: #5b362d;
      }

      .st224 {
        fill: #ecaf90;
      }

      .st225 {
        fill: #d1af72;
      }

      .st226 {
        fill: #bf8367;
      }

      .st227 {
        fill: #bc8a75;
      }

      .st228 {
        fill: #634a28;
      }

      .st229 {
        fill: #e9b397;
      }

      .st230 {
        fill: #7c5747;
      }

      .st231 {
        fill: #dec9b5;
      }

      .st232 {
        fill: #c1b18a;
      }

      .st233 {
        fill: #c48b70;
      }

      .st234 {
        fill: #896f45;
      }

      .st235 {
        fill: #b68370;
      }

      .st236 {
        fill: #624a30;
      }

      .st237 {
        fill: #915535;
      }

      .st238 {
        fill: #d5b0a0;
      }

      .st239 {
        fill: #6e593e;
      }

      .st240 {
        fill: #d09779;
      }

      .st241 {
        fill: #573326;
      }

      .st242 {
        fill: #825144;
      }

      .st243 {
        fill: #c48a75;
      }

      .st244 {
        fill: #83785a;
      }

      .st245 {
        fill: #81564b;
      }

      .st246 {
        fill: #caa569;
      }

      .st247 {
        fill: #e4b3a6;
      }

      .st248 {
        fill: #f6bfa3;
      }

      .st249 {
        fill: #c2b59b;
      }

      .st250 {
        fill: #a47263;
      }

      .st251 {
        fill: #634c32;
      }

      .st252 {
        fill: #c78e79;
      }

      .st253 {
        fill: #64593b;
      }

      .st254 {
        fill: #716146;
      }

      .st255 {
        fill: #71503e;
      }

      .st256 {
        fill: #936e39;
      }

      .st257 {
        fill: #ddbb82;
      }

      .st258 {
        fill: #ad7760;
      }

      .st259 {
        fill: #36210a;
      }

      .st260 {
        fill: #6d5a3d;
      }

      .st261 {
        fill: #8a7140;
      }

      .st262 {
        fill: #ae745a;
      }

      .st263 {
        fill: #ce9272;
      }

      .st264 {
        fill: #f4c0a6;
      }

      .st265 {
        fill: #b29f74;
      }

      .st266 {
        fill: #723d29;
      }

      .st267 {
        fill: #7b633e;
      }

      .st268 {
        fill: #2c1205;
      }

      .st269 {
        fill: #c8947e;
      }

      .st270 {
        fill: #b17660;
      }

      .st271 {
        fill: #795b44;
      }

      .st272 {
        fill: #524126;
      }

      .st273 {
        fill: #c4a190;
      }

      .st274 {
        fill: #8f5c4d;
      }

      .st275 {
        fill: #5b4422;
      }

      .st276 {
        fill: #673928;
      }

      .st277 {
        fill: #827358;
      }

      .st278 {
        fill: #564a34;
      }

      .st279 {
        fill: #d39d8a;
      }

      .st280 {
        fill: #513714;
      }

      .st281 {
        fill: #766c4f;
      }

      .st282 {
        fill: #e9c6b1;
      }

      .st283 {
        fill: #a36c5b;
      }

      .st284 {
        fill: #97675c;
      }

      .st285 {
        fill: #988665;
      }

      .st286 {
        fill: #8b795b;
      }

      .st287 {
        fill: #93543b;
      }

      .st288 {
        fill: #7c4c3e;
      }

      .st289 {
        fill: #d5b09a;
      }

      .st290 {
        fill: #23221d;
      }

      .st291 {
        fill: #ac7463;
      }

      .st292 {
        fill: #e0a489;
      }

      .st293 {
        fill: #613c28;
      }

      .st294 {
        fill: #f0c0a7;
      }

      .st295 {
        fill: #a16e5c;
      }

      .st296 {
        fill: #c68e77;
      }

      .st297 {
        fill: #372e22;
      }

      .st298 {
        fill: #7c432c;
      }

      .st299 {
        fill: #9a8a69;
      }

      .st300 {
        fill: #64311e;
      }

      .st301 {
        fill: #654032;
      }

      .st302 {
        fill: #a09779;
      }

      .st303 {
        fill: #775b36;
      }

      .st304 {
        fill: #714236;
      }

      .st305 {
        fill: #b7a376;
      }

      .st306 {
        fill: #9a614e;
      }

      .st307 {
        fill: #373023;
      }

      .st308 {
        fill: #604a25;
      }

      .st309 {
        fill: #9c7e69;
      }

      .st310 {
        fill: #aa7665;
      }
    </style>
  </defs>
  <circle class="st249" cx="250" cy="250" r="248.5"/>
  <g>
    <path class="st103" d="M157.7,388.5c-4.8,1.8-6.2,4.5-4.3,8.2l-1.2,4.6c2.7,3.4,3.9,8,4,12.1-1.8,4.3-3.7,3.9-5.9,0-2.9,3.1-5.1-.5-6.6-3.5-1.7-23.2-19.6-7.6-22.7,4.7l-4.5,3.1c-.4.6-1.4,1.1-2.9,1.5h-23.5v-1.5c9.1-4.9,17.5-10.2,26-15.8s17.7-14.5,22.4-16.5c7.5-6.4,13.1-15,16.9-25.8l2.2-.5c2.4-1.8,3.9,0,4.3,5.7,10.8,4.2,6.3,26.1-4.3,23.6Z"/>
    <path class="st272" d="M216.3,384.1c.1-1.3.7-1.3,1.5,0l6.5,3.5c7.7,0,19.9,4.7,20.5,12.5,5.8.5,10.5,2,14,4.5,2.8-1.9,3.2-1.9,4.4,1.5,5.2.8,11,.6,17.3-.5v3.6c-2.7,1.7-4.1,4.6-4.1,8.7-3.7.4-7.6.9-11.7,1.5h-4.4c-8-.6-15.8-1.1-23.5-1.5-2.7-3.5-4.6-8.1-5.5-13.9-4.5,2.9-8.1,3.7-10.8,2.4-.6-8.6-1.4-9.9-8.6-13.5-.6-.5-.6-1,0-1.5-13.1,1.1-6.5-14.8,4.4-7.3Z"/>
    <path class="st260" d="M184,381.2c3.7-2.1,10.4,1.3,14.1,3.3,4.6,4.9,7.2,6.9,13.7,6.9.2.3-.2,1.1,0,1.5,12.3,2.9,9.8,19.2,1.5,24.9-1.8.5-3.7,1-5.9,1.5h-4.4c-7.5-.6-14.8-1.1-22-1.5-1.3,1.1-3.1,1.1-4.4,0-6.1-3.5-3.2-6.4,8.6-9-.9-8.7,1.1-12.1,5.9-10.2l-9.4-12.7.8-3.4v-1.5c.4-1.3.9-1.3,1.5,0Z"/>
    <path class="st199" d="M251.5,80.7c.6,1.3,2.7,3.2,2.9,4.4l-1.6,3.4-16.8,1.3c-7.1,1-8.9,1.9-11.2,7.8-3.6.4-6,.8-8.4,3.6-3.7,4.1-6.6,5.1-8.8,2.9.1-6.9,7.3-18.2,14.3-20.2s10,.6,13.6-3.3h16.1Z"/>
    <path class="st31" d="M333.6,392.9c1.4,5.3-10.1,12.8-15.7,12.5-7-5-11.4-1.2-13.2,11.4l-3.3,1.1c-2.3.5-4.7,1-7.3,1.5h-1.5c-2.1-.5-4-1-5.9-1.5-6.4-3.8-4-8.7,7.3-14.7-1.7-4.3,13.3-9.3,16.8-9.6s5.9.6,8.8,3.4c3.6-4,11.4-12.1,14-4Z"/>
    <path class="st261" d="M351.1,400.2c3.4-3.4,6.6-5.1,11.1-6.6,5.5-7.1,12.6-6.8,9.4,2.2-4.8,8.2-8.1,12.3-18.6,12-1,4.8,1.1,7,6.3,6.7l2,3.3c1.3.4,1.3.9,0,1.5h-5.9c-8.9-.6-17.7-1.1-26.4-1.5-4.3-4,2.5-5.7,6.7-5.7,1-5.8,3.8-6.8,9-5.9.7-6.6,2.8-8.6,6.3-5.9Z"/>
    <path class="st222" d="M116.6,417.8c3.6-3.5,6.2-7.6,7.7-12.3,9.9-6.3,16.8-1.9,18,9.6,4.8-1.1,7.9-.2,9.5,2.7,1.3.4,1.3.9,0,1.5h-38.1c.4-1.4,1.7-1.4,2.9-1.5Z"/>
    <path class="st216" d="M156.2,413.4c.7-4.1,1.2-3.5,2.9,0,2.1-1.9,2.9-1.1,1.5,1.5,4.3-1.6,14.5-1.8,16.1,2.9,1.5,0,2.9,0,4.4,0,1.3.4,1.3.9,0,1.5h-29.3v-1.5c-3.9-.7-3.9-1.3-1.5-4.4,1.9,0,3.9,0,5.9,0Z"/>
    <path class="st43" d="M301.3,417.8c8.5-4.5,19.3-4.4,27.9,0,8.4,0,18.6-1.2,26.4,1.5h-61.6c1.2-2.3,5-1.4,7.3-1.5Z"/>
    <path class="st43" d="M389.3,419.3h-27.9v-1.5c1.2-4,4.7-4.1,5.9,0,8.9-1.6,12.3-4.1,10.2-7.4l3-1.4c2,2.7,8.9,5.3,8.8,10.3Z"/>
    <path class="st277" d="M213.4,417.8c6.9-4.5,16.5-4.4,23.5,0,1.3.4,1.3.9,0,1.5h-29.3c1-2.2,3.9-1.4,5.9-1.5Z"/>
    <path class="st20" d="M276.4,417.8c3.6-3.7,6.7-3.7,10.3,0,1.9,0,4.8-.7,5.9,1.5h-27.9c2.4-2.6,8.1-1.4,11.7-1.5Z"/>
    <path class="st231" d="M409.8,243.4v20.5h-1.5c-1.6-4.8-1.7-10.3-1.3-15.5-2.2-2.1-2.2-3.3-.2-3.6-2.5-2.7-2.5-4.1,0-4.4l2.9,2.9Z"/>
    <path class="st174" d="M260.3,419.3h-23.5v-1.5c7.5,0,16.9-1.2,23.5,1.5Z"/>
    <path class="st277" d="M203.1,419.3h-22v-1.5c7,.2,15.9-1.4,22,1.5Z"/>
    <path class="st186" d="M159.1,325.5c8-7.7,9.7,7,5.9,13.2l1.5.4c.4,7.5.3,15-.3,22.3,3.6,2.3,9.3,10.3,6.1,14,3.2,3.6,4.2,5.2,3.4,9.9,4.7,2.9,8.4,6.5,11.2,10.9,1.7,10.9-9.4,13.9-19.3,14.7-.5,3.4-2.8,4.7-7,4-.5-.2-1.1-1.4-1.5-1.5-2.6-.8-4.7-3.1-2.7-5.6,10.7-6.3,15.2-10.8-.8-12-4.7-4.2-3.4-6.1,2.1-7.3,5.8-3.4,9.3-11.7,7.1-18.1s-4-2.4-4.9-3.9c-1.3-2.2.1-5.8-2.2-7.3l-1.6-1.5c1.7-6.3,3.2-12.6,4.6-19,.1-5.4-1.2-9.1-1.5-13.2Z"/>
    <path class="st293" d="M172.3,243.4c1.2-.7,3.1-.8,3.4.3,2.4,9.5-1.7,17.6-10.7,21.2-1.8,5.3-4.9,7.1-9.3,5.4,0,7-2.2,12.7-6.4,17.2,2.3,1.4,4.4,15.9,3.9,16.7l-2.9.8c-.4,1.3-.9,1.2-1.5,0-1.5-.7-9.8-7.2-11.7-8.8-2.1-3.3-4.2-7.1-2.4-10.9-3.5-3.3-4.1-8.5-2-12.6-4.5-2.6-1.8-6.5,2.9-5.9,2.8-3.2,10-5,7.3,1.5l3.8-1.1c.3-3.9,1.9-5.5,5-4.8,3.9-6.5,6.3-7.9,7.3-4.4,4.8,1,7.1-.9,1.5-2.9-2.3,3.2-6,1.1-4.4-2.9-2.7-2.9-1.6-4.2,1.4-6.2,5.2-.2,10.1-.6,14.7-2.6Z"/>
    <path class="st289" d="M169.4,214.1c3.1,2.1-.7,4.5-2.9,5.9.8,2.4-3.9,4.2-5.9,2.9-3.3.6-4.8,3.1-4.4,7.3,1.2,1.8-.3,3.2-4.4,4.4-1.7,3.3-5.2,5.3-10.3,5.9,1.3,2.2.5,4-2.4,5.4,1.3,6-2.1,9.9-7.9,10.9.8,4.7-.2,7.6-2.9,8.6,3.3,2.8,2.9,4.1-1.5,4.4,2.2,2,1.2,2.9-1.5,1.5-.9-15.1,4.4-26,12.6-38s11.8-13.1,12.3-14.8c2.2.9.4,1.1.5,1,.6-1.2,2.3-4.8,3.2-5.6s1.2-.1,2.2.3c2.8-2.8,11.6-4.1,13.2,0Z"/>
    <path class="st273" d="M165,151.1c2.1,0,3.5.9,4.4,2.9,7.3-2.3,2.7,8.3-2.9,8.8-3.1,1.7-4.1,3.7-2.9,5.9-.5,3.4-1,6.8-1.5,10.3,1.8,4.7,1.2,12.2-2.9,16.1l2.1,2.4c-1.6,4.8-2.3,8.9-2.1,12.3,2.8,2,1.8,3.5-2.9,4.4-2.9,3.5-6.3,11.2-5.9,4.4.1-.4,0-1,0-1.5,1.6-4.7,1.1-9.9,0-14.7,1.7-17.9,6.6-34.7,13.2-51.3.4-1.1.9-1,1.5,0Z"/>
    <path class="st189" d="M187,115.9c7.2-4,12.1-3,14.7,2.9,1.3.4,1.3.9,0,1.5,1,1.7,3.9,10.6,1.8,12.4s-2.1.9-3.3.8c-1.3,4.8-6.3,7.6-7.3,1.5-2.2-2.2-1.7-5.6,1.5-10.3-2.5-2.5-4.3-1.3-2.9,1.5,1.3,5-11,11.2-14.8,11.9s-.8-.7-1.3-1.6c-3.5,5.3-5.6,2-2.9-2.9,5.7-4,9.6-8.4,11.7-13.2.7-.7,1.2-2.9,2.9-4.4Z"/>
    <path class="st112" d="M157.7,359.2c-1.6,6.1-8.6,20.2-12.5,24.9-2.1,2.5-5.3.9-6.6,1.4,9.6-14.4,16-30.6,22-46.9-.2,8.9-.7,12.1-2.9,20.5Z"/>
    <path class="st294" d="M207.5,118.8c-1.2,1.5-4.3,1-5.9,0-1.2.3-3.9,3.6-4.4,2.9v-5.9s-10.3,0-10.3,0c3.5-3,15.9-9.4,20.5-11.7,2.7-.4,3.3,1.7,1.8,6.5,4.1,3.1,2.4,5.7-1.8,8.2Z"/>
    <path class="st255" d="M126.9,269.8c2.5-3.6,4.4-2.6,5.9,2.9,4.3,1.3-1.2,12.2,5.9,8.8-.5,5.6-3.9,8.7-1.5,14.7-5.2-4.4-11.4-18.3-11.7-24.9.5-.4,1.2-.9,1.5-1.5Z"/>
    <path class="st191" d="M151.8,305c6.7,0,8.8,2.3,6.5,6.5l-.2,6.5c5.6.1,7.3,7.7,1.1,7.5-4.9-2-13.5-3.5-14.6-9.6-.8-4,3.1-.7,4.4-3.1s1.5-6,0-7.8c.4.2,1.1-.2,1.5,0,.5-.6,1-.6,1.5,0Z"/>
    <path class="st84" d="M172.3,133.5c-1.2,2.4.5,3.6,2.9,2.9,1.8,1.7.8,3.7-2.9,5.9,2.9,1.6,1.8,3.5-1.5,2.9-1.3,5.2-3.2,7.1-5.9,5.9h-1.5c2.7-6.9,4.7-11.4,8.8-17.6Z"/>
    <path class="st184" d="M184,120.3l2.9,5.8c-2.5.5-14.1,6.2-14.7,7.4,4.4-6.7,5.9-7.7,11.7-13.2Z"/>
    <path class="st289" d="M150.3,217c.7-4.4-.4-10,0-14.7,2.5,3.2,2.4,11.7,0,14.7Z"/>
    <path class="st73" d="M254.4,85.1c0,.5-.1,1,0,1.5,1.7,3,3.8,5.9,6.2,8.8,3.8-.6,6.2.3,7,2.9,2.5,1.7,8.3,5.7,5.7,8.4s-15.5,0-17.5-1c-3.9-.6-7.3-.6-10.3,0-.7,5.5-10.1,3.2-10.3-1.5-1.5-1.9,3.1-6.1,5.2-6.5s-10.5,10.1-14,.7c-3.8,3.2-6.7,4.2-8.8,2.9h-1.5c.2-6.4,6.6-3.7,7.3-4.4s-2.9-5.8,6.6-8.8,16.3-.6,24.2-2.9Z"/>
    <path class="st13" d="M330.6,186.2c1-7.4,6.1-7.4,15.4-.1-3.3-12.4,13.3.8,12.7,1.6-1.2,1.5-2.7,0-.2-1.5,0-4.2,3.4-4,4.4,0,1.5,2,2.9,3.5,4.4,4.4,3.3,1,3.7,4.8,6,6.5,6.4,4.8,6.3.5,13.1,9.6-4.5,3.6-2.3-1.1-1.3.2s-.8,3.1-3.1,2.7c-.9,5.3-11.7,1.1-14.7-2.9-2.4,5.3-9.6.6-10.3-2.9-1.3-2.7-.2-4.7,3.4-5.9-5.9,1-9.5-2.1-13.6-5.8-5.2.8-9.4,1.7-14.9,3.5l-1.2-2c-2.8,3.4-6.9,0-8.8-2.9-8.4-4.5,3.6-5.9,8.8-4.4Z"/>
    <path class="st129" d="M329.2,124.7c2.9-3.6,9.7,2.8,7.3,5.9-2,5.7-5.5,4.3-8.4-.4,2.6,3.1,4.5,3.8,8.4,3.3,3-1.6,5.9,0,8.8,4.4,5.6,4,6,9.1,8.8,13.2-1.8,1-2.5,4.3-2.7,7.3,2.1,3.7,1,6.1-3.1,4.4h-2.1c-3.9-6.9-8.8-12.8-14.9-17.5.8-2.9,0-4.8-2-5.9-2.2,7.2-13-5.8-8.8-8.8-2.9-1.8-2.7-7.2,1.5-5.9,1-2.1,3.5-2.1,7.3,0Z"/>
    <path class="st66" d="M254.4,86.6c3.3,2.4,8.6,2.1,11.3,3.4s2.3,4.5,7.1,5.4,4.1-2.7,7.1-3c9.6-1,29.6,7.7,37.5,13.3,2.6,4.9,0,5.1-4.4,2.9l-3.5,1.5c-7.3-3.8-14.7-7-22.2-9.6l-.6-2.2-3.8.4c-6,7.7-9,6-15.3-.4-2.7-.3-6.1.8-8.4-.4s-4.7-4.8-4.8-5.1c-.6-1.8.4-4.5,0-6.2Z"/>
    <path class="st178" d="M317.4,105.6c9,6.5,17.5,16.6,24.1,24.9s2.4,5.1,3.7,7.3c-1.6-1.1-6.9-1.8-8.8-4.4-3.7-.2-3.7-1.1,0-2.9-1-2.9-6.1-4.8-7.3-5.9-4.5.6-6.5-2.9-7.2-7.1-5.7-2.6-8.7-5.6-9-9.1,2.4.5,3.3-1.1,4.4-2.9Z"/>
    <path class="st79" d="M386.3,206.8c4.5,6.1,9.1,10.8,13.2,17.6,0,7.5-7,.9-8.8-2.9-1.3,3.6-2.3,2.8-4.4,0-3.6,2.1-4.5.8-2.9-2.9-3.7.9-4.2-2.1-1.5-8.8l1.5-4.4,2.9,1.5Z"/>
    <path class="st282" d="M367.3,190.6c-1.5-.4-3.2,4.4-4.4-4.4-3.9-.2-2.4-5.8-1.5-8.8-2.8.7-3.4-1.7-1.6-7.4-8.7-7.1-10.6-13.4-5.7-18.9,2.5,3.8,8.8,10,9.9,14.3,1.8,7.2-.2,17.9,3.3,25.3Z"/>
    <path class="st238" d="M406.8,240.5c.3,1.3-.2,3,0,4.4-2.6,2-4.9-1.5-5.9-4.4-3.2-1-6.7-2.8-2.9-5.9-1.3-.4-1.3-.9,0-1.5l.8-2.3c-2.3-3.1-2.1-5.2.6-6.5,3.6,5.8,5.8,9.1,7.3,16.1Z"/>
    <path class="st108" d="M373.1,332.8c-.4,7.4-1,14.8-2.9,22-1,8.1-2.3,15.9-3.8,23.4-3.3,9.4-17.6,13.2-25.5,10.3-2.7,1.5-3.5,1.2-5.3-1.1l-17.9.8c-3.5-1.6-3-3.2-.2-5.6-1.4-3.6.2-4.2,2.9-1.5,7.4-5.3,15.2-9.5,23.5-12.7.7-4,3.8-5.8,9.5-5.3-1.9-5.7.5-9.6,6.5-7.4,2.4-2.9,2.7-6.6.9-11,2.2-2.4,6.3-10.3,2.1-12-2.6-3.3,0-6.3,3.4-7.5-.7-10,1.9-15.1,7.9-15.4l-1,22.8Z"/>
    <path class="st209" d="M383.4,218.5c.2,0,2.6,2.5,2.9,2.9,2.3,1.9,4.7,3.9,7.3,5.9,3.9-2.9,6.8,2.9,4.4,5.9.2.4-.2,1.1,0,1.5-.5,2.7.5,5.1,2.9,7.3,1.9.9,3.8,2.9,1.5,4.4,4.7,3.7,3.2,14.9-3.6,10.2,2.3,2.9,4.5,5.9,6.5,8.9-.5.5-1.1,1-1.5,1.5-3.5,2.7-5.4,4.2-5.9,8.8-2.3,2.3-4.2,2.7-4.4,2.9-1.2.2-2.2-.2-2.8-1.2l1.3-13.8c-4.8-2.9-6.7-6.2-5.7-9.9l-2.6-3.9c.8-2.2,1.2-4.8,1.1-7.9-2.9,1.6-3.6-.2-4.5-2.7-4.2,3.2-11.2,4.7-8.4-2l-1.7-4c-4.1-1.4-3.4-5.3,0-7.3.4-2.6.4-5,0-7.3,1.6-1.6,2-3.6,1.5-5.9,2.2-2.3,12.6-2.4,9.2,3.2l2.5,2.6Z"/>
    <path class="st234" d="M380.5,409c-.5,4.1-5.4,1.4-5.9-1.5-2.8-.9-3.8-3.2-2.9-6.9-3.4-1.4-3.4-3.7,0-4.8l-2.2-5.8c-4.7,8.3-10.2,7.5-18.3,10.2-2-1.1-2-3.1,0-6l-12.4.3-2.3-3.1c-1.3-4.1,1.1-5.8,4.4-2.9,7.1-2.6,14.1-1,19.8-7.3,7.4-8.2.5-7.5.7-8.1.8-1.7,4.2-2,4.4-2.2,1.3-1.9-3.8-4.8-2.9-7.3l4.4,1.5c-.6-3.8,2.2-7.5,2.9-10.3.4,10.2,1.3,22.6,3.3,32.6,1.1,5.6,3.8,17.3,7,21.6Z"/>
    <path class="st36" d="M349.7,303.5c-2.8-4.3,12.8-25,14.7-13.2,2.9,1.6,5.8,3,8.8,4.4,4.4,0,1,7,1,6.6-.2-1.8,0-3,1.9-2.2l-2.9,33.7c.4-7.3-.3-14.7,0-22-5.8,5.6-4.5,15.5-10.2,22-.4,1.3-.9,1.3-1.5,0-3,5.7-5.9,7.6-8.8,5.9-2.3.3-3.5-1.3-3.8-4.6-6,2.3-10.6,2.4-13.8.2-.7,4-2.7,3.7-4.4,0-.4-6.8,17.5-8.7,20.5-4.4.6-3.4,7.1-6.4,10.3-4.4.6-6.1.7-12.6.3-19.3-10.3,4.5-14.4,3.6-12.1-2.7Z"/>
    <path class="st117" d="M386.3,253.7c2.7,2,4.7,6.6,8.8,8.4l-1.5,16.6c-.5.5-1,.9-1.5,1.5-2.8,3.4-9.2,3-12.1.3-1.2,1.4-3,2.8-4.8,2.2s-6-9.9-3.6-9.9c-4.2.1-4.7-4.4-2.9-7.3.4-.7.9-.7,1.5,0,3.2-3,7,.5,5.9,4.4,2.5-.5,3.1-2,3.1-4.4-3.8-6.9-4.2-9.6,2.8-13.2.5-.8,1-.8,1.5,0,2.4-3.9,2.8-2.6,2.9,1.5Z"/>
    <path class="st271" d="M371.7,272.7c6,15,5.8,3,6.6,2.9,5.9,3.3,6.1,6.8,13.9,4.4-.4.5-1.4,2.5-1.5,2.9-.2,2.8-2.7,4.5-7.5,5.2,3.8,4.2,4.8,7.9,3.1,10.9-4.3,0-7.4-2.6-10.3,0s-1.1,3.5-2.9,2.9c0-2.4-.1-4.9,0-7.3-2.2-2.2-2.2-5.6,0-10.3-2.1-4.5-5.9-7.2-11.2-8.2l-.5-2c-1.3-.4-1.3-.9,0-1.5,1.4-4,9.2-4.5,10.3,0Z"/>
    <path class="st309" d="M390.7,283c-1,7.6,5.9,15.9-4.4,16.1l-8.8-14.6c6.3,3.3,5.9-1.2,6.5-1.3,1.6,0,4.3,2.3,6.7-.2Z"/>
    <path class="st205" d="M402.4,246.3c.5-2.1,1.7-1.8,3.1-.6,2.1,1.8,1.9,15.1,1.3,18.2,0,0-1.1,1.1-1.5,1.5-8.3-1.2-7.7-9.1-14.7-12.5-1.2-3.4,5.6-.9,6.5-.6,2.8.8,4,2.9,6.7,2.8.3-3.1-.7-5.9-1.5-8.8Z"/>
    <path class="st58" d="M406.8,244.9c.9,6.2,2.4,12.5,1.5,19.1-.5.1-1.1-.2-1.5,0-.2-3.3-1.4-6.1-1.5-9.5-.1-4.8,4.7-6.2-2.9-8.1-.3-1.3-1.5-2.8-1.5-4.4-.9-.4-.8-.9,0-1.5,1.3,1.4,4.2,3,5.9,4.4Z"/>
    <path class="st230" d="M398,275.7c-3.1-6.6.2-6.9,5.9-8.8-2.1,2.7-2.1,4.9-5.9,8.8Z"/>
    <path class="st44" d="M150.3,413.4c.8,1.3,1.3,2.8,1.5,4.4-2.6-.5-10.2.9-11.5-.2s-2.8-11-3.2-11.4-8.1-.4-9.5-.2-5.1,5.9-5.7,7.4,1.1,4,.6,4.4-4.4-.1-5.9,0c-1.7-5.4,3.9-4.7,5.2-7.3s.1-5.5,1-7,13.6-9.1,15.1-9.1c5.5-.1,6.7,10.8,8.7,14.8s3.2,3.3,3.8,4.3Z"/>
    <path class="st164" d="M157.7,388.5l-2.9,4.4c15.6.2,20.3,8.2,5,16s-1,.8-.6,4.5c-.9-.1-2,0-2.9,0-5.1-2.6-3.5-6.3-4.7-8.4s-4-1.5-4-2.5,2.6-2.1,3-4.5-1.8-6.2-1.5-9.4h8.8Z"/>
    <path class="st25" d="M181.1,291.8c5.3,9.6,13.6,16.8,24.9,21.7,6.5,3.3,5.3,8.9-1.4,9.1l-2.4,2.2c-13.1-5.5-17.5-4.3-13.5,3.8,6.6-.4,13,0,19.3,1.5,8,14-7.6,11.6-17.7,9.9,2.9.7,4.8,2.2,5.5,4.6,1.2-.6,2.2-.6,2.9,0,4.5,1.3,6.6,6.8,4.1,10.9.4,1.3,26.1,4.4,21.6-7.2-4.4-1.6-6.1-3.8-5.2-6.6-1.3-.4-1.3-.9,0-1.5.7-2.8,3.4-3.2,8.2-1.4,2.4-3.5,6-6,10.9-7.4-2.7-2.4-1.7-5.3,2.9-8.8,1.1-3.8,1.6-3.8,2.9,0,1.8.7,1.8,3.2,0,7.3,1.3.1,1.3.7,0,1.5l-2,2.9c3.2,2.4,4.1,8.8-1.2,8.8,0,3.9-1.4,8-5.5,9.2-.5,7.5-4.9,18.1-14.3,17.7,2.6,2,3.9,4.3,3.9,6.8,2.8-2.9,4.7-.5,4.4,2.9,7.5,11.1-4.8,10.2-11.7,4.4-.5,0-1,0-1.5,0-9.2-1.6-17.5-8.7-20.5-17.6l-3.6.4c-1.4-1.3-13.6-16.4-14.4-17.9s-2.8-5.7-1.1-7.4c-3.9-7.3-8.2-14.6-12.6-22.1-6.9-8.8,8.6-39.3,17-27.7Z"/>
    <path class="st254" d="M254.4,388.5c-6.2-6.2,6.8-9.1,9.2-1.6,3.5-1.1,6.5,0,9.7,1.3,5.7-12,12.3-13.1,13.2,1.4,1.7-6.5,4.7-8.8,9-6.9,2.3-3.2,8.5-1.7,11.7,0,2.2,2,1.4,3.1-.3,4.9,3.9-3.8,7.4-5.5,10.5-4.9-.7,5.2,2.1,2.1,4.5,2.1,4.9,0,9.8.6,14.6-.7l4.4,4.4c-1.3.5-3,2.2-4.4,2.9.9,2.9-.5,3.4-2.9,1.5-7-3.1-9.9,6.7-13.9,6.8s-4.5-3.9-7.1-3.6-18,6.3-18.6,7.1c-2.2,1.5-3.1,1.1-4.4-.8-5,4.3-9,5.3-12,2.9-5.4,1.6-10.2,1.8-14.4.8-5.3.2-3.4-1.2-4.4-1.5l-3.6-2.5c-16.9.8-15.2-13.7-.8-13.6Z"/>
    <path class="st275" d="M195.8,366.5c6.7,7.2,13.5,11.4,20.5,17.6-3.2,0-5.8.7-8.8,1.5v2.2c1.2,1.4,3.4,2.1,4.4,3.7-7.8,6.7-11.4-2.3-16.6-5.4-2.8-1.6-8.4-1.7-11.2-4.9-3-2.5-2-10.4,2.9-10.3,1.6-1.7,3.8-1.3,6.7,1.4-.6-2.7-.9-4.6,2.1-5.8Z"/>
    <path class="st196" d="M211.9,392.9c2,1.7,8.1-.5,8.8,0s1.7,9.9,1.5,11.7c4,1,2.1-1.7,4-2.8s3.2.2,4.7-.8.6-4.1,2.9-3.7c-1,7,4.4,14.2,2.9,20.5-7.8,0-15.7-.2-23.5,0-.3-8.2,8-10.2,2.9-19.4s-2.8-3.1-4.4-5.5Z"/>
    <path class="st100" d="M230.9,379.7c4,3,8.4,4,13.2,2.9,5.3-2.7,10.1.4,10.3,5.9-2.6,4.3-10.2,4.3-8.8,9.5s13.8.5,13.2,6.6c-1.7-.5-3.7-1.3-4-1.4-3-.7-8.5.1-11.2-1.5s-.6-3.2-1.3-4-9.2-5.3-10.8-6.2c-4.4-2.3-10.9-2-13.8-7.5,4.2.5,7.6,4,10.8,1.6,1.9-1.4.6-4.1.9-6,.4-1.3.9-1.2,1.5,0Z"/>
    <path class="st160" d="M294,403.2c-.3.3.7,2.9-.3,4-1.7,1.9-10.7,3.1-7,10.7-3.4,0-6.9,0-10.3,0-1.7-1.6-4.2-7.2-2.9-8.8s5.7,1.9,4.4-2.9c-2.9-1.5-14.9,6.4-14.6,0,7.4-.3,23.9-1.4,26.4-8.8l4.4,5.8Z"/>
    <path class="st106" d="M182.6,382.7c3.2,2.9,15.9,18.9,13.2,22l-8.8-4.4c-1.3,1.4,6.6,8-1.8,12.1-4.2,2-9.9-1.4-8.4,5.5-8.7-.3-9.3-.7-16.1-2.9l4.4-2.9c-4.1-5,6.7-3.9,11.3-5.5,20.4-7.3-3.2-17.8-3.8-20.4s2.4-7.4-.2-10.8c3.5-.9,6.9,1.6,10.3,7.3Z"/>
    <path class="st131" d="M167.9,338.7c-.8,9,1.2,13.6,6.3,13.8-.9,8.1,1.9,15.9,8.5,23.4v5.2c-.1,0-.1,1.5-.1,1.5-1.7-1.5-7.9-4.3-10.3-7.3s-2.8-6.5-4.6-9.4-3.9-1.9-4.2-3.4-.4-9.2,0-11.2,2.3-.8,2.6-1.7c.4-1.3-.8-8.9-1.1-11,.4-1.3.9-1.3,1.5,0,.4-1.3.9-1.3,1.5,0Z"/>
    <path class="st41" d="M167.9,338.7c4-1.4,5.4,1.8,4.2,9.4,7.2-1.2,9.7,3.3,4.7,8.6,3.9,4.9,7.3,9.6,10.1,14.2l-2.9,10.3h-1.5c-3.3-4.9-6-9.8-8.9-15s-2.6-1.2-2.6-1.3c-.3-.5,2-3.2,2-5.8,0-6.8-4.1-5.9-4.9-8.1-1.1-3.3.3-8.6-.2-12.3Z"/>
    <path class="st229" d="M216.3,101.2h1.5c.3.7.5,1.3.2,1.6-6.8,9.3-6.6,3.1-1,.2s4.8-1.9,5.1,1.1c2-1.5,2.7-.8,1.5,1.5.8,0,1.5,0,1.9.4,1.2,1.2-1.7,11.4-5,6.9h-4.2c1.2,5.3-4.4,10.5-8.8,5.8,3.3-5.2,0-10.6,0-14.7,1.7-.8,6.6-1.4,8.8-2.9Z"/>
    <path class="st87" d="M336.5,391.5c4.6.8,14-1.4,17.6.7,2.4,1.4-1.8,6-3,8.1s-2,.6-2.6,2.5,0,6-.3,6.3c-.5.6-8.3-.6-8.8,0s.6,5.3,0,5.9-8.9-1-10.3,2.9c-9.3,0-18.6-.2-27.9,0,1.1-3.8,3.7-14.2,6.5-16.2,6-4.3,9,2,12.6,1s9.9-7.7,13.2-9.7,2-1,2.9-1.5Z"/>
    <path class="st179" d="M371.7,395.8c.5.4-1.4,4.4,2.9,1.5.2,3.4-.3,6.9,0,10.3,3.8,2.8,8.1,8.5-2.3,8.2l-5,2.1c-1.9,0-3.9.2-5.9,0-4-.3-8.6-2.6-13.2-1.5-.7-2.7,1.9-3.3,2.5-5.3s-1.3-3.6-.4-5c1.6-2.4,10.1-1.1,13-2.8s4.9-10.4,8.4-7.4Z"/>
    <path class="st38" d="M380.5,409c.6,1-2.1,6.5,0,8.8-4.4,0-8.8.2-13.2,0,1.9-4.7,5.8-4.8,10.3-4.4.6-2.4-2.4-.7-3-2.4s.1-2.3,0-3.4c1,.5,5.7,1.2,5.9,1.5Z"/>
    <path class="st239" d="M195.8,299.1c3.9,1.4,3.9,3.2,0,4.4,4.2-3.8,18.5,6.8,16.1,11.7-2.2,2.2-17.8-8.7-17.5-9.8s.7-1.4,1.3-2c-2.8,4.3-8.4-1.2-10.6-4.6l-4-7.1c-1.3-.3-5.9-.3-7,.3-3,8.3-10.7,12.7-8.7,22.1s6.4,13.2,9,17.2-3.4,3.9,5.3,3l-2.9,7.3-3,1.1c-2-5-4.5-6.4-7.3-4h-1.5c-.5-3.5,1-7-2.9-9.5,7.1-2.6-.4-2.6-2.9-3.7,0-1.4,1.8-4.1,1.5-4.4h-7.3c4.6-5.2-.5-9.9,4.4-14.7-2.7.8-4.2-.8-5.9-1.5,1-1.5,3.4-1.5,7.3,0,2.3-1.2.6.3.3,0-2.5-2.8,1.7-11.2,5.6-13.2,1.2-4,3-5.7,6.8-7,7.6-15.7,14.5-8.9,18,4.8,2.5,3.1,4.5,6.3,6,9.6Z"/>
    <path class="st126" d="M181.1,230.2c3.1-2.2,4.3,0,4.4,3.5l-4.7,12.3c4-1.4,7-1.3,9.1.3,2.3,2.7.3,4.6-5.9,5.9,4.3,3.9-2.7,13.4-7.3,10.3-9.8,3.9-11.4,5.1-10.2,15.9-2.3,2-4.9,1.8-7.8-.5.6,7.4-.3,14.8-2.9,22.3,3.8.6,4.9,2.2,3.3,4.8-2.4-.2-4.9.1-7.3,0-.4-.2-1.1.2-1.5,0,5.8-5.6-7-19.3-5.9-20.5s2.7.4,3.9-.4c7.6-5.2,2.7-17,4.9-18.7,2.6-.6,4.4,3.1,6.4,2.8s11.9-11.2,12.2-12c.8-1.9,2.3-10.8.4-12.8-7.3-1.6,1.1-8.8,4.5-11.7l2.9-1.5c.4-1.3.9-1.3,1.5,0Z"/>
    <path class="st204" d="M179.6,230.2c.8,5.7-5.8,7.4-7,9.1s0,3-.3,4c-1.5,5.6-4.2,4.5-9.8,5.3s-2.9-3.8-6.3,3.5c3,2.7-2,9.5-4.4,10.3-1.5,3.6-4.8,9.4-8.8,5.9.7-3.1-1.1-4.5-5.4-4.3.4-1-.6-2.2-3.1-3.6,3.2-9.6,4.5-12.1,14.4-9.6-2.3-2.5-.3-4.1,2.2-5.8-2.6-4.9-.6-10.9,1.5-6.6l.7-2.3c.9-4.5,5.5-5.8,13.8-3.8,7.9-5.6,12.1-6.2,12.6-2Z"/>
    <path class="st211" d="M141.5,240.5c7.9-5.1,13.7-1.2,7.1,6.4s-.5,2.7.2,3.9c-3.6,4.7-6.4,6.1,2.9,5.9-.8,3.1-4.5,3.4-7.2,2.8-1-1.6-.9-6.7-2.3-7.2-3.6-1.3-1.4,3.6-2.6,5.5s-2.2,0-2.5,1.1c-1.3,4.3,15.7,4.1,5.9,9.5-1.3-1.1-1.3-2.9-1.5-2.9-.9-.4-3.6,4.3-5.8,1.5l-1.2-1c-2.7,3.4-6,4.1-6.2-.5.4-3-1-7.9.7-10.3s5.1-1.6,6.9-3.5-.4-4.5.5-6.6,3.9-3.1,5.2-4.4Z"/>
    <path class="st204" d="M160.6,255.1c2.1-1.2,4.1-1.7,6.6-1.5,3.9.4-4,9.5-5.9,10.3l-2.2-5.9c-2.7-2.1-2-3.3,1.5-2.9Z"/>
    <path class="st91" d="M135.7,266.9c-.8,1.6-3.4,3-2.9,5.9-.2,0-2.7,1.9-2.9,1.5.2-3.2.7-5.2-2.9-4.4.8-1.5,1.2-2.7,1.5-4.4,2.1,3,8.1-3.7,8.8-2.9.5,2.1-.7,2.9-1.5,4.4Z"/>
    <path class="st126" d="M160.6,255.1c-.5.3-.9,2.3-1.5,2.9s-4.6-1.4-2.9,5.9l-4.4-1.5c1.4-3.4,2.6-6.5,4.4-10.3l4.4,2.9Z"/>
    <path class="st288" d="M195.8,205.3c2.1-1.8,2.9-.9,1.5,1.5,1.3.4,1.3.9,0,1.5-.1,2.8-2.2,4.5-6.3,5.2,1.9,6-.8,10-7.2,8.9,2.8,3.1,1.8,8.1-2.6,7.9h-1.5c-5.3-3.7-4.6,3.3-12.1,4.9s-15.1-3.3-14.3,1c-2,2.2-2.9,1.2-1.5-1.5.8-2,3.2-2.9,4.4-4.4-.8-4.6-1.3-7.9,4.4-7.3,2.5-2.7,3.7-1.9,5.9-2.9,2.3-2.3,9.7-9.4,8-4.2s3.7,1.8,5.2,1.2c2.8-1.2,3.8-2.2,2.9-2.9-3.7-1.8-2.8-3.1,1.5-2.9-1.9-4.7,1.7-5.6,5.9-4.4-.6-1.3,0-1.7,1.5-1.5,2.7-2.7,4.2-2.7,4.4,0Z"/>
    <path class="st264" d="M175.2,205.3c1.3.4,1.2.9,0,1.5,6.9-1.3,7.9,6.8,0,6.6,0,.8,0,1.7-.3,2.4s-5.1-.3-5.6-1.6c-4.1.5-9-.4-13.2,0,.7-.9,2.6-4.3,2.9-4.4.5-4.2,3.2-3.9,4.4,0,.5-3.5,4.3-5.2,7.3-4.4-.9-3.1,1.7-5,4.4-2.9,1.8-.3,1.8.7,0,2.9Z"/>
    <path class="st19" d="M141.5,240.5c2.8-3,6.4-4.2,5.9-8.8h1.4c-.4,3.5,1.6,2.4,3,2.9s.9,1.2,1.5,1.5c0,.2,2.9.4,1.4,2.9s-4.3-1-2.8,3c2.4-.4,9-2.6,5.8,1.4s-5.8,3.5-8.8,7.4c-4,1-3.6-2.7-2.8-5s11-4.8-4.6-5.3Z"/>
    <path class="st122" d="M175.2,206.8c5.8-6.1,16.2-7.8,8.2,2.1l.6,2.3c-.3.4-1.4,2.6-1.5,2.9-2.3,1.1-3.3,2.1-2.9,2.9-2.5.7-6.1,4.3-5.9-1.5h-1.4c.3,4.3-3.6,3.3-5.9,4.4l2.9-5.9c2.3-.3,7.9-1.7,8.8-3.7,1-2.5-2.3-2.5-2.9-3.6Z"/>
    <path class="st46" d="M160.6,222.9c-1.8,1.9-2.6,5.1-4.4,7.3,1.4-3.2-4.3-3.9-4.4-5.1-.3-4.2,5.5-4.8,8.8-2.2Z"/>
    <path class="st46" d="M163.5,215.6c1.1,4-3.8,4.1-7.3,4.4v-4.4s7.3,0,7.3,0Z"/>
    <path class="st32" d="M178.2,168.6c.1,4.9-4.2,19-10.3,16.1-2.7,6.9-8.1.2-3.7-5.4l-2.1-.4c-5.9,2.1-1.5-10.1,1.5-10.3.4-3.4,1.8-3.8,4.4-1.2,3.5-1.3,10.6-3.8,10.3,1.2Z"/>
    <path class="st310" d="M162.1,178.9c.9-1.5,3.9-6.1,5.9-5.1,3.6,1.7-5.1,8.1-2.9,11s2.7-.3,2.9,0c4.6.4,2.3,6.5,0,8.8.6,3.9,0,4-2.9,1.5-2.4.9-4.4.9-5.9,0,1-6.4-.4-10.4,2.9-16.1Z"/>
    <path class="st295" d="M165,195c2.5,3,2.7,13.1-1.5,14.7-1.2.3-3.5-.4-4.4,0-6.2,1.1-.6-10.6,0-14.7,3.1-2.1,4-4.5,5.9,0Z"/>
    <path class="st56" d="M166.4,162.8c4.6-4.1,7.5-4.1,8.8,0,1,2.2,3.2,2.9,6.5,2.4.4,3.3-.4,4.9-3.6,3.5l-.7-1.5c-5.5,3.9-9.9,1.2-13.9,1.5-7,.6-1.9-9.7,2.9-5.9Z"/>
    <path class="st206" d="M192.8,134.9c3.2,2.7,2.6,4-1.5,4.4l-.9,4.9c-2.3-1.2-4.4-.8-6.4.9,1.1,3-2.6,3.5-4.4,1.5,1.1,10.8-12.7,6.1-5.5-2.5l-1.8-1.9c.2-.6,2.7-5.6,2.9-5.9.4-.4,3.4-.4,4.9-1.6,4-3.3,6.4-5.9,11.2-8.6-.6-3.7.3-4.2,2.9-1.5,0,.2,1.7,1.4,1.5,3.5s-2.3,4.2-3,6.8Z"/>
    <path class="st67" d="M216.3,112.9c7.3-1,8.6,2.4,7.3,8.8,1.3.4,1.2.9,0,1.5l-1.9,3.4c-3.2-.9-5.5.4-8.4,2.5,1.2.3,1.2.8,0,1.5.3,3.5-2.2,6.3-4.4,2.9-4.3,0-6.7-6.2-3.9-9.6-2-.6-3.1-1.8-3.4-3.6v-1.5c1.6-.4,4.1.3,5.9,0,6.4-1,3.8-1.9,8.8-5.9Z"/>
    <path class="st71" d="M201.6,120.3c17.4.7,4.5,5.8,4.4,6.6s3.4,4.6,2.9,6.6c2.4,1.9,1.5,3.7-1.5,2.9-2.2,1.7-5.2,2.5-7.3,0-2.4.6-2.4-.3,0-2.9.9-4.2,4.4-6.5-2.9-5.9-.6-3.3,3.2-4.4,4.4-7.3Z"/>
    <path class="st88" d="M200.2,136.4c3.1,2.4,2.4,3.6-1.5,2.9-.2,7.9-15.2,9.1-7.3,0,.2-1.8,1.1-3,1.5-4.4,3.1,1.4,4.9.8,7.3-1.5-.2.9.1,2,0,2.9Z"/>
    <path class="st143" d="M191.4,126.1c-6.3.6-1.7-6.2,1-7.1,6.1-2,2,2.7,2,5.6-1,.5-2,.9-2.9,1.5Z"/>
    <path class="st149" d="M172.3,142.3c2.9.5,10.2-7.5,11.7-5.9,3.9,4.3-9.3,9.2-10.2,11-1.3,2.6,2.2,2.6,3.6,2.2s1.5-2.4,2.3-3c2.4.3,3.8,1.2,4.4,2.9,3.7,2.6.6,6.3-2.9,7.3,2.9,3.8-.6,7-4.4,4.4-.2,1.1-.7,1.6-1.5,1.5-.2-.2-4.7,0-4.9,0-1.5.4-.3,2.5-1.7,2.9-3.5,1-1.8-2.6-2.2-3-.3-2.9,3.4-4.7,3.9-6.6s-1-2-.9-2.2c-2.3-1.5-1.8-4.5,1.5-8.8.2-.9,1.1-2,1.5-2.9Z"/>
    <path class="st23" d="M169.4,154c-3,.4-5,.5-4.4-2.9l5.9-5.9c-.3,1.6,0,4.1-1.5,8.8Z"/>
    <path class="st162" d="M286.6,98.3l1.1,2.5c5.3.6,2.6,9.4-2.6,9.3-6.2,3.3-10.5,3.4-17.2.5-1.3,3.5-4.9,4.2-6.3,1-3.7-1.4-5.6-3.4-5.9-5.9,5.5-.4,10.7-1.8,16.1,0l-4.4-7.3c6,.6,4.3,2.9,5.3,3,4.1.6,6.9-4.2,10.3-4.5s3,1.4,3.5,1.5Z"/>
    <path class="st1" d="M235.3,104.2c2.4.1,6.6,2.7,10.3,1.5,1.3.4,1.3.9,0,1.5,1.6.9,1.6,1.9,0,2.9,2.1,3.5,2.1,5.4,0,5.9-5.2,8.4-18.6,14.3-15.3-.8-2.9-2.9-3.4-5.4.7-6.6-3-.4-4.5-1.4-4.4-2.9-2-2.6-1.2-3.5,1.5-1.5-.5-4.3,6.1-2.1,7.3,0Z"/>
    <path class="st270" d="M245.6,105.6c.6-.2,1-3.4,6.6-3.1s2.8,2.6,3.7,3.1c3.4,1.8,9.2,1.9,5.9,5.9.7,3.1-3,6.3-5.9,4.4-3.6,1.6-7.8-2.2-5.9-5.9-1.8-.1-3.3-1.1-4.4-2.9v-1.5Z"/>
    <path class="st133" d="M226.5,98.3c5.7-.4,4.3,3,5.2,3,4.6.2,6.6-5.9,7.4-6,2.4-.1,6.8,2.8,10.9,0v4.4c-5.2,0-11.7-1.1-14.6,4.4-1.7,0-5.5,0-7.3,0-3.7,1.4-4.4-2.6-1.5-4.4-1.3-.4-1.3-.9,0-1.5Z"/>
    <path class="st105" d="M226.5,98.3v1.5c-.4,3-1.9,4.5-4.4,4.4-.7.4-4.2-.7-5.6.2s-3.4,10.2-6.1,7.1,5.3-9.1,7.3-10.3,6-2.7,8.8-2.9Z"/>
    <path class="st224" d="M348.2,174.5c4.3,2.4,7.7,5.3,10.3,8.8,2.9.3,2.8,1.8,0,2.9l1.5,2.9c-7.9,1.3-6-4.9-11-7.3-1.5,2.6,2.5,5.1-1.5,7.3-3.6.9-9.3-6.1-13.1-6s-.3,1.9-3.7,3c-1.7,0-2.7-.4-2.9-1.5-1.2-2.1-.2-3.2,1.5-4.4-2.1-2.6-2.6-4.5-1.5-5.9,4.4-.7,9.2-1.2,14.7-1.5,1.3-4.2,6.1-2.8,5.9,1.5Z"/>
    <path class="st201" d="M349.7,196.5c4.1-.7,6.5,1.8,7.3,7.3,5.7,3.5,5.1,1.8,10.3,2.9,1.9.9,2.4,1.8,1.5,2.9-.6,3.1-1,3.9-4.4,2.9-1,4.2-4.4,2.4-6.2-.8-2.2,5.5-10.2,5.5-14.3,2.3-3.2,1.8-13.2,5.2-13.3-.6-5.1,1.1-11.4-7.4-4.3-6.8,1-1.4,2.5-2.9,4.4-4.4-.6-3.1,2.6-3.7,4.4-1.5,2.7.9,2.7,2,0,2.9-.9,1.7-1.4,3.2-1.5,4.4,4.5-1.1,9.6-.6,13.7,1.8-1.3-.1-1.6-.6-.5-1.8-1.7-2.3-.9-3.1,1.5-1.5.7-1.5,1.2-2.9,1.5-4.4-1.1-.9-2-1.9-2.9-2.9-3.3-2.6-.4-4.7,2.9-2.9Z"/>
    <path class="st240" d="M302.8,184.8c.3-5.2,11.8-4.6,15.4-2.1,2.8-3.6,9.1-2.4,9.5,2.1,1.2.3,2.5,0,2.9,1.5-3.6,1.2-6.3,2-10.3,1.5l1.5,2.9c-.5.6-1,.6-1.5,0-.4,1.3-.9,1.2-1.5,0l-4-.3c-3.8,2-13.1,3.3-13.6-2.7-2.5-.7-2-1.7,1.5-2.9Z"/>
    <path class="st40" d="M346.7,192.1c6,1.6,8.7,4.9,16.1,1.5,1.6,8.7-1.4,5.7-5.9,10.3-.4-.2-2.1.6-2.6-.2-2-2.8.6-1.9-4.7-7.1-3.5,1.7-4,.5-2.9-2.9-1.3-.4-1.3-.9,0-1.5Z"/>
    <path class="st94" d="M381.9,209.7c1.3.2,4.1,2.4,2.7,4.2s-5.2-.7-1.2,4.5c-.3,0-5.8,3-5.8-.7s8.3-5.6-5.9-5.1c-3.6,2.2-4.8.8-2.9-2.9-.6-.7-.9-2.1-1.5-2.9,4.8,1,6.7,3.6,8,3.8s4.3-1.2,6.6-.9Z"/>
    <path class="st296" d="M346.7,192.1v1.5c-.7,3.1-4.4,4-11.1,2.6-2.2,7.7-12.8-1.3-5-2.6,2.2.4,5-.2,7.3,0l-5.9-4.4c5.3-.9,9.7,1.6,14.7,2.9Z"/>
    <path class="st14" d="M330.6,193.6c-3,7.8,4.1,2.2,5.5,1.9,3.5-.7,7.2-.7,10.6-1.9,1.7.4,2.1,2.1,2.9,2.9l-2.9,2.9c-3.1,1.3-7,1.8-11.7,1.5-1.3.9-2.9,1.1-4.4,1.5-3.8-.9-5.7-2.8-5.9-5.9-4.2.4-6.7-2-4.4-5.9.5,0,1,0,1.5,0,3.3.3,6.3,2.5,8.8,2.9Z"/>
    <path class="st18" d="M362.9,186.2h-4.4c0-1,0-2,0-2.9-1.3-.3-1.3-.8,0-1.5-.2-4.9.8-6.4,2.9-4.4,1.1,4,.9,5,1.5,8.8Z"/>
    <path class="st156" d="M286.6,98.3c8.1,2.2,19,6.3,26.4,10.3s11,7,11.2,7.6c1.6,3.6-2.1,2.6,4.9,8.5-2.3,1.8-4.8.8-7.3,0-5.4-5.4-8.7-6.4-16.1-7.3-2.1,1.9-2.9,1-1.5-1.5,1.9-2.1,2.4-4,1.5-5.9-2.3,1.8-8.6,1.2-10.3-1.5-5.5.2,1,5,4.4,5.9-.8,3.9,1,7.4,5.4,10.5l-2.4,2.7c-9.2,8.4-17.6-9.2-17.6-17.6-1.1-3.5,4.7-4.4,4.4-5.1-.9-1.9-5.2-3.4-7.3-3.7l4.4-2.9Z"/>
    <path class="st163" d="M305.7,110c3.1,2.8,1.8,4.1-1.5,5.9l-1,1.8c6.7,3.4,11.4,8.2,14.2,14.3.2-2.8,1-3.8,2.9-1.5.3,2.1,2.8,3.7,3.8,5,2.2,3-2,3.2,5,3.8,3.1,1.3,3.7,8.2,0,5.9-2.1,3.3-5,2.3-5.9-1.5-4.5,2.6-5.1,1.7-7.1-2.9-5.3-.3-13.1-8.5-13.4-13.2-.5-7.9-13.5-9.7-2.9-13.2-1.3-.4-1.3-.9,0-1.5.5-1.8,2.5-2.7,5.9-2.9Z"/>
    <path class="st224" d="M354.1,151.1c-4.7,12,11.3,13.2,8.8,22.5-.6,2.3-3-1.5-1.4,3.9-.8,1.3-2.5,3.1-2.9,4.4-5.2-2.5-8.1-5.4-8.8-8.8-1.7-1.8-2.6-3.5-1.5-5.9-.8-1.8-.8-3.3,0-4.4,3.1-1,0-4.7,0-6.5s1.9-.9,2.8-2.1-1.4-4.2,3.1-3.2Z"/>
    <path class="st82" d="M329.2,139.3c5.7.4,1.3,2.6,3.6,5.9s3.7,1.3,5,2.4c4.6,4,7.2,9.9,10.4,15.2s1.7,2.6,2.9,3.7l-2.9.7c-1.2.5-2.6,1-3.8.5s-14-16.5-15.6-19l.4-3.5c2.5-.8,1.2-4.2,0-5.9Z"/>
    <path class="st142" d="M321.8,124.7c0,.3-2,2.6-1.5,5.9-.9.3-2.3,1.5-2.9,1.5-2.2-6.1-6.4-10.2-12.5-12.5l.7-2.1c6.7-3.7,15.9-.8,16.1,7.3Z"/>
    <path class="st104" d="M336.5,133.5c-.9,2.1-6.3,3.9-7.3,2.9s.4-2.5-.5-3.8-5-4-3.9-4.9c3.5-3.2,6.6,8.7,11.7,2.9.1.4.1,2.6,0,2.9Z"/>
    <path class="st37" d="M399.5,224.3c.4.3,1.8,9.8,1.5,10.3l-2.9-1.5c-1.6-4-1.8-2.7-4.4-5.9-3.1-.5-5.9-3.6-2.9-5.9,1.9.6,3.1,3.1,4.4,3.6s4.1-1,4.4-.6Z"/>
    <path class="st128" d="M390.7,221.4c.3,2.3,1.5,4.1,2.9,5.9-6.3,1.2-5.7-4-7.3-5.9,1.3.2,3.3-.3,4.4,0Z"/>
    <path class="st102" d="M401,241.9l-5.8-2.9-2.2,5.9c-.9-4.9-6.1-4-6.6-4.4s-.3-5.7,0-5.8c3.9-2.1,4.8,3,5.2,3,2.2,0,4.5-2.3,6.6-3,.5.9,2.5,5.4,2.9,5.9v1.5Z"/>
    <path class="st308" d="M362.9,332.8c1.8-.9,8.7-5.1,7.3-.8s-1.8,2.1-2.2,3.7c-1.4,5.2-4.1,8.3-4.5,10.2s4.5,3.7-.8,11c-2.4,3.3-3.4.9-7.1.9-.7,1.8,2.1,6.7,1.5,7.3-1.5,1.5-9.9,1.1-10.2,1.6-.4.8.4,3.1-.3,3.9-1.2,1.4-9.8.7-11,6.3l-15.1,4.3c-3-2.6-2.4-3.5,1.5-2.9v-3.9c3.3-2.1,6.8-4.7,10.3-7.9-.4-2.4,3.3-1.4,3.6-1.3,1.6.8-5.6,2.7-2-2.3,2.9-4,9.7-13,14.5-11.1,1.4-6.4,3.9-8.8,7.3-7.3l4.4-7.3c-1-.9-.5-2.4,1.5-4.4.4-.2,1.1.2,1.5,0Z"/>
    <path class="st185" d="M320.4,376.8c2.1-1.7,2.9-.9,1.5,1.5-.6.6-.9,2.4-1.5,2.9s-2.1.9-2.9,1.5c-4.4,3.3-4.2,1.2-4.4,1.5-.3.5.6,2.9-.3,4s-13.9,5.9-11.4,1.2l5.9-6.6c.2-2.8,2.6-4.3,7.3-4.4-1.6-4.8,3.5-5.5,5.9-1.5Z"/>
    <path class="st241" d="M370.2,225.8c.8,3.4,0,4.9,0,7.3,3.9,5.9,3.7,9.2-.7,10.1,1.7,5.6,5.2,5.8,10.6,6.2l1.9,2.8c1.6,4.3-3,3.9-3.1,6.5-.2,5,2.7,6.9,3.1,8.9s-4.6,1.4-2.9,5.1c-1.8.1-2.1-2.2-2.9-2.9-2.7-9.3-10.6-17.2-18-23.9l.4-4c-3.8,1.2-5.4-4.3-5.9-7.3.4-1.3.9-1.3,1.5,0,.4-2.5,2.1-3.2,5.3-2.1-.8-4.6-.5-8,5-6.7,1.1-2.5,4.5-2,5.9,0Z"/>
    <path class="st12" d="M370.2,233.1l2.9,5.9c2.9.8,5.6-3.4,7.9-2.8s2.7,4.3,3.8,5.8c-.3,3.4-.8,6.8-1.5,10.3-.5,0-1,.1-1.5,0-2.4-.5-7.9.7-11.7-2.3s-5.7-8.1-3.4-9.5,3.9.2,4.7-2.4-1.4-4.1-1.4-5Z"/>
    <path class="st48" d="M368.7,209.7c.3.4,2.8,2.8,2.9,2.9,2.1,1.4,6,1.5,5.9,2.2-1.9,4.1-2.7,4.2-7.3,3.7-2.4,3.1-7.9,1-5.9-2.9-3.9-.3-3.6-1.5,0-2.9,1.2-1.7,2-3.5,4.4-2.9Z"/>
    <path class="st250" d="M370.2,218.5c1.3.9,2.5,3.1,4.4,3.7.9,2.2-2.2,3-4.4,3.6l-12.1-4.3c-2.5-3.6,2.4-9.4,6.2-6,1.4,1.9,4.3,1.8,5.9,2.9Z"/>
    <path class="st276" d="M386.3,233.1l-11.7-3.7c2.4-3.6,6.6-3.6,10.2-5.1l1.5,8.8Z"/>
    <path class="st241" d="M384.9,241.9c1.4,1.9,5.2,4.7,4.1,7.1s-4.3.5-2.6,4.7c-.1,0-2.8-1.4-2.9-1.5l-4.4-7.3,5.9-2.9Z"/>
    <path class="st232" d="M349.7,303.5c4,6.9,5.3.9,7,0s3,.3,4.3-.4,1.1-2.7,1.8-3.3c3.9-3.6,1.3,9,1.4,10.3.2,5.3,1.6,10.1,1.5,15.4-1.3.4-3.4-.3-4.4,0-5-.9-7.8.6-10.3,4.4-7.9,1.7-11.4-.2-20.5,4.4-6.9,4.5-7.9-3.6-2.9-7.3.4-1.3.9-1.3,1.5,0,1.3-1.1,1-3.3-.9-6.6l2.4-2.2c5.7-3.8,11.5-7.7,17.6-11.7-2.9-2-2-3.6,1.5-2.9Z"/>
    <path class="st45" d="M364.3,290.3c-3.5-8.7-12.2,9.4-14.7,13.2s-1,2.1-1.5,2.9c-6.4,4-12.3,7.9-17.6,11.7,1.1,1.7.4,2.7,0,4.4l5.9-1.4c-.2,6-1.8,4.4-7.3,5.9-10.8-.7-10.3-10.2-3.5-18.4,8.4,1.1,15.8-5.1,21.1-10.9-1.5-1.6-.6-2.4,1.5-1.5.9-3,8.8-14.5,10.9-15,4.7-1.2,12,6.9,5.2,9.2Z"/>
    <path class="st195" d="M354.1,284.4c-4-11.1,17.9-9.8,19.1,0,5.1,7,.3,4,0,10.3-7.4,2.8-7.5,1.3-8.8-4.4-.4-1.5.5-3.9-1.4-5.2-6.8-4.6-7.9,6-10.8,9.2s-3.2,1.2-4,1.8c-4.1-2.9.9-10.3,5.9-11.7Z"/>
    <path class="st17" d="M335,334.3c5.1-.6,11-4,16.8-3l.8,7.4c-1.1.7-2.5.7-4.4,0-1.9,2.3-5.4,3.1-10.6,2.7-.3,2.3-1.3.9-2.6-1.2-2.7-2.1-3-3.8,0-5.9Z"/>
    <path class="st244" d="M359.9,337.2c.2,2.9-1.3,5.4-4.4,7.3-4.9,2.1-1.1,2.8-4.3,6.3s-2.9.9-3,1c-3.4,3.3-4.9.9-4.4-7.3-.5.6-4.6,3.2-4.8,3-6.9-7.4,3.3-7,9.6-6.6l-.3-2.3c1.4-.1,3,.2,4.4,0,4.5-.7,5.3-4,8.8-5.9-.2,1.5-.5,3.1-1.5,4.4Z"/>
    <path class="st17" d="M361.4,325.5c-3.4,1.2-6.6,3.6-10.3,4.4-3.8-4.6,8.8-10.2,10.3-4.4Z"/>
    <path class="st141" d="M335,334.3c.9,2.3,1.5,3.8,0,5.9-6.6,1.7-12.8,3.2-5.9-4.4-.7-.7-.2-1.2,1.5-1.5,1.4,0,3.1.2,4.4,0Z"/>
    <path class="st176" d="M358.5,241.9c6.2,7.5,10,7.7,14.8,16.6s7.6,6.3,2.8,11.2c-1.6-1.4-4.5-2.9-5.9-4.4-4.5,0-6.1-1.3-4.4-5.9-1.7,1.5-3.3,1-4.7-1.4-7.6,3.8-18.5-6.3-17.3-13.2-3.8-5.2,6.2-4,8.7,1.4,1.6-3.3,3.5-4.8,6-4.3Z"/>
    <path class="st135" d="M368.7,265.4c2.7,2,2.1,5.3,2.9,7.3h-10.3c-.7,1.3-4,2.1-4.4,0-.2-2.7,2.2-4.7,7.3-5.9-.7-4.2,2.3-5.4,4.4-1.5Z"/>
    <path class="st110" d="M370.2,265.4h-1.5c-1.6,0-3.1,1.2-4.4,1.5-2.4,2-3.9,2-4.4,0-4.8-3.5,1.2-10.7,5.9-7.3,2.4,2.4,3.1,4.5,4.4,5.9Z"/>
    <path class="st76" d="M361.4,272.7v1.5c.4,1.2.4,2.4-.5,2.6-5.3.9-12,6.3-14.7,11.4-.9,5.4-3.1,9.5-6.8,12.4-5.5,4-12.1,2.9-19.9-3-1.9,6.8-5.5,7.6-9.5,1.6-2.1,1.8-2.9,1-1.5-1.5-3-2.3-4.5-4.3-4.4-5.9-2-2.9-1.5-4.4,1.5-4.4,1.7-1.8,5.5-3.6,7.3-1.5,5.2.5,9.1,0,11.7-1.5,3.7-5.6,7.6-8.6,11.7-8.8,4.1-5.8,8.1-5.1,14-2,2.8-1.5,5-1.8,6.5-.9h4.4Z"/>
    <path class="st38" d="M361.4,274.2c1.3,0,11.1,2.7,11.6,3.1s-.9,5.6.2,7.2c-4.3-5.9-8.8-2.7-13.9-7.1-2.8,1.5-3.3,4.8-5.1,7.1-5,2-7.6,5.6-7.4,11.1-1.3,2.6-4.2,5.1-7.3,5.1,4.9-4.5,5.4-16.1,8.7-19.5s11.4-6.9,13.3-6.9Z"/>
    <path class="st307" d="M263.2,322.6c2.3,1.2,1.4,2.1-2.9,2.9-7.2,7.3-11.8,15.8-5.6,25.5l-.3,3.8c3.2.6,16,4.1,17.3,6,2.8,4.1-4.6,9.9-9.1,10,5.2,1.1,10.1,1.5,14.8,1.1l1.9,3.4c.6,4.8-6.2,9.2-8.8,4.4-4.1-.2-8-.6-11.7-1.5-.7,4.1-3.1,3.8-4.4,0-4.8-2.1-11.2-.5-14.2,4-3.5,2.2-6.7.3-9.3-2.5-.5-.1-1.1.1-1.5,0-4.2-5.1.3-8.8,13.3-11,.2-4.9,1.6-10.1,4.3-15.7-1.6-3.1-2.1-5.9-1.5-8.5-4.1.3-4.9-3.7-1-5.3-3.4-3.4-3.5-6.1-.5-7.9,0-.5,0-1,0-1.5-1.2-9.8,13.3-11.7,19.1-7.3Z"/>
    <path class="st165" d="M235.3,312.3c-4.8-6,6.3-11.1,12.1-12.7,2.6-3.4,6.7-5.6,12.5-6.6,5.4,1.7,10.4,1.5,15-.8,5.6,8.1,15.7,3.7,17.8-5.2,2.8-4.4,12.7-.2,11.5,4.8,1.9,1.8,3.7,2.8,4.4,5.9-.8,2.1-2.4,2.4-4.8.9-5.3,9.4-14,11.5-26,6.4-.1,1.3-.7,1.3-1.5,0-2.9-.8-6.3-1.4-9.4-.8-5.5.9-14.8,6.3-17,11.1-.2,1.3-.7,1.3-1.5,0-2.4,1.3-2.8,3.1-1.2,5.4l-3.2,2h-2.9c.4-3.2,0-6.2-1.5-8.8-1.3,4-4.4,2.5-4.4-1.5Z"/>
    <path class="st167" d="M176.7,341.6c2.5,2.5,2.2,3.9,7.3,2.9l-4.4,3.7c7.3,4.3,10.6,12.4,16.1,18.3l1.5,10.3c-4.5.6-7-3.5-10.3-5.9s-2.3-.2-3.7-1.4c-2.2-1.9-9-10.1-9.2-12.8s3.5-3.5,2.7-6.3c-13,3.3-3.9-8.9-8.8-11.7s-1,.1-1.5,0c1.8-12.8,6.1-1.3,10.3,2.9Z"/>
    <path class="st285" d="M219.2,341.6c1.2.3,5,4.6,8.8,2.9-1.3,4,0,11.8-4.4,14s-10.9-1-13.9,3.6l-.7-2.9c-16.6-.9-7.5-3.5-7.9-8s-3.3-4-2.4-6.6c5.6-2.6,14.4-4.5,20.5-2.9Z"/>
    <path class="st100" d="M244.1,331.4c.3,3.4.8,10.3,1.5,13.2,2.7,6.5.6,14.5-2.9,20.2s0,1.1.3,1.8c-6.2,3-12.2,6.4-17.8,10.3-4-2.6-7.6-3.8-7.3-10.3,13.4,2.3,9.9-6.1,16.1-12.5-8.5-3.5,1.5-3.6,3.1-6.1,2.8-4.6-1.9-9.6,7.2-7.8,1.4-4.9-4.3-1.7-4.4-3.8s.7-8.6,4.4-5Z"/>
    <path class="st286" d="M204.6,322.6c2.1-3.1,12.9,2.7,12.8,6.3-2.3,4-2.2,6.8.3,8.3,3.8,1,3.7,1.7,0,2.9-7.3,1.2-14.6,2.6-22,4.4-4.4-.2-5-1.4-8.1-2.2s-3,1.1-3.6.7,1.9-4.1,0-5.8c7.2-1.4,13.4,1.8,20,2.8s5.3,1.2,5-1.3l-26.4-5.9c6.8-1,13.3.7,20,1.3s5.3,1.3,4.9-1.3c-4.6-2.5-17.9-.2-20.6-2.1s-2.9-7.6-2.6-8.7c1.6-7,16.2-1,20.3.6Z"/>
    <path class="st267" d="M195.8,303.5c1.3,5.4,11.1,8.5,16.1,11.7,3.8.4,7.7.9,11.7,1.5.4-1.3.9-1.3,1.5,0l2.2,2.3c-2.1,3.1-3.4,6.2-3.6,9.5,1.3.4,1.3.9,0,1.5.8,3.7-2.1,7.3-5.9,7.3-10.2,5.2-2.4-9.8-2.9-10.3s-3.3.3-4.9-.3-1.5-2.6-5.4-4.1c-1.3-3.5,4.1-2.2,2.9-5.1-3.1-7.1-16.6-8.2-22-14.6-2.6-3.1-3.5-7.3-4.4-11,2.2.6,5.6,7.2,8.9,9.5s4.4,1.5,5.8,2.3Z"/>
    <path class="st54" d="M245.6,344.5c1.9,8.6,5.7,4.2,1.4,18-.3,1.1-2.7,1-2.6,1.7,0,1.5,2.4,5,1.1,6.5s-7.6,3-8.1,3.1c-6.8,1-6.3-5.4-7.9,5.8-3.8-1.2-2.9-2-4.4-2.9-1.4-6.3,3.8-3.9,7.3-6.7s1.7-3.5,3-4.3,3.8,1.3,5.2-.8-.3-3.3.2-4.4c1.2-2.7,5-6.8,5-9.5s-3.7.4-3-2.9,4.3-.4,2.9-3.7Z"/>
    <path class="st253" d="M248.5,315.2l2.4,2.1c5.6-1.2,44.9-.8,47,1.6l.4,3.6c3.1-.1,4.6,5.7,1.5,7.3-.4,1.3-.9,1.3-1.5,0-2.1,0-3.5-1.3-4.4-3.9-9.7-1.1-19.6-1.8-29.7-1.9l-1.1-1.5c-7.7.6-16.1-1.4-19.1,7.3-.2-3.2-.8-2.9,0-7.3s.3-4.4,1.3-6.5c.6-1.5,2-.8,3.1-.9Z"/>
    <path class="st114" d="M228,329.9c4.6-2.1,8-1.6,10.3,1.5-3.9,9.7-2.3,3.4-7,6.2s-.9,3.4-2.7,3.9-6.3-1.3-9.3-1.3c-.3.9-.8.9-1.5,0,.1-.9-.2-2.1,0-2.9.7-2.9,3.2-5.9,5.9-7.3,1.7-4,4.8-5,4.4,0Z"/>
    <path class="st265" d="M241.2,322.6c-.6,3.2-1.7,5.8-2.9,8.8-3.9,1.4-7.9-1.1-10.3-1.5-.4-3.4,2.5-6.2,8.6-8.4,0-3.9,1.1-6.5,3.1-7.7,4.1,2.4,2.3,4.4,1.5,8.8Z"/>
    <path class="st267" d="M217.8,340.1c.5,0,1,0,1.5,0v1.5c-4.5-1.1-15,2.7-20.5,2.9s-2,0-2.9,0c5.7-3.6,15.1-4.3,22-4.4Z"/>
    <path class="st193" d="M286.6,378.3c3.9-2.5,8.9-.5,8.8,4.4-4.7-.2-5.7,10.3-8.1,10.3-6.9-.1-2.9-12-5.9-11.7s-5.1,9.5-7.5,10.1-4.2-1.6-6.2-2-3.8,1-5.1.5c-2.1-.7-1.8-3.7-3.4-4.1-5.6-1.4-4.4,2.1-4.9,2.8-4.6-1.1-5-6.1-10.3-5.9-.9-5.3,6.8-7.2,10.3-4.4,1.3-.2,3,0,4.4,0,3.8.8,7.7,1.3,11.7,1.5,3.5-.5,4-1.5,8.8-4.4,5.3-1.2,7.8-.2,7.3,2.9Z"/>
    <path class="st278" d="M311.6,372.4c4,1,6.4,2.4,2.9,5.9-.3.3.4,1.9-.2,2.6s-6.2,1.6-7.1,1.8c-5.3,1.1-6.1,2.3-11.7,0s-5-3-8.8-4.4c-1.4-9,9.3-6.6,14.9-3.8l2.7-2.1c.6-1.9,6.3-3.1,7.3,0Z"/>
    <path class="st214" d="M230.9,379.7c11,2.3,6.2-1.1,11.7-3.6,1.5-.7,13-3.1,11.7,2.2-5.1,1-6.1,2.1-10.3,4.4s-.9,2.5-2.5,2.9c-6.6,1.7-8-.6-10.6-5.8Z"/>
    <path class="st147" d="M226.5,105.6c1.1.5,4.1,2.1,4.4,2.9-.9,2.4-2.9,4.4-5.9,5.9,2.9,2.5,3.2,9.3-1.5,7.3-14.1-4.4.3-4.5,0-5.1l-7.3-3.7c6.1-4.8,6.5,1,7.3,0v-7.3c.2-3.9,1.6-3.6,2.9,0Z"/>
    <path class="st96" d="M226.5,99.8l1.5,4.4c-.7,0-1.7.6-1.5,1.5-.6-.3-2,.2-2.9,0s-1.2-.8-1.5-1.5c.3-.2.5-5.4,4.4-4.4Z"/>
    <path class="st59" d="M176.7,262.5c1.3.4,1.3.9,0,1.5v1.9c-4.8,2.6-6.6,5.1-7.3,9.8.9,1.7.4,4.1-1.5,7.3,2.1,2.2,1.1,5.2-2.9,8.8-1.6,4.8-3.1,9.7-4.4,14.7-1,.2-1.3-1.5-1.4-1.5-.7-2.4-5.6-.5-6-2.3-1.5-7.8,2.6-10.7,3.2-16s-3.5-11.3,3.5-12.5.8,4.3,5.1,2.9c-1.6-16.5,2-11.3,11.7-14.7Z"/>
    <path class="st251" d="M179.6,271.3c7,1,8.7,1.8,12.6,7.3s8.8,17,5,20.5c-.5,1.3-1,1.3-1.5,0-11.4-4.1-10.3-19.3-14-20.5-5.3-1.7-5.7,6.7-8.6,8.9s-6.6.3-8.2,4.3c1.2-3.5.3-4.2,2.9-8.8,1.1-4,8.1-14.8,11.7-11.7Z"/>
    <path class="st74" d="M230.9,303.5c2,2.5-2.8,8.1-5.5,10.2l-1.8,2.9c-5.4,4.9-7.2,2.6-11.7-1.5-7.1-6.5-7.5-6.9-16.1-11.7-.3-1.2.2-3,0-4.4.4.2,1.1-.2,1.5,0,.2-3.6,2.6-3,5.4-1.9l17.5,12.1c4.3-5.6,7.9-7.6,10.9-5.8Z"/>
    <path class="st139" d="M197.2,208.2c3.4-4.9,13-.6,5.9,2.9l-5.2,9.9c7.5-4.3,13.1-4.7,17-1.1,2.2-3.5,4.5-2.4,4.4,1.5,5.4-.3,5.4,6.1,0,5.9l-2.5,2c-4.4-1.8-16,2.5-7.6,3.6l1.3,3.2c2.1,4.5-8.9,11.8-11.7,7.3-2.3,3.7-5.2,5.9-8.8,2.9-4.1,1.2-7,4.1-11.7,2.9-1.8-5.8,4.1-11.8,4.4-15.6s-1.5-3.3-1.5-3.5c0-1.8,1.7-3.9,1.5-5.9-1.7-1.8-19,7.1-22,3.7,6.3-6.5,19.2-10.1,27.8-8.1.2-3.9.9-5.4-2.9-6.6.7-1.7,9.4-4.8,11.7-5.1Z"/>
    <path class="st268" d="M288.1,220c2.3,5.5-2.9,9.3-7.4,4.8-3.4,21.7-15.5,14.9-26.1,1.7l-7.5.8c-1.4,2.6-4.5,3.7-9.3,3.4l-6.8,2.5c-2.3,1.9-4.8,3.1-7.6,3.7.7,3.4-7.2,8.3-10,5.1l-10.2,7.5c-5.1,6.2-11.9,14-20.6,14.5,1.9,2.1,1.1,2.9-1.5,1.5-4.2,2.6-5.7,2.1-4.4-1.5v-1.5c5.4-1.8,5.1-7.1,7.3-10.3,5.4-2.2,10.7-4.4,14.7-8.8,4.7-1.7,7.2-3.7,11.7-7.3-2.1-3.8,2.4-6.7,5.9-4.4l4.1-3.5c7.6-1.9,15-4.1,22.3-6.8,8.3-3.8,14.9-5.6,23.5-2.9-.1-4.3,9.8-7,11.7-2.9,7.6-1.9,11.1-.5,10.3,4.4Z"/>
    <path class="st154" d="M198.7,243.4c-1.4,8.1-7.3,9.1-14.7,8.8,1.4-2,4.9-3.1,5.9-5.9,2.9-.9,5.9-1.9,8.8-2.9Z"/>
    <path class="st248" d="M289.6,168.6c.8-5.4,2.3-3.9,4.4,4.4.7-.6,1.2,0,1.5,1.5,1.6-1.7,5.4-3.4,5.9,0,2.1-1.8,4-.8,5.9,2.9,5-2,9.1-2.2,15.3-1.9l.9,1.9c2.6-3.3,5.2-.4,5.9,2.9,2,2.6,1,3-1.5,4.4-1.5-.3-5.9-1.6-6.5-1.5-.9,0-.9,3-1.6,3.1-2.2,0-4.2-2.6-6.1-2.7s-7.8,1-10.8,1.2c-3.4,1.1-6.4,2.5-9.2,4.2l-2.5-2.7c-11.7-1.2-23.3-1.1-34.6.2-4,5.4-17.5,5.5-10.8-.2-.9-3.5-1.9-3.9-2.9-1.5l-1.8,2.7c-3-2.7-9.4-.2-9.9,3.2.3.7-.2,1.2-1.5,1.5-2,2.9-9.1,3.6-11.7,1.5-3.4,3.8-9.7,5.7-7.1-1.7-3.5,1.7-5.7,4.1-6.7,7l-3.8.6c-2.9,2.2-5.9,4.1-8.8,5.9-.5.5-1,1-1.5,1.5-5.5,3.6-7,.6-3.6-4.2-1-1.5-4.7-.6-11,2.7,0-1,0-2,0-2.9-2.3-3.6-.7-5.2,2.9-2.9,1.7-3.8,3.1-4.8,4.4-2.9-.6-2.6,1.4-3,5.9-1.5,2-2.4,4.8-4.5,7.3-5.9,2.9-5.4,13.8-14.1,17.6-7.3,1.8-3.6,2.8-3.8,4.4,0,.9-4.3,7.8-5.1,10.3-1.5,2.5-3.2,9.3-6.9,11.7-2.9,3.5-3.9,7.9-5.7,11.7-1.5.4-1.3.9-1.3,1.5,0,6.5-3.7,13.5-4.4,20.5-2.9.2-4.3,3.3-4.7,5.9-1.5.9-3.7,6.9-3.4,10.3-2.9Z"/>
    <path class="st86" d="M178.2,168.6c5.7-5.4,6.8,16.2,0,16.1,3.2,4.2,4.3,10.9,0,14.7-1.8,1.1-2.1,2.2-2.9,2.9-1.3,1.1-3.2,1.9-4.4,2.9-6.7,1.4-3.9-6.1-1.1-9.6l-1.8-2.2c-2.4-1.8.6-8,0-8.8,6.6-5.1,4.1-12,10.3-16.1Z"/>
    <path class="st92" d="M167.9,193.6c1.7-.7,4-1.3,5.9-1.5,2.4,2.5-7.6,10-2.9,13.2-2.7,2.4,1.4,2.2-7.3,4.4.4-4.2-1.2-11.4,1.5-14.7s2.2-1.1,2.9-1.5Z"/>
    <path class="st72" d="M175.2,205.3c2-2.4,9.5-6.5,11.7-4.4s-2.3,7.1,2.9,5.9c-1.9,1.8-4.3,2.5-5.9,4.4-4.6,1.6-1.6-5.7-1.4-6.2,1-2,3.3-.2,2.8-2.6l-10.3,4.4c-.1-.3,0-.9,0-1.5Z"/>
    <path class="st212" d="M182.6,214.1c0,.2,2.3,2.3,1.5,2.9s-3.2-.3-4.4,0c-3.4,0-5.1,1-4.4-2.9h7.3Z"/>
    <path class="st235" d="M176.7,161.3c4.4-.3,6.8.7,7.3,2.9,2.6.9,2.5,3.5,0,4.4,1.2.6,2.2,1.6,2.9,2.9,3.4,2.6,2.5,5-1.5,5.9,1.4.4,2.4,1.4,2.6,2.8,10.6-.9,3.7,11.6-2.6,8.9-2.8,3.1-7.5.2-7.3-4.4.5-3.2,3.4-11,3-13.6s-2.9-1.7-3-2.5,2.3-2.4,1.5-2.9-2.8.5-4-.4-.3-2.4-.4-2.5c.5-.5.9-1.1,1.5-1.5Z"/>
    <path class="st89" d="M191.4,139.3c-.1,1.3-.5,4.5.7,4.4l6.6-4.4c1.7-3.2,3.9-1.9,4.4,1.6s-9,14.8-13.1,11.5c.4,3.3-2.9,5.8-5.9,4.4-.7,2.9-2.1,2.8-2.9,0,1-1.5,2.2-6.9,2.9-7.3,1.2-1.6,1.2-3.1,0-4.4.3-.2,0-2.9,1.4-3.8s4.5,2.4,5.9-2.1Z"/>
    <path class="st153" d="M184,145.2c3.4-.5,5.9-.2,4.4,3.7s-3.4.2-4.4.7c-3.5,0-5.1,1-4.4-2.9,1.4-.9,3.9-1.1,4.4-1.5Z"/>
    <path class="st115" d="M223.6,123.2c3,2.3,4.2,10.3,1.5,13.2-.9,2.9-3.7,8.9-7.3,8.8.5,4.2,1,10-4.4,10.3-.5,3.2-3.8,3.2-4.4,0-3.1,3.7-6,.4-1.5-2.9-1.9-.6-1.3-2.3,0-3s-1,3.5-2.8,0c-.5.6-.9.6-1.5,0-3.5-2.9-1.3-8.3,2.9-8.8,4.6-.2,9-2.6,13.2-7.3-1.9-1.7-3.8-3.1-5.9-4.4,1.3-4.1,6.5-5.1,10.3-5.9Z"/>
    <path class="st208" d="M225.1,114.4c5.1-4.5,6.4,1.9,4.8,7,2.3.9,3.6,5,4,7.7,2.2,2.1-.4,4.7-2.9,4.4,2.3,3.2-1.1,6-4.4,4.4-2.1,1.9-3,1-1.5-1.5-1.7-4-2.9-9.2-1.5-13.2s-.1-1,0-1.5c1-3.1,2.1.9,1.5-7.3Z"/>
    <path class="st157" d="M214.8,133.5c3.9,3.5-6.1,9.4-8.8,7.3-3.6-2.4-2.9-4.3,1.5-4.4.5-.9,1.3-2.8,1.5-2.9s4-.5,4.4-2.9c3.1-.5,3.6.5,1.5,2.9Z"/>
    <path class="st28" d="M213.4,129.1l7.3-1.5c0,2.1-.9,3.9-1.5,5.9-.8,3.8-3.1,3.6-4.4,0-1.4-.5-1.4-1.6-1.5-2.9s-.1-1.1,0-1.5Z"/>
    <path class="st198" d="M207.5,136.4c-.9,1.5-.9,3.1-1.5,4.4-1.2,2.9-2.1,5.8-2.9,8.8l-.5,3.4c3.9,2.7,1.1,7.8-2.5,9.8,1.3,2.3,1.8,4.7,1.5,7.3,1.4.4,1.3.9,0,1.5l1.3,1.5c-3.2,2.9-5.1,5.9-5.7,10.2,2.7,2.2,1.9,4.6-1.5,4.4-2,2.8-4.5,5.2-7.3,7.3-2.7,1.3-5.3,1.2-5.9,1.5-3.6-1.8-3.4-8.7,2.9-7.3.1-.4,6.6-3.8,5.9-6.6-7,.1-7.5,1.7-5.9-5.1,3.7-3.1,6.6-6.5,8.8-10.3-2.1-2.4-3-6-2.8-10.8-4.1.8-4.7-.5-1.6-3.9,1.4-1.2,9.3-8.2,9.6-8.8,2.1-4.4-.8-4.1-.8-4.4.1-.9,1.4-2.1,1.5-2.9,2-1.4,6.1-2.7,7.3,0Z"/>
    <path class="st274" d="M184,156.9c3.8-1.6,4.4.3,1.5,2.9,2.7,1.4,1.6,4.5-1.5,4.4-3.9-.4-8.4,1.8-7.3-2.9,2.3-1.7,2.8-2,4.4-4.4.9-.1,2.1.2,2.9,0Z"/>
    <path class="st81" d="M261.7,111.5c.2-.1,1.4.3,2.5-.4s1-3.3,2.5-3.6c2.2-.4,8.8,3,11.7,2.6s.9-2.8,1.7-3c3.9-1.2,3.5,1.6,5.1,3,5.2,4.5,6.9,14.2,9.1,15.8s6.1.8,8.5,1.8c6.8,2.9,8.9,8.9,10.6,9.9s4.1-.2,5.2.5c2.2,1.4-1.3,4.4,4.7,5.6.9,3,0,4.7-2.9,5.9-.3,5.3-8.6,5.8-11.7,2.9-3.3-2.2-2.9-5,1.5-4.4.5-.8-.5-1.8-2.9-2.9-5.3-3.4-11.3-5.4-18-6l-2.6-2.8c-1,11.2-19.5,3.9-7.3,0-.9-3.2-2.8-6-5.5-8.3l1.1-2c-4.6-3.7-4.6-5.1,0-4.4,2.1-.2,1.6-2.2-1.5-5.9-.1,3.3-2,3.1-4.4,1.5-1.5,1.7-2.9,1.3-4.7.6-3.8,6.2-15.7,1.9-8.5-2,2-1.4,3.9-3,5.9-4.4Z"/>
    <path class="st140" d="M230.9,108.5c.4.9-.3,3.1,0,4.4l7.3-3.6c-1.3,4.7-7.6,7-7.3,12.4,1.6,1.6,12.5-5.4,14.7-5.9,1.3,2.5,1.8,4.9,1.5,7.3v1.5c-4,1.9-8,3.9-11.9,6.1l-1.3-1.7c-9.7-3.4-.9-13.3-8.8-14.7-.1-1.9,0-3.9,0-5.9h5.9Z"/>
    <path class="st283" d="M245.6,110c1.5.3,2.9.3,4.4,0,.2.4,4.3,3.1,5.9,5.9s-1.5,4.3,3.6,2.9,3.3-7.3,9.6-1.5c3.1,0,3,2.3,0,2.9,0,3.5-3.2,4.5-5.9,2.9l-1.9,3.5c2,6.1,0,14-5.4,8.2-7.9,2.8-5.9-6.3-1.4-10.2l-1.6-3c-4.5,3.5-6.3-1.7-7.3-5.9,0-1.9,0-3.9,0-5.9Z"/>
    <path class="st298" d="M245.6,107.1l4.4-1.5c.3,1.3-.4,3.6,0,4.4-1,.6-1.1,2.9-2.2,2.9s-1.2-2.4-2.2-2.9c0-.3-2.4-1.6,0-2.9Z"/>
    <path class="st183" d="M329.2,145.2c6.8,5.3,11.2,15.5,19.1,22,3,2.5,3.7,2,1.5,5.9,1.1,2.4.8,2.8-1.5,1.5-.3-.3-4.7-1.2-5.9-1.5l-6.3,2.3c-4.3-6.2-5.5-7-11.9-9.8s-1.9-9.2,2.1-8.6c-3.7.2-7.6-3.3-5.9-7.3-.6-3,.3-4.5,2.9-5.9,1.5.3,4.1.1,5.9,1.5Z"/>
    <path class="st263" d="M326.2,156.9c.4,5.2-3.6,6,5.8,10.3l.7-5.8c5.8,2.4,1.6,8.6,2.8,10.3s4.9,1,6.7,1.4c-.8,2.7-3.6,2.3-5.4,3.5s-.4,2.3-.5,2.3c-.7.5-5.4-6-8.8-4.4-1.3-.5-1.3-1,0-1.5.4-2.5-.7-4.6-2.9-2.9v1.5c-3.1,2.2-7.1-.7-4.4-4.4-4.4,2.6-7.8-5.1-1.5-2.9,1.8-1.5,1.9-2.9.1-4.3l1.4-1.6c-1.4-4.8,3.1-5.4,5.9-1.5Z"/>
    <path class="st13" d="M349.7,173c2.1,5.2,10.7,1.6,8.8,8.8-.1.4,0,1,0,1.5-3.3.8-6.2-2.8-8.8-5.1s-1.2-3.5-1.4-3.7c.3-.6,1.2-1,1.5-1.5Z"/>
    <path class="st226" d="M327.7,173c.2.4-.2,1.1,0,1.5,1.3,1.9,2.6,3.7,4.4,5.1l-2.9.7c-1.9-.6-4-2.5-5.9-2.9-3.3-2.2-2.4-3.2,1.5-2.9-3.8-1-3.8-2,0-2.9,0-.5,0-1,0-1.5,2.1-1.4,4.6.8,2.9,2.9Z"/>
    <path class="st161" d="M343.8,214.1c2.4,0,4.9,0,7.3,0,.5-.4-2.1-3.7-1.5-4.4,3-3,2.4,5.1,5.9,2.9s-2-3.4.7-4.4c4.8-1.7,3.6,5,8,4.4-.3.5.3,2.3,0,2.9s-4.3,2.6-4.4,3.7c0,2.5,9.2,3.1,10.1,3.9s0,2,.2,2.7c-3.5,1.1-3.2.4-5.9,0-1.4,0-2.4.8-2.9,2.3l-8.8-2.3c-5.9,5.4-13.6-7.8-4-8.1s-4.4,2.2-3.4-.7c-3.2-.7-3.7-1.7-1.5-2.9Z"/>
    <path class="st136" d="M321.8,205.3c2.9-.6,4.4-.1,4.4,1.5.3.2-3.8,3.2,3.6,6s9.2,1.5,14,1.4l1.5,2.9c-.9,1.7-1.9,3.2-3.7,2.9,5.8,17.8-24.5,3.3-12.7-3.9s-1.1,2.1-2.6-.4c-4.4-1-11.6-6.6-7.3-10.3,0-2.5,1-2.5,2.9,0Z"/>
    <path class="st107" d="M346.7,199.4c2.3.5,3.4.8,5.9,0,0,1.6-1.7,2.3-2.9,2.9.1,1.8-.4,3.2-1.5,4.4,0,.4-1.4,1.1-1.5,1.5-1.4,1.6-3.5.7-2.9-1.5-2.8-1.6-5.7-2.5-8.8-2.9.1-.9-.2-2.1,0-2.9.3-1.4,1.7-1.9,0-4.4,4,.6,7.8,2,11.7,2.9Z"/>
    <path class="st291" d="M335,203.8c3.1-1.3,9.6-1.7,8.8,2.9l-.5,1.5c-3.2-.5-6.5-.9-9.7,0-1-.1-3,.6-2.9-.7,1.3-1.3,2.6-2.9,4.4-3.7Z"/>
    <path class="st93" d="M343.8,206.8c.8,0,2,1.2,2.9,1.5,0,.6,2.7,2.7.7,3-4.6-1.8-9.1-2.2-13.9-3,1.8-2.3,7.4-1.8,10.3-1.5Z"/>
    <path class="st168" d="M349.7,202.4l4.4,5.8-5.9-1.5c0-.7-2.2-3.6-1.5-4.4s2.3.3,2.9,0Z"/>
    <path class="st95" d="M330.6,202.4c.3,3.7-1.4,3-4.4,4.4-.2-.1-4.2-1.4-4.4-1.5-1.1-4.1,6.7-6.7,8.8-2.9Z"/>
    <path class="st166" d="M301.3,187.7c1.6.1,3.3,1.2,5.2,1.3,3.8.2,8.7-2.2,12.3,1.7.9,2.2,1.2,5.1,0,7.3,1.3.4,1.3.9,0,1.5-.4,1.3-.9,1.3-1.5,0-2,1.8-7-.3-7.3-2.9h-5.6c-2.2,1.8-6.7,3.9-9,1.5-6.6.4-9-1.1-7.3-4.4.3-1.3.8-1.3,1.5,0,3-4.5,6.5-6.9,10.4-7.2l1.3,1.4Z"/>
    <path class="st258" d="M302.8,184.8l-1.5,2.9c-10.3-.9-4.1,4-5.9,5.9s-4.5,0-5.9,0c-3.8,0-3.4-2,1.5-5.9-1.3-.4-1.3-.9,0-1.5,3.2,0,7.5-1.3,11.7-1.5Z"/>
    <path class="st16" d="M324.8,196.5c.8,4.3-3.8,5.2-5.9,1.5-1.3-2.3-3.4-3.6-4.4-5.8,1.9.6,3.5-1.3,4.4-1.5s1,0,1.5,0c1.4,1.6,3,4.5,4.4,5.9Z"/>
    <path class="st219" d="M330.6,202.4c-2.3.6-8.4,3.2-8.8,2.9-3.8-1.3-6-2.3-2.9-5.9-.2-.4.2-1.1,0-1.5l5.9-1.5c1.5,1.4,5.3,0,5.9,5.9Z"/>
    <path class="st129" d="M304.2,115.9c.5.5,1.1.9,1.5,1.5,4.1,5.7,4.1,2.2,7.2,3.7,5,2.4,3.6,6.6,4.5,10.9-5.3,0-4.1-4.7-6.6-7.3s-8-2.9-9.5-6.7,2.2-1.8,2.9-2.2Z"/>
    <path class="st132" d="M295.4,108.5c2.5.1,3.9,1.6,4.4,4.4v1.5c-7.1.6-11.2-3.6-8.8-10.3,4.2-.7,3.4,2.5,4.4,4.4Z"/>
    <path class="st69" d="M305.7,110c1.1,3.8-2.4,3.4-5.9,2.9-5.2-.7-3.5-2.6-4.4-4.4,3.7.2,7.4-1.2,10.3,1.5Z"/>
    <path class="st299" d="M343.8,344.5c3.1,1,6.7,4.7,1.4,5.1l2.9,2.2c-2.7,2.7-2.7,2.9-5.7,5.4s-4.2,7.3-8.9,6.3l2.9,2.9c-1.4.2-3.1-.3-4.4,0l-3.8,3.4c-6.6,12.4-26.7-11.1-13.8-16.6,8.2-10.1,18.5,2.3,5.3,4.3,2.3-.6,3.5-.1,3.5,1.5,3.8.8,4.2.3,1.5-1.5-.4-2.2,1.1-5.2,2.9-2.9l3.4-.3c1.2-3.8,3.7-4.4,5.4-1.2,2.2-1.7,2.9-4.4,2.1-8.3,2.4,1.5,4.1.9,5.3-.5Z"/>
    <path class="st123" d="M311.6,353.3c.8-2.8,2.1-2.8,2.9,0-4.2,11.8,1.3,15.5,11.7,19.1l-1.5-4.4c2.8.6,5.1-1,7.3-1.5-.9,4.1-6.9,8.5-10.3,11.7-.5-.4-1.2-.9-1.5-1.5-3.1-.9-6.1-2.3-8.8-4.4-4.3-.6-4.4-1.1-1.5-4.4-2.8-1-4.6-4.2-5.5-9.6-3-2.1-9.5-8.5-3.3-7.9,3.4-3.8,9.8-2.4,10.3,2.9Z"/>
    <path class="st108" d="M359.9,337.2l1.5,5.8c-2.2-.2-4,.7-5.9,1.5-.4-4.1,3-5.4,4.4-7.3Z"/>
    <path class="st254" d="M320.4,376.8c-1.9-1.9-4.3,0-5.9,1.5-.9-2-2.1-3.9-2.9-5.9,6.1.5,6.5-1.9,8.8,4.4Z"/>
    <path class="st169" d="M298.4,206.8c.4-4,1.4-3.6,2.9,0,6.7-3.7,15.4-.8,19.1,5.6l5.8,3.2c.8-.2,3.3-2.5,4.4-1.5,1.8,1.9-2.9,6.2-2.9,6.6,0,1.1,18.7,15.6,8.7-3.7,2.9,0,5.9-.2,8.8,0s2.9,0,4.4,0c.4,2.8-3.5,0-2.8,3.5s3.1,4.5,5.8,5.3c4.2-1.1,5.2,7.2,1.5,8.8h-1.5c-3.1,1.9-7.5.9-13.2-2.9-.4,1.1-1.3,2.4-2,2.1-5.7-2-11.1-4.8-16.4-7.7-6.6,0-9.8-1.6-9.5-4.7l-3.2-.7c-2.1,3-7.9,2.6-10-.8-6.3.8-12-7.5-4.7-6.9s.4-1.8-1.2-1.9c-2.3-5.5,1.2-7.8,5.9-4.4Z"/>
    <path class="st39" d="M298.4,220c4.3-.4,9.7-.7,13.2,1.5-1.6,3,2.1,4.8,11.1,5.3,4,4.6,9.4,7.2,16.1,7.7l.6-2.7c3.6-.3,9.9,1.4,13.2,2.9,6.7,3.1,3.5,4.4,5.9,7.3-6.4,14.8-9.7,2.5-12.6,1.6s-1.9,1.4-2,1.4l-2.7,2.8c-14.2-4.8-27.5-11.1-39.8-18.9-11.3,5-15-15.8-2.9-8.8Z"/>
    <path class="st301" d="M364.3,225.8c-4.5.7-.9,9.7-1.5,10.3l-8.8-1.5c-.3-1.3-1.5-8.4-1.5-8.8.7-5.2,8.3-.5,11.7,0Z"/>
    <path class="st187" d="M346.7,297.6c1.3,4.4-8.7,9.5-11.8,10.9-5.1,2.3-8.7-2-8.7,8.1l-2.9-1.5,1.5,10.3c.2.3,8.7-4.5,4.4,1.5-.5.1-1-.1-1.5,0-.9,4.1-3.2,4.8-5.9,1.5-3.2-.4-4.4-1.1-2.9-4.4-4-5.7-5.9-11.6-5.9-17.6,3.5.8,7-.1,10.6-2.8,5.9,1.4,9.1,1,9.6-1.1,5.1-1.2,9.6-2.9,13.5-4.9Z"/>
    <path class="st8" d="M348.2,306.4c-.3.6-5.7,8.1-6.2,8.5-.9.7-9.3,2.6-11.4,3.2-.4-.7-2-1.5-2.9-1.5v-1.4c6.7,1.8,5.4-2.7,8.9-5,3-2,7.9-4.1,11.6-3.8Z"/>
    <path class="st45" d="M327.7,327c-.2,3.8,3.5,6.5-1.5,5.9v1.4c1.5,0,2.9,0,4.4,0-.5.2-.9,1.1-1.5,1.5-2.3,7.3-6.2,6.8-8.5-.5-3.7.8-6.1,0-4.6-3.9-1.2-4.3,2.6-6.1,5.9-2.9,1.9-.5,3.9-.9,5.9-1.5Z"/>
    <path class="st11" d="M354.1,284.4c-3.4,4.2-7.5,4.4-5.9,11.7-.5.5-1,1.2-1.5,1.5-5.9,4.1-6.8,2.9-9.9,4.7s-1.3,3.9-3.1,4.8-9-1.2-11-.4c-3.3,1.4-2.4,9.2-9.7-.4-4.4-1-5.5-3.6-2.9-7.3,8.8,4.8,4.1-4.4,9.5-4.4,4.3,0,9.2,7.7,19.8,5.9s3.1-15.8,14.7-16.1Z"/>
    <path class="st302" d="M348.2,338.7c1.1.1,4.3,2,5.9,2.2-4.1,4.1-10.9,1.6-16.1,2.2-.2,2.9,4.2.9,5.9,1.5,1.4,4.5-3.4,2.2-4.2,3-1.9,1.9,3,4.9-3.1,5.8-2.3-.5-1.8-2.5,1.5-5.9-3.4-.9-6.4-2.4-8.8-4.4-.6-1.7,1.4-2.7,5.9-2.9,3.7-1,9.4-1.8,13.2-1.5Z"/>
    <path class="st27" d="M316,331.4c2.1,3,5.9-.3,7.3.7,2.3,1.6-1,5,2.2,6.6,1-1.2,2.3-2,3.7-2.9l-1.5,4.4h7.3c-1.7.5-4.3,1.9-5.9,2.9-.9,1.1-1.9,1.1-2.9,0-3.8.8-13.1,2.2-15.9,1.3-6.9-2.2-10.8-12.5-6.1-17.4,2.9-.3,4.1,1,5.3,3.1,3.1-1.3,5.2-.8,6.4,1.3Z"/>
    <path class="st280" d="M343.8,244.9l10.3,11.1c1.9,1.2,4.9-1.4,7.8-.6s2.8,3,4,4.2c-2.8,1.6-5.7,3.8-5.9,7.3-2.1,6.6-15.4,10.1-16.1,1.5-4,.8-6.3.3-7.3-4.4-1.9-1.7-1.4-4.5,1.6-8.4l-9.5-7.7c-9.7,3-13.8,1.4-12.4-4.7-4.5-1.6-6.5-3.9-6-7-1.7.8-14.8,3.3-15.1.5l.4-3.4c-4.6-3.2-3.3-4.7,4.1-4.5h1.8c7.7-2.3,5.1.8,8.9,2.2,11.6,4.5,19.1,13.8,33.6,14Z"/>
    <path class="st55" d="M364.3,266.9c-1.5,2.5-4.9,4.3-7.3,5.9s-5.7,4.5-8,4.5,0-2.9-2.9-3.2-6.9,0-9.6,1.6c-1.9-3.1,2.6-12,7.3-7.3,9.7,6.2,9.1.7,16.1-1.5,1.1-.3,3.1.3,4.4,0Z"/>
    <path class="st256" d="M305.7,287.4c.2,1.3-.8,3.2-1.5,4.4-2.7-2.6-3.4-5.7-7.8-4.4s-1.5,9.5-10.9,11.4c-11.6,2.4-9.5-3.6-11.4-4.1s-3.2,2.3-4.6,2.5c-2.6.5-7.2-2.1-11.3-1s-.9,3-1.8,3c-1.4,0-3.7-2.1-4.8-1.4s-.7,2.9-2.5,4.1c-4.1,2.7-12.9,1.9-13.8,10.4-1.8,3.9-4.1,4-5.9,0-.9-.6-1.5-1.2-1.4-1.4,6.2-13.4,18.3-25.9,32.5-25.7l8.6,3.5c4.8-1.4,9.6-2.2,14.5-2.5,7.9-10.6,13.6-7.2,22.1,1.2Z"/>
    <path class="st83" d="M308.6,297.6c.6.4,1,.9,1.5,1.5,1.7,2.1,2,5.1,2.9,7.3,2.4,5.6,4.7,11.5,5.9,17.6-3.7,2.7-9.4-5.1-7.3-8.8-1.9-4.5-5.3-4.9-10.3-1.5-4.4-1.2-1.6-1-1.6-.8-.9,2.2-3.7,4.9-5.7,2.3-4.9-2.3-10.1-4.4-15.7-6.6l-.5-3.7c3.8-.3,7.5-.6,11.3-.9s4,1.2,5.3,1,8.4-10.3,9.1-10.3,4.9,2.7,5.1,2.9Z"/>
    <path class="st78" d="M343.8,268.3c-5.4-.3-5.8,5.6-7.3,7.3-5,5.8-6.1,5.3-11.7,8.8-2,2.9-8.9,1.6-11.7,0-1.1-4.2,2.6-5.7,11-4.3l3.9-7.7c3.3-2.8,6.2-5.6,8.6-8.5,6.6,2,4.2,2.3,7.3,4.4Z"/>
    <path class="st137" d="M310.1,236.1c1.4,3.4.6,4.1-2.9,2.9,2,3.7.8,5-2.9,2.9l-1.7,1.1c-10.4-4.8-13.6,5.1-10,13.6,2.5-1.1,4.8.5,7.1,4.8,2.4-3.4,4.5-5.8,7.5-1.9l2.4,2.1c-7.5,5.7-11.9,19.4.5,21.4,2.9-2.4,2.9-2.2,2.9,1.5,1.3.4,1.3.9,0,1.5-2.2.2-1.1,3.4-7.3,1.5-4.9-2.8-7.3-5.7-7.3-8.8-4.5-4.9-9.6-9.3-15.3-13.1-6.3,11.3-13.7,16.3-24.7,7.5-2.9,4.6-6.2,8.5-9.9,11.5,2,4.7-7.6,9.8-11.7,10.3-1.4,0-3.4-1.3-3-1.9,2.9-4.2,8.2-11,11.5-15.2s1-.5,1.8-.5c-1.9-3.9,1-11,5.9-8.8,2.3-2.5,3.6-6.4,3.7-11.7h3.6c1.4-5.7,6.8-2.1,7.3,2.9,1.5-1.7,2.8-1.1,4.1,0,4.7-8.6,10-16.4,16.1-23.4,2.3-.6,4.3-1.6,6.2-3.1.5-1.3,1-1.3,1.5,0,1.2.5,2.2,2.9,5.2,3,6,.2,3.4-5.5,9.4,0Z"/>
    <path class="st64" d="M324.8,284.4c-.1,0,.7,2.5-1,3-4.2,1.1-9.1-1.7-10.8-1.5v-1.5c3.5.6,8-.4,11.7,0Z"/>
    <path class="st113" d="M260.3,325.5c5.5-3.8,35.2.9,35.7,5.2l-2,8c3,.2,2.8,1.8,0,2.9-.6,1.1-.1,2.1,1.5,2.9,1.6-1.4,1.5-.5,1.5,1.5-.2,1.1-.7,1.6-1.5,1.5-1.5,5.8-3.5,8.3-5.9,7.3-.4,1.3-.8,1.3-1.5,0-3.7,2.3-8,3.9-12.8,4.7-2.1,3.2-5.5,2.6-10.4-1.8l-10.5-2.9c-9.4-7.3-6.1-28.5,5.9-29.3Z"/>
    <path class="st152" d="M288.1,354.8c1.6,4.9-2.2,7.7-11.4,8.3,11.4,2,18.6,13.5,2.6,12.2-6.3-2-6.5,1.3-9.5,1.5s-.6-2.8-1.7-3.1c-3.3-.7-10.5,1.1-15.2-1.4,1.9-4.2,14.9-4.5,16.1-8.1,2.1-6.3-10.6-6.3-14.6-9.5,5.2-1.6,15,4.7,18.2,4.5s9.3-3.6,15.5-4.5Z"/>
    <path class="st180" d="M263.2,322.6c8.8-.6,10.8-.6,19.8.1,6.8.6,13.9-3.8,15.4,7.2.4,2.6-.9,8.7-4.4,8.8,1.3-11.4-3.1-7.2-9.2-9.1s-3.2-3.4-4.9-3.8-4.7,1.4-7.2,1.3c-4.3-.3-7.9-1.9-12.5-1.6l2.9-2.9Z"/>
    <path class="st121" d="M270.5,379.7c-3.3.5-10.4,2.5-11.7-1.5,3.8-.3,8.4-1.7,11.7,1.5Z"/>
    <path class="st53" d="M294,315.2c3.3-1.7,7.6-8.4,7.3-1.5,1.7,2.2.9,2.9-1.5,1.5,1,3.9.5,6.4-1.5,7.3-8.6-5.5-17.4-2.5-25.7-2.8s-9.2-1.6-14.7-1.7-13.6,5.3-9.5-2.9c.5,0,1,0,1.5,0l2.3-3c11.4-.6,23.2-.1,34.3,3,.9-3.7,5.1-1.8,7.3,0Z"/>
    <path class="st97" d="M276.4,305c.2,2.6-1.7,3.7-5.7,3.4,3.2.2,16.6,1.4,16.4,4.8s-.2,1.4-.5,2.1c-16.4-2.4-21.5-.3-36.6,0-4.5-8,2-6,5.8-8.2s1.1-3.2,2.6-3.6c4.2-1,14.8-2,18,1.5Z"/>
    <path class="st225" d="M276.4,305c.5,0,1,0,1.5,0,4.6,3.6,15.2,3.6,16.1,10.3-5,2.5-3.8.5-7.3,0-6-5-16.1-2.3-23.4-5.9-1-4.6,9.1-4,13.2-4.4Z"/>
    <path class="st75" d="M235.3,312.3c.5,0,4,1.3,4.4,1.5,2.4,13.3-4.1,9.8-11.7,16.1-1.8-.3-1.3-1.7-4.4,0v-1.5c1.6-5.3,3.6-10.2,5.9-14.7-1.3-.5-1.3-1,0-1.5,1.9.2,4.1-.3,5.9,0Z"/>
    <path class="st26" d="M298.4,278.6c1.8,1.2,7.1,7.3,7.3,8.8-4.2-1.3-8.4-5.2-12.5-5.2-3.8,0-6,7.4-11.8,8.1s-3.9-1.2-5.6-1-3.6,2.3-6,2.4c-5.1.2-9-5.5-15.8-3.9s-7,3-4.1,5.5c-2.7-1.4-11.1,2.6-12.6,4.3s1.2,5.6.9,5.9-2.7-.5-3.9.4-4.7,6.6-4.9,8.4,0,1,0,1.5c-.4,3.3-1.3,4-4.4,2.9h-1.5c-1-5.1,4.1-6.6,6-9.5s1.1-3.2,1.4-3.7c-3.1-3.2,1.5-11.2,5.9-8.8,1.3-1.3,11-10,11.7-10.3,2-2.6,5.5-6.6,9.1-8.4,4.3.3,8.5,1,12.7,2.2,7-4.5,23.7-9.4,28,.3Z"/>
    <path class="st194" d="M229.5,313.8c.1,1,2.4,2.8,1.5,6.3s-7.1,5.3-7.4,8.4c-2.5-2.3,0-9,1.5-11.7s1.8-3,4.4-2.9Z"/>
    <path class="st297" d="M289.6,354.8c1.4,2.8,3.3,4.9,5.5,6.3-.1,5.8,2.1,7.3,6.2,9.9,2.2-2.6,3.2-1.9,2.9,1.5l2.9,8.8c-8.1-2.6-11.5-12.2-20.5-2.9-2.3-.9-5.6-2.4-7.3-2.9,3.3-2,7.4-.3,5.9-5.1-.9-3-12-2.5-11.4-7.4.7-5.4,12.9-1.5,14.3-8,.5,0,1.1.1,1.5,0Z"/>
    <path class="st80" d="M296.9,346c1.4.1,2.3.8,2.4,2.1.5,4.4.8,5.3,4.7,8.6-.9,4.2,2.9,8.9,6.1,11.3.5,1.6.8,2.9,1.5,4.4-2.4-.2-5,.3-7.3,0s-2.5-1.4-2.9-1.5c-4.8.2-10.4-13.1-9.8-15.7l3.9-7.8c.5-.9,1.5-1.4,1.5-1.5Z"/>
    <path class="st126" d="M191.4,268.3c2.2,6.2-1.7,7.2-11.7,2.9-5.7.9-3.1,3.8-4.8,5.5s-4,1.2-6.9,6.2c-.3-2.8.2-4.9,1.5-7.3-1.1-5.8,6.4-10.2,11.7-10.3.5-.4.9-1,1.5-1.5,3-2.1,8.4.9,8.8,4.4Z"/>
    <path class="st138" d="M181.1,265.4c-2.8,2.3-10.3,7.6-11.7,10.3-5.1-4.5,3-11.3,7.3-11.7s2.8,2.3,4.4,1.5Z"/>
    <path class="st61" d="M203.1,272.7c4-1.8,11,6.8,10.3,10.3,5.1,1.6,10.6,2.4,16,2.4,2.5,4.2,6.5,1.6,12-7.8l2.8-.5c1.2-3.8,1.6-3.8,2.9,0-1.3,1.9-1.7,4.3-3,6.2-2,2.9-8.3,5.9-7.3,11.4-2.8,3-3.9,5.9-5.9,8.8-3.6,1.3-7.5,8.9-11,8.8s-14.6-10.8-18.5-12.4-3.5-.5-4.3-.8c-3.8-10.6-6-22.9-17.6-27.9,3.9-.6,10,1.9,11.7-2.9,4.2-5.4,10.2-1.8,11.7,4.4Z"/>
    <path class="st119" d="M230.9,192.1c4.7-4.6,19.2,4.7,10.3,7.3-.4,1.3-.9,1.3-1.5,0l-2.6,3.1c-3.1-.5-11,.3-9.9,3.4,3.5-2.4,11.3-3.9,12.5.9,7.2,3.6-6.2,11.4-10.3,7.3,2,5-6,13.5-10.3,7.3-1.6,0-3.3-1.3-4.4-1.5-3-.9-3-1.7,0-2.9-1.3-2.1-2.7-2.6-4.4-1.5-4.4,4.5-6.5,1.8-7.3-4.4-.2-.1.4-2.1-.3-2.7s-5.3-.3-5.6-.2v-1.5c1-4.1,6-5.8,15.1-4.9,3.5-5.2,8.5-7.8,15-7.8l3.6-1.9Z"/>
    <path class="st150" d="M229.5,214.1c3.7-1.9,5.6-.4,5.5,4.5,3.8-1.5,6.4-1,7.7,1.4,1.3.4,1.3.9,0,1.5-2.8.6-10.2,7.7-14.3,8.4l-12.1,1.9c-3.2-2.7-.8-5.1,2.9-4.4,1-2.4,1.5-2.6,0-5.9,7.4-.2,6.6-4.6,10.3-7.3Z"/>
    <path class="st215" d="M203.1,211.2c1.7,1.2,6.4-3,2.9,4.4,1.4.2,3.2-.3,4.4,0,2-3.5,3.7-1.9,4.4,1.5-.2.8.1,2,0,2.9-2.8-.4-5.5-1.4-6.6-1.5s-.5,2.3-1.8,3c-3.6,2-6.4,1.9-9.6,3.1s-1.2,2.8-2,2.9-4.8-1.3-4.9-1.5c-2-2.7,4.4-5.1,5.4-6.3,2-2.6,1.9-8.2,7.8-8.3Z"/>
    <path class="st35" d="M219.2,227.3c-.4,1-2.2,3.6-2.9,4.4-1.4,1.4-4.2,3-5.9,4.4l-8.8-1.5c.6-8,11-10.3,17.6-7.3Z"/>
    <path class="st52" d="M230.9,233.1l1.3,2.9c-3.9,3.8-5.3,8.7-4.2,14.7,4.4-6.4,8.8,3.2,2.9,5.9,3.2,5,8.7,7.9,14.7,7.3-.6-1.3,0-1.7,1.5-1.5,7.5-8.1,13.6,1.5,5.9,5.9-1.1.5-4.6,6.9-5.9,8.8h-2.9c-2.7-7.2-5.6-9.4-13.2-13.2-3,2.9-4.9.7-4.4-2.9-3.6-1.6-5.7-2.3-6.9-1.4-8.2,6.1-29.4-.3-16.8-9.9l10.5-7.7c7-3.9,10-7.4,17.6-8.8Z"/>
    <path class="st7" d="M288.1,220c4.9-3.8,5.8,6.9,2,9.6-3.8-.7-6.9,4.5-7.9,8,4.6,2.7-10.2,20.3-11.7,20.2-1.9-2.2-3.4-5.1-4.4-8.5-8.2-2.4-12.2-6.4-11.7-11.7-2.7-.4-3.7-2.7-3-6.7-2.7.2-4-.7-4.3-3.6,8.8-8.7,16.8,9.7,27.1,8.8,2.1-.4.6-16.3,8.8-14.7s2.2,8.1,5.1-1.4Z"/>
    <path class="st6" d="M213.4,241.9c-2.1,5.8-14.9,8.1-11.4,14.4s11.6,5.2,13.4,4.8,1.3-3,2.3-3.7,5.6,1,7.4-1.6l1.5,5.2-1.9,2.7c-6.5,1.5-13,2.4-19.5,2.8.8,3.1.2,5.2-2.1,6.2-5.6-5.2-6.1-3.1-11.7-4.4s-5.5-1.2-8.8-4.4c9.9-8,19.7-15.8,30.8-22Z"/>
    <path class="st223" d="M263.2,206.8c1.7-2.9,5.7-3.9,12-2.9,5.1-3.6,11.5-4.8,10.8,3.6,1.7.8,3,1.6,3.6,3.7-1,4.2-4.9,5.7-11.7,4.4-4.7,1.3-7,1.9-11.7,2.9-8.4,1-10-1.6-4.5-8.1l1.6-3.7Z"/>
    <path class="st173" d="M292.5,211.2c1,0,2,0,2.9,0-5.3,5.7-.3,4,2.9,8.8-2.4.2-4.2-.4-5.8,2.2,2.6,3.8,4,5.7,8.8,6.6-.3,0-.5,1.8-1.4,2.1-2.4.9-5.3-3.1-4.5,2.3-.4-.2-1.1.2-1.5,0-3.4.5-6.2,2.1-8.3,4.7l-3.5-.3c-2.6-8,14.1-11,5.9-17.6-2.4-1.9-7.2-4.5-10.3-4.4,3.2-.9,8.7-3.8,11.7-4.4,1-3.9,1.9-3.9,2.9,0Z"/>
    <path class="st51" d="M247.1,227.3c1.3,0,4.5,1.5,7.3,0v10.3c-2.4,4.6-7.5,3.9-15.4-2.1-4.2.8-6.9,0-8-2.3,7-5.5,6.7-5.9,16.1-5.9Z"/>
    <path class="st220" d="M263.2,206.8l1.3,1c1.7,6.6-9.9,9.9,1.7,10.7-8.6,1.9-16.8,1.5-23.5,2.9v-1.5c.5-3.9,8.5-7.1,11.6-7.7s2.1-.4,3-1.1c-.4-1.4,0-1.9,1.5-1.5-2.2-2.4-1.7-3.3,1.5-2.9.3-3.8,1.5-3.5,2.9,0Z"/>
    <path class="st188" d="M295.4,151.1c3.6,8.1,3.6,15.4,0,22,1.3.4,1.3.9,0,1.5-.5-.1-1.1-1.4-1.5-1.5l-3-1.2c3.8-2.3-.6-6.8-1.4-3.2-3.2,4.8-8.9,2.6-10.3,2.9-4.2-1.5-2.8-5,1.5-4.4-7.1-5.2-2.6-12.5,4.9-13.6l3.9-2.5c1.4-4.1,4.4-4.1,5.9,0Z"/>
    <path class="st5" d="M291,186.2v1.5c-3.1,5.5-8.1,2.7-11.7,0-2.4,2.6-6.6,3.1-12.7,1.3-4.1,1-7.2.6-9.3-1.3-4.1,9.5-12.4,8.8-19.9,3.3-1.7.9-3.9.8-6.4-.4l-4.4-2.9c5.2-1.2,10.6-4.1,16.1-2.9,1.2-3.1,3.7-1.9,2.9,1.5.4.4-1.3,3.1,2.2,3.1s6.5-5.2,13.2-6c9.7-1.2,19.1,3.2,30.1,3Z"/>
    <path class="st159" d="M241.2,164.2c1.5,2.2,0,6.7-2.9,7.3.6,2.8-1.5,4.7-6.4,5.8l-3.9,3c-3.9.7-5.8,1.3-10.3,1.5-3.3-.8-3.7-5.2,0-5.9.4-4.3,3.6-5.2,5.9-1.5-.3-5,3.1-8.4,10.3-10.3-.3-2.8-.2-4.8,2.9-5.9.5-1.3,1-1.3,1.5,0,4.1-2.1,5.4,3.5,2.9,5.9Z"/>
    <path class="st221" d="M200.2,199.4c2.4-3.4,2.9-6.7,3.2-7,.6-.7,3-.3,3.9-1.1,2.4-2.2,5.2-8.5,9.6-5s-4,6.3-5,8.8c2.3.8,4.2-1.2,5.9-1.5,4.7,0-2.1,6.5-4.8,8.2s-15.3,2.8-12.7-2.3Z"/>
    <path class="st111" d="M230.9,190.6c6-1,4.4-2.8,5.2-3,4.1-1.1,3.2,2.3,4.8,2.8,2.9,1,9.6,2.4,12.1.8s-.1-2,4.4-3.6c4.5,1.4,1.9,7.1-.9,9.6s-9.9,5.9-10.8,2.1c-1.4,2.4-3.7,2.9-4.4,0l1.5-2.9c-7-.8-3.5-4.2-11.7-4.4-.3,1.3-.8,1.2-1.5,0,.2-.7.8-1.4,1.5-1.5Z"/>
    <path class="st21" d="M211.9,173c4.3-.9,4.7,7.3,1.5,8.8-7.3-.8-2-.1-4.8,1s-4,.3-5,1c-2.3,1.5-3.1,6.9-7.8,5.4-1.3-.4-1.2-.8,0-1.5.5-1.2.6-2.7,1.5-4.4.1-4,3.3-10.6,7.3-8.8.3-3.6,5.6-4.8,7.3-1.5Z"/>
    <path class="st125" d="M316,168.6c3.5,1.4,6.5,3.4,8.8,5.9-.2.9-1.1,2-1.5,2.9-5.8-1.5-7.5,2.4-16.1,0,.1-.5.3-1,.7-1.4s.6,0,.6,0c-5-1.1-7.8-5.2-2.7-7.4,2.5-2,5.9-2,10.3,0Z"/>
    <path class="st148" d="M244.1,167.2c.3-.7.7-1.3,1.2-1.6s9.8,3.9,10.5,4.6c-1,1.7-2.5,3.6-4.4,5.9-3.8.6-7.9.9-11.7,1.5-5.9.8-5-4,0-2.9.2-4.2,1.7-6.6,4.4-7.3Z"/>
    <path class="st30" d="M267.6,168.6c2.3.4,4.8,2,5.9,4.4-6.6,1.2-13.8,1.8-20.5,2.9-.4-4.4,10.9-9.1,14.7-7.3Z"/>
    <path class="st300" d="M217.8,176c-.2,1.9.1,3.9,0,5.9-2.4.1-1.6.3-4.4,0l-1.5-8.8c-2.1-2.9-.1-4.7,2.9-2.9.7-2.7,1.2-4.1,2.9-1.5,3.5,1,4,6.5,0,7.3Z"/>
    <path class="st116" d="M178.2,184.8l7.3,4.4c-.4,1.2,1.9,3.9,1.5,4.4-3,3.1-2.4-3.7-4.4-2.9v5.9c-1,.5-3,2.1-4.4,2.9,2.8-4.5-1.1-9-1.1-12.8s1.1-1.7,1.1-1.8Z"/>
    <path class="st233" d="M239.7,174.5c0,.2-1.4,1.1-1.2,2.1l1.2.9c-1.8.3-7.4,2.2-11.7,2.9.3-6.2,6.6-5.7,10.3-8.8,3.2-3.6,4.4,0,1.5,2.9Z"/>
    <path class="st197" d="M258.8,168.6c1.4-4.8,12.1-8.9,8.8,0-3.3,2.3-11.5,2.8-14.7,7.3-.5,0-1,0-1.5,0-1.1-4.9,1.4-4,4.4-5.9-1-2.9.5-3.5,2.9-1.5Z"/>
    <path class="st158" d="M302.8,167.2c1.4-2.8,3.6-1.5,2.9,1.5-1.7,8.7,3.3,4.9,4.4,5.9s-.4,4.1-2.9,2.9c-3.8-1.1-5.5-2.8-5.9-2.9-2-1.7-2.5-3.2-1.5-4.4-5.5-1.5.2-8.9,2.9-2.9Z"/>
    <path class="st77" d="M289.6,168.6c-.5-.4-4.7-5.6-4.4-5.8l7.3-1.5,1.5,11.7c-1.7-.3-4,.3-5.9,0-.5-2.2,3-1.6,4.4-3.7,0-1.5-2.4-.3-2.9-.7Z"/>
    <path class="st243" d="M274.9,165.7c2.2-3.5,5.7-2.9,5.9,1.5-.4,1.4-1.5,2.8-1.5,4.4-1.9.4-3.6,1.1-5.9,1.5-5.9-2.1-3.3-14.1,1.5-7.3Z"/>
    <path class="st210" d="M229.5,192.1c.5,0,1,0,1.5,0,.2,5.9-10,3.3-13.3,5.1s.1,3.8-1.2,4.5c-4.6,2.5-15.8-.4-19.2,5.1-.8-.1-1.2-1.4-1.5-1.5-2.3-3,1.6-4.7,4.4-5.9,4,0,2.5,2.8,3.9,3s7.9-1.3,8.4-1.5c1.7-.8.5-3.2,1.3-4.1s5.2,1.1,4.1-3.2c3.7-.6,8-1.3,11.7-1.5Z"/>
    <path class="st33" d="M242.7,184.8l-1.5-4.4,10.3,1.5-5.9,4.4c-.1-.1-2.8-1.4-2.9-1.5Z"/>
    <path class="st262" d="M289.6,178.9c.3,6.2-9,6.2-8.8,0h8.8Z"/>
    <path class="st2" d="M195.8,187.7c-.2.4.1,1,0,1.5-1.5,5-2.7,3.7-7.3,5.9,0-2.6,4.4-6.9,7.3-7.3Z"/>
    <path class="st269" d="M200.2,199.4c-1.4,2-3.1,3.8-4.4,5.9-.9-.4-3.1.3-4.4,0,2.4-2.3.7-5.7,8.8-5.9Z"/>
    <path class="st24" d="M301.3,174.5c-1.6-.4-4.3.4-5.9,0v-1.5c.6-3.7,1-5.7,4.4-2.9l2.9,3.7-1.4.7Z"/>
    <path class="st70" d="M194.3,167.2c0,.9,1.2,2.5.9,3.7-.9,3.5-5.6,8.4-9.7,6.6.5-2,1-3.9,1.5-5.9-.3-2.6,2.4-5,4.4-2.9.5-2.7.8-3.5,2.9-1.5Z"/>
    <path class="st56" d="M185.5,159.9c4-10.3,11.5.9,2.9,5.9,3.2,2.1-3.2,6.7-4.4,2.9,0-1-.8-1.3,0-4.4s.5-3.3,1.5-4.4Z"/>
    <path class="st65" d="M191.4,168.6c-1.5.9-2.9,2-4.4,2.9s-4.1,3.3-4.4,2.9c-.4-2.1,1.3-3.9,1.5-5.9,2.7,0,3.3-.9,4.4-2.9,3.3-6.6,6.7-1.3,2.9,2.9Z"/>
    <path class="st9" d="M189.9,152.5v2c5.5,2.8,4.5,7.7,4.4,12.7-1,.5-2,.9-2.9,1.5v-4.4s-2.9,1.5-2.9,1.5c.5-.9,1.1-7.1,2.9-8.8-1-.8-5,1.8-5.9,2.9l-1.5-2.9c2.7-.7,4.1-3,5.9-4.4Z"/>
    <path class="st151" d="M220.7,152.5c1.9,3.4,2.8,7.3,2.9,11.7-.9,1.9-2.8,3.4-5.9,4.4,3.5-6.3,10.4,0,5.9,5.9l-5.9,1.5c.2-2.9-.2-5.3,0-7.3-.7.1-2.1,1-2.9,1.5-2.5.2-3.1-.7-2.9-2.9-3.9-.6-3.7-1.7,0-2.9-.9-1.8,0-3.2,1.5-4.4-3.9-1.2-3.8-3.1,0-4.4,0-.7,3.4-8,4.4-10.3,3.5-1.5,6.1,5.4,2.9,7.3Z"/>
    <path class="st85" d="M226.5,137.9c2,2.3-.1,4.9-2.9,4.4,7.2,4.2,3.6,18.6-2.9,10.3l-2.9-7.3c2-4.6,4.1-5,7.3-8.8.2.4,1.1.9,1.5,1.5Z"/>
    <path class="st200" d="M213.4,155.5c0,.2.2,2.4,0,4.4l-.3,1.8c-4.2,0-5.2.2-7,4-.2,1.7-1.2,3.1-2.9,4.4-.4.9-.9.9-1.5,0-.3-.5-2.7-.7-3-3.8s1.5-3.2,1.6-3.6c2.5-4.8,5.4-7.3,8.8-7.3.5-.4,3.3.3,4.4,0Z"/>
    <path class="st203" d="M219.2,133.5c-.3,1.1.5,2.9-.7,4.4s-9.8,4.5-11.8,7.3c-1.2,0-.9-4-.7-4.4s3.8-1.8,5.1-2.9,3.4-4.3,3.7-4.4c.8-.4,3.2.3,4.4,0Z"/>
    <path class="st49" d="M204.6,149.6c0,1.9,1,2.9,2.9,2.9-.2,1,0,3.1,1.5,2.9-.5.4-3.8,8.1-8.8,7.3,1-4.5,1.7-8.8,2.9-13.2h1.5Z"/>
    <path class="st247" d="M207.5,152.5c-4.3,3.1-6.1,1.3-2.9-2.9l4.4-1.5c.9,2.2-1.3,3.6-1.5,4.4Z"/>
    <path class="st63" d="M247.1,130.5c0,1.3-.6,1.8-1.5,1.5-1.1,3-2.6,4.4-4.4,4.4-.9,4.2-3.1,3.9-4.4,0-1.9,3.2-6.2,7.2-10.3,7.3-1.9,2.1-2.8,1.3-2.9-1.5.6-1.4,2-3.1,2.9-4.4s3.2-3.1,4.4-4.4l6.5-3.3c3.8-4.2,7-5,9.6-2.5,3.8,1.1,3.8,1.9,0,2.9Z"/>
    <path class="st192" d="M247.1,124.7c2.9.8,2.8,2.1,0,2.9-5.6,1.6-10.1,6.2-15.3,7.3l-.8-1.4c.5-.5.4-2,2.9-4.4s1.8,0,2.9-.8c3.5-2.7,2.5-6.2,10.3-3.6Z"/>
    <path class="st279" d="M214.8,170.1c-.9.4-1.9,2.5-2.9,2.9-2.1,1-5.8.8-7.3,1.5-1.9,0-2.5-1.2-2.9-2.9,0-.1,0-1.3,0-1.5h1.5c.4-2.6,7.1-5.2,8.8-2.9.9-.4,2.6-1.9,2.9-1.5v4.4Z"/>
    <path class="st130" d="M201.6,171.6c3.1-.4,3.3-.2,2.9,2.9-1.5.7-6.6,7.4-7.3,8.8-2.3-7.7,2.5-8.7,4.4-11.7Z"/>
    <path class="st22" d="M274.9,126.1c.2.2.4,1.2,1.5,1.9s1.6-.2,2.6.2-.2,3.4,6.2.8l-5.9,7.3c-.5,1.1-1.2,2.3-2.2,2.1-5.1-.7-.5,2.6,2.4,4.1,5.1-2.5,11-.3,5.7,4.1,2,2,1.1,2.8-1.5,1.5-2.2.6-3.7,1.7-4.6,3.5-.5.3-9.3-5.6-10.1-6.4-2.8,2.8-3.5,2.4-2.9-1.5-1-3.3-2.2-10.3,1.5-11.7-3.9-5.2,3.8-15.7,7.3-5.9Z"/>
    <path class="st118" d="M296.9,143.7c1.7-3.5,5.1-3,10.3,1.5,2-.1,3,.9,2.9,2.9.2.2-1.6,3.4-1.5,4.4-.4,1.3-.9,1.3-1.5,0-2.1,1.8-2.9,1-1.5-1.5l-8.8-1.5c2.2,1.9,1.2,2.8-1.5,1.5-1.9,0-3.9-.1-5.9,0-6.2,7.5-18.7.6-5.9-2.9.5-.5,1-1.2,1.5-1.5-1.6-5.3,9.3-5.2,11.7-2.9Z"/>
    <path class="st15" d="M279.3,136.4c.2.2-2.1,3.7-1.5,4.4,3.7,0,5.4-4,8.8-4.4l3.7,2.7c4.3-.2,13,1.8,6.6,4.7-5.4-1-7.6.5-11.7,2.9.7-5.5-3.2-.8-7.2-2.2s-7-5.9-6-11c.3-.3,7.1,2.6,7.3,2.9Z"/>
    <path class="st125" d="M286.6,136.4c7.7-.9,7.2,2.4,8.1,2.6,2.5.6,7.9-.7,11.6,1.6s.6,3.1.9,4.6c.8-.2,2.2.4,3.4,0,1.8-.6-.4-6.2,5.4.7l-5.9,2.2c-.6-.7-2,2-2.9-2.9-1.5.4-4,1.6-5,1.5s-.8-2-2.1-2.8-2.8.2-3.2,0,.6-2.4-1-2.9c-3.7-1.1-8.5,6-9.3-4.4Z"/>
    <path class="st125" d="M320.4,149.6c1,.3,5.7,5.4,5.9,7.3-2.2-1.1-5,1.4-5.9,1.5.7,3.9-3.7,1.8-5.9,0-9.7-2.2-12.1-4.2-7.3-5.9h1.5c3.3.8,9.5-3.5,11.7-2.9Z"/>
    <path class="st170" d="M269.1,120.3c1.9-2.6,2.4-2.1,4.4,0,2.3-1.9,3.2-1.1,1.5,1.5,0,.3-2.1,1.3,0,4.4-1-.7-4.1-3.3-4.4-2.9,1.1,3.2-2.7,7.4-2.9,8.8-5.9,3.6-7.4-2.1-8.1-6.3l3.7-2.5c1.5-.8.2-2.5,5.9-2.9Z"/>
    <path class="st62" d="M273.5,115.9c4.2.7,5.7,4.9,10.3,4.4-.4,6.7-4.9,3.8-8.8,1.5,0-.3-1.2-1.4-1.5-1.5-3.3.3-3.1-3.9,0-4.4Z"/>
    <path class="st287" d="M273.5,115.9v4.4c-1.9,2.2-4.2,0-4.4,0v-2.9c.6-1.7,2.9-1.7,4.4-1.5Z"/>
    <path class="st242" d="M252.9,121.7c1.2.3,3-.2,4.4,0,1,4.9-8.3,10.5-1.5,13.2,3,2.8.5,5.1-2.9,2.9-1.9,4.1-5.5,2.7-5.9-1.5-1.8-1-.8-4,0-5.9,0-1,.2-2.1,0-2.9s.2-2.1,0-2.9.2-1.3,0-1.5c1.7-.6,3.6-1,5.9-1.5Z"/>
    <path class="st68" d="M245.6,115.9c5.1-1.1.5,4.2,7.3,5.9-.7,5.6-2.4,4.4-5.9,1.5-.3-.2-2.8.7-3.1-.9s1.5-4.5,1.6-6.4Z"/>
    <path class="st10" d="M263.2,123.2c-3,6.6-.6,5.5,4.4,8.8-.2,1.4,2.8,7.4-1.5,11.7-.5,3.7-8,6.2-10.3,2.9-5.9-2-10.6-8-2.9-8.8.1-.2,2.7-2.7,2.9-2.9.7-.5,3.6-.2,4.4-2.2l-4.4-.7c0-2.5,3.7-2.4,4.4-2.9,1.7-1.4-5.7-1.4-2.9-4.4s4.6-.9,5.9-1.5Z"/>
    <path class="st125" d="M313,158.4c2.6.4,3.2.9,1.8,1.5,4.3-.9,8.1,1.5,4.1,4.3,0,.2-2.4,2-1.5,2.9s2.5-.3,2.9,0c2,4.7-2.9,5.7-4.4,1.5-5.3-.4-9.7-1.8-13.2-4.4-5.8,4.4-8.7-9-2.9-8.8l3.8-1.3c3.2,1.7,6.3,3.1,9.4,4.2Z"/>
    <path class="st3" d="M324.8,171.6c0,1,.2,2.1,0,2.9-3.4-1.1-6.9-1.5-10.2,0-.7-2.3,1.2-4.3,1.5-5.9,1.5-.2,3.6.5,4.4-1.5,1.6,1.1,2.4,3.5,4.4,4.4Z"/>
    <path class="st47" d="M320.4,158.4c1.8,3.3,3,6.8-1.5,5.9.2-.9,0-2,0-2.9-3.7-.2-6.8,1.5-5.9-2.9.1-1.3.7-1.3,1.5,0,2.5-.2,5,0,5.9,0Z"/>
    <path class="st237" d="M324.8,170.1c.1-1.4-.1-2.9,0-4.4l7.3,6.6-4.4.7c-.6-1-2.1-2-2.9-2.9Z"/>
    <path class="st16" d="M310.1,196.5c0,2.6,4.8,4.3,7.3,2.9h1.5c.9,1.4,2.6,5.7,2.9,5.9-.9-.2-2.1.2-2.9,0l-3,2c-4.8-2.7-9.7-2.9-14.6-.5-.8-.2-2,0-2.9,0-9.3.8-13-9-2.9-8.8,5.1-4.3,9.2-3,14.7-1.5Z"/>
    <path class="st98" d="M301.3,206.8l4.4-4.4-4.4-1.5c2.9-.2,5.9,0,8.6.9s2.8,2.1,8.9,3.5c.4,3.7,5.7,6.3,7.3,10.3-9.4,1.9-9.2-5.4-11.3-5.9-4.3-1-9.3-2-13.6-2.9Z"/>
    <path class="st304" d="M279.3,187.7c3.6.6,6.5,2.6,8.8,5.9l1,1.2c3.7.8,7.3-1.4,6.3,3.2-1.8,1.5-3.3,3.4-2.9,5.8,2.4,0,5.2.3,5.9,2.9-8.1-.2-.2,1.5-5.9,4.4-.9,0-2.1-.2-2.9,0-5.4.2-8-2.4-5.9-7.3-3.3-.8-5.4,2.4-8.2,2.9s-10.8.1-12.4,0-2.3.2-2.9,0l-1.5,2.9c-.5.5-1,1-1.5,1.5-5.8,5.1-10.7.4-11.7-5.9,0-1.7,0-3.6,0-5.9,6.6-1,11.3-4.7,11.7-11.7,8.9-3.2,13.9-.7,22,0Z"/>
    <path class="st181" d="M291,187.7c3.3,2.2.8,2.6-1.5,3.9v2c-.5,0-1,0-1.5,0-2.9,0-5.9,0-8.8,0v-1.4c4.8.4,3.8-2.7,0-4.4,3.8.3,7.9-.2,11.7,0Z"/>
    <path class="st177" d="M310.1,196.5c2.6.7,5,1.5,7.3,2.9.4,7.3-10.5-3-13.2-1.5l5.9-1.4Z"/>
    <path class="st305" d="M326.2,344.5c.5-.9,1-.9,1.5,0,1.9.7,2.2,2,2.1,3.9,6.3,3.6,4.4,7-2.1,6.4-1.5,1.2-1.8,1.4-2.9,2.9.4,1.4,0,1.9-1.5,1.5-.4-.2-8,.4-4.4-2.9s5.6.4,5.9-2.9c-6.6-3.7-5.7,1.4-6.7,1.5s-2.7-1.4-3.6-1.5-2.1.2-2.9,0c-1.1-.6-2.1-1.4-2.8-2.4s4.8-7.4,5.2-7.6l12.3,1.2Z"/>
    <path class="st155" d="M327.7,344.5c3-.3,6.4.7,10.3,2.9.1,2.1-.4,4.1-1.5,5.9-1.1.2-2.9-.6-2.9.7l2.9,3.7-8.8-2.9c1.5-1.2,4.4-1.2,4.4-2.2-.9-2-7-1.8-7.3-2.2-2.7-2.7,4.6-2.9,2.9-5.8Z"/>
    <path class="st4" d="M324.8,357.7l8.8,4.4c-4.4,1-7.1-1.6-10.3-2.9.5-.5,1-.9,1.5-1.5Z"/>
    <path class="st145" d="M304.2,327c2,17.9,5.4,14.2,22,16.1,1.3.4,1.3.9,0,1.5-.2,0-1,1.3-2.1,1.3-1.8,0-7.1-2.2-8.1-1.2s.5,3.3-.3,4.1c-1.6,1.6-4.3-2.4-4.2,4.6-3.2-.8-6.5-3.3-10.3-2.9-3-3.7-3.5-8.6-1.5-14.7-3.4-.7-2.3-4.4,0-5.9-.1-2.6-1.4-5.4-1.5-7.3s.7-5.8,1.5-7.3h2.1c0,0,2.3,11.7,2.3,11.7Z"/>
    <path class="st281" d="M299.8,335.8c.4,7.6-2.3,7.7,5.9,11-5.4,1-3.1.5-4.4,3.7s-1.9,2.6-1.5,2.9c9.6.2,8.4,8.5,10.3,14.7l-4.4,2.2c-.2-4-3.4-6.5-4.8-9.9-.8-1.9.7-4.3.1-5.1-2.1-2.9-4.9,0-4.1-9.1-1.7-3.6-1.8-10.4,2.9-10.3Z"/>
    <path class="st171" d="M311.6,221.4c5.8,3.7,2.5.5,7.7,1.7s18.6,7.6,20.2,8.6,9.1,7.1,7.3,8.8c-4.2.6-6.2-2.9-9.9-4s-8.7-.8-11.1-1.8-.3-5.1-5.5-6.6c-4.6-1.3-6.9,2.2-11.7-2.9s-.5-4.1,3-3.7Z"/>
    <path class="st257" d="M311.6,315.2c1.6,1,5,6.3,7.3,8.8s3.4,1.4,2.9,4.4c-2.8.8-4.3,2.4-5.9,2.9-7.9,2.7-7.9,2.6-11.7-4.4-5-8.2.6-24.2,7.3-11.7Z"/>
    <path class="st217" d="M329.2,343.1c4.3.4,8.4-1.6,8.8,4.4-3.8,7.7-5-2.5-10.3-2.9s-1,0-1.5,0v-1.5c1,.1,2,0,2.9,0Z"/>
    <path class="st228" d="M310.1,236.1c3.2,2.9,9.9,5.4,10.2,5.9,2.8,3.3-3.6,2.2-2.9,4.4,4,.9,8.3-2,12.1-1.2s10.7,8.2,11,8.8c3,5.3-3.6,5.5-4.1,10-1.5,4.1-11.5,1.3-11.7-2.9-3.2-2.2,1.4-2.2,1.1-2-.7.6-16.8,1.9-17.3-.9-5.2,2.3-4.8-4.1-.7-6.4-2.9-2.6-3.2-6.8-.8-12.6.9-1,1.3-2.5,2.9-2.9Z"/>
    <path class="st246" d="M301.3,313.8c1.2-1.8,8-9.7,10.3-7.3v8.8c-10.6-6.7-8.1,5.3-7.3,11.7-2.4-4.5-2.3-7.6-4.4-11.7.3-.6,1.2-1,1.5-1.5Z"/>
    <path class="st172" d="M324.8,261c2.6.3,8.9,2.1,11.7,2.9-.2,1.9.6,6.2-.2,7.1s-3.2.2-4.8,1.7c-2.8,2.5-5,9.6-5.4,10-1.9,1.7-11.1-1.9-13,1.7-1.9-.3-2.1-1.1-2.9-1.5-13.4-1.3-6.8-20.1,1.5-23.2,2.9-1.1,11.1-1,13.2,1.2Z"/>
    <path class="st64" d="M308.6,258.1c5.1-1,12.8.7,18.3,0l-2.2,2.9c-7-.8-17-.3-19.7,7.4-2.6,7.3-1.9,11.6,5,14.6-8.8,1.2-10.5-6.1-8.1-13.3s3.2-3.9,4.4-5.9.4-3.5.8-4.3c-2-2.4-1.3-3.2,1.5-1.5Z"/>
    <path class="st90" d="M295.4,347.5l-2.9,11.7c7.5-.8,2.7,1.7,3.8,4.4s4.8,4.3,5,7.3c-.3,0-1.3,1-2.1.7-10.9-3.1-4.6-3.3-5.1-8.6s-5.6-4-4.5-8.3c1.8-.5,4.8-5.5,5.9-7.3Z"/>
    <path class="st90" d="M299.8,329.9c.1,1.9-.1,3.9,0,5.9-1,1.9-2.8,8.6-2.9,10.3,0-1.1-1.4-1.3-1.5-1.5-3.2.2-3.8-.7-1.5-2.9-.1-.8-.1-2.1,0-2.9.2-2,2.2-8.2,4.4-8.8h1.5Z"/>
    <path class="st290" d="M294,341.6c.1.9,1.1,2,1.5,2.9-4.9.3-10.7,3.9-14.6-.8l13.2-2.2Z"/>
    <path class="st134" d="M298.4,278.6c-1.5-1.1-3-2.7-5-2.8s-13.9,1.6-17.1,2.1-3.4,2.9-5.2,3.2c-3.1.6-9.9-2.7-12.8-2.2s-3.5,6.6-3.8,7-3.9-2.1-5.8-1.5c-2.4-2.2,8-13.7,8.8-14.1,3-1.6,8.9,5.2,11.8,4.6,7.6-1.5,11.5-12.5,12.4-12.6,5-.8,16.1,10.6,16.8,16.2Z"/>
    <path class="st99" d="M226.5,261c2,.3,3,1.9,4.4,2.9,26.2,12.4,1.4,28.4-17.6,19.1-6.5-3.7-6-6.3-10.3-10.3-3.1-12.6,1.7-8,7.7-9.2s10.2-3.5,15.8-2.6Z"/>
    <path class="st259" d="M244.1,277.1c-1.5,3.5-10.3,17-14.7,14s-.9-2.8-1.8-3.4c-1.8-1.1-9.2-1.8-14.3-4.7,7.3.9,24.3,2.8,26.2-6.9s-3.6-6.7-6.4-9.1-1.8-2.7-2.2-3c6.9,2,16.7,5.1,13.2,13.2Z"/>
    <path class="st182" d="M245.6,205.3c4.8,0,4.2,8,11.7,5.9-4.7,5.1-8.3,7.4-14.7,8.8s-7.6,2.1-11.7,1.5c0-3.1,2.6-6.2-1.5-7.3,3.4-2.6,10.6-2.3,10.3-7.3.1-2.3,4.6-3.3,5.9-1.5Z"/>
    <path class="st245" d="M239.7,199.4c1.1,2.1,3.1,2.1,5.9,0,2.9.5,1,4.1,0,5.9-1.7,0-4,1.3-5.9,1.5s-5.2-.2-8,0-3.5,2.3-4.5,2.3-5-2.6-5.1-3.1c-.6-2.1,6-5.6,7.3-5.9,3.9-1.1,6.9-.2,10.3-.7Z"/>
    <path class="st207" d="M210.4,215.6l1.5-7.3h5.9c.5,3.5-2.2,5.5-2.9,8.8-1.9.7-3.5-1.3-4.4-1.5Z"/>
    <path class="st146" d="M245.6,199.4c-.2,5.8-9.6,5.4-5.9,0,.5,0,1,0,1.5,0,1.4-.2,3,.2,4.4,0Z"/>
    <path class="st42" d="M254.4,237.5c.5.1,3.9,4.2,5.6,5.4,5.4,3.9,4.4-1.2,6.1,6.3,4.4,6.4,4.9,9.9,1.5,10.3-4.9-4.4-5.9-2.1-7.3-2.9-2,.3-3.9-.2-5.9-1.5-3.6-7.5-8-10.9-13.2-10.3-.4,2.8-2.8,3.4-7.3,1.8-1.6,2.3-3.6,3.6-5.9,4-4.9-2.5-10.4-6.1-1.5-5.9l-2.9-7.3c4.7,1,5.5-3,7.3-4.4,11.7-2.1,9.1.5,17.2,4.1s4.8-.1,6.2.3Z"/>
    <path class="st236" d="M241.2,244.9c14.5-.8,12.4,14.5,1.5,17.6-3.9,2.7-9.3-2.1-11.7-5.9-.8-2.7.2-5.6,0-5.8-.4-.4-2.3.3-2.9,0v-1.9c3.5-.8,2.7-5.1,3-5.4.4-.4,7.9,1.3,10.2,1.4Z"/>
    <path class="st137" d="M254.4,255.1c.3,3.6-2.1,6-7.3,7.3-.5.5-1,1-1.5,1.5-2.1,1-3.9,1-2.9-1.5,7.8-4.6,9.5-16.4-1.5-17.6.2,0,1.4-1.6,3.5-1.5,4,.2,12.7,6.8,9.7,11.8Z"/>
    <path class="st61" d="M254.4,255.1c7.9-3.5,5.4,1.2,5.9,1.5-2.9,1.8-2.2,10.8-3,11.6s-3.4-.3-4.3,0c3.9-6.2,0-7.7-5.9-5.9,1.9-2,2.2-5.1,7.3-7.3Z"/>
    <path class="st61" d="M242.7,262.5c.8.4,1.6,1.6,2.9,1.5-4.7,5.1-13-1.7-14.7-7.3,3.5,3.9,7.5,4,11.7,5.9Z"/>
    <path class="st280" d="M294,233.1c1.6,6.5-4.7,3.5-6.6,7.3s-.3,5-.8,5.8-2.1-1.4-3.5,0c-2.5,2.4-8.5,14.8-9.5,15.6-3.7,2.6-4.6-1.1-5.9-2.3.5-3.6-.7-6.9-1.5-10.3,7.3,11,3.7,5,8.1,0,5.4-6.3,4.1-5.4,8.1-11.8s6.3-7.1,6.8-7.2c1.7-.3,3.5,2.1,4.9,2.8Z"/>
    <path class="st223" d="M260.3,206.8c.1,1.4-.6,2-1.5,2.9l-8.8-8.1c3-4.7,7.5,4.2,10.2,5.1Z"/>
    <path class="st29" d="M269.1,145.2c1.3.3,3.2-.5,4.8,0s3.8,5.4,9.9,2.9c-1,.9-2.8,1.4-2.9,1.5-2.5,4.4,5.8,1.6,8.8,1.4,1.2,4.5-9.9,6.8-10.3,7.4-.6.8,2.8,4.1,1.5,8.8-1.3-.7-5.2-.9-5.9-1.5-3.8,2.4-4.9-5.2-4.5-8,4-2,3-4.2-2.8-6.6-4.1-1.3-2.7-5.8,1.5-5.9Z"/>
    <path class="st213" d="M301.3,152.5c2.9,2.5,2.4,3.3-1.5,2.9-3.3,6.5,2,7,2.9,8.8,3.9.8,3.8,1.9,0,2.9-3.5-.8-2.6,2.6-2.9,2.9-1.1,1.1-3.2,1.9-4.4,2.9-.9-4.2.4-11.7,0-15.2s-4.6-2.9-4.3-5.3c1.8.3,3-.6,4.4-1.5s1-1.3,1.5-1.5c2.6-.5,5.8-.4,4.4,2.9Z"/>
    <path class="st50" d="M241.2,136.4c1.1-.4,2-.6,2.3-.3,2.3,2.7,2.3,22.7-5.2,22.3-.2-.1-1,0-1.5,0-.2,2.8-1.4,4.2-4.1,3.8l1.2,2-10.3,10.3c-2-4.4,0-6.8-5.9-5.9.8-8.9,2.7-4.2,5.9-4.4-1.9-5.7-1.4-8.2,1.5-7.3l1.1-1.5c6.9-1.2,8.9-3.6,6.3-7.3-.2-2.6,1.3-5.6,4.4-8.8-1.6-.5-.9-1.9,0-2.9.8-.4,3.6.4,4.4,0Z"/>
    <path class="st57" d="M245.6,132c.2,1.8.7,3.7,1.5,5.9,3.4.6,4.7,8,0,8.8,2.8,5.3,1.8,9.2-2.9,11.7,3.1.2,3.2,2.2,1.5,4.4,3.2,2.7,2.7,3.6-1.5,2.9-2.6,3.7-4.4,2.8-2.9-1.5-.7-1.2-1.5-5.1-2.9-5.9-.3-3.2,3.6-4.7,4.1-6.9s-.9-3.5-.7-5.4c.3-2.6,3.8-5.8-.5-9.7.3-.2-.4-1.9,4.4-4.4Z"/>
    <path class="st34" d="M236.8,158.4v8.8s-1.4,0-1.4,0c0-1-.7-2.7-1.5-2.9-2.5-.7-6.5,2.8-8.8.7,2.2-2.8,8.4-6.3,11.7-6.6Z"/>
    <path class="st266" d="M244.1,165.7c1.3.3,1.2.8,0,1.5-.8,2.9-1.8,6.8-3.7,8.8l-.7-1.4c-.2-3.3-1.5-2.8-1.5-2.9.1-2.8.3-5.7,2.9-7.3.8,1.3,1.4,1.6,2.9,1.5Z"/>
    <path class="st218" d="M302.8,164.2c7.5-2,6.6,5,13.2,1.5,0,.9.2,2,0,2.9-3.6.6-6.6.7-10.3,0s-2-1.1-2.9-1.5c-.1-.9.2-2.5,0-2.9Z"/>
    <path class="st306" d="M252.9,162.8c.4-1.4.9-1.3,1.5,0,3.9-2.7,4.4,2.7,4.4,5.9-1,.4-2,.9-2.9,1.5-8.1,2.5-6.5-1.2-11.7-2.9.1-.4,0-1,0-1.5s1.2-1.4,1.5-2.9c2-1.4,4.4-1.4,7.3,0Z"/>
    <path class="st175" d="M267.6,151.1c1.5-.2,3.7-1.6,5-1.3s3.6,6.8,8.2,5.7l-8.8,3.7c.8,1.1,2.7,6.3,2.9,6.6-6.2-1.5-.4,6.3-1.5,7.3-5.4-.1-4.7-1.4-5.9-4.4l.5-2.4c-3.5-1.2-2.4-4,1-4.9-2.8-1.6-6.4-4.9-5.9-8.8-1.3-4.1,1.9-4.8,4.4-1.5Z"/>
    <path class="st120" d="M254.4,162.8c-1.4-6.4,11.9-10.3,14.7-1.5.2,1.7-.2,6.5-1.5,7.3-.3-.8.8-3-.8-3-3.2-.3-5.4,1.8-8,3-2.5-.6-3.3-5.3-4.4-5.9Z"/>
    <path class="st109" d="M232.4,148.1c2.8,3.7-3.6,8.2-7.3,8.8-1.7,3.5,1.3,7.1-1.5,7.3.8-3.8-4.1-3.6-5.9-6.6-.1-.3,2.6-5,2.9-5.1,1.2-.5,4.2.4,5.9,0-1.2-4.6-4.8-6.2-2.9-10.2,1,.5,2,1,2.9,1.5,3.7-1.6,7.1-3.1,10.3-4.4-1.3,4.7-1.3,4.8-4.4,8.8Z"/>
    <path class="st101" d="M211.9,164.2c-.3.5.2,2.1,0,2.9-2.9,1.2-5.7,2.5-8.8,2.9-.7-6.2.6-3.5,2.9-4.4.5-3.8,6.8-6.3,5.9-1.5Z"/>
    <path class="st227" d="M213.4,159.9c0,.4,1.1,1.4.9,2.3-.4,1.6-2.2,1.8-2.4,2.1-3.4-2.4-1.6-.2-5.9,1.5-1.3-5.5,2.8-5.4,7.3-5.9Z"/>
    <path class="st0" d="M236.8,139.3c-4.9,2.5-4.4,7.5-10.3,4.4,3.1-2.7,6.7-5.3,10.3-7.3,1.7,1.7.2,2.2,0,2.9Z"/>
    <path class="st202" d="M247.1,136.4c1.3.3,1.3.8,0,1.5l-2.9,1.5,1.5-7.3c.5-.2.9-1.1,1.5-1.5.2,3.2,0,3.2,0,5.9Z"/>
    <path class="st292" d="M266.1,143.7c.7,0,2,1.3,2.9,1.5l-1.5,5.9c-1.6.2-3.7,1.4-4.4,1.5-.1,1.4-.7,1.3-1.5,0-2.9,3.8-13.9-2.7-8.8-4.4-.6-3.9.1-4.2,2.9-1.5,3.3-1.5,6.6-2.9,10.3-2.9Z"/>
    <path class="st124" d="M307.2,152.5c.3.6-.4,2.6,0,2.9s5.7-3.2,7.3,2.9c-.5,0-1,0-1.5,0-6.7.4-6.5.7-13.2-2.9.4-.8,1-2.6,1.5-2.9-.3-3.3,2-3,4.4-1.5.4.5,1.2.9,1.5,1.5Z"/>
    <path class="st125" d="M305.7,151.1c-1,1-3.8,1-4.4,1.5l-4.4-2.9c4.6-2.2,5.4-2.8,8.8,1.5Z"/>
    <path class="st190" d="M252.9,137.9c-1,1.4-1.8,2.5-1.5,4.4l5.8-1.5-1.5,5.9c-1,.5-1.9,1-2.9,1.5-1.1,2.4-5,.6-5.9-1.5.6-4.3-.1-5.3,0-8.8s0-1,0-1.5l5.9,1.5Z"/>
    <path class="st284" d="M279.3,198c.1,2.1-5.4,2.3-7,2.5-3.5.4-8.1-.7-12,.4-.6-3.3.3-2.9,2.9-3.6,5.9-1.7,10.5-.3,16.2.7Z"/>
    <path class="st303" d="M307.2,239c.8,1,4.4,4.8,4.4,5.1-.1,2.5-9.8.4,1.5,7.3-1,3-8.1,2.6-4.4,6.6-1.1.2-1.1.6-1.5,1.5-5.7.8-4.2,4.3-4.7,5.2-2.4,4.4-8.7-6.4-10-8.1-4.1-.7.9-13.7,1.5-14.2,1.5-1.1,8.3-.7,10.2-.5,1-.9,2-1.9,2.9-2.9Z"/>
    <path class="st228" d="M292.5,256.6c-.9-1.3-3.9-1.3-4.4-5.2-1.2-9.9,9.2-16.6,16.2-9.5-3.4,3-3.2,4.3-8.8,1.5,2.2,6.6-4.2,7-2.9,13.2Z"/>
    <path class="st127" d="M232.4,148.1l8.8,2.2c-1.6,2.2-3.6,3.2-5.9,4.4s-8.8,4.6-10.3,2.2c2.4-5,6-7.1,7.3-8.8Z"/>
    <path class="st60" d="M247.1,146.7c2.7,2.5,6.6,4.8,11.8,6.9l-3,3.4c.8,2.2-2.5,4.4-4.4,2.9-1.1,2.9-3.5,2.4-7.3-1.5.5-3.6,2.5-8.8,2.9-11.7Z"/>
    <path class="st120" d="M244.1,158.4c4.8-3.5,3.7,0,4.9.9s2.2.4,2.4.6c3.9-.9,4.4.2,1.5,2.9-2.4,1.4-1,4.4-7.3,0,0-.2-1.9-.9-1.5-4.4Z"/>
    <path class="st144" d="M263.2,152.5c4.2,3.3,5.3,3.4,5.9,8.8-5.5-3.5-4.6,3.8-10.3,2.9,10.2-6.8,0-9.1-4.4-1.5-.2,0-1.3,0-1.5,0-.6-.8-.9-2.5-1.5-2.9,1-1.7,2.8-2.1,4.4-2.9,0-2.8,2-4.3,5.9-4.4.5,0,1,0,1.5,0Z"/>
    <path class="st252" d="M252.9,148.1c.2.2-.4,2,.3,2.7s8.1,1.7,8.5,1.7c-1.5,2.7-3.5,3.1-5.9,4.4,3.9-5.1-12.8-6.4-8.8-10.3s5.4,1.1,5.9,1.5Z"/>
  </g>
</svg>