<svg id="Layer_1" xmlns="http://www.w3.org/2000/svg" viewBox="0 0 32 32"><style>.st1{fill:#fff}.st2{fill:#d0ab39}</style><circle cx="16" cy="16" r="16" fill="#15272e"/><circle class="st1" cx="14.6" cy="9.5" r="1.2"/><path class="st1" d="M23.1 10.4c0 .2-.2.4-.4.4-.1 0-.2 0-.2-.1l-1.6-.9c-.1-.1-.2-.2-.2-.3 0-.1.1-.3.2-.3l1.6-.9c.1 0 .1-.1.2-.1.2 0 .4.2.4.4 0 .1-.1.3-.2.3l-1.1.6 1 .6c.2 0 .3.2.3.3z"/><path class="st2" d="M15.6 13.4v5.5c0 .5-.4 1-1 1-.5 0-1-.4-1-1v-5.5c0-.5.4-1 1-1 .5 0 1 .4 1 1z"/><path class="st1" d="M27.9 18.2c.1.2.2.4.2.6 0 .5-.4 1-1 1-.3 0-.6-.1-.8-.4l-.1-.1-1.6-2.3c-.2-.2-.4-.5-.4-.8 0-.3.1-.5.3-.7l1.8-2.7.1-.2c.2-.2.5-.4.8-.4.5 0 1 .4 1 1 0 .2 0 .4-.1.5l-.1.3-1.5 2.3 1.4 1.9z"/><path class="st2" d="M23.2 15.3v3.6c0 .5-.4 1-1 1-.5 0-1-.4-1-1v-3.5c0-.4-.4-1-1.2-1-.8 0-1.2.6-1.2 1v3.5c0 .5-.4 1-1 1-.5 0-1-.4-1-1v-3.6c0-.8.4-1.4.9-1.9.6-.6 1.4-1 2.3-1 .9 0 1.7.4 2.3 1 .5.5.9 1.1.9 1.9zM12.4 13.6L11.2 19c-.1.5-.5.8-1 .8-.4 0-.8-.3-.9-.7l-1-2.8-.8 2.8c-.1.4-.5.7-1 .7-.4 0-.8-.3-.9-.7 0 0-1.7-5.5-1.7-5.8 0-.5.4-1 1-1 .4 0 .8.3.9.7l.7 2.5.8-2.5c.1-.4.5-.7.9-.7.5 0 .9.3 1 .7l.8 2.4.5-2.3c.1-.5.5-.8 1-.8s1 .4 1 1c-.1.1-.1.3-.1.3z"/><path class="st1" d="M24.1 21.8c0 .2-.1.3-.2.4-.1.1-2.4 1.7-5.5 1.7-3 0-5-1.5-5.2-1.7-.1-.1-.2-.2-.2-.4 0-.3.2-.5.5-.5.1 0 .3.1.4.2 0 0 1.6 1.4 4.6 1.4 2.9 0 4.8-1.3 5-1.4.1-.1.2-.1.3-.1 0-.1.3.1.3.4z"/></svg>