<?xml version="1.0"?>
<svg width="500" height="500" xmlns="http://www.w3.org/2000/svg" xmlns:svg="http://www.w3.org/2000/svg" enable-background="new 0 0 500 500" version="1.1" xml:space="preserve">
 <g class="layer">
  <title>Layer 1</title>
  <ellipse cx="250" cy="250" fill="#ffffff" id="svg_2" rx="240" ry="240"/>
  <path d="m479.9,152.9c-12.7,-29.7 -30.5,-56.3 -53.7,-79.5c-23.1,-23.1 -49.3,-41 -79,-53.7c-30.9,-13.1 -63.6,-19.7 -97.2,-19.7c-34,0 -66.8,6.5 -97.3,19.6c-29.7,12.7 -56.3,30.6 -79.4,53.8c-23.1,23.1 -41,49.8 -53.7,79.5c-13.1,30.5 -19.6,63.3 -19.6,97.3c0,33.6 6.5,66.4 19.6,97.4c12.7,29.7 30.5,56.3 53.7,79.5c23.1,23.1 49.7,41 79.4,53.3c31,13.1 63.7,19.6 97.3,19.6s66.3,-6.5 97.3,-19.6c29.7,-12.7 56.3,-30.6 79.4,-53.7c23.1,-23.1 41,-49.8 53.7,-79.5c13.1,-31 19.6,-63.7 19.6,-97.4c0,-33.6 -7,-66.4 -20.1,-96.9zm-312.8,73.7c10,-40.2 46.7,-69.4 89.9,-69.4l173.6,0c11.3,21.4 18.3,45 20.9,69.4l-284.4,0zm284.5,47.2c-2.6,24.5 -10,48 -20.9,69.4l-173.7,0c-43.2,0 -79.4,-29.7 -89.9,-69.4l284.5,0zm-345.1,-167.2c38.4,-38.4 89.4,-59.4 143.5,-59.4s105.1,21 143.5,59.4c1.3,1.3 2.2,2.2 3.5,3.5l-140,0c-37.5,0 -72.4,14.4 -99,41c-20.9,21 -34.5,47.2 -38.8,75.5l-70.8,0c5.3,-45.4 25.3,-87.3 58.1,-120zm143.5,346.6c-54.1,0 -105.1,-21 -143.5,-59.4c-32.7,-32.7 -52.8,-75.1 -58,-120.1l70.7,0c4.8,28.4 18.3,54.6 38.8,75.5c26.6,26.6 61.5,41 99,41l140,0c-1.3,1.3 -2.2,2.2 -3.5,3.5c-38.4,38.6 -89.4,59.5 -143.5,59.5z" id="svg_1"/>
 </g>
</svg>