<?xml version="1.0" encoding="utf-8"?>
<!-- Generator: Adobe Illustrator 26.0.2, SVG Export Plug-In . SVG Version: 6.00 Build 0)  -->
<svg version="1.1" id="Layer_1" xmlns="http://www.w3.org/2000/svg" xmlns:xlink="http://www.w3.org/1999/xlink" x="0px" y="0px"
	 width="128px" height="128px" viewBox="0 0 128 128" style="enable-background:new 0 0 128 128;" xml:space="preserve">
<style type="text/css">
	.st0{fill:#0D0E11;}
	.st1{fill:#FEFEFE;}
</style>
<circle class="st0" cx="64" cy="64" r="63.5"/>
<g>
	<path class="st1" d="M104.9,36.2H91.2l-6.3,20.7h13.5L104.9,36.2z"/>
	<path class="st1" d="M73.6,55.9l6.8,16l2.5-8.2h13.4l-7.6,24.8c-0.6,1.9-2.4,3.3-4.5,3.3h-7.6c-1.9,0-3.6-1.1-4.3-2.9l-8.4-20.6
		l-8.3,20.5c-0.7,1.7-2.4,2.9-4.3,2.9h-7.7c-2.1,0-3.9-1.3-4.5-3.3l-16-52.3h13.5l10.6,35.7l7-16.1c1.5-4,5.4-6.6,9.6-6.6
		C68.2,49.1,72.1,51.8,73.6,55.9z"/>
</g>
</svg>
