<?xml version="1.0" encoding="utf-8"?>
<!-- Generator: Adobe Illustrator 24.3.0, SVG Export Plug-In . SVG Version: 6.00 Build 0)  -->
<svg version="1.1" id="Layer_1" xmlns="http://www.w3.org/2000/svg" xmlns:xlink="http://www.w3.org/1999/xlink" x="0px" y="0px"
	 viewBox="0 0 128 128" style="enable-background:new 0 0 128 128;" xml:space="preserve">
<style type="text/css">
	.st0{fill:#4A90E2;}
	.st1{fill:#FFFFFF;}
</style>
<g>
	<circle class="st0" cx="64" cy="64" r="64"/>
	<circle class="st1" cx="21.2" cy="78.4" r="7.2"/>
	<path class="st1" d="M106.8,42.4c-4,0-7.2,3.2-7.2,7.2c0,6-0.8,7.2-7.2,7.2H92c-4,0.4-6.4,3.6-6.4,7.2c0,5.6-1.2,7.2-7.2,7.2h-0.8
		c-4,0.4-6.4,3.6-6.4,7.2c0,4,3.2,7.2,7.2,7.2s6.8-3.2,6.8-6.8v-0.4c0-5.2,1.6-7.2,7.2-7.2c4,0,7.2-3.2,7.2-6.8V64
		c0-5.2,1.6-7.2,7.2-7.2c4,0,7.2-3.2,7.2-7.2S110.8,42.4,106.8,42.4z M64.8,56.8H64c-6,0-7.2-1.2-7.2-7.2c0-4-3.2-7.2-7.2-7.2
		s-7.2,3.2-7.2,7.2c0,6-0.8,7.2-7.2,7.2h-0.4c-4,0-6.4,3.2-6.4,7.2s3.2,7.2,7.2,7.2c3.6,0,6.8-3.2,6.8-6.8V64c0-5.2,1.6-7.2,7.2-7.2
		s7.2,2,7.2,7.2c0,4,3.2,7.2,7.2,7.2s7.2-3.2,7.2-7.2S68.4,57.2,64.8,56.8z"/>
</g>
</svg>
