<?xml version="1.0" encoding="utf-8"?>
<!-- Generator: Adobe Illustrator 24.3.0, SVG Export Plug-In . SVG Version: 6.00 Build 0)  -->
<svg version="1.1" id="Layer_1" xmlns="http://www.w3.org/2000/svg" xmlns:xlink="http://www.w3.org/1999/xlink" x="0px" y="0px"
	 width="50px" height="50px" viewBox="0 0 50 50" style="enable-background:new 0 0 50 50;" xml:space="preserve">
<style type="text/css">
	.st0{fill-rule:evenodd;clip-rule:evenodd;fill:#006AE3;}
	.st1{fill:#FFFFFF;}
</style>
<path id="SVGID" class="st0" d="M25,0c13.8,0,25,11.2,25,25S38.8,50,25,50S0,38.8,0,25S11.2,0,25,0z"/>
<polygon id="SVGID-2" class="st1" points="24,35.5 24,14.7 26.2,14.7 26.2,35.5 "/>
<path id="SVGID-3" class="st1" d="M35.5,21.7l-7,1.9l-1.6-7.3l2.1-0.5l0.8,3.4c0,0,1.9-3.1-0.6-6.3c-1.5-1.7-2.2-1.7-3.9-2
	c-1.5-0.2-4.9,0.3-5.9,4.3c-0.4,2.6,0.1,4.5,3.4,6.9l-0.2,2.8c0,0-3.7-2.6-4.6-4.4c-0.7-1.4-2-4.3,0.3-8.2c1.2-2,3.6-3.9,7.9-3.7
	c2.1,0.1,7.4,2.7,6.6,8.8C32.6,18.5,32,20,32,20l2.9-0.6L35.5,21.7z"/>
<path id="SVGID-4" class="st1" d="M31.5,37.9c-1.3,1.9-3.7,3.8-8,3.5c-2.1-0.1-7.3-2.9-6.3-9c0.2-1.1,0.8-2.6,0.8-2.6l-2.9,0.6
	l-0.6-2.3l7-1.7l1.4,7.3l-2.1,0.4l-0.7-3.5c0,0-2,3,0.5,6.3c1.4,1.7,2.1,1.8,3.8,2.1c1.5,0.2,4.9-0.2,6-4.1c0.5-2.5,0.1-4.5-3.2-7
	l0.3-2.8c0,0,3.6,2.7,4.5,4.5C32.7,31.2,33.9,34,31.5,37.9L31.5,37.9z"/>
</svg>
