<?xml version="1.0" encoding="UTF-8"?><svg xmlns="http://www.w3.org/2000/svg" viewBox="0 0 512 512"><g id="BG_WHITE"><circle cx="272.71806" cy="247.24309" r="220.27922" fill="#fff"/></g><g id="CIRCLE_OUTLINE_BLACK"><g id="zec-circle-solid-default"><path d="m256,0C114.61511,0,0,114.61511,0,256s114.61511,256,256,256,256-114.61511,256-256S397.38489,0,256,0Zm88.14423,367.08746h-63.44513v38.86301h-49.86646v-38.16068h-62.97687c1.17059-19.66565-3.74585-37.6925,11.00342-55.2511,29.26434-35.11719,55.95343-72.34143,83.57901-108.62927.57391-1.12547,1.0441-2.3009,1.40466-3.5117h-88.02719v-53.84639c17.79272-.46826,35.35138-.46826,54.31464-.46826v-40.03363h50.10059v39.56543h60.86981c-2.10699,19.19739,4.68231,37.69244-9.83276,55.48517-28.56207,35.11725-55.017,72.10736-82.40845,108.39514-.27469.99268-.43182,2.01419-.4682,3.04352h95.75293v54.54877Z" fill="#ebb242"/></g></g></svg>