<?xml version="1.0" encoding="UTF-8"?><svg id="Layer_1" xmlns="http://www.w3.org/2000/svg" xmlns:xlink="http://www.w3.org/1999/xlink" viewBox="0 0 128 128"><defs><style>.cls-1{clip-path:url(#clippath);}.cls-2{fill:none;}.cls-2,.cls-3,.cls-4,.cls-5{stroke-width:0px;}.cls-6{mask:url(#mask);}.cls-3{fill-rule:evenodd;}.cls-3,.cls-4{fill:#fff;}.cls-5{fill:#005741;}</style><clipPath id="clippath"><circle class="cls-2" cx="65.13" cy="-77.18" r="63.5"/></clipPath><mask id="mask" x="-4.57" y="-140.53" width="141.09" height="141.39" maskUnits="userSpaceOnUse"/></defs><circle class="cls-5" cx="64" cy="64" r="63.5"/><g class="cls-1"><g id="CSIX"><g class="cls-6"><path class="cls-3" d="m2.09-117.35s23.72,2.39,31.95,9.57c0,0-8.8-10.33-6.11-20.06,0,0,6.17,9.34,15.3,13.09,8.75,3.59,37.31,10.93,33.41,27.67,0,0,4.14,2.24,6.77,6.54,1.7,2.78,2.47,6.7,1.75,10.32-.94,4.74-3.46,9.64-10.72,12.31,0,0-10.32-16.94-24.24-6.66-6.17,4.56-8.18,13.89-4.19,22.67,3.85,8.49,14.69,18.27,44.28,20.52,10.05.76,34.27,1.78,42.89-12.26,0,0,4.79,15.64-13.2,28.67,0,0-58.39,12.29-94.49,1.22C2.03-10.95-4.92-32.39-4.56-58.55c0,0,3.07-53.24,6.64-58.79Z"/></g></g></g><g id="ZETA"><path class="cls-4" d="m83.09,87.3v-8.86h9.77v18.72h-57.41c-1.33-12.26.88-23.37,10.62-31.88,9.39-8.21,18.91-16.27,28.37-24.4.5-.43.97-.88,1.77-1.62h-31v9.04h-9.87v-18.88h57.54v38.48h-9.67v-20.97c-.73.46-1.14.65-1.48.94-9.16,7.8-18.34,15.57-27.45,23.43-4.18,3.61-7.68,7.73-8.64,13.44-.13.8-.16,1.61-.25,2.56h37.69Z"/></g></svg>