<?xml version="1.0" encoding="UTF-8"?><svg id="Layer_1" xmlns="http://www.w3.org/2000/svg" xmlns:xlink="http://www.w3.org/1999/xlink" viewBox="0 0 128 128"><defs><style>.cls-1{fill:url(#linear-gradient);}.cls-1,.cls-2,.cls-3,.cls-4,.cls-5{stroke-width:0px;}.cls-2{fill:url(#linear-gradient-4);}.cls-3{fill:url(#linear-gradient-2);}.cls-4{fill:url(#linear-gradient-3);}.cls-5{fill:#e9edf0;}</style><linearGradient id="linear-gradient" x1="85.37" y1="785.09" x2="36.99" y2="703.58" gradientTransform="translate(0 -669.11)" gradientUnits="userSpaceOnUse"><stop offset="0" stop-color="#306e7c"/><stop offset=".52" stop-color="#4b8f95"/><stop offset="1" stop-color="#6cb8b8"/></linearGradient><linearGradient id="linear-gradient-2" x1="30.25" y1="686.45" x2="99.21" y2="711.17" xlink:href="#linear-gradient"/><linearGradient id="linear-gradient-3" x1="85.33" y1="720.02" x2="100.64" y2="720.02" xlink:href="#linear-gradient"/><linearGradient id="linear-gradient-4" x1="92.8" y1="728.53" x2="93.15" y2="784.36" xlink:href="#linear-gradient"/></defs><circle class="cls-5" cx="64" cy="64" r="63.5"/><g id="ZIL"><polygon class="cls-1" points="85.33 61.75 45.56 81.32 85.33 100.18 85.33 115.39 27.39 87.91 27.36 72.94 67.68 53.12 27.39 34.02 27.39 18.81 85.33 46.29 85.33 61.75"/><polygon class="cls-3" points="27.39 18.81 42.7 12.61 100.64 40.08 85.33 46.29 27.39 18.81"/><polygon class="cls-4" points="85.33 61.75 100.64 55.54 100.64 40.08 85.33 46.29 85.33 61.75"/><polygon class="cls-2" points="85.33 100.18 85.33 69.78 100.64 62.73 100.64 109.18 85.33 115.39 85.33 100.18"/></g></svg>