<?xml version="1.0" encoding="UTF-8"?><svg id="CIRCLE_OUTLINE_BLACK" xmlns="http://www.w3.org/2000/svg" viewBox="0 0 512 512"><path d="m512,256c0,141.38499-114.61502,256-256,256S0,397.38499,0,256,114.61499,0,256,0s256,114.61502,256,256" fill="#fff"/><path d="m256.00001,0C114.61513,0,.00001,114.61523.00001,256s114.61511,256,256,256,256-114.61523,256-256S397.3849,0,256.00001,0ZM100.07582,117.46802c36.32867-40.10327,81.14984-63.69312,134.93524-69.35474,42.4621-4.71802,83.03705,3.77441,120.78119,24.06177,1.41541.9436,2.83081,1.41528,4.24622,2.35913,0,1.41528,0,1.88721.4718,2.35889-15.09766,10.85156-30.19531,21.70288-45.29297,32.08252-25.9491,18.40039-51.89813,37.27246-77.37543,55.67261-3.30261,2.35913-5.66162,2.83081-8.49243-.47192-8.49243-8.96411-17.45667-16.98486-25.9491-25.94897-2.35901-2.35913-4.71802-2.83081-8.02063-1.41528-20.28748,10.37939-36.32874,25.00537-49.53918,43.40576-.9436.94336-1.88721,2.35889-2.83081,3.77441-7.54883-9.90796-14.62585-18.87207-21.70288-28.30811-7.54877-9.90796-14.62579-19.81592-21.70282-29.25195-2.35901-3.30249-2.83081-5.66162.4718-8.96411Zm26.8927,295.81958c-3.30261,2.83081-5.66162,2.83081-9.43604-.47168-35.85693-32.08252-58.50342-71.71387-66.99585-118.89404-8.49243-47.65186-.9436-92.94482,21.70288-135.87891.4718-.9436,1.41541-2.35889,1.88721-3.30249,0-.47192.4718-.47192,1.41541-.9436,31.13892,41.04663,62.74957,82.09326,93.88849,123.14014-.9436,1.41553-1.41541,2.35889-2.35901,3.30273-9.43604,9.90771-18.87207,19.81543-28.77991,29.25146-2.83075,2.83081-3.30261,5.18994-1.41534,8.49268,9.90778,18.87207,23.59003,34.44141,40.57495,47.17993,2.35895,1.41553,4.24622,2.83081,7.07697,4.71802-11.79504,8.96436-22.64648,16.98486-33.49792,25.47729-8.02063,6.13354-16.04126,11.79517-24.06183,17.92847Zm172.67938,47.18018c-51.89819,10.85144-100.96558,2.83081-148.61749-23.59009,42.46216-31.6106,83.98071-62.74963,125.97101-93.88843,9.43604,8.96411,18.40027,17.92847,27.3645,26.42078,9.90784,9.43604,6.13342,9.90784,18.87207,2.83081,17.4566-9.90784,32.08252-23.59009,43.4057-40.10315.4718-.9436,1.41541-1.88721,1.88721-2.83081-.4718,0,0,0,1.41541-.9436,15.09766,20.2876,30.66711,41.04675,46.23657,61.80603-31.13892,36.80054-69.82666,60.39062-116.53497,70.29846Zm137.76605-100.49365c-9.90784-12.73877-18.87207-24.53369-27.8363-36.32886-20.75928-27.3645-41.51855-55.20068-62.74963-82.56519-2.83081-3.77441-2.83081-6.1333.4718-9.43604,8.96423-8.96436,17.4566-17.92847,26.4209-26.89258,2.35895-2.35913,3.30255-4.71826,1.41541-8.02075-10.37964-19.81567-24.53369-36.32886-42.93396-49.53931-1.41541-.94336-2.83081-2.35889-4.71802-3.30249,1.41541-1.41528,2.83081-2.35913,3.77441-3.30249,17.92847-13.68237,35.85693-26.89282,53.7854-40.57495,2.83081-2.35913,5.18982-3.30273,8.49243,0,44.82117,40.57495,68.88306,91.05762,71.24207,151.91992.9436,35.38525-7.07703,68.88306-23.11829,100.4939-1.41541,1.88721-2.83081,4.24609-4.24622,7.54883Z" fill="#231815"/></svg>